<svg width="56" height="56" viewBox="0 0 56 56" fill="none" xmlns="http://www.w3.org/2000/svg">
<path fill-rule="evenodd" clip-rule="evenodd" d="M44.5898 15.7236C44.6055 15.7489 44.6168 15.7672 44.6464 15.7672C44.6464 15.8151 44.6583 15.8749 44.6703 15.9347C44.6823 15.9946 44.6942 16.0544 44.6942 16.1023V23.4362C44.5423 23.4297 44.3896 23.4264 44.2361 23.4264C43.7748 23.4264 43.3205 23.4561 42.8749 23.5137V17.012H35.5495C35.0228 17.012 34.6398 16.5811 34.6398 16.1023V7.7715H15.3448C13.3818 7.7715 11.7539 9.35148 11.7539 11.3624V44.5899C11.7539 46.5529 13.3339 48.1808 15.3448 48.1808H39.284C41.2949 48.1808 42.8749 46.5529 42.8749 44.542V44.3777C43.3205 44.4353 43.7748 44.465 44.2361 44.465C44.3896 44.465 44.5423 44.4617 44.6942 44.4552V44.5899C44.6942 47.5584 42.2524 50.0002 39.284 50.0002H15.3448C12.3764 50.0002 9.93457 47.5584 9.93457 44.5899V11.4102C9.93457 8.44179 12.3764 6 15.3448 6H35.5495C35.6931 6 35.8367 6.04788 35.9325 6.09576C35.9564 6.09576 35.9684 6.10773 35.9804 6.1197C35.9923 6.13167 36.0043 6.14363 36.0283 6.14363C36.0522 6.16757 36.0881 6.19151 36.124 6.21545C36.1599 6.23939 36.1958 6.26333 36.2198 6.28727L44.4548 15.5278C44.4788 15.5517 44.4907 15.5757 44.5027 15.5996C44.5147 15.6235 44.5267 15.6475 44.5506 15.6714C44.5689 15.6897 44.5802 15.708 44.5898 15.7236ZM41.7737 15.2405L36.4592 9.25572V15.2405H41.7737Z" fill="url(#paint0_linear_2287_677)"/>
<path d="M16 34.1161H17.7134V28H22.6314C25.4304 28 27 29.4549 27 31.9606C27 34.4798 25.4304 35.9751 22.6314 35.9751H19.8062V37.2145H23.5731V38.3865H19.8062V41H17.7134V38.3865H16V37.2145H17.7134V35.9751H16V34.1161ZM22.3306 34.1161C24.2009 34.1161 24.9073 33.2943 24.9073 31.9606C24.9073 30.6269 24.2009 29.8456 22.3306 29.8456H19.8062V34.1161H22.3306Z" fill="url(#paint1_linear_2287_677)"/>
<path fill-rule="evenodd" clip-rule="evenodd" d="M44.2361 42.7597C49.1039 42.7597 53.0501 38.8135 53.0501 33.9457C53.0501 29.0779 49.1039 25.1317 44.2361 25.1317C39.3683 25.1317 35.4221 29.0779 35.4221 33.9457C35.4221 38.8135 39.3683 42.7597 44.2361 42.7597ZM44.2361 44.465C50.0458 44.465 54.7554 39.7553 54.7554 33.9457C54.7554 28.136 50.0458 23.4264 44.2361 23.4264C38.4264 23.4264 33.7168 28.136 33.7168 33.9457C33.7168 39.7553 38.4264 44.465 44.2361 44.465Z" fill="url(#paint2_linear_2287_677)"/>
<path fill-rule="evenodd" clip-rule="evenodd" d="M44.3346 28.0947C44.8055 28.0947 45.1872 28.4765 45.1872 28.9474V36.3628L47.5212 34.0288C47.8542 33.6958 48.3941 33.6958 48.7271 34.0288C49.0601 34.3618 49.0601 34.9017 48.7271 35.2346L44.3346 39.6271L39.9421 35.2346C39.6091 34.9017 39.6091 34.3618 39.9421 34.0288C40.2751 33.6958 40.815 33.6958 41.148 34.0288L43.4819 36.3628V28.9474C43.4819 28.4765 43.8637 28.0947 44.3346 28.0947Z" fill="url(#paint3_linear_2287_677)"/>
<defs>
<linearGradient id="paint0_linear_2287_677" x1="9.93457" y1="50.0002" x2="52.7398" y2="16.1845" gradientUnits="userSpaceOnUse">
<stop stop-color="#FE5000"/>
<stop offset="1" stop-color="#FE9800"/>
</linearGradient>
<linearGradient id="paint1_linear_2287_677" x1="16" y1="41" x2="28.8207" y2="30.1517" gradientUnits="userSpaceOnUse">
<stop stop-color="#FE5000"/>
<stop offset="1" stop-color="#FE9800"/>
</linearGradient>
<linearGradient id="paint2_linear_2287_677" x1="33.7168" y1="44.465" x2="54.7554" y2="23.4264" gradientUnits="userSpaceOnUse">
<stop stop-color="#FE5000"/>
<stop offset="1" stop-color="#FE9800"/>
</linearGradient>
<linearGradient id="paint3_linear_2287_677" x1="39.6924" y1="39.6271" x2="50.9589" y2="30.5567" gradientUnits="userSpaceOnUse">
<stop stop-color="#FE5000"/>
<stop offset="1" stop-color="#FE9800"/>
</linearGradient>
</defs>
</svg>
