<svg width="56" height="56" viewBox="0 0 56 56" fill="none" xmlns="http://www.w3.org/2000/svg">
<path d="M16.0914 44.4804C16.3896 44.7322 16.5705 45.0935 16.5923 45.4802C16.6141 45.8672 16.4746 46.246 16.2062 46.5288C15.9381 46.8116 15.5642 46.9738 15.172 46.9776C14.8363 46.9782 14.5111 46.8626 14.2527 46.6511C10.1689 43.3457 7.45632 38.6748 6.62932 33.5244C5.80232 28.3743 6.91856 23.1032 9.76647 18.7122C12.6141 14.3212 16.9951 11.1157 22.0778 9.70408C27.1605 8.29226 32.5914 8.77238 37.3388 11.0532C37.8035 11.2711 38.1148 11.7173 38.1559 12.2238C38.1972 12.7299 37.9615 13.2194 37.5383 13.5077C37.115 13.7959 36.5679 13.8392 36.1035 13.6214C31.9868 11.6337 27.2737 11.2104 22.8621 12.4315C18.4496 13.6526 14.6463 16.4332 12.1745 20.244C9.70307 24.0548 8.73652 28.6303 9.45869 33.0983C10.1812 37.5672 12.5417 41.6184 16.0915 44.4795L16.0914 44.4804ZM47.568 21.2122C47.4221 20.8455 47.1287 20.5554 46.7577 20.411C46.3867 20.2666 45.9714 20.2808 45.6116 20.4506C45.2518 20.6203 44.9795 20.9304 44.8599 21.3063C44.7407 21.6819 44.7849 22.0901 44.9821 22.4325C46.7673 26.1464 47.2447 30.3425 46.3389 34.3552C45.4333 38.3677 43.196 41.9664 39.9828 44.5795C39.6772 44.8296 39.4899 45.1935 39.4655 45.5846C39.4408 45.9757 39.5813 46.3596 39.8535 46.6449C40.1258 46.9302 40.5052 47.0914 40.9021 47.0908C41.234 47.0955 41.5563 46.9793 41.807 46.7646C45.5072 43.7471 48.082 39.5965 49.1228 34.97C50.1638 30.344 49.6115 25.507 47.5535 21.2263L47.568 21.2122ZM33.0295 27.4831C33.5512 28.3414 33.8337 29.3202 33.8485 30.3207C33.8485 31.8259 33.2431 33.2694 32.1653 34.3339C31.0878 35.398 29.6262 35.9959 28.102 35.9959C26.5779 35.9959 25.1163 35.398 24.0388 34.3339C22.961 33.2694 22.3556 31.8259 22.3556 30.3207C22.3556 28.8158 22.961 27.3723 24.0388 26.3079C25.1163 25.2434 26.5779 24.6455 28.102 24.6455C29.1163 24.6528 30.1094 24.9321 30.9753 25.4544L41.3041 15.3104C41.6687 14.9506 42.1997 14.81 42.6975 14.9418C43.1955 15.0735 43.5841 15.4573 43.7175 15.9492C43.8509 16.4407 43.7086 16.9651 43.3443 17.3253L33.0295 27.4831ZM30.9753 30.3492C30.9759 29.5999 30.6764 28.8807 30.1422 28.3487C29.5127 27.7219 28.6238 27.4201 27.7372 27.5322C26.8505 27.6444 26.0674 28.1577 25.6182 28.921C25.1689 29.6839 25.1048 30.6102 25.445 31.4263C25.7849 32.2427 26.4904 32.8565 27.3533 33.0865C28.2163 33.3167 29.1382 33.1368 29.8482 32.6006C30.5582 32.0642 30.9748 31.2319 30.9753 30.3492L30.9753 30.3492Z" fill="url(#paint0_linear_2287_702)"/>
<defs>
<linearGradient id="paint0_linear_2287_702" x1="15.2883" y1="47.0909" x2="52.3018" y2="33.9624" gradientUnits="userSpaceOnUse">
<stop stop-color="#FE5000"/>
<stop offset="1" stop-color="#FCA92A"/>
</linearGradient>
</defs>
</svg>
