<svg width="54" height="54" viewBox="0 0 54 54" fill="none" xmlns="http://www.w3.org/2000/svg">
<path fill-rule="evenodd" clip-rule="evenodd" d="M8.85801 10.4041H8.10801V11.1541V26.1449H3.93237H3.18237V26.8949V30.5891V31.3391H3.93237H5.10976V33.2657H3.93237H3.18237V34.0157V39.9587V40.7087H3.93237H6.80533C7.09862 42.35 8.53334 43.5959 10.2591 43.5959C11.9848 43.5959 13.4195 42.35 13.7128 40.7087H27.1867C27.9829 42.4141 29.7133 43.5959 31.7197 43.5959C34.1239 43.5959 36.1317 41.8992 36.611 39.6379H38.894H42.7489H52.1719C52.5862 39.6379 52.9219 39.3021 52.9219 38.8879C52.9219 38.4736 52.5862 38.1379 52.1719 38.1379H43.4989V27.8586V27.1086H42.7489H39.644V11.9572V11.2072H38.894H35.6816H34.9316V11.9572V27.3047L31.2296 28.4437L29.279 23.9627L23.5732 10.8547L23.377 10.4041H22.8855H8.85801ZM36.699 38.1379H38.144V27.8586V12.7072H36.4316V27.8586V36.5856C36.4316 36.667 36.4186 36.7454 36.3947 36.8187C36.5529 37.2347 36.6572 37.6773 36.699 38.1379ZM34.9316 34.7638V28.8741L31.8254 29.8298L32.0235 30.2955L33.5658 33.9206C33.5703 33.9313 33.5746 33.9421 33.5786 33.9529C34.0736 34.1513 34.5296 34.4265 34.9316 34.7638ZM31.7978 33.5965L30.9344 31.5672L26.3282 33.4824L26.19 33.5399H26.0403H21.6425H8.85801H8.10801V32.7899V29.3577V27.6449H4.68237V29.8391H5.85976H6.60976V30.5891V34.0157V34.7657H5.85976H4.68237V39.2087H6.86143C7.25146 37.6962 8.62477 36.5788 10.2591 36.5788C11.8933 36.5788 13.2667 37.6962 13.6567 39.2087H26.7569C26.7324 39.0078 26.7197 38.8034 26.7197 38.5959C26.7197 35.8345 28.9583 33.5959 31.7197 33.5959C31.7458 33.5959 31.7718 33.5961 31.7978 33.5965ZM26.5484 31.7664L30.3472 30.1869L30.1218 29.6571L30.1193 29.6513L28.1928 25.2256L26.3156 25.9664L25.1549 26.4245L26.5484 31.7664ZM22.394 11.9041L27.5938 23.8495L26.2302 24.3875L23.4238 21.4953L22.9278 20.9843L22.3918 21.4531L21.1487 22.5402C20.8369 22.8129 20.8052 23.2867 21.0779 23.5985C21.3506 23.9103 21.8244 23.942 22.1362 23.6693L22.8432 23.051L24.7188 24.9839L23.9861 25.2731L23.3679 25.517L23.5357 26.1601L25.0695 32.0399H22.0985L20.6136 29.1749V25.9707V25.2207H19.8636H16.6605V20.9305V20.1805H15.9105H12.6491H11.8991V20.9305V28.6077H9.60801V26.8949V11.9041H22.394ZM19.4075 30.1077L20.409 32.0399H9.60801V30.1077H12.6491H19.4075ZM19.1136 26.7207V28.6077H13.3991V21.6805H15.1605V25.9707V26.7207H15.9105H19.1136ZM41.9989 38.1379H39.644V28.6086H41.9989V38.1379ZM31.7197 42.0959C33.6527 42.0959 35.2197 40.5289 35.2197 38.5959C35.2197 36.6629 33.6527 35.0959 31.7197 35.0959C29.7867 35.0959 28.2197 36.6629 28.2197 38.5959C28.2197 40.5289 29.7867 42.0959 31.7197 42.0959ZM10.2591 42.0959C11.3684 42.0959 12.2676 41.1967 12.2676 40.0874C12.2676 38.9781 11.3684 38.0788 10.2591 38.0788C9.14976 38.0788 8.25049 38.9781 8.25049 40.0874C8.25049 41.1967 9.14976 42.0959 10.2591 42.0959Z" fill="#373A36"/>
</svg>
