<svg width="54" height="54" viewBox="0 0 54 54" fill="none" xmlns="http://www.w3.org/2000/svg">
<path fill-rule="evenodd" clip-rule="evenodd" d="M21.4655 8.51226L21.0489 8.23395L20.6323 8.51226L18.8862 9.6787L16.8266 9.26925L16.3352 9.17156L16.0568 9.58811L14.89 11.334L12.8306 11.7439L12.3392 11.8416L12.2414 12.333L11.8315 14.3925L10.0856 15.5593L9.66908 15.8377L9.76677 16.3291L10.1762 18.3887L9.18517 19.8722H7.4231H6.6731V20.6222V25.1298V25.8798H7.4231H10.1201V45.0161V45.7661H10.8701H15.466H16.216V45.0161V43.528L27.5927 39.0442L38.1177 43.5138V45.0161V45.7661H38.8677H43.572H44.322V45.0161V25.8798H46.577H47.327V25.1298V20.6222V19.8722H46.577H44.322V16.6242V15.8742H43.572H40.6327H37.6934H34.5569H33.8069V16.6242V19.8722H32.9127L31.9216 18.3887L32.3311 16.3291L32.4288 15.8377L32.0122 15.5593L30.2663 14.3925L29.8565 12.333L29.7587 11.8416L29.2673 11.7439L27.2078 11.334L26.041 9.58811L25.7626 9.17156L25.2712 9.26925L23.2116 9.6787L21.4655 8.51226ZM31.1088 19.8722L30.5018 18.9637L30.3293 18.7054L30.3899 18.4008L30.7622 16.528L29.1747 15.4671L28.9164 15.2945L28.8558 14.9899L28.4831 13.1172L26.6104 12.7445L26.3058 12.6839L26.1333 12.4257L25.0723 10.8382L23.1995 11.2105L22.8949 11.271L22.6367 11.0985L21.0489 10.0379L19.4612 11.0985L19.2029 11.271L18.8983 11.2105L17.0256 10.8382L15.9646 12.4257L15.792 12.6839L15.4874 12.7445L13.6147 13.1172L13.242 14.9899L13.1814 15.2945L12.9232 15.4671L11.3357 16.528L11.708 18.4008L11.7685 18.7054L11.596 18.9637L10.9891 19.8722H13.7869C14.1295 16.1628 17.25 13.2583 21.0489 13.2583C24.8477 13.2583 27.9682 16.1628 28.3108 19.8722H31.1088ZM21.0489 14.7583C18.0792 14.7583 15.6314 16.9928 15.2951 19.8722H17.3752C17.6946 18.1335 19.2179 16.8161 21.0489 16.8161C22.8799 16.8161 24.4032 18.1335 24.7226 19.8722H26.8026C26.4663 16.9928 24.0186 14.7583 21.0489 14.7583ZM23.1792 19.8722C22.8917 18.9698 22.0466 18.3161 21.0489 18.3161C20.0512 18.3161 19.2061 18.9698 18.9186 19.8722H23.1792ZM8.1731 21.3722H33.8069V22.7434V23.4934H34.5569H37.6934H40.6327H43.572H44.322V22.7434V21.3722H45.827V24.3798H43.572H38.8677H15.466H10.8701H8.1731V21.3722ZM11.6201 44.2661V25.8798H14.716V29.4899V33.1418V37.7196V43.0174V44.2661H11.6201ZM16.216 28.7399V25.8798H38.1177V28.7399H34.742H19.425H16.216ZM39.6177 29.4899V25.8798H42.822V44.2661H39.6177V43.0174V37.7196V33.1418V29.4899ZM34.896 30.2399H38.1177V32.6274L33.2648 34.5006L29.0175 32.7603L34.896 30.2399ZM35.2426 35.345L38.1177 34.2352V36.5808L35.2426 35.345ZM32.9663 35.9993L38.1177 38.2135V41.8841L27.8964 37.5436L27.8964 37.5436L27.8907 37.5412L21.2528 34.7865L21.2469 34.7841L16.216 32.6456V30.2399H19.2708L26.7818 33.4651L26.7818 33.4652L26.7934 33.47L32.9663 35.9993ZM16.216 34.2755L19.0094 35.4628L16.216 36.6033V34.2755ZM16.216 41.9157V38.2235L20.9571 36.2878L25.6033 38.216L16.216 41.9157ZM27.0779 31.9598L23.0724 30.2399H31.0895L27.0779 31.9598ZM35.3069 20.6222V17.3742H36.9434V21.9934H35.3069V20.6222ZM38.4434 21.9934V17.3742H39.8827V21.9934H38.4434ZM41.3827 21.9934V17.3742H42.822V20.6222V21.9934H41.3827Z" fill="#373A36"/>
</svg>
