<svg width="54" height="54" viewBox="0 0 54 54" fill="none" xmlns="http://www.w3.org/2000/svg">
<path fill-rule="evenodd" clip-rule="evenodd" d="M11.6763 7.89243H10.9263V8.64243V44.6076H6.37646C5.96225 44.6076 5.62646 44.9434 5.62646 45.3576C5.62646 45.7718 5.96225 46.1076 6.37646 46.1076H11.6763H29.8803H42.7844H47.6234C48.0376 46.1076 48.3734 45.7718 48.3734 45.3576C48.3734 44.9434 48.0376 44.6076 47.6234 44.6076H43.5344V18.4741V17.7241H42.7844H30.6303V8.64243V7.89243H29.8803H11.6763ZM29.1303 44.6076H12.4263V9.39243H29.1303V18.4741V44.6076ZM42.0344 44.6076H30.6303V19.2241H42.0344V44.6076ZM16.3224 15.1348H18.9704V17.7827H16.3224V15.1348ZM15.1224 13.9348H16.3224H18.9704H20.1704V15.1348V17.7827V18.9827H18.9704H16.3224H15.1224V17.7827V15.1348V13.9348ZM18.9704 22.158H16.3224V24.8059H18.9704V22.158ZM16.3224 20.958H15.1224V22.158V24.8059V26.0059H16.3224H18.9704H20.1704V24.8059V22.158V20.958H18.9704H16.3224ZM16.3224 29.1809H18.9704V31.8288H16.3224V29.1809ZM15.1224 27.9809H16.3224H18.9704H20.1704V29.1809V31.8288V33.0288H18.9704H16.3224H15.1224V31.8288V29.1809V27.9809ZM18.9704 36.2038H16.3224V38.8517H18.9704V36.2038ZM16.3224 35.0038H15.1224V36.2038V38.8517V40.0518H16.3224H18.9704H20.1704V38.8517V36.2038V35.0038H18.9704H16.3224ZM23.455 15.1348H26.1029V17.7827H23.455V15.1348ZM22.255 13.9348H23.455H26.1029H27.3029V15.1348V17.7827V18.9827H26.1029H23.455H22.255V17.7827V15.1348V13.9348ZM26.1029 22.158H23.455V24.8059H26.1029V22.158ZM23.455 20.958H22.255V22.158V24.8059V26.0059H23.455H26.1029H27.3029V24.8059V22.158V20.958H26.1029H23.455ZM34.8311 22.158H37.479V24.8059H34.8311V22.158ZM33.6311 20.958H34.8311H37.479H38.679V22.158V24.8059V26.0059H37.479H34.8311H33.6311V24.8059V22.158V20.958ZM37.479 29.1809H34.8311V31.8288H37.479V29.1809ZM34.8311 27.9809H33.6311V29.1809V31.8288V33.0288H34.8311H37.479H38.679V31.8288V29.1809V27.9809H37.479H34.8311ZM34.8311 36.2038H37.479V38.8517H34.8311V36.2038ZM33.6311 35.0038H34.8311H37.479H38.679V36.2038V38.8517V40.0518H37.479H34.8311H33.6311V38.8517V36.2038V35.0038ZM26.1029 29.1809H23.455V31.8288H26.1029V29.1809ZM23.455 27.9809H22.255V29.1809V31.8288V33.0288H23.455H26.1029H27.3029V31.8288V29.1809V27.9809H26.1029H23.455ZM23.455 36.2038H26.1029V38.8517H23.455V36.2038ZM22.255 35.0038H23.455H26.1029H27.3029V36.2038V38.8517V40.0518H26.1029H23.455H22.255V38.8517V36.2038V35.0038Z" fill="#373A36"/>
</svg>
