<svg width="54" height="54" viewBox="0 0 54 54" fill="none" xmlns="http://www.w3.org/2000/svg">
<path fill-rule="evenodd" clip-rule="evenodd" d="M25.285 21.7206V18.3741C26.2415 18.3785 27.1389 18.4089 27.8861 18.4597C28.3556 18.4915 28.7584 18.5309 29.0755 18.5755C29.4105 18.6226 29.5954 18.6685 29.6639 18.6951C30.3224 18.9512 33.5871 20.413 36.4854 21.7206H25.285ZM30.2075 17.2971C31.1699 17.6713 37.1437 20.3679 40.1257 21.7213C41.4253 21.7329 43.4007 21.8955 45.3448 22.3505C47.3254 22.8141 49.4304 23.616 50.6797 25.0111C51.2584 25.5564 52.1873 26.9723 52.1873 28.9737V28.9843V28.9949V29.0055V29.0161V29.0267V29.0372V29.0478V29.0583V29.0688V29.0793V29.0899V29.1003V29.1108V29.1213V29.1318V29.1422V29.1527V29.1631V29.1735V29.1839V29.1943V29.2047V29.2151V29.2255V29.2359V29.2462V29.2565V29.2669V29.2772V29.2875V29.2978V29.3081V29.3184V29.3286V29.3389V29.3491V29.3593V29.3696V29.3798V29.39V29.4002V29.4103V29.4205V29.4307V29.4408V29.4509V29.4611V29.4712V29.4813V29.4913V29.5014V29.5115V29.5215V29.5316V29.5416V29.5516V29.5617V29.5716V29.5816V29.5916V29.6016V29.6115V29.6215V29.6314V29.6413V29.6512V29.6611V29.671V29.6809V29.6907V29.7006V29.7104V29.7202V29.7301V29.7399V29.7497V29.7594V29.7692V29.779V29.7887V29.7984V29.8082V29.8179V29.8276V29.8372V29.8469V29.8566V29.8662V29.8759V29.8855V29.8951V29.9047V29.9143V29.9239V29.9334V29.943V29.9525V29.9621V29.9716V29.9811V29.9906V30V30.0095V30.019V30.0284V30.0378V30.0473V30.0567V30.0661V30.0754V30.0848V30.0942V30.1035V30.1128V30.1222V30.1315V30.1408V30.15V30.1593V30.1686V30.1778V30.187V30.1962V30.2055V30.2146V30.2238V30.233V30.2421V30.2513V30.2604V30.2695V30.2786V30.2877V30.2968V30.3059V30.3149V30.324V30.333V30.342V30.351V30.36V30.3689V30.3779V30.3869V30.3958V30.4047V30.4136V30.4225V30.4314V30.4403V30.4491V30.458V30.4668V30.4756V30.4844V30.4932V30.502V30.5107V30.5195V30.5282V30.5369V30.5456V30.5543V30.563V30.5717V30.5803V30.589V30.5976V30.6062V30.6148V30.6234V30.6319V30.6405V30.649V30.6576V30.6661V30.6746V30.6831V30.6916V30.7V30.7085V30.7169V30.7253V30.7337V30.7421V30.7505V30.7588V30.7672V30.7755V30.7839V30.7922V30.8005V30.8087V30.817V30.8252V30.8335V30.8417V30.8499V30.8581V30.8663V30.8744V30.8826V30.8907V30.8988V30.907V30.915V30.9231V30.9312V30.9392V30.9473V30.9553V30.9633V30.9713V30.9793V30.9872V30.9952V31.0031V31.011V31.0189V31.0268V31.0347V31.0425V31.0504V31.0582V31.066V31.0738V31.0816V31.0894V31.0971V31.1049V31.1126V31.1203V31.128V31.1357V31.1434V31.151V31.1586V31.1663V31.1739V31.1815V31.189V31.1966V31.2041V31.2117V31.2192V31.2267V31.2342V31.2416V31.2491V31.2565V31.2639V31.2713V31.2787V31.2861V31.2935V31.3008V31.3081V31.3155V31.3228V31.33V31.3373V31.3446V31.3518V31.359V31.3662V31.3734V31.3806V31.3877V31.3949V31.402V31.4091V31.4162V31.4233V31.4304V31.4374V31.4444V31.4514V31.4584V31.4654V31.4724V31.4793V31.4863V31.4932V31.5001V31.507V31.5139V31.5207V31.5276V31.5344V31.5412V31.548V31.5548V31.5615V31.5683V31.575V31.5817V31.5884V31.5951V31.6017V31.6084V31.615V31.6216V31.6282V31.6348V31.6413V31.6479V31.6544V31.6609V31.6674V31.6739V31.6803V31.6868V31.6932V31.6996V31.706V31.7124V31.7188V31.7251V31.7314V31.7378V31.744V31.7503V31.7566V31.7628V31.7691V31.7753V31.7815V31.7876V31.7938V31.7999V31.8061V31.8122V31.8183V31.8243V31.8304V31.8364V31.8425V31.8485V31.8544V31.8604V31.8664V31.8723V31.8782V31.8841V31.89V31.8959V31.9017V31.9076V31.9134V31.9192V31.925V31.9307V31.9365V31.9422V31.9479V31.9536V31.9593V31.9649V31.9706V31.9762V31.9818V31.9874V31.9929V31.9985V32.004V32.0095V32.015V32.0205V32.026V32.0314V32.0368V32.0423V32.0476V32.053V32.0584V32.0637V32.069V32.0743V32.0796V32.0849V32.0901V32.0954V32.1006V32.1058V32.1109V32.1161V32.1212V32.1263V32.1314V32.1365V32.1416V32.1466V32.1517V32.1567V32.1617V32.1666V32.1716V32.1765V32.1814V32.1863V32.1912V32.1961V32.2009V32.2057V32.2106V32.2153V32.2201V32.2249V32.2296V32.2343V32.239V32.2437V32.2483V32.253V32.2576V32.2622V32.2668V32.2713V32.2759V32.2804V32.2849V32.2894V32.2939V32.2983V32.3027V32.3071V32.3115V32.3159V32.3203V32.3246V32.3289V32.3332V32.3375V32.3417V32.346V32.3502V32.3544V32.3586V32.3627V32.3669V32.371V32.3751V32.3792V32.3833V32.3873V32.3913V32.3953V32.3993V32.4033V32.4072V32.4112V32.4151V32.419V32.4228V32.4267V32.4305V32.4343V32.4381V32.4419V32.4456V32.4494V32.4531V32.4568V32.4604V32.4641V32.4677V32.4713V32.4749V32.4785V32.4821V32.4856V32.4891V32.4926V32.4961V32.4995V32.503V32.5064V32.5098V32.5131V32.5165V32.5198V32.5231V32.5264V32.5297V32.5329V32.5362V32.5394V32.5426V32.5457V32.5489V32.552V32.5551V32.5582V32.5613V32.5643V32.5674V32.5704V32.5733V32.5763V32.5793V32.5822V32.5851V32.588V32.5908V32.5937V32.5965V32.5993V32.6021V32.6048V32.6076V32.6103V32.613V33.363H51.4373H48.8213C48.271 35.5264 46.31 37.1265 43.9754 37.1265C41.6456 37.1265 39.688 35.533 39.1329 33.3765H16.8179C16.2628 35.533 14.3052 37.1265 11.9754 37.1265C9.62246 37.1265 7.64914 35.5012 7.11679 33.3121C6.26818 33.1035 5.08589 32.7248 4.07197 32.2021C3.5275 31.9214 2.99316 31.5798 2.58501 31.1717C2.17978 30.7666 1.82983 30.2239 1.82983 29.5579V29.552V29.5461V29.5402V29.5343V29.5284V29.5225V29.5165V29.5105V29.5045V29.4986V29.4925V29.4865V29.4805V29.4744V29.4684V29.4623V29.4562V29.4501V29.444V29.4378V29.4317V29.4255V29.4193V29.4131V29.4069V29.4007V29.3945V29.3883V29.382V29.3757V29.3694V29.3631V29.3568V29.3505V29.3442V29.3378V29.3315V29.3251V29.3187V29.3123V29.3059V29.2995V29.293V29.2866V29.2801V29.2736V29.2672V29.2607V29.2541V29.2476V29.2411V29.2345V29.228V29.2214V29.2148V29.2082V29.2016V29.195V29.1883V29.1817V29.175V29.1683V29.1617V29.155V29.1482V29.1415V29.1348V29.128V29.1213V29.1145V29.1077V29.101V29.0941V29.0873V29.0805V29.0737V29.0668V29.06V29.0531V29.0462V29.0393V29.0324V29.0255V29.0186V29.0116V29.0047V28.9977V28.9907V28.9838V28.9768V28.9698V28.9627V28.9557V28.9487V28.9416V28.9346V28.9275V28.9204V28.9133V28.9062V28.8991V28.892V28.8849V28.8777V28.8706V28.8634V28.8562V28.8491V28.8419V28.8347V28.8274V28.8202V28.813V28.8057V28.7985V28.7912V28.7839V28.7767V28.7694V28.7621V28.7547V28.7474V28.7401V28.7327V28.7254V28.718V28.7107V28.7033V28.6959V28.6885V28.6811V28.6737V28.6662V28.6588V28.6514V28.6439V28.6364V28.629V28.6215V28.614V28.6065V28.599V28.5915V28.5839V28.5764V28.5689V28.5613V28.5537V28.5462V28.5386V28.531V28.5234V28.5158V28.5082V28.5006V28.4929V28.4853V28.4777V28.47V28.4623V28.4547V28.447V28.4393V28.4316V28.4239V28.4162V28.4085V28.4007V28.393V28.3853V28.3775V28.3697V28.362V28.3542V28.3464V28.3386V28.3308V28.323V28.3152V28.3074V28.2996V28.2917V28.2839V28.276V28.2682V28.2603V28.2525V28.2446V28.2367V28.2288V28.2209V28.213V28.2051V28.1972V28.1892V28.1813V28.1734V28.1654V28.1575V28.1495V28.1415V28.1336V28.1256V28.1176V28.1096V28.1016V28.0936V28.0856V28.0776V28.0695V28.0615V28.0535V28.0454V28.0374V28.0293V28.0212V28.0132V28.0051V27.997V27.9889V27.9808V27.9727V27.9646V27.9565V27.9484V27.9403V27.9322V27.924V27.9159V27.9078V27.8996V27.8915V27.8833V27.8751V27.867V27.8588V27.8506V27.8424V27.8342V27.826V27.8178V27.8096V27.8014V27.7932V27.785V27.7767V27.7685V27.7603V27.752V27.7438V27.7355V27.7273V27.719V27.7108V27.7025V27.6942V27.6859V27.6777V27.6694V27.6611V27.6528V27.6445V27.6362V27.6279V27.6196V27.6112V27.6029V27.5946V27.5863V27.5779V27.5696V27.5613V27.5529V27.5446V27.5362V27.5279V27.5195V27.5111V27.5028V27.4944V27.486V27.4776V27.4693V27.4609V27.4525V27.4441V27.4357V27.4273V27.4189V27.4105V27.4021V27.3937V27.3853V27.3768V27.3684V27.36V27.3516V27.3432V27.3347V27.3263V27.3178V27.3094V27.301V27.2925V27.2841V27.2756V27.2672V27.2587V27.2503V27.2418V27.2333V27.2249V27.2164V27.2079V27.1995V27.191V27.1825V27.174V27.1655V27.1571V27.1486V27.1401V27.1316V27.1231V27.1146V27.1061V27.0976V27.0891V27.0806V27.0721V27.0636V27.0551V27.0466V27.0381V27.0296V27.0211V27.0126V27.0041V26.9956V26.987V26.9785V26.97V26.9615V26.953V26.9444V26.9359V26.9274V26.9189V26.9103V26.9018V26.8933V26.8848V26.8762V26.8677V26.8592V26.8506V26.8421V26.8336V26.825V26.8165V26.808V26.7994V26.7909V26.7824V26.7738V26.7653V26.7568V26.7482V26.7397V26.7312V26.7226V26.7141V26.7056V26.697V26.6885V26.6799V26.6714V26.6629V26.6543V26.6458V26.6373V26.6287V26.6202V26.6117V26.6031V26.5946V26.5861V26.5775V26.569V26.5605V26.5519V26.5434V26.5349V26.5264V26.5178V26.5093V26.5008V26.4923V26.4837V26.4752V26.4667V26.4582V26.4497V26.4411V26.4326V26.4241V26.4156V26.4071V26.3986V26.3901V26.3816V26.373V26.3645V26.356V26.3475V26.339V26.3305V26.322V26.3135V26.3051V26.2966V26.2881V26.2796V26.2711V26.2626V26.2541V26.2457V26.2372V26.2287V26.2202V26.2118V26.2033V26.1948V26.1864V26.1779V26.1694V26.161V26.1525V26.1441V26.1356V26.1272V26.1187V26.1103V26.1019V26.0934V26.085V26.0766V26.0681V26.0597V26.0513V26.0429V26.0345V26.0261V26.0176V26.0092V26.0008V25.9924V25.984V25.9757V25.9673V25.9589V25.9505V25.9421V25.9337V25.9254V25.917V25.9086V25.9003V25.8919V25.8836V25.8752V25.8669V25.8585V25.8502V25.8419V25.8335V25.8252V25.8169V25.8086V25.8003V25.7919V25.7836V25.7753V25.767V25.7587V25.7505V25.7422V25.7339V25.7256V25.7173V25.7091V25.7008V25.6926V25.6843V25.6761V25.6678V25.6596V25.6514V25.6431V25.6349V25.6267V25.6185V25.6103V25.6021V25.5939V25.5857V25.5775V25.5693V25.5611V25.5529V25.5448V25.5366V25.5321V25.5276V25.523V25.5185V25.514V25.5095V25.5049V25.5004V25.4959V25.4914V25.4869V25.4823V25.4778V25.4733V25.4688V25.4643V25.4598V25.4553V25.4508V25.4463V25.4418V25.4373V25.4328V25.4283V25.4238V25.4193V25.4149V25.4104V25.4059V25.4014V25.3969V25.3924V25.388V25.3835V25.379V25.3746V25.3701V25.3656V25.3612V25.3567V25.3522V25.3478V25.3433V25.3389V25.3344V25.33V25.3255V25.3211V25.3166V25.3122V25.3077V25.3033V25.2989V25.2944V25.29V25.2856V25.2811V25.2767V25.2723V25.2679V25.2635V25.259V25.2546V25.2502V25.2458V25.2414V25.237V25.2326V25.2282V25.2238V25.2194V25.215V25.2106V25.2062V25.2018V25.1974V25.193V25.1886V25.1842V25.1799V25.1755V25.1711V25.1667V25.1624V25.158V25.1536V25.1493V25.1449V25.1406V25.1362V25.1318V25.1275V25.1231V25.1188V25.1144V25.1101V25.1058V25.1014V25.0971V25.0927V25.0884V25.0841V25.0798V25.0754V25.0711V25.0668V25.0625V25.0582V25.0538V25.0495V25.0452V25.0409V25.0366V25.0323V25.028V25.0237V25.0194V25.0151V25.0108V25.0066V25.0023V24.998V24.9937V24.9894V24.9852V24.9809V24.9766V24.9724V24.9681V24.9638V24.9596V24.9553V24.9511V24.9468V24.9426V24.9383V24.9341V24.9298V24.9256V24.9213V24.9171V24.9129V24.9087V24.9044V24.9002V24.896V24.8918V24.8876V24.8833V24.8791V24.8749V24.8707V24.8665V24.8623V24.8581V24.8539V24.8497V24.8455V24.8414V24.8372V24.833V24.8288V24.8246V24.8205V24.8163V24.8121V24.808V24.8038V24.7997V24.7955V24.7913V24.7872V24.7831V24.7789V24.7748V24.7706V24.7665V24.7624V24.7582V24.7541V24.75V24.7459V24.7417V24.7376V24.7335V24.7294V24.7253V24.7212V24.7171V24.713V24.7089V24.7048V24.7007V24.6966V24.6925V24.6885V24.6844V24.6803V24.6762V24.6722V24.6681V24.664V24.66V24.6559V24.6519V24.6478V24.6438V24.6397V24.6357V24.6316V24.6276V24.6236V24.6195V24.6155V24.6115V24.6075V24.6035V24.5994V24.5954V24.5914V24.5874V24.5834V24.5794V24.5754V24.5714V24.5675V24.5635V24.5595V24.5555V24.5515V24.5476V24.5436V24.5396V24.5357V24.5317V24.5277V24.5238V24.5198V24.5159V24.5119V24.508V24.5041V24.5001V24.4962V24.4923V24.4883V24.4844V24.4805V24.4766V24.4727V24.4688V24.4649V24.461V24.4571V24.4532V24.4493V24.4454V24.4415V24.4376V24.4338V24.4299V24.426V24.4221V24.4183V24.4144V24.4106V24.4067V24.4029V24.399V24.3952V24.3913V24.3875V24.3837V24.3798V24.376V24.3722V24.3684V24.3646V24.3607V24.3569V24.3531V24.3493V24.3455V24.3417V24.3379V24.3342V24.3304V24.3266V24.3228V24.319V24.3153V24.3115V24.3077V24.304V24.3002V24.2965V24.2927V24.289V24.2852V24.2815V24.2778V24.274V24.2703V24.2666V24.2629V24.2592V24.2555V24.2517V24.248V24.2443V24.2406V24.237V24.2333V24.2296V24.2259V24.2222V24.2186V24.2149V24.2112V24.2076V24.2039V24.2002V24.1966V24.1929V24.1893V24.1857V24.182V24.1784V24.1748V24.1711V24.1675V24.1639V24.1603V24.1567V24.1531V24.1495V24.1459V24.1423V24.1387V24.1351V24.1315V24.1279V24.1244V24.1208V24.1172V24.1137V24.1101V24.1066V24.103V24.0995V24.0959V24.0924V24.0889V24.0853V24.0818V24.0783V24.0748V24.0712V24.0677V24.0642V24.0607V24.0572V24.0537V24.0502V24.0468V24.0433V24.0398V24.0363V24.0329V24.0294V24.0259V24.0225V24.019V24.0156V24.0121V24.0087V24.0053V24.0018V23.9984V23.995V23.9916V23.9881V23.9847V23.9813V23.9779V23.9745V23.9711V23.9677V23.9644V23.961V23.9576V23.9542V23.9509V23.9475V23.9441V23.9408V23.9374V23.9341V23.9307V23.9274V23.9241V23.9207V23.9174V23.9141V23.9108V23.9075V23.9041V23.9008V23.8975V23.8942V23.891V23.8877V23.8844V23.8811V23.8778V23.8746V23.8713V23.868V23.8648V23.8615V23.8583V23.8551V23.8518V23.8486V23.8454V23.8421V23.8389V23.8357V23.8325V23.8293V23.8261V23.8229V23.8197V23.8165V23.8133V23.8101V23.807V23.8038V23.8006V23.7975V23.7943V23.7912V23.788V23.7849V23.7817V23.7786V23.7755V23.7723V23.7692V23.7661V23.763V23.7599V23.7568V23.7537V23.7506V23.7475V23.7444V23.7414V23.7383V23.7352V23.7322V23.7291V23.726V23.723V23.72V23.7169V23.7139V23.7109V23.7078V23.7048V23.7018V23.6988V23.6958V23.6928V23.6898V23.6868V23.6838V23.6808V23.6778V23.6749V23.6719V23.6689V23.666V23.663V23.6601V23.6571V23.6548C1.7627 23.237 1.88472 22.7269 2.31854 22.3326C2.76922 21.9229 3.4627 21.7206 4.38642 21.7206H4.39619H4.40596H4.41574H4.42552H4.4353H4.44508H4.45487H4.46465H4.47444H4.48423H4.49402H4.50382H4.51361H4.52341H4.53321H4.543H4.55281H4.56261H4.57241H4.58222H4.59202H4.60183H4.61164H4.62144H4.63125H4.64107H4.65088H4.66069H4.6705H4.68032H4.69013H4.69995H4.70976H4.71958H4.72939H4.73921H4.74903H4.75885H4.76866H4.77848H4.7883H4.79812H4.80794H4.81775H4.82757H4.83739H4.84721H4.85702H4.86684H4.87666H4.88647H4.89629H4.90611H4.91592H4.92573H4.93555H4.94536H4.95517H4.96498H4.97479H4.9846H4.99441H5.00422H5.01402H5.02383H5.03363H5.04343H5.05323H5.06303H5.07283H5.08263H5.09242H5.10222H5.11201H5.1218H5.13159H5.14137H5.15116H5.16094H5.17072H5.1805H5.19028H5.20005H5.20982H5.2196H5.22936H5.23913H5.24889H5.25865H5.26841H5.27817H5.28792H5.29767H5.30742H5.31716H5.32691H5.33664H5.34638H5.35611H5.36585H5.37557H5.3853H5.39502H5.40474H5.41445H5.42416H5.43387H5.44357H5.45327H5.46297H5.47267H5.48236H5.49204H5.50172H5.5114H5.52108H5.53075H5.54042H5.55008H5.55974H5.56939H5.57904H5.58869H5.59833H5.60797H5.6176H5.62723H5.63685H5.64647H5.65609H5.6657H5.6753H5.68491H5.6945H5.70409H5.71368H5.72326H5.73284H5.74241H5.75197H5.76153H5.77109H5.78064H5.79018H5.79972H5.80926H5.81878H5.82831H5.83782H5.84734H5.85684H5.86634H5.87584H5.88532H5.89481H5.90428H5.91375H5.92322H5.93267H5.94213H5.95157H5.96101H5.97044H5.97987H5.98929H5.9987H6.00811H6.01751H6.0269H6.03629H6.04567H6.05504H6.06441H6.07377H6.08312H6.09246H6.1018H6.11113H6.12046H6.12977H6.13908H6.14838H6.15768H6.16696H6.17624H6.18551H6.19478H6.20403H6.21328H6.22252H6.23176H6.24098H6.2502H6.25941H6.26861H6.2778H6.28698H6.29616H6.30533H6.31449H6.32364H6.33278H6.34192H6.35104H6.36016H6.36927H6.37837H6.38746H6.39654H6.40561H6.41468H6.42373H6.43278H6.44182H6.45084H6.45986H6.46887H6.47787H6.48686H6.49585H6.50482H6.51378H6.52273H6.53168H6.54061H6.54953H6.55845H6.56735H6.57625H6.58513H6.59401H6.60287H6.61173H6.62057H6.62941H6.63823H6.64704H6.65585H6.66464H6.67342H6.68219H6.69095H6.69971H6.70845H6.71717H6.72589H6.7346H6.7433H6.75198H6.76066H6.76932H6.77797H6.78662H6.79525H6.80387H6.81247H6.82107H6.82965H6.83823H6.84679H6.85534H6.86388H6.87241H6.88092H6.88942H6.89792H6.9064H6.91486H6.92332H6.93176H6.94019H6.94861H6.95702H6.96542H6.9738H6.98217H6.99053H6.99887H7.00721H7.01553H7.02383H7.03213H7.04041H7.04868H7.05694H7.06518H7.07341H7.08163H7.08983H7.09802H7.1062H7.11437H7.12252H7.13066H7.13878H7.14689H7.15499H7.16308H7.17115H7.1792H7.18725H7.19528H7.20329H7.2113H7.21928H7.22726H7.23522H7.24316H7.2511H7.25901H7.26692H7.27481H7.28268H7.29054H7.29839H7.30622H7.31404H7.32184H7.32963H7.3374H7.34516H7.3529H7.36063H7.36834H7.37604H7.38373H7.39139H7.39905H7.40668H7.41431H7.42192H7.42951H7.43708H7.44465H7.45219H7.45972H7.46724H7.47474H7.48222H7.48969H7.49714H7.50457H7.51199H7.5194H7.52679H7.53416H7.54151H7.54885H7.55618H7.56348H7.57077H7.57805H7.5853H7.59255H7.59977H7.60698H7.61417H7.62134H7.6285H7.63564H7.64277H7.64987H7.65696H7.66403H7.67109H7.67813H7.68515H7.69215H7.69914H7.70611H7.71306H7.72H7.72691H7.73381H7.7407H7.74756H7.75441H7.76123H7.76804H7.77484H7.78161H7.78837H7.79511H7.80183H7.80853H7.81522H7.82188H7.82853H7.83516H7.84177H7.84836H7.85493H7.86149H7.86803H7.87454H7.88104H7.88752H7.89398H7.90043H7.90685H7.91326H7.91964H7.92601H7.93235H7.93868H7.94499H7.95128H7.95755H7.9638H7.97003H7.97624H7.98243H7.98861H7.99476H8.00089H8.007H8.0131H8.01917H8.02522H8.03126H8.03727H8.04326H8.04923H8.05519H8.06112H8.06703H8.07292H8.07879H8.08464H8.09047H8.09628H8.10207H8.10784H8.11358H8.11931H8.12502H8.1307H8.13636H8.14201H8.14763H8.15323H8.15881H8.16436H8.1699H8.17541H8.18091H8.18638H8.19183H8.19726H8.20267H8.20805H8.21342H8.21876H8.22408H8.22938H8.23465H8.23991H8.24514H8.25035H8.25554H8.2607H8.26585H8.27097H8.27607H8.28115H8.2862H8.29123H8.29624H8.30123H8.30619H8.3088C9.13876 21.287 10.3039 20.6999 11.5722 20.0967C13.8048 19.0348 16.4352 17.8848 18.1062 17.467C19.7143 17.065 22.2416 16.8976 24.5279 16.876C25.7901 16.864 27.0043 16.8963 27.9877 16.9631C28.4789 16.9965 28.9199 17.0389 29.2843 17.0901C29.6306 17.1388 29.9647 17.2027 30.2075 17.2971ZM6.99113 31.7266C7.19485 29.1521 9.34855 27.1265 11.9754 27.1265C14.653 27.1265 16.839 29.2312 16.9692 31.8765H23.785V23.2206H13.9392H13.6686L13.4603 23.0478L11.785 21.6578C10.6199 22.2188 9.57252 22.7504 8.84268 23.1344L8.67873 23.2206H8.49347H8.48951H8.48552H8.48151H8.47747H8.47341H8.46932H8.46521H8.46108H8.45692H8.45273H8.44852H8.44429H8.44003H8.43575H8.43144H8.42711H8.42275H8.41837H8.41397H8.40954H8.40509H8.40062H8.39612H8.3916H8.38705H8.38248H8.37789H8.37327H8.36863H8.36397H8.35928H8.35457H8.34983H8.34508H8.3403H8.33549H8.33067H8.32582H8.32094H8.31605H8.31113H8.30619H8.30123H8.29624H8.29123H8.2862H8.28115H8.27607H8.27097H8.26585H8.2607H8.25554H8.25035H8.24514H8.23991H8.23465H8.22938H8.22408H8.21876H8.21342H8.20805H8.20267H8.19726H8.19183H8.18638H8.18091H8.17541H8.1699H8.16436H8.15881H8.15323H8.14763H8.14201H8.13636H8.1307H8.12502H8.11931H8.11358H8.10784H8.10207H8.09628H8.09047H8.08464H8.07879H8.07292H8.06703H8.06112H8.05519H8.04923H8.04326H8.03727H8.03126H8.02522H8.01917H8.0131H8.007H8.00089H7.99476H7.98861H7.98243H7.97624H7.97003H7.9638H7.95755H7.95128H7.94499H7.93868H7.93235H7.92601H7.91964H7.91326H7.90685H7.90043H7.89398H7.88752H7.88104H7.87454H7.86803H7.86149H7.85493H7.84836H7.84177H7.83516H7.82853H7.82188H7.81522H7.80853H7.80183H7.79511H7.78837H7.78161H7.77484H7.76804H7.76123H7.75441H7.74756H7.7407H7.73381H7.72691H7.72H7.71306H7.70611H7.69914H7.69215H7.68515H7.67813H7.67109H7.66403H7.65696H7.64987H7.64277H7.63564H7.6285H7.62134H7.61417H7.60698H7.59977H7.59255H7.5853H7.57805H7.57077H7.56348H7.55618H7.54885H7.54151H7.53416H7.52679H7.5194H7.51199H7.50457H7.49714H7.48969H7.48222H7.47474H7.46724H7.45972H7.45219H7.44465H7.43708H7.42951H7.42192H7.41431H7.40668H7.39905H7.39139H7.38373H7.37604H7.36834H7.36063H7.3529H7.34516H7.3374H7.32963H7.32184H7.31404H7.30622H7.29839H7.29054H7.28268H7.27481H7.26692H7.25901H7.2511H7.24316H7.23522H7.22726H7.21928H7.2113H7.20329H7.19528H7.18725H7.1792H7.17115H7.16308H7.15499H7.14689H7.13878H7.13066H7.12252H7.11437H7.1062H7.09802H7.08983H7.08163H7.07341H7.06518H7.05694H7.04868H7.04041H7.03213H7.02383H7.01553H7.00721H6.99887H6.99053H6.98217H6.9738H6.96542H6.95702H6.94861H6.94019H6.93176H6.92332H6.91486H6.9064H6.89792H6.88942H6.88092H6.87241H6.86388H6.85534H6.84679H6.83823H6.82965H6.82107H6.81247H6.80387H6.79525H6.78662H6.77797H6.76932H6.76066H6.75198H6.7433H6.7346H6.72589H6.71717H6.70845H6.69971H6.69095H6.68219H6.67342H6.66464H6.65585H6.64704H6.63823H6.62941H6.62057H6.61173H6.60287H6.59401H6.58513H6.57625H6.56735H6.55845H6.54953H6.54061H6.53168H6.52273H6.51378H6.50482H6.49585H6.48686H6.47787H6.46887H6.45986H6.45084H6.44182H6.43278H6.42373H6.41468H6.40561H6.39654H6.38746H6.37837H6.36927H6.36016H6.35104H6.34192H6.33278H6.32364H6.31449H6.30533H6.29616H6.28698H6.2778H6.26861H6.25941H6.2502H6.24098H6.23176H6.22252H6.21328H6.20403H6.19478H6.18551H6.17624H6.16696H6.15768H6.14838H6.13908H6.12977H6.12046H6.11113H6.1018H6.09246H6.08312H6.07377H6.06441H6.05504H6.04567H6.03629H6.0269H6.01751H6.00811H5.9987H5.98929H5.97987H5.97044H5.96101H5.95157H5.94213H5.93267H5.92322H5.91375H5.90428H5.89481H5.88532H5.87584H5.86634H5.85684H5.84734H5.83782H5.82831H5.81878H5.80926H5.79972H5.79018H5.78064H5.77109H5.76153H5.75197H5.74241H5.73284H5.72326H5.71368H5.70409H5.6945H5.68491H5.6753H5.6657H5.65609H5.64647H5.63685H5.62723H5.6176H5.60797H5.59833H5.58869H5.57904H5.56939H5.55974H5.55008H5.54042H5.53075H5.52108H5.5114H5.50172H5.49204H5.48236H5.47267H5.46297H5.45327H5.44357H5.43387H5.42416H5.41445H5.40474H5.39502H5.3853H5.37557H5.36585H5.35611H5.34638H5.33664H5.32691H5.31716H5.30742H5.29767H5.28792H5.27817H5.26841H5.25865H5.24889H5.23913H5.22936H5.2196H5.20982H5.20005H5.19028H5.1805H5.17072H5.16094H5.15116H5.14137H5.13159H5.1218H5.11201H5.10222H5.09242H5.08263H5.07283H5.06303H5.05323H5.04343H5.03363H5.02383H5.01402H5.00422H4.99441H4.9846H4.97479H4.96498H4.95517H4.94536H4.93555H4.92573H4.91592H4.90611H4.89629H4.88647H4.87666H4.86684H4.85702H4.84721H4.83739H4.82757H4.81775H4.80794H4.79812H4.7883H4.77848H4.76866H4.75885H4.74903H4.73921H4.72939H4.71958H4.70976H4.69995H4.69013H4.68032H4.6705H4.66069H4.65088H4.64107H4.63125H4.62144H4.61164H4.60183H4.59202H4.58222H4.57241H4.56261H4.55281H4.543H4.53321H4.52341H4.51361H4.50382H4.49402H4.48423H4.47444H4.46465H4.45487H4.44508H4.4353H4.42552H4.41574H4.40596H4.39619H4.38642C3.64255 23.2206 3.38641 23.389 3.32754 23.4425L3.31979 23.4498L3.32983 23.49V23.5823V23.5852V23.588V23.5908V23.5936V23.5965V23.5993V23.6022V23.605V23.6079V23.6107V23.6136V23.6164V23.6193V23.6222V23.6251V23.628V23.6309V23.6338V23.6367V23.6396V23.6425V23.6454V23.6483V23.6513V23.6542V23.6571V23.6601V23.663V23.666V23.6689V23.6719V23.6749V23.6778V23.6808V23.6838V23.6868V23.6898V23.6928V23.6958V23.6988V23.7018V23.7048V23.7078V23.7109V23.7139V23.7169V23.72V23.723V23.726V23.7291V23.7322V23.7352V23.7383V23.7414V23.7444V23.7475V23.7506V23.7537V23.7568V23.7599V23.763V23.7661V23.7692V23.7723V23.7755V23.7786V23.7817V23.7849V23.788V23.7912V23.7943V23.7975V23.8006V23.8038V23.807V23.8101V23.8133V23.8165V23.8197V23.8229V23.8261V23.8293V23.8325V23.8357V23.8389V23.8421V23.8454V23.8486V23.8518V23.8551V23.8583V23.8615V23.8648V23.868V23.8713V23.8746V23.8778V23.8811V23.8844V23.8877V23.891V23.8942V23.8975V23.9008V23.9041V23.9075V23.9108V23.9141V23.9174V23.9207V23.9241V23.9274V23.9307V23.9341V23.9374V23.9408V23.9441V23.9475V23.9509V23.9542V23.9576V23.961V23.9644V23.9677V23.9711V23.9745V23.9779V23.9813V23.9847V23.9881V23.9916V23.995V23.9984V24.0018V24.0053V24.0087V24.0121V24.0156V24.019V24.0225V24.0259V24.0294V24.0329V24.0363V24.0398V24.0433V24.0468V24.0502V24.0537V24.0572V24.0607V24.0642V24.0677V24.0712V24.0748V24.0783V24.0818V24.0853V24.0889V24.0924V24.0959V24.0995V24.103V24.1066V24.1101V24.1137V24.1172V24.1208V24.1244V24.1279V24.1315V24.1351V24.1387V24.1423V24.1459V24.1495V24.1531V24.1567V24.1603V24.1639V24.1675V24.1711V24.1748V24.1784V24.182V24.1857V24.1893V24.1929V24.1966V24.2002V24.2039V24.2076V24.2112V24.2149V24.2186V24.2222V24.2259V24.2296V24.2333V24.237V24.2406V24.2443V24.248V24.2517V24.2555V24.2592V24.2629V24.2666V24.2703V24.274V24.2778V24.2815V24.2852V24.289V24.2927V24.2965V24.3002V24.304V24.3077V24.3115V24.3153V24.319V24.3228V24.3266V24.3304V24.3342V24.3379V24.3417V24.3455V24.3493V24.3531V24.3569V24.3607V24.3646V24.3684V24.3722V24.376V24.3798V24.3837V24.3875V24.3913V24.3952V24.399V24.4029V24.4067V24.4106V24.4144V24.4183V24.4221V24.426V24.4299V24.4338V24.4376V24.4415V24.4454V24.4493V24.4532V24.4571V24.461V24.4649V24.4688V24.4727V24.4766V24.4805V24.4844V24.4883V24.4923V24.4962V24.5001V24.5041V24.508V24.5119V24.5159V24.5198V24.5238V24.5277V24.5317V24.5357V24.5396V24.5436V24.5476V24.5515V24.5555V24.5595V24.5635V24.5675V24.5714V24.5754V24.5794V24.5834V24.5874V24.5914V24.5954V24.5994V24.6035V24.6075V24.6115V24.6155V24.6195V24.6236V24.6276V24.6316V24.6357V24.6397V24.6438V24.6478V24.6519V24.6559V24.66V24.664V24.6681V24.6722V24.6762V24.6803V24.6844V24.6885V24.6925V24.6966V24.7007V24.7048V24.7089V24.713V24.7171V24.7212V24.7253V24.7294V24.7335V24.7376V24.7417V24.7459V24.75V24.7541V24.7582V24.7624V24.7665V24.7706V24.7748V24.7789V24.7831V24.7866H5.96667C6.38088 24.7866 6.71667 25.1224 6.71667 25.5366C6.71667 25.9508 6.38088 26.2866 5.96667 26.2866H3.32983V26.2881V26.2966V26.3051V26.3135V26.322V26.3305V26.339V26.3475V26.356V26.3645V26.373V26.3816V26.3901V26.3986V26.4071V26.4156V26.4241V26.4326V26.4411V26.4497V26.4582V26.4667V26.4752V26.4837V26.4923V26.5008V26.5093V26.5178V26.5264V26.5349V26.5434V26.5519V26.5605V26.569V26.5775V26.5861V26.5946V26.6031V26.6117V26.6202V26.6287V26.6373V26.6458V26.6543V26.6629V26.6714V26.6799V26.6885V26.697V26.7056V26.7141V26.7226V26.7312V26.7397V26.7482V26.7568V26.7653V26.7738V26.7824V26.7909V26.7994V26.808V26.8165V26.825V26.8336V26.8421V26.8506V26.8592V26.8677V26.8762V26.8848V26.8933V26.9018V26.9103V26.9189V26.9274V26.9359V26.9444V26.953V26.9615V26.97V26.9785V26.987V26.9956V27.0041V27.0126V27.0211V27.0296V27.0381V27.0466V27.0551V27.0636V27.0721V27.0806V27.0891V27.0976V27.1061V27.1146V27.1231V27.1316V27.1401V27.1486V27.1571V27.1655V27.174V27.1825V27.191V27.1995V27.2079V27.2164V27.2249V27.2333V27.2418V27.2503V27.2587V27.2672V27.2756V27.2841V27.2925V27.301V27.3094V27.3178V27.3263V27.3347V27.3432V27.3516V27.36V27.3684V27.3768V27.3853V27.3937V27.4021V27.4105V27.4189V27.4273V27.4357V27.4441V27.4525V27.4609V27.4693V27.4776V27.486V27.4944V27.5028V27.5111V27.5195V27.5279V27.5362V27.5446V27.5529V27.5613V27.5696V27.5779V27.5863V27.5946V27.6029V27.6112V27.6196V27.6279V27.6362V27.6445V27.6528V27.6611V27.6694V27.6777V27.6859V27.6942V27.7025V27.7108V27.719V27.7273V27.7355V27.7438V27.752V27.7603V27.7685V27.7767V27.785V27.7932V27.8014V27.8096V27.8178V27.826V27.8342V27.8424V27.8506V27.8588V27.867V27.8751V27.8833V27.8915V27.8996V27.9078V27.9159V27.924V27.9322V27.9403V27.9484V27.9565V27.9646V27.9727V27.9808V27.9889V27.997V28.0051V28.0132V28.0212V28.0293V28.0374V28.0454V28.0535V28.0615V28.0695V28.0776V28.0856V28.0936V28.1016V28.1096V28.1176V28.1256V28.1336V28.1415V28.1495V28.1575V28.1654V28.1734V28.1813V28.1892V28.1972V28.2051V28.213V28.2209V28.2288V28.2367V28.2446V28.2525V28.2603V28.2682V28.276V28.2839V28.2917V28.2996V28.3074V28.3152V28.323V28.3308V28.3386V28.3464V28.3542V28.362V28.3697V28.3775V28.3853V28.393V28.4007V28.4085V28.4162V28.4239V28.4316V28.4393V28.447V28.4547V28.4623V28.47V28.4777V28.4853V28.4929V28.5006V28.5082V28.5158V28.5234V28.531V28.5386V28.5462V28.5537V28.5613V28.5689V28.5764V28.5839V28.5915V28.599V28.6065V28.614V28.6215V28.629V28.6364V28.6439V28.6514V28.6588V28.6662V28.6737V28.6811V28.6885V28.6959V28.7033V28.7107V28.718V28.7254V28.7327V28.7401V28.7474V28.7547V28.7621V28.7694V28.7767V28.7839V28.7912V28.7985V28.8057V28.813V28.8202V28.8274V28.8347V28.8419V28.8491V28.8562V28.8634V28.8706V28.8777V28.8849V28.892V28.8991V28.9062V28.9133V28.9204V28.9275V28.9346V28.9416V28.9487V28.9557V28.9627V28.9698V28.9768V28.9838V28.9907V28.9977V29.0047V29.0116V29.0186V29.0255V29.0324V29.0393V29.0462V29.0531V29.06V29.0668V29.0737V29.0805V29.0873V29.0941V29.101V29.1077V29.1145V29.1213V29.128V29.1348V29.1415V29.1482V29.155V29.1617V29.1683V29.175V29.1817V29.1883V29.195V29.2016V29.2082V29.2148V29.2214V29.228V29.2345V29.2411V29.2476V29.2541V29.2607V29.2672V29.2736V29.2801V29.2866V29.293V29.2995V29.3059V29.3123V29.3187V29.3251V29.3315V29.3378V29.3442V29.3505V29.3568V29.3631V29.3694V29.3757V29.382V29.3883V29.3945V29.4007V29.4069V29.4131V29.4193V29.4255V29.4317V29.4378V29.444V29.4501V29.4562V29.4623V29.4684V29.4744V29.4805V29.4865V29.4925V29.4986V29.5045V29.5105V29.5165V29.5225V29.5284V29.5343V29.5402V29.5461V29.552V29.5579C3.32983 29.6701 3.38784 29.8533 3.64555 30.1109C3.90033 30.3657 4.2839 30.6237 4.75932 30.8688C5.46749 31.2339 6.2944 31.5273 6.99113 31.7266ZM25.285 31.8765H38.9815C39.1118 29.2312 41.2978 27.1265 43.9754 27.1265C46.6484 27.1265 48.8315 29.224 48.9686 31.863H50.6873V31.8604V31.8544V31.8485V31.8425V31.8364V31.8304V31.8243V31.8183V31.8122V31.8061V31.7999V31.7938V31.7876V31.7815V31.7753V31.7691V31.7628V31.7566V31.7503V31.744V31.7378V31.7314V31.7251V31.7188V31.7124V31.706V31.6996V31.6932V31.6868V31.6803V31.6739V31.6674V31.6609V31.6544V31.6479V31.6413V31.6348V31.6282V31.6216V31.615V31.6084V31.6017V31.5951V31.5884V31.5817V31.575V31.5683V31.5615V31.5548V31.548V31.5412V31.5344V31.5276V31.5207V31.5139V31.507V31.5001V31.4932V31.4863V31.4793V31.4724V31.4654V31.4584V31.4514V31.4444V31.4374V31.4304V31.4233V31.4162V31.4091V31.402V31.3949V31.3877V31.3806V31.3734V31.3662V31.359V31.3518V31.3446V31.3373V31.33V31.3228V31.3155V31.3081V31.3008V31.2935V31.2861V31.2787V31.2713V31.2639V31.2565V31.2491V31.2416V31.2342V31.2267V31.2192V31.2117V31.2041V31.1966V31.189V31.1815V31.1739V31.1663V31.1586V31.151V31.1434V31.1357V31.128V31.1203V31.1126V31.1049V31.0971V31.0894V31.0816V31.0738V31.066V31.0582V31.0504V31.0425V31.0347V31.0268V31.0189V31.011V31.0031V30.9952V30.9872V30.9793V30.9713V30.9633V30.9553V30.9473V30.9392V30.9312V30.9231V30.915V30.907V30.8988V30.8907V30.8826V30.8744V30.8663V30.8581V30.8499V30.8417V30.8335V30.8252V30.817V30.8087V30.8005V30.7922V30.7839V30.7755V30.7672V30.7588V30.7505V30.7421V30.7337V30.7253V30.7169V30.7085V30.7V30.6916V30.6831V30.6746V30.6661V30.6576V30.649V30.6405V30.6319V30.6234V30.6148V30.6062V30.5976V30.589V30.5803V30.5717V30.563V30.5543V30.5456V30.5369V30.5282V30.5195V30.5107V30.502V30.4932V30.4844V30.4756V30.4668V30.458V30.4491V30.4403V30.4314V30.4225V30.4136V30.4047V30.3958V30.3869V30.3779V30.3689V30.36V30.351V30.342V30.333V30.324V30.3149V30.3059V30.2968V30.2877V30.2786V30.2695V30.2604V30.2513V30.2421V30.233V30.2238V30.2146V30.2055V30.1962V30.187V30.1778V30.1686V30.1593V30.15V30.1408V30.1315V30.1222V30.1128V30.1035V30.0942V30.0848V30.0754V30.0661V30.0567V30.0473V30.0378V30.0284V30.019V30.0095V30V29.9906V29.9811V29.9716V29.9621V29.9525V29.943V29.9334V29.9239V29.9143V29.9047V29.8951V29.8855V29.8759V29.8662V29.8566V29.8469V29.8372V29.8276V29.8179V29.8082V29.7984V29.7887V29.779V29.7692V29.7594V29.7497V29.7399V29.7301V29.7202V29.7104V29.7006V29.6907V29.6809V29.671V29.6611V29.6512V29.6413V29.6314V29.6215V29.6115V29.6016V29.5916V29.5816V29.5716V29.5617V29.5516V29.5416V29.5316V29.5215V29.5115V29.5014V29.4913V29.4813V29.4712V29.4611V29.4509V29.4408V29.4307V29.4205V29.4103V29.4002V29.39V29.3798V29.3696V29.3593V29.3491V29.3389V29.3286V29.3184V29.3081V29.2978V29.2875V29.2772V29.2669V29.2565V29.2462V29.2359V29.2255V29.2151V29.2047V29.1943V29.1839V29.1735V29.1631V29.1527V29.1422V29.1318V29.1213V29.1108V29.1003V29.0899V29.0793V29.0688V29.0583V29.0478V29.0372V29.0267V29.0161V29.0055V28.9949V28.9843V28.9737C50.6873 27.3902 49.9267 26.3524 49.6397 26.0924L49.6086 26.0641L49.5808 26.0326C48.6594 24.9874 46.9346 24.2632 45.003 23.811C43.1049 23.3668 41.1599 23.2195 39.9626 23.2206L39.9619 23.2206H25.285V31.8765ZM23.785 18.3885V21.7206H14.2098L13.2835 20.952C15.2211 20.061 17.2005 19.2396 18.47 18.9222C19.7374 18.6054 21.7571 18.437 23.785 18.3885ZM28.0325 24.7866C27.6183 24.7866 27.2825 25.1224 27.2825 25.5366C27.2825 25.9508 27.6183 26.2866 28.0325 26.2866H31.0158C31.43 26.2866 31.7658 25.9508 31.7658 25.5366C31.7658 25.1224 31.43 24.7866 31.0158 24.7866H28.0325ZM15.4754 32.1265C15.4754 34.0595 13.9084 35.6265 11.9754 35.6265C10.0424 35.6265 8.47538 34.0595 8.47538 32.1265C8.47538 30.1935 10.0424 28.6265 11.9754 28.6265C13.9084 28.6265 15.4754 30.1935 15.4754 32.1265ZM47.4754 32.1265C47.4754 34.0595 45.9084 35.6265 43.9754 35.6265C42.0424 35.6265 40.4754 34.0595 40.4754 32.1265C40.4754 30.1935 42.0424 28.6265 43.9754 28.6265C45.9084 28.6265 47.4754 30.1935 47.4754 32.1265Z" fill="#373A36"/>
</svg>
