<svg width="54" height="54" viewBox="0 0 54 54" fill="none" xmlns="http://www.w3.org/2000/svg">
<path fill-rule="evenodd" clip-rule="evenodd" d="M1.03467 15.1303H0.284668V15.8803V27.2326V30.7953V34.358V35.108H1.03467H3.98995C3.98399 35.1916 3.98096 35.276 3.98096 35.3611C3.98096 37.2988 5.5518 38.8696 7.48953 38.8696C9.42726 38.8696 10.9981 37.2988 10.9981 35.3611C10.9981 35.276 10.9951 35.1916 10.9891 35.108H16.4292C16.4232 35.1916 16.4202 35.276 16.4202 35.3611C16.4202 37.2988 17.991 38.8696 19.9287 38.8696C21.8665 38.8696 23.4373 37.2988 23.4373 35.3611C23.4373 35.276 23.4343 35.1916 23.4283 35.108H26.5524H27.3024V34.358V27.9826H29.1958V30.7953V34.358V35.108H29.9458H32.4914C32.4855 35.1916 32.4824 35.276 32.4824 35.3611C32.4824 37.2988 34.0533 38.8696 35.991 38.8696C37.9287 38.8696 39.4996 37.2988 39.4996 35.3611C39.4996 35.276 39.4965 35.1916 39.4906 35.108H43.421C43.415 35.1916 43.412 35.276 43.412 35.3611C43.412 37.2988 44.9828 38.8696 46.9206 38.8696C48.2985 38.8696 49.4909 38.0753 50.0649 36.9195H52.9653H53.7153V36.1695V30.8944V27.2326V27.0855L53.6597 26.9492L51.5702 21.8298L50.0367 18.0727L49.8462 17.6061H49.3423H42.7H41.95V18.3561V26.4826H39.3438V15.8803V15.1303H38.5938H1.03467ZM50.4286 35.4195H52.2153V31.6444H51.2553C50.8411 31.6444 50.5053 31.3086 50.5053 30.8944C50.5053 30.4802 50.8411 30.1444 51.2553 30.1444H52.2153V27.9826H45.7478H44.9978V27.2326V22.1132V21.3632H45.7478H49.7596L48.8383 19.1061H43.45V27.2326V27.9826H42.7H38.5938H30.6958V30.0453H31.9875C32.4017 30.0453 32.7375 30.3811 32.7375 30.7953C32.7375 31.2095 32.4017 31.5453 31.9875 31.5453H30.6958V33.608H32.9511C33.5576 32.5586 34.6918 31.8525 35.991 31.8525C37.2901 31.8525 38.4244 32.5586 39.0309 33.608H43.8807C44.4872 32.5586 45.6214 31.8525 46.9206 31.8525C48.8583 31.8525 50.4291 33.4233 50.4291 35.3611C50.4291 35.3806 50.429 35.4001 50.4286 35.4195ZM22.9686 33.608H25.8024V27.9826H1.78467V30.0453H3.17314C3.58735 30.0453 3.92314 30.3811 3.92314 30.7953C3.92314 31.2095 3.58735 31.5453 3.17314 31.5453H1.78467V33.608H4.44965C5.05613 32.5586 6.19037 31.8525 7.48953 31.8525C8.78868 31.8525 9.92292 32.5586 10.5294 33.608H16.8889C17.4953 32.5586 18.6296 31.8525 19.9287 31.8525C21.2279 31.8525 22.3621 32.5586 22.9686 33.608ZM26.5524 26.4826H1.78467V16.6303H37.8438V26.4826H29.9458H26.5524ZM46.4978 22.8632H50.3718L51.8491 26.4826H46.4978V22.8632ZM7.48953 37.3696C8.59883 37.3696 9.49809 36.4704 9.49809 35.3611C9.49809 34.2518 8.59883 33.3525 7.48953 33.3525C6.38022 33.3525 5.48096 34.2518 5.48096 35.3611C5.48096 36.4704 6.38022 37.3696 7.48953 37.3696ZM19.9287 37.3696C21.038 37.3696 21.9373 36.4704 21.9373 35.3611C21.9373 34.2518 21.038 33.3525 19.9287 33.3525C18.8194 33.3525 17.9202 34.2518 17.9202 35.3611C17.9202 36.4704 18.8194 37.3696 19.9287 37.3696ZM37.9996 35.3611C37.9996 36.4704 37.1003 37.3696 35.991 37.3696C34.8817 37.3696 33.9824 36.4704 33.9824 35.3611C33.9824 34.2518 34.8817 33.3525 35.991 33.3525C37.1003 33.3525 37.9996 34.2518 37.9996 35.3611ZM46.9206 37.3696C48.0299 37.3696 48.9291 36.4704 48.9291 35.3611C48.9291 34.2518 48.0299 33.3525 46.9206 33.3525C45.8113 33.3525 44.912 34.2518 44.912 35.3611C44.912 36.4704 45.8113 37.3696 46.9206 37.3696Z" fill="#373A36"/>
</svg>
