<svg width="44" height="44" viewBox="0 0 44 44" fill="none" xmlns="http://www.w3.org/2000/svg">
<path fill-rule="evenodd" clip-rule="evenodd" d="M28.2857 0.746428L28.2857 13.6036L25.5081 11.1727C25.3816 11.0621 25.2102 11 25.0313 11C24.8525 11 24.681 11.0621 24.5546 11.1727C24.4282 11.2834 24.3571 11.4334 24.3571 11.5898C24.3571 11.7462 24.4282 11.8962 24.5546 12.0069L28.5947 15.5412C28.6572 15.5961 28.7316 15.6396 28.8134 15.6693C28.8952 15.699 28.9829 15.7143 29.0714 15.7143C29.16 15.7143 29.2477 15.699 29.3295 15.6693C29.4113 15.6396 29.4856 15.5961 29.5482 15.5412L33.5882 12.0069C33.7147 11.8963 33.7857 11.7462 33.7857 11.5898C33.7857 11.4334 33.7147 11.2834 33.5882 11.1727C33.4618 11.0621 33.2903 11 33.1115 11C32.9327 11 32.7612 11.0621 32.6348 11.1727L29.8571 13.6036L29.8571 0.746428C29.8571 0.548463 29.7744 0.358606 29.627 0.218623C29.4797 0.0786408 29.2798 0 29.0714 0C28.863 0 28.6632 0.0786407 28.5158 0.218623C28.3685 0.358606 28.2857 0.548463 28.2857 0.746428ZM24.5714 18.0991V20.3011C29.4835 19.6002 36.1428 20.5822 36.1429 23.251V34.8426C36.1429 36.8472 32.3613 37.9437 28.4286 38.0518V39.9944C28.4286 42.1081 24.2243 43.2143 20.0714 43.2143C15.9186 43.2143 11.7143 42.1081 11.7143 39.9944V36.1305C11.7143 35.2516 12.4433 34.5581 13.5879 34.0448C10.4585 33.6765 7.85714 32.6405 7.85714 30.9787V18.0991C7.85714 13.8717 24.5714 13.8717 24.5714 18.0991ZM23.2857 18.1429C23.2857 17.488 20.7896 16.2143 16.2143 16.2143C11.6389 16.2143 9.14284 17.4881 9.1429 18.1429C9.1429 18.7977 11.639 20.0714 16.2143 20.0714C20.7896 20.0714 23.2857 18.7977 23.2857 18.1429ZM16.2142 21.3572C13.4658 21.3572 10.7027 20.8706 9.14284 19.9318L9.1429 22C9.1429 22.6548 11.6389 23.9286 16.2143 23.9286C17.3335 23.9286 18.4211 23.8277 19.4286 23.6661V23.2857C19.4286 21.9709 21.0516 21.0661 23.2857 20.5706V19.9318C21.7258 20.8706 18.9626 21.3572 16.2142 21.3572ZM21.1005 33.002C20.9639 32.934 20.8366 32.8625 20.7142 32.7889V32.988C20.8434 32.9914 20.9718 32.9967 21.1005 33.002ZM16.2142 25.2143C13.4658 25.2143 10.7027 24.7278 9.14284 23.7889V26.5C9.14284 27.1548 11.6389 28.4286 16.2142 28.4286C17.3335 28.4286 18.421 28.3278 19.4285 28.1661V24.962C18.4086 25.1144 17.327 25.2143 16.2142 25.2143ZM9.14284 28.2889V31C9.14284 31.6548 11.6389 32.9286 16.2142 32.9286C17.3335 32.9286 18.421 32.8278 19.4285 32.6661V29.4621C18.4086 29.6144 17.327 29.7143 16.2142 29.7143C13.4658 29.7143 10.7027 29.2278 9.14284 28.2889ZM20.0714 41.9286C24.6467 41.9286 27.1428 40.6548 27.1428 40L27.1428 38.0561C27.1133 38.0552 27.0835 38.0546 27.0537 38.0541C27.0156 38.0533 26.9776 38.0526 26.9401 38.0512C25.35 38.9125 22.7022 39.3571 20.0714 39.3571C17.323 39.3571 14.5599 38.8706 13 37.9317V40C13 40.6548 15.4961 41.9286 20.0714 41.9286ZM13 36.1429C13 36.7977 15.4961 38.0714 20.0714 38.0714C24.6467 38.0714 27.1428 36.7977 27.1428 36.1429C27.1428 35.4881 24.6467 34.2143 20.0714 34.2143C15.4961 34.2143 13 35.4881 13 36.1429ZM28.4285 36.7635C32.5792 36.6476 34.8571 35.4794 34.8571 34.8572L34.857 32.7889C33.2972 33.7278 30.534 34.2143 27.7856 34.2143C27.47 34.2143 27.1546 34.2057 26.8403 34.193C27.8207 34.6905 28.4285 35.3397 28.4285 36.1429V36.7635ZM27.7857 32.9286C32.361 32.9286 34.8571 31.6548 34.8571 31V28.9318C33.2973 29.8706 30.5341 30.3572 27.7857 30.3572C25.0373 30.3572 22.2742 29.8706 20.7143 28.9318V31C20.7143 31.6548 23.2104 32.9286 27.7857 32.9286ZM27.7857 29.0715C32.361 29.0715 34.8571 27.7977 34.8571 27.1429V25.0746C33.2973 26.0135 30.5341 26.5 27.7857 26.5C25.0373 26.5 22.2742 26.0135 20.7143 25.0746V27.1429C20.7143 27.7977 23.2104 29.0715 27.7857 29.0715ZM20.7143 23.2857C20.7143 23.9406 23.2104 25.2143 27.7857 25.2143C32.361 25.2143 34.8571 23.9406 34.8571 23.2857C34.8571 22.6309 32.361 21.3572 27.7857 21.3572C23.2104 21.3572 20.7143 22.6309 20.7143 23.2857Z" fill="url(#paint0_linear_4020_836)"/>
<defs>
<linearGradient id="paint0_linear_4020_836" x1="13.6911" y1="43.2143" x2="39.8323" y2="37.8592" gradientUnits="userSpaceOnUse">
<stop stop-color="#FE5000"/>
<stop offset="1" stop-color="#FCA92A"/>
</linearGradient>
</defs>
</svg>
