<svg width="44" height="44" viewBox="0 0 44 44" fill="none" xmlns="http://www.w3.org/2000/svg">
<path fill-rule="evenodd" clip-rule="evenodd" d="M21.5421 2.19541C21.7841 2.02731 22.1052 2.02731 22.3472 2.19541L37.9237 13.0124C38.1137 13.1443 38.2269 13.3609 38.2269 13.5921V16.3478H39.2519C39.6417 16.3478 39.9577 16.6638 39.9577 17.0536V20.0823C39.9577 20.4721 39.6417 20.7881 39.2519 20.7881H36.4962V33.655H37.5212C37.911 33.655 38.2269 33.971 38.2269 34.3608V36.6838H39.2519C39.6417 36.6838 39.9577 36.9998 39.9577 37.3896V40.851C39.9577 41.2408 39.6417 41.5568 39.2519 41.5568H4.5815C4.19171 41.5568 3.87572 41.2408 3.87572 40.851V37.3946C3.87572 37.0061 4.18979 36.6906 4.57835 36.6888L5.00627 36.6869V34.3608C5.00627 33.971 5.32226 33.655 5.71205 33.655H7.27159V20.7881H4.63744C4.24764 20.7881 3.93166 20.4721 3.93166 20.0823V17.0536C3.93166 16.6638 4.24764 16.3478 4.63744 16.3478H5.66238V13.5921C5.66238 13.3609 5.77565 13.1443 5.96558 13.0124L21.5421 2.19541ZM7.07394 16.3478H36.8154V13.9613L21.9447 3.63439L7.07394 13.9613V16.3478ZM8.68315 20.7881V33.655H12.0311V20.7881H8.68315ZM13.4426 20.7881V33.655H19.0755V20.7881H13.4426ZM20.487 20.7881V33.655H23.835V20.7881H20.487ZM25.2465 20.7881V33.655H30.7578V20.7881H25.2465ZM32.1694 20.7881V33.655H35.0847V20.7881H32.1694ZM12.7369 35.0666H7.97737H6.41783V36.6838H36.8154V35.0666H35.7904H31.4636H24.5407H19.7813H12.7369ZM5.71205 38.0954L5.28728 38.0973V40.1452H38.5461V38.0954H37.5212H5.71348H5.71205ZM5.34322 17.7594V19.3766H7.97737H12.7369H19.7813H24.5407H31.4636H35.7904H38.5461V17.7594H37.5212H6.36816H5.34322Z" fill="url(#paint0_linear_4020_844)"/>
<defs>
<linearGradient id="paint0_linear_4020_844" x1="11.3176" y1="41.5568" x2="43.4366" y2="32.3716" gradientUnits="userSpaceOnUse">
<stop stop-color="#FE5000"/>
<stop offset="1" stop-color="#FCA92A"/>
</linearGradient>
</defs>
</svg>
