<svg width="44" height="44" viewBox="0 0 44 44" fill="none" xmlns="http://www.w3.org/2000/svg">
<path d="M40.128 19.4481C39.6 19.4481 39.248 19.8001 39.248 20.3281V23.7601V28.9521V29.8321C39.248 30.8001 38.456 31.5921 37.488 31.5921H35.728C34.232 31.5921 33.176 32.7361 33.176 34.1441V35.9041C33.176 36.8721 32.384 37.6641 31.416 37.6641H27.104H5.54401C5.01601 37.6641 4.66401 37.3121 4.66401 36.7841V20.2401C4.66401 19.7121 4.31201 19.3601 3.78401 19.3601C3.25601 19.3601 2.90401 19.7121 2.90401 20.2401V36.6961C2.90401 38.1921 4.04801 39.2481 5.45601 39.2481H27.104H31.416H32.56C33.704 39.2481 34.848 38.8081 35.552 37.9281L39.6 33.8801C40.392 33.0881 40.92 31.9441 40.92 30.8881V29.7441V28.8641V23.7601V20.2401C41.008 19.7121 40.656 19.4481 40.128 19.4481ZM34.848 36.4321C34.848 36.2561 34.936 36.0801 34.936 35.8161V34.0561C34.936 33.5281 35.288 33.1761 35.816 33.1761H37.576C37.752 33.1761 37.928 33.1761 38.192 33.0881L34.848 36.4321ZM38.456 7.30406H32.384V5.54406C32.384 5.01606 32.032 4.66406 31.504 4.66406C30.976 4.66406 30.624 5.01606 30.624 5.54406V7.30406H13.376V5.54406C13.376 5.01606 13.024 4.66406 12.496 4.66406C11.968 4.66406 11.616 5.01606 11.616 5.54406V7.30406H5.54401C4.04801 7.30406 2.99201 8.44806 2.99201 9.85606V16.8081C2.99201 17.3361 3.34401 17.6881 3.87201 17.6881H40.216C40.744 17.6881 41.096 17.3361 41.096 16.8081V9.85606C41.008 8.44806 39.864 7.30406 38.456 7.30406ZM39.248 15.9281H4.75201V9.85606C4.75201 9.32806 5.10401 8.97606 5.63201 8.97606H11.704V11.0001C11.176 11.2641 10.824 11.8801 10.824 12.4961C10.824 13.4641 11.616 14.2561 12.584 14.2561C13.552 14.2561 14.344 13.4641 14.344 12.4961C14.344 11.8801 13.992 11.2641 13.464 11.0001V8.97606H30.712V11.0001C30.184 11.2641 29.832 11.8801 29.832 12.4961C29.832 13.4641 30.624 14.2561 31.592 14.2561C32.56 14.2561 33.352 13.4641 33.352 12.4961C33.352 11.8801 33 11.2641 32.472 11.0001V8.97606H38.544C39.072 8.97606 39.424 9.32806 39.424 9.85606L39.248 15.9281ZM18.568 24.5521C19.536 24.5521 20.328 23.7601 20.328 22.7921C20.328 21.8241 19.536 21.0321 18.568 21.0321C17.6 21.0321 16.808 21.8241 16.808 22.7921C16.808 23.8481 17.6 24.5521 18.568 24.5521ZM25.432 24.5521C26.4 24.5521 27.192 23.7601 27.192 22.7921C27.192 21.8241 26.4 21.0321 25.432 21.0321C24.464 21.0321 23.672 21.8241 23.672 22.7921C23.76 23.8481 24.464 24.5521 25.432 24.5521ZM32.384 24.5521C33.352 24.5521 34.144 23.7601 34.144 22.7921C34.144 21.8241 33.352 21.0321 32.384 21.0321C31.416 21.0321 30.624 21.8241 30.624 22.7921C30.624 23.8481 31.416 24.5521 32.384 24.5521ZM11.616 32.3841C12.584 32.3841 13.376 31.5921 13.376 30.6241C13.376 29.6561 12.584 28.8641 11.616 28.8641C10.648 28.8641 9.85601 29.6561 9.85601 30.6241C9.85601 31.5921 10.648 32.3841 11.616 32.3841ZM18.568 32.3841C19.536 32.3841 20.328 31.5921 20.328 30.6241C20.328 29.6561 19.536 28.8641 18.568 28.8641C17.6 28.8641 16.808 29.6561 16.808 30.6241C16.808 31.5921 17.6 32.3841 18.568 32.3841ZM25.432 32.3841C26.4 32.3841 27.192 31.5921 27.192 30.6241C27.192 29.6561 26.4 28.8641 25.432 28.8641C24.464 28.8641 23.672 29.6561 23.672 30.6241C23.672 31.5921 24.464 32.3841 25.432 32.3841Z" fill="url(#paint0_linear_4020_831)"/>
<defs>
<linearGradient id="paint0_linear_4020_831" x1="10.7811" y1="39.2481" x2="43.6344" y2="27.8934" gradientUnits="userSpaceOnUse">
<stop stop-color="#FE5000"/>
<stop offset="1" stop-color="#FCA92A"/>
</linearGradient>
</defs>
</svg>
