<svg width="44" height="44" viewBox="0 0 44 44" fill="none" xmlns="http://www.w3.org/2000/svg">
<path d="M12.6435 34.9489C12.8778 35.1467 13.0199 35.4306 13.0371 35.7344C13.0542 36.0385 12.9446 36.3361 12.7337 36.5583C12.5231 36.7806 12.2293 36.908 11.9211 36.9109C11.6573 36.9114 11.4019 36.8206 11.1988 36.6544C7.99012 34.0573 5.85881 30.3873 5.20903 26.3406C4.55925 22.2941 5.43629 18.1525 7.67394 14.7024C9.91135 11.2524 13.3536 8.73371 17.3472 7.62461C21.3407 6.51532 25.6078 6.89256 29.3379 8.68466C29.703 8.85585 29.9476 9.20646 29.9799 9.60437C30.0124 10.002 29.8272 10.3867 29.4946 10.6131C29.162 10.8396 28.7322 10.8737 28.3673 10.7025C25.1327 9.14078 21.4296 8.80813 17.9633 9.76759C14.4964 10.7271 11.5081 12.9118 9.56593 15.906C7.62412 18.9002 6.86469 22.4952 7.4321 26.0058C7.99976 29.517 9.85444 32.7001 12.6436 34.9481L12.6435 34.9489ZM37.3752 16.6667C37.2605 16.3786 37.03 16.1506 36.7385 16.0372C36.4469 15.9237 36.1207 15.9349 35.838 16.0683C35.5553 16.2016 35.3414 16.4453 35.2474 16.7406C35.1536 17.0357 35.1884 17.3565 35.3434 17.6255C36.746 20.5436 37.1211 23.8405 36.4094 26.9934C35.6979 30.146 33.94 32.9735 31.4153 35.0267C31.1752 35.2233 31.0281 35.5092 31.0089 35.8165C30.9895 36.1238 31.0999 36.4253 31.3138 36.6495C31.5277 36.8737 31.8258 37.0004 32.1377 36.9999C32.3984 37.0036 32.6517 36.9123 32.8487 36.7436C35.756 34.3727 37.779 31.1115 38.5968 27.4764C39.4147 23.8417 38.9808 20.0412 37.3637 16.6778L37.3752 16.6667ZM25.952 21.5939C26.362 22.2682 26.5839 23.0373 26.5955 23.8234C26.5955 25.0061 26.1198 26.1402 25.273 26.9766C24.4264 27.8127 23.278 28.2824 22.0804 28.2824C20.8829 28.2824 19.7345 27.8127 18.8879 26.9766C18.0411 26.1402 17.5654 25.0061 17.5654 23.8234C17.5654 22.641 18.0411 21.5068 18.8879 20.6704C19.7345 19.8341 20.8829 19.3643 22.0804 19.3643C22.8774 19.37 23.6577 19.5895 24.338 19.9998L32.4535 12.0296C32.74 11.7469 33.1572 11.6364 33.5483 11.7399C33.9396 11.8434 34.245 12.145 34.3498 12.5315C34.4546 12.9177 34.3427 13.3297 34.0565 13.6127L25.952 21.5939ZM24.338 23.8458C24.3385 23.2571 24.1032 22.692 23.6835 22.2739C23.1889 21.7815 22.4904 21.5444 21.7938 21.6325C21.0971 21.7205 20.4818 22.1239 20.1289 22.7236C19.7759 23.323 19.7255 24.0509 19.9928 24.6921C20.2599 25.3335 20.8142 25.8158 21.4922 25.9965C22.1702 26.1774 22.8946 26.036 23.4524 25.6148C24.0103 25.1932 24.3376 24.5393 24.338 23.8458L24.338 23.8458Z" fill="url(#paint0_linear_4020_850)"/>
<defs>
<linearGradient id="paint0_linear_4020_850" x1="12.0125" y1="37" x2="41.0946" y2="26.6847" gradientUnits="userSpaceOnUse">
<stop stop-color="#FE5000"/>
<stop offset="1" stop-color="#FCA92A"/>
</linearGradient>
</defs>
</svg>
