<?xml version="1.0" encoding="utf-8"?>
<!-- Generator: Adobe Illustrator 24.1.2, SVG Export Plug-In . SVG Version: 6.00 Build 0)  -->
<svg version="1.1" id="Слой_1" xmlns="http://www.w3.org/2000/svg" xmlns:xlink="http://www.w3.org/1999/xlink" x="0px" y="0px"
	 viewBox="0 0 423.3 49.3" style="enable-background:new 0 0 423.3 49.3;" xml:space="preserve">
<style type="text/css">
	.st0{fill:#ED174C;}
</style>
<g>
	<path d="M288.6,16.4l3.9-7.8h2.2l-5.2,10.8h-1.6l-3-6.3v8.9h-2.2V8.7h2.1L288.6,16.4z"/>
	<path d="M296.1,22.1l4.7-13.4h2.1l4.7,13.4h-2.4l-0.9-2.8h-4.8l-0.9,2.8H296.1z M300.1,17.3h3.6l-1.8-5.4L300.1,17.3z"/>
	<path d="M318.9,8.7v13.4h-2.3V10.6h-4v1.5c0,4.4-0.2,6.2-0.7,7.4c-0.6,1.6-1.9,2.4-3.8,2.7v-2.4c0.8-0.2,1.5-0.5,1.8-1.4
		c0.4-1,0.5-2.7,0.5-6.3V8.7H318.9z"/>
	<path d="M324.2,8.7v5.1h2c3.5,0,4.9,2,4.9,4.2s-1.3,4.2-5,4.2h-4.2V8.7H324.2z M324.2,15.7v4.4h2c1.9,0,2.7-0.9,2.7-2.2
		c0-1.3-0.8-2.2-2.7-2.2H324.2z M334.5,22.1h-2.3V8.7h2.3V22.1z"/>
	<path d="M339.7,8.7v9.2l5.9-9.2h1.8v13.4h-2.3V13l-5.9,9.1h-1.9V8.7H339.7z M346.2,5c0,1.9-1.2,2.9-3.6,2.9S339,6.9,339,5h2.1
		c0,0.8,0.3,1.4,1.5,1.4c1.2,0,1.5-0.6,1.5-1.4H346.2z"/>
	<path d="M363.8,10.6h-6.3v3.1h2.4c3.5,0,4.8,2,4.8,4.2s-1.3,4.2-4.8,4.2h-4.7V8.7h8.6V10.6z M357.5,15.7v4.4h2.3
		c1.9,0,2.7-0.9,2.7-2.2c0-1.3-0.8-2.2-2.7-2.2H357.5z"/>
	<path d="M369.1,8.7v9.2l5.9-9.2h1.8v13.4h-2.3V13l-5.9,9.1h-1.9V8.7H369.1z"/>
	<path d="M382.4,14.1h1.4c1.7,0,2.4-0.8,2.4-1.9c0-1-0.6-1.8-2.2-1.8c-1.5,0-2.2,0.7-2.6,1.8h-2c0.3-2.4,2.4-3.8,4.7-3.8
		c2.5,0,4.4,1.3,4.4,3.6c0,1.4-0.7,2.3-2,2.9c1.4,0.5,2.4,1.6,2.4,3.2c0,2.2-1.6,4-4.8,4c-2.7,0-4.5-1.2-5.1-4h2.2
		c0.6,1.4,1.3,2,2.8,2c1.7,0,2.6-0.8,2.6-2.1c0-1.3-0.9-2.1-2.9-2.1h-1.3V14.1z"/>
	<path d="M393.3,14.2h5.1V8.7h2.3v13.4h-2.3v-6h-5.1v6H391V8.7h2.3V14.2z"/>
	<path d="M411.8,8.7v2h-6v3.5h5.4v1.9h-5.4v4h6v1.9h-8.2V8.7H411.8z"/>
	<path d="M421.1,12.8c-0.3-1.6-1.2-2.4-2.7-2.4c-1.8,0-2.8,1.2-2.8,4.1v1.7c0,2.9,1,4.1,2.8,4.1c1.5,0,2.4-0.7,2.7-2.4h2.2
		c-0.4,3-2.2,4.3-4.9,4.3c-3,0-5-1.8-5-6v-1.7c0-4.2,2-6,5-6c2.7,0,4.4,1.4,4.9,4.3H421.1z"/>
	<path d="M288.8,35.6l3.9-7.8h2.2v13.4h-2.2v-9l-3.1,6.4h-1.6l-3-6.3v8.9h-2.2V27.8h2.1L288.8,35.6z"/>
	<path d="M302.2,41.4c-3,0-5-1.8-5-6v-1.7c0-4.2,2-6,5-6c3,0,5,1.8,5,6v1.7C307.2,39.6,305.2,41.4,302.2,41.4z M299.4,35.4
		c0,2.9,1,4.1,2.8,4.1c1.8,0,2.8-1.2,2.8-4.1v-1.7c0-2.9-1-4.1-2.8-4.1c-1.8,0-2.8,1.2-2.8,4.1V35.4z"/>
	<path d="M316.8,32c-0.3-1.6-1.2-2.4-2.7-2.4c-1.8,0-2.8,1.2-2.8,4.1v1.7c0,2.9,1,4.1,2.8,4.1c1.5,0,2.4-0.7,2.7-2.4h2.2
		c-0.4,3-2.2,4.3-4.9,4.3c-3,0-5-1.8-5-6v-1.7c0-4.2,2-6,5-6c2.7,0,4.4,1.4,4.9,4.3H316.8z"/>
	<path d="M328.6,41.2l-3.8-5.8h-1.5v5.8h-2.3V27.8h2.3v5.7h1.4l3.3-5.7h2.5l-3.8,6.6l4.5,6.9H328.6z"/>
	<path d="M337.3,27.8c3.1,0,4.8,1.2,4.8,3.5c0,1.4-0.8,2.5-2,2.9c1.5,0.4,2.4,1.5,2.4,3.2c0,2-1.3,3.8-4.8,3.8H333V27.8H337.3z
		 M335.3,33.3h2.2c1.7,0,2.4-0.8,2.4-1.9c0-1-0.5-1.7-2.7-1.7h-1.9V33.3z M335.3,39.3h2.4c1.8,0,2.6-0.7,2.6-2c0-1.4-0.9-2-2.9-2
		h-2.1V39.3z"/>
	<path d="M347,27.8v5.1h2c3.5,0,4.9,2,4.9,4.2c0,2.2-1.3,4.2-5,4.2h-4.2V27.8H347z M347,34.8v4.4h2c1.9,0,2.7-0.9,2.7-2.2
		c0-1.3-0.8-2.2-2.7-2.2H347z M357.3,41.2H355V27.8h2.3V41.2z"/>
	<path d="M146.1,0.7h10.7l13,24.3l12.9-24.3h10.8v47.9h-10.8V21.5l-9.9,19.2h-6.2l-9.6-18.9v26.9h-10.8V0.7z"/>
	<path d="M234.8,20.9v7.5c0,6.8-1.7,11.9-5.1,15.5c-3.4,3.6-8,5.4-13.8,5.4s-10.4-1.8-13.8-5.4c-3.4-3.6-5.1-8.8-5.1-15.5v-7.5
		c0-6.8,1.7-12,5-15.5c3.4-3.6,8-5.3,13.8-5.3s10.5,1.8,13.8,5.3C233.1,8.9,234.8,14.1,234.8,20.9z M208.5,20.9v7.5
		c0,7.5,2.5,11.3,7.4,11.3s7.4-3.8,7.4-11.3v-7.5c0-7.5-2.5-11.3-7.4-11.3S208.5,13.4,208.5,20.9z"/>
	<path d="M271.1,7.8l-8.5,6.1c-0.9-1.6-2-2.7-3.3-3.4c-1.3-0.7-3-1-5.2-1c-3.7,0-5.5,1.4-5.5,4.2c0,1.4,0.6,2.5,1.9,3.5
		c1.3,0.9,3.5,1.8,6.6,2.7c5.3,1.5,9,3.4,11.1,5.6c2.2,2.3,3.3,5.4,3.3,9.4c0,4.4-1.5,7.9-4.4,10.5c-2.9,2.5-7,3.8-12.4,3.8
		c-4.5,0-8.2-0.6-11.3-1.8c-3-1.2-5.7-3.2-7.9-6l8.6-6c2.3,2.9,5.5,4.3,9.6,4.3c2,0,3.6-0.4,4.6-1.1c1-0.7,1.6-1.8,1.6-3.1
		c0-1.4-0.6-2.5-1.9-3.4c-1-0.8-3.4-1.8-7.1-3.1c-4.9-1.6-8.4-3.6-10.6-5.9c-2.2-2.4-3.3-5.5-3.3-9.3c0-4.3,1.4-7.6,4.3-10.1
		c2.9-2.5,7.1-3.7,12.5-3.7C261.9,0,267.7,2.6,271.1,7.8z"/>
	<path d="M23.7,25L36.6,0.7h10.8v47.9H36.5V21.5l-9.9,19.1h-6.2l-9.6-18.9v26.8H0V0.7h10.7L23.7,25z"/>
	<path d="M68.9,0.7c11.3,0,17.9,4,17.9,12.7c0,4.9-2.2,7.8-5.5,10c4.4,2.2,7,5.6,7,11.4c0,7.6-5.1,13.7-17.9,13.7H52.2V0.7H68.9z
		 M63.7,19h4.9c4.6,0,6.7-1.5,6.7-4.2c0-2.8-1.5-4.5-7.8-4.5h-3.8V19z M63.7,39h5.5c5.1,0,7.6-1.7,7.6-5.3c0-3.9-2.6-5.2-8.5-5.2
		h-4.6V39z"/>
	<path d="M116.1,25L129,0.7h10.8l-20.7,40h-6.2l-9.6-18.9v26.8H92.5V0.7h10.7L116.1,25z"/>
	<circle class="st0" cx="134.4" cy="43.2" r="5.4"/>
</g>
</svg>
