<svg width="54" height="54" viewBox="0 0 54 54" fill="none" xmlns="http://www.w3.org/2000/svg">
<path d="M12.6705 9.00041C12.4237 9.00124 12.1872 9.09975 12.0135 9.27328C11.8394 9.44723 11.7422 9.6826 11.7434 9.92744V14.7044H8.91981C8.40744 14.7053 7.9919 15.1175 7.99107 15.6261V20.5799H4.98957C4.74233 20.5803 4.50546 20.6784 4.33094 20.8523C4.15683 21.0259 4.05959 21.2616 4.06041 21.5069V30.8662H2.12442C1.81151 30.867 1.52022 31.0233 1.34859 31.2825C1.17697 31.5418 1.1483 31.8691 1.27172 32.1539L5.57136 41.9658C4.043 41.653 2.64263 40.958 1.56096 39.9642H1.56055C1.37979 39.798 1.14002 39.7098 0.893602 39.7189C0.6476 39.7284 0.415726 39.8339 0.248263 40.0128C-0.100374 40.3859 -0.0791825 40.9679 0.295221 41.315C2.11324 42.9856 4.57943 43.9353 7.16168 43.9967C7.25019 43.9988 7.33871 44 7.42722 44C9.81703 44 12.1175 43.2378 13.9209 41.8467C15.7257 43.2379 18.0323 44 20.4221 44C22.8123 44 25.1102 43.2366 26.9141 41.845C28.7192 43.237 31.0247 44 33.4153 44C35.8055 44 38.1034 43.2366 39.9073 41.845C41.7124 43.237 44.0179 44 46.4084 44C46.5314 44 46.6532 43.9967 46.7758 43.9926H46.7762C46.7924 43.9926 46.809 43.9918 46.8252 43.9909C49.3521 43.8969 51.7507 42.953 53.5337 41.3146C53.9102 40.9696 53.9347 40.3875 53.5881 40.0124C53.4203 39.8323 53.1867 39.7259 52.9395 39.7165C52.6918 39.7074 52.4512 39.7964 52.27 39.9638C51.2104 40.9374 49.8474 41.6221 48.3577 41.944L53.9243 28.9289C54.0482 28.6432 54.0187 28.3147 53.8458 28.055C53.6729 27.7958 53.38 27.6399 53.0662 27.6412H44.2783C43.8915 27.6399 43.5437 27.8761 43.4057 28.2343L42.3893 30.8654H40.5874V24.5736C40.5858 24.0666 40.1719 23.6557 39.6604 23.654H37.0079V17.3618C37.0091 17.1158 36.9107 16.8796 36.7353 16.7056C36.5599 16.5313 36.3214 16.434 36.0733 16.4352H28.9143C28.6658 16.434 28.4277 16.5313 28.2524 16.7056C28.0766 16.8796 27.9785 17.1157 27.9798 17.3618V23.6536H25.3273V23.654C24.8158 23.6557 24.4019 24.0666 24.3998 24.5736V30.8654H21.2874V21.5061V21.5065C21.2886 21.2604 21.1905 21.0238 21.0152 20.8499C20.8394 20.6759 20.6013 20.5786 20.3532 20.5795H17.3571V15.6257C17.3567 15.3805 17.2578 15.1455 17.0825 14.9728C16.9071 14.7997 16.6698 14.7032 16.4226 14.704H13.6048V9.92704C13.6056 9.68096 13.5076 9.44436 13.3322 9.27041C13.1564 9.09646 12.9183 8.99918 12.6702 9.00001L12.6705 9.00041ZM9.84732 16.5527H15.4958V20.5794H9.84732V16.5527ZM29.8413 18.2839H35.1461V23.6544H29.8413V18.2839ZM5.91661 22.428H19.4246V25.7265H14.1489C13.902 25.7256 13.6648 25.8221 13.4894 25.9944C13.3145 26.1671 13.2152 26.4012 13.2143 26.6465C13.2135 26.8926 13.3116 27.1288 13.4869 27.3027C13.6623 27.4767 13.9008 27.5744 14.1489 27.5731H19.4247V30.8662H5.91662L5.91661 22.428ZM26.2616 25.4936H31.5665V30.8657H26.2616V25.4936ZM33.4281 25.4936H38.7259V30.8657H33.4281V25.4936ZM44.916 29.4881H51.6645L46.2466 42.1498C44.102 42.1127 42.0629 41.3357 40.5943 40.0129C40.5939 40.0125 40.5931 40.0117 40.5927 40.0113C40.5752 39.9956 40.5574 39.9804 40.5399 39.9643C40.2885 39.7343 39.9303 39.6597 39.607 39.7693C39.5991 39.7722 39.5912 39.7755 39.5837 39.7784C39.5526 39.7904 39.5222 39.8035 39.4927 39.8184C39.4736 39.8279 39.4549 39.8382 39.4362 39.8489C39.4113 39.8633 39.3872 39.879 39.3635 39.8959C39.3448 39.9095 39.3265 39.9239 39.3091 39.9392C39.2978 39.9474 39.287 39.9556 39.2762 39.9643C37.7674 41.3505 35.6452 42.1518 33.415 42.1518C31.2113 42.1518 29.1062 41.369 27.6011 40.0128C27.6007 40.0124 27.5999 40.0116 27.5994 40.0112C27.582 39.9955 27.5641 39.9803 27.5467 39.9642C27.2953 39.7342 26.9371 39.6596 26.6138 39.7692C26.6059 39.7721 26.598 39.7754 26.5905 39.7783C26.5593 39.7902 26.529 39.8034 26.4995 39.8183C26.4804 39.8278 26.4617 39.8381 26.443 39.8488C26.4168 39.8644 26.3915 39.8813 26.367 39.8995C26.352 39.9098 26.3374 39.9205 26.3233 39.9316C26.3088 39.9424 26.2951 39.9531 26.2813 39.9642C24.7725 41.3504 22.652 42.1517 20.4218 42.1517C18.2181 42.1517 16.113 41.3689 14.6079 40.0127C14.6075 40.0123 14.6067 40.0115 14.6063 40.0111C14.5888 39.9954 14.5709 39.9802 14.5535 39.9641C14.3046 39.737 13.9509 39.6615 13.6297 39.7675C13.6164 39.7716 13.6031 39.7757 13.5898 39.7803C13.5624 39.791 13.5358 39.8029 13.5096 39.8161C13.4893 39.8264 13.4693 39.8371 13.4498 39.8487C13.4236 39.8643 13.3983 39.8808 13.3733 39.899C13.3588 39.9097 13.3443 39.9204 13.3297 39.9315C13.3156 39.9418 13.3019 39.953 13.2882 39.9641C11.8359 41.2984 9.81583 42.0902 7.67792 42.1479L7.52334 41.7909L7.5034 41.7514L3.54577 32.7127H43.0199C43.4072 32.7139 43.7546 32.4778 43.8926 32.1196L44.916 29.4881Z" fill="#7F94A8"/>
</svg>
