<svg width="54" height="54" viewBox="0 0 54 54" fill="none" xmlns="http://www.w3.org/2000/svg">
<path d="M49.9094 36.1873C49.6799 35.6532 49.061 35.4054 48.5273 35.6349L45.3733 36.9861H41.3745V35.2601H42.7166C45.9595 35.2601 49.9949 35.2601 49.9949 29.8979C49.9949 25.1279 40.4009 18.7891 36.0123 18.7891H31.797V16.1052H47.2672C47.8483 16.1052 48.3197 15.6335 48.3197 15.0528C48.3197 14.4717 47.848 14.0004 47.2672 14.0004H14.7019C14.1208 14.0004 13.6495 14.4721 13.6495 15.0528C13.6495 15.6339 14.1212 16.1052 14.7019 16.1052L29.6919 16.1049V18.7887L8.74196 18.7891L5.22671 14.3954C5.02738 14.1454 4.72452 14 4.40479 14H1.0525C0.687973 14 0.348778 14.1891 0.157162 14.4989C-0.03483 14.8094 -0.0517172 15.1967 0.110908 15.523L2.82295 20.9464L1.93605 25.3812C1.87402 25.6907 1.95404 26.0112 2.15411 26.2549C2.35417 26.499 2.65298 26.64 2.96832 26.64H5.84153C6.12052 26.64 6.38849 26.5291 6.58563 26.3317L7.63515 25.2829L22.5566 27.9164C22.9112 31.1949 25.2015 33.8967 28.2554 34.8687V36.9868L22.6032 36.9872C22.0221 36.9872 21.5508 37.4589 21.5508 38.0396C21.5508 38.6207 22.0225 39.092 22.6032 39.092H45.5906C45.7333 39.092 45.8743 39.063 46.0054 39.0069L49.3577 37.5701C49.8918 37.341 50.1388 36.7225 49.9101 36.1876L49.9094 36.1873ZM46.7443 27.4087H41.519C38.3576 27.4087 35.469 24.3707 35.1776 20.8936H36.0116C38.7523 20.8936 44.3394 24.36 46.7445 27.4087H46.7443ZM24.613 27.0247C24.613 26.5137 24.2463 26.0769 23.7437 25.9881L7.4606 23.1149C7.39967 23.1039 7.33836 23.0991 7.27743 23.0991C7.00064 23.0991 6.73229 23.2081 6.53333 23.4074L5.40487 24.5359H4.25151L4.95706 21.0063C5.00294 20.7765 4.97137 20.5379 4.86639 20.329L2.75485 16.1045H3.89834L7.41359 20.4982C7.61292 20.7482 7.91578 20.8936 8.23551 20.8936H33.0432V21.0382C33.0432 21.1656 33.0659 21.2886 33.1078 21.4013C33.6357 25.8328 37.34 29.5133 41.5186 29.5133H47.848C47.8723 29.6447 47.8892 29.7739 47.8892 29.8976C47.8892 32.7716 46.8492 33.1548 42.7161 33.1548L30.7436 33.1544C27.3626 33.1555 24.6124 30.4053 24.6124 27.0247L24.613 27.0247ZM30.3598 35.242C30.4876 35.2479 30.6146 35.2604 30.7442 35.2604H39.2695V36.9865L30.3598 36.9868L30.3598 35.242Z" fill="#7F94A8"/>
</svg>
