<svg width="54" height="54" viewBox="0 0 54 54" fill="none" xmlns="http://www.w3.org/2000/svg">
<path d="M31.2 37.2502V19.7001C31.2 17.6313 30.378 15.6472 28.9152 14.1847C27.4527 12.7218 25.4685 11.8998 23.3998 11.8998H16.575V9.9499H20.4751H20.4748C21.0134 9.9499 21.4499 9.51343 21.4499 8.97478C21.4499 8.43646 21.0134 8 20.4748 8H10.7253C10.1866 8 9.75016 8.43647 9.75016 8.97478C9.75016 9.51343 10.1866 9.9499 10.7253 9.9499H14.6254L14.6251 11.8998H7.80027C5.73153 11.8998 3.74736 12.7218 2.28486 14.1847C0.822014 15.6472 0 17.6313 0 19.7001V37.2502C0 38.2844 0.411006 39.2764 1.14226 40.0077C1.87384 40.7393 2.86593 41.15 3.90013 41.15H6.69845L5.07014 43.1002H1.95023C1.41159 43.1002 0.975117 43.5367 0.975117 44.075C0.975117 44.6136 1.41159 45.0501 1.95023 45.0501H3.44216L3.14966 45.401H3.14933C2.98349 45.6002 2.90384 45.8568 2.92767 46.1147C2.9515 46.3725 3.07687 46.6105 3.27633 46.7757C3.45164 46.9213 3.67232 47.0007 3.90017 47C4.19007 47.0007 4.46526 46.872 4.65102 46.6491L5.97705 45.0501H25.2237L26.5497 46.6491C26.7354 46.872 27.0106 47.0007 27.3005 47C27.5284 47.0007 27.7491 46.9213 27.9244 46.7757C28.1238 46.6105 28.2492 46.3726 28.273 46.1147C28.2969 45.8568 28.2172 45.6002 28.0514 45.401L27.7589 45.0501H29.2505C29.7891 45.0501 30.2256 44.6136 30.2256 44.075C30.2256 43.5367 29.7891 43.1002 29.2505 43.1002H26.1306L24.5022 41.1503L27.3006 41.15C28.3348 41.15 29.3268 40.7393 30.0584 40.0077C30.7897 39.2764 31.2007 38.2844 31.2007 37.2502L31.2 37.2502ZM7.60436 43.1002L9.23267 41.1503L21.9665 41.15L23.5948 43.0999L7.60436 43.1002ZM3.89945 39.2001C3.38235 39.2001 2.88614 38.9947 2.52051 38.6288C2.15489 38.2631 1.94955 37.7672 1.94955 37.2502V19.7001C1.94955 18.1485 2.56589 16.6605 3.66277 15.5633C4.75999 14.4664 6.24798 13.85 7.79958 13.85H23.3991C24.9507 13.85 26.4387 14.4664 27.5359 15.5633C28.6328 16.6605 29.2491 18.1485 29.2491 19.7001V37.2502C29.2491 37.7673 29.0438 38.2631 28.6782 38.6288C28.3125 38.9947 27.8164 39.2001 27.2992 39.2001H3.89945Z" fill="#7F94A8"/>
<path d="M22.4245 16.775H8.77382C7.73962 16.775 6.74754 17.1857 6.01628 17.9173C5.2847 18.6485 4.87402 19.6406 4.87402 20.6748V24.575C4.87402 25.6092 5.2847 26.6012 6.01628 27.3328C6.74754 28.0641 7.73962 28.4751 8.77382 28.4751H22.4245C23.4587 28.4751 24.4507 28.0641 25.182 27.3328C25.9136 26.6012 26.3243 25.6092 26.3243 24.575V20.6748C26.3243 19.6406 25.9136 18.6485 25.182 17.9173C24.4507 17.1857 23.4587 16.775 22.4245 16.775ZM24.3744 24.575C24.3744 25.0921 24.169 25.5883 23.8031 25.9539C23.4374 26.3195 22.9415 26.5249 22.4245 26.5249H8.77383C8.25673 26.5249 7.76086 26.3195 7.39523 25.9539C7.02928 25.5883 6.82394 25.0921 6.82394 24.575V20.6748C6.82394 20.1577 7.02928 19.6618 7.39523 19.2962C7.76086 18.9303 8.25677 18.7249 8.77383 18.7249H22.4245C22.9416 18.7249 23.4374 18.9303 23.8031 19.2962C24.169 19.6618 24.3744 20.1578 24.3744 20.6748V24.575Z" fill="#7F94A8"/>
<path d="M7.79904 31.4001C7.02306 31.4001 6.27903 31.7083 5.73064 32.2567C5.18224 32.8052 4.87402 33.5492 4.87402 34.3251C4.87402 35.1008 5.18219 35.8448 5.73064 36.3932C6.27908 36.942 7.02308 37.2501 7.79904 37.2501C8.57469 37.2501 9.31871 36.942 9.86711 36.3932C10.4159 35.8448 10.7241 35.1008 10.7241 34.3251C10.7241 33.5491 10.4159 32.8051 9.86711 32.2567C9.31867 31.7083 8.57467 31.4001 7.79904 31.4001ZM7.79904 35.3002V35.2999C7.40468 35.2999 7.04917 35.0626 6.89805 34.6983C6.74723 34.3339 6.8308 33.9145 7.10959 33.6357C7.38838 33.3569 7.80787 33.2733 8.1722 33.4241C8.53653 33.5753 8.77386 33.9308 8.77386 34.3251C8.77386 34.5837 8.67134 34.8314 8.48853 35.0146C8.30539 35.1974 8.05762 35.2999 7.79906 35.2999L7.79904 35.3002Z" fill="#7F94A8"/>
<path d="M23.3996 31.4001C22.624 31.4001 21.88 31.7083 21.3316 32.2567C20.7828 32.8052 20.4746 33.5492 20.4746 34.3251C20.4746 35.1008 20.7828 35.8448 21.3316 36.3932C21.88 36.942 22.624 37.2501 23.3996 37.2501C24.1756 37.2501 24.9196 36.942 25.468 36.3932C26.0165 35.8448 26.3246 35.1008 26.3246 34.3251C26.3246 33.5491 26.0165 32.8051 25.468 32.2567C24.9196 31.7083 24.1756 31.4001 23.3996 31.4001ZM23.3996 35.3002V35.2999C23.0053 35.2999 22.6498 35.0626 22.499 34.6983C22.3482 34.3339 22.4314 33.9145 22.7102 33.6357C22.9893 33.3569 23.4085 33.2733 23.7728 33.4241C24.1371 33.5753 24.3748 33.9308 24.3748 34.3251C24.3748 34.5837 24.2719 34.8314 24.0891 35.0146C23.9063 35.1974 23.6582 35.2999 23.3997 35.2999L23.3996 35.3002Z" fill="#7F94A8"/>
<path d="M18.5244 35.2996H12.6743C12.136 35.2996 11.6992 35.7364 11.6992 36.2747C11.6992 36.813 12.136 37.2498 12.6743 37.2498H18.5244C19.0627 37.2498 19.4995 36.813 19.4995 36.2747C19.4995 35.7364 19.0627 35.2996 18.5244 35.2996Z" fill="#7F94A8"/>
<path d="M18.5244 31.4001H12.6743C12.136 31.4001 11.6992 31.8366 11.6992 32.3749C11.6992 32.9135 12.136 33.35 12.6743 33.35H18.5244C19.0627 33.35 19.4995 32.9135 19.4995 32.3749C19.4995 31.8366 19.0627 31.4001 18.5244 31.4001Z" fill="#7F94A8"/>
</svg>
