<svg width="54" height="54" viewBox="0 0 54 54" fill="none" xmlns="http://www.w3.org/2000/svg">
<path fill-rule="evenodd" clip-rule="evenodd" d="M2 11H2.9H35.4H36.3V11.9V16.4V17.5H43.9H44.3632L44.6324 17.8769L46.7752 20.8769L51.6324 27.6769L52.1324 28.3769L52.3 28.6116V28.9V38.4V39.3H51.4H48.3842C48.1805 41.8744 46.0268 43.9 43.4 43.9C40.7732 43.9 38.6195 41.8744 38.4158 39.3H35.4H19.3842C19.1805 41.8744 17.0268 43.9 14.4 43.9C11.7732 43.9 9.61954 41.8744 9.41577 39.3H2.9H2V38.4V30.9V11.9V11ZM38.5986 37.5C39.2041 35.42 41.1246 33.9 43.4 33.9C45.6754 33.9 47.5959 35.42 48.2014 37.5H50.5V29.1884L50.4424 29.1078L38.915 29.2999L38 29.3151V28.4V21.4V20.5H38.9H44.294L43.4368 19.3H36.3V37.5H38.5986ZM34.5 37.5H19.2014C18.5959 35.42 16.6754 33.9 14.4 33.9C12.1246 33.9 10.2041 35.42 9.59865 37.5H3.8V31.8H29.4C29.8971 31.8 30.3 31.3971 30.3 30.9C30.3 30.4029 29.8971 30 29.4 30H3.8V12.8H34.5V15.5H27.4C26.9029 15.5 26.5 15.9029 26.5 16.4C26.5 16.8971 26.9029 17.3 27.4 17.3H34.5V18.4V37.5ZM45.5797 22.3H39.8V27.4849L49.1716 27.3287L45.5797 22.3ZM14.4 42.4C16.333 42.4 17.9 40.833 17.9 38.9C17.9 36.967 16.333 35.4 14.4 35.4C12.467 35.4 10.9 36.967 10.9 38.9C10.9 40.833 12.467 42.4 14.4 42.4ZM46.9 38.9C46.9 40.833 45.333 42.4 43.4 42.4C41.467 42.4 39.9 40.833 39.9 38.9C39.9 36.967 41.467 35.4 43.4 35.4C45.333 35.4 46.9 36.967 46.9 38.9Z" fill="#7F94A8"/>
</svg>
