<svg width="54" height="54" viewBox="0 0 54 54" fill="none" xmlns="http://www.w3.org/2000/svg">
<g clip-path="url(#clip0_2287_643)">
<path fill-rule="evenodd" clip-rule="evenodd" d="M6.04987 7.89243H5.29987V8.64243V44.6076H0.75C0.335786 44.6076 0 44.9434 0 45.3576C0 45.7718 0.335786 46.1076 0.75 46.1076H6.04987H24.2538H37.1579H41.9969C42.4112 46.1076 42.7469 45.7718 42.7469 45.3576C42.7469 44.9434 42.4112 44.6076 41.9969 44.6076H37.9079V18.4741V17.7241H37.1579H25.0038V8.64243V7.89243H24.2538H6.04987ZM23.5038 44.6076H6.79987V9.39243H23.5038V18.4741V44.6076ZM36.4079 44.6076H25.0038V19.2241H36.4079V44.6076ZM10.2843 15.1348H12.9322V17.7827H10.2843V15.1348ZM9.08428 13.9348H10.2843H12.9322H14.1322V15.1348V17.7827V18.9827H12.9322H10.2843H9.08428V17.7827V15.1348V13.9348ZM12.9322 22.158H10.2843V24.8059H12.9322V22.158ZM10.2843 20.958H9.08428V22.158V24.8059V26.0059H10.2843H12.9322H14.1322V24.8059V22.158V20.958H12.9322H10.2843ZM10.2843 29.1809H12.9322V31.8288H10.2843V29.1809ZM9.08428 27.9809H10.2843H12.9322H14.1322V29.1809V31.8288V33.0288H12.9322H10.2843H9.08428V31.8288V29.1809V27.9809ZM12.9322 36.2038H10.2843V38.8518H12.9322V36.2038ZM10.2843 35.0038H9.08428V36.2038V38.8518V40.0518H10.2843H12.9322H14.1322V38.8518V36.2038V35.0038H12.9322H10.2843ZM17.4168 15.1348H20.0648V17.7827H17.4168V15.1348ZM16.2168 13.9348H17.4168H20.0648H21.2648V15.1348V17.7827V18.9827H20.0648H17.4168H16.2168V17.7827V15.1348V13.9348ZM20.0648 22.158H17.4168V24.8059H20.0648V22.158ZM17.4168 20.958H16.2168V22.158V24.8059V26.0059H17.4168H20.0648H21.2648V24.8059V22.158V20.958H20.0648H17.4168ZM29.4993 22.158H32.1472V24.8059H29.4993V22.158ZM28.2993 20.958H29.4993H32.1472H33.3472V22.158V24.8059V26.0059H32.1472H29.4993H28.2993V24.8059V22.158V20.958ZM32.1472 29.1809H29.4993V31.8288H32.1472V29.1809ZM29.4993 27.9809H28.2993V29.1809V31.8288V33.0288H29.4993H32.1472H33.3472V31.8288V29.1809V27.9809H32.1472H29.4993ZM29.4993 36.2038H32.1472V38.8518H29.4993V36.2038ZM28.2993 35.0038H29.4993H32.1472H33.3472V36.2038V38.8518V40.0518H32.1472H29.4993H28.2993V38.8518V36.2038V35.0038ZM20.0648 29.1809H17.4168V31.8288H20.0648V29.1809ZM17.4168 27.9809H16.2168V29.1809V31.8288V33.0288H17.4168H20.0648H21.2648V31.8288V29.1809V27.9809H20.0648H17.4168ZM17.4168 36.2038H20.0648V38.8518H17.4168V36.2038ZM16.2168 35.0038H17.4168H20.0648H21.2648V36.2038V38.8518V40.0518H20.0648H17.4168H16.2168V38.8518V36.2038V35.0038Z" fill="#7F94A8"/>
</g>
<defs>
<clipPath id="clip0_2287_643">
<rect width="54" height="54" fill="white"/>
</clipPath>
</defs>
</svg>
