<svg width="54" height="54" viewBox="0 0 54 54" fill="none" xmlns="http://www.w3.org/2000/svg">
<path fill-rule="evenodd" clip-rule="evenodd" d="M1.03516 15.1303H0.285156V15.8803V27.2326V30.7953V34.358V35.108H1.03516H3.99043C3.98448 35.1916 3.98145 35.276 3.98145 35.3611C3.98145 37.2988 5.55229 38.8696 7.49001 38.8696C9.42774 38.8696 10.9986 37.2988 10.9986 35.3611C10.9986 35.276 10.9956 35.1916 10.9896 35.108H16.4296C16.4237 35.1916 16.4207 35.276 16.4207 35.3611C16.4207 37.2988 17.9915 38.8696 19.9292 38.8696C21.867 38.8696 23.4378 37.2988 23.4378 35.3611C23.4378 35.276 23.4348 35.1916 23.4288 35.108H26.5529H27.3029V34.358V27.9826H29.1962V30.7953V34.358V35.108H29.9462H32.4919C32.4859 35.1916 32.4829 35.276 32.4829 35.3611C32.4829 37.2988 34.0537 38.8696 35.9915 38.8696C37.9292 38.8696 39.5 37.2988 39.5 35.3611C39.5 35.276 39.497 35.1916 39.4911 35.108H43.4215C43.4155 35.1916 43.4125 35.276 43.4125 35.3611C43.4125 37.2988 44.9833 38.8696 46.921 38.8696C48.299 38.8696 49.4914 38.0753 50.0654 36.9195H52.9658H53.7158V36.1695V30.8944V27.2326V27.0855L53.6602 26.9492L51.5707 21.8298L50.0371 18.0727L49.8467 17.6061H49.3428H42.7005H41.9505V18.3561V26.4826H39.3443V15.8803V15.1303H38.5943H1.03516ZM50.4291 35.4195H52.2158V31.6444H51.2558C50.8416 31.6444 50.5058 31.3086 50.5058 30.8944C50.5058 30.4802 50.8416 30.1444 51.2558 30.1444H52.2158V27.9826H45.7483H44.9983V27.2326V22.1132V21.3632H45.7483H49.7601L48.8388 19.1061H43.4505V27.2326V27.9826H42.7005H38.5943H30.6962V30.0453H31.988C32.4022 30.0453 32.738 30.3811 32.738 30.7953C32.738 31.2095 32.4022 31.5453 31.988 31.5453H30.6962V33.608H32.9516C33.5581 32.5586 34.6923 31.8525 35.9915 31.8525C37.2906 31.8525 38.4249 32.5586 39.0314 33.608H43.8812C44.4877 32.5586 45.6219 31.8525 46.921 31.8525C48.8588 31.8525 50.4296 33.4233 50.4296 35.3611C50.4296 35.3806 50.4295 35.4001 50.4291 35.4195ZM22.9691 33.608H25.8029V27.9826H1.78516V30.0453H3.17362C3.58784 30.0453 3.92362 30.3811 3.92362 30.7953C3.92362 31.2095 3.58784 31.5453 3.17362 31.5453H1.78516V33.608H4.45014C5.05662 32.5586 6.19086 31.8525 7.49001 31.8525C8.78917 31.8525 9.92341 32.5586 10.5299 33.608H16.8894C17.4958 32.5586 18.6301 31.8525 19.9292 31.8525C21.2284 31.8525 22.3626 32.5586 22.9691 33.608ZM26.5529 26.4826H1.78516V16.6303H37.8443V26.4826H29.9462H26.5529ZM46.4983 22.8632H50.3723L51.8496 26.4826H46.4983V22.8632ZM7.49001 37.3696C8.59932 37.3696 9.49858 36.4704 9.49858 35.3611C9.49858 34.2518 8.59932 33.3525 7.49001 33.3525C6.38071 33.3525 5.48145 34.2518 5.48145 35.3611C5.48145 36.4704 6.38071 37.3696 7.49001 37.3696ZM19.9292 37.3696C21.0385 37.3696 21.9378 36.4704 21.9378 35.3611C21.9378 34.2518 21.0385 33.3525 19.9292 33.3525C18.8199 33.3525 17.9207 34.2518 17.9207 35.3611C17.9207 36.4704 18.8199 37.3696 19.9292 37.3696ZM38 35.3611C38 36.4704 37.1008 37.3696 35.9915 37.3696C34.8822 37.3696 33.9829 36.4704 33.9829 35.3611C33.9829 34.2518 34.8822 33.3525 35.9915 33.3525C37.1008 33.3525 38 34.2518 38 35.3611ZM46.921 37.3696C48.0303 37.3696 48.9296 36.4704 48.9296 35.3611C48.9296 34.2518 48.0303 33.3525 46.921 33.3525C45.8117 33.3525 44.9125 34.2518 44.9125 35.3611C44.9125 36.4704 45.8117 37.3696 46.921 37.3696Z" fill="#7F94A8"/>
</svg>
