<svg width="54" height="54" viewBox="0 0 54 54" fill="none" xmlns="http://www.w3.org/2000/svg">
<path fill-rule="evenodd" clip-rule="evenodd" d="M25.2849 21.7206V18.3741C26.2414 18.3785 27.1388 18.4089 27.886 18.4596C28.3555 18.4915 28.7583 18.5309 29.0754 18.5755C29.4104 18.6226 29.5953 18.6685 29.6638 18.6951C30.3223 18.9512 33.587 20.413 36.4853 21.7206H25.2849ZM30.2074 17.2971C31.1698 17.6713 37.1436 20.3679 40.1256 21.7213C41.4252 21.7329 43.4006 21.8955 45.3447 22.3505C47.3253 22.8141 49.4303 23.616 50.6796 25.0111C51.2583 25.5564 52.1872 26.9723 52.1872 28.9737V28.9843V28.9949V29.0055V29.0161V29.0267V29.0372V29.0478V29.0583V29.0688V29.0793V29.0898V29.1003V29.1108V29.1213V29.1318V29.1422V29.1527V29.1631V29.1735V29.1839V29.1943V29.2047V29.2151V29.2255V29.2359V29.2462V29.2565V29.2669V29.2772V29.2875V29.2978V29.3081V29.3184V29.3286V29.3389V29.3491V29.3593V29.3696V29.3798V29.39V29.4002V29.4103V29.4205V29.4307V29.4408V29.4509V29.4611V29.4712V29.4813V29.4913V29.5014V29.5115V29.5215V29.5316V29.5416V29.5516V29.5616V29.5716V29.5816V29.5916V29.6016V29.6115V29.6215V29.6314V29.6413V29.6512V29.6611V29.671V29.6809V29.6907V29.7006V29.7104V29.7202V29.7301V29.7399V29.7497V29.7594V29.7692V29.779V29.7887V29.7984V29.8082V29.8179V29.8276V29.8372V29.8469V29.8566V29.8662V29.8759V29.8855V29.8951V29.9047V29.9143V29.9239V29.9334V29.943V29.9525V29.9621V29.9716V29.9811V29.9906V30V30.0095V30.019V30.0284V30.0378V30.0473V30.0567V30.0661V30.0754V30.0848V30.0942V30.1035V30.1128V30.1222V30.1315V30.1407V30.15V30.1593V30.1686V30.1778V30.187V30.1962V30.2055V30.2146V30.2238V30.233V30.2421V30.2513V30.2604V30.2695V30.2786V30.2877V30.2968V30.3059V30.3149V30.3239V30.333V30.342V30.351V30.36V30.3689V30.3779V30.3869V30.3958V30.4047V30.4136V30.4225V30.4314V30.4403V30.4491V30.4579V30.4668V30.4756V30.4844V30.4932V30.502V30.5107V30.5195V30.5282V30.5369V30.5456V30.5543V30.563V30.5717V30.5803V30.589V30.5976V30.6062V30.6148V30.6234V30.6319V30.6405V30.649V30.6576V30.6661V30.6746V30.6831V30.6916V30.7V30.7085V30.7169V30.7253V30.7337V30.7421V30.7505V30.7588V30.7672V30.7755V30.7838V30.7922V30.8004V30.8087V30.817V30.8252V30.8335V30.8417V30.8499V30.8581V30.8663V30.8744V30.8826V30.8907V30.8988V30.907V30.915V30.9231V30.9312V30.9392V30.9473V30.9553V30.9633V30.9713V30.9793V30.9872V30.9952V31.0031V31.011V31.0189V31.0268V31.0347V31.0425V31.0504V31.0582V31.066V31.0738V31.0816V31.0894V31.0971V31.1049V31.1126V31.1203V31.128V31.1357V31.1434V31.151V31.1586V31.1663V31.1739V31.1815V31.189V31.1966V31.2041V31.2117V31.2192V31.2267V31.2342V31.2416V31.2491V31.2565V31.2639V31.2713V31.2787V31.2861V31.2935V31.3008V31.3081V31.3155V31.3228V31.33V31.3373V31.3446V31.3518V31.359V31.3662V31.3734V31.3806V31.3877V31.3949V31.402V31.4091V31.4162V31.4233V31.4304V31.4374V31.4444V31.4514V31.4584V31.4654V31.4724V31.4793V31.4863V31.4932V31.5001V31.507V31.5139V31.5207V31.5276V31.5344V31.5412V31.548V31.5547V31.5615V31.5682V31.575V31.5817V31.5884V31.5951V31.6017V31.6084V31.615V31.6216V31.6282V31.6348V31.6413V31.6479V31.6544V31.6609V31.6674V31.6739V31.6803V31.6868V31.6932V31.6996V31.706V31.7124V31.7188V31.7251V31.7314V31.7378V31.744V31.7503V31.7566V31.7628V31.7691V31.7753V31.7815V31.7876V31.7938V31.7999V31.8061V31.8122V31.8183V31.8243V31.8304V31.8364V31.8425V31.8485V31.8544V31.8604V31.8664V31.8723V31.8782V31.8841V31.89V31.8959V31.9017V31.9076V31.9134V31.9192V31.9249V31.9307V31.9365V31.9422V31.9479V31.9536V31.9593V31.9649V31.9706V31.9762V31.9818V31.9874V31.9929V31.9985V32.004V32.0095V32.015V32.0205V32.026V32.0314V32.0368V32.0423V32.0476V32.053V32.0584V32.0637V32.069V32.0743V32.0796V32.0849V32.0901V32.0954V32.1006V32.1058V32.1109V32.1161V32.1212V32.1263V32.1314V32.1365V32.1416V32.1466V32.1517V32.1567V32.1617V32.1666V32.1716V32.1765V32.1814V32.1863V32.1912V32.1961V32.2009V32.2057V32.2106V32.2153V32.2201V32.2249V32.2296V32.2343V32.239V32.2437V32.2483V32.253V32.2576V32.2622V32.2668V32.2713V32.2759V32.2804V32.2849V32.2894V32.2939V32.2983V32.3027V32.3071V32.3115V32.3159V32.3203V32.3246V32.3289V32.3332V32.3375V32.3417V32.346V32.3502V32.3544V32.3586V32.3627V32.3669V32.371V32.3751V32.3792V32.3833V32.3873V32.3913V32.3953V32.3993V32.4033V32.4072V32.4112V32.4151V32.419V32.4228V32.4267V32.4305V32.4343V32.4381V32.4419V32.4456V32.4494V32.4531V32.4568V32.4604V32.4641V32.4677V32.4713V32.4749V32.4785V32.4821V32.4856V32.4891V32.4926V32.4961V32.4995V32.503V32.5064V32.5098V32.5131V32.5165V32.5198V32.5231V32.5264V32.5297V32.5329V32.5362V32.5394V32.5426V32.5457V32.5489V32.552V32.5551V32.5582V32.5613V32.5643V32.5674V32.5704V32.5733V32.5763V32.5793V32.5822V32.5851V32.588V32.5908V32.5937V32.5965V32.5993V32.6021V32.6048V32.6076V32.6103V32.613V33.363H51.4372H48.8212C48.2709 35.5264 46.3099 37.1265 43.9753 37.1265C41.6455 37.1265 39.6879 35.533 39.1328 33.3765H16.8178C16.2627 35.533 14.3051 37.1265 11.9753 37.1265C9.62236 37.1265 7.64904 35.5012 7.1167 33.3121C6.26808 33.1035 5.08579 32.7248 4.07188 32.2021C3.52741 31.9214 2.99306 31.5798 2.58491 31.1717C2.17969 30.7666 1.82974 30.2239 1.82974 29.5579V29.552V29.5461V29.5402V29.5343V29.5284V29.5225V29.5165V29.5105V29.5045V29.4986V29.4925V29.4865V29.4805V29.4744V29.4684V29.4623V29.4562V29.4501V29.444V29.4378V29.4317V29.4255V29.4193V29.4131V29.4069V29.4007V29.3945V29.3882V29.382V29.3757V29.3694V29.3631V29.3568V29.3505V29.3442V29.3378V29.3315V29.3251V29.3187V29.3123V29.3059V29.2995V29.293V29.2866V29.2801V29.2736V29.2672V29.2607V29.2541V29.2476V29.2411V29.2345V29.228V29.2214V29.2148V29.2082V29.2016V29.195V29.1883V29.1817V29.175V29.1683V29.1616V29.155V29.1482V29.1415V29.1348V29.128V29.1213V29.1145V29.1077V29.101V29.0941V29.0873V29.0805V29.0737V29.0668V29.06V29.0531V29.0462V29.0393V29.0324V29.0255V29.0186V29.0116V29.0047V28.9977V28.9907V28.9838V28.9768V28.9698V28.9627V28.9557V28.9487V28.9416V28.9346V28.9275V28.9204V28.9133V28.9062V28.8991V28.892V28.8849V28.8777V28.8706V28.8634V28.8562V28.8491V28.8419V28.8347V28.8274V28.8202V28.813V28.8057V28.7985V28.7912V28.7839V28.7767V28.7694V28.7621V28.7547V28.7474V28.7401V28.7327V28.7254V28.718V28.7107V28.7033V28.6959V28.6885V28.6811V28.6737V28.6662V28.6588V28.6514V28.6439V28.6364V28.629V28.6215V28.614V28.6065V28.599V28.5915V28.5839V28.5764V28.5689V28.5613V28.5537V28.5462V28.5386V28.531V28.5234V28.5158V28.5082V28.5006V28.4929V28.4853V28.4776V28.47V28.4623V28.4547V28.447V28.4393V28.4316V28.4239V28.4162V28.4085V28.4007V28.393V28.3853V28.3775V28.3697V28.362V28.3542V28.3464V28.3386V28.3308V28.323V28.3152V28.3074V28.2996V28.2917V28.2839V28.276V28.2682V28.2603V28.2525V28.2446V28.2367V28.2288V28.2209V28.213V28.2051V28.1972V28.1892V28.1813V28.1734V28.1654V28.1575V28.1495V28.1415V28.1336V28.1256V28.1176V28.1096V28.1016V28.0936V28.0856V28.0776V28.0695V28.0615V28.0535V28.0454V28.0374V28.0293V28.0212V28.0132V28.0051V27.997V27.9889V27.9808V27.9727V27.9646V27.9565V27.9484V27.9403V27.9322V27.924V27.9159V27.9078V27.8996V27.8915V27.8833V27.8751V27.867V27.8588V27.8506V27.8424V27.8342V27.826V27.8178V27.8096V27.8014V27.7932V27.785V27.7767V27.7685V27.7603V27.752V27.7438V27.7355V27.7273V27.719V27.7108V27.7025V27.6942V27.6859V27.6777V27.6694V27.6611V27.6528V27.6445V27.6362V27.6279V27.6196V27.6112V27.6029V27.5946V27.5863V27.5779V27.5696V27.5613V27.5529V27.5446V27.5362V27.5279V27.5195V27.5111V27.5028V27.4944V27.486V27.4776V27.4693V27.4609V27.4525V27.4441V27.4357V27.4273V27.4189V27.4105V27.4021V27.3937V27.3853V27.3768V27.3684V27.36V27.3516V27.3432V27.3347V27.3263V27.3178V27.3094V27.301V27.2925V27.2841V27.2756V27.2672V27.2587V27.2503V27.2418V27.2333V27.2249V27.2164V27.2079V27.1995V27.191V27.1825V27.174V27.1655V27.1571V27.1486V27.1401V27.1316V27.1231V27.1146V27.1061V27.0976V27.0891V27.0806V27.0721V27.0636V27.0551V27.0466V27.0381V27.0296V27.0211V27.0126V27.0041V26.9956V26.987V26.9785V26.97V26.9615V26.953V26.9444V26.9359V26.9274V26.9189V26.9103V26.9018V26.8933V26.8848V26.8762V26.8677V26.8592V26.8506V26.8421V26.8336V26.825V26.8165V26.808V26.7994V26.7909V26.7824V26.7738V26.7653V26.7568V26.7482V26.7397V26.7312V26.7226V26.7141V26.7056V26.697V26.6885V26.6799V26.6714V26.6629V26.6543V26.6458V26.6373V26.6287V26.6202V26.6117V26.6031V26.5946V26.5861V26.5775V26.569V26.5605V26.5519V26.5434V26.5349V26.5264V26.5178V26.5093V26.5008V26.4923V26.4837V26.4752V26.4667V26.4582V26.4497V26.4411V26.4326V26.4241V26.4156V26.4071V26.3986V26.3901V26.3816V26.373V26.3645V26.356V26.3475V26.339V26.3305V26.322V26.3135V26.3051V26.2966V26.2881V26.2796V26.2711V26.2626V26.2541V26.2457V26.2372V26.2287V26.2202V26.2118V26.2033V26.1948V26.1864V26.1779V26.1694V26.161V26.1525V26.1441V26.1356V26.1272V26.1187V26.1103V26.1019V26.0934V26.085V26.0766V26.0681V26.0597V26.0513V26.0429V26.0345V26.0261V26.0176V26.0092V26.0008V25.9924V25.984V25.9757V25.9673V25.9589V25.9505V25.9421V25.9337V25.9254V25.917V25.9086V25.9003V25.8919V25.8836V25.8752V25.8669V25.8585V25.8502V25.8419V25.8335V25.8252V25.8169V25.8086V25.8002V25.7919V25.7836V25.7753V25.767V25.7587V25.7505V25.7422V25.7339V25.7256V25.7173V25.7091V25.7008V25.6926V25.6843V25.6761V25.6678V25.6596V25.6514V25.6431V25.6349V25.6267V25.6185V25.6103V25.6021V25.5939V25.5857V25.5775V25.5693V25.5611V25.5529V25.5448V25.5366V25.5321V25.5276V25.523V25.5185V25.514V25.5094V25.5049V25.5004V25.4959V25.4914V25.4869V25.4823V25.4778V25.4733V25.4688V25.4643V25.4598V25.4553V25.4508V25.4463V25.4418V25.4373V25.4328V25.4283V25.4238V25.4193V25.4149V25.4104V25.4059V25.4014V25.3969V25.3924V25.388V25.3835V25.379V25.3746V25.3701V25.3656V25.3612V25.3567V25.3522V25.3478V25.3433V25.3389V25.3344V25.33V25.3255V25.3211V25.3166V25.3122V25.3077V25.3033V25.2989V25.2944V25.29V25.2856V25.2811V25.2767V25.2723V25.2679V25.2634V25.259V25.2546V25.2502V25.2458V25.2414V25.237V25.2326V25.2282V25.2238V25.2194V25.215V25.2106V25.2062V25.2018V25.1974V25.193V25.1886V25.1842V25.1799V25.1755V25.1711V25.1667V25.1624V25.158V25.1536V25.1493V25.1449V25.1405V25.1362V25.1318V25.1275V25.1231V25.1188V25.1144V25.1101V25.1058V25.1014V25.0971V25.0927V25.0884V25.0841V25.0798V25.0754V25.0711V25.0668V25.0625V25.0582V25.0538V25.0495V25.0452V25.0409V25.0366V25.0323V25.028V25.0237V25.0194V25.0151V25.0108V25.0066V25.0023V24.998V24.9937V24.9894V24.9852V24.9809V24.9766V24.9723V24.9681V24.9638V24.9596V24.9553V24.9511V24.9468V24.9426V24.9383V24.9341V24.9298V24.9256V24.9213V24.9171V24.9129V24.9087V24.9044V24.9002V24.896V24.8918V24.8876V24.8833V24.8791V24.8749V24.8707V24.8665V24.8623V24.8581V24.8539V24.8497V24.8455V24.8414V24.8372V24.833V24.8288V24.8246V24.8205V24.8163V24.8121V24.808V24.8038V24.7997V24.7955V24.7913V24.7872V24.7831V24.7789V24.7748V24.7706V24.7665V24.7624V24.7582V24.7541V24.75V24.7459V24.7417V24.7376V24.7335V24.7294V24.7253V24.7212V24.7171V24.713V24.7089V24.7048V24.7007V24.6966V24.6925V24.6885V24.6844V24.6803V24.6762V24.6722V24.6681V24.664V24.66V24.6559V24.6519V24.6478V24.6438V24.6397V24.6357V24.6316V24.6276V24.6236V24.6195V24.6155V24.6115V24.6075V24.6035V24.5994V24.5954V24.5914V24.5874V24.5834V24.5794V24.5754V24.5714V24.5674V24.5635V24.5595V24.5555V24.5515V24.5476V24.5436V24.5396V24.5357V24.5317V24.5277V24.5238V24.5198V24.5159V24.5119V24.508V24.5041V24.5001V24.4962V24.4923V24.4883V24.4844V24.4805V24.4766V24.4727V24.4688V24.4649V24.461V24.4571V24.4532V24.4493V24.4454V24.4415V24.4376V24.4338V24.4299V24.426V24.4221V24.4183V24.4144V24.4106V24.4067V24.4029V24.399V24.3952V24.3913V24.3875V24.3837V24.3798V24.376V24.3722V24.3684V24.3645V24.3607V24.3569V24.3531V24.3493V24.3455V24.3417V24.3379V24.3342V24.3304V24.3266V24.3228V24.319V24.3153V24.3115V24.3077V24.304V24.3002V24.2965V24.2927V24.289V24.2852V24.2815V24.2778V24.274V24.2703V24.2666V24.2629V24.2592V24.2555V24.2517V24.248V24.2443V24.2406V24.237V24.2333V24.2296V24.2259V24.2222V24.2185V24.2149V24.2112V24.2076V24.2039V24.2002V24.1966V24.1929V24.1893V24.1857V24.182V24.1784V24.1748V24.1711V24.1675V24.1639V24.1603V24.1567V24.1531V24.1495V24.1459V24.1423V24.1387V24.1351V24.1315V24.1279V24.1244V24.1208V24.1172V24.1137V24.1101V24.1066V24.103V24.0995V24.0959V24.0924V24.0889V24.0853V24.0818V24.0783V24.0748V24.0712V24.0677V24.0642V24.0607V24.0572V24.0537V24.0502V24.0468V24.0433V24.0398V24.0363V24.0329V24.0294V24.0259V24.0225V24.019V24.0156V24.0121V24.0087V24.0053V24.0018V23.9984V23.995V23.9916V23.9881V23.9847V23.9813V23.9779V23.9745V23.9711V23.9677V23.9644V23.961V23.9576V23.9542V23.9509V23.9475V23.9441V23.9408V23.9374V23.9341V23.9307V23.9274V23.9241V23.9207V23.9174V23.9141V23.9108V23.9075V23.9041V23.9008V23.8975V23.8942V23.891V23.8877V23.8844V23.8811V23.8778V23.8746V23.8713V23.868V23.8648V23.8615V23.8583V23.855V23.8518V23.8486V23.8454V23.8421V23.8389V23.8357V23.8325V23.8293V23.8261V23.8229V23.8197V23.8165V23.8133V23.8101V23.807V23.8038V23.8006V23.7975V23.7943V23.7912V23.788V23.7849V23.7817V23.7786V23.7755V23.7723V23.7692V23.7661V23.763V23.7599V23.7568V23.7537V23.7506V23.7475V23.7444V23.7414V23.7383V23.7352V23.7322V23.7291V23.726V23.723V23.72V23.7169V23.7139V23.7108V23.7078V23.7048V23.7018V23.6988V23.6958V23.6928V23.6898V23.6868V23.6838V23.6808V23.6778V23.6749V23.6719V23.6689V23.666V23.663V23.6601V23.6571V23.6548C1.7626 23.237 1.88463 22.7269 2.31845 22.3326C2.76912 21.9229 3.4626 21.7206 4.38632 21.7206H4.39609H4.40587H4.41565H4.42542H4.4352H4.44499H4.45477H4.46456H4.47435H4.48414H4.49393H4.50372H4.51352H4.52331H4.53311H4.54291H4.55271H4.56251H4.57232H4.58212H4.59193H4.60173H4.61154H4.62135H4.63116H4.64097H4.65078H4.66059H4.67041H4.68022H4.69004H4.69985H4.70967H4.71948H4.7293H4.73912H4.74893H4.75875H4.76857H4.77839H4.7882H4.79802H4.80784H4.81766H4.82748H4.83729H4.84711H4.85693H4.86675H4.87656H4.88638H4.89619H4.90601H4.91582H4.92564H4.93545H4.94526H4.95508H4.96489H4.9747H4.98451H4.99431H5.00412H5.01393H5.02373H5.03354H5.04334H5.05314H5.06294H5.07274H5.08253H5.09233H5.10212H5.11191H5.1217H5.13149H5.14128H5.15106H5.16085H5.17063H5.18041H5.19018H5.19996H5.20973H5.2195H5.22927H5.23903H5.2488H5.25856H5.26832H5.27807H5.28782H5.29757H5.30732H5.31707H5.32681H5.33655H5.34629H5.35602H5.36575H5.37548H5.3852H5.39492H5.40464H5.41435H5.42407H5.43377H5.44348H5.45318H5.46288H5.47257H5.48226H5.49195H5.50163H5.51131H5.52098H5.53065H5.54032H5.54998H5.55964H5.5693H5.57895H5.58859H5.59823H5.60787H5.61751H5.62713H5.63676H5.64638H5.65599H5.6656H5.67521H5.68481H5.69441H5.704H5.71358H5.72316H5.73274H5.74231H5.75188H5.76144H5.77099H5.78054H5.79009H5.79963H5.80916H5.81869H5.82821H5.83773H5.84724H5.85675H5.86625H5.87574H5.88523H5.89471H5.90419H5.91366H5.92312H5.93258H5.94203H5.95148H5.96092H5.97035H5.97977H5.98919H5.99861H6.00801H6.01741H6.02681H6.03619H6.04557H6.05495H6.06431H6.07367H6.08302H6.09237H6.10171H6.11104H6.12036H6.12968H6.13899H6.14829H6.15758H6.16687H6.17615H6.18542H6.19468H6.20394H6.21319H6.22243H6.23166H6.24089H6.2501H6.25931H6.26851H6.2777H6.28689H6.29606H6.30523H6.31439H6.32354H6.33269H6.34182H6.35095H6.36006H6.36917H6.37827H6.38736H6.39644H6.40552H6.41458H6.42364H6.43268H6.44172H6.45075H6.45977H6.46878H6.47778H6.48677H6.49575H6.50472H6.51368H6.52264H6.53158H6.54051H6.54944H6.55835H6.56726H6.57615H6.58504H6.59391H6.60278H6.61163H6.62048H6.62931H6.63813H6.64695H6.65575H6.66454H6.67333H6.6821H6.69086H6.69961H6.70835H6.71708H6.7258H6.7345H6.7432H6.75189H6.76056H6.76923H6.77788H6.78652H6.79515H6.80377H6.81238H6.82097H6.82956H6.83813H6.84669H6.85524H6.86378H6.87231H6.88083H6.88933H6.89782H6.9063H6.91477H6.92322H6.93167H6.9401H6.94852H6.95693H6.96532H6.9737H6.98207H6.99043H6.99878H7.00711H7.01543H7.02374H7.03203H7.04031H7.04858H7.05684H7.06508H7.07331H7.08153H7.08974H7.09793H7.10611H7.11427H7.12242H7.13056H7.13869H7.1468H7.1549H7.16298H7.17105H7.17911H7.18715H7.19518H7.2032H7.2112H7.21919H7.22716H7.23512H7.24307H7.251H7.25892H7.26682H7.27471H7.28259H7.29045H7.29829H7.30612H7.31394H7.32174H7.32953H7.3373H7.34506H7.3528H7.36053H7.36825H7.37595H7.38363H7.3913H7.39895H7.40659H7.41421H7.42182H7.42941H7.43699H7.44455H7.4521H7.45963H7.46714H7.47464H7.48212H7.48959H7.49704H7.50448H7.5119H7.5193H7.52669H7.53406H7.54142H7.54876H7.55608H7.56339H7.57068H7.57795H7.58521H7.59245H7.59967H7.60688H7.61407H7.62125H7.6284H7.63555H7.64267H7.64978H7.65687H7.66394H7.67099H7.67803H7.68505H7.69206H7.69905H7.70602H7.71297H7.7199H7.72682H7.73372H7.7406H7.74746H7.75431H7.76114H7.76795H7.77474H7.78152H7.78827H7.79501H7.80173H7.80843H7.81512H7.82178H7.82843H7.83506H7.84167H7.84827H7.85484H7.86139H7.86793H7.87445H7.88095H7.88743H7.89389H7.90033H7.90675H7.91316H7.91954H7.92591H7.93226H7.93859H7.94489H7.95118H7.95745H7.9637H7.96993H7.97615H7.98234H7.98851H7.99466H8.00079H8.00691H8.013H8.01907H8.02513H8.03116H8.03717H8.04317H8.04914H8.05509H8.06102H8.06693H8.07282H8.0787H8.08455H8.09038H8.09618H8.10197H8.10774H8.11349H8.11921H8.12492H8.1306H8.13627H8.14191H8.14753H8.15313H8.15871H8.16427H8.1698H8.17532H8.18081H8.18628H8.19173H8.19716H8.20257H8.20796H8.21332H8.21866H8.22398H8.22928H8.23456H8.23981H8.24504H8.25025H8.25544H8.26061H8.26575H8.27087H8.27597H8.28105H8.2861H8.29114H8.29614H8.30113H8.30609H8.30871C9.13867 21.287 10.3038 20.6999 11.5721 20.0967C13.8047 19.0348 16.4351 17.8848 18.1061 17.467C19.7142 17.065 22.2415 16.8976 24.5278 16.876C25.79 16.864 27.0042 16.8963 27.9876 16.9631C28.4788 16.9964 28.9198 17.0389 29.2842 17.0901C29.6305 17.1388 29.9646 17.2027 30.2074 17.2971ZM6.99104 31.7266C7.19475 29.1521 9.34846 27.1265 11.9753 27.1265C14.6529 27.1265 16.8389 29.2312 16.9691 31.8765H23.7849V23.2206H13.9391H13.6685L13.4602 23.0478L11.7849 21.6578C10.6199 22.2188 9.57243 22.7504 8.84258 23.1344L8.67863 23.2206H8.49338H8.48941H8.48543H8.48141H8.47738H8.47332H8.46923H8.46512H8.46098H8.45682H8.45263H8.44843H8.44419H8.43993H8.43565H8.43134H8.42701H8.42266H8.41828H8.41387H8.40945H8.405H8.40052H8.39602H8.3915H8.38695H8.38238H8.37779H8.37317H8.36853H8.36387H8.35918H8.35447H8.34974H8.34498H8.3402H8.3354H8.33057H8.32572H8.32085H8.31595H8.31104H8.30609H8.30113H8.29614H8.29114H8.2861H8.28105H8.27597H8.27087H8.26575H8.26061H8.25544H8.25025H8.24504H8.23981H8.23456H8.22928H8.22398H8.21866H8.21332H8.20796H8.20257H8.19716H8.19173H8.18628H8.18081H8.17532H8.1698H8.16427H8.15871H8.15313H8.14753H8.14191H8.13627H8.1306H8.12492H8.11921H8.11349H8.10774H8.10197H8.09618H8.09038H8.08455H8.0787H8.07282H8.06693H8.06102H8.05509H8.04914H8.04317H8.03717H8.03116H8.02513H8.01907H8.013H8.00691H8.00079H7.99466H7.98851H7.98234H7.97615H7.96993H7.9637H7.95745H7.95118H7.94489H7.93859H7.93226H7.92591H7.91954H7.91316H7.90675H7.90033H7.89389H7.88743H7.88095H7.87445H7.86793H7.86139H7.85484H7.84827H7.84167H7.83506H7.82843H7.82178H7.81512H7.80843H7.80173H7.79501H7.78827H7.78152H7.77474H7.76795H7.76114H7.75431H7.74746H7.7406H7.73372H7.72682H7.7199H7.71297H7.70602H7.69905H7.69206H7.68505H7.67803H7.67099H7.66394H7.65687H7.64978H7.64267H7.63555H7.6284H7.62125H7.61407H7.60688H7.59967H7.59245H7.58521H7.57795H7.57068H7.56339H7.55608H7.54876H7.54142H7.53406H7.52669H7.5193H7.5119H7.50448H7.49704H7.48959H7.48212H7.47464H7.46714H7.45963H7.4521H7.44455H7.43699H7.42941H7.42182H7.41421H7.40659H7.39895H7.3913H7.38363H7.37595H7.36825H7.36053H7.3528H7.34506H7.3373H7.32953H7.32174H7.31394H7.30612H7.29829H7.29045H7.28259H7.27471H7.26682H7.25892H7.251H7.24307H7.23512H7.22716H7.21919H7.2112H7.2032H7.19518H7.18715H7.17911H7.17105H7.16298H7.1549H7.1468H7.13869H7.13056H7.12242H7.11427H7.10611H7.09793H7.08974H7.08153H7.07331H7.06508H7.05684H7.04858H7.04031H7.03203H7.02374H7.01543H7.00711H6.99878H6.99043H6.98207H6.9737H6.96532H6.95693H6.94852H6.9401H6.93167H6.92322H6.91477H6.9063H6.89782H6.88933H6.88083H6.87231H6.86378H6.85524H6.84669H6.83813H6.82956H6.82097H6.81238H6.80377H6.79515H6.78652H6.77788H6.76923H6.76056H6.75189H6.7432H6.7345H6.7258H6.71708H6.70835H6.69961H6.69086H6.6821H6.67333H6.66454H6.65575H6.64695H6.63813H6.62931H6.62048H6.61163H6.60278H6.59391H6.58504H6.57615H6.56726H6.55835H6.54944H6.54051H6.53158H6.52264H6.51368H6.50472H6.49575H6.48677H6.47778H6.46878H6.45977H6.45075H6.44172H6.43268H6.42364H6.41458H6.40552H6.39644H6.38736H6.37827H6.36917H6.36006H6.35095H6.34182H6.33269H6.32354H6.31439H6.30523H6.29606H6.28689H6.2777H6.26851H6.25931H6.2501H6.24089H6.23166H6.22243H6.21319H6.20394H6.19468H6.18542H6.17615H6.16687H6.15758H6.14829H6.13899H6.12968H6.12036H6.11104H6.10171H6.09237H6.08302H6.07367H6.06431H6.05495H6.04557H6.03619H6.02681H6.01741H6.00801H5.99861H5.98919H5.97977H5.97035H5.96092H5.95148H5.94203H5.93258H5.92312H5.91366H5.90419H5.89471H5.88523H5.87574H5.86625H5.85675H5.84724H5.83773H5.82821H5.81869H5.80916H5.79963H5.79009H5.78054H5.77099H5.76144H5.75188H5.74231H5.73274H5.72316H5.71358H5.704H5.69441H5.68481H5.67521H5.6656H5.65599H5.64638H5.63676H5.62713H5.61751H5.60787H5.59823H5.58859H5.57895H5.5693H5.55964H5.54998H5.54032H5.53065H5.52098H5.51131H5.50163H5.49195H5.48226H5.47257H5.46288H5.45318H5.44348H5.43377H5.42407H5.41435H5.40464H5.39492H5.3852H5.37548H5.36575H5.35602H5.34629H5.33655H5.32681H5.31707H5.30732H5.29757H5.28782H5.27807H5.26832H5.25856H5.2488H5.23903H5.22927H5.2195H5.20973H5.19996H5.19018H5.18041H5.17063H5.16085H5.15106H5.14128H5.13149H5.1217H5.11191H5.10212H5.09233H5.08253H5.07274H5.06294H5.05314H5.04334H5.03354H5.02373H5.01393H5.00412H4.99431H4.98451H4.9747H4.96489H4.95508H4.94526H4.93545H4.92564H4.91582H4.90601H4.89619H4.88638H4.87656H4.86675H4.85693H4.84711H4.83729H4.82748H4.81766H4.80784H4.79802H4.7882H4.77839H4.76857H4.75875H4.74893H4.73912H4.7293H4.71948H4.70967H4.69985H4.69004H4.68022H4.67041H4.66059H4.65078H4.64097H4.63116H4.62135H4.61154H4.60173H4.59193H4.58212H4.57232H4.56251H4.55271H4.54291H4.53311H4.52331H4.51352H4.50372H4.49393H4.48414H4.47435H4.46456H4.45477H4.44499H4.4352H4.42542H4.41565H4.40587H4.39609H4.38632C3.64245 23.2206 3.38632 23.389 3.32744 23.4425L3.31969 23.4498L3.32974 23.49V23.5823V23.5852V23.588V23.5908V23.5936V23.5965V23.5993V23.6021V23.605V23.6079V23.6107V23.6136V23.6164V23.6193V23.6222V23.6251V23.628V23.6309V23.6338V23.6367V23.6396V23.6425V23.6454V23.6483V23.6513V23.6542V23.6571V23.6601V23.663V23.666V23.6689V23.6719V23.6749V23.6778V23.6808V23.6838V23.6868V23.6898V23.6928V23.6958V23.6988V23.7018V23.7048V23.7078V23.7108V23.7139V23.7169V23.72V23.723V23.726V23.7291V23.7322V23.7352V23.7383V23.7414V23.7444V23.7475V23.7506V23.7537V23.7568V23.7599V23.763V23.7661V23.7692V23.7723V23.7755V23.7786V23.7817V23.7849V23.788V23.7912V23.7943V23.7975V23.8006V23.8038V23.807V23.8101V23.8133V23.8165V23.8197V23.8229V23.8261V23.8293V23.8325V23.8357V23.8389V23.8421V23.8454V23.8486V23.8518V23.855V23.8583V23.8615V23.8648V23.868V23.8713V23.8746V23.8778V23.8811V23.8844V23.8877V23.891V23.8942V23.8975V23.9008V23.9041V23.9075V23.9108V23.9141V23.9174V23.9207V23.9241V23.9274V23.9307V23.9341V23.9374V23.9408V23.9441V23.9475V23.9509V23.9542V23.9576V23.961V23.9644V23.9677V23.9711V23.9745V23.9779V23.9813V23.9847V23.9881V23.9916V23.995V23.9984V24.0018V24.0053V24.0087V24.0121V24.0156V24.019V24.0225V24.0259V24.0294V24.0329V24.0363V24.0398V24.0433V24.0468V24.0502V24.0537V24.0572V24.0607V24.0642V24.0677V24.0712V24.0748V24.0783V24.0818V24.0853V24.0889V24.0924V24.0959V24.0995V24.103V24.1066V24.1101V24.1137V24.1172V24.1208V24.1244V24.1279V24.1315V24.1351V24.1387V24.1423V24.1459V24.1495V24.1531V24.1567V24.1603V24.1639V24.1675V24.1711V24.1748V24.1784V24.182V24.1857V24.1893V24.1929V24.1966V24.2002V24.2039V24.2076V24.2112V24.2149V24.2185V24.2222V24.2259V24.2296V24.2333V24.237V24.2406V24.2443V24.248V24.2517V24.2555V24.2592V24.2629V24.2666V24.2703V24.274V24.2778V24.2815V24.2852V24.289V24.2927V24.2965V24.3002V24.304V24.3077V24.3115V24.3153V24.319V24.3228V24.3266V24.3304V24.3342V24.3379V24.3417V24.3455V24.3493V24.3531V24.3569V24.3607V24.3645V24.3684V24.3722V24.376V24.3798V24.3837V24.3875V24.3913V24.3952V24.399V24.4029V24.4067V24.4106V24.4144V24.4183V24.4221V24.426V24.4299V24.4338V24.4376V24.4415V24.4454V24.4493V24.4532V24.4571V24.461V24.4649V24.4688V24.4727V24.4766V24.4805V24.4844V24.4883V24.4923V24.4962V24.5001V24.5041V24.508V24.5119V24.5159V24.5198V24.5238V24.5277V24.5317V24.5357V24.5396V24.5436V24.5476V24.5515V24.5555V24.5595V24.5635V24.5674V24.5714V24.5754V24.5794V24.5834V24.5874V24.5914V24.5954V24.5994V24.6035V24.6075V24.6115V24.6155V24.6195V24.6236V24.6276V24.6316V24.6357V24.6397V24.6438V24.6478V24.6519V24.6559V24.66V24.664V24.6681V24.6722V24.6762V24.6803V24.6844V24.6885V24.6925V24.6966V24.7007V24.7048V24.7089V24.713V24.7171V24.7212V24.7253V24.7294V24.7335V24.7376V24.7417V24.7459V24.75V24.7541V24.7582V24.7624V24.7665V24.7706V24.7748V24.7789V24.7831V24.7866H5.96657C6.38079 24.7866 6.71657 25.1224 6.71657 25.5366C6.71657 25.9508 6.38079 26.2866 5.96657 26.2866H3.32974V26.2881V26.2966V26.3051V26.3135V26.322V26.3305V26.339V26.3475V26.356V26.3645V26.373V26.3816V26.3901V26.3986V26.4071V26.4156V26.4241V26.4326V26.4411V26.4497V26.4582V26.4667V26.4752V26.4837V26.4923V26.5008V26.5093V26.5178V26.5264V26.5349V26.5434V26.5519V26.5605V26.569V26.5775V26.5861V26.5946V26.6031V26.6117V26.6202V26.6287V26.6373V26.6458V26.6543V26.6629V26.6714V26.6799V26.6885V26.697V26.7056V26.7141V26.7226V26.7312V26.7397V26.7482V26.7568V26.7653V26.7738V26.7824V26.7909V26.7994V26.808V26.8165V26.825V26.8336V26.8421V26.8506V26.8592V26.8677V26.8762V26.8848V26.8933V26.9018V26.9103V26.9189V26.9274V26.9359V26.9444V26.953V26.9615V26.97V26.9785V26.987V26.9956V27.0041V27.0126V27.0211V27.0296V27.0381V27.0466V27.0551V27.0636V27.0721V27.0806V27.0891V27.0976V27.1061V27.1146V27.1231V27.1316V27.1401V27.1486V27.1571V27.1655V27.174V27.1825V27.191V27.1995V27.2079V27.2164V27.2249V27.2333V27.2418V27.2503V27.2587V27.2672V27.2756V27.2841V27.2925V27.301V27.3094V27.3178V27.3263V27.3347V27.3432V27.3516V27.36V27.3684V27.3768V27.3853V27.3937V27.4021V27.4105V27.4189V27.4273V27.4357V27.4441V27.4525V27.4609V27.4693V27.4776V27.486V27.4944V27.5028V27.5111V27.5195V27.5279V27.5362V27.5446V27.5529V27.5613V27.5696V27.5779V27.5863V27.5946V27.6029V27.6112V27.6196V27.6279V27.6362V27.6445V27.6528V27.6611V27.6694V27.6777V27.6859V27.6942V27.7025V27.7108V27.719V27.7273V27.7355V27.7438V27.752V27.7603V27.7685V27.7767V27.785V27.7932V27.8014V27.8096V27.8178V27.826V27.8342V27.8424V27.8506V27.8588V27.867V27.8751V27.8833V27.8915V27.8996V27.9078V27.9159V27.924V27.9322V27.9403V27.9484V27.9565V27.9646V27.9727V27.9808V27.9889V27.997V28.0051V28.0132V28.0212V28.0293V28.0374V28.0454V28.0535V28.0615V28.0695V28.0776V28.0856V28.0936V28.1016V28.1096V28.1176V28.1256V28.1336V28.1415V28.1495V28.1575V28.1654V28.1734V28.1813V28.1892V28.1972V28.2051V28.213V28.2209V28.2288V28.2367V28.2446V28.2525V28.2603V28.2682V28.276V28.2839V28.2917V28.2996V28.3074V28.3152V28.323V28.3308V28.3386V28.3464V28.3542V28.362V28.3697V28.3775V28.3853V28.393V28.4007V28.4085V28.4162V28.4239V28.4316V28.4393V28.447V28.4547V28.4623V28.47V28.4776V28.4853V28.4929V28.5006V28.5082V28.5158V28.5234V28.531V28.5386V28.5462V28.5537V28.5613V28.5689V28.5764V28.5839V28.5915V28.599V28.6065V28.614V28.6215V28.629V28.6364V28.6439V28.6514V28.6588V28.6662V28.6737V28.6811V28.6885V28.6959V28.7033V28.7107V28.718V28.7254V28.7327V28.7401V28.7474V28.7547V28.7621V28.7694V28.7767V28.7839V28.7912V28.7985V28.8057V28.813V28.8202V28.8274V28.8347V28.8419V28.8491V28.8562V28.8634V28.8706V28.8777V28.8849V28.892V28.8991V28.9062V28.9133V28.9204V28.9275V28.9346V28.9416V28.9487V28.9557V28.9627V28.9698V28.9768V28.9838V28.9907V28.9977V29.0047V29.0116V29.0186V29.0255V29.0324V29.0393V29.0462V29.0531V29.06V29.0668V29.0737V29.0805V29.0873V29.0941V29.101V29.1077V29.1145V29.1213V29.128V29.1348V29.1415V29.1482V29.155V29.1616V29.1683V29.175V29.1817V29.1883V29.195V29.2016V29.2082V29.2148V29.2214V29.228V29.2345V29.2411V29.2476V29.2541V29.2607V29.2672V29.2736V29.2801V29.2866V29.293V29.2995V29.3059V29.3123V29.3187V29.3251V29.3315V29.3378V29.3442V29.3505V29.3568V29.3631V29.3694V29.3757V29.382V29.3882V29.3945V29.4007V29.4069V29.4131V29.4193V29.4255V29.4317V29.4378V29.444V29.4501V29.4562V29.4623V29.4684V29.4744V29.4805V29.4865V29.4925V29.4986V29.5045V29.5105V29.5165V29.5225V29.5284V29.5343V29.5402V29.5461V29.552V29.5579C3.32974 29.6701 3.38775 29.8533 3.64545 30.1109C3.90024 30.3657 4.2838 30.6237 4.75923 30.8688C5.4674 31.2339 6.29431 31.5273 6.99104 31.7266ZM25.2849 31.8765H38.9814C39.1117 29.2312 41.2977 27.1265 43.9753 27.1265C46.6483 27.1265 48.8314 29.224 48.9685 31.863H50.6872V31.8604V31.8544V31.8485V31.8425V31.8364V31.8304V31.8243V31.8183V31.8122V31.8061V31.7999V31.7938V31.7876V31.7815V31.7753V31.7691V31.7628V31.7566V31.7503V31.744V31.7378V31.7314V31.7251V31.7188V31.7124V31.706V31.6996V31.6932V31.6868V31.6803V31.6739V31.6674V31.6609V31.6544V31.6479V31.6413V31.6348V31.6282V31.6216V31.615V31.6084V31.6017V31.5951V31.5884V31.5817V31.575V31.5682V31.5615V31.5547V31.548V31.5412V31.5344V31.5276V31.5207V31.5139V31.507V31.5001V31.4932V31.4863V31.4793V31.4724V31.4654V31.4584V31.4514V31.4444V31.4374V31.4304V31.4233V31.4162V31.4091V31.402V31.3949V31.3877V31.3806V31.3734V31.3662V31.359V31.3518V31.3446V31.3373V31.33V31.3228V31.3155V31.3081V31.3008V31.2935V31.2861V31.2787V31.2713V31.2639V31.2565V31.2491V31.2416V31.2342V31.2267V31.2192V31.2117V31.2041V31.1966V31.189V31.1815V31.1739V31.1663V31.1586V31.151V31.1434V31.1357V31.128V31.1203V31.1126V31.1049V31.0971V31.0894V31.0816V31.0738V31.066V31.0582V31.0504V31.0425V31.0347V31.0268V31.0189V31.011V31.0031V30.9952V30.9872V30.9793V30.9713V30.9633V30.9553V30.9473V30.9392V30.9312V30.9231V30.915V30.907V30.8988V30.8907V30.8826V30.8744V30.8663V30.8581V30.8499V30.8417V30.8335V30.8252V30.817V30.8087V30.8004V30.7922V30.7838V30.7755V30.7672V30.7588V30.7505V30.7421V30.7337V30.7253V30.7169V30.7085V30.7V30.6916V30.6831V30.6746V30.6661V30.6576V30.649V30.6405V30.6319V30.6234V30.6148V30.6062V30.5976V30.589V30.5803V30.5717V30.563V30.5543V30.5456V30.5369V30.5282V30.5195V30.5107V30.502V30.4932V30.4844V30.4756V30.4668V30.4579V30.4491V30.4403V30.4314V30.4225V30.4136V30.4047V30.3958V30.3869V30.3779V30.3689V30.36V30.351V30.342V30.333V30.3239V30.3149V30.3059V30.2968V30.2877V30.2786V30.2695V30.2604V30.2513V30.2421V30.233V30.2238V30.2146V30.2055V30.1962V30.187V30.1778V30.1686V30.1593V30.15V30.1407V30.1315V30.1222V30.1128V30.1035V30.0942V30.0848V30.0754V30.0661V30.0567V30.0473V30.0378V30.0284V30.019V30.0095V30V29.9906V29.9811V29.9716V29.9621V29.9525V29.943V29.9334V29.9239V29.9143V29.9047V29.8951V29.8855V29.8759V29.8662V29.8566V29.8469V29.8372V29.8276V29.8179V29.8082V29.7984V29.7887V29.779V29.7692V29.7594V29.7497V29.7399V29.7301V29.7202V29.7104V29.7006V29.6907V29.6809V29.671V29.6611V29.6512V29.6413V29.6314V29.6215V29.6115V29.6016V29.5916V29.5816V29.5716V29.5616V29.5516V29.5416V29.5316V29.5215V29.5115V29.5014V29.4913V29.4813V29.4712V29.4611V29.4509V29.4408V29.4307V29.4205V29.4103V29.4002V29.39V29.3798V29.3696V29.3593V29.3491V29.3389V29.3286V29.3184V29.3081V29.2978V29.2875V29.2772V29.2669V29.2565V29.2462V29.2359V29.2255V29.2151V29.2047V29.1943V29.1839V29.1735V29.1631V29.1527V29.1422V29.1318V29.1213V29.1108V29.1003V29.0898V29.0793V29.0688V29.0583V29.0478V29.0372V29.0267V29.0161V29.0055V28.9949V28.9843V28.9737C50.6872 27.3902 49.9266 26.3524 49.6396 26.0924L49.6085 26.0641L49.5807 26.0326C48.6593 24.9874 46.9345 24.2632 45.0029 23.811C43.1048 23.3668 41.1598 23.2195 39.9626 23.2206L39.9618 23.2206H25.2849V31.8765ZM23.7849 18.3885V21.7206H14.2097L13.2834 20.952C15.221 20.061 17.2004 19.2396 18.4699 18.9222C19.7373 18.6054 21.757 18.437 23.7849 18.3885ZM28.0324 24.7866C27.6182 24.7866 27.2824 25.1224 27.2824 25.5366C27.2824 25.9508 27.6182 26.2866 28.0324 26.2866H31.0157C31.4299 26.2866 31.7657 25.9508 31.7657 25.5366C31.7657 25.1224 31.4299 24.7866 31.0157 24.7866H28.0324ZM15.4753 32.1265C15.4753 34.0595 13.9083 35.6265 11.9753 35.6265C10.0423 35.6265 8.47528 34.0595 8.47528 32.1265C8.47528 30.1935 10.0423 28.6265 11.9753 28.6265C13.9083 28.6265 15.4753 30.1935 15.4753 32.1265ZM47.4753 32.1265C47.4753 34.0595 45.9083 35.6265 43.9753 35.6265C42.0423 35.6265 40.4753 34.0595 40.4753 32.1265C40.4753 30.1935 42.0423 28.6265 43.9753 28.6265C45.9083 28.6265 47.4753 30.1935 47.4753 32.1265Z" fill="#7F94A8"/>
</svg>
