<svg width="54" height="54" viewBox="0 0 54 54" fill="none" xmlns="http://www.w3.org/2000/svg">
<path fill-rule="evenodd" clip-rule="evenodd" d="M5.85825 10.4041H5.10825V11.1541V26.1449H0.932617H0.182617V26.8949V30.5891V31.3391H0.932617H2.11001V33.2657H0.932617H0.182617V34.0157V39.9587V40.7087H0.932617H3.80557C4.09887 42.35 5.53359 43.5959 7.2593 43.5959C8.98502 43.5959 10.4197 42.35 10.713 40.7087H24.1869C24.9832 42.4141 26.7136 43.5959 28.72 43.5959C31.1241 43.5959 33.1319 41.8992 33.6113 39.6379H35.8942H39.7491H49.1722C49.5864 39.6379 49.9222 39.3021 49.9222 38.8879C49.9222 38.4736 49.5864 38.1379 49.1722 38.1379H40.4991V27.8586V27.1086H39.7491H36.6442V11.9572V11.2072H35.8942H32.6818H31.9318V11.9572V27.3047L28.2298 28.4437L26.2793 23.9627L20.5734 10.8547L20.3773 10.4041H19.8858H5.85825ZM33.6993 38.1379H35.1442V27.8586V12.7072H33.4318V27.8586V36.5856C33.4318 36.667 33.4189 36.7454 33.3949 36.8187C33.5531 37.2347 33.6574 37.6773 33.6993 38.1379ZM31.9318 34.7638V28.8741L28.8256 29.8298L29.0237 30.2955L30.566 33.9206C30.5706 33.9313 30.5749 33.9421 30.5789 33.9529C31.0739 34.1513 31.5298 34.4265 31.9318 34.7638ZM28.798 33.5965L27.9347 31.5672L23.3285 33.4824L23.1902 33.5399H23.0405H18.6427H5.85825H5.10825V32.7899V29.3577V27.6449H1.68262V29.8391H2.86001H3.61001V30.5891V34.0157V34.7657H2.86001H1.68262V39.2087H3.86167C4.25171 37.6962 5.62501 36.5788 7.2593 36.5788C8.89359 36.5788 10.2669 37.6962 10.6569 39.2087H23.7571C23.7326 39.0078 23.72 38.8034 23.72 38.5959C23.72 35.8345 25.9585 33.5959 28.72 33.5959C28.746 33.5959 28.772 33.5961 28.798 33.5965ZM23.5486 31.7664L27.3474 30.1869L27.122 29.6571L27.1196 29.6513L25.1931 25.2256L23.3158 25.9664L22.1551 26.4245L23.5486 31.7664ZM19.3943 11.9041L24.594 23.8495L23.2305 24.3875L20.424 21.4953L19.9281 20.9843L19.392 21.4531L18.149 22.5402C17.8372 22.8129 17.8055 23.2867 18.0781 23.5985C18.3508 23.9103 18.8246 23.942 19.1364 23.6693L19.8434 23.051L21.7191 24.9839L20.9863 25.2731L20.3682 25.517L20.5359 26.1601L22.0698 32.0399H19.0987L17.6138 29.1749V25.9707V25.2207H16.8638H13.6607V20.9305V20.1805H12.9107H9.64939H8.89939V20.9305V28.6077H6.60825V26.8949V11.9041H19.3943ZM16.4078 30.1077L17.4092 32.0399H6.60825V30.1077H9.64939H16.4078ZM16.1138 26.7207V28.6077H10.3994V21.6805H12.1607V25.9707V26.7207H12.9107H16.1138ZM38.9991 38.1379H36.6442V28.6086H38.9991V38.1379ZM28.72 42.0959C30.653 42.0959 32.22 40.5289 32.22 38.5959C32.22 36.6629 30.653 35.0959 28.72 35.0959C26.787 35.0959 25.22 36.6629 25.22 38.5959C25.22 40.5289 26.787 42.0959 28.72 42.0959ZM7.2593 42.0959C8.3686 42.0959 9.26787 41.1967 9.26787 40.0874C9.26787 38.9781 8.3686 38.0788 7.2593 38.0788C6.15 38.0788 5.25073 38.9781 5.25073 40.0874C5.25073 41.1967 6.15 42.0959 7.2593 42.0959Z" fill="#7F94A8"/>
</svg>
