<svg width="54" height="54" viewBox="0 0 54 54" fill="none" xmlns="http://www.w3.org/2000/svg">
<path fill-rule="evenodd" clip-rule="evenodd" d="M14.7924 8.51226L14.3758 8.23395L13.9592 8.51226L12.2131 9.6787L10.1535 9.26925L9.66214 9.17156L9.38374 9.58811L8.21694 11.334L6.15745 11.7439L5.66607 11.8416L5.56828 12.333L5.1584 14.3925L3.41254 15.5593L2.99598 15.8377L3.09368 16.3291L3.50313 18.3887L2.51208 19.8722H0.75H0V20.6222V25.1298V25.8798H0.75H3.44701V45.0161V45.7661H4.19701H8.79295H9.54295V45.0161V43.528L20.9196 39.0442L31.4446 43.5138V45.0161V45.7661H32.1946H36.8989H37.6489V45.0161V25.8798H39.9039H40.6539V25.1298V20.6222V19.8722H39.9039H37.6489V16.6242V15.8742H36.8989H33.9596H31.0203H27.8838H27.1338V16.6242V19.8722H26.2396L25.2485 18.3887L25.658 16.3291L25.7557 15.8377L25.3391 15.5593L23.5933 14.3925L23.1834 12.333L23.0856 11.8416L22.5942 11.7439L20.5347 11.334L19.3679 9.58811L19.0895 9.17156L18.5981 9.26925L16.5385 9.6787L14.7924 8.51226ZM24.4357 19.8722L23.8287 18.9637L23.6562 18.7054L23.7168 18.4008L24.0891 16.528L22.5016 15.4671L22.2433 15.2945L22.1827 14.9899L21.81 13.1172L19.9373 12.7445L19.6327 12.6839L19.4602 12.4257L18.3992 10.8382L16.5264 11.2105L16.2218 11.271L15.9636 11.0985L14.3758 10.0379L12.7881 11.0985L12.5298 11.271L12.2252 11.2105L10.3525 10.8382L9.29148 12.4257L9.11891 12.6839L8.81432 12.7445L6.94163 13.1172L6.56892 14.9899L6.5083 15.2945L6.25009 15.4671L4.66258 16.528L5.03489 18.4008L5.09545 18.7054L4.92293 18.9637L4.31598 19.8722H7.11385C7.4564 16.1628 10.5769 13.2583 14.3758 13.2583C18.1746 13.2583 21.2951 16.1628 21.6377 19.8722H24.4357ZM14.3758 14.7583C11.4061 14.7583 8.95828 16.9928 8.62203 19.8722H10.7021C11.0215 18.1335 12.5448 16.8161 14.3758 16.8161C16.2068 16.8161 17.7301 18.1335 18.0495 19.8722H20.1295C19.7932 16.9928 17.3455 14.7583 14.3758 14.7583ZM16.5061 19.8722C16.2186 18.9698 15.3735 18.3161 14.3758 18.3161C13.3781 18.3161 12.533 18.9698 12.2455 19.8722H16.5061ZM1.5 21.3722H27.1338V22.7434V23.4934H27.8838H31.0203H33.9596H36.8989H37.6489V22.7434V21.3722H39.1539V24.3798H36.8989H32.1946H8.79295H4.19701H1.5V21.3722ZM4.94701 44.2661V25.8798H8.04295V29.4899V33.1418V37.7196V43.0174V44.2661H4.94701ZM9.54295 28.7399V25.8798H31.4446V28.7399H28.0689H12.7519H9.54295ZM32.9446 29.4899V25.8798H36.1489V44.2661H32.9446V43.0174V37.7196V33.1418V29.4899ZM28.2229 30.2399H31.4446V32.6274L26.5917 34.5006L22.3445 32.7603L28.2229 30.2399ZM28.5695 35.345L31.4446 34.2352V36.5808L28.5695 35.345ZM26.2932 35.9993L31.4446 38.2135V41.8841L21.2233 37.5436L21.2233 37.5436L21.2176 37.5412L14.5797 34.7865L14.5738 34.7841L9.54295 32.6456V30.2399H12.5977L20.1087 33.4651L20.1087 33.4652L20.1203 33.47L26.2932 35.9993ZM9.54295 34.2755L12.3363 35.4628L9.54295 36.6033V34.2755ZM9.54295 41.9157V38.2235L14.284 36.2878L18.9302 38.216L9.54295 41.9157ZM20.4048 31.9598L16.3993 30.2399H24.4164L20.4048 31.9598ZM28.6338 20.6222V17.3742H30.2703V21.9934H28.6338V20.6222ZM31.7703 21.9934V17.3742H33.2096V21.9934H31.7703ZM34.7096 21.9934V17.3742H36.1489V20.6222V21.9934H34.7096Z" fill="#7F94A8"/>
</svg>
