<svg width="56" height="56" viewBox="0 0 56 56" fill="none" xmlns="http://www.w3.org/2000/svg">
<path fill-rule="evenodd" clip-rule="evenodd" d="M44.9984 12.2312C44.998 12.2201 44.9976 12.209 44.9968 12.198C44.9937 12.1541 44.9893 12.111 44.9806 12.0683C44.9806 12.0683 44.9806 12.0683 44.9806 12.0679C44.9719 12.0252 44.9597 11.983 44.9458 11.9418C44.9423 11.9316 44.9387 11.9213 44.9348 11.911C44.9202 11.8719 44.9036 11.8336 44.8846 11.7964C44.8834 11.7944 44.8826 11.7924 44.8814 11.7905C44.8609 11.7517 44.8372 11.715 44.8115 11.679C44.8051 11.6699 44.7984 11.6612 44.7917 11.6521C44.7644 11.6166 44.736 11.5822 44.704 11.5502L35.5479 2.39408C35.5159 2.36207 35.4815 2.33361 35.4459 2.30634C35.4368 2.29962 35.4277 2.29251 35.4186 2.28618C35.3827 2.26049 35.3463 2.23678 35.308 2.21662C35.3052 2.21504 35.3024 2.21425 35.3001 2.21267C35.2637 2.1937 35.2258 2.17749 35.1874 2.16287C35.1767 2.15892 35.1665 2.15536 35.1554 2.1518C35.1143 2.13797 35.0728 2.12572 35.0297 2.11702C35.0293 2.11702 35.0289 2.11702 35.0289 2.11702C34.9866 2.10872 34.9436 2.10398 34.9001 2.10082C34.889 2.10042 34.8779 2.09963 34.8669 2.09924C34.8554 2.09884 34.844 2.09766 34.8325 2.09766H11.9083C11.3494 2.09766 10.8965 2.5506 10.8965 3.10947V46.4173C10.8965 46.9761 11.3494 47.4291 11.9083 47.4291H27.1416V52.8905C27.1416 53.2584 27.3415 53.5976 27.6637 53.7758C27.9862 53.9541 28.3794 53.9434 28.6913 53.7478L32.5449 51.3301L36.3984 53.7478C36.5624 53.8505 36.7494 53.9023 36.9363 53.9023C37.1047 53.9023 37.2735 53.8604 37.426 53.7762C37.7482 53.598 37.9482 53.2588 37.9482 52.8905V47.4291H43.9882C44.547 47.4291 45 46.9761 45 46.4173V12.2655C45 12.2541 44.9988 12.2426 44.9984 12.2312ZM35.8443 5.55243L41.5456 11.2537H35.8443V5.55243ZM26.6424 33.3495C26.5712 33.1562 26.4554 32.8405 26.4527 32.7112C26.5317 32.6132 26.806 32.4397 26.974 32.3338C27.3344 32.1061 27.7431 31.8476 28.0395 31.4437C28.3387 31.0354 28.4605 30.5639 28.568 30.1481C28.615 29.9663 28.6909 29.6726 28.7557 29.5616C28.7913 29.554 28.866 29.5434 29.0063 29.5434C29.1189 29.5434 29.245 29.5497 29.3786 29.5564C29.532 29.5639 29.6901 29.5718 29.8553 29.5718C30.2197 29.5718 30.5137 29.5307 30.7805 29.4418C31.2465 29.2869 31.6192 28.9869 31.948 28.7221C32.1299 28.5758 32.4342 28.3308 32.5401 28.3158C32.6559 28.3308 32.9599 28.5758 33.1417 28.7221C33.4705 28.9869 33.8436 29.2869 34.3096 29.4418C34.5764 29.5307 34.87 29.5718 35.2348 29.5718C35.3997 29.5718 35.5581 29.5639 35.7111 29.5564C35.8447 29.5497 35.9708 29.5434 36.0838 29.5434C36.2241 29.5434 36.2984 29.5537 36.3344 29.5616C36.3992 29.6726 36.4751 29.9663 36.5217 30.1481C36.6292 30.5639 36.7514 31.0354 37.0506 31.4437C37.3466 31.8476 37.7553 32.1057 38.1161 32.3338C38.2837 32.4401 38.558 32.6132 38.6371 32.7112C38.6343 32.8405 38.5185 33.1562 38.4477 33.3495C38.2971 33.7594 38.1268 34.2242 38.1268 34.7392C38.1268 35.2542 38.2971 35.719 38.4473 36.1292C38.5185 36.3225 38.6343 36.6383 38.6371 36.7675C38.558 36.8656 38.2837 37.0387 38.1161 37.145C37.7553 37.3726 37.3466 37.6311 37.0506 38.0351C36.7514 38.4433 36.6292 38.9149 36.5217 39.3307C36.4751 39.5121 36.3988 39.8061 36.3344 39.9172C36.2984 39.9247 36.2241 39.9354 36.0838 39.9354C35.9708 39.9354 35.8447 39.929 35.7111 39.9223C35.5581 39.9148 35.3997 39.9069 35.2348 39.9069C34.87 39.9069 34.5764 39.948 34.3096 40.0369C33.8436 40.1919 33.4705 40.4923 33.1417 40.7567C32.9626 40.9013 32.6638 41.1412 32.5449 41.1626C32.4259 41.1412 32.1275 40.9013 31.9484 40.7567C31.6192 40.4923 31.2465 40.1919 30.7805 40.0369C30.5137 39.948 30.2197 39.9069 29.8553 39.9069C29.6904 39.9069 29.532 39.9148 29.3786 39.9223C29.2454 39.929 29.1193 39.9354 29.0063 39.9354C28.866 39.9354 28.7917 39.9247 28.7557 39.9172C28.6909 39.8061 28.615 39.5125 28.568 39.3307C28.4609 38.9149 28.3387 38.4433 28.0395 38.0351C27.7435 37.6311 27.3348 37.3726 26.974 37.145C26.8064 37.0391 26.5321 36.8656 26.4531 36.7675C26.4558 36.6387 26.5716 36.3225 26.6424 36.1292C26.793 35.7194 26.9633 35.2546 26.9633 34.7396C26.9633 34.2242 26.7926 33.7594 26.6424 33.3495ZM35.9245 51.0613L33.0828 49.2784C32.7539 49.0725 32.3358 49.0725 32.0069 49.2784L29.1652 51.0613V41.9558C29.2727 41.9527 29.3782 41.9487 29.4806 41.9436C29.6146 41.9365 29.741 41.9301 29.8553 41.9301C30.0347 41.9301 30.1114 41.9467 30.141 41.9566C30.2616 41.9969 30.4932 42.1835 30.6793 42.3333C31.1516 42.7135 31.7394 43.1866 32.5449 43.1866C33.3503 43.1866 33.9381 42.7135 34.4104 42.3333C34.5965 42.1835 34.8281 41.9969 34.9483 41.957C34.9783 41.9471 35.055 41.9305 35.2344 41.9305C35.3487 41.9305 35.4751 41.9369 35.6091 41.9436C35.7115 41.9487 35.817 41.9531 35.9241 41.9558V51.0613H35.9245ZM37.9482 45.4055V41.1404C38.2489 40.7318 38.3746 40.248 38.4809 39.837C38.5367 39.6212 38.6129 39.3259 38.6825 39.2315C38.7517 39.1366 39.009 38.9742 39.1967 38.8556C39.6947 38.541 40.3144 38.1493 40.5607 37.4086C40.8041 36.6778 40.5508 35.9873 40.3472 35.4324C40.2548 35.1807 40.15 34.8949 40.15 34.7392C40.15 34.5835 40.2548 34.2981 40.3472 34.0463C40.5508 33.4914 40.8041 32.8005 40.5607 32.0697C40.3144 31.3295 39.6947 30.9378 39.1967 30.6232C39.009 30.5046 38.7517 30.3418 38.6825 30.2477C38.6129 30.1528 38.5367 29.8576 38.4809 29.6418C38.3355 29.0786 38.1545 28.3774 37.5347 27.9229C37.0415 27.5617 36.4704 27.5198 36.0834 27.5198C35.9198 27.5198 35.7617 27.5277 35.6091 27.5356C35.4751 27.5423 35.3487 27.5486 35.2348 27.5486C35.055 27.5486 34.9783 27.532 34.9487 27.5221C34.8285 27.4822 34.5969 27.2957 34.4108 27.1455C33.9381 26.7656 33.3503 26.2925 32.5449 26.2925C31.7398 26.2925 31.1516 26.7656 30.6793 27.1455C30.4932 27.2953 30.2616 27.4822 30.1414 27.5221C30.1118 27.532 30.0347 27.5486 29.8553 27.5486C29.7414 27.5486 29.6146 27.5423 29.4806 27.5352C29.328 27.5277 29.1703 27.5198 29.0063 27.5198C28.6197 27.5198 28.0486 27.5617 27.5558 27.9229C26.9356 28.3774 26.7542 29.0786 26.6088 29.6418C26.553 29.8576 26.4768 30.1528 26.4076 30.2473C26.338 30.3418 26.0807 30.5046 25.893 30.6232C25.395 30.9378 24.7757 31.3295 24.529 32.0697C24.2856 32.8009 24.5389 33.4914 24.7425 34.0463C24.8349 34.2981 24.9397 34.5835 24.9397 34.7392C24.9397 34.8949 24.8349 35.1807 24.7425 35.4324C24.5389 35.9873 24.2856 36.6778 24.529 37.409C24.7757 38.1493 25.3954 38.541 25.893 38.8556C26.0811 38.9742 26.338 39.137 26.4076 39.2315C26.4768 39.3259 26.553 39.6212 26.6088 39.837C26.7151 40.248 26.8412 40.7322 27.142 41.1404V45.4055H12.9201V4.12127H33.8207V12.2655C33.8207 12.8244 34.2736 13.2774 34.8325 13.2774H42.9764V45.4055H37.9482Z" fill="url(#paint0_linear_3068_838)"/>
<path fill-rule="evenodd" clip-rule="evenodd" d="M16.8524 13.277H29.8882C30.4466 13.277 30.9 12.8241 30.9 12.2652C30.9 11.7064 30.4466 11.2534 29.8882 11.2534H16.8524C16.2935 11.2534 15.8406 11.7064 15.8406 12.2652C15.8406 12.8241 16.2939 13.277 16.8524 13.277Z" fill="url(#paint1_linear_3068_838)"/>
<path fill-rule="evenodd" clip-rule="evenodd" d="M39.1573 16.3608H16.8524C16.2935 16.3608 15.8406 16.8138 15.8406 17.3727C15.8406 17.9315 16.2935 18.3845 16.8524 18.3845H39.1573C39.7162 18.3845 40.1691 17.9315 40.1691 17.3727C40.1691 16.8138 39.7162 16.3608 39.1573 16.3608Z" fill="url(#paint2_linear_3068_838)"/>
<path fill-rule="evenodd" clip-rule="evenodd" d="M35.11 21.4683H16.8524C16.2935 21.4683 15.8406 21.9216 15.8406 22.4801C15.8406 23.0389 16.2935 23.4919 16.8524 23.4919H35.11C35.6689 23.4919 36.1219 23.0389 36.1219 22.4801C36.1219 21.9216 35.6689 21.4683 35.11 21.4683Z" fill="url(#paint3_linear_3068_838)"/>
<path fill-rule="evenodd" clip-rule="evenodd" d="M39.1572 21.4683C38.5999 21.4683 38.1454 21.9228 38.1454 22.4801C38.1454 23.0374 38.5999 23.4919 39.1572 23.4919C39.7149 23.4919 40.169 23.0374 40.169 22.4801C40.169 21.9228 39.7149 21.4683 39.1572 21.4683Z" fill="url(#paint4_linear_3068_838)"/>
<defs>
<linearGradient id="paint0_linear_3068_838" x1="17.9303" y1="53.9024" x2="49.4336" y2="47.4118" gradientUnits="userSpaceOnUse">
<stop stop-color="#FE5000"/>
<stop offset="1" stop-color="#FCA92A"/>
</linearGradient>
<linearGradient id="paint1_linear_3068_838" x1="18.9466" y1="13.277" x2="21.2039" y2="8.01975" gradientUnits="userSpaceOnUse">
<stop stop-color="#FE5000"/>
<stop offset="1" stop-color="#FCA92A"/>
</linearGradient>
<linearGradient id="paint2_linear_3068_838" x1="20.8583" y1="18.3845" x2="22.404" y2="12.5688" gradientUnits="userSpaceOnUse">
<stop stop-color="#FE5000"/>
<stop offset="1" stop-color="#FCA92A"/>
</linearGradient>
<linearGradient id="paint3_linear_3068_838" x1="20.0236" y1="23.4919" x2="21.8255" y2="17.8399" gradientUnits="userSpaceOnUse">
<stop stop-color="#FE5000"/>
<stop offset="1" stop-color="#FCA92A"/>
</linearGradient>
<linearGradient id="paint4_linear_3068_838" x1="38.5628" y1="23.4919" x2="40.3376" y2="22.9364" gradientUnits="userSpaceOnUse">
<stop stop-color="#FE5000"/>
<stop offset="1" stop-color="#FCA92A"/>
</linearGradient>
</defs>
</svg>
