<svg width="56" height="56" viewBox="0 0 56 56" fill="none" xmlns="http://www.w3.org/2000/svg">
<path d="M46.9637 11.9639H9.03641C6.23641 11.9639 4.07277 14.2548 4.07277 16.9275V38.9457C4.07277 41.7457 6.36368 43.9093 9.03641 43.9093H47.091C49.891 43.9093 52.0546 41.6184 52.0546 38.9457V17.0548C52.0546 14.2548 49.7637 11.9639 46.9637 11.9639ZM50.0182 38.9457C50.0182 40.6002 48.6182 42.0002 46.9637 42.0002H9.03641C7.38186 42.0002 5.98186 40.6002 5.98186 38.9457V17.0548C5.98186 15.4002 7.38186 14.0002 9.03641 14.0002H47.091C48.7455 14.0002 50.1455 15.4002 50.1455 17.0548L50.0182 38.9457ZM51.0364 17.9457H4.96368C4.45459 17.9457 4.07178 18.582 4.07178 19.0911V25.0729C4.07178 25.582 4.45459 25.9639 4.96368 25.9639H50.9092C51.4182 25.9639 52.0546 25.4291 52.0546 24.92L51.9273 18.9639C52.0546 18.4548 51.5455 17.9457 51.0364 17.9457ZM50.0182 24.0548H5.98186V20.1093H50.0182V24.0548ZM23.0364 31.9457H10.9455C10.4364 31.9457 9.92731 32.4548 9.92731 32.9639C9.92731 33.473 10.4364 33.982 10.9455 33.982H22.9091C23.4182 33.982 23.9273 33.473 23.9273 32.9639C23.9273 32.4548 23.5455 31.9457 23.0364 31.9457ZM23.0364 36.0184H10.9455C10.4364 36.0184 9.92731 36.5275 9.92731 37.0366C9.92731 37.5457 10.4364 38.0548 10.9455 38.0548H22.9091C23.4182 38.0548 23.9273 37.5457 23.9273 37.0366C24.0546 36.4002 23.5455 36.0184 23.0364 36.0184ZM43.0182 30.0366H40.9819C39.3273 30.0366 37.9273 31.4366 37.9273 33.0911V35.1275C37.9273 36.782 39.3273 38.182 40.9819 38.182H43.0182C44.6728 38.182 46.0728 36.782 46.0728 35.1275V33.0911C45.9455 31.3093 44.6728 30.0366 43.0182 30.0366ZM44.0364 35.0002C44.0364 35.5093 43.5273 36.0184 43.0182 36.0184H40.9819C40.4728 36.0184 39.9637 35.5093 39.9637 35.0002V32.9639C39.9637 32.4548 40.4728 31.9457 40.9819 31.9457H43.0182C43.5273 31.9457 44.0364 32.4548 44.0364 32.9639V35.0002Z" fill="url(#paint0_linear_3068_779)"/>
<defs>
<linearGradient id="paint0_linear_3068_779" x1="13.9682" y1="43.9093" x2="51.8116" y2="26.1198" gradientUnits="userSpaceOnUse">
<stop stop-color="#FE5000"/>
<stop offset="1" stop-color="#FCA92A"/>
</linearGradient>
</defs>
</svg>
