<svg width="56" height="56" viewBox="0 0 56 56" fill="none" xmlns="http://www.w3.org/2000/svg">
<path d="M42.7296 25.327L35.1272 15.824V8.22158C35.1272 6.02401 33.3454 4.24219 31.1478 4.24219H15.349C13.1514 4.24219 11.3696 6.02401 11.3696 8.22158V36.7307C11.3696 38.9282 13.1514 40.7101 15.349 40.7101H22.4763V42.7889C22.4763 47.7779 26.5151 51.8167 31.5042 51.8167H43.8581C44.2739 51.8167 44.6302 51.4604 44.6302 51.0446V30.8507C44.6302 28.8313 43.9769 26.8713 42.7296 25.327ZM31.1478 5.84582C32.4545 5.84582 33.5236 6.91491 33.5236 8.22158V29.0095L30.3757 25.624V5.84582H31.1478ZM28.7721 23.9016L27.406 22.4761C27.109 22.1792 26.7527 21.8822 26.3963 21.704V5.84582H28.7721V23.9016ZM12.9733 36.7307V8.22158C12.9733 6.91491 14.0424 5.84582 15.349 5.84582H24.8521V21.3476C23.9017 21.3476 22.9514 21.704 22.2981 22.3573L22.2387 22.4167C20.8727 23.7828 20.8133 25.921 22.0011 27.3464L24.8521 30.7319V39.1064H15.349C14.0424 39.1064 12.9733 38.0373 12.9733 36.7307ZM28.8908 39.1064H26.4557V32.6325L28.8314 35.424V37.8592C28.7721 38.2749 28.8314 38.6907 28.8908 39.1064ZM43.0266 50.1537H31.4448C27.3466 50.1537 24.0205 46.8276 24.0205 42.7295V40.6507H29.1878C30.0787 43.8579 32.4545 46.5307 35.6617 47.7185L36.1963 46.2337C32.6921 44.927 30.3757 41.5416 30.3757 37.8592V35.127C30.3757 34.9489 30.3163 34.7707 30.1975 34.5925L23.189 26.3367C22.4763 25.5052 22.5357 24.3173 23.3672 23.4858C23.783 23.1295 24.3175 22.8919 24.8521 22.8919C25.3866 22.8919 25.9211 23.1295 26.2775 23.5452L36.909 34.8301L38.0375 33.761L35.0678 30.6131V18.3779L41.423 26.3367C42.4327 27.584 42.9672 29.1876 42.9672 30.7913V50.1537H43.0266ZM16.8933 18.4967H15.2896V8.22158H16.8933V18.4967ZM20.8727 14.5173H19.269V8.22158H20.8727V14.5173ZM20.8727 30.3755H16.1211C15.7054 30.3755 15.349 30.7319 15.349 31.1476V35.8992C15.349 36.3149 15.7054 36.6713 16.1211 36.6713H20.8727C21.2884 36.6713 21.6448 36.3149 21.6448 35.8992V31.1476C21.6448 30.7319 21.2884 30.3755 20.8727 30.3755ZM20.1005 35.127H16.9527V31.9792H20.1005V35.127Z" fill="url(#paint0_linear_3068_830)"/>
<defs>
<linearGradient id="paint0_linear_3068_830" x1="18.2296" y1="51.8167" x2="48.7952" y2="45.1289" gradientUnits="userSpaceOnUse">
<stop stop-color="#FE5000"/>
<stop offset="1" stop-color="#FCA92A"/>
</linearGradient>
</defs>
</svg>
