<svg width="56" height="56" viewBox="0 0 56 56" fill="none" xmlns="http://www.w3.org/2000/svg">
<path d="M47.4925 25.2928C46.9247 25.2928 46.5462 25.6728 46.5462 26.2427V29.9476V35.5523V36.5023C46.5462 37.5472 45.6946 38.4022 44.6538 38.4022H42.7613C41.1527 38.4022 40.0172 39.6371 40.0172 41.1571V43.057C40.0172 44.1019 39.1656 44.9569 38.1247 44.9569H33.4882H10.3054C9.73764 44.9569 9.35915 44.5769 9.35915 44.0069V26.1477C9.35915 25.5778 8.98065 25.1978 8.41291 25.1978C7.84517 25.1978 7.46667 25.5778 7.46667 26.1477V43.9119C7.46667 45.5269 8.69678 46.6668 10.2108 46.6668H33.4882H38.1247H39.3548C40.585 46.6668 41.8151 46.1918 42.5721 45.2419L46.9247 40.8721C47.7764 40.0171 48.3441 38.7822 48.3441 37.6422V36.4073V35.4573V29.9476V26.1477C48.4387 25.5778 48.0602 25.2928 47.4925 25.2928ZM41.8151 43.627C41.8151 43.437 41.9097 43.247 41.9097 42.962V41.0621C41.9097 40.4921 42.2882 40.1121 42.8559 40.1121H44.7484C44.9376 40.1121 45.1269 40.1121 45.4108 40.0171L41.8151 43.627ZM45.6946 12.1834H39.1656V10.2835C39.1656 9.71348 38.7871 9.3335 38.2194 9.3335C37.6516 9.3335 37.2731 9.71348 37.2731 10.2835V12.1834H18.7269V10.2835C18.7269 9.71348 18.3484 9.3335 17.7807 9.3335C17.2129 9.3335 16.8344 9.71348 16.8344 10.2835V12.1834H10.3054C8.69678 12.1834 7.5613 13.4183 7.5613 14.9382V22.4429C7.5613 23.0129 7.93979 23.3929 8.50754 23.3929H47.5871C48.1548 23.3929 48.5333 23.0129 48.5333 22.4429V14.9382C48.4387 13.4183 47.2086 12.1834 45.6946 12.1834ZM46.5462 21.493H9.45377V14.9382C9.45377 14.3683 9.83227 13.9883 10.4 13.9883H16.929V16.1732C16.3613 16.4582 15.9828 17.1231 15.9828 17.7881C15.9828 18.8331 16.8344 19.688 17.8753 19.688C18.9161 19.688 19.7677 18.8331 19.7677 17.7881C19.7677 17.1231 19.3893 16.4582 18.8215 16.1732V13.9883H37.3678V16.1732C36.8 16.4582 36.4215 17.1231 36.4215 17.7881C36.4215 18.8331 37.2731 19.688 38.314 19.688C39.3548 19.688 40.2065 18.8331 40.2065 17.7881C40.2065 17.1231 39.828 16.4582 39.2602 16.1732V13.9883H45.7893C46.357 13.9883 46.7355 14.3683 46.7355 14.9382L46.5462 21.493ZM24.3097 30.8025C25.3505 30.8025 26.2022 29.9476 26.2022 28.9026C26.2022 27.8577 25.3505 27.0027 24.3097 27.0027C23.2688 27.0027 22.4172 27.8577 22.4172 28.9026C22.4172 30.0426 23.2688 30.8025 24.3097 30.8025ZM31.6903 30.8025C32.7312 30.8025 33.5828 29.9476 33.5828 28.9026C33.5828 27.8577 32.7312 27.0027 31.6903 27.0027C30.6495 27.0027 29.7979 27.8577 29.7979 28.9026C29.8925 30.0426 30.6495 30.8025 31.6903 30.8025ZM39.1656 30.8025C40.2065 30.8025 41.0581 29.9476 41.0581 28.9026C41.0581 27.8577 40.2065 27.0027 39.1656 27.0027C38.1247 27.0027 37.2731 27.8577 37.2731 28.9026C37.2731 30.0426 38.1247 30.8025 39.1656 30.8025ZM16.8344 39.2572C17.8753 39.2572 18.7269 38.4022 18.7269 37.3572C18.7269 36.3123 17.8753 35.4573 16.8344 35.4573C15.7936 35.4573 14.9419 36.3123 14.9419 37.3572C14.9419 38.4022 15.7936 39.2572 16.8344 39.2572ZM24.3097 39.2572C25.3505 39.2572 26.2022 38.4022 26.2022 37.3572C26.2022 36.3123 25.3505 35.4573 24.3097 35.4573C23.2688 35.4573 22.4172 36.3123 22.4172 37.3572C22.4172 38.4022 23.2688 39.2572 24.3097 39.2572ZM31.6903 39.2572C32.7312 39.2572 33.5828 38.4022 33.5828 37.3572C33.5828 36.3123 32.7312 35.4573 31.6903 35.4573C30.6495 35.4573 29.7979 36.3123 29.7979 37.3572C29.7979 38.4022 30.6495 39.2572 31.6903 39.2572Z" fill="url(#paint0_linear_3068_833)"/>
<defs>
<linearGradient id="paint0_linear_3068_833" x1="15.9367" y1="46.6668" x2="51.2923" y2="34.4952" gradientUnits="userSpaceOnUse">
<stop stop-color="#FE5000"/>
<stop offset="1" stop-color="#FCA92A"/>
</linearGradient>
</defs>
</svg>
