<svg width="56" height="56" viewBox="0 0 56 56" fill="none" xmlns="http://www.w3.org/2000/svg">
<path d="M46.9635 11.9636H9.03622C6.23622 11.9636 4.07259 14.2545 4.07259 16.9273V38.9454C4.07259 41.7454 6.36349 43.9091 9.03622 43.9091H47.0908C49.8908 43.9091 52.0544 41.6182 52.0544 38.9454V17.0545C52.0544 14.2545 49.7635 11.9636 46.9635 11.9636ZM50.018 38.9454C50.018 40.6 48.618 42 46.9635 42H9.03622C7.38168 42 5.98168 40.6 5.98168 38.9454V17.0545C5.98168 15.4 7.38168 14 9.03622 14H47.0908C48.7453 14 50.1453 15.4 50.1453 17.0545L50.018 38.9454ZM51.0362 17.9454H4.96349C4.4544 17.9454 3.94531 18.4545 3.94531 18.9636V24.9454C3.94531 25.4545 4.4544 25.9636 4.96349 25.9636H50.909C51.418 25.9636 51.9271 25.4545 51.9271 24.9454V18.9636C52.0544 18.4545 51.5453 17.9454 51.0362 17.9454ZM50.018 24.0545H5.98168V20.1091H50.018V24.0545ZM23.0362 31.9454H10.9453C10.4362 31.9454 9.92713 32.4545 9.92713 32.9636C9.92713 33.4727 10.4362 33.9818 10.9453 33.9818H22.9089C23.418 33.9818 23.9271 33.4727 23.9271 32.9636C23.9271 32.4545 23.5453 31.9454 23.0362 31.9454ZM23.0362 36.0182H10.9453C10.4362 36.0182 9.92713 36.5273 9.92713 37.0364C9.92713 37.5454 10.4362 38.0545 10.9453 38.0545H22.9089C23.418 38.0545 23.9271 37.5454 23.9271 37.0364C24.0544 36.4 23.5453 36.0182 23.0362 36.0182ZM43.018 30.0364H40.9817C39.3271 30.0364 37.9271 31.4363 37.9271 33.0909V35.1273C37.9271 36.7818 39.3271 38.1818 40.9817 38.1818H43.018C44.6726 38.1818 46.0726 36.7818 46.0726 35.1273V33.0909C45.9453 31.3091 44.6726 30.0364 43.018 30.0364ZM44.0362 35C44.0362 35.5091 43.5271 36.0182 43.018 36.0182H40.9817C40.4726 36.0182 39.9635 35.5091 39.9635 35V32.9636C39.9635 32.4545 40.4726 31.9454 40.9817 31.9454H43.018C43.5271 31.9454 44.0362 32.4545 44.0362 32.9636V35Z" fill="url(#paint0_linear_2865_697)"/>
<defs>
<linearGradient id="paint0_linear_2865_697" x1="3.94531" y1="43.9091" x2="33.3882" y2="-0.431155" gradientUnits="userSpaceOnUse">
<stop stop-color="#FE5000"/>
<stop offset="1" stop-color="#FE9800"/>
</linearGradient>
</defs>
</svg>
