<svg width="56" height="56" viewBox="0 0 56 56" fill="none" xmlns="http://www.w3.org/2000/svg">
<g clip-path="url(#clip0_2865_692)">
<path d="M29.3619 28C29.3619 34.16 28.3539 39.0507 26.3379 42.672C24.3592 46.256 21.2792 48.048 17.0979 48.048C12.8792 48.048 9.74319 46.2373 7.68986 42.616C5.63653 38.9947 4.60986 34.1227 4.60986 28C4.60986 21.8773 5.61786 17.0053 7.63386 13.384C9.68719 9.76266 12.8045 7.952 16.9859 7.952C21.1672 7.952 24.2659 9.76266 26.2819 13.384C28.3352 17.0053 29.3619 21.8773 29.3619 28ZM17.0979 45.304C23.2206 45.304 26.2819 39.536 26.2819 28C26.2819 16.464 23.1832 10.696 16.9859 10.696C10.7885 10.696 7.68986 16.464 7.68986 28C7.68986 39.536 10.8259 45.304 17.0979 45.304ZM37.5863 36.9488H33.8231V35.504H37.5863V24.08C38.5047 24.08 39.4567 24.0688 40.4423 24.0464C41.4279 24.024 42.3911 24.0128 43.3319 24.0128C48.9095 24.0128 51.6983 26.1744 51.6983 30.4976C51.6983 32.4912 50.9815 34.0704 49.5479 35.2352C48.1367 36.3776 46.0647 36.9488 43.3319 36.9488H39.4343V41.0816H45.5159V42.5264H39.4343V47.6H37.5863V42.5264H33.8231V41.0816H37.5863V36.9488ZM43.4999 25.76C42.7607 25.76 41.4055 25.7824 39.4343 25.8272V35.504H43.2647C45.3927 35.504 47.0055 35.0896 48.1031 34.2608C49.2007 33.4096 49.7495 32.2 49.7495 30.632C49.7495 27.384 47.6663 25.76 43.4999 25.76Z" fill="url(#paint0_linear_2865_692)"/>
</g>
<defs>
<linearGradient id="paint0_linear_2865_692" x1="4.60986" y1="48.048" x2="44.1933" y2="1.56145" gradientUnits="userSpaceOnUse">
<stop stop-color="#FE5000"/>
<stop offset="1" stop-color="#FE9800"/>
</linearGradient>
<clipPath id="clip0_2865_692">
<rect width="48.5333" height="41.0667" fill="white" transform="translate(3.7334 7.46667)"/>
</clipPath>
</defs>
</svg>
