<svg width="56" height="56" viewBox="0 0 56 56" fill="none" xmlns="http://www.w3.org/2000/svg">
<g clip-path="url(#clip0_2865_688)">
<path d="M42.4665 25.375L34.9998 16.0417V8.57499C34.9998 6.41666 33.2498 4.66666 31.0915 4.66666H15.5748C13.4165 4.66666 11.6665 6.41666 11.6665 8.57499V36.575C11.6665 38.7333 13.4165 40.4833 15.5748 40.4833H22.5748V42.525C22.5748 47.425 26.5415 51.3916 31.4415 51.3916H43.5748C43.9832 51.3916 44.3332 51.0417 44.3332 50.6333V30.8C44.3332 28.8167 43.6915 26.8917 42.4665 25.375ZM31.0915 6.24166C32.3748 6.24166 33.4248 7.29166 33.4248 8.57499V28.9917L30.3332 25.6667V6.24166H31.0915ZM28.7582 23.975L27.4165 22.575C27.1248 22.2833 26.7748 21.9917 26.4248 21.8167V6.24166H28.7582V23.975ZM13.2415 36.575V8.57499C13.2415 7.29166 14.2915 6.24166 15.5748 6.24166H24.9082V21.4667C23.9748 21.4667 23.0415 21.8167 22.3998 22.4583L22.3415 22.5167C20.9998 23.8583 20.9415 25.9583 22.1082 27.3583L24.9082 30.6833V38.9083H15.5748C14.2915 38.9083 13.2415 37.8583 13.2415 36.575ZM28.8748 38.9083H26.4832V32.55L28.8165 35.2917V37.6833C28.7582 38.0917 28.8165 38.5 28.8748 38.9083ZM42.7582 49.7583H31.3832C27.3582 49.7583 24.0915 46.4917 24.0915 42.4667V40.425H29.1665C30.0415 43.575 32.3748 46.2 35.5248 47.3666L36.0498 45.9083C32.6082 44.625 30.3332 41.3 30.3332 37.6833V35C30.3332 34.825 30.2748 34.65 30.1582 34.475L23.2748 26.3667C22.5748 25.55 22.6332 24.3833 23.4498 23.5667C23.8582 23.2167 24.3832 22.9833 24.9082 22.9833C25.4332 22.9833 25.9582 23.2167 26.3082 23.625L36.7498 34.7083L37.8582 33.6583L34.9415 30.5667V18.55L41.1832 26.3667C42.1748 27.5917 42.6998 29.1667 42.6998 30.7417V49.7583H42.7582ZM17.0915 18.6667H15.5165V8.57499H17.0915V18.6667ZM20.9998 14.7583H19.4248V8.57499H20.9998V14.7583ZM20.9998 30.3333H16.3332C15.9248 30.3333 15.5748 30.6833 15.5748 31.0917V35.7583C15.5748 36.1667 15.9248 36.5167 16.3332 36.5167H20.9998C21.4082 36.5167 21.7582 36.1667 21.7582 35.7583V31.0917C21.7582 30.6833 21.4082 30.3333 20.9998 30.3333ZM20.2415 35H17.1498V31.9083H20.2415V35Z" fill="url(#paint0_linear_2865_688)"/>
</g>
<defs>
<linearGradient id="paint0_linear_2865_688" x1="18.404" y1="51.3916" x2="48.4237" y2="44.8232" gradientUnits="userSpaceOnUse">
<stop stop-color="#FE5000"/>
<stop offset="1" stop-color="#FCA92A"/>
</linearGradient>
<clipPath id="clip0_2865_688">
<rect width="46.6667" height="46.6667" fill="white" transform="translate(4.6665 4.66666)"/>
</clipPath>
</defs>
</svg>
