<svg width="66" height="66" viewBox="0 0 66 66" fill="none" xmlns="http://www.w3.org/2000/svg">
<path d="M52.7919 9H13.2092C10.3384 9 8.00098 11.3375 8.00098 14.2083V49.6244C8.00098 52.4951 10.3384 54.8326 13.2092 54.8326H38.2087C38.7837 54.8326 39.2504 54.3659 39.2504 53.7909C39.2504 53.2159 38.7837 52.7492 38.2087 52.7492H13.2092C11.4863 52.7492 10.0842 51.3472 10.0842 49.6243V19.4165H55.9167V41.2911C55.9167 41.8661 56.3834 42.3328 56.9584 42.3328C57.5334 42.3328 58.0001 41.8661 58.0001 41.2911V14.2083C58.0001 11.3375 55.6626 9 52.7919 9ZM55.9168 17.3333H10.0842V14.2083C10.0842 12.4854 11.4863 11.0834 13.2092 11.0834H52.7918C54.5147 11.0834 55.9167 12.4854 55.9167 14.2083V17.3333H55.9168Z" fill="url(#paint0_linear_2861_1317)"/>
<path d="M13.2092 15.25C13.7845 15.25 14.2508 14.7836 14.2508 14.2083C14.2508 13.633 13.7845 13.1667 13.2092 13.1667C12.6339 13.1667 12.1675 13.633 12.1675 14.2083C12.1675 14.7836 12.6339 15.25 13.2092 15.25Z" fill="url(#paint1_linear_2861_1317)"/>
<path d="M17.3758 15.25C17.9511 15.25 18.4175 14.7836 18.4175 14.2083C18.4175 13.633 17.9511 13.1667 17.3758 13.1667C16.8005 13.1667 16.3341 13.633 16.3341 14.2083C16.3341 14.7836 16.8005 15.25 17.3758 15.25Z" fill="url(#paint2_linear_2861_1317)"/>
<path d="M21.5424 15.25C22.1177 15.25 22.5841 14.7836 22.5841 14.2083C22.5841 13.633 22.1177 13.1667 21.5424 13.1667C20.9671 13.1667 20.5007 13.633 20.5007 14.2083C20.5007 14.7836 20.9671 15.25 21.5424 15.25Z" fill="url(#paint3_linear_2861_1317)"/>
<path d="M57.6958 46.8034L43.1128 32.2204C42.8148 31.9246 42.369 31.835 41.9774 31.9954C41.5878 32.1558 41.3336 32.5371 41.3336 32.9579V53.7908C41.3336 54.2116 41.5878 54.5929 41.9774 54.7513C42.369 54.9158 42.8128 54.8263 43.1128 54.5263L46.269 51.3701L48.8252 56.3492C48.9522 56.5992 49.1752 56.7846 49.4397 56.8679C49.5418 56.8992 49.648 56.9159 49.7522 56.9159C49.921 56.9159 50.0877 56.8742 50.2418 56.7929L54.323 54.6242C54.8229 54.3597 55.0209 53.7409 54.7625 53.2347L52.4042 48.5827H56.9584C57.3792 48.5827 57.7604 48.3285 57.9208 47.939C58.0833 47.5492 57.9938 47.1014 57.6958 46.8034ZM50.7085 46.4993C50.346 46.4993 50.0105 46.6867 49.821 46.995C49.6314 47.3033 49.6147 47.6888 49.7793 48.0117L52.4417 53.2658L50.196 54.4596L47.469 49.1492C47.3169 48.8534 47.0335 48.6472 46.7044 48.595C46.6502 48.5867 46.5961 48.5825 46.5419 48.5825C46.269 48.5825 46.0024 48.6908 45.8044 48.8888L43.417 51.2762V35.4724L54.4438 46.4993H50.7085Z" fill="url(#paint4_linear_2861_1317)"/>
<defs>
<linearGradient id="paint0_linear_2861_1317" x1="8.00098" y1="54.8326" x2="53.6606" y2="5.02215" gradientUnits="userSpaceOnUse">
<stop stop-color="#FE5000"/>
<stop offset="1" stop-color="#FE9800"/>
</linearGradient>
<linearGradient id="paint1_linear_2861_1317" x1="12.1675" y1="15.25" x2="14.2508" y2="13.1667" gradientUnits="userSpaceOnUse">
<stop stop-color="#FE5000"/>
<stop offset="1" stop-color="#FE9800"/>
</linearGradient>
<linearGradient id="paint2_linear_2861_1317" x1="16.3341" y1="15.25" x2="18.4175" y2="13.1667" gradientUnits="userSpaceOnUse">
<stop stop-color="#FE5000"/>
<stop offset="1" stop-color="#FE9800"/>
</linearGradient>
<linearGradient id="paint3_linear_2861_1317" x1="20.5007" y1="15.25" x2="22.5841" y2="13.1667" gradientUnits="userSpaceOnUse">
<stop stop-color="#FE5000"/>
<stop offset="1" stop-color="#FE9800"/>
</linearGradient>
<linearGradient id="paint4_linear_2861_1317" x1="41.3336" y1="56.9159" x2="64.4104" y2="41.5302" gradientUnits="userSpaceOnUse">
<stop stop-color="#FE5000"/>
<stop offset="1" stop-color="#FE9800"/>
</linearGradient>
</defs>
</svg>
