<svg width="66" height="66" viewBox="0 0 66 66" fill="none" xmlns="http://www.w3.org/2000/svg">
<path fill-rule="evenodd" clip-rule="evenodd" d="M12.5565 55.3333H15.001C15.6757 55.3333 16.2232 54.7858 16.2232 54.1111C16.2232 53.4364 15.6757 52.8889 15.001 52.8889H12.5565C10.535 52.8889 8.88988 51.2438 8.88988 49.2222V10.1111C8.88988 8.08955 10.535 6.44444 12.5565 6.44444H41.8899C43.9114 6.44444 45.5565 8.08955 45.5565 10.1111C45.5565 10.7858 46.1041 11.3333 46.7788 11.3333C47.4534 11.3333 48.001 10.7858 48.001 10.1111C48.001 6.74022 45.2583 4 41.8899 4H12.5565C9.1881 4 6.44543 6.74022 6.44543 10.1111V49.2222C6.44543 52.5931 9.1881 55.3333 12.5565 55.3333ZM24.7788 62.6666H54.1121C57.4805 62.6666 60.2232 59.9264 60.2232 56.5555V19.8889C60.2232 16.518 57.4805 13.7777 54.1121 13.7777H24.7788C21.4103 13.7777 18.6676 16.518 18.6676 19.8889V56.5555C18.6676 59.9264 21.4103 62.6666 24.7788 62.6666ZM21.1121 19.8889C21.1121 17.8673 22.7572 16.2222 24.7788 16.2222H54.1121C56.1336 16.2222 57.7788 17.8673 57.7788 19.8889V56.5555C57.7788 58.5771 56.1336 60.2222 54.1121 60.2222H24.7788C22.7572 60.2222 21.1121 58.5771 21.1121 56.5555V19.8889ZM49.2232 45.5555H29.6677C28.993 45.5555 28.4454 45.008 28.4454 44.3333C28.4454 43.6586 28.993 43.1111 29.6677 43.1111H49.2232C49.8979 43.1111 50.4454 43.6586 50.4454 44.3333C50.4454 45.008 49.8979 45.5555 49.2232 45.5555ZM29.6677 55.3333H49.2232C49.8979 55.3333 50.4454 54.7857 50.4454 54.1111C50.4454 53.4364 49.8979 52.8888 49.2232 52.8888H29.6677C28.993 52.8888 28.4454 53.4364 28.4454 54.1111C28.4454 54.7857 28.993 55.3333 29.6677 55.3333ZM49.2232 35.7778H29.6677C28.993 35.7778 28.4454 35.2302 28.4454 34.5556C28.4454 33.8809 28.993 33.3333 29.6677 33.3333H49.2232C49.8979 33.3333 50.4454 33.8809 50.4454 34.5556C50.4454 35.2302 49.8979 35.7778 49.2232 35.7778ZM29.6677 26H49.2232C49.8979 26 50.4454 25.4525 50.4454 24.7778C50.4454 24.1032 49.8979 23.5556 49.2232 23.5556H29.6677C28.993 23.5556 28.4454 24.1032 28.4454 24.7778C28.4454 25.4525 28.993 26 29.6677 26Z" fill="url(#paint0_linear_2861_1303)"/>
<defs>
<linearGradient id="paint0_linear_2861_1303" x1="6.44543" y1="62.6666" x2="64.8907" y2="9.0918" gradientUnits="userSpaceOnUse">
<stop stop-color="#FE5000"/>
<stop offset="1" stop-color="#FE9800"/>
</linearGradient>
</defs>
</svg>
