<svg width="56" height="56" viewBox="0 0 56 56" fill="none" xmlns="http://www.w3.org/2000/svg">
<path d="M29.2825 28.5C29.2825 34.7989 28.2122 39.7998 26.0715 43.5028C23.9705 47.1676 20.7001 49 16.2602 49C11.7806 49 8.45073 47.1485 6.27044 43.4455C4.09014 39.7425 3 34.7607 3 28.5C3 22.2393 4.07032 17.2574 6.21097 13.5545C8.39127 9.85149 11.7013 8 16.1413 8C20.5811 8 23.8714 9.85149 26.012 13.5545C28.1923 17.2574 29.2825 22.2393 29.2825 28.5ZM16.2602 46.1941C22.7614 46.1941 26.012 40.2961 26.012 28.5C26.012 16.7039 22.7218 10.8059 16.1413 10.8059C9.5607 10.8059 6.27044 16.7039 6.27044 28.5C6.27044 40.2961 9.60034 46.1941 16.2602 46.1941ZM38.0154 37.6506H34.0196V36.1732H38.0154V24.4916C38.9906 24.4916 40.0015 24.4802 41.048 24.4573C42.0946 24.4344 43.1173 24.4229 44.1163 24.4229C50.0388 24.4229 53 26.6332 53 31.0539C53 33.0925 52.2389 34.7073 50.7166 35.8983C49.2182 37.0665 47.0181 37.6506 44.1163 37.6506H39.9777V41.8765H46.4353V43.3539H39.9777V48.5419H38.0154V43.3539H34.0196V41.8765H38.0154V37.6506ZM44.2947 26.2095C43.5098 26.2095 42.0708 26.2324 39.9777 26.2782V36.1732H44.0449C46.3045 36.1732 48.017 35.7494 49.1825 34.902C50.348 34.0316 50.9307 32.7947 50.9307 31.1913C50.9307 27.8701 48.7187 26.2095 44.2947 26.2095Z" fill="url(#paint0_linear_2867_1414)"/>
<defs>
<linearGradient id="paint0_linear_2867_1414" x1="13.3125" y1="49" x2="55.3389" y2="32.9599" gradientUnits="userSpaceOnUse">
<stop stop-color="#FE5000"/>
<stop offset="1" stop-color="#FCA92A"/>
</linearGradient>
</defs>
</svg>
