<svg width="56" height="56" viewBox="0 0 56 56" fill="none" xmlns="http://www.w3.org/2000/svg">
<path fill-rule="evenodd" clip-rule="evenodd" d="M45.3283 15.088C45.2971 15.088 45.2851 15.0687 45.2687 15.042C45.2585 15.0255 45.2465 15.0062 45.2272 14.9869C45.202 14.9617 45.1893 14.9364 45.1767 14.9111C45.1641 14.8858 45.1514 14.8606 45.1262 14.8353L36.4338 5.08166C36.4085 5.0564 36.3706 5.03113 36.3327 5.00586C36.2948 4.98059 36.2569 4.95532 36.2316 4.93005C36.2064 4.93005 36.1937 4.91742 36.1811 4.90478C36.1685 4.89215 36.1558 4.87952 36.1306 4.87952C36.0295 4.82898 35.8779 4.77844 35.7263 4.77844H14.3997C11.2664 4.77844 8.68896 7.35583 8.68896 10.4891V45.5113C8.68896 48.6446 11.2664 51.222 14.3997 51.222H39.6682C42.8015 51.222 45.3788 48.6446 45.3788 45.5113V15.4418C45.3788 15.3912 45.3662 15.328 45.3536 15.2649C45.3409 15.2017 45.3283 15.1385 45.3283 15.088ZM36.6865 8.21496L42.2961 14.5321H36.6865V8.21496ZM43.4584 45.4607C43.4584 47.5833 41.7907 49.3016 39.6682 49.3016H14.3997C12.2771 49.3016 10.6094 47.5833 10.6094 45.5113V10.4386C10.6094 8.31603 12.3276 6.64831 14.3997 6.64831H34.7661V15.4418C34.7661 15.9471 35.1704 16.402 35.7263 16.402H43.4584V45.4607ZM14.4821 30.8004C14.4821 30.3205 14.8711 29.9315 15.351 29.9315H38.7165C39.1965 29.9315 39.5855 30.3205 39.5855 30.8004C39.5855 31.2803 39.1965 31.6694 38.7165 31.6694H15.351C14.8711 31.6694 14.4821 31.2803 14.4821 30.8004ZM15.351 34.7588C14.8711 34.7588 14.4821 35.1479 14.4821 35.6278C14.4821 36.1077 14.8711 36.4968 15.351 36.4968H38.7165C39.1965 36.4968 39.5855 36.1077 39.5855 35.6278C39.5855 35.1479 39.1965 34.7588 38.7165 34.7588H15.351ZM14.4821 40.4552C14.4821 39.9752 14.8711 39.5862 15.351 39.5862H26.1648C26.6447 39.5862 27.0338 39.9752 27.0338 40.4552C27.0338 40.9351 26.6447 41.3241 26.1648 41.3241H15.351C14.8711 41.3241 14.4821 40.9351 14.4821 40.4552ZM15.351 25.1036C14.8711 25.1036 14.4821 25.4927 14.4821 25.9726C14.4821 26.4525 14.8711 26.8415 15.351 26.8415H26.1648C26.6447 26.8415 27.0338 26.4525 27.0338 25.9726C27.0338 25.4927 26.6447 25.1036 26.1648 25.1036H15.351Z" fill="url(#paint0_linear_2867_1416)"/>
<circle cx="44.8964" cy="34.2761" r="10.2345" fill="white" stroke="url(#paint1_linear_2867_1416)" stroke-width="1.73793"/>
<path d="M40.5518 34.7394L43.9155 37.8781L49.2414 31.8622" stroke="url(#paint2_linear_2867_1416)" stroke-width="1.73939" stroke-linecap="round" stroke-linejoin="round"/>
<defs>
<linearGradient id="paint0_linear_2867_1416" x1="16.2563" y1="51.222" x2="49.5521" y2="42.9899" gradientUnits="userSpaceOnUse">
<stop stop-color="#FE5000"/>
<stop offset="1" stop-color="#FCA92A"/>
</linearGradient>
<linearGradient id="paint1_linear_2867_1416" x1="24.6206" y1="48.2761" x2="51.3697" y2="43.3686" gradientUnits="userSpaceOnUse">
<stop stop-color="#FE5000"/>
<stop offset="1" stop-color="#FCA92A"/>
</linearGradient>
<linearGradient id="paint2_linear_2867_1416" x1="30.8966" y1="42.9656" x2="49.4159" y2="39.5253" gradientUnits="userSpaceOnUse">
<stop stop-color="#FE5000"/>
<stop offset="1" stop-color="#FCA92A"/>
</linearGradient>
</defs>
</svg>
