<svg width="56" height="56" viewBox="0 0 56 56" fill="none" xmlns="http://www.w3.org/2000/svg">
<path fill-rule="evenodd" clip-rule="evenodd" d="M16.935 15.1456C16.9153 15.4669 16.9053 15.7944 16.9053 16.1279C16.9053 16.4552 16.9149 16.7828 16.9339 17.1103C17.3502 24.2883 22.252 31.3565 28.2717 31.3565C34.566 31.3565 39.5094 23.6287 39.5094 16.1279C39.5094 8.62714 34.566 4.19379 28.2717 4.19379C22.2573 4.19379 17.3588 8.24162 16.935 15.1456ZM18.9026 17.1158C19.1008 20.1279 20.1867 23.1226 21.8255 25.4112C23.6577 27.9699 25.9735 29.3919 28.2717 29.3919C30.5635 29.3919 32.845 27.9769 34.6451 25.4231C36.4324 22.8874 37.5447 19.4762 37.5447 16.1279C37.5447 15.7073 37.5273 15.3003 37.4934 14.9069C36.139 15.1847 34.8279 14.8024 33.7708 14.254C33.0199 13.8644 32.347 13.3683 31.7962 12.8863C30.5284 15.097 27.9511 16.1181 25.4584 16.6076C23.2487 17.0416 20.8476 17.1108 18.9026 17.1158ZM37.1709 12.9642C36.7231 11.199 35.9005 9.78815 34.8538 8.7293C33.2378 7.09471 30.9499 6.15843 28.2717 6.15843C25.5909 6.15843 23.2649 7.09687 21.6143 8.74028C20.1391 10.2091 19.0995 12.3452 18.9035 15.1504C20.804 15.1454 23.0371 15.081 25.0798 14.6798C27.9541 14.1153 29.9762 12.9821 30.4905 10.9041C30.5793 10.5457 30.8615 10.2672 31.2212 10.1834C31.5809 10.0997 31.9572 10.2247 32.1952 10.5071C32.6607 11.0594 33.5857 11.9446 34.6755 12.51C35.5268 12.9517 36.3742 13.1506 37.1709 12.9642Z" fill="url(#paint0_linear_2867_1436)"/>
<path fill-rule="evenodd" clip-rule="evenodd" d="M38.7373 31.4437C37.8319 31.187 36.385 31.5662 35.0909 33.1249C34.3261 34.0462 32.8086 34.5975 30.851 34.8296C30.066 34.9227 29.2476 34.9603 28.4404 34.9603H28.4288C27.5894 34.9603 26.7531 34.9603 25.9202 34.908C23.9037 34.7813 22.0721 34.3543 20.6445 33.0318C19.9292 32.3692 19.3983 31.9169 18.8602 31.6713C18.2912 31.4117 17.7737 31.4123 17.2906 31.413C17.2669 31.413 17.2433 31.413 17.2198 31.413C15.246 31.413 8.55029 33.8027 6.0764 47.1102C5.9415 47.8358 5.92107 48.8283 6.57871 49.6404C7.24037 50.4574 8.35665 50.8082 9.80888 50.8082H46.7454C47.3437 50.8082 48.2681 50.6578 48.995 50.0957C49.3774 49.7999 49.7095 49.3846 49.8802 48.8318C50.0494 48.2838 50.0366 47.677 49.8605 47.0312C49.8021 46.8171 49.7327 46.5273 49.6488 46.1764C49.2732 44.607 48.6056 41.817 47.3207 39.1254C45.7479 35.831 43.1373 32.4253 38.7373 31.4437ZM38.1873 33.3373C38.0785 33.3414 37.4447 33.3654 36.6025 34.3799C35.3272 35.916 33.1381 36.5368 31.0824 36.7806C30.2035 36.8848 29.3055 36.9249 28.4404 36.9249H28.4023C27.5804 36.925 26.6918 36.925 25.797 36.8687C23.6156 36.7317 21.2317 36.2539 19.3094 34.473C18.5597 33.7786 18.2499 33.5524 18.0446 33.4587C17.898 33.3918 17.7922 33.3777 17.2198 33.3777C16.5044 33.3777 10.3729 34.7477 8.00795 47.4693C7.91262 47.982 7.98695 48.2576 8.1055 48.404C8.22003 48.5454 8.60223 48.8435 9.80888 48.8435H46.7455C47.1002 48.8435 47.5361 48.7403 47.793 48.5416C47.9025 48.457 47.9681 48.3651 48.003 48.2521C48.0393 48.1344 48.0656 47.9169 47.965 47.5482C47.8918 47.2795 47.8107 46.9423 47.7164 46.5505C47.332 44.9527 46.7292 42.4466 45.5477 39.9718C44.0812 36.8999 41.8367 34.1359 38.2805 33.3548C38.2514 33.3484 38.2226 33.3407 38.1943 33.3317C38.2093 33.3365 38.2064 33.3366 38.1873 33.3373Z" fill="url(#paint1_linear_2867_1436)"/>
<defs>
<linearGradient id="paint0_linear_2867_1436" x1="21.5674" y1="31.3565" x2="41.9517" y2="26.0476" gradientUnits="userSpaceOnUse">
<stop stop-color="#FE5000"/>
<stop offset="1" stop-color="#FCA92A"/>
</linearGradient>
<linearGradient id="paint1_linear_2867_1436" x1="15.0754" y1="50.8082" x2="43.2872" y2="30.8223" gradientUnits="userSpaceOnUse">
<stop stop-color="#FE5000"/>
<stop offset="1" stop-color="#FCA92A"/>
</linearGradient>
</defs>
</svg>
