<svg width="56" height="56" viewBox="0 0 56 56" fill="none" xmlns="http://www.w3.org/2000/svg">
<path d="M46.9632 11.9636H9.03592C6.23592 11.9636 4.07228 14.2545 4.07228 16.9273V38.9454C4.07228 41.7454 6.36319 43.9091 9.03592 43.9091H47.0905C49.8905 43.9091 52.0541 41.6182 52.0541 38.9454V17.0545C52.0541 14.2545 49.7632 11.9636 46.9632 11.9636ZM50.0178 38.9454C50.0178 40.6 48.6178 42 46.9632 42H9.03592C7.38137 42 5.98137 40.6 5.98137 38.9454V17.0545C5.98137 15.4 7.38137 14 9.03592 14H47.0905C48.745 14 50.145 15.4 50.145 17.0545L50.0178 38.9454ZM51.0359 17.9454H4.96319C4.4541 17.9454 4.07129 18.5818 4.07129 19.0909V25.0727C4.07129 25.5818 4.4541 25.9636 4.96319 25.9636H50.9087C51.4178 25.9636 52.0541 25.4289 52.0541 24.9198L51.9268 18.9636C52.0541 18.4545 51.545 17.9454 51.0359 17.9454ZM50.0178 24.0545H5.98137V20.1091H50.0178V24.0545ZM23.0359 31.9454H10.945C10.4359 31.9454 9.92683 32.4545 9.92683 32.9636C9.92683 33.4727 10.4359 33.9818 10.945 33.9818H22.9086C23.4177 33.9818 23.9268 33.4727 23.9268 32.9636C23.9268 32.4545 23.545 31.9454 23.0359 31.9454ZM23.0359 36.0182H10.945C10.4359 36.0182 9.92683 36.5273 9.92683 37.0364C9.92683 37.5454 10.4359 38.0545 10.945 38.0545H22.9086C23.4177 38.0545 23.9268 37.5454 23.9268 37.0364C24.0541 36.4 23.545 36.0182 23.0359 36.0182ZM43.0177 30.0364H40.9814C39.3268 30.0364 37.9268 31.4363 37.9268 33.0909V35.1273C37.9268 36.7818 39.3268 38.1818 40.9814 38.1818H43.0177C44.6723 38.1818 46.0723 36.7818 46.0723 35.1273V33.0909C45.945 31.3091 44.6723 30.0364 43.0177 30.0364ZM44.0359 35C44.0359 35.5091 43.5268 36.0182 43.0177 36.0182H40.9814C40.4723 36.0182 39.9632 35.5091 39.9632 35V32.9636C39.9632 32.4545 40.4723 31.9454 40.9814 31.9454H43.0177C43.5268 31.9454 44.0359 32.4545 44.0359 32.9636V35Z" fill="url(#paint0_linear_2867_1412)"/>
<defs>
<linearGradient id="paint0_linear_2867_1412" x1="13.9677" y1="43.9091" x2="51.8111" y2="26.1196" gradientUnits="userSpaceOnUse">
<stop stop-color="#FE5000"/>
<stop offset="1" stop-color="#FCA92A"/>
</linearGradient>
</defs>
</svg>
