<svg width="56" height="56" viewBox="0 0 56 56" fill="none" xmlns="http://www.w3.org/2000/svg">
<path fill-rule="evenodd" clip-rule="evenodd" d="M8 11.3682C8 6.74649 11.7467 2.99982 16.3684 2.99982H39.6316C44.2533 2.99982 48 6.74649 48 11.3682V53.9998V54.9998H47H9H8V53.9998V11.3682ZM16.3684 4.99982C12.8512 4.99982 10 7.85106 10 11.3682V52.9998H46V11.3682C46 7.85106 43.1488 4.99982 39.6316 4.99982H16.3684ZM12.9158 11.8547C12.9158 9.55841 14.7774 7.69685 17.0737 7.69685H26.5474C28.8437 7.69685 30.7053 9.5584 30.7053 11.8547V21.3284C30.7053 23.6248 28.8437 25.4863 26.5474 25.4863H17.0737C14.7774 25.4863 12.9158 23.6248 12.9158 21.3284V11.8547ZM17.0737 9.69685C15.8819 9.69685 14.9158 10.663 14.9158 11.8547V21.3284C14.9158 22.5202 15.8819 23.4863 17.0737 23.4863H26.5474C27.7392 23.4863 28.7053 22.5202 28.7053 21.3284V11.8547C28.7053 10.663 27.7392 9.69685 26.5474 9.69685H17.0737ZM18.4983 13.6349C18.4983 13.2063 18.8457 12.8589 19.2743 12.8589C19.7029 12.8589 20.0504 13.2063 20.0504 13.6349C20.0504 14.0635 19.7029 14.411 19.2743 14.411C18.8457 14.411 18.4983 14.0635 18.4983 13.6349ZM19.2743 10.8589C17.7411 10.8589 16.4983 12.1017 16.4983 13.6349C16.4983 15.1681 17.7411 16.411 19.2743 16.411C20.8075 16.411 22.0504 15.1681 22.0504 13.6349C22.0504 12.1017 20.8075 10.8589 19.2743 10.8589ZM19.2743 19.1464C18.8457 19.1464 18.4983 19.4938 18.4983 19.9224C18.4983 20.351 18.8457 20.6985 19.2743 20.6985C19.7029 20.6985 20.0504 20.351 20.0504 19.9224C20.0504 19.4938 19.7029 19.1464 19.2743 19.1464ZM16.4983 19.9224C16.4983 18.3893 17.7411 17.1464 19.2743 17.1464C20.8075 17.1464 22.0504 18.3893 22.0504 19.9224C22.0504 21.4556 20.8075 22.6985 19.2743 22.6985C17.7411 22.6985 16.4983 21.4556 16.4983 19.9224ZM24.1335 16.5918C24.1335 16.1632 24.481 15.8158 24.9096 15.8158C25.3382 15.8158 25.6856 16.1632 25.6856 16.5918C25.6856 17.0205 25.3382 17.3679 24.9096 17.3679C24.481 17.3679 24.1335 17.0205 24.1335 16.5918ZM24.9096 13.8158C23.3764 13.8158 22.1335 15.0587 22.1335 16.5918C22.1335 18.125 23.3764 19.3679 24.9096 19.3679C26.4428 19.3679 27.6856 18.125 27.6856 16.5918C27.6856 15.0587 26.4428 13.8158 24.9096 13.8158Z" fill="url(#paint0_linear_4288_3265)"/>
<rect x="33.1992" y="8.10791" width="9.71582" height="20.8979" rx="2.5" fill="url(#paint1_linear_4288_3265)"/>
<defs>
<linearGradient id="paint0_linear_4288_3265" x1="16.25" y1="54.9998" x2="52.6585" y2="46.2347" gradientUnits="userSpaceOnUse">
<stop stop-color="#FE5000"/>
<stop offset="1" stop-color="#FCA92A"/>
</linearGradient>
<linearGradient id="paint1_linear_4288_3265" x1="11.5532" y1="46.8093" x2="49.4361" y2="38.7463" gradientUnits="userSpaceOnUse">
<stop stop-color="#FE5000"/>
<stop offset="1" stop-color="#FE9800"/>
</linearGradient>
</defs>
</svg>
