<svg width="56" height="56" viewBox="0 0 56 56" fill="none" xmlns="http://www.w3.org/2000/svg">
<path d="M31.636 16.5631V13.4491C31.636 7.47083 7.99902 7.47083 7.99902 13.4491V31.6632C7.99902 34.0133 11.6778 35.4783 16.1034 35.9992C14.4847 36.7251 13.4537 37.7058 13.4537 38.9488V44.413C13.4537 47.4022 19.3993 48.9665 25.2723 48.9665C31.1452 48.9665 37.0908 47.4021 37.0908 44.413V41.6658C42.6524 41.5129 48.0002 39.9622 48.0002 37.1274V20.7348C48.0001 16.9606 38.5826 15.572 31.636 16.5631ZM19.8176 10.7836C26.2879 10.7836 29.8178 12.5849 29.8178 13.511C29.8178 14.437 26.2879 16.2383 19.8176 16.2383C13.3473 16.2383 9.81731 14.437 9.81731 13.511C9.81723 12.585 13.3472 10.7836 19.8176 10.7836ZM9.81723 16.0408C12.0232 17.3685 15.9308 18.0566 19.8175 18.0566C23.7042 18.0566 27.6118 17.3685 29.8178 16.0408V16.9443C26.6584 17.6449 24.3631 18.9245 24.3631 20.784V21.3218C22.9383 21.5504 21.4004 21.693 19.8176 21.693C13.3472 21.693 9.81731 19.8917 9.81731 18.9657V16.0408H9.81723ZM26.1813 34.2231C26.3543 34.3272 26.5343 34.4284 26.7276 34.5245C26.5456 34.5169 26.364 34.5095 26.1813 34.5047V34.2231ZM9.81723 21.4955C12.0232 22.8232 15.9308 23.5113 19.8175 23.5113C21.3912 23.5113 22.9208 23.37 24.363 23.1545V27.6857C22.9382 27.9143 21.4003 28.0569 19.8175 28.0569C13.3471 28.0569 9.81723 26.2555 9.81723 25.3295V21.4955ZM9.81723 31.6933V27.8594C12.0232 29.1871 15.9308 29.8751 19.8175 29.8751C21.3912 29.8751 22.9208 29.7338 24.363 29.5184V34.0495C22.9382 34.2781 21.4003 34.4207 19.8175 34.4207C13.3472 34.4207 9.81723 32.6193 9.81723 31.6933ZM35.2725 44.421C35.2725 45.347 31.7426 47.1483 25.2723 47.1483C18.802 47.1483 15.2719 45.347 15.2719 44.421V41.496C17.4779 42.8237 21.3854 43.5118 25.2722 43.5118C28.9926 43.5118 32.7372 42.883 34.9859 41.665C35.0803 41.6685 35.1776 41.669 35.2724 41.6719V44.421H35.2725ZM25.2723 41.6936C18.8019 41.6936 15.272 39.8923 15.272 38.9663C15.272 38.0402 18.802 36.2389 25.2723 36.2389C31.7426 36.2389 35.2725 38.0402 35.2725 38.9663C35.2725 39.8923 31.7426 41.6936 25.2723 41.6936ZM46.1819 37.148C46.1819 38.028 42.9606 39.6801 37.0907 39.8439V38.9663C37.0907 37.8304 36.2312 36.9123 34.8447 36.2088C35.2892 36.2268 35.7351 36.2389 36.1816 36.2389C40.0683 36.2389 43.9759 35.5508 46.1818 34.2231V37.148H46.1819ZM46.1819 31.6933C46.1819 32.6194 42.652 34.4207 36.1817 34.4207C29.7114 34.4207 26.1814 32.6194 26.1814 31.6933V28.7684C28.3873 30.0961 32.2949 30.7842 36.1817 30.7842C40.0684 30.7842 43.976 30.0961 46.1819 28.7684V31.6933ZM46.1819 26.2387C46.1819 27.1647 42.652 28.966 36.1817 28.966C29.7114 28.966 26.1814 27.1647 26.1814 26.2387V23.3137C28.3873 24.6414 32.2949 25.3295 36.1817 25.3295C40.0684 25.3295 43.976 24.6414 46.1819 23.3137V26.2387ZM36.1817 23.5113C29.7113 23.5113 26.1814 21.71 26.1814 20.784C26.1814 19.8579 29.7114 18.0566 36.1817 18.0566C42.652 18.0566 46.1819 19.8579 46.1819 20.784C46.1819 21.71 42.652 23.5113 36.1817 23.5113Z" fill="url(#paint0_linear_3625_617)"/>
<defs>
<linearGradient id="paint0_linear_3625_617" x1="16.2493" y1="48.9665" x2="51.3327" y2="37.9865" gradientUnits="userSpaceOnUse">
<stop stop-color="#FE5000"/>
<stop offset="1" stop-color="#FCA92A"/>
</linearGradient>
</defs>
</svg>
