<svg width="56" height="56" viewBox="0 0 56 56" fill="none" xmlns="http://www.w3.org/2000/svg">
<path d="M45.3278 15.088C45.2773 15.088 45.2773 15.0375 45.2267 14.9869C45.1762 14.9364 45.1762 14.8858 45.1257 14.8353L36.4333 5.08166C36.3828 5.03113 36.2817 4.98059 36.2312 4.93005C36.1806 4.93005 36.1806 4.87952 36.1301 4.87952C36.029 4.82898 35.8774 4.77844 35.7258 4.77844H14.3992C11.2659 4.77844 8.68848 7.35583 8.68848 10.4891V45.5113C8.68848 48.6446 11.2659 51.222 14.3992 51.222H39.6677C42.801 51.222 45.3784 48.6446 45.3784 45.5113V15.4418C45.3784 15.3407 45.3278 15.1891 45.3278 15.088ZM36.686 8.21496L42.2956 14.5321H36.686V8.21496ZM43.458 45.4607C43.458 47.5833 41.7902 49.3016 39.6677 49.3016H14.3992C12.2766 49.3016 10.6089 47.5833 10.6089 45.5113V10.4386C10.6089 8.31603 12.3271 6.64831 14.3992 6.64831H34.7656V15.4418C34.7656 15.9471 35.1699 16.402 35.7258 16.402H43.458V45.4607Z" fill="url(#paint0_linear_2867_1446)"/>
<path d="M26.6561 20.1018C26.7806 19.7436 27.2872 19.7436 27.4117 20.1018L29.3944 25.8057C29.4493 25.9637 29.5968 26.0709 29.764 26.0743L35.8014 26.1973C36.1806 26.205 36.3371 26.6869 36.0349 26.916L31.2229 30.5642C31.0896 30.6653 31.0333 30.8386 31.0817 30.9988L32.8303 36.7786C32.9402 37.1416 32.5303 37.4394 32.219 37.2228L27.2624 33.7737C27.125 33.6781 26.9427 33.6781 26.8054 33.7737L21.8488 37.2228C21.5375 37.4394 21.1276 37.1416 21.2374 36.7786L22.9861 30.9988C23.0345 30.8386 22.9782 30.6653 22.8449 30.5642L18.0329 26.916C17.7307 26.6869 17.8872 26.205 18.2664 26.1973L24.3037 26.0743C24.471 26.0709 24.6185 25.9637 24.6734 25.8057L26.6561 20.1018Z" stroke="url(#paint1_linear_2867_1446)" stroke-width="1.6"/>
<defs>
<linearGradient id="paint0_linear_2867_1446" x1="16.2558" y1="51.222" x2="49.5516" y2="42.9899" gradientUnits="userSpaceOnUse">
<stop stop-color="#FE5000"/>
<stop offset="1" stop-color="#FCA92A"/>
</linearGradient>
<linearGradient id="paint1_linear_2867_1446" x1="20.9072" y1="39.8717" x2="39.1999" y2="34.1467" gradientUnits="userSpaceOnUse">
<stop stop-color="#FE5000"/>
<stop offset="1" stop-color="#FCA92A"/>
</linearGradient>
</defs>
</svg>
