<svg width="56" height="56" viewBox="0 0 56 56" fill="none" xmlns="http://www.w3.org/2000/svg">
<path fill-rule="evenodd" clip-rule="evenodd" d="M43.9 2.99998C43.9 2.50292 43.4971 2.09998 43 2.09998C42.5029 2.09998 42.1 2.50292 42.1 2.99998V7.09998H38C37.5029 7.09998 37.1 7.50292 37.1 7.99998C37.1 8.49703 37.5029 8.89998 38 8.89998H42.1V13C42.1 13.497 42.5029 13.9 43 13.9C43.4971 13.9 43.9 13.497 43.9 13V8.89998H48C48.4971 8.89998 48.9 8.49703 48.9 7.99998C48.9 7.50292 48.4971 7.09998 48 7.09998H43.9V2.99998ZM31.636 13.4491V16.5631C38.5826 15.572 48.0001 16.9606 48.0002 20.7348V37.1274C48.0002 39.9623 42.6524 41.5129 37.0908 41.6658V44.413C37.0908 47.4021 31.1452 48.9665 25.2723 48.9665C19.3993 48.9665 13.4537 47.4022 13.4537 44.413V38.9488C13.4537 37.7058 14.4847 36.7252 16.1034 35.9992C11.6778 35.4783 7.99902 34.0133 7.99902 31.6632V13.4491C7.99902 7.47084 31.636 7.47084 31.636 13.4491ZM29.8178 13.511C29.8178 12.585 26.2879 10.7836 19.8176 10.7836C13.3472 10.7836 9.81723 12.585 9.81731 13.511C9.81731 14.437 13.3473 16.2383 19.8176 16.2383C26.2879 16.2383 29.8178 14.437 29.8178 13.511ZM9.81731 16.0409V18.9657C9.81731 19.8917 13.3472 21.693 19.8176 21.693C21.4004 21.693 22.9383 21.5504 24.3631 21.3219V20.784C24.3631 18.9245 26.6584 17.645 29.8178 16.9443V16.0409C27.6118 17.3686 23.7042 18.0566 19.8175 18.0566C15.9308 18.0566 12.0233 17.3686 9.81731 16.0409ZM26.7276 34.5245C26.5343 34.4284 26.3543 34.3272 26.1813 34.2232V34.5047C26.364 34.5095 26.5456 34.5169 26.7276 34.5245ZM19.8175 23.5113C15.9308 23.5113 12.0232 22.8233 9.81723 21.4956V25.3295C9.81723 26.2555 13.3471 28.0569 19.8175 28.0569C21.4003 28.0569 22.9382 27.9143 24.363 27.6857V23.1545C22.9208 23.37 21.3912 23.5113 19.8175 23.5113ZM9.81723 27.8594V31.6934C9.81723 32.6193 13.3472 34.4207 19.8175 34.4207C21.4003 34.4207 22.9382 34.2781 24.363 34.0495V29.5184C22.9208 29.7338 21.3912 29.8752 19.8175 29.8752C15.9308 29.8752 12.0232 29.1871 9.81723 27.8594ZM25.2723 47.1483C31.7426 47.1483 35.2725 45.347 35.2725 44.421H35.2724V41.6719C35.2307 41.6706 35.1885 41.6698 35.1463 41.669C35.0926 41.668 35.0388 41.667 34.9859 41.665C32.7372 42.883 28.9926 43.5118 25.2722 43.5118C21.3854 43.5118 17.4779 42.8238 15.2719 41.4961V44.421C15.2719 45.347 18.802 47.1483 25.2723 47.1483ZM15.272 38.9663C15.272 39.8923 18.8019 41.6936 25.2723 41.6936C31.7426 41.6936 35.2725 39.8923 35.2725 38.9663C35.2725 38.0402 31.7426 36.2389 25.2723 36.2389C18.802 36.2389 15.272 38.0402 15.272 38.9663ZM37.0907 39.8439C42.9606 39.6801 46.1819 38.028 46.1819 37.1481H46.1818V34.2232C43.9759 35.5509 40.0683 36.2389 36.1816 36.2389C35.7351 36.2389 35.2892 36.2268 34.8447 36.2088C36.2312 36.9123 37.0907 37.8304 37.0907 38.9663V39.8439ZM36.1817 34.4207C42.652 34.4207 46.1819 32.6194 46.1819 31.6934V28.7685C43.976 30.0962 40.0684 30.7842 36.1817 30.7842C32.2949 30.7842 28.3873 30.0962 26.1814 28.7685V31.6934C26.1814 32.6194 29.7114 34.4207 36.1817 34.4207ZM36.1817 28.966C42.652 28.966 46.1819 27.1647 46.1819 26.2387V23.3138C43.976 24.6415 40.0684 25.3295 36.1817 25.3295C32.2949 25.3295 28.3873 24.6415 26.1814 23.3138V26.2387C26.1814 27.1647 29.7114 28.966 36.1817 28.966ZM26.1814 20.784C26.1814 21.71 29.7113 23.5113 36.1817 23.5113C42.652 23.5113 46.1819 21.71 46.1819 20.784C46.1819 19.8579 42.652 18.0566 36.1817 18.0566C29.7114 18.0566 26.1814 19.8579 26.1814 20.784Z" fill="url(#paint0_linear_3104_756)"/>
<defs>
<linearGradient id="paint0_linear_3104_756" x1="16.4349" y1="48.9665" x2="53.0869" y2="38.9558" gradientUnits="userSpaceOnUse">
<stop stop-color="#FE5000"/>
<stop offset="1" stop-color="#FCA92A"/>
</linearGradient>
</defs>
</svg>
