<svg width="56" height="56" viewBox="0 0 56 56" fill="none" xmlns="http://www.w3.org/2000/svg">
<path fill-rule="evenodd" clip-rule="evenodd" d="M17.4141 16.6786C17.4141 16.3612 17.4236 16.0496 17.4424 15.7438C17.8456 9.17411 22.5069 5.32227 28.2301 5.32227C34.2197 5.32227 38.9237 9.54097 38.9237 16.6786C38.9237 23.8162 34.2197 31.1698 28.2301 31.1698C22.5019 31.1698 17.8374 24.4438 17.4413 17.6133C17.4232 17.3018 17.4141 16.99 17.4141 16.6786ZM22.096 25.5124C20.5366 23.3346 19.5033 20.4849 19.3147 17.6186C21.1655 17.6138 23.4504 17.548 25.553 17.1351C27.9251 16.6692 30.3776 15.6976 31.584 13.5939C32.1081 14.0525 32.7484 14.5247 33.463 14.8953C34.4689 15.4172 35.7165 15.7811 37.0053 15.5167C37.0375 15.891 37.0542 16.2783 37.0542 16.6786C37.0542 19.8647 35.9957 23.1108 34.2949 25.5237C32.582 27.9539 30.411 29.3003 28.2301 29.3003C26.0432 29.3003 23.8395 27.9471 22.096 25.5124ZM34.4935 9.63818C35.4896 10.6458 36.2724 11.9883 36.6985 13.6681C35.9403 13.8454 35.1339 13.6561 34.3239 13.2359C33.2868 12.6978 32.4066 11.8554 31.9636 11.3299C31.7372 11.0612 31.3791 10.9422 31.0368 11.0219C30.6946 11.1016 30.426 11.3666 30.3415 11.7077C29.8521 13.6851 27.9279 14.7634 25.1927 15.3006C23.249 15.6823 21.124 15.7436 19.3155 15.7484C19.5021 13.079 20.4913 11.0463 21.8951 9.64863C23.4657 8.08479 25.6791 7.19179 28.2301 7.19179C30.7787 7.19179 32.9558 8.08273 34.4935 9.63818ZM34.7473 32.8525C35.9787 31.3692 37.3556 31.0085 38.2172 31.2527C42.4041 32.1868 44.8884 35.4276 46.3849 38.5624C47.6077 41.1237 48.243 43.7786 48.6003 45.2721L48.6004 45.2724C48.6803 45.6061 48.7462 45.8818 48.8018 46.0855C48.9694 46.7 48.9816 47.2774 48.8205 47.7989C48.6581 48.3249 48.3421 48.7202 47.9782 49.0016C47.2865 49.5365 46.4069 49.6796 45.8376 49.6796H10.6894C9.30751 49.6796 8.24528 49.3458 7.61566 48.5683C6.98985 47.7956 7.00929 46.8511 7.13767 46.1606C9.49178 33.4975 15.8633 31.2235 17.7415 31.2235L17.8089 31.2235C18.2686 31.2229 18.761 31.2222 19.3025 31.4693C19.8146 31.703 20.3198 32.1334 21.0004 32.7639C22.3589 34.0223 24.1018 34.4286 26.0206 34.5492C26.8132 34.599 27.609 34.599 28.4078 34.599H28.4188C29.1869 34.599 29.9658 34.5633 30.7127 34.4747C32.5755 34.2538 34.0196 33.7291 34.7473 32.8525ZM36.1858 34.0467C36.9872 33.0813 37.5903 33.0585 37.6938 33.0546C37.7119 33.0539 37.7147 33.0538 37.7004 33.0493C37.7274 33.0579 37.7548 33.0652 37.7825 33.0713C41.1665 33.8146 43.3023 36.4447 44.6978 39.3679C45.8221 41.7228 46.3958 44.1076 46.7615 45.628C46.8512 46.0009 46.9284 46.3217 46.9981 46.5774C47.0938 46.9283 47.0688 47.1353 47.0342 47.2473C47.001 47.3548 46.9386 47.4422 46.8344 47.5228C46.5899 47.7118 46.1751 47.8101 45.8376 47.81H33.6498L31.7942 40.175L32.9306 39.3731C33.3056 39.1085 33.4331 38.6108 33.2313 38.1985L32.2162 36.1238C33.7535 35.8013 35.236 35.1908 36.1858 34.0467ZM30.1519 41.3338L31.7258 47.81H24.8849L26.5429 41.2871L27.901 42.1909C28.2224 42.4048 28.6423 42.399 28.9578 42.1764L30.1519 41.3338ZM24.8929 40.1892L22.9559 47.81H10.6894C9.5412 47.81 9.17751 47.5263 9.06852 47.3918C8.95572 47.2525 8.88498 46.9903 8.9757 46.5023C11.2262 34.3967 17.0607 33.093 17.7415 33.093C18.2862 33.093 18.3869 33.1065 18.5264 33.1701C18.7217 33.2593 19.0166 33.4745 19.7299 34.1353C21.1394 35.4411 22.8096 36.0106 24.4515 36.263L23.391 38.1517C23.1516 38.578 23.2812 39.1167 23.6882 39.3876L24.8929 40.1892ZM25.4455 38.3113L26.4938 36.4443C27.1434 36.4686 27.7817 36.4686 28.3825 36.4685H28.3826H28.4188C29.0251 36.4685 29.6483 36.4478 30.2687 36.3973L31.202 38.3048L28.4033 40.2795L25.4455 38.3113Z" fill="url(#paint0_linear_3104_740)"/>
<defs>
<linearGradient id="paint0_linear_3104_740" x1="15.701" y1="49.6796" x2="52.7835" y2="38.7249" gradientUnits="userSpaceOnUse">
<stop stop-color="#FE5000"/>
<stop offset="1" stop-color="#FCA92A"/>
</linearGradient>
</defs>
</svg>
