<svg width="56" height="56" viewBox="0 0 56 56" fill="none" xmlns="http://www.w3.org/2000/svg">
<path d="M49.7447 17.4548L37.8441 5.26958C37.6709 5.09885 37.4429 5 37.1967 5H19.469C17.481 5 15.8669 6.59055 15.8669 8.54054V20.9234H8.69016C7.20373 20.9234 6 22.1096 6 23.5743V36.8468C6 38.3116 7.20373 39.4978 8.69016 39.4978H15.8761V47.4595C15.8761 49.4095 17.4902 51 19.4781 51H46.3979C48.3859 51 50 49.4095 50 47.4595V18.0658C49.9909 17.8322 49.8997 17.6165 49.7447 17.4548ZM37.4247 7.39031L47.1913 17.3919H37.4247V7.39031ZM8.69016 37.7365C8.19772 37.7365 7.79648 37.3411 7.79648 36.8558V23.5743C7.79648 23.0891 8.19772 22.6937 8.69016 22.6937H32.938C33.4305 22.6937 33.8317 23.0891 33.8317 23.5743V36.8468C33.8317 37.3321 33.4305 37.7275 32.938 37.7275H8.69016V37.7365ZM48.1944 47.4685C48.1944 48.439 47.3828 49.2387 46.3888 49.2387H19.469C18.475 49.2387 17.6634 48.4479 17.6634 47.4685V39.5067H32.9289C34.4153 39.5067 35.6191 38.3206 35.6191 36.8558V23.5743C35.6191 22.1096 34.4153 20.9234 32.9289 20.9234H17.6725V8.54054C17.6725 7.56105 18.4841 6.76128 19.4781 6.76128H35.6373V18.2635C35.6373 18.7488 36.0386 19.1442 36.531 19.1442H48.2035L48.1944 47.4685ZM16.7333 27.4563C16.4323 27.0789 16.0676 26.8273 15.6207 26.7105C15.3289 26.6386 14.7179 26.5937 13.7695 26.5937H11.2709V34.1959H12.8303V31.3294H13.8425C14.5447 31.3294 15.0827 31.2934 15.4566 31.2215C15.7302 31.1586 16.0037 31.0418 16.2682 30.8621C16.5326 30.6824 16.7515 30.4307 16.9248 30.1162C17.098 29.8017 17.1801 29.4063 17.1801 28.9391C17.1801 28.328 17.0342 27.8338 16.7333 27.4563ZM15.4019 29.5501C15.2833 29.7208 15.1192 29.8466 14.9185 29.9275C14.7179 30.0084 14.2984 30.0443 13.6875 30.0443H12.8394V27.8877H13.5872C14.1525 27.8877 14.5173 27.9056 14.7088 27.9416C14.9641 27.9865 15.1739 28.1033 15.338 28.2831C15.5022 28.4628 15.5842 28.6874 15.5842 28.966C15.5751 29.1817 15.5113 29.3794 15.4019 29.5501ZM24.6669 28.6785C24.5028 28.1932 24.2566 27.7798 23.9283 27.4474C23.6 27.1149 23.217 26.8812 22.761 26.7464C22.4236 26.6476 21.9312 26.6027 21.2928 26.6027H18.4477V34.2049H21.3749C21.9494 34.2049 22.4054 34.151 22.7519 34.0432C23.2079 33.8994 23.5726 33.6927 23.8462 33.4321C24.2019 33.0906 24.4754 32.6413 24.6761 32.0932C24.8311 31.6439 24.9132 31.1047 24.9132 30.4757C24.9132 29.7568 24.8311 29.1637 24.6669 28.6785ZM23.1532 31.7966C23.0437 32.1381 22.9161 32.3807 22.7428 32.5335C22.5787 32.6863 22.3689 32.7851 22.1136 32.848C21.9221 32.8929 21.6029 32.9199 21.1743 32.9199H20.007V27.8877H20.7092C21.3476 27.8877 21.767 27.9146 21.9859 27.9596C22.2777 28.0225 22.5148 28.1393 22.7063 28.319C22.8978 28.4987 23.0437 28.7414 23.144 29.0559C23.2535 29.3704 23.2991 29.8197 23.2991 30.4128C23.3082 30.9879 23.2535 31.4552 23.1532 31.7966ZM31.5337 27.8877V26.6027H26.2446V34.2049H27.8039V30.9699H31.023V29.6849H27.8039V27.8877H31.5337Z" fill="url(#paint0_linear_3104_738)"/>
<defs>
<linearGradient id="paint0_linear_3104_738" x1="15.075" y1="51" x2="53.9607" y2="39.3592" gradientUnits="userSpaceOnUse">
<stop stop-color="#FE5000"/>
<stop offset="1" stop-color="#FCA92A"/>
</linearGradient>
</defs>
</svg>
