<svg width="56" height="56" viewBox="0 0 56 56" fill="none" xmlns="http://www.w3.org/2000/svg">
<path fill-rule="evenodd" clip-rule="evenodd" d="M44.8917 15.3093C44.9078 15.3354 44.9195 15.3543 44.9501 15.3543C44.9501 15.4038 44.9624 15.4657 44.9748 15.5275C44.9872 15.5894 44.9996 15.6513 44.9996 15.7008V45.1501C44.9996 48.2188 42.4753 50.743 39.4067 50.743H14.6593C11.5906 50.743 9.06641 48.2188 9.06641 45.1501V10.8503C9.06641 7.78162 11.5906 5.25739 14.6593 5.25739H35.5461C35.6946 5.25739 35.8431 5.30688 35.942 5.35637C35.9668 5.35637 35.9792 5.36875 35.9915 5.38112C36.0039 5.3935 36.0163 5.40587 36.041 5.40587C36.0658 5.43062 36.1029 5.45536 36.14 5.48011C36.1771 5.50486 36.2143 5.52961 36.239 5.55435L44.7521 15.1068C44.7768 15.1316 44.7892 15.1563 44.8016 15.1811C44.814 15.2058 44.8263 15.2306 44.8511 15.2553C44.87 15.2742 44.8817 15.2931 44.8917 15.3093ZM41.9804 14.8099L36.4865 8.62302V14.8099H41.9804ZM39.4067 48.8622C41.4854 48.8622 43.1188 47.1794 43.1188 45.1006V16.6412H35.5461C35.0016 16.6412 34.6057 16.1957 34.6057 15.7008V7.08869H14.6593C12.63 7.08869 10.9472 8.72201 10.9472 10.8008V45.1501C10.9472 47.1794 12.5805 48.8622 14.6593 48.8622H39.4067ZM35.6394 25.8124C36.0539 25.3683 36.0299 24.6722 35.5858 24.2577C35.1417 23.8432 34.4456 23.8672 34.0311 24.3113L25.6317 33.3106L20.8853 28.9876C20.4362 28.5785 19.7405 28.6109 19.3314 29.0601C18.9223 29.5092 18.9548 30.2049 19.4039 30.614L24.9537 35.6689L25.7571 36.4006L26.4986 35.6062L35.6394 25.8124Z" fill="url(#paint0_linear_3104_744)"/>
<defs>
<linearGradient id="paint0_linear_3104_744" x1="16.4776" y1="50.743" x2="49.0867" y2="42.6807" gradientUnits="userSpaceOnUse">
<stop stop-color="#FE5000"/>
<stop offset="1" stop-color="#FCA92A"/>
</linearGradient>
</defs>
</svg>
