<svg width="66" height="66" viewBox="0 0 66 66" fill="none" xmlns="http://www.w3.org/2000/svg">
<g clip-path="url(#clip0_3101_1378)">
<path fill-rule="evenodd" clip-rule="evenodd" d="M55.3905 19.2681L58.6311 16.0276C59.0154 15.6433 59.2272 15.1323 59.2272 14.5888C59.2272 14.0454 59.0154 13.5344 58.6312 13.1501L57.1211 11.64C56.3278 10.8468 55.0371 10.8468 54.2438 11.64L51.0031 14.8806C46.7168 11.4208 41.5795 9.29285 36.1024 8.70852V6.20464H38.3756C39.4773 6.20464 40.3736 5.30836 40.3736 4.2066V3.0293C40.3736 1.35893 39.0147 0 37.3443 0H28.656C26.9857 0 25.6267 1.35893 25.6267 3.0293V4.2066C25.6267 5.30836 26.523 6.20464 27.6248 6.20464H29.8979V8.70865C23.3973 9.40229 17.3739 12.2687 12.686 16.9567C7.25979 22.3829 4.27148 29.5974 4.27148 37.271C4.27148 44.2036 6.77472 50.8982 11.3201 56.1215L14.1599 58.9603C19.3819 63.4999 26.0728 66 33.0002 66C40.6738 66 47.8883 63.0117 53.3145 57.5855C58.7407 52.1593 61.729 44.9448 61.729 37.2712C61.729 30.6411 59.4967 24.3553 55.3905 19.2681ZM6.20508 37.2709C6.20508 43.737 8.53957 49.9808 12.7788 54.8522L15.4286 57.5011C20.2985 61.7348 26.5389 64.0664 33.0002 64.0664C47.7752 64.0664 59.7955 52.0459 59.7955 37.2709C59.7955 22.4959 47.7753 10.4756 33.0003 10.4756C18.2253 10.4756 6.20508 22.4959 6.20508 37.2709ZM55.7538 13.0073C55.7147 12.9681 55.6507 12.9678 55.611 13.0074L52.4704 16.1482C52.756 16.412 53.0381 16.6803 53.3146 16.9568C53.591 17.2332 53.8594 17.5155 54.1231 17.8011L57.2639 14.6602C57.2837 14.6405 57.2936 14.6166 57.2936 14.5888C57.2936 14.561 57.2835 14.537 57.2639 14.5174L55.7538 13.0073ZM27.5603 3.0293V4.2066C27.5603 4.24218 27.5892 4.27105 27.6248 4.27105H38.3756C38.411 4.27105 38.44 4.24218 38.44 4.2066V3.0293C38.44 2.42511 37.9484 1.93359 37.3443 1.93359H28.656C28.0519 1.93359 27.5603 2.42511 27.5603 3.0293ZM31.8315 6.20464V8.56737C32.2199 8.5519 32.6092 8.54223 33.0003 8.5421C33.3912 8.5421 33.7806 8.5519 34.169 8.56737V6.20464H31.8315Z" fill="url(#paint0_linear_3101_1378)"/>
<path fill-rule="evenodd" clip-rule="evenodd" d="M48.8528 18.6461C44.4377 14.8848 38.8079 12.8133 32.9998 12.8133C19.5137 12.8133 8.54199 23.785 8.54199 37.271C8.54199 50.7571 19.5137 61.7289 32.9998 61.7289C46.4858 61.7289 57.4575 50.7572 57.4575 37.2712C57.4575 31.4503 55.3779 25.8106 51.6016 21.3911L48.8528 18.6461ZM55.5239 37.2712C55.5239 31.9103 53.6089 26.7168 50.1315 22.6471L47.5988 20.118C43.5333 16.6544 38.3486 14.7469 32.9998 14.7469C20.5798 14.7469 10.4756 24.8512 10.4756 37.271C10.4756 49.6909 20.5799 59.7953 32.9998 59.7953C45.4196 59.7953 55.5239 49.691 55.5239 37.2712Z" fill="url(#paint1_linear_3101_1378)"/>
<path d="M33.9668 20.1868V18.0512C33.9668 17.5172 33.5341 17.0844 33 17.0844C32.4659 17.0844 32.0332 17.5172 32.0332 18.0512V20.1868C32.0332 20.7207 32.4659 21.1536 33 21.1536C33.5341 21.1536 33.9668 20.7207 33.9668 20.1868Z" fill="url(#paint2_linear_3101_1378)"/>
<path d="M32.0332 54.3555V56.4911C32.0332 57.025 32.4659 57.4579 33 57.4579C33.5341 57.4579 33.9668 57.025 33.9668 56.4911V54.3555C33.9668 53.8216 33.5341 53.3887 33 53.3887C32.4659 53.3887 32.0332 53.8214 32.0332 54.3555Z" fill="url(#paint3_linear_3101_1378)"/>
<path d="M50.0848 38.2378H52.2204C52.7545 38.2378 53.1872 37.8049 53.1872 37.271C53.1872 36.7371 52.7545 36.3042 52.2204 36.3042H50.085C49.5509 36.3042 49.1182 36.7371 49.1182 37.271C49.1182 37.8049 49.5509 38.2378 50.0848 38.2378Z" fill="url(#paint4_linear_3101_1378)"/>
<path d="M13.7803 36.3042C13.2462 36.3042 12.8135 36.7371 12.8135 37.271C12.8135 37.8049 13.2462 38.2378 13.7803 38.2378H15.9157C16.4498 38.2378 16.8825 37.8049 16.8825 37.271C16.8825 36.7371 16.4498 36.3042 15.9157 36.3042H13.7803Z" fill="url(#paint5_linear_3101_1378)"/>
<path d="M21.6029 24.507L20.0927 22.9969C19.7153 22.6192 19.1031 22.6193 18.7255 22.9969C18.348 23.3744 18.348 23.9866 18.7257 24.364L20.2358 25.874C20.4245 26.0629 20.672 26.1573 20.9194 26.1573C21.1668 26.1573 21.4143 26.0629 21.6031 25.874C21.9806 25.4966 21.9806 24.8846 21.6029 24.507Z" fill="url(#paint6_linear_3101_1378)"/>
<path d="M45.7647 48.6679C45.3873 48.2902 44.7751 48.2903 44.3974 48.6679C44.0199 49.0455 44.0198 49.6577 44.3975 50.0351L45.9077 51.5451C46.0964 51.734 46.3439 51.8283 46.5913 51.8283C46.8387 51.8283 47.0862 51.734 47.275 51.5451C47.6526 51.1675 47.6526 50.5554 47.2749 50.1779L45.7647 48.6679Z" fill="url(#paint7_linear_3101_1378)"/>
<path d="M20.2358 48.6679L18.7257 50.1779C18.348 50.5555 18.348 51.1675 18.7255 51.5451C18.9144 51.7339 19.1618 51.8283 19.4093 51.8283C19.6566 51.8283 19.9041 51.7339 20.0928 51.5451L21.603 50.0351C21.9807 49.6575 21.9807 49.0455 21.6031 48.6679C21.2255 48.2905 20.6134 48.2904 20.2358 48.6679Z" fill="url(#paint8_linear_3101_1378)"/>
<path d="M47.2748 22.9969C46.8973 22.6193 46.2851 22.6192 45.9077 22.9969L44.3975 24.5069C44.0198 24.8844 44.0199 25.4965 44.3974 25.8742C44.5863 26.063 44.8336 26.1574 45.0811 26.1574C45.3285 26.1574 45.576 26.063 45.7647 25.8742L47.2748 24.3642C47.6524 23.9866 47.6524 23.3746 47.2748 22.9969Z" fill="url(#paint9_linear_3101_1378)"/>
<path d="M35.3361 40.9748C35.525 41.1637 35.7723 41.2581 36.0198 41.2581C36.2672 41.2581 36.5147 41.1637 36.7034 40.9748C37.0811 40.5973 37.0811 39.9852 36.7036 39.6077L35.7667 38.6706C36.3541 37.5069 36.1644 36.0482 35.1936 35.0774C34.2226 34.1066 32.7639 33.9168 31.6002 34.5043L24.6231 27.5271C24.2456 27.1495 23.6335 27.1495 23.2558 27.5271C22.8783 27.9047 22.8783 28.5168 23.2558 28.8943L30.233 35.8716C29.6456 37.0352 29.8353 38.4939 30.806 39.4647C31.4108 40.0695 32.2053 40.372 32.9998 40.372C33.4805 40.372 33.9606 40.2593 34.3994 40.0378L35.3361 40.9748ZM32.1733 38.0975C31.9525 37.8768 31.8309 37.5833 31.8309 37.2711C31.8309 36.9589 31.9525 36.6654 32.1733 36.4447C32.394 36.224 32.6875 36.1023 32.9997 36.1023C33.3119 36.1023 33.6054 36.2239 33.8261 36.4447C34.0469 36.6654 34.1685 36.9589 34.1685 37.2711C34.1685 37.5833 34.0469 37.8768 33.8261 38.0975C33.6054 38.3182 33.3119 38.4399 32.9997 38.4399C32.6875 38.4399 32.394 38.3183 32.1733 38.0975Z" fill="url(#paint10_linear_3101_1378)"/>
</g>
<defs>
<linearGradient id="paint0_linear_3101_1378" x1="16.1221" y1="66" x2="67.6283" y2="51.9667" gradientUnits="userSpaceOnUse">
<stop stop-color="#FE5000"/>
<stop offset="1" stop-color="#FCA92A"/>
</linearGradient>
<linearGradient id="paint1_linear_3101_1378" x1="18.6308" y1="61.7289" x2="61.5327" y2="48.3021" gradientUnits="userSpaceOnUse">
<stop stop-color="#FE5000"/>
<stop offset="1" stop-color="#FCA92A"/>
</linearGradient>
<linearGradient id="paint2_linear_3101_1378" x1="32.432" y1="21.1536" x2="34.2537" y2="20.8826" gradientUnits="userSpaceOnUse">
<stop stop-color="#FE5000"/>
<stop offset="1" stop-color="#FCA92A"/>
</linearGradient>
<linearGradient id="paint3_linear_3101_1378" x1="32.432" y1="57.4579" x2="34.2537" y2="57.187" gradientUnits="userSpaceOnUse">
<stop stop-color="#FE5000"/>
<stop offset="1" stop-color="#FCA92A"/>
</linearGradient>
<linearGradient id="paint4_linear_3101_1378" x1="49.9574" y1="38.2378" x2="52.6903" y2="36.4379" gradientUnits="userSpaceOnUse">
<stop stop-color="#FE5000"/>
<stop offset="1" stop-color="#FCA92A"/>
</linearGradient>
<linearGradient id="paint5_linear_3101_1378" x1="13.6527" y1="38.2378" x2="16.3856" y2="36.4379" gradientUnits="userSpaceOnUse">
<stop stop-color="#FE5000"/>
<stop offset="1" stop-color="#FCA92A"/>
</linearGradient>
<linearGradient id="paint6_linear_3101_1378" x1="19.1527" y1="26.1573" x2="22.173" y2="25.2119" gradientUnits="userSpaceOnUse">
<stop stop-color="#FE5000"/>
<stop offset="1" stop-color="#FCA92A"/>
</linearGradient>
<linearGradient id="paint7_linear_3101_1378" x1="44.8246" y1="51.8283" x2="47.845" y2="50.8829" gradientUnits="userSpaceOnUse">
<stop stop-color="#FE5000"/>
<stop offset="1" stop-color="#FCA92A"/>
</linearGradient>
<linearGradient id="paint8_linear_3101_1378" x1="19.1527" y1="51.8283" x2="22.1731" y2="50.8829" gradientUnits="userSpaceOnUse">
<stop stop-color="#FE5000"/>
<stop offset="1" stop-color="#FCA92A"/>
</linearGradient>
<linearGradient id="paint9_linear_3101_1378" x1="44.8245" y1="26.1574" x2="47.8449" y2="25.2121" gradientUnits="userSpaceOnUse">
<stop stop-color="#FE5000"/>
<stop offset="1" stop-color="#FCA92A"/>
</linearGradient>
<linearGradient id="paint10_linear_3101_1378" x1="25.8631" y1="41.2581" x2="38.1543" y2="37.4113" gradientUnits="userSpaceOnUse">
<stop stop-color="#FE5000"/>
<stop offset="1" stop-color="#FCA92A"/>
</linearGradient>
<clipPath id="clip0_3101_1378">
<rect width="66" height="66" fill="white"/>
</clipPath>
</defs>
</svg>
