<svg width="66" height="66" viewBox="0 0 66 66" fill="none" xmlns="http://www.w3.org/2000/svg">
<path d="M52.7909 9H13.2082C10.3375 9 8 11.3375 8 14.2083V49.6244C8 52.4951 10.3375 54.8326 13.2082 54.8326H38.2078C38.7828 54.8326 39.2495 54.3659 39.2495 53.7909C39.2495 53.2159 38.7828 52.7492 38.2078 52.7492H13.2082C11.4853 52.7492 10.0833 51.3472 10.0833 49.6243V19.4165H55.9158V41.2911C55.9158 41.8661 56.3825 42.3328 56.9574 42.3328C57.5324 42.3328 57.9991 41.8661 57.9991 41.2911V14.2083C57.9991 11.3375 55.6617 9 52.7909 9ZM55.9159 17.3333H10.0833V14.2083C10.0833 12.4854 11.4853 11.0834 13.2082 11.0834H52.7908C54.5137 11.0834 55.9158 12.4854 55.9158 14.2083V17.3333H55.9159Z" fill="url(#paint0_linear_3101_1358)"/>
<path d="M13.2087 15.25C13.784 15.25 14.2504 14.7837 14.2504 14.2084C14.2504 13.633 13.784 13.1667 13.2087 13.1667C12.6334 13.1667 12.167 13.633 12.167 14.2084C12.167 14.7837 12.6334 15.25 13.2087 15.25Z" fill="url(#paint1_linear_3101_1358)"/>
<path d="M17.3747 15.25C17.95 15.25 18.4164 14.7837 18.4164 14.2084C18.4164 13.633 17.95 13.1667 17.3747 13.1667C16.7994 13.1667 16.333 13.633 16.333 14.2084C16.333 14.7837 16.7994 15.25 17.3747 15.25Z" fill="url(#paint2_linear_3101_1358)"/>
<path d="M21.5417 15.25C22.117 15.25 22.5834 14.7837 22.5834 14.2084C22.5834 13.633 22.117 13.1667 21.5417 13.1667C20.9664 13.1667 20.5 13.633 20.5 14.2084C20.5 14.7837 20.9664 15.25 21.5417 15.25Z" fill="url(#paint3_linear_3101_1358)"/>
<path d="M57.6952 46.8034L43.1122 32.2204C42.8142 31.9246 42.3684 31.8349 41.9767 31.9954C41.5872 32.1558 41.333 32.5371 41.333 32.9579V53.7908C41.333 54.2116 41.5872 54.5929 41.9767 54.7513C42.3684 54.9158 42.8122 54.8262 43.1122 54.5263L46.2684 51.3701L48.8246 56.3492C48.9516 56.5992 49.1746 56.7846 49.4391 56.8679C49.5412 56.8992 49.6474 56.9159 49.7516 56.9159C49.9204 56.9159 50.0871 56.8742 50.2412 56.7929L54.3223 54.6242C54.8223 54.3597 55.0203 53.7409 54.7619 53.2347L52.4036 48.5827H56.9577C57.3785 48.5827 57.7598 48.3285 57.9202 47.939C58.0827 47.5492 57.9932 47.1014 57.6952 46.8034ZM50.7079 46.4992C50.3454 46.4992 50.0099 46.6867 49.8204 46.995C49.6308 47.3033 49.6141 47.6888 49.7787 48.0117L52.4411 53.2658L50.1954 54.4596L47.4684 49.1492C47.3163 48.8534 47.0329 48.6472 46.7038 48.595C46.6496 48.5867 46.5955 48.5825 46.5413 48.5825C46.2684 48.5825 46.0018 48.6908 45.8038 48.8888L43.4164 51.2762V35.4724L54.4432 46.4992H50.7079Z" fill="url(#paint4_linear_3101_1358)"/>
<defs>
<linearGradient id="paint0_linear_3101_1358" x1="8" y1="54.8326" x2="53.6597" y2="5.02215" gradientUnits="userSpaceOnUse">
<stop stop-color="#FE5000"/>
<stop offset="1" stop-color="#FE9800"/>
</linearGradient>
<linearGradient id="paint1_linear_3101_1358" x1="12.167" y1="15.25" x2="14.2504" y2="13.1667" gradientUnits="userSpaceOnUse">
<stop stop-color="#FE5000"/>
<stop offset="1" stop-color="#FE9800"/>
</linearGradient>
<linearGradient id="paint2_linear_3101_1358" x1="16.333" y1="15.25" x2="18.4164" y2="13.1667" gradientUnits="userSpaceOnUse">
<stop stop-color="#FE5000"/>
<stop offset="1" stop-color="#FE9800"/>
</linearGradient>
<linearGradient id="paint3_linear_3101_1358" x1="20.5" y1="15.25" x2="22.5834" y2="13.1667" gradientUnits="userSpaceOnUse">
<stop stop-color="#FE5000"/>
<stop offset="1" stop-color="#FE9800"/>
</linearGradient>
<linearGradient id="paint4_linear_3101_1358" x1="41.333" y1="56.9159" x2="64.4098" y2="41.5302" gradientUnits="userSpaceOnUse">
<stop stop-color="#FE5000"/>
<stop offset="1" stop-color="#FE9800"/>
</linearGradient>
</defs>
</svg>
