<svg width="40" height="40" viewBox="0 0 40 40" fill="none" xmlns="http://www.w3.org/2000/svg">
<circle cx="20" cy="20" r="20" fill="#FF5842"/>
<path d="M21.4761 22.532H18.5481V11.54H21.4761V22.532ZM18.1641 26.54C18.1641 26.076 18.3401 25.668 18.6921 25.316C19.0601 24.948 19.5241 24.764 20.0841 24.764C20.5641 24.764 20.9721 24.948 21.3081 25.316C21.6601 25.668 21.8361 26.076 21.8361 26.54C21.8361 27.068 21.6601 27.524 21.3081 27.908C20.9721 28.276 20.5641 28.46 20.0841 28.46C19.5241 28.46 19.0601 28.276 18.6921 27.908C18.3401 27.524 18.1641 27.068 18.1641 26.54Z" fill="white"/>
</svg>
