<svg width="66" height="66" viewBox="0 0 66 66" fill="none" xmlns="http://www.w3.org/2000/svg">
<path fill-rule="evenodd" clip-rule="evenodd" d="M53.4223 17.7823C53.3855 17.7823 53.3714 17.7595 53.352 17.7281C53.34 17.7087 53.3259 17.6859 53.3032 17.6632C53.2734 17.6334 53.2585 17.6036 53.2436 17.5738C53.2287 17.544 53.2139 17.5143 53.1841 17.4845L42.9395 5.9891C42.9097 5.95933 42.8651 5.92956 42.8204 5.89978L42.8204 5.89976C42.7757 5.86998 42.731 5.8402 42.7013 5.81042C42.6715 5.81042 42.6566 5.79553 42.6417 5.78064C42.6268 5.76575 42.6119 5.75086 42.5821 5.75086C42.463 5.6913 42.2843 5.63174 42.1056 5.63174H16.9707C13.2779 5.63174 10.2402 8.66937 10.2402 12.3622V53.6383C10.2402 57.3311 13.2779 60.3687 16.9707 60.3687H46.7514C50.4442 60.3687 53.4819 57.3311 53.4819 53.6383V18.1992C53.4819 18.1396 53.467 18.0652 53.4521 17.9907L53.4521 17.9907C53.4372 17.9162 53.4223 17.8418 53.4223 17.7823ZM43.2373 9.68192L49.8486 17.1271H43.2373V9.68192ZM51.2185 53.5787C51.2185 56.0803 49.253 58.1054 46.7514 58.1054H16.9707C14.4691 58.1054 12.5036 56.0803 12.5036 53.6383V12.3026C12.5036 9.80104 14.5287 7.83551 16.9707 7.83551H40.974V18.1992C40.974 18.7948 41.4505 19.3309 42.1056 19.3309H51.2185V53.5787ZM17.0677 36.3005C17.0677 35.7349 17.5262 35.2764 18.0918 35.2764H45.6297C46.1953 35.2764 46.6539 35.7349 46.6539 36.3005C46.6539 36.8661 46.1953 37.3246 45.6297 37.3246H18.0918C17.5262 37.3246 17.0677 36.8661 17.0677 36.3005ZM18.0918 40.9658C17.5262 40.9658 17.0677 41.4243 17.0677 41.9899C17.0677 42.5555 17.5262 43.014 18.0918 43.014H45.6297C46.1953 43.014 46.6539 42.5555 46.6539 41.9899C46.6539 41.4243 46.1953 40.9658 45.6297 40.9658H18.0918ZM17.0677 47.6793C17.0677 47.1137 17.5262 46.6552 18.0918 46.6552H30.8366C31.4022 46.6552 31.8608 47.1137 31.8608 47.6793C31.8608 48.2449 31.4022 48.7034 30.8366 48.7034H18.0918C17.5262 48.7034 17.0677 48.2449 17.0677 47.6793ZM18.0918 29.5864C17.5262 29.5864 17.0677 30.0449 17.0677 30.6105C17.0677 31.1761 17.5262 31.6347 18.0918 31.6347H30.8366C31.4022 31.6347 31.8608 31.1761 31.8608 30.6105C31.8608 30.0449 31.4022 29.5864 30.8366 29.5864H18.0918Z" fill="url(#paint0_linear_3101_1395)"/>
<circle cx="52.9143" cy="40.3968" r="12.0621" fill="white" stroke="url(#paint1_linear_3101_1395)" stroke-width="2.04828"/>
<path d="M47.793 40.9428L51.7574 44.642L58.0343 37.5519" stroke="url(#paint2_linear_3101_1395)" stroke-width="2.05" stroke-linecap="round" stroke-linejoin="round"/>
<defs>
<linearGradient id="paint0_linear_3101_1395" x1="19.1588" y1="60.3687" x2="58.4003" y2="50.6667" gradientUnits="userSpaceOnUse">
<stop stop-color="#FE5000"/>
<stop offset="1" stop-color="#FCA92A"/>
</linearGradient>
<linearGradient id="paint1_linear_3101_1395" x1="29.0178" y1="56.8968" x2="60.5435" y2="51.113" gradientUnits="userSpaceOnUse">
<stop stop-color="#FE5000"/>
<stop offset="1" stop-color="#FCA92A"/>
</linearGradient>
<linearGradient id="paint2_linear_3101_1395" x1="36.4137" y1="50.6381" x2="58.2399" y2="46.5834" gradientUnits="userSpaceOnUse">
<stop stop-color="#FE5000"/>
<stop offset="1" stop-color="#FCA92A"/>
</linearGradient>
</defs>
</svg>
