<svg width="44" height="44" viewBox="0 0 44 44" fill="none" xmlns="http://www.w3.org/2000/svg">
<path fill-rule="evenodd" clip-rule="evenodd" d="M31.1 39.2664V4.73356H38.9V39.2664H31.1ZM29.5 4.13356C29.5 3.58128 29.9477 3.13356 30.5 3.13356H39.5C40.0523 3.13356 40.5 3.58128 40.5 4.13356V39.8664C40.5 40.4187 40.0523 40.8664 39.5 40.8664H30.5C29.9477 40.8664 29.5 40.4187 29.5 39.8664V4.13356ZM18.1 14.6324V39.2664H25.9V14.6324H18.1ZM17.5 13.0324C16.9477 13.0324 16.5 13.4801 16.5 14.0324V39.8664C16.5 40.4187 16.9477 40.8664 17.5 40.8664H26.5C27.0523 40.8664 27.5 40.4187 27.5 39.8664V14.0324C27.5 13.4801 27.0523 13.0324 26.5 13.0324H17.5ZM5.1 24.2673V39.2664H12.9V24.2673H5.1ZM4.5 22.6673C3.94772 22.6673 3.5 23.1151 3.5 23.6673V39.8664C3.5 40.4187 3.94771 40.8664 4.5 40.8664H13.5C14.0523 40.8664 14.5 40.4187 14.5 39.8664V23.6673C14.5 23.1151 14.0523 22.6673 13.5 22.6673H4.5Z" fill="url(#paint0_linear_1986_497)"/>
<defs>
<linearGradient id="paint0_linear_1986_497" x1="3.5" y1="40.8664" x2="41.2256" y2="3.87356" gradientUnits="userSpaceOnUse">
<stop stop-color="#FE5000"/>
<stop offset="1" stop-color="#FE9800"/>
</linearGradient>
</defs>
</svg>
