<svg width="44" height="44" viewBox="0 0 44 44" fill="none" xmlns="http://www.w3.org/2000/svg">
<path fill-rule="evenodd" clip-rule="evenodd" d="M35.1998 6H8.7998C6.8998 6 5.2998 7.6 5.2998 9.5V33.1C5.2998 35 6.8998 36.6 8.7998 36.6H19.9764C22.1229 39.8533 25.8108 42 30 42C36.6274 42 42 36.6274 42 30C42 26.7968 40.745 23.8868 38.6998 21.7348V9.5C38.6998 7.6 37.0998 6 35.1998 6ZM18 30C18 31.863 18.4245 33.6268 19.1821 35.2H8.7998C7.6998 35.2 6.6998 34.3 6.6998 33.1V12.9H37.2998V20.4749C35.2774 18.9227 32.7464 18 30 18C23.3726 18 18 23.3726 18 30ZM37.2998 11.6H6.6998V9.5C6.6998 8.4 7.5998 7.4 8.7998 7.4H35.1998C36.2998 7.4 37.2998 8.3 37.2998 9.5V11.6ZM8.7998 10.2C9.1998 10.2 9.4998 9.9 9.4998 9.5C9.4998 9.1 9.1998 8.8 8.7998 8.8C8.3998 8.8 8.0998 9.1 8.0998 9.5C8.0998 9.9 8.3998 10.2 8.7998 10.2ZM11.5998 10.2C11.9998 10.2 12.2998 9.9 12.2998 9.5C12.2998 9.1 11.9998 8.8 11.5998 8.8C11.1998 8.8 10.8998 9.1 10.8998 9.5C10.8998 9.9 11.1998 10.2 11.5998 10.2ZM14.3998 10.2C14.7998 10.2 15.0998 9.9 15.0998 9.5C15.0998 9.1 14.7998 8.8 14.3998 8.8C13.9998 8.8 13.6998 9.1 13.6998 9.5C13.6998 9.9 13.9998 10.2 14.3998 10.2ZM30 40.5C35.799 40.5 40.5 35.799 40.5 30C40.5 24.201 35.799 19.5 30 19.5C24.201 19.5 19.5 24.201 19.5 30C19.5 35.799 24.201 40.5 30 40.5ZM29.2421 24.1805L29.2765 24.0814L29.4253 23.6534L29.5492 23.2969C29.6978 22.8695 30.3022 22.8695 30.4508 23.2969L30.5747 23.6534L30.7235 24.0814L30.7579 24.1805L31.7719 27.0974C31.8374 27.286 32.0134 27.4138 32.213 27.4179L35.3005 27.4808L35.4054 27.483L35.8584 27.4922L36.2357 27.4999C36.6881 27.5091 36.8749 28.084 36.5143 28.3574L36.2136 28.5854L35.8525 28.8591L35.7689 28.9225L33.308 30.7882C33.149 30.9088 33.0817 31.1157 33.1396 31.3067L34.0338 34.2626L34.0642 34.363L34.1954 34.7967L34.3047 35.1579C34.4357 35.591 33.9467 35.9463 33.5752 35.6879L33.2655 35.4723L32.8935 35.2135L32.8075 35.1536L30.2726 33.3897C30.1088 33.2757 29.8912 33.2757 29.7274 33.3897L27.1925 35.1536L27.1065 35.2135L26.7345 35.4723L26.4248 35.6879C26.0533 35.9463 25.5643 35.591 25.6953 35.1579L25.8046 34.7967L25.9358 34.363L25.9662 34.2626L26.8604 31.3067C26.9183 31.1157 26.851 30.9088 26.692 30.7882L24.2311 28.9225L24.1475 28.8591L23.7864 28.5854L23.4857 28.3574C23.1251 28.084 23.3119 27.5091 23.7643 27.4999L24.1416 27.4922L24.5946 27.483L24.6995 27.4808L27.787 27.4179C27.9866 27.4138 28.1626 27.286 28.2281 27.0974L29.2421 24.1805ZM29.5806 27.5676L30 26.3609L30.4194 27.5676C30.6816 28.3218 31.3855 28.8332 32.1838 28.8494L33.461 28.8755L32.443 29.6472C31.8067 30.1296 31.5379 30.9571 31.7691 31.7214L32.139 32.9441L31.0904 32.2144C30.435 31.7583 29.565 31.7583 28.9096 32.2144L27.861 32.9441L28.2309 31.7214C28.4621 30.9571 28.1933 30.1296 27.557 29.6472L26.539 28.8755L27.8162 28.8494C28.6145 28.8332 29.3184 28.3218 29.5806 27.5676Z" fill="url(#paint0_linear_1986_516)"/>
<defs>
<linearGradient id="paint0_linear_1986_516" x1="5.2998" y1="42" x2="41.2931" y2="5.30661" gradientUnits="userSpaceOnUse">
<stop stop-color="#FE5000"/>
<stop offset="1" stop-color="#FE9800"/>
</linearGradient>
</defs>
</svg>
