<svg width="44" height="44" viewBox="0 0 44 44" fill="none" xmlns="http://www.w3.org/2000/svg">
<path d="M34.7002 12.1L36.8002 10L34.0002 7.2L31.6002 9.6C29.0002 8 25.9002 7 22.7002 6.9V5.5H26.7002V3.5C26.7002 2.4 25.8002 1.5 24.7002 1.5H19.4002C18.3002 1.5 17.4002 2.4 17.4002 3.5V5.5H21.4002V6.8C18.1002 7 15.0002 8 12.4002 9.6L10.0002 7.2L7.2002 10L9.3002 12.1C6.1002 15.3 4.2002 19.7 4.2002 24.6C4.2002 34.4 12.2002 42.4 22.0002 42.4C31.8002 42.4 39.8002 34.4 39.8002 24.6C39.8002 19.8 37.8002 15.4 34.7002 12.1ZM34.0002 9.1L34.9002 10L33.7002 11.2C33.4002 10.9 33.0002 10.6 32.7002 10.4L34.0002 9.1ZM18.7002 4.2V3.5C18.7002 3.1 19.0002 2.8 19.4002 2.8H24.7002C25.1002 2.8 25.4002 3.1 25.4002 3.5V4.2H18.7002ZM9.1002 10L10.0002 9.1L11.3002 10.4C10.9002 10.7 10.6002 10.9 10.3002 11.2L9.1002 10ZM22.0002 41.1C12.9002 41.1 5.5002 33.7 5.5002 24.6C5.5002 15.5 12.9002 8.2 22.0002 8.2C31.1002 8.2 38.5002 15.6 38.5002 24.7C38.5002 33.7 31.1002 41.1 22.0002 41.1ZM22.0002 10.8C14.4002 10.8 8.2002 17 8.2002 24.6C8.2002 32.2 14.4002 38.4 22.0002 38.4C29.6002 38.4 35.8002 32.2 35.8002 24.6C35.8002 17 29.6002 10.8 22.0002 10.8ZM22.7002 37.1V35.8H21.4002V37.1C15.0002 36.8 9.9002 31.7 9.5002 25.3H10.8002V24H9.5002C9.8002 17.6 15.0002 12.5 21.3002 12.2V13.5H22.6002V12.2C29.0002 12.5 34.2002 17.6 34.5002 24H33.2002V25.3H34.5002C34.2002 31.7 29.0002 36.8 22.7002 37.1ZM22.0002 22C20.5002 22 19.4002 23.2 19.4002 24.6C19.4002 26.1 20.6002 27.2 22.0002 27.2C23.5002 27.2 24.6002 26 24.6002 24.6C24.6002 23.2 23.5002 22 22.0002 22ZM22.0002 26C21.3002 26 20.7002 25.4 20.7002 24.7C20.7002 24 21.3002 23.4 22.0002 23.4C22.7002 23.4 23.3002 24 23.3002 24.7C23.3002 25.4 22.7002 26 22.0002 26ZM22.7002 15.4H21.4002V21.3H22.7002V15.4ZM18.7002 24H14.7002V25.3H18.7002V24Z" fill="url(#paint0_linear_1985_650)"/>
<defs>
<linearGradient id="paint0_linear_1985_650" x1="11.5427" y1="42.4" x2="43.4561" y2="33.7064" gradientUnits="userSpaceOnUse">
<stop stop-color="#FE5000"/>
<stop offset="1" stop-color="#FCA92A"/>
</linearGradient>
</defs>
</svg>
