<svg width="44" height="44" viewBox="0 0 44 44" fill="none" xmlns="http://www.w3.org/2000/svg">
<path fill-rule="evenodd" clip-rule="evenodd" d="M18.5624 5.32341H25.435C26.1098 5.32341 26.6568 5.87043 26.6568 6.54522V8.53064H17.3406V6.54522C17.3406 5.87043 17.8876 5.32341 18.5624 5.32341ZM15.5079 6.54522C15.5079 4.85826 16.8754 3.49071 18.5624 3.49071H25.435C27.122 3.49071 28.4895 4.85826 28.4895 6.54522V8.53064V8.836H39.9449C41.6319 8.836 42.9994 10.2035 42.9994 11.8905V35.5629C42.9994 37.2499 41.6319 38.6174 39.9449 38.6174H4.05451C2.36755 38.6174 1 37.2499 1 35.5629V11.8905C1 10.2035 2.36755 8.836 4.05451 8.836H15.5079V8.53064V6.54522ZM39.9449 10.6687H4.05451C3.37972 10.6687 2.8327 11.2157 2.8327 11.8905V35.5629C2.8327 36.2377 3.37972 36.7847 4.05451 36.7847H39.9449C40.6197 36.7847 41.1667 36.2377 41.1667 35.5629V11.8905C41.1667 11.2157 40.6197 10.6687 39.9449 10.6687ZM30.0537 17.2062C30.4919 17.6019 30.5263 18.278 30.1305 18.7161L21.0513 28.7681L20.3199 29.5779L19.5252 28.83L14.0129 23.6419C13.5829 23.2372 13.5624 22.5607 13.9671 22.1307C14.3717 21.7007 15.0483 21.6802 15.4783 22.0849L20.196 26.5251L28.5438 17.283C28.9395 16.8448 29.6156 16.8104 30.0537 17.2062Z" fill="url(#paint0_linear_1986_509)"/>
<defs>
<linearGradient id="paint0_linear_1986_509" x1="1" y1="38.6175" x2="35.5734" y2="-2.72019" gradientUnits="userSpaceOnUse">
<stop stop-color="#FE5000"/>
<stop offset="1" stop-color="#FE9800"/>
</linearGradient>
</defs>
</svg>
