<svg width="44" height="44" viewBox="0 0 44 44" fill="none" xmlns="http://www.w3.org/2000/svg">
<path d="M33.5736 19.9L27.6003 12.4333V6.45999C27.6003 4.73333 26.2003 3.33333 24.4736 3.33333H12.0603C10.3336 3.33333 8.93359 4.73333 8.93359 6.45999V28.86C8.93359 30.5867 10.3336 31.9867 12.0603 31.9867H17.6603V33.62C17.6603 37.54 20.8336 40.7133 24.7536 40.7133H34.4603C34.7869 40.7133 35.0669 40.4333 35.0669 40.1067V24.24C35.0669 22.6533 34.5536 21.1133 33.5736 19.9ZM24.4736 4.59333C25.5003 4.59333 26.3403 5.43333 26.3403 6.45999V22.7933L23.8669 20.1333V4.59333H24.4736ZM22.6069 18.78L21.5336 17.66C21.3003 17.4267 21.0203 17.1933 20.7403 17.0533V4.59333H22.6069V18.78ZM10.1936 28.86V6.45999C10.1936 5.43333 11.0336 4.59333 12.0603 4.59333H19.5269V16.7733C18.7803 16.7733 18.0336 17.0533 17.5203 17.5667L17.4736 17.6133C16.4003 18.6867 16.3536 20.3667 17.2869 21.4867L19.5269 24.1467V30.7267H12.0603C11.0336 30.7267 10.1936 29.8867 10.1936 28.86ZM22.7003 30.7267H20.7869V25.64L22.6536 27.8333V29.7467C22.6069 30.0733 22.6536 30.4 22.7003 30.7267ZM33.8069 39.4067H24.7069C21.4869 39.4067 18.8736 36.7933 18.8736 33.5733V31.94H22.9336C23.6336 34.46 25.5003 36.56 28.0203 37.4933L28.4403 36.3267C25.6869 35.3 23.8669 32.64 23.8669 29.7467V27.6C23.8669 27.46 23.8203 27.32 23.7269 27.18L18.2203 20.6933C17.6603 20.04 17.7069 19.1067 18.3603 18.4533C18.6869 18.1733 19.1069 17.9867 19.5269 17.9867C19.9469 17.9867 20.3669 18.1733 20.6469 18.5L29.0003 27.3667L29.8869 26.5267L27.5536 24.0533V14.44L32.5469 20.6933C33.3403 21.6733 33.7603 22.9333 33.7603 24.1933V39.4067H33.8069ZM13.2736 14.5333H12.0136V6.45999H13.2736V14.5333ZM16.4003 11.4067H15.1403V6.45999H16.4003V11.4067ZM16.4003 23.8667H12.6669C12.3403 23.8667 12.0603 24.1467 12.0603 24.4733V28.2067C12.0603 28.5333 12.3403 28.8133 12.6669 28.8133H16.4003C16.7269 28.8133 17.0069 28.5333 17.0069 28.2067V24.4733C17.0069 24.1467 16.7269 23.8667 16.4003 23.8667ZM15.7936 27.6H13.3203V25.1267H15.7936V27.6Z" fill="url(#paint0_linear_1986_506)"/>
<defs>
<linearGradient id="paint0_linear_1986_506" x1="14.3236" y1="40.7133" x2="38.3394" y2="35.4586" gradientUnits="userSpaceOnUse">
<stop stop-color="#FE5000"/>
<stop offset="1" stop-color="#FCA92A"/>
</linearGradient>
</defs>
</svg>
