<svg width="44" height="44" viewBox="0 0 44 44" fill="none" xmlns="http://www.w3.org/2000/svg">
<path fill-rule="evenodd" clip-rule="evenodd" d="M28.286 0.746428L28.286 13.6036L25.5084 11.1727C25.3819 11.0621 25.2104 11 25.0316 11C24.8528 11 24.6813 11.0621 24.5549 11.1727C24.4285 11.2834 24.3574 11.4334 24.3574 11.5898C24.3574 11.7462 24.4285 11.8962 24.5549 12.0069L28.595 15.5412C28.6575 15.5961 28.7318 15.6396 28.8136 15.6693C28.8954 15.699 28.9831 15.7143 29.0717 15.7143C29.1603 15.7143 29.248 15.699 29.3298 15.6693C29.4116 15.6396 29.4859 15.5961 29.5484 15.5412L33.5885 12.0069C33.715 11.8963 33.786 11.7462 33.786 11.5898C33.786 11.4334 33.715 11.2834 33.5885 11.1727C33.4621 11.0621 33.2906 11 33.1118 11C32.933 11 32.7615 11.0621 32.6351 11.1727L29.8574 13.6036V0.746428C29.8574 0.548463 29.7746 0.358606 29.6273 0.218623C29.4799 0.0786408 29.2801 0 29.0717 0C28.8633 0 28.6635 0.0786407 28.5161 0.218623C28.3688 0.358606 28.286 0.548463 28.286 0.746428ZM24.5717 18.0991V20.3011C29.4837 19.6002 36.1431 20.5822 36.1431 23.251V34.8426C36.1431 36.8472 32.3616 37.9437 28.4289 38.0518V39.9944C28.4289 42.1081 24.2246 43.2143 20.0717 43.2143C15.9188 43.2143 11.7146 42.1081 11.7146 39.9944V36.1305C11.7146 35.2516 12.4436 34.5581 13.5882 34.0448C10.4588 33.6765 7.85742 32.6405 7.85742 30.9787V18.0991C7.85742 13.8717 24.5717 13.8717 24.5717 18.0991ZM23.286 18.1429C23.286 17.488 20.7899 16.2143 16.2146 16.2143C11.6392 16.2143 9.14311 17.4881 9.14317 18.1429C9.14317 18.7977 11.6393 20.0714 16.2146 20.0714C20.7899 20.0714 23.286 18.7977 23.286 18.1429ZM16.2145 21.3572C13.4661 21.3572 10.703 20.8706 9.14311 19.9318L9.14317 22C9.14317 22.6548 11.6392 23.9286 16.2146 23.9286C17.3338 23.9286 18.4213 23.8277 19.4288 23.6661V23.2857C19.4288 21.9709 21.0519 21.0661 23.286 20.5706V19.9318C21.7261 20.8706 18.9629 21.3572 16.2145 21.3572ZM21.1008 33.002C20.9642 32.934 20.8369 32.8625 20.7145 32.7889V32.988C20.8437 32.9914 20.9721 32.9967 21.1008 33.002ZM16.2145 25.2143C13.4661 25.2143 10.703 24.7278 9.14311 23.7889V26.5C9.14311 27.1548 11.6392 28.4286 16.2145 28.4286C17.3337 28.4286 18.4213 28.3278 19.4288 28.1661V24.962C18.4089 25.1144 17.3273 25.2143 16.2145 25.2143ZM9.14311 28.2889V31C9.14311 31.6548 11.6392 32.9286 16.2145 32.9286C17.3337 32.9286 18.4213 32.8278 19.4288 32.6661V29.4621C18.4089 29.6144 17.3273 29.7143 16.2145 29.7143C13.4661 29.7143 10.703 29.2278 9.14311 28.2889ZM20.0717 41.9286C24.647 41.9286 27.1431 40.6548 27.1431 40L27.143 38.0561C27.1136 38.0552 27.0838 38.0546 27.0539 38.0541C27.0159 38.0533 26.9779 38.0526 26.9404 38.0512C25.3503 38.9125 22.7025 39.3571 20.0717 39.3571C17.3233 39.3571 14.5602 38.8706 13.0003 37.9317V40C13.0003 40.6548 15.4964 41.9286 20.0717 41.9286ZM13.0003 36.1429C13.0003 36.7977 15.4964 38.0714 20.0717 38.0714C24.647 38.0714 27.1431 36.7977 27.1431 36.1429C27.1431 35.4881 24.647 34.2143 20.0717 34.2143C15.4964 34.2143 13.0003 35.4881 13.0003 36.1429ZM28.4288 36.7635C32.5795 36.6476 34.8574 35.4794 34.8574 34.8572L34.8573 32.7889C33.2975 33.7278 30.5343 34.2143 27.7859 34.2143C27.4702 34.2143 27.1549 34.2057 26.8406 34.193C27.821 34.6905 28.4288 35.3397 28.4288 36.1429V36.7635ZM27.786 32.9286C32.3613 32.9286 34.8574 31.6548 34.8574 31V28.9318C33.2975 29.8706 30.5344 30.3572 27.786 30.3572C25.0376 30.3572 22.2744 29.8706 20.7146 28.9318V31C20.7146 31.6548 23.2107 32.9286 27.786 32.9286ZM27.786 29.0715C32.3613 29.0715 34.8574 27.7977 34.8574 27.1429V25.0746C33.2975 26.0135 30.5344 26.5 27.786 26.5C25.0376 26.5 22.2744 26.0135 20.7146 25.0746V27.1429C20.7146 27.7977 23.2107 29.0715 27.786 29.0715ZM20.7146 23.2857C20.7146 23.9406 23.2106 25.2143 27.786 25.2143C32.3613 25.2143 34.8574 23.9406 34.8574 23.2857C34.8574 22.6309 32.3613 21.3572 27.786 21.3572C23.2107 21.3572 20.7146 22.6309 20.7146 23.2857Z" fill="url(#paint0_linear_1986_489)"/>
<defs>
<linearGradient id="paint0_linear_1986_489" x1="13.6914" y1="43.2143" x2="39.8326" y2="37.8592" gradientUnits="userSpaceOnUse">
<stop stop-color="#FE5000"/>
<stop offset="1" stop-color="#FCA92A"/>
</linearGradient>
</defs>
</svg>
