<svg width="34" height="26" viewBox="0 0 34 26" fill="none" xmlns="http://www.w3.org/2000/svg">
<path d="M31.4082 24.3535V24.4135H31.4641C31.4746 24.4137 31.485 24.411 31.4941 24.4059C31.4978 24.4033 31.5007 24.3998 31.5027 24.3958C31.5047 24.3918 31.5056 24.3874 31.5054 24.3829C31.5056 24.3785 31.5046 24.3742 31.5027 24.3703C31.5007 24.3664 31.4978 24.363 31.4941 24.3606C31.4851 24.3551 31.4747 24.3525 31.4641 24.3529H31.4082V24.3535ZM31.4647 24.3111C31.4887 24.3096 31.5125 24.3165 31.5319 24.3306C31.5397 24.3369 31.5459 24.3451 31.55 24.3543C31.5541 24.3635 31.556 24.3736 31.5555 24.3837C31.5558 24.3923 31.5543 24.401 31.5511 24.409C31.5478 24.4171 31.5429 24.4243 31.5366 24.4303C31.5216 24.4434 31.5027 24.4512 31.4829 24.4527L31.5579 24.5382H31.5001L31.4311 24.4533H31.4088V24.5382H31.3605V24.3112H31.4655L31.4647 24.3111ZM31.4497 24.6165C31.4751 24.6167 31.5002 24.6116 31.5234 24.6015C31.5458 24.5918 31.5661 24.578 31.5834 24.5608C31.6007 24.5436 31.6145 24.5232 31.624 24.5008C31.6437 24.4533 31.6437 24.3998 31.624 24.3523C31.6143 24.3299 31.6005 24.3096 31.5834 24.2923C31.5661 24.2751 31.5458 24.2613 31.5234 24.2517C31.5 24.2421 31.475 24.2373 31.4497 24.2376C31.4241 24.2373 31.3986 24.2421 31.3747 24.2517C31.3518 24.2611 31.331 24.2749 31.3134 24.2923C31.2868 24.3195 31.2689 24.3539 31.2618 24.3913C31.2547 24.4286 31.2587 24.4672 31.2733 24.5023C31.2825 24.5248 31.2961 24.5452 31.3134 24.5623C31.331 24.5797 31.3519 24.5935 31.3747 24.603C31.3984 24.6131 31.424 24.6182 31.4497 24.618V24.6165ZM31.4497 24.183C31.5157 24.1829 31.579 24.2087 31.626 24.255C31.6487 24.2771 31.6667 24.3036 31.6791 24.3328C31.6919 24.3628 31.6985 24.3951 31.6985 24.4277C31.6985 24.4603 31.6919 24.4926 31.6791 24.5226C31.6664 24.5516 31.6484 24.578 31.626 24.6004C31.603 24.6225 31.5762 24.6402 31.5469 24.6529C31.5162 24.666 31.4831 24.6726 31.4497 24.6724C31.416 24.6726 31.3825 24.666 31.3513 24.6529C31.3217 24.6405 31.2947 24.6227 31.2717 24.6004C31.2493 24.5772 31.2315 24.5499 31.2193 24.52C31.2065 24.49 31.1999 24.4577 31.1999 24.4251C31.1999 24.3925 31.2065 24.3602 31.2193 24.3303C31.2317 24.301 31.2498 24.2746 31.2724 24.2524C31.2952 24.2297 31.3223 24.2118 31.3521 24.1999C31.3832 24.1868 31.4167 24.1802 31.4505 24.1804L31.4497 24.183ZM8.48173 23.3065C8.48173 22.8738 8.76523 22.5183 9.22858 22.5183C9.67138 22.5183 9.97018 22.8585 9.97018 23.3065C9.97018 23.7546 9.67138 24.0948 9.22858 24.0948C8.76523 24.0948 8.48173 23.7393 8.48173 23.3065V23.3065ZM10.4749 23.3065V22.075H9.93958V22.375C9.76978 22.1533 9.51223 22.0143 9.16198 22.0143C8.47198 22.0143 7.93048 22.5555 7.93048 23.3071C7.93048 24.0588 8.47168 24.6 9.16198 24.6C9.51208 24.6 9.76978 24.4608 9.93958 24.2392V24.5382H10.4743V23.3065H10.4749ZM28.5637 23.3065C28.5637 22.8738 28.8472 22.5183 29.3107 22.5183C29.754 22.5183 30.0523 22.8585 30.0523 23.3065C30.0523 23.7546 29.754 24.0948 29.3107 24.0948C28.8474 24.0948 28.5637 23.7393 28.5637 23.3065ZM30.5575 23.3065V21.0865H30.0217V22.375C29.8519 22.1533 29.5944 22.0143 29.2441 22.0143C28.5541 22.0143 28.0126 22.5555 28.0126 23.3071C28.0126 24.0588 28.5538 24.6 29.2441 24.6C29.5944 24.6 29.8519 24.4608 30.0217 24.2392V24.5382H30.5575V23.3065ZM17.1193 22.4929C17.4643 22.4929 17.6859 22.7092 17.7424 23.0901H16.465C16.5222 22.7346 16.738 22.4929 17.1195 22.4929H17.1193ZM17.1301 22.0129C16.4086 22.0129 15.9039 22.5379 15.9039 23.3058C15.9039 24.0886 16.4289 24.5986 17.166 24.5986C17.5368 24.5986 17.8764 24.5061 18.1752 24.2536L17.9128 23.8569C17.7064 24.0219 17.4436 24.1144 17.1966 24.1144C16.8516 24.1144 16.5375 23.9547 16.4602 23.5114H18.2883C18.2935 23.4448 18.2989 23.3776 18.2989 23.3056C18.2935 22.5381 17.8189 22.0128 17.1298 22.0128L17.1301 22.0129ZM23.5933 23.3056C23.5933 22.8729 23.8768 22.5174 24.3402 22.5174C24.783 22.5174 25.0818 22.8576 25.0818 23.3056C25.0818 23.7537 24.783 24.0939 24.3402 24.0939C23.8768 24.0939 23.5932 23.7384 23.5932 23.3056H23.5933ZM25.5864 23.3056V22.075H25.0513V22.375C24.8809 22.1533 24.624 22.0143 24.2737 22.0143C23.5837 22.0143 23.0422 22.5555 23.0422 23.3071C23.0422 24.0588 23.5834 24.6 24.2737 24.6C24.624 24.6 24.8809 24.4608 25.0513 24.2392V24.5382H25.5865V23.3065L25.5864 23.3056ZM20.5701 23.3056C20.5701 24.0525 21.09 24.5985 21.8835 24.5985C22.2543 24.5985 22.5013 24.516 22.7685 24.3049L22.5114 23.8722C22.3104 24.0166 22.0993 24.0939 21.8664 24.0939C21.439 24.0886 21.1248 23.7796 21.1248 23.3056C21.1248 22.8316 21.439 22.5228 21.8664 22.5174C22.0987 22.5174 22.3098 22.5946 22.5114 22.7391L22.7685 22.3063C22.5009 22.0953 22.2538 22.0128 21.8835 22.0128C21.09 22.0128 20.5701 22.5586 20.5701 23.3056V23.3056ZM27.4716 22.0128C27.1627 22.0128 26.9616 22.1572 26.8225 22.3735V22.075H26.292V24.5368H26.8279V23.1568C26.8279 22.7494 27.003 22.5231 27.3529 22.5231C27.4675 22.5214 27.5813 22.5425 27.6877 22.585L27.8527 22.0804C27.7342 22.0338 27.5797 22.0132 27.4713 22.0132L27.4716 22.0128ZM13.1217 22.2708C12.8641 22.101 12.5092 22.0132 12.1177 22.0132C11.494 22.0132 11.0925 22.3122 11.0925 22.8013C11.0925 23.2027 11.3914 23.4504 11.9419 23.5276L12.1948 23.5636C12.4884 23.6049 12.627 23.6821 12.627 23.8212C12.627 24.0115 12.432 24.1201 12.0658 24.1201C11.695 24.1201 11.4274 24.0016 11.247 23.8626L10.9954 24.28C11.289 24.4963 11.6598 24.5995 12.0613 24.5995C12.7723 24.5995 13.1844 24.2647 13.1844 23.796C13.1844 23.3632 12.8601 23.1369 12.3243 23.0596L12.072 23.023C11.8402 22.993 11.6545 22.9464 11.6545 22.7814C11.6545 22.6014 11.8296 22.4931 12.1233 22.4931C12.4375 22.4931 12.7417 22.6116 12.8908 22.7041L13.1226 22.2714L13.1217 22.2708ZM20.0293 22.0137C19.7205 22.0137 19.5193 22.1581 19.3809 22.3744V22.075H18.8503V24.5368H19.3857V23.1568C19.3857 22.7494 19.5607 22.5231 19.9107 22.5231C20.0253 22.5214 20.1391 22.5425 20.2455 22.585L20.4105 22.0804C20.292 22.0338 20.1375 22.0132 20.029 22.0132L20.0293 22.0137ZM15.4609 22.075H14.5855V21.3282H14.0443V22.075H13.545V22.5643H14.0443V23.6874C14.0443 24.2586 14.266 24.5988 14.8993 24.5988C15.1317 24.5988 15.3993 24.5268 15.5691 24.4084L15.4144 23.95C15.2547 24.0426 15.0796 24.0892 14.9404 24.0892C14.6728 24.0892 14.5855 23.9242 14.5855 23.6772V22.5648H15.4609V22.075ZM7.45708 24.5374V22.9924C7.45708 22.4106 7.08628 22.0191 6.48853 22.0138C6.17428 22.0086 5.85013 22.1064 5.62318 22.4518C5.45338 22.1788 5.18578 22.0138 4.80958 22.0138C4.54663 22.0138 4.28968 22.0911 4.08853 22.3794V22.075H3.55273V24.5368H4.09273V23.1718C4.09273 22.7445 4.32973 22.5174 4.69573 22.5174C5.05123 22.5174 5.23108 22.7491 5.23108 23.1664V24.5365H5.77228V23.1715C5.77228 22.7442 6.01933 22.5171 6.37468 22.5171C6.74023 22.5171 6.91468 22.7488 6.91468 23.1661V24.5362L7.45708 24.5374Z" fill="#231F20"/>
<path d="M31.7149 16.3483V15.9883H31.6212L31.5127 16.2353L31.4049 15.9883H31.3108V16.3483H31.3774V16.0771L31.4788 16.3111H31.5478L31.6492 16.0765V16.3483H31.7152H31.7149ZM31.1202 16.3483V16.0499H31.2402V15.9892H30.9336V16.0499H31.0536V16.3483H31.1196H31.1202Z" fill="#F79410"/>
<path d="M21.0582 17.8922H12.9453V3.31225H21.0584L21.0582 17.8922Z" fill="#FF5F00"/>
<path d="M13.46 10.6025C13.46 7.645 14.8448 5.0104 17.0012 3.31255C15.3689 2.02547 13.35 1.32693 11.2714 1.33C6.1508 1.33 2 5.4814 2 10.6025C2 15.7237 6.1508 19.8751 11.2714 19.8751C13.3501 19.8782 15.369 19.1797 17.0014 17.8925C14.8451 16.195 13.46 13.5602 13.46 10.6025Z" fill="#EB001B"/>
<path d="M32.0031 10.6025C32.0031 15.7237 27.8523 19.8751 22.7317 19.8751C20.6528 19.8781 18.6336 19.1796 17.001 17.8925C19.158 16.1947 20.5428 13.5602 20.5428 10.6025C20.5428 7.64485 19.158 5.0104 17.001 3.31255C18.6336 2.02551 20.6527 1.32698 22.7316 1.33C27.8521 1.33 32.0029 5.4814 32.0029 10.6025" fill="#F79E1B"/>
</svg>
