<svg width="34" height="26" viewBox="0 0 34 26" fill="none" xmlns="http://www.w3.org/2000/svg">
<path d="M6.65968 2.26621H15.1408C16.3243 2.26621 17.0639 3.2434 16.7865 4.43846L12.8355 21.5615C12.5582 22.7565 11.3686 23.7338 10.1851 23.7338H1.704C0.520494 23.7338 -0.219096 22.7566 0.0582874 21.5615L4.00914 4.43846C4.28652 3.2372 5.46997 2.26621 6.65342 2.26621H6.65962H6.65968Z" fill="#D10429"/>
<path d="M14.3988 2.26621H24.1563C25.3397 2.26621 24.8035 3.2434 24.5262 4.43846L20.5751 21.5615C20.2977 22.7565 20.384 23.7338 19.2006 23.7338H9.44364C8.25405 23.7338 7.52054 22.7566 7.80406 21.5615L11.7551 4.43846C12.0324 3.2372 13.2158 2.26621 14.4055 2.26621H14.3993H14.3988Z" fill="#022E64"/>
<path d="M23.8138 2.26621H32.2955C33.4789 2.26621 34.2186 3.2434 33.9411 4.43846L29.9902 21.5615C29.7128 22.7565 28.5231 23.7338 27.3397 23.7338H18.8586C17.669 23.7338 16.9355 22.7566 17.2129 21.5615L21.1639 4.43846C21.4412 3.2372 22.6246 2.26621 23.8081 2.26621H23.8143H23.8138Z" fill="#076F74"/>
<path d="M22.3897 18.4088H23.191L23.419 17.6308H22.6238L22.3897 18.4088ZM23.0307 16.2675L22.7533 17.1888C22.7533 17.1888 23.0553 17.0332 23.2218 16.9834C23.3882 16.946 23.6347 16.9149 23.6347 16.9149L23.8258 16.2738H23.0246L23.0307 16.2675ZM23.4313 14.9481L23.1663 15.8319C23.1663 15.8319 23.4621 15.6949 23.6286 15.6515C23.795 15.6079 24.0415 15.5954 24.0415 15.5954L24.2326 14.9543H23.4375L23.4313 14.9481V14.9481ZM25.2004 14.9481L24.1648 18.4025H24.4422L24.2265 19.1183H23.9491L23.8813 19.3361H22.895L22.9629 19.1183H20.9658L21.163 18.4586H21.3664L22.4144 14.9481L22.6239 14.2385H23.6286L23.5238 14.5933C23.5238 14.5933 23.7888 14.4004 24.0478 14.3318C24.3005 14.2634 25.7551 14.2385 25.7551 14.2385L25.5394 14.9419H25.1942L25.2004 14.9481V14.9481Z" fill="#FEFEFE"/>
<path d="M25.6127 14.2382H26.6852L26.6975 14.6428C26.6914 14.7112 26.7468 14.7424 26.8763 14.7424H27.092L26.8948 15.4085H26.3153C25.816 15.4458 25.625 15.228 25.6373 14.9852L25.6188 14.2444L25.6127 14.2382V14.2382ZM25.7447 17.407H24.7215L24.894 16.8157H26.0651L26.2316 16.2742H25.079L25.2762 15.6081H28.4814L28.2841 16.2742H27.2055L27.039 16.8157H28.1177L27.9389 17.407H26.7739L26.5644 17.656H27.039L27.1561 18.4029C27.1684 18.4776 27.1684 18.5274 27.193 18.5585C27.2177 18.5834 27.3595 18.5959 27.4396 18.5959H27.5814L27.3595 19.3241H26.9958C26.9404 19.3241 26.8541 19.3179 26.737 19.3179C26.626 19.3054 26.5521 19.2432 26.4781 19.2058C26.4102 19.1747 26.3117 19.0938 26.287 18.9507L26.176 18.2038L25.646 18.9382C25.4795 19.1685 25.2516 19.349 24.8632 19.349H24.1235L24.3207 18.7016H24.6043C24.6845 18.7016 24.7585 18.6706 24.814 18.6394C24.8694 18.6145 24.9187 18.5896 24.968 18.5088L25.7447 17.407V17.407ZM14.5529 15.7869H17.2587L17.0615 16.4405H15.9829L15.8165 16.9943H16.926L16.7226 17.6666H15.6192L15.348 18.5691C15.3172 18.6687 15.6131 18.6811 15.7179 18.6811L16.2726 18.6065L16.0506 19.3534H14.8055C14.707 19.3534 14.633 19.3409 14.522 19.316C14.4172 19.2911 14.3679 19.2413 14.3248 19.1729C14.2816 19.0982 14.2076 19.0422 14.2569 18.8803L14.6144 17.6853H13.998L14.2015 17.0006H14.8178L14.9842 16.4467H14.3679L14.5652 15.7931L14.5529 15.7869V15.7869ZM16.4224 14.6055H17.5318L17.3284 15.2839H15.8121L15.6457 15.4271C15.5718 15.4956 15.5533 15.4707 15.4608 15.5205C15.3746 15.5639 15.1958 15.6511 14.9615 15.6511H14.4746L14.6718 14.9976H14.8198C14.9431 14.9976 15.0294 14.985 15.0725 14.9602C15.1218 14.9291 15.1773 14.8606 15.2327 14.7485L15.51 14.2382H16.6134L16.4224 14.6116V14.6055V14.6055ZM18.5134 15.7258C18.5134 15.7258 18.8154 15.4458 19.3333 15.3587C19.4504 15.3338 20.19 15.3461 20.19 15.3461L20.301 14.9727H18.7415L18.5134 15.7321L18.5134 15.7258ZM19.9804 16.0121H18.4333L18.3408 16.3296H19.6846C19.8448 16.3109 19.8756 16.3357 19.888 16.3234L19.9865 16.0121H19.9804V16.0121ZM17.9711 14.2444H18.9141L18.7785 14.7237C18.7785 14.7237 19.0744 14.481 19.2839 14.3938C19.4935 14.3191 19.9619 14.2444 19.9619 14.2444L21.4906 14.2382L20.9666 15.9935C20.8803 16.2923 20.7756 16.4853 20.7139 16.5786C20.6585 16.6657 20.5906 16.7466 20.4551 16.8213C20.3256 16.8898 20.2084 16.9333 20.0976 16.9396C19.9989 16.9458 19.8386 16.952 19.6291 16.952H18.156L17.743 18.34C17.7061 18.477 17.6875 18.5453 17.7122 18.5827C17.7307 18.6138 17.7861 18.6512 17.854 18.6512L18.5011 18.5889L18.2792 19.3483H17.5519C17.3177 19.3483 17.1512 19.3421 17.0341 19.3358C16.9232 19.3234 16.806 19.3358 16.7259 19.2736C16.6581 19.2114 16.5534 19.1305 16.5595 19.0495C16.5657 18.9748 16.5965 18.8503 16.6458 18.676L17.9711 14.2444V14.2444Z" fill="#FEFEFE"/>
<path d="M20.7178 17.0377L20.6315 17.4609C20.5946 17.5916 20.5637 17.6912 20.4651 17.7784C20.3603 17.8655 20.2432 17.9588 19.9597 17.9588L19.4358 17.9837L19.4296 18.4568C19.4235 18.5874 19.4605 18.5749 19.4789 18.5998C19.5036 18.6247 19.5221 18.631 19.5467 18.6434L19.7131 18.6309L20.2125 18.6061L20.0029 19.3032H19.4296C19.029 19.3032 18.727 19.2907 18.6345 19.2161C18.5359 19.1538 18.5236 19.0791 18.5236 18.9421L18.5605 17.0873H19.4789L19.4666 17.467H19.6885C19.7625 17.467 19.818 17.4608 19.8488 17.4421C19.8795 17.4234 19.8981 17.3923 19.9104 17.3487L20.0029 17.05H20.724L20.7178 17.0377ZM7.65153 7.74592C7.62073 7.8953 7.02904 10.6402 7.02904 10.6402C6.89955 11.1941 6.80711 11.5925 6.49893 11.8477C6.32018 11.9971 6.11058 12.0655 5.87025 12.0655C5.4819 12.0655 5.26003 11.8726 5.22304 11.5054L5.21685 11.3809C5.21685 11.3809 5.33394 10.6402 5.33394 10.634C5.33394 10.634 5.95036 8.13182 6.06132 7.80191C6.06746 7.78326 6.06746 7.77082 6.06746 7.76456C4.86548 7.77707 4.64981 7.76456 4.63748 7.74592C4.63128 7.77082 4.60049 7.92639 4.60049 7.92639L3.97175 10.7461L3.91624 10.9826L3.81152 11.7669C3.81152 11.9971 3.85465 12.1901 3.94715 12.3457C4.2368 12.8561 5.05662 12.9308 5.51889 12.9308C6.11678 12.9308 6.67768 12.8 7.05364 12.5698C7.71318 12.1776 7.88573 11.5614 8.03368 11.02L8.10766 10.7398C8.10766 10.7398 8.74254 8.14433 8.8535 7.80822C8.85964 7.78952 8.85964 7.77707 8.86583 7.77088C7.99056 7.77707 7.73783 7.77088 7.65153 7.75217V7.74592V7.74592ZM11.1675 12.9054C10.7422 12.8992 10.5881 12.8992 10.0888 12.9241L10.0703 12.8867C10.1134 12.6937 10.1627 12.5071 10.1997 12.3141L10.2614 12.0527C10.3538 11.6481 10.4401 11.1688 10.4525 11.0257C10.4648 10.9385 10.4894 10.7207 10.2429 10.7207C10.1381 10.7207 10.0333 10.7705 9.92241 10.8202C9.86071 11.0381 9.74361 11.6481 9.68196 11.922C9.55866 12.5071 9.55253 12.5755 9.49708 12.8619L9.46009 12.8992C9.02248 12.893 8.86839 12.893 8.36294 12.9179L8.33828 12.8743C8.42459 12.5257 8.5047 12.1771 8.58487 11.8286C8.79442 10.8887 8.84993 10.5277 8.90532 10.0484L8.9485 10.0235C9.44162 9.9551 9.55872 9.93639 10.095 9.83061L10.1381 9.88041L10.058 10.1792C10.1504 10.1232 10.2367 10.0671 10.3292 10.0235C10.5819 9.89905 10.8593 9.8617 11.0134 9.8617C11.2476 9.8617 11.5065 9.9302 11.6113 10.2041C11.7099 10.4468 11.6482 10.7456 11.5126 11.3369L11.4448 11.6357C11.3092 12.2954 11.2846 12.4137 11.2106 12.8618L11.1613 12.8992L11.1675 12.9054V12.9054ZM12.8982 12.907C12.6394 12.907 12.4729 12.9008 12.3127 12.907C12.1524 12.907 11.9983 12.9195 11.758 12.9257L11.7456 12.907L11.7333 12.8821C11.8011 12.6332 11.8319 12.546 11.8689 12.4589C11.8997 12.3717 11.9305 12.2846 11.9922 12.0294C12.0661 11.6995 12.1155 11.4692 12.1462 11.2638C12.1832 11.0708 12.2018 10.9029 12.2264 10.7099L12.2449 10.6974L12.2633 10.6788C12.5223 10.6414 12.6825 10.6165 12.849 10.5916C13.0154 10.5667 13.1879 10.5357 13.453 10.4859L13.4653 10.5108L13.4715 10.5357L13.3236 11.1518C13.2743 11.3573 13.225 11.5626 13.1819 11.7681C13.0893 12.2038 13.0462 12.3656 13.0278 12.4838C13.0031 12.5959 12.9969 12.6519 12.9599 12.876L12.9352 12.8946L12.9106 12.9133L12.8982 12.907V12.907ZM15.6346 11.3778C15.6162 11.4898 15.5176 11.9068 15.3881 12.0811C15.2956 12.2118 15.1908 12.2928 15.0676 12.2928C15.0306 12.2928 14.821 12.2928 14.8149 11.9753C14.8149 11.8197 14.8457 11.6578 14.8827 11.4836C14.9936 10.9794 15.1293 10.5624 15.4682 10.5624C15.7333 10.5624 15.7517 10.8736 15.6346 11.3778V11.3778ZM16.7503 11.4275C16.8982 10.7678 16.7811 10.4566 16.6394 10.2698C16.4174 9.98351 16.023 9.89017 15.6162 9.89017C15.3695 9.89017 14.7902 9.91507 14.3341 10.3383C14.0075 10.6433 13.8534 11.0603 13.7671 11.4587C13.6745 11.8632 13.5698 12.5915 14.2355 12.8654C14.4388 12.9525 14.7347 12.9774 14.9258 12.9774C15.4128 12.9774 15.912 12.8405 16.288 12.4421C16.5776 12.1185 16.7071 11.633 16.7564 11.4275H16.7503V11.4275ZM27.1398 12.9809C26.622 12.9747 26.4741 12.9747 25.9994 12.9996L25.9686 12.9623C26.098 12.4705 26.2275 11.9726 26.3446 11.4747C26.4924 10.8273 26.5294 10.5535 26.5788 10.1738L26.6157 10.1427C27.1274 10.068 27.2691 10.0494 27.8054 9.9498L27.8177 9.99334C27.7191 10.4041 27.6266 10.8087 27.528 11.2133C27.3308 12.0661 27.2629 12.5018 27.1891 12.9499L27.1398 12.9873V12.9809V12.9809Z" fill="#FEFEFE"/>
<path d="M26.3962 11.4608C26.3715 11.5666 26.2729 11.9899 26.1435 12.1642C26.0572 12.2886 25.8476 12.3696 25.7305 12.3696C25.6935 12.3696 25.4901 12.3696 25.4778 12.0584C25.4778 11.9027 25.5086 11.7409 25.5456 11.5666C25.6566 11.0749 25.7922 10.6579 26.1311 10.6579C26.3962 10.6579 26.5133 10.9628 26.3962 11.467V11.4608ZM27.4132 11.5106C27.5611 10.8509 26.9571 11.4546 26.8647 11.2368C26.7167 10.8944 26.8091 10.2097 26.2175 9.97946C25.9894 9.88607 25.4531 10.0044 24.997 10.4276C24.6765 10.7264 24.5162 11.1434 24.43 11.5417C24.3374 11.9401 24.2327 12.6746 24.8922 12.9298C25.1018 13.0231 25.2929 13.048 25.4839 13.0356C26.1497 12.9982 26.6551 11.9836 27.0311 11.5853C27.3207 11.2679 27.3701 11.7036 27.4132 11.5106V11.5106ZM19.6737 12.9052C19.2484 12.8989 19.1004 12.8989 18.6012 12.9238L18.5827 12.8865C18.6258 12.6935 18.6752 12.5068 18.7182 12.3138L18.7737 12.0524C18.8662 11.6479 18.9586 11.1686 18.9647 11.0254C18.9771 10.9383 19.0017 10.7205 18.7613 10.7205C18.6566 10.7205 18.5457 10.7702 18.4409 10.82C18.3854 11.0379 18.2621 11.6479 18.2004 11.9217C18.0833 12.5068 18.071 12.5753 18.0156 12.8616L17.9786 12.8989C17.541 12.8927 17.3869 12.8927 16.8814 12.9176L16.8568 12.874C16.9431 12.5255 17.0232 12.1769 17.1034 11.8283C17.313 10.8884 17.3623 10.5275 17.4238 10.0482L17.4608 10.0233C17.954 9.95486 18.0773 9.93616 18.6073 9.83037L18.6505 9.88017L18.5765 10.1789C18.6628 10.1229 18.7553 10.0669 18.8416 10.0233C19.0943 9.89881 19.3716 9.86147 19.5256 9.86147C19.76 9.86147 20.0127 9.92996 20.1235 10.2038C20.2222 10.4466 20.1545 10.7453 20.0188 11.3367L19.951 11.6354C19.8092 12.2952 19.7908 12.4134 19.7167 12.8616L19.6675 12.8989L19.6737 12.9052V12.9052ZM23.3666 7.75188L23.0091 7.75813C22.0845 7.77058 21.7147 7.76432 21.5668 7.74568C21.5545 7.81418 21.5298 7.93241 21.5298 7.93241C21.5298 7.93241 21.197 9.47604 21.197 9.48223C21.197 9.48223 20.408 12.7687 20.371 12.9242C21.1785 12.9118 21.5052 12.9118 21.6469 12.9305C21.6778 12.7749 21.8626 11.8599 21.8688 11.8599C21.8688 11.8599 22.0291 11.1877 22.0353 11.1628C22.0353 11.1628 22.0845 11.0943 22.1338 11.0632H22.2078C22.9043 11.0632 23.6871 11.0632 24.3036 10.6089C24.7227 10.2976 25.0062 9.83079 25.1357 9.27061C25.1665 9.13367 25.1911 8.97184 25.1911 8.80381C25.1911 8.58593 25.148 8.37437 25.0247 8.20628C24.7103 7.76432 24.0877 7.75813 23.3666 7.75188V7.75188ZM23.8289 9.364C23.755 9.70631 23.533 9.99888 23.2495 10.1358C23.0152 10.254 22.7317 10.2665 22.4359 10.2665H22.2448L22.2571 10.1918C22.2571 10.1918 22.6085 8.64818 22.6085 8.65443L22.6208 8.57348L22.627 8.51124L22.7687 8.52375C22.7687 8.52375 23.496 8.58593 23.5084 8.58593C23.7918 8.69797 23.9152 8.98429 23.8289 9.364ZM31.4058 9.88017L31.3628 9.83037C30.8388 9.93616 30.7402 9.95486 30.2594 10.0234L30.2225 10.0606C30.2225 10.0669 30.2163 10.0732 30.2163 10.0855V10.0793C29.8588 10.9196 29.8649 10.7391 29.5753 11.3989C29.5753 11.3677 29.5753 11.3491 29.569 11.318L29.4951 9.88636L29.452 9.83657C28.8972 9.94241 28.8849 9.96106 28.3795 10.0296L28.3425 10.0669C28.3363 10.0855 28.3363 10.1042 28.3363 10.1229L28.3425 10.1291C28.4041 10.459 28.3918 10.3843 28.4534 10.901C28.4842 11.1561 28.5212 11.4113 28.552 11.6603C28.6013 12.0836 28.6322 12.2889 28.6938 12.9301C28.3485 13.5027 28.2684 13.7205 27.9357 14.2246L27.9541 14.2744C28.4535 14.2558 28.5644 14.2558 28.9342 14.2558L29.0144 14.1624C29.2917 13.5588 31.4122 9.88642 31.4122 9.88642L31.4058 9.88017V9.88017ZM13.375 10.2925C13.6585 10.0933 13.6955 9.81942 13.4551 9.67629C13.2147 9.5331 12.7895 9.5767 12.5059 9.77588C12.2224 9.96886 12.1916 10.2427 12.432 10.3921C12.6662 10.529 13.0915 10.4916 13.375 10.2925V10.2925Z" fill="#FEFEFE"/>
<path d="M28.9313 14.2448L28.5182 14.9607C28.3888 15.2034 28.1423 15.3901 27.7601 15.3901L27.1006 15.3777L27.2917 14.7304H27.4211C27.4889 14.7304 27.5382 14.7242 27.5752 14.7055C27.6122 14.693 27.6308 14.6681 27.6615 14.6308L27.9081 14.2387H28.9374L28.9313 14.2448V14.2448Z" fill="#FEFEFE"/>
</svg>
