<svg width="55" height="26" viewBox="0 0 55 26" fill="none" xmlns="http://www.w3.org/2000/svg">
<g clip-path="url(#clip0_1985_558)">
<path fill-rule="evenodd" clip-rule="evenodd" d="M5.08599 5.50131C5.57735 5.49837 7.03765 5.36685 7.6562 7.45446C8.07287 8.8607 8.73659 11.1642 9.64736 14.3649H10.0183C10.995 10.9905 11.666 8.687 12.0312 7.45446C12.6562 5.3451 14.2187 5.50135 14.8437 5.50135L19.6657 5.50136V20.5012H14.7509V11.6616H14.4214L11.6817 20.5012H7.98398L5.24427 11.655H4.91471V20.5012H0V5.50136L5.08599 5.50131ZM26.7231 5.50136V14.3476H27.1151L30.4477 7.0734C31.0947 5.62581 32.4734 5.50136 32.4734 5.50136H37.2294V20.5013H32.2121V11.655H31.82L28.5527 18.9292C27.9058 20.3703 26.4617 20.5013 26.4617 20.5013H21.7057V5.50136H26.7231ZM54.5716 12.6294C53.8717 14.6127 51.6739 16.033 49.2405 16.033H43.9789V20.5013H39.2077V12.6294H54.5716Z" fill="#0F754E"/>
<path fill-rule="evenodd" clip-rule="evenodd" d="M49.4712 5.50135H38.958C39.2082 8.84084 42.0841 11.6997 45.0612 11.6997H54.9037C55.4717 8.92415 53.5164 5.50135 49.4712 5.50135Z" fill="url(#paint0_linear_1985_558)"/>
</g>
<defs>
<linearGradient id="paint0_linear_1985_558" x1="55.0002" y1="9.40035" x2="38.958" y2="9.40035" gradientUnits="userSpaceOnUse">
<stop stop-color="#1F5CD7"/>
<stop offset="1" stop-color="#02AEFF"/>
</linearGradient>
<clipPath id="clip0_1985_558">
<rect width="55" height="26" fill="white"/>
</clipPath>
</defs>
</svg>
