<svg width="51" height="26" viewBox="0 0 51 26" fill="none" xmlns="http://www.w3.org/2000/svg">
<path d="M25.2519 4.97297L21.8442 21.0694H17.7233L21.1323 4.97297H25.2519ZM42.5904 15.3659L44.7594 9.32229L46.0078 15.3659H42.5904ZM47.1885 21.0694H51L47.673 4.97297H44.1551C43.364 4.97297 42.6969 5.43822 42.4013 6.1539L36.2172 21.0694H40.5445L41.4038 18.665H46.691L47.1885 21.0694ZM36.4324 15.814C36.4499 11.5658 30.6184 11.3316 30.6585 9.43389C30.6709 8.85634 31.2153 8.24235 32.4065 8.08542C32.997 8.00727 34.624 7.9476 36.4692 8.8058L37.193 5.39257C36.2016 5.02901 34.9258 4.67895 33.3382 4.67895C29.2649 4.67895 26.3983 6.86696 26.3741 9.99979C26.3478 12.3171 28.4203 13.6101 29.9815 14.3801C31.5877 15.1687 32.1265 15.6754 32.1205 16.3808C32.109 17.4606 30.8395 17.9373 29.6529 17.9559C27.5817 17.9881 26.3797 17.3896 25.4214 16.9395L24.6745 20.4658C25.6374 20.9122 27.4147 21.3016 29.2575 21.3211C33.587 21.3211 36.419 19.1603 36.4324 15.814V15.814ZM19.3636 4.97297L12.6867 21.0694H8.33053L5.0448 8.22369C4.84524 7.43238 4.67197 7.14268 4.06531 6.80942C3.07488 6.26633 1.43902 5.75707 0 5.4408L0.0977757 4.97297H7.11009C8.00392 4.97297 8.80735 5.57418 9.01026 6.61427L10.7456 15.9286L15.0345 4.97297H19.3636Z" fill="#1434CB"/>
</svg>
