<svg width="100" height="100" viewBox="0 0 100 100" fill="none" xmlns="http://www.w3.org/2000/svg">
<circle cx="50" cy="50" r="49.5" stroke="url(#paint0_linear_1350_1202)"/>
<path d="M63.1028 29.7612V30.6356V33.051V36.6668V41.1916V46.2596V51.5697V56.8206V61.6467V65.7614V68.8092V70.4887V70.7159C63.1028 70.7505 63.083 71.0172 63.0979 70.8542C63.1127 70.7011 63.0781 70.9085 63.0682 70.9481C63.0583 70.9876 63.0386 71.032 63.0287 71.0716C63.004 71.1802 63.0534 70.9777 63.0682 70.9826C63.0732 70.9876 62.9497 71.1901 62.9398 71.2049C62.8509 71.3531 63.0633 71.0864 62.9398 71.2049C62.8953 71.2494 62.8509 71.2938 62.8064 71.3383C62.673 71.4717 62.8509 71.2889 62.8558 71.3037C62.8558 71.3037 62.7817 71.3531 62.7768 71.3581C62.7471 71.3729 62.7224 71.3926 62.6928 71.4075C62.673 71.4173 62.6533 71.4272 62.6385 71.4371C62.5594 71.4717 62.5644 71.4766 62.6385 71.442C62.6385 71.4173 62.7471 71.4075 62.6385 71.442C62.6088 71.4519 62.5792 71.4618 62.5446 71.4717C62.515 71.4816 62.4804 71.4865 62.4508 71.4964C62.3717 71.5211 62.3174 71.4766 62.5199 71.4964C62.4557 71.4914 62.3816 71.5062 62.3174 71.5062H62.2877C61.774 71.5112 61.2653 71.5062 60.7515 71.5062H57.3678H52.7295H47.4984H42.2723H37.6487H34.2947C33.7958 71.5062 33.2968 71.5112 32.798 71.5062H32.7733C32.7387 71.5062 32.7041 71.5062 32.6695 71.5013C32.4423 71.4865 32.8029 71.5507 32.635 71.4964C32.5757 71.4766 32.5115 71.4618 32.4473 71.442C32.3386 71.4124 32.4473 71.4223 32.4473 71.442C32.5263 71.4766 32.5263 71.4766 32.4473 71.4371C32.4275 71.4272 32.4077 71.4173 32.3929 71.4075C32.3781 71.3976 32.2299 71.3087 32.2299 71.3037C32.2398 71.2889 32.4127 71.4717 32.2793 71.3383C32.2596 71.3136 32.2349 71.2938 32.2102 71.2741C32.1855 71.2494 32.1657 71.2296 32.1459 71.2049C32.0817 71.1457 32.0965 71.1901 32.141 71.2049C32.2003 71.2247 32.1855 71.279 32.141 71.2049C32.1163 71.1605 32.0867 71.1111 32.057 71.0666C32.0521 71.0617 32.0126 70.9827 32.0126 70.9827C32.0225 70.9777 32.0768 71.1753 32.0521 71.0716C32.0323 71.0024 32.0076 70.9234 31.9879 70.8542C31.9335 70.6863 31.9879 71.037 31.9829 70.8542C31.9829 70.8098 31.978 70.7653 31.978 70.7159V70.4739V68.7697V65.6824V61.5676V56.712V51.4809V46.1757V41.0929V36.6027V32.9918V30.6158C31.978 30.2898 31.9681 29.9637 31.9829 29.6377C31.9879 29.4797 31.9978 29.7069 31.9731 29.702C31.9731 29.702 31.9928 29.613 31.9928 29.6081C32.0126 29.5488 32.0373 29.4846 32.0521 29.4204C32.0768 29.3117 32.0274 29.5143 32.0126 29.5093C32.0126 29.5093 32.062 29.4105 32.0718 29.3957C32.0867 29.3661 32.1064 29.3414 32.1212 29.3117C32.1311 29.292 32.1459 29.2772 32.1558 29.2574C32.1855 29.2129 32.1805 29.2228 32.1361 29.2821C32.0867 29.2969 32.0768 29.3463 32.141 29.2821C32.1706 29.2525 32.2003 29.2179 32.2299 29.1932C32.2497 29.1734 32.2793 29.1537 32.2991 29.129C32.3682 29.045 32.2299 29.1981 32.225 29.1833C32.22 29.1734 32.3929 29.0796 32.4127 29.0647C32.4176 29.0598 32.4967 29.0203 32.4967 29.0203C32.5016 29.0302 32.2842 29.0894 32.4374 29.045C32.5065 29.0252 32.5905 29.0153 32.6597 28.9857C32.7486 28.9462 32.5806 28.9956 32.5609 28.9956C32.5905 29.0005 32.63 28.9907 32.6597 28.9857C32.6942 28.9857 32.7288 28.9808 32.7634 28.9808H32.798H33.3216H35.8951H39.9951H45.0286H50.3338H55.3129H59.3635H61.8333H62.2828H62.3075H62.3767C62.4112 28.9808 62.4458 28.9857 62.4755 28.9857C62.5891 28.9906 62.3767 28.9808 62.3767 28.9758C62.3767 28.9709 62.594 29.0302 62.5989 29.0351C62.6039 29.0351 62.6928 29.0647 62.6928 29.0697C62.6879 29.0894 62.515 28.9709 62.6039 29.0351C62.6632 29.0746 62.7373 29.1092 62.7965 29.1487C62.9447 29.2376 62.678 29.0252 62.7965 29.1487C62.8459 29.1981 62.9003 29.2623 62.9497 29.3068C63.0336 29.3759 62.8805 29.2376 62.8953 29.2327C62.8953 29.2327 62.9447 29.3068 62.9497 29.3117C62.9595 29.3315 63.0633 29.5044 63.0583 29.5044C63.0485 29.5093 62.9941 29.3117 63.0188 29.4155C63.0287 29.4451 63.0386 29.4747 63.0485 29.5093C63.0534 29.5241 63.0979 29.702 63.0979 29.702C63.0682 29.7069 63.088 29.4797 63.088 29.6377C63.0979 29.6723 63.1028 29.7168 63.1028 29.7612C63.1127 30.2799 63.5523 30.7739 64.0908 30.7492C64.6193 30.7245 65.0886 30.3145 65.0787 29.7612C65.0491 28.2398 63.834 27.0197 62.3125 27H61.9322H59.5414H55.5304H50.5068H45.1275H40.0594H35.8953H33.3019H32.7981C31.6126 27.0099 30.595 27.7212 30.1702 28.8228C29.9677 29.3513 30.0022 29.9194 30.0022 30.4775V32.7843V36.3607V40.8755V45.9633V51.3426V56.6527V61.538V65.7071V68.8042V70.4936C30.0022 70.6072 29.9973 70.7257 30.0072 70.8394C30.1158 72.3064 31.2865 73.4475 32.7734 73.4673C33.2278 73.4722 33.6872 73.4673 34.1416 73.4673H37.4611H42.0599H47.3453H52.6555H57.3481H60.7664C61.2752 73.4673 61.7889 73.4722 62.2977 73.4673C63.5178 73.4525 64.5551 72.6967 64.9552 71.5507C65.0688 71.2296 65.0886 70.8838 65.0886 70.543V68.9722V65.9639V61.8591V56.9935V51.7278V46.3437V41.2015V36.6372V32.9967V30.5861V29.7513C65.0886 29.2326 64.6341 28.7387 64.1006 28.7633C63.5572 28.7979 63.1028 29.2079 63.1028 29.7611L63.1028 29.7612Z" fill="url(#paint1_linear_1350_1202)"/>
<path d="M71.6584 36.5781V40.7719V49.8261V58.6087V61.2909V61.9281V62.0319C71.6584 62.0763 71.6535 62.1257 71.6535 62.1702C71.6485 62.3925 71.7177 61.9578 71.6485 62.1702C71.6288 62.2295 71.614 62.2937 71.5942 62.3579C71.5349 62.5653 71.7078 62.1751 71.5893 62.3579C71.5547 62.4122 71.525 62.4666 71.4905 62.5209C71.3917 62.6938 71.609 62.427 71.5102 62.4962C71.4559 62.5357 71.4015 62.6049 71.3571 62.6543C71.2089 62.8074 71.5399 62.5505 71.3571 62.6543C71.3028 62.6839 71.2435 62.7185 71.1941 62.7531C71.0113 62.8667 71.4015 62.6987 71.1941 62.758C71.1299 62.7778 71.0656 62.7926 71.0064 62.8123C70.794 62.8815 71.2287 62.8123 71.0064 62.8173C70.952 62.8173 70.9224 62.8222 70.8681 62.8222H70.8384H70.4037H68.4575H64.3477H64.0909C64.4218 63.1532 64.7478 63.4792 65.0788 63.8102V60.9254V53.995V45.6124V38.3659C65.0788 37.1952 65.1233 36.0195 65.0788 34.8488V34.7994L64.0909 35.7874H70.7495H70.8631C70.9273 35.7874 71.0064 35.8022 71.0706 35.7973C70.8335 35.8121 70.9718 35.7874 71.0657 35.8121C71.1052 35.822 71.1496 35.8368 71.1892 35.8516C71.288 35.8911 71.2682 35.8813 71.1299 35.8269C71.1299 35.822 71.288 35.9109 71.2978 35.9208C71.3324 35.9455 71.367 35.9652 71.4016 35.9899C71.2879 35.901 71.2682 35.8862 71.3522 35.9553C71.3867 35.9949 71.4263 36.0294 71.4658 36.069C71.6387 36.232 71.3966 35.9356 71.4905 36.0937C71.5201 36.148 71.5547 36.2073 71.5893 36.2567C71.6337 36.3505 71.6288 36.3308 71.5695 36.1974C71.5843 36.2369 71.5992 36.2764 71.614 36.3209C71.6189 36.3357 71.6634 36.5135 71.6634 36.5135C71.6485 36.3604 71.6436 36.3406 71.6535 36.4493C71.6535 36.4888 71.6584 36.5333 71.6584 36.5777C71.6683 37.0964 72.1079 37.5904 72.6464 37.5657C73.1749 37.541 73.6442 37.131 73.6344 36.5777C73.6047 35.0563 72.3945 33.8412 70.8682 33.8165C70.5224 33.8116 70.1766 33.8165 69.8259 33.8165H65.3209H64.091C63.5575 33.8165 63.103 34.271 63.103 34.8045V37.6893V44.6197V53.0023V60.2488C63.103 61.4195 63.0783 62.5952 63.103 63.7659V63.8153C63.103 64.3487 63.5575 64.8032 64.091 64.8032H67.3561C68.5218 64.8032 69.6875 64.818 70.8534 64.8032C72.2958 64.7835 73.4319 63.7214 73.6097 62.3087C73.6295 62.1309 73.6295 61.958 73.6295 61.7802V59.6413V55.9217V51.2537V46.3239V41.819V38.3661C73.6295 37.7981 73.6394 37.23 73.6295 36.662V36.5879C73.6295 36.0692 73.175 35.5752 72.6415 35.5999C72.108 35.6147 71.6585 36.0247 71.6585 36.5779L71.6584 36.5781Z" fill="url(#paint2_linear_1350_1202)"/>
<path d="M57.5506 34.7499V41.458V44.6638C57.5506 44.7329 57.5457 44.7972 57.5506 44.8663C57.5506 44.891 57.4864 44.8367 57.5506 44.9355C57.5556 44.891 57.5605 44.8515 57.5654 44.807C57.5556 44.8515 57.5457 44.891 57.5309 44.9355C57.5704 44.9355 57.5803 44.7033 57.5457 44.8762C57.5358 44.8959 57.521 44.9108 57.5111 44.9305C57.6 44.8169 57.6099 44.7972 57.5407 44.8762C57.5753 44.8515 57.6099 44.8268 57.6395 44.8021C57.605 44.8268 57.5654 44.8515 57.5309 44.8712C57.5704 44.8564 57.6099 44.8416 57.6494 44.8268C57.6099 44.8416 57.5654 44.8564 57.521 44.8614C57.5062 44.8219 57.7828 44.8564 57.5803 44.8465C57.4518 44.8416 57.3185 44.8465 57.19 44.8465H50.8277H41.877H38.5576C38.0883 44.8465 37.6142 44.8268 37.1448 44.8465H37.1399C36.9077 44.8564 37.3572 44.8959 37.1349 44.8465C36.9127 44.7972 37.3325 44.9404 37.1349 44.8416C36.9472 44.7527 37.2486 44.9453 37.1596 44.8564C37.0707 44.7675 37.2634 45.0688 37.1745 44.8811C37.0757 44.6786 37.2189 45.0985 37.1695 44.8811C37.1201 44.6588 37.1596 45.1083 37.1695 44.8762V44.7033V43.5128V39.2795V35.4463C37.1695 35.2191 37.1794 34.9869 37.1695 34.7597C37.1695 34.735 37.2288 34.7795 37.1695 34.6906C37.1646 34.735 37.1596 34.7745 37.1547 34.819C37.1646 34.7745 37.1745 34.735 37.1893 34.6906C37.1745 34.7301 37.1596 34.7696 37.1448 34.8091C37.1646 34.7696 37.1893 34.735 37.214 34.7004C37.1893 34.735 37.1646 34.7696 37.1399 34.7992C37.2189 34.7251 37.1992 34.735 37.0855 34.8289C37.1053 34.819 37.1201 34.8042 37.1399 34.7943C37.214 34.7548 37.214 34.7498 37.1399 34.7844C37.1201 34.7943 37.1004 34.7992 37.0806 34.8091C37.1201 34.7943 37.1646 34.7795 37.209 34.7745C37.2189 34.8091 36.9522 34.7795 37.1547 34.7894H37.2733H42.8501H51.8502H57.4666H57.5901H57.595C57.758 34.7844 57.5259 34.8091 57.5358 34.7745C57.5555 34.7795 57.5802 34.7844 57.6 34.7894C57.7037 34.8239 57.6839 34.8141 57.5456 34.7647C57.5654 34.7745 57.5851 34.7844 57.6 34.7992C57.6889 34.8585 57.6741 34.8486 57.5555 34.7597C57.7136 34.8882 57.4765 34.577 57.5654 34.7597C57.6395 34.9474 57.4962 34.5276 57.5506 34.7498C57.6 34.9721 57.5456 34.5127 57.5506 34.7498C57.5703 35.2636 57.9902 35.7625 58.5385 35.7378C59.0572 35.7131 59.5462 35.3031 59.5265 34.7498C59.487 33.6335 58.6225 32.8036 57.5112 32.7986H56.8937H54.0535H45.0781H37.886H37.2192C36.3053 32.8036 35.4606 33.3667 35.2433 34.2855C35.1643 34.6164 35.189 34.9721 35.189 35.3129V36.9232V44.7131V44.9452C35.2334 45.8047 35.8262 46.5704 36.6758 46.7729C36.9327 46.8321 37.1796 46.8272 37.4365 46.8272H39.8273H48.4767H56.3011C56.7506 46.8272 57.2099 46.847 57.6595 46.8272C58.7857 46.7679 59.5415 45.8492 59.5415 44.7525V43.5768V35.3869V34.7497C59.5415 34.231 59.087 33.737 58.5535 33.7617C58.0052 33.7864 57.5507 34.1964 57.5507 34.7497L57.5506 34.7499Z" fill="url(#paint3_linear_1350_1202)"/>
<path d="M40.1583 51.2288H37.1847C36.666 51.2288 36.172 51.6832 36.1967 52.2168C36.2213 52.7503 36.6314 53.2047 37.1847 53.2047H40.1583C40.677 53.2047 41.171 52.7503 41.1463 52.2168C41.1217 51.6832 40.7116 51.2288 40.1583 51.2288Z" fill="url(#paint4_linear_1350_1202)"/>
<path d="M48.5307 51.2288H45.557C45.0383 51.2288 44.5443 51.6832 44.569 52.2168C44.5937 52.7502 45.0037 53.2047 45.557 53.2047H48.5307C49.0493 53.2047 49.5433 52.7503 49.5186 52.2168C49.4939 51.6833 49.0839 51.2288 48.5307 51.2288Z" fill="url(#paint5_linear_1350_1202)"/>
<path d="M56.9037 51.2288H53.93C53.4114 51.2288 52.9174 51.6832 52.942 52.2168C52.9667 52.7503 53.3767 53.2047 53.93 53.2047H56.9037C57.4224 53.2047 57.9163 52.7503 57.8917 52.2168C57.867 51.6832 57.457 51.2288 56.9037 51.2288Z" fill="url(#paint6_linear_1350_1202)"/>
<path d="M40.2172 58.1495H37.2435C36.7248 58.1495 36.2309 58.6039 36.2555 59.1375C36.2802 59.671 36.6902 60.1254 37.2435 60.1254H40.2172C40.7358 60.1254 41.2298 59.671 41.2052 59.1375C41.1805 58.599 40.7705 58.1495 40.2172 58.1495Z" fill="url(#paint7_linear_1350_1202)"/>
<path d="M48.5902 58.1495H45.6165C45.0979 58.1495 44.6039 58.6039 44.6286 59.1375C44.6533 59.6709 45.0633 60.1254 45.6165 60.1254H48.5902C49.1089 60.1254 49.6029 59.671 49.5782 59.1375C49.5584 58.599 49.1485 58.1495 48.5902 58.1495Z" fill="url(#paint8_linear_1350_1202)"/>
<path d="M56.9625 58.1495H53.9889C53.4702 58.1495 52.9762 58.6039 53.0009 59.1375C53.0255 59.671 53.4356 60.1254 53.9889 60.1254H56.9625C57.4812 60.1254 57.9752 59.671 57.9505 59.1375C57.9308 58.599 57.5208 58.1495 56.9625 58.1495Z" fill="url(#paint9_linear_1350_1202)"/>
<path d="M40.2172 65.0648H37.2435C36.7248 65.0648 36.2309 65.5192 36.2555 66.0528C36.2802 66.5863 36.6902 67.0408 37.2435 67.0408H40.2172C40.7358 67.0408 41.2298 66.5863 41.2052 66.0528C41.1805 65.5144 40.7705 65.0648 40.2172 65.0648Z" fill="url(#paint10_linear_1350_1202)"/>
<path d="M48.5902 65.0648H45.6165C45.0979 65.0648 44.6039 65.5192 44.6286 66.0528C44.6533 66.5863 45.0633 67.0408 45.6165 67.0408H48.5902C49.1089 67.0408 49.6029 66.5863 49.5782 66.0528C49.5584 65.5144 49.1485 65.0648 48.5902 65.0648Z" fill="url(#paint11_linear_1350_1202)"/>
<path d="M56.9625 65.0648H53.9889C53.4702 65.0648 52.9762 65.5192 53.0009 66.0528C53.0255 66.5863 53.4356 67.0408 53.9889 67.0408H56.9625C57.4812 67.0408 57.9752 66.5863 57.9505 66.0528C57.9308 65.5144 57.5208 65.0648 56.9625 65.0648Z" fill="url(#paint12_linear_1350_1202)"/>
<defs>
<linearGradient id="paint0_linear_1350_1202" x1="0" y1="100" x2="100" y2="0" gradientUnits="userSpaceOnUse">
<stop stop-color="#FE5000"/>
<stop offset="1" stop-color="#FE9800"/>
</linearGradient>
<linearGradient id="paint1_linear_1350_1202" x1="30" y1="73.4695" x2="74.6943" y2="39.7213" gradientUnits="userSpaceOnUse">
<stop stop-color="#FE5000"/>
<stop offset="1" stop-color="#FE9800"/>
</linearGradient>
<linearGradient id="paint2_linear_1350_1202" x1="63.092" y1="64.8098" x2="81.9907" y2="58.3818" gradientUnits="userSpaceOnUse">
<stop stop-color="#FE5000"/>
<stop offset="1" stop-color="#FE9800"/>
</linearGradient>
<linearGradient id="paint3_linear_1350_1202" x1="35.1853" y1="46.836" x2="47.3313" y2="25.7615" gradientUnits="userSpaceOnUse">
<stop stop-color="#FE5000"/>
<stop offset="1" stop-color="#FE9800"/>
</linearGradient>
<linearGradient id="paint4_linear_1350_1202" x1="36.1958" y1="53.2047" x2="37.5562" y2="49.7957" gradientUnits="userSpaceOnUse">
<stop stop-color="#FE5000"/>
<stop offset="1" stop-color="#FE9800"/>
</linearGradient>
<linearGradient id="paint5_linear_1350_1202" x1="44.5681" y1="53.2047" x2="45.9285" y2="49.7957" gradientUnits="userSpaceOnUse">
<stop stop-color="#FE5000"/>
<stop offset="1" stop-color="#FE9800"/>
</linearGradient>
<linearGradient id="paint6_linear_1350_1202" x1="52.9412" y1="53.2047" x2="54.3016" y2="49.7957" gradientUnits="userSpaceOnUse">
<stop stop-color="#FE5000"/>
<stop offset="1" stop-color="#FE9800"/>
</linearGradient>
<linearGradient id="paint7_linear_1350_1202" x1="36.2546" y1="60.1254" x2="37.6151" y2="56.7164" gradientUnits="userSpaceOnUse">
<stop stop-color="#FE5000"/>
<stop offset="1" stop-color="#FE9800"/>
</linearGradient>
<linearGradient id="paint8_linear_1350_1202" x1="44.6277" y1="60.1254" x2="45.9881" y2="56.7164" gradientUnits="userSpaceOnUse">
<stop stop-color="#FE5000"/>
<stop offset="1" stop-color="#FE9800"/>
</linearGradient>
<linearGradient id="paint9_linear_1350_1202" x1="53" y1="60.1254" x2="54.3604" y2="56.7164" gradientUnits="userSpaceOnUse">
<stop stop-color="#FE5000"/>
<stop offset="1" stop-color="#FE9800"/>
</linearGradient>
<linearGradient id="paint10_linear_1350_1202" x1="36.2546" y1="67.0408" x2="37.6151" y2="63.6318" gradientUnits="userSpaceOnUse">
<stop stop-color="#FE5000"/>
<stop offset="1" stop-color="#FE9800"/>
</linearGradient>
<linearGradient id="paint11_linear_1350_1202" x1="44.6277" y1="67.0408" x2="45.9881" y2="63.6318" gradientUnits="userSpaceOnUse">
<stop stop-color="#FE5000"/>
<stop offset="1" stop-color="#FE9800"/>
</linearGradient>
<linearGradient id="paint12_linear_1350_1202" x1="53" y1="67.0408" x2="54.3604" y2="63.6318" gradientUnits="userSpaceOnUse">
<stop stop-color="#FE5000"/>
<stop offset="1" stop-color="#FE9800"/>
</linearGradient>
</defs>
</svg>
