<svg width="100" height="100" viewBox="0 0 100 100" fill="none" xmlns="http://www.w3.org/2000/svg">
<circle cx="50" cy="50" r="49.5" stroke="url(#paint0_linear_1350_1221)"/>
<path d="M58.4662 43.3478H37.968C37.5409 43.3478 37.1139 43.6957 37.1139 44.2174C37.1139 44.6522 37.4555 45.087 37.968 45.087H58.4662C58.8932 45.087 59.3203 44.7391 59.3203 44.2174C59.3203 43.6957 58.8932 43.3478 58.4662 43.3478ZM37.968 38.3043H46.1673C46.5943 38.3043 47.0214 37.9565 47.0214 37.4348C47.0214 37 46.6797 36.5652 46.1673 36.5652H37.968C37.5409 36.5652 37.1139 36.913 37.1139 37.4348C37.1993 37.9565 37.5409 38.3043 37.968 38.3043ZM58.4662 50.0435H37.968C37.5409 50.0435 37.1139 50.3913 37.1139 50.913C37.1139 51.3478 37.4555 51.7826 37.968 51.7826H58.4662C58.8932 51.7826 59.3203 51.4348 59.3203 50.913C59.3203 50.3913 58.8932 50.0435 58.4662 50.0435ZM51.8897 56.6522H37.968C37.5409 56.6522 37.1139 57 37.1139 57.5217C37.1139 58.0435 37.4555 58.3913 37.968 58.3913H51.8897C52.3167 58.3913 52.7438 58.0435 52.7438 57.5217C52.7438 57 52.4021 56.6522 51.8897 56.6522ZM49.4982 65C49.9253 65 50.3523 64.6522 50.3523 64.1304C50.3523 63.6087 50.0107 63.2609 49.4982 63.2609H37.968C37.5409 63.2609 37.1139 63.6087 37.1139 64.1304C37.1139 64.6522 37.4555 65 37.968 65H49.4982ZM30.6228 26.6522H54.3665V38.3043H65.8114V53.3478H67.4342V37.1739L55.4769 25H29V75H52.7438V73.3478H30.6228V26.6522ZM55.9893 27.8696L64.6157 36.6522H55.9893V27.8696ZM76.2313 55.9565L73.9253 53.6087C72.9858 52.6522 71.363 52.6522 70.5089 53.6087L57.8683 66.3913L56.1601 72.913L55.7331 73.3478C55.3915 73.6956 55.3915 74.2174 55.7331 74.4783C55.9039 74.6522 56.0747 74.7391 56.331 74.7391C56.5018 74.7391 56.758 74.6522 56.9288 74.4783L57.3559 74.0435L63.7616 72.3043L76.3167 59.5217C76.7438 59.087 77 58.3913 77 57.7826C76.9146 57.087 76.6584 56.4783 76.2313 55.9565ZM59.7473 66.8261L68.1174 58.3043L71.6192 61.8696L63.1637 70.3913L59.7473 66.8261ZM58.9786 68.4783L61.6263 71.1739L58.0391 72.2174L58.9786 68.4783ZM75.0356 58.3043L72.7295 60.6522L69.2278 57.1739L71.5338 54.8261C71.8754 54.4783 72.3879 54.4783 72.6441 54.8261L74.9502 57.1739C75.121 57.3478 75.2064 57.5217 75.2064 57.7826C75.2918 57.9565 75.2064 58.1304 75.0356 58.3043Z" fill="url(#paint1_linear_1350_1221)"/>
<defs>
<linearGradient id="paint0_linear_1350_1221" x1="0" y1="100" x2="100" y2="0" gradientUnits="userSpaceOnUse">
<stop stop-color="#FE5000"/>
<stop offset="1" stop-color="#FE9800"/>
</linearGradient>
<linearGradient id="paint1_linear_1350_1221" x1="29" y1="75" x2="78.9584" y2="27.04" gradientUnits="userSpaceOnUse">
<stop stop-color="#FE5000"/>
<stop offset="1" stop-color="#FE9800"/>
</linearGradient>
</defs>
</svg>
