<svg width="100" height="100" viewBox="0 0 100 100" fill="none" xmlns="http://www.w3.org/2000/svg">
<circle cx="50" cy="50" r="49.5" stroke="url(#paint0_linear_1985_502)"/>
<path d="M69.7605 26H30.2395C27.3952 26 25 28.4227 25 31.2997V67.0347C25 69.9117 27.3952 72.3344 30.2395 72.3344H55.2395C55.8383 72.3344 56.2874 71.8801 56.2874 71.2744C56.2874 70.6688 55.8383 70.2145 55.2395 70.2145H30.2395C28.5928 70.2145 27.0958 68.8517 27.0958 67.0347V36.4479H72.9042V58.5552C72.9042 59.1609 73.3533 59.6151 73.9521 59.6151C74.5509 59.6151 75 59.1609 75 58.5552V31.2997C75 28.4227 72.6048 26 69.7605 26ZM72.9042 34.4795H27.0958V31.2997C27.0958 29.6341 28.4431 28.1199 30.2395 28.1199H69.7605C71.4072 28.1199 72.9042 29.4826 72.9042 31.2997V34.4795V34.4795ZM30.2395 32.3596C30.8383 32.3596 31.2874 31.9054 31.2874 31.2997C31.2874 30.694 30.8383 30.2397 30.2395 30.2397C29.6407 30.2397 29.1916 30.694 29.1916 31.2997C29.1916 31.9054 29.6407 32.3596 30.2395 32.3596ZM34.4311 32.3596C35.0299 32.3596 35.479 31.9054 35.479 31.2997C35.479 30.694 35.0299 30.2397 34.4311 30.2397C33.8323 30.2397 33.3832 30.694 33.3832 31.2997C33.3832 31.9054 33.8323 32.3596 34.4311 32.3596ZM38.6228 32.3596C39.2216 32.3596 39.6707 31.9054 39.6707 31.2997C39.6707 30.694 39.2216 30.2397 38.6228 30.2397C38.024 30.2397 37.5748 30.694 37.5748 31.2997C37.5748 31.9054 38.024 32.3596 38.6228 32.3596ZM74.7006 64.1577L60.1796 49.47C59.8802 49.1672 59.4311 49.0158 58.982 49.1672C58.5329 49.3186 58.3832 49.7729 58.3832 50.0757V71.123C58.3832 71.5773 58.6826 71.8801 58.982 72.0315C59.4311 72.183 59.8802 72.0315 60.1796 71.7287L63.3233 68.5489L65.8683 73.5457C66.018 73.8486 66.1677 74 66.4671 74C66.6168 74 66.6168 74 66.7665 74C66.9162 74 67.0659 74 67.2156 73.8486L71.2575 71.7287C71.7066 71.4259 72.006 70.8202 71.7066 70.3659L69.3114 65.6719H73.8024C74.2515 65.6719 74.5509 65.3691 74.7006 65.0662C75 64.9148 75 64.4606 74.7006 64.1577ZM67.6647 63.8549C67.3653 63.8549 66.9162 64.0063 66.7665 64.3091C66.6168 64.612 66.6168 65.0662 66.7665 65.3691L69.4611 70.6688L67.2156 71.8801L64.521 66.5804C64.3713 66.2776 64.0719 66.1262 63.7725 65.9748H63.6228C63.3234 65.9748 63.0239 66.1262 62.8742 66.2776L60.479 68.7003V52.6498L71.5569 63.8549H67.6647Z" fill="url(#paint1_linear_1985_502)"/>
<defs>
<linearGradient id="paint0_linear_1985_502" x1="0" y1="100" x2="100" y2="0" gradientUnits="userSpaceOnUse">
<stop stop-color="#FE5000"/>
<stop offset="1" stop-color="#FE9800"/>
</linearGradient>
<linearGradient id="paint1_linear_1985_502" x1="35.3125" y1="74" x2="78.8352" y2="59.8113" gradientUnits="userSpaceOnUse">
<stop stop-color="#FE5000"/>
<stop offset="1" stop-color="#FCA92A"/>
</linearGradient>
</defs>
</svg>
