<svg width="100" height="100" viewBox="0 0 100 100" fill="none" xmlns="http://www.w3.org/2000/svg">
<circle cx="50" cy="50" r="49.5" stroke="url(#paint0_linear_1985_489)"/>
<g clip-path="url(#clip0_1985_489)">
<path fill-rule="evenodd" clip-rule="evenodd" d="M49.5353 24.1563C49.8354 23.9479 50.2335 23.9479 50.5337 24.1563L69.8482 37.5692C70.0837 37.7327 70.2242 38.0013 70.2242 38.288V41.7049H71.4951C71.9784 41.7049 72.3702 42.0968 72.3702 42.5801V46.3357C72.3702 46.819 71.9784 47.2109 71.4951 47.2109H68.0781V63.1655H69.349C69.8323 63.1655 70.2242 63.5573 70.2242 64.0407V66.9211H71.4951C71.9784 66.9211 72.3702 67.3129 72.3702 67.7963V72.0884C72.3702 72.5717 71.9784 72.9635 71.4951 72.9635H28.5045C28.0212 72.9635 27.6294 72.5717 27.6294 72.0884V67.8025C27.6294 67.3207 28.0188 66.9295 28.5006 66.9274L29.0313 66.925V64.0407C29.0313 63.5573 29.4231 63.1655 29.9064 63.1655H31.8402V47.2109H28.5739C28.0906 47.2109 27.6988 46.819 27.6988 46.3357V42.5801C27.6988 42.0968 28.0906 41.7049 28.5739 41.7049H29.8448V38.288C29.8448 38.0013 29.9853 37.7327 30.2208 37.5692L49.5353 24.1563ZM31.5951 41.7049H68.4738V38.7457L50.0345 25.9406L31.5951 38.7457V41.7049ZM33.5905 47.2109V63.1655H37.7419V47.2109H33.5905ZM39.4922 47.2109V63.1655H46.4768V47.2109H39.4922ZM48.2271 47.2109V63.1655H52.3784V47.2109H48.2271ZM54.1287 47.2109V63.1655H60.9626V47.2109H54.1287ZM62.7129 47.2109V63.1655H66.3278V47.2109H62.7129ZM38.617 64.9158H32.7154H30.7816V66.9211H68.4738V64.9158H67.2029H61.8378H53.2536H47.3519H38.617ZM29.9064 68.6714L29.3797 68.6738V71.2132H70.6199V68.6714H69.349H29.9086H29.9064ZM29.4491 43.4553V45.4605H32.7154H38.617H47.3519H53.2536H61.8378H67.2029H70.6199V43.4553H69.349H30.72H29.4491Z" fill="url(#paint1_linear_1985_489)"/>
</g>
<defs>
<linearGradient id="paint0_linear_1985_489" x1="0" y1="100" x2="100" y2="0" gradientUnits="userSpaceOnUse">
<stop stop-color="#FE5000"/>
<stop offset="1" stop-color="#FE9800"/>
</linearGradient>
<linearGradient id="paint1_linear_1985_489" x1="36.8572" y1="72.9635" x2="76.684" y2="61.5741" gradientUnits="userSpaceOnUse">
<stop stop-color="#FE5000"/>
<stop offset="1" stop-color="#FCA92A"/>
</linearGradient>
<clipPath id="clip0_1985_489">
<rect width="52" height="52" fill="white" transform="translate(24 24)"/>
</clipPath>
</defs>
</svg>
