<svg width="100" height="100" viewBox="0 0 100 100" fill="none" xmlns="http://www.w3.org/2000/svg">
<circle cx="50" cy="50" r="49.5" stroke="url(#paint0_linear_1350_1193)"/>
<g clip-path="url(#clip0_1350_1193)">
<path d="M72.9438 36.7644H66.9147L64.3294 31.1586C64.1725 30.8146 63.7478 30.6566 63.4061 30.8146L60.8763 31.9953L53.213 26.4824C52.9083 26.2593 52.4651 26.3337 52.2435 26.6498L45.0787 36.7644H27.056C26.6682 36.7644 26.3635 37.0805 26.3635 37.4616V62.5343C26.3635 62.9154 26.6774 63.2315 27.056 63.2315H33.0851L35.6703 68.8373C35.8273 69.1813 36.2428 69.3393 36.5936 69.1813L39.1235 68.0006L46.7868 73.5135C47.0915 73.7366 47.5347 73.6622 47.7563 73.3461L54.9211 63.2315H72.9346C73.3223 63.2315 73.627 62.9154 73.627 62.5343V37.4616C73.6363 37.0805 73.3223 36.7644 72.9438 36.7644ZM63.36 32.3764L65.382 36.7644H53.9608L63.36 32.3764ZM52.9729 28.0349L59.436 32.6739L50.6739 36.7644H46.7868L52.9729 28.0349ZM42.6135 56.9471V61.7534C42.6135 61.7813 42.6135 61.8092 42.6228 61.8371H38.4587C38.4587 61.8092 38.4679 61.7813 38.4679 61.7534V56.9471V55.6456V38.1588H42.6228V55.6456V56.9471H42.6135ZM27.7485 61.8371V38.1588H37.1661V55.6456H33.0113C32.6512 55.6456 32.3649 55.9338 32.3649 56.2963C32.3649 56.6589 32.6512 56.9471 33.0113 56.9471H37.1661V61.7534C37.1661 61.7813 37.1661 61.8092 37.1753 61.8371H27.7485ZM36.6398 67.6195L34.6178 63.2315H46.039L36.6398 67.6195ZM47.0269 71.9702L40.5638 67.3313L49.3259 63.2408H53.213L47.0269 71.9702ZM72.2513 61.8371H43.9061C43.9061 61.8092 43.9154 61.7813 43.9154 61.7534V56.9471H55.7336C56.0936 56.9471 56.3799 56.6589 56.3799 56.2963C56.3799 55.9338 56.0936 55.6456 55.7336 55.6456H43.9061V38.1588H45.4296H66.4623H72.2513V61.8371ZM60.4424 46.3956H61.6519V42.1749H65.1235C67.0993 42.1749 68.2073 43.179 68.2073 44.9081C68.2073 46.6466 67.0993 47.6785 65.1235 47.6785H63.1292V48.5337H65.7882V49.3425H63.1292V51.1461H61.6519V49.3425H60.4424V48.5337H61.6519V47.6785H60.4424V46.3956ZM64.9111 46.3956C66.2314 46.3956 66.73 45.8285 66.73 44.9081C66.73 43.9878 66.2314 43.4486 64.9111 43.4486H63.1292V46.3956H64.9111Z" fill="url(#paint1_linear_1350_1193)"/>
</g>
<defs>
<linearGradient id="paint0_linear_1350_1193" x1="0" y1="100" x2="100" y2="0" gradientUnits="userSpaceOnUse">
<stop stop-color="#FE5000"/>
<stop offset="1" stop-color="#FE9800"/>
</linearGradient>
<linearGradient id="paint1_linear_1350_1193" x1="36.1117" y1="73.6421" x2="77.5686" y2="60.6742" gradientUnits="userSpaceOnUse">
<stop stop-color="#FE5000"/>
<stop offset="1" stop-color="#FCA92A"/>
</linearGradient>
<clipPath id="clip0_1350_1193">
<rect width="47.2727" height="47.2727" fill="white" transform="translate(26.3635 26.3636)"/>
</clipPath>
</defs>
</svg>
