<svg width="28" height="28" viewBox="0 0 28 28" fill="none" xmlns="http://www.w3.org/2000/svg">
<path fill-rule="evenodd" clip-rule="evenodd" d="M13.2431 20.9582C14.3337 19.1596 14.879 16.6338 14.879 13.381C14.879 10.2239 14.3337 7.72687 13.2431 5.88999C12.1907 4.03397 10.5643 3.10596 8.36383 3.10596C6.18253 3.10596 4.54656 4.03397 3.45591 5.88999C2.38439 7.746 1.84863 10.243 1.84863 13.381C1.84863 16.5382 2.39396 19.0448 3.48461 20.9008C4.61353 22.7377 6.25907 23.6561 8.42124 23.6561C10.5643 23.6561 12.1715 22.7568 13.2431 20.9582ZM11.4636 19.4944C10.8321 20.8338 9.81803 21.5035 8.42124 21.5035C5.66591 21.5035 4.28824 18.796 4.28824 13.381C4.28824 7.96605 5.64677 5.25856 8.36383 5.25856C9.76063 5.25856 10.7843 5.93782 11.4349 7.29635C12.1046 8.63574 12.4394 10.664 12.4394 13.381C12.4394 16.1172 12.1141 18.155 11.4636 19.4944ZM16.0032 18.4229H17.7242V19.8805H16.0032V21.4961H17.7242V23.6561H19.8666V21.4961H22.7466V19.8805H19.8666V18.4229H21.4822C22.8988 18.4229 23.9993 18.1127 24.7837 17.4922C25.5681 16.8717 25.9603 16.0171 25.9603 14.9283C25.9603 12.5283 24.3739 11.3283 21.2013 11.3283C20.5925 11.3283 19.9895 11.3341 19.3925 11.3458C18.7954 11.3575 18.2393 11.3634 17.7242 11.3634V16.8073H16.0032V18.4229ZM19.8666 13.3829C20.8969 13.3595 21.4178 13.3478 21.4295 13.3478C22.1905 13.3478 22.7525 13.4883 23.1154 13.7693C23.49 14.0502 23.6774 14.501 23.6774 15.1215C23.6774 16.2454 22.9222 16.8073 21.412 16.8073H19.8666V13.3829Z" fill="url(#paint0_linear_3226_912)"/>
<defs>
<linearGradient id="paint0_linear_3226_912" x1="1.84863" y1="23.6561" x2="22.1391" y2="-0.150818" gradientUnits="userSpaceOnUse">
<stop stop-color="#FE5000"/>
<stop offset="1" stop-color="#FE9800"/>
</linearGradient>
</defs>
</svg>
