<svg width="44" height="44" viewBox="0 0 44 44" fill="none" xmlns="http://www.w3.org/2000/svg">
<path fill-rule="evenodd" clip-rule="evenodd" d="M5.57684 31.6756C5.74598 31.7872 5.95595 31.8179 6.14994 31.7594C6.34394 31.7008 6.50192 31.5592 6.58116 31.3727L8.89818 25.9195C9.04564 25.5724 8.88384 25.1716 8.53679 25.0241C8.18975 24.8767 7.78887 25.0385 7.64141 25.3855L6.06731 29.0902C5.20386 27.0176 4.72687 24.7432 4.72687 22.356C4.72687 12.6776 12.5727 4.83182 22.251 4.83182C25.4441 4.83182 28.4357 5.68519 31.0126 7.17582C31.339 7.36464 31.7566 7.2531 31.9455 6.9267C32.1343 6.6003 32.0227 6.18264 31.6963 5.99383C28.9172 4.3862 25.6905 3.46631 22.251 3.46631C11.8185 3.46631 3.36136 11.9235 3.36136 22.356C3.36136 24.8832 3.85803 27.2959 4.75949 29.5007L1.38275 27.2733C1.06798 27.0657 0.644494 27.1526 0.43687 27.4673C0.229246 27.7821 0.316102 28.2056 0.630872 28.4132L5.57684 31.6756ZM38.6743 12.684C38.5051 12.5724 38.2952 12.5417 38.1012 12.6002C37.9072 12.6588 37.7492 12.8004 37.67 12.9869L35.3529 18.4401C35.2055 18.7872 35.3673 19.188 35.7143 19.3355C36.0614 19.4829 36.4622 19.3211 36.6097 18.9741L38.1838 15.2694C39.0473 17.342 39.5242 19.6164 39.5242 22.0036C39.5242 31.682 31.6784 39.5278 22.0001 39.5278C18.8071 39.5278 15.8154 38.6744 13.2385 37.1838C12.9121 36.995 12.4945 37.1065 12.3057 37.4329C12.1168 37.7593 12.2284 38.177 12.5548 38.3658C15.3339 39.9734 18.5606 40.8933 22.0001 40.8933C32.4326 40.8933 40.8898 32.4361 40.8898 22.0036C40.8898 19.4764 40.3931 17.0637 39.4916 14.8589L42.8684 17.0863C43.1831 17.2939 43.6066 17.207 43.8142 16.8923C44.0219 16.5775 43.935 16.154 43.6202 15.9464L38.6743 12.684ZM28.0013 14.4388C27.6838 14.1965 27.23 14.2574 26.9876 14.5748L16.0687 28.877C15.8263 29.1945 15.8872 29.6483 16.2047 29.8907L16.2163 29.8996C16.5338 30.142 16.9876 30.0811 17.23 29.7636L28.1489 15.4614C28.3913 15.1439 28.3304 14.6901 28.0129 14.4477L28.0013 14.4388ZM17.1415 20.3468C18.4436 20.3468 19.4991 19.2913 19.4991 17.9892C19.4991 16.6871 18.4436 15.6316 17.1415 15.6316C15.8395 15.6316 14.7839 16.6871 14.7839 17.9892C14.7839 19.2913 15.8395 20.3468 17.1415 20.3468ZM17.1415 21.8078C19.2505 21.8078 20.9601 20.0981 20.9601 17.9892C20.9601 15.8802 19.2505 14.1706 17.1415 14.1706C15.0326 14.1706 13.3229 15.8802 13.3229 17.9892C13.3229 20.0981 15.0326 21.8078 17.1415 21.8078ZM29.22 26.3205C29.22 27.6226 28.1645 28.6781 26.8624 28.6781C25.5604 28.6781 24.5048 27.6226 24.5048 26.3205C24.5048 25.0185 25.5604 23.9629 26.8624 23.9629C28.1645 23.9629 29.22 25.0185 29.22 26.3205ZM30.681 26.3205C30.681 28.4295 28.9714 30.1391 26.8624 30.1391C24.7535 30.1391 23.0438 28.4295 23.0438 26.3205C23.0438 24.2116 24.7535 22.5019 26.8624 22.5019C28.9714 22.5019 30.681 24.2116 30.681 26.3205Z" fill="url(#paint0_linear_2404_484)"/>
<defs>
<linearGradient id="paint0_linear_2404_484" x1="9.31718" y1="40.8933" x2="46.3787" y2="27.3802" gradientUnits="userSpaceOnUse">
<stop stop-color="#FE5000"/>
<stop offset="1" stop-color="#FCA92A"/>
</linearGradient>
</defs>
</svg>
