<svg width="44" height="44" viewBox="0 0 44 44" fill="none" xmlns="http://www.w3.org/2000/svg">
<path d="M25.2728 10.8381V8.03564C25.2728 2.65544 4.00049 2.65544 4.00049 8.03564V24.4276C4.00049 26.5426 7.31123 27.8611 11.2941 28.3298C9.8373 28.9832 8.9095 29.8657 8.9095 30.9844V35.902C8.9095 38.5921 14.2603 39.9999 19.5457 39.9999C24.8311 39.9999 30.1819 38.592 30.1819 35.902V33.4296C35.1871 33.292 40 31.8964 40 29.3452V14.5925C39.9999 11.1959 31.5245 9.94617 25.2728 10.8381ZM14.6367 5.63682C20.4598 5.63682 23.6365 7.25794 23.6365 8.09133C23.6365 8.92471 20.4597 10.5458 14.6367 10.5458C8.8137 10.5458 5.63688 8.92471 5.63688 8.09133C5.6368 7.25802 8.81362 5.63682 14.6367 5.63682ZM5.6368 10.3681C7.62211 11.563 11.1387 12.1822 14.6366 12.1822C18.1345 12.1822 21.6512 11.563 23.6365 10.3681V11.1812C20.7932 11.8117 18.7275 12.9633 18.7275 14.6367V15.1208C17.4453 15.3265 16.0612 15.4548 14.6367 15.4548C8.81362 15.4548 5.63688 13.8337 5.63688 13.0003V10.3681H5.6368ZM20.3638 26.7315C20.5195 26.8251 20.6815 26.9162 20.8554 27.0027C20.6917 26.9959 20.5282 26.9892 20.3638 26.9849V26.7315ZM5.6368 15.2771C7.62211 16.472 11.1387 17.0912 14.6366 17.0912C16.0529 17.0912 17.4295 16.9641 18.7274 16.7702V20.848C17.4452 21.0537 16.0611 21.1821 14.6366 21.1821C8.81354 21.1821 5.6368 19.5609 5.6368 18.7275V15.2771ZM5.6368 24.4547V21.0043C7.62211 22.1992 11.1387 22.8184 14.6366 22.8184C16.0529 22.8184 17.4295 22.6913 18.7274 22.4974V26.5752C17.4452 26.7809 16.0611 26.9093 14.6366 26.9093C8.81362 26.9093 5.6368 25.2881 5.6368 24.4547ZM28.5455 35.9091C28.5455 36.7425 25.3687 38.3636 19.5457 38.3636C13.7227 38.3636 10.5458 36.7425 10.5458 35.9091V33.2768C12.5311 34.4717 16.0477 35.0909 19.5456 35.0909C22.8939 35.0909 26.2639 34.525 28.2876 33.4288C28.3726 33.432 28.4601 33.4324 28.5455 33.435V35.9091H28.5455ZM19.5457 33.4546C13.7226 33.4546 10.5459 31.8335 10.5459 31.0001C10.5459 30.1667 13.7227 28.5456 19.5457 28.5456C25.3687 28.5456 28.5455 30.1667 28.5455 31.0001C28.5455 31.8335 25.3687 33.4546 19.5457 33.4546ZM38.3636 29.3638C38.3636 30.1556 35.4645 31.6425 30.1819 31.7899V31.0001C30.1819 29.9778 29.4083 29.1516 28.1605 28.5185C28.5606 28.5347 28.9619 28.5456 29.3637 28.5456C32.8616 28.5456 36.3783 27.9263 38.3635 26.7315V29.3638H38.3636ZM38.3636 24.4547C38.3636 25.2881 35.1867 26.9093 29.3637 26.9093C23.5407 26.9093 20.3639 25.2881 20.3639 24.4547V21.8224C22.3491 23.0173 25.8658 23.6366 29.3637 23.6366C32.8616 23.6366 36.3783 23.0173 38.3636 21.8224V24.4547ZM38.3636 19.5457C38.3636 20.3791 35.1867 22.0002 29.3637 22.0002C23.5407 22.0002 20.3639 20.3791 20.3639 19.5457V16.9134C22.3491 18.1083 25.8658 18.7275 29.3637 18.7275C32.8616 18.7275 36.3783 18.1083 38.3636 16.9134V19.5457ZM29.3637 17.0912C23.5407 17.0912 20.3639 15.4701 20.3639 14.6367C20.3639 13.8033 23.5407 12.1822 29.3637 12.1822C35.1867 12.1822 38.3636 13.8033 38.3636 14.6367C38.3636 15.4701 35.1867 17.0912 29.3637 17.0912Z" fill="url(#paint0_linear_2404_469)"/>
<defs>
<linearGradient id="paint0_linear_2404_469" x1="4.00049" y1="39.9999" x2="39.9999" y2="4.00043" gradientUnits="userSpaceOnUse">
<stop stop-color="#FE5000"/>
<stop offset="1" stop-color="#FE9800"/>
</linearGradient>
</defs>
</svg>
