<svg width="44" height="44" viewBox="0 0 44 44" fill="none" xmlns="http://www.w3.org/2000/svg">
<path d="M40.1281 19.4481C39.6001 19.4481 39.2481 19.8001 39.2481 20.3281V23.7601V28.9521V29.8321C39.2481 30.8001 38.4561 31.5921 37.4881 31.5921H35.7281C34.2321 31.5921 33.1761 32.7361 33.1761 34.1441V35.9041C33.1761 36.8721 32.3841 37.6641 31.4161 37.6641H27.1041H5.54405C5.01605 37.6641 4.66405 37.3121 4.66405 36.7841V20.2401C4.66405 19.7121 4.31205 19.3601 3.78405 19.3601C3.25605 19.3601 2.90405 19.7121 2.90405 20.2401V36.6961C2.90405 38.1921 4.04805 39.2481 5.45605 39.2481H27.1041H31.4161H32.5601C33.7041 39.2481 34.8481 38.8081 35.5521 37.9281L39.6001 33.8801C40.3921 33.0881 40.9201 31.9441 40.9201 30.8881V29.7441V28.8641V23.7601V20.2401C41.0081 19.7121 40.6561 19.4481 40.1281 19.4481ZM34.8481 36.4321C34.8481 36.2561 34.9361 36.0801 34.9361 35.8161V34.0561C34.9361 33.5281 35.2881 33.1761 35.8161 33.1761H37.5761C37.7521 33.1761 37.9281 33.1761 38.1921 33.0881L34.8481 36.4321ZM38.4561 7.30406H32.3841V5.54406C32.3841 5.01606 32.0321 4.66406 31.5041 4.66406C30.9761 4.66406 30.6241 5.01606 30.6241 5.54406V7.30406H13.3761V5.54406C13.3761 5.01606 13.0241 4.66406 12.4961 4.66406C11.9681 4.66406 11.6161 5.01606 11.6161 5.54406V7.30406H5.54405C4.04805 7.30406 2.99205 8.44806 2.99205 9.85606V16.8081C2.99205 17.3361 3.34405 17.6881 3.87205 17.6881H40.2161C40.7441 17.6881 41.0961 17.3361 41.0961 16.8081V9.85606C41.0081 8.44806 39.8641 7.30406 38.4561 7.30406ZM39.2481 15.9281H4.75205V9.85606C4.75205 9.32806 5.10405 8.97606 5.63205 8.97606H11.7041V11.0001C11.1761 11.2641 10.8241 11.8801 10.8241 12.4961C10.8241 13.4641 11.6161 14.2561 12.5841 14.2561C13.5521 14.2561 14.3441 13.4641 14.3441 12.4961C14.3441 11.8801 13.9921 11.2641 13.4641 11.0001V8.97606H30.7121V11.0001C30.1841 11.2641 29.8321 11.8801 29.8321 12.4961C29.8321 13.4641 30.6241 14.2561 31.5921 14.2561C32.5601 14.2561 33.3521 13.4641 33.3521 12.4961C33.3521 11.8801 33.0001 11.2641 32.4721 11.0001V8.97606H38.5441C39.0721 8.97606 39.4241 9.32806 39.4241 9.85606L39.2481 15.9281ZM18.5681 24.5521C19.5361 24.5521 20.3281 23.7601 20.3281 22.7921C20.3281 21.8241 19.5361 21.0321 18.5681 21.0321C17.6001 21.0321 16.8081 21.8241 16.8081 22.7921C16.8081 23.8481 17.6001 24.5521 18.5681 24.5521ZM25.4321 24.5521C26.4001 24.5521 27.1921 23.7601 27.1921 22.7921C27.1921 21.8241 26.4001 21.0321 25.4321 21.0321C24.4641 21.0321 23.6721 21.8241 23.6721 22.7921C23.7601 23.8481 24.4641 24.5521 25.4321 24.5521ZM32.3841 24.5521C33.3521 24.5521 34.1441 23.7601 34.1441 22.7921C34.1441 21.8241 33.3521 21.0321 32.3841 21.0321C31.4161 21.0321 30.6241 21.8241 30.6241 22.7921C30.6241 23.8481 31.4161 24.5521 32.3841 24.5521ZM11.6161 32.3841C12.5841 32.3841 13.3761 31.5921 13.3761 30.6241C13.3761 29.6561 12.5841 28.8641 11.6161 28.8641C10.6481 28.8641 9.85605 29.6561 9.85605 30.6241C9.85605 31.5921 10.6481 32.3841 11.6161 32.3841ZM18.5681 32.3841C19.5361 32.3841 20.3281 31.5921 20.3281 30.6241C20.3281 29.6561 19.5361 28.8641 18.5681 28.8641C17.6001 28.8641 16.8081 29.6561 16.8081 30.6241C16.8081 31.5921 17.6001 32.3841 18.5681 32.3841ZM25.4321 32.3841C26.4001 32.3841 27.1921 31.5921 27.1921 30.6241C27.1921 29.6561 26.4001 28.8641 25.4321 28.8641C24.4641 28.8641 23.6721 29.6561 23.6721 30.6241C23.6721 31.5921 24.4641 32.3841 25.4321 32.3841Z" fill="url(#paint0_linear_2404_507)"/>
<defs>
<linearGradient id="paint0_linear_2404_507" x1="10.7812" y1="39.2481" x2="43.6344" y2="27.8934" gradientUnits="userSpaceOnUse">
<stop stop-color="#FE5000"/>
<stop offset="1" stop-color="#FCA92A"/>
</linearGradient>
</defs>
</svg>
