<svg width="44" height="44" viewBox="0 0 44 44" fill="none" xmlns="http://www.w3.org/2000/svg">
<g clip-path="url(#clip0)">
<path d="M43.9116 38.3001L42.1674 32.2369C42.1258 32.1123 42.0428 31.9877 41.9597 31.9047C40.88 28.6239 38.2221 26.0906 34.8583 25.2185L34.36 25.1355C33.6124 24.9278 32.7819 25.177 32.242 25.7999C30.4147 27.8764 28.0891 28.0425 25.6389 28.0425C23.1887 28.0425 20.8631 27.8764 19.0359 25.7999C18.496 25.177 17.6654 24.9278 16.9179 25.1355L16.4196 25.2601C13.8863 25.9245 11.7268 27.5441 10.3564 29.7036H5.12374C5.08221 29.7036 5.08221 29.7036 5.04069 29.6621C5.04069 29.6206 4.99916 29.579 4.99916 29.496L6.0789 25.6338C7.03406 22.6022 8.86133 21.6886 12.4328 20.775C12.5989 20.7334 12.7235 20.6504 12.8066 20.5673C13.0973 20.8165 13.4295 21.0241 13.7617 21.1902C13.8863 21.2733 14.0109 21.2733 14.1355 21.2733C14.4262 21.2733 14.7169 21.1072 14.883 20.8165C15.0906 20.4012 14.9245 19.9029 14.5092 19.6952C12.5989 18.6985 11.2285 15.8746 11.2285 12.9676C11.2285 10.3928 13.3464 8.27481 15.9212 8.27481C16.4196 8.27481 16.8764 8.35787 17.3332 8.48245C16.8764 9.60373 16.6272 10.8081 16.6272 12.0955C16.6272 19.1969 20.9047 25.177 25.9712 25.177C30.9546 25.177 35.3567 19.0723 35.3567 12.0955C35.3567 6.90436 31.1623 2.70996 25.9712 2.70996C22.6904 2.70996 19.7834 4.41264 18.1222 6.98742C17.4162 6.73825 16.6687 6.61366 15.9212 6.61366C13.6787 6.61366 11.6853 7.81799 10.564 9.60373C10.481 9.52067 10.3979 9.47914 10.3148 9.43761C9.6919 9.10538 9.06897 8.9808 8.36298 8.9808C6.03738 8.93927 4.16858 10.8081 4.16858 13.1337C4.16858 14.4626 4.54234 15.7085 5.12374 16.7051C3.21342 17.2035 1.51074 17.951 0.721698 20.4843L0.0572388 22.8929C-0.0673474 23.3082 0.01571 23.765 0.264882 24.0973C0.514055 24.471 0.970871 24.6787 1.42769 24.6787H4.6254C4.58387 24.8448 4.50081 25.0109 4.45928 25.177L3.37954 29.0807C3.21342 29.6206 3.33801 30.202 3.71177 30.6588C4.044 31.1156 4.54234 31.3648 5.12374 31.3648H9.52579C9.4012 31.6555 9.31814 31.9462 9.23509 32.2369L7.49088 38.3416C7.32477 39.0476 7.44935 39.7951 7.90617 40.3765C8.36298 40.9579 9.02744 41.2901 9.73343 41.2901H34.6507H36.0626H41.669C42.375 41.2901 43.081 40.9579 43.4963 40.3765C43.9531 39.7951 44.1192 39.0476 43.9116 38.3001ZM19.1189 8.60704C19.1605 8.56551 19.202 8.52398 19.2435 8.44093C19.285 8.3994 19.285 8.31634 19.3266 8.27481C20.614 5.9492 23.1057 4.37111 25.9712 4.37111C29.4181 4.37111 32.3251 6.65519 33.3217 9.76984C31.8682 10.0605 30.3317 9.47914 29.4181 8.23328C29.1273 7.85952 28.629 7.77647 28.2552 8.06717C28.0891 8.19175 28.0061 8.31634 27.9645 8.48245C27.923 8.52398 27.923 8.56551 27.8815 8.60704C26.7187 10.9742 22.815 11.9709 18.3714 11.0988C18.496 10.2267 18.7452 9.39609 19.1189 8.60704ZM21.4445 13.0506C24.7668 13.0506 27.5077 12.0124 28.9197 10.0605C29.9579 10.9742 31.2453 11.4725 32.6158 11.4725C32.948 11.4725 33.3218 11.431 33.654 11.3479C33.6955 11.5971 33.6955 11.8048 33.6955 12.0539C33.6955 18.1586 30.0825 23.5159 25.9712 23.5159C22.0259 23.5159 18.5791 18.5739 18.2884 12.7599C19.3681 12.9676 20.4478 13.0506 21.4445 13.0506ZM1.75992 23.0175L2.34132 20.9411C2.83966 19.2384 3.87788 18.74 5.95432 18.2417C6.0789 18.2002 6.20349 18.1586 6.28655 18.0756C6.49419 18.2417 6.66031 18.3663 6.90948 18.4909C7.03407 18.5739 7.15865 18.5739 7.28324 18.5739C7.57394 18.5739 7.86464 18.4078 8.03076 18.1171C8.2384 17.7018 8.07228 17.2035 7.69853 16.9958C6.61878 16.4144 5.82973 14.7948 5.82973 13.1337C5.82973 11.7217 6.95101 10.6004 8.36298 10.6004C8.8198 10.6004 9.19356 10.6835 9.56732 10.8911C9.6919 10.9326 9.77496 10.9742 9.89955 10.9742C9.6919 11.5971 9.56732 12.2616 9.56732 12.9676C9.56732 15.3347 10.3564 17.6603 11.6022 19.2799C9.1105 19.9029 6.90948 20.7334 5.45597 23.0175H1.75992ZM42.2089 39.3798C42.1258 39.4629 41.9597 39.629 41.669 39.629H36.0626H34.6507H9.73343C9.44273 39.629 9.27662 39.4629 9.19356 39.3798C9.06897 39.2137 9.02744 38.9645 9.06897 38.7984L10.8132 32.7352C11.6438 29.8697 13.9278 27.6272 16.8348 26.8797L17.3332 26.7551C17.4578 26.7136 17.6654 26.7966 17.79 26.9212C20.0741 29.5375 22.898 29.7452 25.6389 29.7452C28.3798 29.7452 31.2038 29.5375 33.4879 26.9212C33.6124 26.7966 33.7786 26.7136 33.9862 26.7551L34.4846 26.8797C37.35 27.6272 39.6756 29.8697 40.5062 32.7352L41.2537 35.31C41.2953 35.4346 41.3368 35.5177 41.4198 35.6007L42.3335 38.7569C42.375 38.9645 42.3335 39.2137 42.2089 39.3798Z" fill="#7F94A8"/>
</g>
<defs>
<clipPath id="clip0">
<rect width="44" height="44" fill="white"/>
</clipPath>
</defs>
</svg>
