<svg width="44" height="44" viewBox="0 0 44 44" fill="none" xmlns="http://www.w3.org/2000/svg">
<path d="M14.5248 13.8777H10.989C10.5822 13.8777 10.2524 14.2075 10.2524 14.6143V18.7393C10.2524 19.1461 10.5822 19.4759 10.989 19.4759H14.5248C14.9316 19.4759 15.2614 19.1461 15.2614 18.7393V14.6143C15.2614 14.2075 14.9316 13.8777 14.5248 13.8777ZM13.7882 18.0027H11.7257V15.3509H13.7882V18.0027Z" fill="#7F94A8"/>
<path d="M14.5248 22.1277H10.989C10.5822 22.1277 10.2524 22.4575 10.2524 22.8643V26.9893C10.2524 27.3961 10.5822 27.7259 10.989 27.7259H14.5248C14.9316 27.7259 15.2614 27.3961 15.2614 26.9893V22.8643C15.2614 22.4575 14.9316 22.1277 14.5248 22.1277ZM13.7882 26.2527H11.7257V23.6009H13.7882V26.2527Z" fill="#7F94A8"/>
<path d="M14.5248 30.3777H10.989C10.5822 30.3777 10.2524 30.7075 10.2524 31.1143V35.2393C10.2524 35.6461 10.5822 35.9759 10.989 35.9759H14.5248C14.9316 35.9759 15.2614 35.6461 15.2614 35.2393V31.1143C15.2614 30.7075 14.9316 30.3777 14.5248 30.3777ZM13.7882 34.5027H11.7257V31.8509H13.7882V34.5027Z" fill="#7F94A8"/>
<path d="M33.7486 30.3777H30.2129C29.8061 30.3777 29.4763 30.7075 29.4763 31.1143V35.2393C29.4763 35.6461 29.8061 35.9759 30.2129 35.9759H33.7486C34.1555 35.9759 34.4852 35.6461 34.4852 35.2393V31.1143C34.4852 30.7075 34.1555 30.3777 33.7486 30.3777ZM33.012 34.5027H30.9495V31.8509H33.012V34.5027Z" fill="#7F94A8"/>
<path d="M20.9327 13.8777H17.397C16.9902 13.8777 16.6604 14.2075 16.6604 14.6143V18.7393C16.6604 19.1461 16.9902 19.4759 17.397 19.4759H20.9327C21.3395 19.4759 21.6693 19.1461 21.6693 18.7393V14.6143C21.6693 14.2075 21.3395 13.8777 20.9327 13.8777ZM20.1961 18.0027H18.1336V15.3509H20.1961V18.0027Z" fill="#7F94A8"/>
<path d="M27.3407 13.8777H23.805C23.3981 13.8777 23.0684 14.2075 23.0684 14.6143V18.7393C23.0684 19.1461 23.3981 19.4759 23.805 19.4759H27.3407C27.7475 19.4759 28.0773 19.1461 28.0773 18.7393V14.6143C28.0773 14.2075 27.7475 13.8777 27.3407 13.8777ZM26.6041 18.0027H24.5416V15.3509H26.6041V18.0027Z" fill="#7F94A8"/>
<path d="M20.9327 22.1277H17.397C16.9902 22.1277 16.6604 22.4575 16.6604 22.8643V26.9893C16.6604 27.3961 16.9902 27.7259 17.397 27.7259H20.9327C21.3395 27.7259 21.6693 27.3961 21.6693 26.9893V22.8643C21.6693 22.4575 21.3395 22.1277 20.9327 22.1277ZM20.1961 26.2527H18.1336V23.6009H20.1961V26.2527Z" fill="#7F94A8"/>
<path d="M27.3407 22.1277H23.805C23.3981 22.1277 23.0684 22.4575 23.0684 22.8643V26.9893C23.0684 27.3961 23.3981 27.7259 23.805 27.7259H27.3407C27.7475 27.7259 28.0773 27.3961 28.0773 26.9893V22.8643C28.0773 22.4575 27.7475 22.1277 27.3407 22.1277ZM26.6041 26.2527H24.5416V23.6009H26.6041V26.2527Z" fill="#7F94A8"/>
<path d="M33.7486 13.8777H30.2129C29.8061 13.8777 29.4763 14.2075 29.4763 14.6143V18.7393C29.4763 19.1461 29.8061 19.4759 30.2129 19.4759H33.7486C34.1555 19.4759 34.4852 19.1461 34.4852 18.7393V14.6143C34.4852 14.2075 34.1555 13.8777 33.7486 13.8777ZM33.012 18.0027H30.9495V15.3509H33.012V18.0027Z" fill="#7F94A8"/>
<path d="M33.7486 22.1277H30.2129C29.8061 22.1277 29.4763 22.4575 29.4763 22.8643V26.9893C29.4763 27.3961 29.8061 27.7259 30.2129 27.7259H33.7486C34.1555 27.7259 34.4852 27.3961 34.4852 26.9893V22.8643C34.4852 22.4575 34.1555 22.1277 33.7486 22.1277ZM33.012 26.2527H30.9495V23.6009H33.012V26.2527Z" fill="#7F94A8"/>
<path d="M40.1205 39.3839H37.3574V10.8082C37.3574 10.4013 37.0276 10.0716 36.6208 10.0716H32.5325V7.41514C32.5325 7.00832 32.2027 6.67854 31.7959 6.67854H27.7455V3.87943C27.7455 3.4726 27.4157 3.14282 27.0089 3.14282H16.991C16.5842 3.14282 16.2544 3.4726 16.2544 3.87943V6.67854H12.2041C11.7973 6.67854 11.4675 7.00832 11.4675 7.41514V10.0716H7.37912C6.9723 10.0716 6.64252 10.4013 6.64252 10.8082V39.3839H3.87943C3.4726 39.3839 3.14282 39.7137 3.14282 40.1205C3.14282 40.5273 3.4726 40.8571 3.87943 40.8571H40.1205C40.5273 40.8571 40.8571 40.5273 40.8571 40.1205C40.8571 39.7137 40.5273 39.3839 40.1205 39.3839ZM17.7276 4.61604H26.2723V6.67854H17.7276V4.61604ZM25.0937 39.3839H19.9971L25.0937 34.2872V39.3839ZM25.0937 32.2084C25.0773 32.2222 25.0611 32.2364 25.0456 32.2518L18.9062 38.3912V35.2694L23.631 30.5446H25.0937V32.2084ZM18.9062 33.1859V30.5446H21.5475L18.9062 33.1859ZM35.8842 39.3839H30.9505H26.5669V30.5446H26.8247C27.2316 30.5446 27.5613 30.2148 27.5613 29.808C27.5613 29.4012 27.2316 29.0714 26.8247 29.0714H17.1752C16.7684 29.0714 16.4386 29.4012 16.4386 29.808C16.4386 30.2148 16.7684 30.5446 17.1752 30.5446H17.433V39.3839H8.11573V11.5448H16.2926C16.6994 11.5448 17.0292 11.215 17.0292 10.8082C17.0292 10.4013 16.6994 10.0716 16.2926 10.0716H12.9407V8.15175H31.0593V10.0716H22.1122C21.7054 10.0716 21.3756 10.4013 21.3756 10.8082C21.3756 11.215 21.7054 11.5448 22.1122 11.5448H35.8842V39.3839Z" fill="#7F94A8"/>
<path d="M19.6856 10.2871C19.5486 10.1501 19.3586 10.0713 19.1648 10.0713C18.9711 10.0713 18.7811 10.1501 18.644 10.2871C18.507 10.4241 18.4282 10.6142 18.4282 10.8079C18.4282 11.0016 18.507 11.1917 18.644 11.3287C18.7811 11.4664 18.9711 11.5445 19.1648 11.5445C19.3586 11.5445 19.5486 11.4664 19.6856 11.3287C19.8226 11.1917 19.9014 11.0016 19.9014 10.8079C19.9014 10.6142 19.8226 10.4241 19.6856 10.2871Z" fill="#7F94A8"/>
</svg>
