<svg width="100" height="100" viewBox="0 0 100 100" fill="none" xmlns="http://www.w3.org/2000/svg">
<circle cx="50" cy="50" r="49.5" fill="white" stroke="#7F94A8"/>
<path d="M57.5552 44.4122H40.4733C40.1174 44.4122 39.7616 44.7043 39.7616 45.1426C39.7616 45.5078 40.0463 45.873 40.4733 45.873H57.5552C57.911 45.873 58.2669 45.5809 58.2669 45.1426C58.2669 44.7043 57.911 44.4122 57.5552 44.4122ZM40.4733 40.1757H47.3061C47.6619 40.1757 48.0178 39.8835 48.0178 39.4452C48.0178 39.08 47.7331 38.7148 47.3061 38.7148H40.4733C40.1174 38.7148 39.7616 39.007 39.7616 39.4452C39.8327 39.8835 40.1174 40.1757 40.4733 40.1757ZM57.5552 50.0365H40.4733C40.1174 50.0365 39.7616 50.3287 39.7616 50.767C39.7616 51.1322 40.0463 51.4974 40.4733 51.4974H57.5552C57.911 51.4974 58.2669 51.2052 58.2669 50.767C58.2669 50.3287 57.911 50.0365 57.5552 50.0365ZM52.0747 55.5878H40.4733C40.1174 55.5878 39.7616 55.88 39.7616 56.3183C39.7616 56.7565 40.0463 57.0487 40.4733 57.0487H52.0747C52.4306 57.0487 52.7865 56.7565 52.7865 56.3183C52.7865 55.88 52.5018 55.5878 52.0747 55.5878ZM50.0819 62.6C50.4377 62.6 50.7936 62.3078 50.7936 61.8696C50.7936 61.4313 50.5089 61.1391 50.0819 61.1391H40.4733C40.1174 61.1391 39.7616 61.4313 39.7616 61.8696C39.7616 62.3078 40.0463 62.6 40.4733 62.6H50.0819ZM34.3523 30.3878H54.1388V40.1757H63.6762V52.8122H65.0285V39.2261L55.0641 29H33V71H52.7865V69.6122H34.3523V30.3878ZM55.4911 31.4104L62.6797 38.7878H55.4911V31.4104ZM72.3594 55.0035L70.4377 53.0313C69.6548 52.2278 68.3025 52.2278 67.5907 53.0313L57.0569 63.7687L55.6335 69.247L55.2776 69.6122C54.9929 69.9043 54.9929 70.3426 55.2776 70.5617C55.4199 70.7078 55.5623 70.7809 55.7758 70.7809C55.9181 70.7809 56.1317 70.7078 56.274 70.5617L56.6299 70.1965L61.968 68.7357L72.4306 57.9983C72.7865 57.633 73 57.0487 73 56.5374C72.9288 55.953 72.7153 55.4417 72.3594 55.0035ZM58.6228 64.1339L65.5979 56.9757L68.516 59.9704L61.4698 67.1287L58.6228 64.1339ZM57.9822 65.5217L60.1886 67.7861L57.1993 68.6626L57.9822 65.5217ZM71.363 56.9757L69.4413 58.9478L66.5231 56.0261L68.4448 54.0539C68.7295 53.7617 69.1566 53.7617 69.3701 54.0539L71.2918 56.0261C71.4342 56.1722 71.5053 56.3183 71.5053 56.5374C71.5765 56.6835 71.5053 56.8296 71.363 56.9757Z" fill="#7F94A8"/>
</svg>
