<svg width="100" height="100" viewBox="0 0 100 100" fill="none" xmlns="http://www.w3.org/2000/svg">
<circle cx="50" cy="50" r="49.5" fill="white" stroke="#7F94A8"/>
<path d="M65.8084 31H34.1916C31.9162 31 30 32.918 30 35.1956V63.4858C30 65.7634 31.9162 67.6814 34.1916 67.6814H54.1916C54.6707 67.6814 55.0299 67.3218 55.0299 66.8423C55.0299 66.3628 54.6707 66.0032 54.1916 66.0032H34.1916C32.8743 66.0032 31.6766 64.9243 31.6766 63.4858V39.2713H68.3234V56.7729C68.3234 57.2524 68.6826 57.612 69.1617 57.612C69.6407 57.612 70 57.2524 70 56.7729V35.1956C70 32.918 68.0838 31 65.8084 31ZM68.3234 37.7129H31.6766V35.1956C31.6766 33.877 32.7545 32.6782 34.1916 32.6782H65.8084C67.1258 32.6782 68.3234 33.7571 68.3234 35.1956V37.7129ZM34.1916 36.0347C34.6707 36.0347 35.0299 35.6751 35.0299 35.1956C35.0299 34.7161 34.6707 34.3565 34.1916 34.3565C33.7126 34.3565 33.3533 34.7161 33.3533 35.1956C33.3533 35.6751 33.7126 36.0347 34.1916 36.0347ZM37.5449 36.0347C38.024 36.0347 38.3832 35.6751 38.3832 35.1956C38.3832 34.7161 38.024 34.3565 37.5449 34.3565C37.0659 34.3565 36.7066 34.7161 36.7066 35.1956C36.7066 35.6751 37.0659 36.0347 37.5449 36.0347ZM40.8982 36.0347C41.3772 36.0347 41.7365 35.6751 41.7365 35.1956C41.7365 34.7161 41.3772 34.3565 40.8982 34.3565C40.4192 34.3565 40.0599 34.7161 40.0599 35.1956C40.0599 35.6751 40.4192 36.0347 40.8982 36.0347ZM69.7605 61.2082L58.1437 49.5804C57.9042 49.3407 57.5449 49.2208 57.1856 49.3407C56.8263 49.4606 56.7066 49.8202 56.7066 50.0599V66.7224C56.7066 67.082 56.9461 67.3218 57.1856 67.4416C57.5449 67.5615 57.9042 67.4416 58.1437 67.2019L60.6587 64.6845L62.6946 68.6404C62.8144 68.8801 62.9341 69 63.1737 69C63.2934 69 63.2934 69 63.4132 69C63.5329 69 63.6527 69 63.7725 68.8801L67.006 67.2019C67.3653 66.9621 67.6048 66.4826 67.3653 66.123L65.4491 62.4069H69.0419C69.4012 62.4069 69.6407 62.1672 69.7605 61.9274C70 61.8076 70 61.4479 69.7605 61.2082ZM64.1317 60.9685C63.8922 60.9685 63.5329 61.0883 63.4132 61.3281C63.2934 61.5678 63.2934 61.9274 63.4132 62.1672L65.5689 66.3628L63.7725 67.3218L61.6168 63.1262C61.497 62.8864 61.2575 62.7666 61.018 62.6467H60.8982C60.6587 62.6467 60.4192 62.7666 60.2994 62.8864L58.3832 64.8044V52.0978L67.2455 60.9685H64.1317Z" fill="#7F94A8"/>
</svg>
