<svg width="100" height="100" viewBox="0 0 100 100" fill="none" xmlns="http://www.w3.org/2000/svg">
<circle cx="50" cy="50" r="49.5" fill="white" stroke="#7F94A8"/>
<g clip-path="url(#clip0_1389_977)">
<path d="M72.0615 37.2734H66.2642L63.7784 31.8832C63.6275 31.5525 63.2191 31.4005 62.8906 31.5525L60.4581 32.6877L53.0895 27.3869C52.7965 27.1724 52.3704 27.2439 52.1573 27.5478L45.2681 37.2734H27.9386C27.5657 37.2734 27.2727 37.5773 27.2727 37.9438V62.0522C27.2727 62.4187 27.5746 62.7226 27.9386 62.7226H33.7358L36.2216 68.1128C36.3725 68.4435 36.772 68.5955 37.1094 68.4435L39.5419 67.3083L46.9105 72.6091C47.2035 72.8236 47.6296 72.7521 47.8427 72.4482L54.7319 62.7226H72.0526C72.4254 62.7226 72.7184 62.4187 72.7184 62.0522V37.9438C72.7273 37.5773 72.4254 37.2734 72.0615 37.2734ZM62.8462 33.0542L64.7905 37.2734H53.8086L62.8462 33.0542ZM52.8587 28.8797L59.0732 33.3403L50.6481 37.2734H46.9105L52.8587 28.8797ZM42.8977 56.6799V61.3013C42.8977 61.3281 42.8977 61.3549 42.9066 61.3818H38.9027C38.9027 61.3549 38.9116 61.3281 38.9116 61.3013V56.6799V55.4284V38.6143H42.9066V55.4284V56.6799H42.8977ZM28.6044 61.3818V38.6143H37.6598V55.4284H33.6648C33.3185 55.4284 33.0433 55.7055 33.0433 56.0542C33.0433 56.4028 33.3185 56.6799 33.6648 56.6799H37.6598V61.3013C37.6598 61.3281 37.6598 61.3549 37.6687 61.3818H28.6044ZM37.1538 66.9418L35.2095 62.7226H46.1914L37.1538 66.9418ZM47.1413 71.1252L40.9269 66.6647L49.3519 62.7316H53.0895L47.1413 71.1252ZM71.3956 61.3818H44.1406C44.1406 61.3549 44.1495 61.3281 44.1495 61.3013V56.6799H55.5132C55.8594 56.6799 56.1346 56.4028 56.1346 56.0542C56.1346 55.7055 55.8594 55.4284 55.5132 55.4284H44.1406V38.6143H45.6055H65.8292H71.3956V61.3818ZM60.0409 46.5342H61.2038V42.4759H64.5419C66.4418 42.4759 67.5071 43.4413 67.5071 45.1039C67.5071 46.7755 66.4418 47.7677 64.5419 47.7677H62.6243V48.5901H65.1811V49.3678H62.6243V51.102H61.2038V49.3678H60.0409V48.5901H61.2038V47.7677H60.0409V46.5342ZM64.3377 46.5342C65.6073 46.5342 66.0867 45.9889 66.0867 45.1039C66.0867 44.219 65.6073 43.7005 64.3377 43.7005H62.6243V46.5342H64.3377Z" fill="#7F94A8"/>
</g>
<defs>
<clipPath id="clip0_1389_977">
<rect width="45.4545" height="45.4545" fill="white" transform="translate(27.2727 27.2727)"/>
</clipPath>
</defs>
</svg>
