<svg width="44" height="44" viewBox="0 0 44 44" fill="none" xmlns="http://www.w3.org/2000/svg">
<g clip-path="url(#clip0_1389_1056)">
<path d="M42.7324 10.8465L43.9534 7.59C44.0101 7.43882 44.0153 7.27317 43.9682 7.11874C43.9211 6.96431 43.8244 6.82973 43.693 6.73589C43.5617 6.64204 43.403 6.59417 43.2416 6.5997C43.0803 6.60522 42.9253 6.66385 42.8006 6.76647L31.0491 16.445C30.7282 16.7104 30.4891 17.0613 30.3596 17.457C30.23 17.8528 30.2153 18.2772 30.3172 18.6809C30.3831 18.9392 30.4567 19.2246 30.528 19.4975C30.5813 19.7033 30.5691 19.9206 30.4931 20.1191C30.4171 20.3176 30.2811 20.4875 30.104 20.605L30.0751 20.6243C29.8873 20.7496 29.6626 20.8078 29.4376 20.7895C29.2125 20.7712 29.0002 20.6774 28.8351 20.5234L27.089 18.0384L26.6695 15.9408C26.5974 15.5857 26.5965 15.2199 26.6668 14.8644C26.7372 14.509 26.8773 14.171 27.0791 13.8701C27.42 13.3605 27.9204 12.9783 28.5017 12.7835C28.7474 12.7008 29.0071 12.6677 29.2657 12.6861C29.5243 12.7044 29.7766 12.7739 30.0082 12.8905L31.9389 13.8558C32.0643 13.9185 32.2051 13.9439 32.3445 13.929C32.4839 13.9141 32.6162 13.8596 32.7256 13.7718C32.835 13.6841 32.9169 13.5668 32.9617 13.4339C33.0064 13.3011 33.0122 13.1581 32.9782 13.0221L32.5077 11.14C32.3547 10.5279 32.0177 9.97741 31.5421 9.56276L32.1279 6.64831C32.1974 6.29706 32.1365 5.93252 31.9567 5.62289C31.7769 5.31325 31.4904 5.07974 31.1509 4.96604L30.1682 4.63604L30.1591 4.63302C30.1287 4.6233 30.0977 4.61606 30.0674 4.60744V3.66667C30.0674 3.47217 29.9901 3.28565 29.8526 3.14812C29.7151 3.0106 29.5285 2.93333 29.3341 2.93333C29.1396 2.93333 28.953 3.0106 28.8155 3.14812C28.678 3.28565 28.6007 3.47217 28.6007 3.66667V4.60708C28.5701 4.61569 28.539 4.62293 28.5091 4.63265L28.4999 4.63567L27.5191 4.96522C27.1791 5.07879 26.8922 5.3124 26.7121 5.62229C26.532 5.93217 26.4711 6.29708 26.5407 6.64867L27.0125 8.99635C26.6457 9.08507 26.2869 9.20366 25.9395 9.35092L25.0108 7.95758L25.9266 5.20978C26.1035 4.67746 26.0706 4.09768 25.8346 3.58879C25.5986 3.07989 25.1773 2.68025 24.6567 2.47142L22.735 1.7028V0.733333C22.735 0.538841 22.6577 0.352315 22.5202 0.214788C22.3827 0.0772617 22.1961 0 22.0016 0C21.8071 0 21.6206 0.0772617 21.4831 0.214788C21.3456 0.352315 21.2683 0.538841 21.2683 0.733333V1.70307L19.345 2.4717C18.8244 2.68058 18.4032 3.08022 18.1672 3.5891C17.9311 4.09797 17.8982 4.67772 18.075 5.21006L18.991 7.95786L18.0623 9.35119C17.7149 9.20391 17.356 9.08532 16.9892 8.99662L17.4612 6.64831C17.5308 6.29699 17.47 5.93236 17.2901 5.62265C17.1103 5.31294 16.8237 5.07938 16.4841 4.96567L15.5015 4.63567L15.4923 4.63265C15.462 4.62284 15.4309 4.61569 15.4006 4.60708V3.66667C15.4006 3.47217 15.3234 3.28565 15.1858 3.14812C15.0483 3.0106 14.8618 2.93333 14.6673 2.93333C14.4728 2.93333 14.2863 3.0106 14.1487 3.14812C14.0112 3.28565 13.934 3.47217 13.934 3.66667V4.60708C13.9033 4.61569 13.8723 4.62293 13.8423 4.63265L13.8331 4.63567L12.8523 4.96522C12.5123 5.07876 12.2254 5.31236 12.0453 5.62226C11.8652 5.93215 11.8043 6.29708 11.8739 6.64867L12.4594 9.56239C11.9839 9.97706 11.647 10.5275 11.494 11.1396L11.0234 13.0217C10.9894 13.1578 10.9951 13.3007 11.0399 13.4336C11.0846 13.5665 11.1666 13.6838 11.276 13.7716C11.3854 13.8593 11.5176 13.9138 11.6571 13.9287C11.7965 13.9436 11.9373 13.9181 12.0628 13.8554L13.9935 12.8902C14.225 12.7736 14.4774 12.7041 14.736 12.6857C14.9945 12.6673 15.2542 12.7004 15.4999 12.7831C16.0813 12.9779 16.5816 13.3601 16.9225 13.8698C17.1243 14.1707 17.2644 14.5087 17.3347 14.8641C17.405 15.2195 17.4042 15.5854 17.3321 15.9405L16.9128 18.0376L15.1665 20.5227C15.0014 20.6768 14.789 20.7707 14.5638 20.789C14.3387 20.8073 14.1139 20.749 13.9261 20.6235L13.8977 20.6047C13.7206 20.4871 13.5845 20.3173 13.5085 20.1188C13.4325 19.9203 13.4203 19.703 13.4735 19.4972C13.545 19.2243 13.6184 18.9389 13.6844 18.6807C13.7862 18.2769 13.7716 17.8525 13.642 17.4567C13.5124 17.0609 13.2733 16.71 12.9524 16.4446L1.19954 6.76683C1.07493 6.66417 0.919929 6.60549 0.758574 6.59991C0.597219 6.59432 0.438531 6.64214 0.307127 6.73595C0.175724 6.82976 0.0789503 6.96431 0.0318196 7.11873C-0.0153111 7.27315 -0.0101646 7.4388 0.0464607 7.59L1.26746 10.8461C1.95456 12.6757 3.10473 14.2956 4.6055 15.5475L4.9421 15.8279L1.5574 15.4049C1.418 15.3874 1.27653 15.4104 1.14981 15.4711C1.02309 15.5317 0.916454 15.6275 0.842594 15.747C0.768734 15.8665 0.730756 16.0047 0.733175 16.1452C0.735595 16.2856 0.778312 16.4224 0.856244 16.5393C1.89246 18.1001 3.39586 19.2931 5.15129 19.9476L5.67085 20.1424L2.11877 20.537C1.96627 20.554 1.82293 20.6183 1.70894 20.721C1.59494 20.8237 1.51603 20.9596 1.48332 21.1095C1.45061 21.2594 1.46574 21.4158 1.52659 21.5567C1.58744 21.6975 1.69093 21.8157 1.8225 21.8947L3.10813 22.6664C4.64701 23.5915 6.33683 24.2383 8.10011 24.577C6.97748 25.3482 6.01229 26.3265 5.25634 27.4595C5.18259 27.5699 5.14023 27.6984 5.13377 27.831C5.12731 27.9637 5.15701 28.0956 5.21968 28.2127C5.28235 28.3298 5.37565 28.4277 5.48962 28.4959C5.60358 28.5641 5.73393 28.6001 5.86674 28.6H6.15595C7.57946 28.6013 8.98482 28.2805 10.2667 27.6616V29.3333C10.2668 29.4784 10.3098 29.6201 10.3904 29.7407C10.471 29.8612 10.5855 29.9552 10.7195 30.0107C10.8534 30.0662 11.0009 30.0807 11.1431 30.0524C11.2853 30.0241 11.416 29.9543 11.5185 29.8518L13.2001 28.1704L14.1482 29.1185C14.2249 29.1952 14.3177 29.2539 14.4199 29.2904C14.522 29.327 14.631 29.3404 14.739 29.3297C14.8469 29.319 14.9512 29.2845 15.0442 29.2286C15.1372 29.1728 15.2167 29.097 15.2769 29.0067L15.93 28.0271C16.1575 27.6853 16.4845 27.4216 16.8667 27.2718V27.3826C16.8656 27.966 16.6345 28.5254 16.2235 28.9394L15.7029 29.4601C15.14 30.02 14.6938 30.686 14.3901 31.4195C14.0864 32.153 13.9311 32.9394 13.9334 33.7333C13.9335 33.9132 13.9997 34.0868 14.1195 34.221C14.2392 34.3553 14.4041 34.4408 14.5828 34.4614L14.1617 35.3037L13.2463 35.5328L11.3751 33.4402C11.6283 33.038 11.7443 32.5646 11.7058 32.091C11.6673 31.6173 11.4763 31.1689 11.1615 30.8129C10.8466 30.4569 10.4249 30.2126 9.9595 30.1165C9.49409 30.0204 9.01007 30.0778 8.57999 30.2799C8.14992 30.4821 7.79695 30.8182 7.57399 31.2379C7.35104 31.6576 7.27011 32.1382 7.34334 32.6078C7.41656 33.0773 7.64 33.5105 7.98016 33.8424C8.32032 34.1742 8.75887 34.3869 9.23009 34.4485C9.32537 34.461 9.42136 34.4673 9.51746 34.4673C9.75652 34.4667 9.99383 34.4267 10.2199 34.349L11.638 35.9348L11.5555 35.9554C11.4621 35.9788 11.3741 36.0203 11.2968 36.0777C11.2194 36.135 11.154 36.207 11.1045 36.2896C11.0044 36.4564 10.9747 36.6561 11.0219 36.8448C11.0691 37.0335 11.1893 37.1957 11.3561 37.2958C11.5228 37.3958 11.7226 37.4255 11.9112 37.3784L12.7454 37.1699L13.389 37.8839C13.4535 37.9554 13.5314 38.0136 13.6184 38.055C13.7053 38.0964 13.7996 38.1203 13.8957 38.1253C13.9919 38.1303 14.0881 38.1163 14.1789 38.0841C14.2697 38.0519 14.3532 38.0021 14.4247 37.9376C14.4963 37.8731 14.5544 37.7952 14.5958 37.7083C14.6372 37.6213 14.6611 37.5271 14.6661 37.4309C14.6711 37.3347 14.6571 37.2385 14.6249 37.1477C14.5927 37.057 14.5429 36.9734 14.4785 36.9019L14.3569 36.767L14.8449 36.645C14.9476 36.6194 15.0434 36.5718 15.126 36.5056C15.2085 36.4394 15.2757 36.3561 15.323 36.2615L16.2199 34.4667H16.8667C17.0029 34.4667 17.1364 34.4287 17.2523 34.3571C17.3681 34.2855 17.4617 34.183 17.5226 34.0612C17.8283 33.446 18.2819 32.9163 18.8426 32.5194L19.0512 32.8323L17.3214 35.8593C16.5435 37.2221 16.134 38.7641 16.1334 40.3333C16.1334 40.5278 16.2107 40.7144 16.3482 40.8519C16.4857 40.9894 16.6723 41.0667 16.8667 41.0667C17.0612 41.0667 17.2478 40.9894 17.3853 40.8519C17.5228 40.7144 17.6001 40.5278 17.6001 40.3333C17.6006 39.0193 17.9435 37.7282 18.5949 36.587L19.5966 34.8342L19.5088 35.0536C18.7174 37.0208 18.5703 39.1884 19.0887 41.2445C19.1117 41.3383 19.153 41.4266 19.2102 41.5044C19.2674 41.5822 19.3395 41.648 19.4222 41.6978C19.5049 41.7477 19.5966 41.7808 19.6922 41.7951C19.7877 41.8094 19.8851 41.8047 19.9788 41.7813C20.0725 41.7579 20.1606 41.7162 20.2382 41.6586C20.3157 41.601 20.3811 41.5287 20.4306 41.4457C20.4801 41.3628 20.5127 41.2709 20.5266 41.1753C20.5405 41.0797 20.5354 40.9823 20.5115 40.8887C20.0686 39.1317 20.1943 37.2794 20.8706 35.5983L20.8797 35.575L21.2666 36.1553V43.2667C21.2666 43.4612 21.3438 43.6477 21.4813 43.7852C21.6189 43.9227 21.8054 44 21.9999 44C22.1944 44 22.3809 43.9227 22.5184 43.7852C22.656 43.6477 22.7332 43.4612 22.7332 43.2667V36.1549L23.1201 35.5746L23.1292 35.5979C23.8055 37.279 23.9312 39.1313 23.4883 40.8884C23.4644 40.982 23.4593 41.0794 23.4732 41.1749C23.4871 41.2705 23.5197 41.3624 23.5692 41.4453C23.6187 41.5283 23.6841 41.6006 23.7616 41.6582C23.8392 41.7158 23.9273 41.7575 24.021 41.7809C24.1147 41.8044 24.2121 41.8091 24.3076 41.7947C24.4032 41.7804 24.4949 41.7474 24.5776 41.6975C24.6603 41.6476 24.7324 41.5819 24.7896 41.5041C24.8468 41.4263 24.8881 41.3379 24.9111 41.2441C25.4294 39.188 25.2823 37.0205 24.4909 35.0532L24.4031 34.8332L25.4049 36.5864C26.0565 37.7277 26.3995 39.0191 26.4001 40.3333C26.4001 40.5278 26.4773 40.7144 26.6149 40.8519C26.7524 40.9894 26.9389 41.0667 27.1334 41.0667C27.3279 41.0667 27.5144 40.9894 27.652 40.8519C27.7895 40.7144 27.8667 40.5278 27.8667 40.3333C27.8661 38.7641 27.4566 37.2221 26.6787 35.8593L24.9488 32.8323L25.1574 32.5194C25.7181 32.9163 26.1716 33.446 26.4774 34.0612C26.5383 34.1831 26.6319 34.2855 26.7478 34.3572C26.8637 34.4288 26.9972 34.4667 27.1334 34.4667H27.7802L28.6775 36.2612C28.7248 36.3558 28.7919 36.439 28.8744 36.5051C28.9568 36.5713 29.0525 36.6189 29.155 36.6446L31.052 37.1204C31.2531 37.5747 31.5663 37.9705 31.9622 38.2707C32.3581 38.5709 32.8237 38.7655 33.3155 38.8365C33.8072 38.9074 34.3089 38.8523 34.7735 38.6763C35.2382 38.5002 35.6504 38.2091 35.9717 37.8301C36.293 37.4512 36.5128 36.9968 36.6104 36.5097C36.7081 36.0225 36.6804 35.5186 36.53 35.0451C36.3795 34.5715 36.1113 34.144 35.7504 33.8025C35.3895 33.461 34.9478 33.2168 34.4667 33.0928V32.2667C34.4667 32.0722 34.3895 31.8856 34.252 31.7481C34.1144 31.6106 33.9279 31.5333 33.7334 31.5333C33.5389 31.5333 33.3524 31.6106 33.2149 31.7481C33.0773 31.8856 33.0001 32.0722 33.0001 32.2667V33.0928C32.4343 33.2401 31.9253 33.5526 31.538 33.9906C31.1507 34.4286 30.9027 34.972 30.8257 35.5515L29.8387 35.304L29.417 34.4615C29.5958 34.441 29.7608 34.3555 29.8806 34.2212C30.0004 34.0869 30.0667 33.9133 30.0667 33.7333C30.069 32.9395 29.9139 32.153 29.6102 31.4195C29.3065 30.686 28.8604 30.02 28.2976 29.4601L27.7769 28.9394C27.366 28.5254 27.1349 27.966 27.1337 27.3826V27.2718C27.5159 27.4216 27.8429 27.6853 28.0704 28.0271L28.7236 29.0067C28.7837 29.097 28.8632 29.1728 28.9562 29.2286C29.0492 29.2845 29.1535 29.319 29.2615 29.3297C29.3694 29.3404 29.4784 29.327 29.5806 29.2904C29.6827 29.2539 29.7755 29.1952 29.8522 29.1185L30.8004 28.1704L32.4818 29.8518C32.5844 29.9543 32.715 30.024 32.8572 30.0523C32.9994 30.0805 33.1468 30.066 33.2807 30.0105C33.4147 29.955 33.5292 29.8611 33.6097 29.7405C33.6903 29.62 33.7333 29.4783 33.7334 29.3333V27.6612C35.0153 28.2803 36.4207 28.6012 37.8442 28.6H38.1334C38.2661 28.6 38.3964 28.564 38.5103 28.4958C38.6241 28.4275 38.7173 28.3297 38.78 28.2127C38.8426 28.0956 38.8723 27.9638 38.8659 27.8312C38.8595 27.6986 38.8172 27.5703 38.7435 27.4599C37.9876 26.3269 37.0225 25.3486 35.8999 24.5774C37.6631 24.2386 39.3529 23.5919 40.8918 22.6668L42.1774 21.8954C42.3089 21.8165 42.4124 21.6982 42.4733 21.5574C42.5341 21.4165 42.5493 21.2601 42.5166 21.1102C42.4838 20.9603 42.4049 20.8245 42.2909 20.7217C42.1769 20.619 42.0336 20.5547 41.8811 20.5377L38.329 20.1431L38.8485 19.9483C40.604 19.2939 42.1074 18.1009 43.1436 16.5401C43.2217 16.4232 43.2645 16.2863 43.267 16.1457C43.2695 16.0052 43.2315 15.8669 43.1576 15.7473C43.0837 15.6277 42.977 15.5319 42.8502 15.4713C42.7233 15.4106 42.5818 15.3877 42.4423 15.4052L39.0576 15.8283L39.3942 15.5479C40.895 14.296 42.0453 12.6761 42.7324 10.8465ZM9.42094 32.9936C9.23664 32.969 9.06855 32.8754 8.95066 32.7317C8.83277 32.5879 8.77389 32.4047 8.78592 32.2192C8.79795 32.0337 8.88 31.8596 9.01547 31.7323C9.15094 31.605 9.32971 31.5339 9.51563 31.5333C9.66715 31.5331 9.81502 31.5798 9.93886 31.6671C10.0627 31.7544 10.1564 31.878 10.207 32.0208C10.2577 32.1636 10.2628 32.3186 10.2216 32.4645C10.1805 32.6103 10.0951 32.7397 9.97726 32.835C9.96296 32.8448 9.94903 32.8554 9.93528 32.8663C9.78575 32.9715 9.60226 33.0169 9.42094 32.9936ZM33.7334 37.4C33.4763 37.3997 33.2238 37.3317 33.0012 37.203C32.7786 37.0743 32.5938 36.8893 32.4652 36.6667H35.0016C34.8731 36.8893 34.6882 37.0743 34.4656 37.203C34.243 37.3317 33.9905 37.3997 33.7334 37.4ZM35.0016 35.2H34.4667V34.6651C34.6885 34.7939 34.8729 34.9782 35.0016 35.2ZM33.0001 34.6651V35.2H32.4652C32.5939 34.9781 32.7783 34.7937 33.0001 34.6648V34.6651ZM18.3334 19.0667H25.6667V27.5429C25.6669 27.6969 25.6185 27.8469 25.5285 27.9718C25.4385 28.0967 25.3114 28.1901 25.1653 28.2387L22.0001 29.2937L18.8348 28.2387C18.6887 28.1901 18.5617 28.0967 18.4716 27.9718C18.3816 27.8469 18.3333 27.6969 18.3334 27.5429V19.0667ZM30.6641 11.5784C30.2605 11.3752 29.8205 11.254 29.3698 11.222C28.919 11.1899 28.4663 11.2476 28.038 11.3917C27.1474 11.6901 26.381 12.2755 25.8588 13.0562C25.5497 13.5171 25.3351 14.0347 25.2273 14.5792C25.1196 15.1236 25.1209 15.6839 25.2312 16.2278L25.5056 17.6H22.8456L23.2189 14.9875C23.406 13.6773 24.0595 12.4785 25.0593 11.6114C26.0592 10.7442 27.3383 10.2667 28.6618 10.2667H29.5106C29.8724 10.2666 30.2238 10.3874 30.509 10.61C30.7942 10.8326 30.9969 11.1441 31.0848 11.495L31.1687 11.8302L30.6641 11.5784ZM27.9829 6.35607L28.9603 6.02782C29.2031 5.95173 29.4633 5.95173 29.706 6.02782L30.6898 6.35992L30.1843 8.87535C29.9632 8.82553 29.7372 8.80017 29.5106 8.79973H28.6618C28.5974 8.79973 28.5333 8.80064 28.4693 8.80247L27.9829 6.35607ZM19.8898 3.8335L22.0001 2.98934L24.1104 3.8335C24.284 3.90311 24.4244 4.03632 24.503 4.20593C24.5817 4.37555 24.5927 4.56879 24.5337 4.74623L23.6715 7.33333H20.3286L19.4664 4.74668C19.4073 4.56918 19.4183 4.37581 19.497 4.20609C19.5756 4.03637 19.7162 3.9031 19.8898 3.8335ZM20.1923 8.79954H23.8075L24.6519 10.0662C23.385 10.9609 22.452 12.2519 21.9999 13.7355C21.5477 12.252 20.6147 10.961 19.3479 10.0662L20.1923 8.79954ZM14.2937 6.02782C14.5364 5.9516 14.7966 5.9516 15.0394 6.02782L16.0231 6.35983L15.5323 8.80238C15.4679 8.80061 15.4032 8.7997 15.3384 8.79963H14.4896C14.2633 8.80007 14.0377 8.82537 13.8169 8.87508L13.3161 6.35607L14.2937 6.02782ZM15.962 11.3917C15.5337 11.2476 15.081 11.1899 14.6302 11.2219C14.1794 11.254 13.7395 11.3752 13.3358 11.5784L12.8317 11.8306L12.9155 11.4953C13.0033 11.1443 13.2059 10.8328 13.4911 10.6101C13.7763 10.3875 14.1278 10.2666 14.4896 10.2667H15.3384C16.6619 10.2667 17.941 10.7441 18.9409 11.6113C19.9407 12.4785 20.5942 13.6773 20.7813 14.9875L21.1545 17.6H18.4947L18.7689 16.2286C18.8792 15.6847 18.8805 15.1243 18.7728 14.5799C18.6651 14.0355 18.4505 13.5178 18.1414 13.0569C17.6192 12.276 16.8528 11.6903 15.9622 11.3917H15.962ZM14.7095 27.2134L14.5525 27.4487L13.7184 26.6145C13.5808 26.477 13.3943 26.3997 13.1998 26.3997C13.0054 26.3997 12.8189 26.477 12.6813 26.6145L11.7332 27.5626V26.4C11.7332 26.2673 11.6972 26.137 11.629 26.0231C11.5608 25.9092 11.463 25.816 11.3459 25.7534C11.2289 25.6907 11.0971 25.661 10.9645 25.6674C10.8319 25.6739 10.7035 25.7161 10.5931 25.7898C9.65338 26.4174 8.59103 26.8382 7.47641 27.0243C8.21121 26.2539 9.07366 25.6165 10.0257 25.14L10.594 24.8559C10.7325 24.7866 10.8455 24.6753 10.9169 24.5379C10.9883 24.4005 11.0143 24.244 10.9913 24.0909C10.9683 23.9378 10.8974 23.7959 10.7888 23.6855C10.6801 23.5752 10.5394 23.502 10.3866 23.4766L8.72564 23.1997C7.23713 22.9529 5.79908 22.464 4.46855 21.7525L8.88102 21.2623C9.04486 21.2441 9.19779 21.1712 9.31515 21.0555C9.4325 20.9397 9.50742 20.7878 9.52782 20.6242C9.54822 20.4606 9.51292 20.2949 9.4276 20.1539C9.34228 20.0128 9.21192 19.9046 9.05757 19.8468L5.66654 18.5746C4.77282 18.2411 3.95166 17.7386 3.24792 17.0945L7.24229 17.5939C7.39957 17.6135 7.55898 17.5817 7.69665 17.5032C7.83433 17.4246 7.94285 17.3036 8.00596 17.1582C8.06908 17.0128 8.08339 16.8509 8.04675 16.6967C8.01012 16.5425 7.92451 16.4043 7.80274 16.3028L5.54472 14.4211C4.23922 13.3322 3.23872 11.923 2.64109 10.3315L2.38194 9.64049L12.0187 17.5766C12.1251 17.6645 12.2045 17.7807 12.2475 17.9119C12.2906 18.043 12.2956 18.1837 12.262 18.3176C12.1966 18.5731 12.1239 18.8556 12.0532 19.1256C11.9227 19.6268 11.9518 20.1562 12.1364 20.6401C12.321 21.124 12.6519 21.5383 13.0831 21.8252L13.1115 21.8441C13.5919 22.1644 14.1693 22.3063 14.7434 22.245C15.3175 22.1837 15.8519 21.9231 16.2538 21.5085C16.2806 21.4809 16.3051 21.4512 16.3271 21.4197L16.8666 20.652V22.3667L16.3419 22.7602C15.8444 23.1324 15.2439 23.3415 14.6228 23.3587C14.0018 23.376 13.3906 23.2005 12.8733 22.8564C12.7932 22.803 12.7033 22.7659 12.6088 22.7472C12.5143 22.7285 12.4171 22.7286 12.3227 22.7475C12.2283 22.7664 12.1385 22.8037 12.0584 22.8573C11.9784 22.9109 11.9098 22.9797 11.8563 23.0599C11.8029 23.14 11.7658 23.2298 11.7471 23.3243C11.7284 23.4188 11.7285 23.516 11.7474 23.6105C11.7663 23.7049 11.8036 23.7947 11.8572 23.8747C11.9108 23.9547 11.9796 24.0234 12.0597 24.0768C12.7688 24.5485 13.5977 24.8081 14.4491 24.8252C15.3005 24.8423 16.1392 24.6161 16.8666 24.1732V25.746C15.9839 25.9355 15.2101 26.4618 14.7096 27.2132L14.7095 27.2134ZM27.26 30.497C27.9415 31.1746 28.3903 32.051 28.5421 33H27.5659C27.0151 32.0878 26.2157 31.3514 25.2614 30.8774C25.1015 30.7974 24.918 30.7786 24.7452 30.8245C24.5725 30.8704 24.4224 30.9778 24.3233 31.1265L22.0001 34.6112L19.6769 31.1262C19.5777 30.9775 19.4277 30.8701 19.255 30.8242C19.0823 30.7783 18.8987 30.7971 18.7389 30.877C17.7844 31.3512 16.9849 32.0876 16.4342 33H15.458C15.6099 32.0512 16.0587 31.1751 16.74 30.4975L17.2606 29.9768C17.4569 29.7798 17.6298 29.5609 17.776 29.3244C17.9576 29.4561 18.1582 29.5592 18.371 29.6302L21.7682 30.7627C21.9187 30.8129 22.0815 30.8129 22.232 30.7627L25.6291 29.6302C25.8419 29.5593 26.0426 29.4561 26.2242 29.3244C26.3703 29.5609 26.5433 29.7798 26.7395 29.9768L27.26 30.497ZM38.4553 14.4211L36.1973 16.3028C36.0756 16.4043 35.99 16.5425 35.9533 16.6967C35.9167 16.8509 35.931 17.0128 35.9941 17.1582C36.0572 17.3035 36.1657 17.4246 36.3034 17.5031C36.441 17.5817 36.6004 17.6135 36.7577 17.5939L40.7522 17.0945C40.0485 17.7386 39.2273 18.2411 38.3335 18.5746L34.9426 19.8463C34.7882 19.9042 34.6579 20.0124 34.5726 20.1534C34.4872 20.2945 34.4519 20.4601 34.4723 20.6237C34.4927 20.7873 34.5677 20.9392 34.685 21.055C34.8024 21.1708 34.9553 21.2436 35.1191 21.2618L39.5316 21.752C38.2009 22.4636 36.7627 22.9525 35.274 23.1994L33.613 23.4762C33.4602 23.5017 33.3195 23.5748 33.2108 23.6852C33.1022 23.7955 33.0313 23.9374 33.0083 24.0905C32.9853 24.2437 33.0113 24.4001 33.0827 24.5376C33.1541 24.675 33.2671 24.7863 33.4056 24.8555L33.9739 25.1397C34.9259 25.6161 35.7883 26.2536 36.5231 27.0239C35.4085 26.8379 34.3461 26.4171 33.4064 25.7894C33.296 25.7159 33.1676 25.6737 33.0351 25.6674C32.9025 25.661 32.7707 25.6908 32.6538 25.7535C32.5368 25.8161 32.439 25.9094 32.3709 26.0232C32.3027 26.1371 32.2667 26.2673 32.2667 26.4V27.5629L31.3186 26.6148C31.2505 26.5467 31.1697 26.4927 31.0807 26.4558C30.9917 26.4189 30.8964 26.4 30.8001 26.4C30.7038 26.4 30.6084 26.4189 30.5194 26.4558C30.4305 26.4927 30.3496 26.5467 30.2815 26.6148L29.4474 27.4489L29.2904 27.2136C28.7901 26.4621 28.0161 25.9356 27.1334 25.7461V24.1725C27.8608 24.6154 28.6994 24.8415 29.5509 24.8244C30.4023 24.8074 31.2312 24.5477 31.9402 24.0761C32.1021 23.9682 32.2144 23.8004 32.2525 23.6097C32.2907 23.419 32.2515 23.2209 32.1436 23.0591C32.0358 22.8973 31.868 22.7849 31.6773 22.7468C31.4866 22.7086 31.2885 22.7478 31.1267 22.8557C30.6094 23.1998 29.9982 23.3752 29.3772 23.358C28.7561 23.3408 28.1556 23.1317 27.6582 22.7595L27.1334 22.3667V20.6525L27.6729 21.4202C27.695 21.4517 27.7195 21.4814 27.7462 21.509C28.1481 21.9236 28.6826 22.1841 29.2568 22.2454C29.8309 22.3066 30.4083 22.1646 30.8886 21.8442L30.9175 21.825C31.3486 21.5381 31.6794 21.1239 31.8639 20.64C32.0484 20.1562 32.0774 19.6269 31.9469 19.1258C31.8762 18.8557 31.8035 18.5732 31.7382 18.3177C31.7046 18.1838 31.7096 18.0431 31.7526 17.912C31.7957 17.7808 31.875 17.6646 31.9815 17.5767L41.6182 9.64049L41.3592 10.3315C40.7615 11.923 39.7609 13.3322 38.4553 14.4211Z" fill="#7F94A8"/>
</g>
<defs>
<clipPath id="clip0_1389_1056">
<rect width="44" height="44" fill="white"/>
</clipPath>
</defs>
</svg>
