<svg width="44" height="44" viewBox="0 0 44 44" fill="none" xmlns="http://www.w3.org/2000/svg">
<g clip-path="url(#clip0_1389_1044)">
<path d="M26.9767 17.9129L20.3656 24.1571L17.1928 20.893C16.8411 20.5309 16.2619 20.5227 15.9002 20.8744C15.538 21.2265 15.5298 21.8053 15.8815 22.1674L19.6869 26.0738C20.0404 26.4295 20.6117 26.4416 20.9799 26.101L28.2515 19.2425C28.428 19.076 28.5312 18.846 28.538 18.6035C28.5448 18.361 28.4549 18.1257 28.288 17.9495C27.9341 17.5816 27.3506 17.5655 26.9767 17.9129Z" fill="#7F94A8"/>
<path d="M22.071 8.30298C14.5154 8.30298 8.37183 14.4466 8.37183 22.0021C8.37183 29.558 14.5154 35.7016 22.071 35.7016C29.6269 35.7016 35.7705 29.558 35.7705 22.0021C35.7705 14.4466 29.6269 8.30298 22.071 8.30298ZM22.071 33.8677C15.5241 33.8677 10.2057 28.5401 10.2057 22.0021C10.2057 15.4642 15.5241 10.1369 22.071 10.1369C28.6243 10.1369 33.9366 15.4491 33.9366 22.0021C33.9366 28.5551 28.6243 33.8677 22.071 33.8677Z" fill="#7F94A8"/>
<path d="M40.9236 16.9591L41.2263 11.5215C41.2474 11.1565 41.049 10.8137 40.722 10.6504L35.8804 8.20217L33.4322 3.36058C33.2656 3.03642 32.925 2.83906 32.5611 2.85626L27.1141 3.14997L22.5752 0.151244C22.2693 -0.0504146 21.8728 -0.0504146 21.5666 0.151244L17.0276 3.14997L11.5904 2.8473C11.225 2.82581 10.8826 3.02424 10.7193 3.35163L8.27074 8.19321L3.42951 10.6414C3.10499 10.8076 2.90799 11.1482 2.92518 11.5125L3.22749 16.9501L0.229125 21.489C0.0274662 21.7949 0.0274662 22.1914 0.229125 22.4977L3.21854 27.0456L2.91587 32.4832C2.89474 32.8482 3.09281 33.1909 3.4202 33.3543L8.26178 35.8025L10.71 40.644C10.8762 40.9686 11.2168 41.1656 11.5811 41.1484L17.0187 40.8457L21.5576 43.8441C21.8617 44.0522 22.2622 44.0522 22.5663 43.8441L27.1052 40.8457L32.5428 41.1484C32.9078 41.1695 33.2502 40.9711 33.4139 40.644L35.8621 35.8025L40.7037 33.3543C41.0278 33.1877 41.2252 32.8474 41.208 32.4832L40.9053 27.0456L43.9037 22.5066C44.1054 22.2007 44.1054 21.8039 43.9037 21.498L40.9236 16.9591ZM39.2179 26.2937C39.1062 26.4578 39.0542 26.6551 39.0714 26.8532L39.3555 31.9971L34.78 34.3078C34.6056 34.3952 34.4641 34.537 34.3767 34.7114L32.0657 39.2869L26.9218 39.0028C26.7248 38.9957 26.5303 39.0465 26.3623 39.1493L22.0709 41.9829L17.7798 39.1493C17.6308 39.0487 17.4553 38.9942 17.2755 38.9935H17.2297L12.0854 39.2779L9.77476 34.7021C9.68736 34.5277 9.54588 34.3862 9.37108 34.2988L4.78631 31.9971L5.07071 26.8532C5.07788 26.6562 5.02666 26.4617 4.92386 26.2937L2.09061 22.0023L4.92386 17.7109C5.03597 17.5472 5.08791 17.3495 5.07071 17.1518L4.78631 12.0075L9.36213 9.69687C9.53656 9.60947 9.67805 9.46799 9.76544 9.29355L12.0761 4.71774L17.2204 5.00214C17.417 5.00895 17.6115 4.95808 17.7798 4.85529L22.0709 2.02204L26.3623 4.85529C26.5264 4.9674 26.7241 5.01933 26.9218 5.00214L32.0657 4.71774L34.3767 9.29355C34.4641 9.46799 34.6056 9.60947 34.78 9.69687L39.3555 12.0075L39.0714 17.1518C39.0643 17.3484 39.1155 17.5429 39.2179 17.7109L42.0515 22.0023L39.2179 26.2937Z" fill="#7F94A8"/>
</g>
<defs>
<clipPath id="clip0_1389_1044">
<rect width="44" height="44" fill="white"/>
</clipPath>
</defs>
</svg>
