<svg width="44" height="44" viewBox="0 0 44 44" fill="none" xmlns="http://www.w3.org/2000/svg">
<path d="M28.7135 16.9443H12.9128C12.5836 16.9443 12.2544 17.2087 12.2544 17.6052C12.2544 17.9357 12.5178 18.2661 12.9128 18.2661H28.7135C29.0427 18.2661 29.3719 18.0017 29.3719 17.6052C29.3719 17.2087 29.0427 16.9443 28.7135 16.9443ZM12.9128 13.1113H19.2331C19.5623 13.1113 19.8915 12.847 19.8915 12.4504C19.8915 12.12 19.6281 11.7896 19.2331 11.7896H12.9128C12.5836 11.7896 12.2544 12.0539 12.2544 12.4504C12.3203 12.847 12.5836 13.1113 12.9128 13.1113ZM28.7135 22.033H12.9128C12.5836 22.033 12.2544 22.2974 12.2544 22.6939C12.2544 23.0243 12.5178 23.3548 12.9128 23.3548H28.7135C29.0427 23.3548 29.3719 23.0904 29.3719 22.6939C29.3719 22.2974 29.0427 22.033 28.7135 22.033ZM23.6441 27.0557H12.9128C12.5836 27.0557 12.2544 27.32 12.2544 27.7165C12.2544 28.113 12.5178 28.3774 12.9128 28.3774H23.6441C23.9733 28.3774 24.3025 28.113 24.3025 27.7165C24.3025 27.32 24.0391 27.0557 23.6441 27.0557ZM21.8007 33.4C22.1299 33.4 22.4591 33.1356 22.4591 32.7391C22.4591 32.3426 22.1957 32.0783 21.8007 32.0783H12.9128C12.5836 32.0783 12.2544 32.3426 12.2544 32.7391C12.2544 33.1356 12.5178 33.4 12.9128 33.4H21.8007ZM7.25089 4.25565H25.5534V13.1113H34.3754V24.5443H35.6263V12.2522L26.4093 3H6V41H24.3025V39.7443H7.25089V4.25565ZM26.8043 5.18087L33.4537 11.8557H26.8043V5.18087ZM42.4075 26.527L40.6299 24.7426C39.9057 24.0157 38.6548 24.0157 37.9964 24.7426L28.2527 34.4574L26.9359 39.4139L26.6068 39.7443C26.3434 40.0087 26.3434 40.4052 26.6068 40.6035C26.7384 40.7356 26.8701 40.8017 27.0676 40.8017C27.1993 40.8017 27.3968 40.7356 27.5285 40.6035L27.8577 40.273L32.7954 38.9513L42.4733 29.2365C42.8025 28.9061 43 28.3774 43 27.9148C42.9342 27.3861 42.7367 26.9235 42.4075 26.527ZM29.7011 34.7878L36.153 28.3113L38.8523 31.0209L32.3345 37.4974L29.7011 34.7878ZM29.1085 36.0435L31.1495 38.0922L28.3843 38.8852L29.1085 36.0435ZM41.4858 28.3113L39.7082 30.0957L37.0089 27.4522L38.7865 25.6678C39.0498 25.4035 39.4448 25.4035 39.6423 25.6678L41.4199 27.4522C41.5516 27.5843 41.6174 27.7165 41.6174 27.9148C41.6833 28.047 41.6174 28.1791 41.4858 28.3113Z" fill="#7F94A8"/>
</svg>
