<svg width="169" height="50" viewBox="0 0 169 50" fill="none" xmlns="http://www.w3.org/2000/svg">
<path d="M162.741 50H6.25926C2.75407 50 0 47.25 0 43.75V6.25C0 2.75 2.75407 0 6.25926 0H162.741C166.246 0 169 2.75 169 6.25V43.75C169 47.25 166.246 50 162.741 50Z" fill="white"/>
<path d="M85.2511 27.2501C82.2467 27.2501 79.8681 29.5001 79.8681 32.6251C79.8681 35.6251 82.2467 38.0001 85.2511 38.0001C88.2556 38.0001 90.6341 35.7501 90.6341 32.6251C90.6341 29.3751 88.2556 27.2501 85.2511 27.2501ZM85.2511 35.7501C83.6237 35.7501 82.2467 34.3751 82.2467 32.5001C82.2467 30.6251 83.6237 29.2501 85.2511 29.2501C86.8785 29.2501 88.2556 30.5001 88.2556 32.5001C88.2556 34.3751 86.8785 35.7501 85.2511 35.7501ZM73.6089 27.2501C70.6044 27.2501 68.2259 29.5001 68.2259 32.6251C68.2259 35.6251 70.6044 38.0001 73.6089 38.0001C76.6133 38.0001 78.9918 35.7501 78.9918 32.6251C78.9918 29.3751 76.6133 27.2501 73.6089 27.2501ZM73.6089 35.7501C71.9815 35.7501 70.6044 34.3751 70.6044 32.5001C70.6044 30.6251 71.9815 29.2501 73.6089 29.2501C75.2363 29.2501 76.6133 30.5001 76.6133 32.5001C76.6133 34.3751 75.2363 35.7501 73.6089 35.7501ZM59.7133 28.8751V31.1251H65.0963C64.9711 32.3751 64.4704 33.3751 63.8444 34.0001C63.0933 34.7501 61.8415 35.6251 59.7133 35.6251C56.3333 35.6251 53.8296 33.0001 53.8296 29.6251C53.8296 26.2501 56.4585 23.6251 59.7133 23.6251C61.4659 23.6251 62.843 24.3751 63.8444 25.2501L65.4719 23.6251C64.0948 22.3751 62.3422 21.3751 59.8385 21.3751C55.3319 21.3751 51.4511 25.1251 51.4511 29.6251C51.4511 34.1251 55.3319 37.8751 59.8385 37.8751C62.3422 37.8751 64.0948 37.1251 65.597 35.5001C67.0993 34.0001 67.6 31.8751 67.6 30.2501C67.6 29.7501 67.6 29.2501 67.4748 28.8751H59.7133ZM116.547 30.6251C116.047 29.3751 114.795 27.2501 112.041 27.2501C109.287 27.2501 107.033 29.3751 107.033 32.6251C107.033 35.6251 109.287 38.0001 112.291 38.0001C114.67 38.0001 116.172 36.5001 116.673 35.6251L114.92 34.3751C114.294 35.2501 113.543 35.8751 112.291 35.8751C111.039 35.8751 110.288 35.3751 109.662 34.2501L116.798 31.2501L116.547 30.6251ZM109.287 32.3751C109.287 30.3751 110.914 29.2501 112.041 29.2501C112.917 29.2501 113.793 29.7501 114.044 30.3751L109.287 32.3751ZM103.403 37.5001H105.781V21.8751H103.403V37.5001ZM99.6474 28.3751C99.0215 27.7501 98.02 27.1251 96.7681 27.1251C94.1393 27.1251 91.6355 29.5001 91.6355 32.5001C91.6355 35.5001 94.0141 37.7501 96.7681 37.7501C98.02 37.7501 99.0215 37.1251 99.5222 36.5001H99.6474V37.2501C99.6474 39.2501 98.5207 40.3751 96.7681 40.3751C95.3911 40.3751 94.3896 39.3751 94.1393 38.5001L92.1363 39.3751C92.7622 40.7501 94.2644 42.5001 96.8933 42.5001C99.6474 42.5001 101.901 40.8751 101.901 37.0001V27.5001H99.6474V28.3751ZM96.8933 35.7501C95.2659 35.7501 93.8889 34.3751 93.8889 32.5001C93.8889 30.6251 95.2659 29.2501 96.8933 29.2501C98.5207 29.2501 99.7726 30.6251 99.7726 32.5001C99.7726 34.3751 98.5207 35.7501 96.8933 35.7501ZM127.439 21.8751H121.805V37.5001H124.184V31.6251H127.439C130.067 31.6251 132.571 29.7501 132.571 26.7501C132.571 23.7501 130.067 21.8751 127.439 21.8751ZM127.564 29.3751H124.184V24.0001H127.564C129.316 24.0001 130.318 25.5001 130.318 26.6251C130.193 28.0001 129.191 29.3751 127.564 29.3751ZM141.96 27.1251C140.207 27.1251 138.455 27.8751 137.829 29.5001L139.957 30.3751C140.458 29.5001 141.209 29.2501 142.085 29.2501C143.337 29.2501 144.464 30.0001 144.589 31.2501V31.3751C144.213 31.1251 143.212 30.7501 142.21 30.7501C139.957 30.7501 137.704 32.0001 137.704 34.2501C137.704 36.3751 139.581 37.7501 141.584 37.7501C143.212 37.7501 143.963 37.0001 144.589 36.2501H144.714V37.5001H146.967V31.5001C146.717 28.7501 144.589 27.1251 141.96 27.1251ZM141.71 35.7501C140.959 35.7501 139.832 35.3751 139.832 34.3751C139.832 33.1251 141.209 32.7501 142.336 32.7501C143.337 32.7501 143.838 33.0001 144.464 33.2501C144.213 34.7501 142.961 35.7501 141.71 35.7501ZM154.854 27.5001L152.225 34.2501H152.1L149.346 27.5001H146.842L150.973 37.0001L148.595 42.2501H150.973L157.358 27.5001H154.854ZM133.823 37.5001H136.201V21.8751H133.823V37.5001Z" fill="#373A36"/>
<g clip-path="url(#clip0_1511_454)">
<path d="M17.8243 10.4795C16.6489 9.83082 15.2688 9.84582 14.1009 10.4889L27.7891 23.0976L32.3875 18.506L17.8243 10.4795Z" fill="#373A36"/>
<path d="M12.7306 11.7788C12.3964 12.3244 12.2049 12.9487 12.2049 13.6106V36.383C12.2049 37.0243 12.3795 37.6355 12.6949 38.1698L26.4602 24.425L12.7306 11.7788Z" fill="#373A36"/>
<path d="M38.4843 21.8662L34.098 19.4495L29.1691 24.3692L35.2096 29.932L38.4861 28.1265C39.6653 27.474 40.3713 26.3041 40.3713 24.9954C40.3694 23.6867 39.6653 22.5168 38.4843 21.8662Z" fill="#373A36"/>
<path d="M27.8417 25.6966L14.0389 39.4789C14.6379 39.8202 15.2951 40.0002 15.956 40.0002C16.5945 40.0002 17.2366 39.8389 17.8243 39.5146L33.4785 30.8882L27.8417 25.6966Z" fill="#373A36"/>
</g>
<path d="M52.703 17.875H51.8267V15.375H52.5778C53.2037 14.875 53.5793 13.875 53.5793 12.5V8.75H58.5867V15.375H59.463V17.875H58.5867V16.25H52.8281V17.875H52.703ZM54.4555 12.5C54.4555 13.625 54.2052 14.625 53.7044 15.375H57.46V9.625H54.3304V12.5H54.4555Z" fill="#373A36" stroke="#373A36" stroke-width="0.2" stroke-miterlimit="10"/>
<path d="M66.8489 15.2499C66.0978 15.9999 65.2215 16.3749 64.0948 16.3749C62.9681 16.3749 62.0918 15.9999 61.3407 15.2499C60.5896 14.4999 60.2141 13.6249 60.2141 12.4999C60.2141 11.3749 60.5896 10.4999 61.3407 9.74994C62.0918 8.99994 62.9681 8.62494 64.0948 8.62494C65.2215 8.62494 66.0978 8.99994 66.8489 9.74994C67.6 10.4999 67.9755 11.3749 67.9755 12.4999C67.9755 13.6249 67.6 14.4999 66.8489 15.2499ZM62.0918 14.6249C62.5926 15.1249 63.3437 15.4999 64.0948 15.4999C64.8459 15.4999 65.597 15.2499 66.0978 14.6249C66.5985 14.1249 66.9741 13.3749 66.9741 12.4999C66.9741 11.6249 66.7237 10.8749 66.0978 10.3749C65.597 9.87494 64.8459 9.49994 64.0948 9.49994C63.3437 9.49994 62.5926 9.74994 62.0918 10.3749C61.5911 10.8749 61.2155 11.6249 61.2155 12.4999C61.2155 13.3749 61.4659 14.1249 62.0918 14.6249Z" fill="#373A36" stroke="#373A36" stroke-width="0.2" stroke-miterlimit="10"/>
<path d="M72.8578 16.3749C71.7311 16.3749 70.8548 15.9999 70.1037 15.2499C69.3526 14.4999 68.977 13.6249 68.977 12.4999C68.977 11.3749 69.3526 10.4999 70.1037 9.74994C70.8548 8.99994 71.7311 8.62494 72.8578 8.62494C73.9844 8.62494 74.8607 8.99994 75.6118 9.87494L74.9859 10.4999C74.4852 9.87494 73.7341 9.49994 72.8578 9.49994C71.9815 9.49994 71.3555 9.74994 70.7296 10.3749C70.1037 10.8749 69.8533 11.6249 69.8533 12.4999C69.8533 13.3749 70.1037 14.1249 70.7296 14.6249C71.2304 15.1249 71.9815 15.4999 72.8578 15.4999C73.7341 15.4999 74.4852 15.1249 75.1111 14.3749L75.737 14.9999C75.3615 15.3749 74.9859 15.7499 74.4852 15.9999C73.9844 16.2499 73.4837 16.3749 72.8578 16.3749Z" fill="#373A36" stroke="#373A36" stroke-width="0.2" stroke-miterlimit="10"/>
<path d="M79.743 16.25H78.7415V9.625H76.6133V8.75H81.7459V9.625H79.6178V16.25H79.743Z" fill="#373A36" stroke="#373A36" stroke-width="0.2" stroke-miterlimit="10"/>
<path d="M88.3807 8.75L85.5015 15.125C85.1259 16 84.5 16.5 83.7489 16.5C83.4985 16.5 83.2482 16.5 82.9978 16.375L83.2481 15.5C83.3733 15.625 83.6237 15.625 83.7489 15.625C83.9993 15.625 84.1245 15.625 84.2496 15.5C84.3748 15.375 84.5 15.25 84.6252 15L84.8756 14.375L82.3719 8.875H83.4985L85.3763 13.125L87.2541 8.75H88.3807Z" fill="#373A36" stroke="#373A36" stroke-width="0.2" stroke-miterlimit="10"/>
<path d="M89.5074 16.25V8.75H94.8903V16.25H93.8889V9.625H90.3837V16.25H89.5074Z" fill="#373A36" stroke="#373A36" stroke-width="0.2" stroke-miterlimit="10"/>
<path d="M96.6429 16.25V8.75H97.6444V12H101.4V8.75H102.401V16.25H101.4V12.875H97.6444V16.25H96.6429Z" fill="#373A36" stroke="#373A36" stroke-width="0.2" stroke-miterlimit="10"/>
<path d="M110.288 15.2499C109.537 15.9999 108.661 16.3749 107.534 16.3749C106.407 16.3749 105.531 15.9999 104.78 15.2499C104.029 14.4999 103.653 13.6249 103.653 12.4999C103.653 11.3749 104.029 10.4999 104.78 9.74994C105.531 8.99994 106.407 8.62494 107.534 8.62494C108.661 8.62494 109.537 8.99994 110.288 9.74994C111.039 10.4999 111.415 11.3749 111.415 12.4999C111.29 13.6249 110.914 14.4999 110.288 15.2499ZM105.406 14.6249C105.907 15.1249 106.658 15.4999 107.409 15.4999C108.16 15.4999 108.911 15.2499 109.412 14.6249C109.913 14.1249 110.288 13.3749 110.288 12.4999C110.288 11.6249 110.038 10.8749 109.412 10.3749C108.911 9.87494 108.16 9.49994 107.409 9.49994C106.658 9.49994 105.907 9.74994 105.406 10.3749C104.905 10.8749 104.53 11.6249 104.53 12.4999C104.53 13.3749 104.905 14.1249 105.406 14.6249Z" fill="#373A36" stroke="#373A36" stroke-width="0.2" stroke-miterlimit="10"/>
<path d="M115.296 16.25V8.75H118.05C118.676 8.75 119.176 9 119.552 9.375C119.927 9.75 120.178 10.25 120.178 10.75C120.178 11.125 120.053 11.375 119.927 11.75C119.802 12 119.552 12.25 119.176 12.375C119.552 12.5 119.802 12.75 120.053 13C120.303 13.25 120.428 13.625 120.428 14.125C120.428 14.75 120.178 15.25 119.802 15.625C119.301 16 118.801 16.25 118.175 16.25H115.296ZM116.297 12H118.05C118.425 12 118.676 11.875 118.926 11.625C119.176 11.375 119.301 11.125 119.301 10.875C119.301 10.625 119.051 10.25 118.926 10C118.676 9.75 118.425 9.625 118.05 9.625H116.297V12ZM116.297 15.375H118.3C118.676 15.375 118.926 15.25 119.176 15C119.427 14.75 119.552 14.5 119.552 14.125C119.552 13.875 119.427 13.5 119.176 13.25C118.926 13 118.676 12.875 118.3 12.875H116.422V15.375H116.297Z" fill="#373A36" stroke="#373A36" stroke-width="0.2" stroke-miterlimit="10"/>
<defs>
<clipPath id="clip0_1511_454">
<rect width="30.0444" height="30" fill="white" transform="translate(11.2667 10)"/>
</clipPath>
</defs>
</svg>
