<svg width="730" height="414" viewBox="0 0 730 414" fill="none" xmlns="http://www.w3.org/2000/svg">
<g clip-path="url(#clip0_3377_574)">
<path d="M11.9648 115H9.7508V104.47H4.1348V115H1.9208V102.4H11.9648V115ZM15.564 114.01C14.76 113.206 14.358 112.186 14.358 110.95C14.358 109.714 14.76 108.7 15.564 107.908C16.368 107.104 17.436 106.702 18.768 106.702C20.088 106.702 21.15 107.104 21.954 107.908C22.77 108.7 23.178 109.714 23.178 110.95C23.178 112.174 22.77 113.194 21.954 114.01C21.138 114.802 20.076 115.198 18.768 115.198C17.436 115.198 16.368 114.802 15.564 114.01ZM17.202 109.294C16.782 109.726 16.572 110.278 16.572 110.95C16.572 111.622 16.776 112.18 17.184 112.624C17.604 113.056 18.132 113.272 18.768 113.272C19.416 113.272 19.944 113.056 20.352 112.624C20.772 112.192 20.982 111.634 20.982 110.95C20.982 110.278 20.772 109.726 20.352 109.294C19.932 108.862 19.404 108.646 18.768 108.646C18.144 108.646 17.622 108.862 17.202 109.294ZM31.1074 112.282L32.0794 113.794C31.3954 114.73 30.3214 115.198 28.8574 115.198C27.5494 115.198 26.4874 114.808 25.6714 114.028C24.8674 113.26 24.4654 112.234 24.4654 110.95C24.4654 109.738 24.8614 108.73 25.6534 107.926C26.4454 107.11 27.4474 106.702 28.6594 106.702C30.0994 106.702 31.1854 107.068 31.9174 107.8L30.9454 109.438C30.3934 108.91 29.7214 108.646 28.9294 108.646C28.3294 108.646 27.8014 108.862 27.3454 109.294C26.9014 109.702 26.6794 110.254 26.6794 110.95C26.6794 111.646 26.9074 112.21 27.3634 112.642C27.8434 113.062 28.3954 113.272 29.0194 113.272C29.8234 113.272 30.5194 112.942 31.1074 112.282ZM35.4007 108.97H32.7367V106.9H40.1167V108.97H37.4707V115H35.4007V108.97ZM42.2283 108.988L41.7063 107.476C42.5823 106.96 43.5363 106.702 44.5683 106.702C45.6963 106.702 46.5183 106.978 47.0343 107.53C47.5503 108.082 47.8083 108.928 47.8083 110.068V115H46.0083V114.064C45.5283 114.76 44.7303 115.108 43.6143 115.108C42.8463 115.108 42.2283 114.886 41.7603 114.442C41.3043 113.986 41.0763 113.38 41.0763 112.624C41.0763 111.784 41.3463 111.136 41.8863 110.68C42.4263 110.224 43.1403 109.996 44.0283 109.996C44.7603 109.996 45.3723 110.17 45.8643 110.518C45.8883 109.798 45.7803 109.27 45.5403 108.934C45.3123 108.598 44.9163 108.43 44.3523 108.43C43.7283 108.43 43.0203 108.616 42.2283 108.988ZM44.2983 113.362C44.9943 113.362 45.5163 113.116 45.8643 112.624V111.796C45.5283 111.532 45.0543 111.4 44.4423 111.4C44.0583 111.4 43.7463 111.49 43.5063 111.67C43.2663 111.85 43.1463 112.096 43.1463 112.408C43.1463 112.696 43.2543 112.93 43.4703 113.11C43.6863 113.278 43.9623 113.362 44.2983 113.362ZM49.9303 115V106.9C50.0383 106.9 50.4943 106.888 51.2983 106.864C52.1143 106.828 52.7203 106.81 53.1163 106.81C55.5643 106.81 56.7883 107.518 56.7883 108.934C56.7883 109.39 56.6443 109.792 56.3563 110.14C56.0683 110.476 55.7083 110.674 55.2763 110.734V110.77C56.4283 111.046 57.0043 111.67 57.0043 112.642C57.0043 114.274 55.7203 115.09 53.1523 115.09C52.7803 115.09 52.2103 115.072 51.4423 115.036C51.2503 115.036 51.0283 115.03 50.7763 115.018C50.5363 115.018 50.3503 115.012 50.2183 115C50.0983 115 50.0023 115 49.9303 115ZM53.2963 111.562H52.0003V113.362C52.7203 113.41 53.1763 113.434 53.3683 113.434C53.8243 113.434 54.1783 113.35 54.4303 113.182C54.6943 113.014 54.8263 112.786 54.8263 112.498C54.8263 111.874 54.3163 111.562 53.2963 111.562ZM53.2963 108.484C52.8163 108.484 52.3843 108.496 52.0003 108.52V110.302H53.3503C53.7223 110.302 54.0223 110.218 54.2503 110.05C54.4783 109.882 54.5923 109.654 54.5923 109.366C54.5923 108.778 54.1603 108.484 53.2963 108.484ZM69.1715 115H58.9655V106.9H61.0355V113.074H63.3215V106.9H65.3915V113.074H67.6955V106.9H69.7655V113.074H71.1155V116.89H69.1715V115ZM78.3331 109.87L74.5531 115H72.4831V106.9H74.5531V112.03L78.3331 106.9H80.4031V115H78.3331V109.87ZM87.7715 106.9H90.3815L87.2675 110.752L90.7595 115H88.0595L84.8555 110.914L87.7715 106.9ZM84.7835 115H82.7135V106.9H84.7835V115Z" fill="#373A36"/>
<path d="M646.794 115H644.58V104.47H638.964V115H636.75V102.4H646.794V115ZM650.393 114.01C649.589 113.206 649.187 112.186 649.187 110.95C649.187 109.714 649.589 108.7 650.393 107.908C651.197 107.104 652.265 106.702 653.597 106.702C654.917 106.702 655.979 107.104 656.783 107.908C657.599 108.7 658.007 109.714 658.007 110.95C658.007 112.174 657.599 113.194 656.783 114.01C655.967 114.802 654.905 115.198 653.597 115.198C652.265 115.198 651.197 114.802 650.393 114.01ZM652.031 109.294C651.611 109.726 651.401 110.278 651.401 110.95C651.401 111.622 651.605 112.18 652.013 112.624C652.433 113.056 652.961 113.272 653.597 113.272C654.245 113.272 654.773 113.056 655.181 112.624C655.601 112.192 655.811 111.634 655.811 110.95C655.811 110.278 655.601 109.726 655.181 109.294C654.761 108.862 654.233 108.646 653.597 108.646C652.973 108.646 652.451 108.862 652.031 109.294ZM664.856 106.9H667.466L664.352 110.752L667.844 115H665.144L661.94 110.914L664.856 106.9ZM661.868 115H659.798V106.9H661.868V115ZM674.428 106.9H676.786L673.6 115C673.024 116.404 672.508 117.352 672.052 117.844C671.608 118.348 671.08 118.6 670.468 118.6C669.892 118.6 669.31 118.39 668.722 117.97L669.388 116.404C669.7 116.596 669.982 116.692 670.234 116.692C670.726 116.692 671.14 116.272 671.476 115.432L671.656 115L667.912 106.9H670.396L672.286 111.328C672.31 111.388 672.442 111.778 672.682 112.498C672.754 112.054 672.85 111.658 672.97 111.31L674.428 106.9ZM685.623 115H683.553V108.844H680.097V115H678.027V106.9H685.623V115ZM688.553 108.988L688.031 107.476C688.907 106.96 689.861 106.702 690.893 106.702C692.021 106.702 692.843 106.978 693.359 107.53C693.875 108.082 694.133 108.928 694.133 110.068V115H692.333V114.064C691.853 114.76 691.055 115.108 689.939 115.108C689.171 115.108 688.553 114.886 688.085 114.442C687.629 113.986 687.401 113.38 687.401 112.624C687.401 111.784 687.671 111.136 688.211 110.68C688.751 110.224 689.465 109.996 690.353 109.996C691.085 109.996 691.697 110.17 692.189 110.518C692.213 109.798 692.105 109.27 691.865 108.934C691.637 108.598 691.241 108.43 690.677 108.43C690.053 108.43 689.345 108.616 688.553 108.988ZM690.623 113.362C691.319 113.362 691.841 113.116 692.189 112.624V111.796C691.853 111.532 691.379 111.4 690.767 111.4C690.383 111.4 690.071 111.49 689.831 111.67C689.591 111.85 689.471 112.096 689.471 112.408C689.471 112.696 689.579 112.93 689.795 113.11C690.011 113.278 690.287 113.362 690.623 113.362ZM698.074 108.97H695.41V106.9H702.79V108.97H700.144V115H698.074V108.97ZM710.379 112.732L710.973 114.19C710.169 114.862 709.137 115.198 707.877 115.198C706.581 115.198 705.525 114.808 704.709 114.028C703.917 113.26 703.521 112.234 703.521 110.95C703.521 109.75 703.911 108.742 704.691 107.926C705.471 107.11 706.509 106.702 707.805 106.702C708.873 106.702 709.779 107.056 710.523 107.764C711.267 108.472 711.639 109.372 711.639 110.464C711.639 110.944 711.597 111.316 711.513 111.58H705.663C705.747 112.168 706.005 112.63 706.437 112.966C706.881 113.302 707.433 113.47 708.093 113.47C708.993 113.47 709.755 113.224 710.379 112.732ZM707.715 108.43C706.539 108.43 705.831 109.018 705.591 110.194H709.569C709.581 109.678 709.413 109.258 709.065 108.934C708.729 108.598 708.279 108.43 707.715 108.43ZM720.441 115H718.371V108.97H716.229L716.175 109.834C716.019 111.298 715.791 112.414 715.491 113.182C715.203 113.95 714.831 114.472 714.375 114.748C713.931 115.012 713.313 115.15 712.521 115.162L712.341 113.146C712.605 113.158 712.851 113.086 713.079 112.93C713.343 112.738 713.577 112.336 713.781 111.724C713.985 111.112 714.117 110.344 714.177 109.42L714.303 106.9H720.441V115ZM725.77 115H722.746V106.9H724.816V109.114H725.932C727.144 109.114 728.038 109.366 728.614 109.87C729.202 110.374 729.496 111.058 729.496 111.922C729.496 112.846 729.184 113.59 728.56 114.154C727.936 114.718 727.006 115 725.77 115ZM725.752 110.77H724.816V113.2H725.734C726.778 113.2 727.3 112.798 727.3 111.994C727.3 111.178 726.784 110.77 725.752 110.77Z" fill="#373A36"/>
<path fill-rule="evenodd" clip-rule="evenodd" d="M666.732 35.7209C666.705 36.1411 666.692 36.5698 666.692 37.0066C666.692 37.4349 666.705 37.8638 666.73 38.2923C667.274 47.3481 673.461 56.2513 681.056 56.2513C689.01 56.2513 695.257 46.4855 695.257 37.0066C695.257 35.8817 695.169 34.8114 695.001 33.7986C694.974 33.641 694.946 33.4847 694.916 33.3299C693.511 26.0964 687.919 21.9252 681.056 21.9252C673.468 21.9252 667.286 27.0232 666.732 35.7209ZM692.204 32.9846C691.639 30.7893 690.612 29.0359 689.31 27.7192C687.287 25.6721 684.419 24.4967 681.056 24.4967C677.689 24.4967 674.773 25.6749 672.705 27.7336C670.867 29.5642 669.564 32.2259 669.309 35.7267C671.689 35.7185 674.469 35.6329 677.013 35.1331C680.643 34.4204 683.173 32.9934 683.817 30.3946C683.933 29.9254 684.302 29.561 684.773 29.4513C685.244 29.3417 685.736 29.5053 686.048 29.8749C686.633 30.5698 687.798 31.6842 689.169 32.3953C690.208 32.9343 691.236 33.183 692.204 32.9846ZM669.308 38.2991C669.566 42.0722 670.929 45.8203 672.981 48.6864C675.287 51.9058 678.19 53.6798 681.056 53.6798C683.913 53.6798 686.773 51.9151 689.037 48.702C691.285 45.5127 692.685 41.2198 692.685 37.0066C692.685 36.4968 692.665 36.003 692.625 35.5253C690.934 35.8434 689.301 35.3611 687.984 34.6778C687.05 34.1933 686.212 33.5789 685.521 32.979C683.9 35.7574 680.644 37.0406 677.509 37.6564C674.747 38.1987 671.75 38.2908 669.308 38.2991ZM691.361 56.9465C690.799 57.3004 690.226 57.7959 689.677 58.458C688.722 59.6083 686.819 60.3034 684.348 60.5965C683.358 60.7139 682.325 60.7613 681.306 60.7613H681.292H681.292C680.231 60.7613 679.175 60.7613 678.124 60.6953C675.58 60.5354 673.278 59.997 671.485 58.3361C670.582 57.4994 669.906 56.9228 669.218 56.609C668.49 56.2768 667.827 56.2777 667.218 56.2785L667.127 56.2786C664.604 56.2786 656.13 59.3215 653.001 76.1516C652.83 77.0733 652.802 78.3438 653.645 79.3851C654.493 80.4328 655.921 80.8773 657.761 80.8773H675.017H687.277H704.439C705.2 80.8773 706.38 80.6862 707.309 79.9676C707.798 79.5891 708.224 79.0569 708.443 78.3484C708.659 77.6462 708.642 76.8706 708.418 76.0483C708.345 75.7789 708.257 75.4137 708.151 74.9712L708.151 74.9712C707.992 74.3057 707.791 73.4656 707.533 72.5142C706.715 72.7447 705.864 72.8971 704.989 72.9629C705.247 73.9022 705.452 74.7518 705.622 75.4608C705.742 75.9568 705.844 76.384 705.937 76.7249C706.063 77.1845 706.029 77.4507 705.986 77.5897C705.945 77.7225 705.868 77.8313 705.736 77.9336C705.421 78.1765 704.882 78.3058 704.439 78.3058H687.277H675.017H657.761C656.242 78.3058 655.776 77.9302 655.643 77.7668C655.506 77.5968 655.41 77.2648 655.529 76.6216C658.515 60.5583 666.251 58.85 667.127 58.85C667.852 58.85 667.976 58.8685 668.151 58.9484C668.403 59.0634 668.789 59.3441 669.737 60.2224C672.178 62.4832 675.203 63.0882 677.963 63.2617C679.095 63.3328 680.219 63.3328 681.258 63.3328H681.258H681.306C682.401 63.3328 683.538 63.282 684.65 63.1501C686.938 62.8788 689.366 62.2378 691.022 60.7563C691.007 60.506 691 60.2538 691 60C691 58.9483 691.125 57.9258 691.361 56.9465Z" fill="url(#paint0_linear_3377_574)"/>
<path fill-rule="evenodd" clip-rule="evenodd" d="M714.424 60C714.424 65.7569 709.757 70.4237 704 70.4237C698.243 70.4237 693.576 65.7569 693.576 60C693.576 54.2431 698.243 49.5762 704 49.5762C709.757 49.5762 714.424 54.2431 714.424 60ZM717 60C717 67.1797 711.18 73 704 73C696.82 73 691 67.1797 691 60C691 52.8203 696.82 47 704 47C711.18 47 717 52.8203 717 60ZM705.09 61.5624C705.328 61.8051 705.446 62.0882 705.446 62.4118C705.446 62.8062 705.323 63.1146 705.076 63.3371C704.828 63.5494 704.487 63.6556 704.052 63.6556C703.617 63.6556 703.177 63.5494 702.732 63.3371C702.296 63.1247 701.94 62.8315 701.663 62.4573L700.625 63.7315C700.803 64.136 701.124 64.4798 701.589 64.7629C702.054 65.036 702.588 65.223 703.191 65.3242V66.75H704.898V65.309C705.649 65.1573 706.248 64.8236 706.693 64.3079C707.148 63.782 707.375 63.1449 707.375 62.3966C707.375 61.8607 707.261 61.3854 707.034 60.9708C706.816 60.5562 706.524 60.2376 706.159 60.0152C705.832 59.7927 705.451 59.5803 705.016 59.3781C704.907 59.3275 704.72 59.2416 704.452 59.1202C704.185 58.9989 703.993 58.9129 703.874 58.8624C703.765 58.8017 703.612 58.7107 703.414 58.5893C703.226 58.468 703.088 58.3567 702.999 58.2556C702.92 58.1545 702.845 58.0281 702.776 57.8764C702.707 57.7146 702.672 57.5427 702.672 57.3607C702.672 56.9966 702.806 56.7135 703.073 56.5112C703.35 56.2989 703.74 56.1927 704.245 56.1927C704.947 56.1927 705.56 56.4556 706.084 56.9815L707.063 55.586C706.559 55.0197 705.837 54.6607 704.898 54.509V53.25H703.191V54.5393C702.46 54.7011 701.866 55.0449 701.411 55.5708C700.966 56.0966 700.744 56.6983 700.744 57.3758C700.744 57.9118 700.857 58.3871 701.085 58.8017C701.322 59.2062 701.614 59.5247 701.96 59.7573C702.306 59.9798 702.682 60.1972 703.088 60.4095C703.503 60.6118 703.884 60.7938 704.23 60.9556C704.576 61.1073 704.863 61.3096 705.09 61.5624Z" fill="url(#paint1_linear_3377_574)"/>
<path d="M113 58.5H618M618 58.5L611.5 52M618 58.5L611.5 65" stroke="#373A36" stroke-linecap="round" stroke-linejoin="round"/>
<path d="M681.5 142V376C681.5 381.523 677.023 386 671.5 386H462M462 386L468.5 379.5M462 386L468.5 392.5" stroke="#373A36" stroke-linecap="round" stroke-linejoin="round"/>
<path d="M45 142V377C45 382.523 49.4772 387 55 387H262.5M262.5 387L256 380.5M262.5 387L256 393.5" stroke="#373A36" stroke-linecap="round" stroke-linejoin="round"/>
<path d="M406.5 341L406.5 119.5C406.5 113.977 402.023 109.5 396.5 109.5L113 109.5M113 109.5L119.5 116M113 109.5L119.5 103" stroke="#373A36" stroke-linecap="round" stroke-linejoin="round"/>
<path d="M85.5002 142L85.5002 160.5C85.5002 166.023 89.9773 170.5 95.5002 170.5L325.5 170.5C331.023 170.5 335.5 174.977 335.5 180.5L335.5 341M335.5 341L342 334.5M335.5 341L329 334.5" stroke="#373A36" stroke-linecap="round" stroke-linejoin="round"/>
<path fill-rule="evenodd" clip-rule="evenodd" d="M36.1578 31.5359H36.1577C36.1407 35.5694 38.3103 39.4875 40.9339 42.6984C42.6583 44.8087 44.4651 46.475 45.6681 47.4959C46.8657 46.4642 48.6755 44.7736 50.4052 42.6465C53.0441 39.4011 55.2152 35.483 55.1986 31.5438L55.1985 31.534C55.1985 25.7087 50.7869 21.2245 45.6782 21.2245C40.5685 21.2245 36.1578 25.7097 36.1578 31.5261V31.5359ZM33.8435 31.5261C33.8435 24.5736 39.1528 18.9102 45.6782 18.9102C52.2035 18.9102 57.5128 24.5736 57.5128 31.534C57.5529 41.0217 47.2022 49.299 45.8281 50.3559C45.7377 50.4255 45.6225 50.4281 45.5317 50.3591C44.117 49.2833 33.8027 41.1889 33.8435 31.5261ZM34.6326 41.5502C34.8217 42.1607 34.48 42.8088 33.8696 42.9978L21.9618 46.6852L45.314 53.9702L69.2611 46.6962L56.7637 43.0022C56.1508 42.821 55.8008 42.1773 55.982 41.5645C56.1631 40.9516 56.8068 40.6016 57.4197 40.7828L73.6202 45.5714L74.4493 45.8165V46.6811V74.7427C74.4493 75.3675 74.0393 75.9183 73.4408 76.0975L45.6414 84.4227L45.305 84.5235L44.9693 84.4203L17.9045 76.096C17.311 75.9134 16.906 75.3651 16.906 74.7442V46.6811V45.8281L17.7209 45.5758L33.185 40.7871C33.7955 40.5981 34.4436 40.9397 34.6326 41.5502ZM72.135 48.242L46.4666 56.0388V81.7598L72.135 74.0727V48.242ZM44.1523 81.7477V56.0321L19.2203 48.2542V74.0794L44.1523 81.7477ZM54.7248 58.2932L64.2453 55.3037V58.8909L54.7248 61.9954V58.2932ZM66.5596 54.0777C66.5596 53.1228 65.6327 52.4423 64.7216 52.7284L53.4011 56.2832C52.8116 56.4683 52.4105 57.0146 52.4105 57.6325V63.2355C52.4105 64.1969 53.3492 64.8782 54.2633 64.5801L65.5838 60.8886C66.1658 60.6988 66.5596 60.1562 66.5596 59.544V54.0777ZM26.5863 55.3037L36.1068 58.2932V61.9954L26.5863 58.8909V55.3037ZM26.11 52.7284C25.1989 52.4423 24.272 53.1228 24.272 54.0777V59.544C24.272 60.1562 24.6659 60.6988 25.2478 60.8886L36.5684 64.5801C37.4824 64.8782 38.4211 64.1969 38.4211 63.2355V57.6325C38.4211 57.0146 38.02 56.4683 37.4305 56.2832L26.11 52.7284ZM49.2806 31.4772C49.2806 33.4671 47.6674 35.0803 45.6774 35.0803C43.6875 35.0803 42.0743 33.4671 42.0743 31.4772C42.0743 29.4872 43.6875 27.8741 45.6774 27.8741C47.6674 27.8741 49.2806 29.4872 49.2806 31.4772ZM51.5948 31.4772C51.5948 34.7453 48.9455 37.3946 45.6774 37.3946C42.4094 37.3946 39.76 34.7453 39.76 31.4772C39.76 28.2091 42.4094 25.5598 45.6774 25.5598C48.9455 25.5598 51.5948 28.2091 51.5948 31.4772Z" fill="url(#paint2_linear_3377_574)"/>
<path fill-rule="evenodd" clip-rule="evenodd" d="M385.629 8.96298H386.363H412.844H413.578V9.69631V13.363V14.2593H419.77H420.148L420.367 14.5664L422.113 17.0108L426.071 22.5516L426.478 23.1219L426.615 23.3132V23.5482V31.2889V32.0222H425.881H423.424C423.258 34.1199 421.503 35.7704 419.363 35.7704C417.222 35.7704 415.468 34.1199 415.302 32.0222H412.844H399.794C399.628 34.1199 397.873 35.7704 395.733 35.7704C393.592 35.7704 391.838 34.1199 391.672 32.0222H386.363H385.629V31.2889V25.1778V9.69631V8.96298ZM415.451 30.5556C415.944 28.8607 417.509 27.6222 419.363 27.6222C421.217 27.6222 422.782 28.8607 423.275 30.5556H425.148V23.7832L425.101 23.7174L415.708 23.874L414.963 23.8864V23.1408V17.4371V16.7037H415.696H420.091L419.393 15.7259H413.578V30.5556H415.451ZM412.111 30.5556H399.645C399.152 28.8607 397.587 27.6222 395.733 27.6222C393.879 27.6222 392.314 28.8607 391.821 30.5556H387.096V25.9111H407.955C408.36 25.9111 408.689 25.5828 408.689 25.1778C408.689 24.7728 408.36 24.4445 407.955 24.4445H387.096V10.4296H412.111V12.6296H406.326C405.921 12.6296 405.592 12.958 405.592 13.363C405.592 13.768 405.921 14.0963 406.326 14.0963H412.111V14.9926V30.5556ZM421.139 18.1704H416.429V22.3951L424.066 22.2678L421.139 18.1704ZM395.733 34.5482C397.308 34.5482 398.585 33.2714 398.585 31.6963C398.585 30.1213 397.308 28.8445 395.733 28.8445C394.158 28.8445 392.881 30.1213 392.881 31.6963C392.881 33.2714 394.158 34.5482 395.733 34.5482ZM422.215 31.6963C422.215 33.2714 420.938 34.5482 419.363 34.5482C417.788 34.5482 416.511 33.2714 416.511 31.6963C416.511 30.1213 417.788 28.8445 419.363 28.8445C420.938 28.8445 422.215 30.1213 422.215 31.6963Z" fill="url(#paint3_linear_3377_574)"/>
<path d="M363.383 18.756L361.675 16.096L366.687 12.344H369.011V32H365.791V16.936L363.383 18.756Z" fill="#FE5000"/>
<path d="M604.223 244.195C604.682 244.811 604.954 245.577 604.954 246.407V274.519L608.621 272.072L612.266 274.957L616.018 272.043L619.626 274.953L623.329 272.071L626.897 274.503V247.883C626.897 245.845 625.264 244.195 623.25 244.195L604.223 244.195ZM601.297 242.72H623.251C626.073 242.72 628.36 245.031 628.36 247.882V277.28L623.386 273.889L619.61 276.829L616.001 273.917L612.258 276.825L608.548 273.888L603.492 277.263V246.408C603.492 245.186 602.509 244.195 601.297 244.195C600.078 244.195 599.103 245.178 599.103 246.398V251.624H604.556V253.098H597.64V246.398C597.64 244.363 599.27 242.721 601.297 242.721L601.297 242.72ZM607.88 253.04V251.566H623.971V253.04H607.88ZM607.88 257.463V255.989H623.971V257.463H607.88ZM607.88 261.885V260.411H623.971V261.885H607.88ZM607.88 266.308V264.834H618.12V266.308H607.88Z" fill="url(#paint4_linear_3377_574)"/>
<path d="M659.684 270H656.464V265.464H647.504V263.084L655.064 250.4H658.76L651.676 262.244H656.464V257.4H659.684V262.244H662.204V265.464H659.684V270Z" fill="#FE5000"/>
<path d="M304.577 255.816L305.865 245.4H315.133V248.62H308.693L308.133 252.512C308.506 252.437 308.879 252.4 309.253 252.4C311.045 252.4 312.51 252.969 313.649 254.108C314.825 255.247 315.413 256.759 315.413 258.644C315.413 260.679 314.769 262.303 313.481 263.516C312.211 264.711 310.606 265.308 308.665 265.308C307.601 265.308 306.509 265.065 305.389 264.58C304.343 264.095 303.522 263.404 302.925 262.508L304.773 260.072C305.165 260.669 305.734 261.155 306.481 261.528C307.246 261.901 308.002 262.088 308.749 262.088C309.682 262.088 310.447 261.78 311.045 261.164C311.661 260.548 311.969 259.755 311.969 258.784C311.969 257.757 311.586 256.927 310.821 256.292C310.074 255.639 309.066 255.312 307.797 255.312C306.434 255.312 305.361 255.48 304.577 255.816Z" fill="#FE5000"/>
<g clip-path="url(#clip1_3377_574)">
<path d="M286.41 245.38H281.573L279.498 240.882C279.372 240.606 279.032 240.479 278.757 240.606L276.728 241.553L270.579 237.13C270.334 236.951 269.979 237.01 269.801 237.264L264.052 245.38H249.591C249.279 245.38 249.035 245.634 249.035 245.939V266.057C249.035 266.363 249.287 266.617 249.591 266.617H254.428L256.503 271.115C256.629 271.391 256.962 271.518 257.243 271.391L259.273 270.444L265.422 274.867C265.667 275.046 266.022 274.986 266.2 274.733L271.949 266.617H286.403C286.714 266.617 286.959 266.363 286.959 266.057V245.939C286.966 245.634 286.714 245.38 286.41 245.38ZM278.72 241.859L280.343 245.38H271.179L278.72 241.859ZM270.386 238.376L275.572 242.098L268.541 245.38H265.422L270.386 238.376ZM262.074 261.574V265.431C262.074 265.453 262.074 265.476 262.081 265.498H258.74C258.74 265.476 258.747 265.453 258.747 265.431V261.574V260.53V246.499H262.081V260.53V261.574H262.074ZM250.146 265.498V246.499H257.703V260.53H254.369C254.08 260.53 253.85 260.761 253.85 261.052C253.85 261.343 254.08 261.574 254.369 261.574H257.703V265.431C257.703 265.453 257.703 265.476 257.71 265.498H250.146ZM257.281 270.138L255.658 266.617H264.822L257.281 270.138ZM265.615 273.629L260.429 269.906L267.46 266.624H270.579L265.615 273.629ZM285.855 265.498H263.111C263.111 265.476 263.118 265.453 263.118 265.431V261.574H272.601C272.89 261.574 273.12 261.343 273.12 261.052C273.12 260.761 272.89 260.53 272.601 260.53H263.111V246.499H264.333H281.21H285.855V265.498ZM276.379 253.108H277.35V249.721H280.135C281.721 249.721 282.61 250.527 282.61 251.914C282.61 253.309 281.721 254.137 280.135 254.137H278.535V254.824H280.669V255.472H278.535V256.92H277.35V255.472H276.379V254.824H277.35V254.137H276.379V253.108ZM279.965 253.108C281.024 253.108 281.424 252.653 281.424 251.914C281.424 251.176 281.024 250.743 279.965 250.743H278.535V253.108H279.965Z" fill="url(#paint5_linear_3377_574)"/>
</g>
<path d="M476.908 213.837V211.345C476.908 206.563 457.998 206.563 457.998 211.345V225.917C457.998 227.797 460.941 228.969 464.482 229.386C463.187 229.966 462.362 230.751 462.362 231.745V236.117C462.362 238.508 467.119 239.76 471.817 239.76C476.516 239.76 481.272 238.508 481.272 236.117V233.919C485.722 233.797 490 232.556 490 230.288V217.174C490 214.155 482.466 213.044 476.908 213.837ZM467.453 209.213C472.63 209.213 475.454 210.654 475.454 211.395C475.454 212.136 472.63 213.577 467.453 213.577C462.277 213.577 459.453 212.136 459.453 211.395C459.453 210.654 462.277 209.213 467.453 209.213ZM459.453 213.419C461.218 214.481 464.344 215.031 467.453 215.031C470.563 215.031 473.689 214.481 475.454 213.419V214.141C472.926 214.702 471.09 215.726 471.09 217.213V217.644C469.95 217.826 468.72 217.941 467.453 217.941C462.277 217.941 459.453 216.499 459.453 215.759V213.419H459.453ZM472.545 227.965C472.683 228.048 472.827 228.129 472.982 228.206C472.836 228.2 472.691 228.194 472.545 228.19V227.965ZM459.453 217.783C461.218 218.845 464.344 219.395 467.453 219.395C468.712 219.395 469.936 219.282 471.09 219.11V222.735C469.95 222.918 468.72 223.032 467.453 223.032C462.277 223.032 459.453 221.591 459.453 220.85V217.783ZM459.453 225.941V222.874C461.218 223.936 464.344 224.486 467.453 224.486C468.712 224.486 469.936 224.373 471.09 224.201V227.826C469.95 228.009 468.72 228.123 467.453 228.123C462.277 228.123 459.453 226.682 459.453 225.941ZM479.818 236.123C479.818 236.864 476.994 238.305 471.817 238.305C466.641 238.305 463.817 236.864 463.817 236.123V233.783C465.582 234.845 468.708 235.396 471.817 235.396C474.794 235.396 477.789 234.893 479.588 233.918C479.664 233.921 479.742 233.922 479.818 233.924V236.123H479.818ZM471.817 233.941C466.641 233.941 463.817 232.5 463.817 231.759C463.817 231.019 466.641 229.577 471.817 229.577C476.994 229.577 479.818 231.019 479.818 231.759C479.818 232.5 476.994 233.941 471.817 233.941ZM488.545 230.305C488.545 231.009 485.968 232.33 481.272 232.462V231.759C481.272 230.851 480.585 230.116 479.475 229.553C479.831 229.568 480.188 229.577 480.545 229.577C483.654 229.577 486.78 229.027 488.545 227.965V230.305H488.545ZM488.545 225.941C488.545 226.682 485.721 228.123 480.545 228.123C475.369 228.123 472.545 226.682 472.545 225.941V223.601C474.309 224.663 477.436 225.214 480.545 225.214C483.654 225.214 486.781 224.663 488.545 223.601V225.941ZM488.545 221.577C488.545 222.318 485.721 223.759 480.545 223.759C475.369 223.759 472.545 222.318 472.545 221.577V219.237C474.309 220.299 477.436 220.85 480.545 220.85C483.654 220.85 486.781 220.299 488.545 219.237V221.577ZM480.545 219.395C475.369 219.395 472.545 217.954 472.545 217.213C472.545 216.472 475.369 215.031 480.545 215.031C485.721 215.031 488.545 216.472 488.545 217.213C488.545 217.954 485.721 219.395 480.545 219.395Z" fill="url(#paint6_linear_3377_574)"/>
<path d="M431.908 235.308C430.471 235.308 429.202 235.019 428.1 234.44C427.018 233.843 426.215 233.031 425.692 232.004L427.512 229.652C428.614 231.276 430.014 232.088 431.712 232.088C432.702 232.088 433.476 231.836 434.036 231.332C434.596 230.828 434.876 230.175 434.876 229.372C434.876 228.476 434.55 227.795 433.896 227.328C433.262 226.843 432.375 226.6 431.236 226.6H429.836V223.38H431.096C431.955 223.38 432.674 223.128 433.252 222.624C433.831 222.12 434.12 221.476 434.12 220.692C434.12 219.945 433.906 219.367 433.476 218.956C433.047 218.527 432.431 218.312 431.628 218.312C430.116 218.312 428.884 219.012 427.932 220.412L426.14 218.144C427.223 216.109 429.155 215.092 431.936 215.092C433.635 215.092 434.998 215.549 436.024 216.464C437.051 217.36 437.564 218.564 437.564 220.076C437.564 222.297 436.566 223.847 434.568 224.724V224.808C435.744 225.013 436.659 225.545 437.312 226.404C437.984 227.244 438.32 228.271 438.32 229.484C438.32 231.257 437.714 232.676 436.5 233.74C435.287 234.785 433.756 235.308 431.908 235.308Z" fill="#FE5000"/>
<path d="M76.5142 272H64.1942V269.424C66.4529 267.221 68.0115 265.625 68.8702 264.636C71.1849 261.985 72.3422 259.755 72.3422 257.944C72.3422 257.141 72.1275 256.516 71.6982 256.068C71.2689 255.62 70.6529 255.396 69.8502 255.396C68.4129 255.396 67.4702 256.273 67.0222 258.028L64.3342 256.824C64.5955 255.387 65.2489 254.257 66.2942 253.436C67.3582 252.596 68.6649 252.176 70.2142 252.176C71.9689 252.176 73.3315 252.68 74.3022 253.688C75.2729 254.677 75.7582 255.881 75.7582 257.3C75.7582 258.308 75.5435 259.381 75.1142 260.52C74.6849 261.621 74.1902 262.583 73.6302 263.404C73.0515 264.263 72.3702 265.103 71.5862 265.924C70.9142 266.671 70.2982 267.305 69.7382 267.828C69.4582 268.089 69.0009 268.481 68.3662 269.004H76.5142V272Z" fill="#FE5000"/>
<g clip-path="url(#clip2_3377_574)">
<path d="M126.406 245.623C126.238 245.269 125.943 244.992 125.579 244.848C125.215 244.703 124.81 244.702 124.445 244.845L121.287 246.085C121.091 246.162 120.912 246.278 120.763 246.427C120.614 246.576 120.496 246.754 120.419 246.949C120.341 247.145 120.304 247.355 120.311 247.566C120.317 247.777 120.367 247.984 120.457 248.174L120.895 249.099L120.545 249.248C119.287 249.51 118.415 249.475 117.121 249.112L113.965 248.228C113.074 247.978 112.128 247.993 111.245 248.272L108.2 249.232C107.583 249.427 107.013 249.746 106.523 250.169C105.989 249.972 104.968 249.72 103.57 249.922L103.984 249.136C104.166 248.789 104.209 248.386 104.104 248.008C103.999 247.631 103.755 247.308 103.42 247.104L100.52 245.345C100.34 245.236 100.14 245.165 99.9307 245.136C99.7219 245.107 99.5094 245.121 99.3063 245.178C99.1032 245.234 98.9138 245.331 98.7498 245.464C98.5858 245.596 98.4506 245.761 98.3526 245.947L90.1779 261.549C89.9904 261.903 89.9493 262.316 90.0633 262.701C90.1774 263.085 90.4376 263.409 90.788 263.603L93.7056 265.242C93.9355 265.372 94.1952 265.441 94.4593 265.441C94.6085 265.441 94.7569 265.419 94.9 265.377C95.0978 265.319 95.2819 265.222 95.4413 265.092C95.6007 264.961 95.732 264.8 95.8275 264.617L96.2777 263.762L97.7234 264.964L95.6419 267.844C95.4549 268.103 95.3209 268.396 95.2474 268.706C95.174 269.017 95.1626 269.339 95.2139 269.654C95.2652 269.968 95.3782 270.27 95.5464 270.541C95.7146 270.813 95.9347 271.048 96.1941 271.234L96.4469 271.415C96.86 271.713 97.3563 271.872 97.8653 271.872C98.0655 271.871 98.265 271.847 98.4592 271.798C98.4644 271.865 98.4719 271.932 98.4828 272C98.5333 272.315 98.646 272.617 98.8143 272.889C98.9826 273.16 99.2032 273.396 99.4633 273.581L99.716 273.763C100.129 274.061 100.625 274.22 101.134 274.22C101.335 274.22 101.534 274.195 101.728 274.146C101.734 274.213 101.741 274.28 101.752 274.348C101.802 274.663 101.915 274.966 102.083 275.237C102.252 275.509 102.472 275.744 102.732 275.929L102.985 276.111C103.398 276.409 103.895 276.568 104.404 276.568C104.604 276.568 104.803 276.543 104.997 276.494C105.003 276.561 105.01 276.628 105.021 276.695C105.072 277.011 105.184 277.313 105.353 277.585C105.521 277.856 105.741 278.091 106.002 278.277L106.254 278.459C106.778 278.834 107.429 278.987 108.066 278.884C108.702 278.781 109.271 278.43 109.65 277.908L110.467 276.778L111.756 277.805C112.156 278.147 112.645 278.369 113.166 278.445C113.687 278.521 114.219 278.447 114.7 278.233C115.181 278.018 115.592 277.672 115.884 277.233C116.176 276.795 116.337 276.283 116.35 275.756C116.891 275.983 117.49 276.034 118.061 275.901C118.632 275.767 119.147 275.457 119.532 275.014C119.957 274.527 120.196 273.905 120.209 273.259C120.75 273.486 121.349 273.537 121.92 273.403C122.492 273.27 123.006 272.96 123.391 272.517C123.797 272.051 124.034 271.462 124.065 270.845C124.623 271.137 125.263 271.232 125.882 271.114C126.5 270.996 127.061 270.673 127.473 270.197L127.509 270.155C127.743 269.886 127.921 269.573 128.034 269.234C128.146 268.896 128.19 268.538 128.164 268.183C128.138 267.827 128.042 267.48 127.881 267.162C127.721 266.843 127.499 266.56 127.228 266.327L126.318 265.544C126.956 265.155 127.518 264.655 127.976 264.066L127.99 264.095C128.114 264.359 128.311 264.583 128.557 264.739C128.803 264.896 129.089 264.979 129.381 264.979C129.593 264.979 129.803 264.935 129.997 264.85L133.07 263.524C133.26 263.442 133.431 263.323 133.573 263.174C133.716 263.025 133.827 262.849 133.9 262.656C133.973 262.463 134.007 262.258 133.999 262.052C133.991 261.846 133.942 261.644 133.854 261.457L126.406 245.623ZM94.8101 264.081C94.7855 264.128 94.7517 264.169 94.711 264.202C94.6702 264.235 94.6232 264.26 94.5727 264.275C94.5223 264.29 94.4694 264.294 94.4171 264.288C94.3649 264.282 94.3144 264.266 94.2685 264.24L91.3509 262.601C91.2624 262.552 91.1966 262.47 91.1676 262.373C91.1386 262.276 91.1489 262.172 91.1961 262.082L99.371 246.481C99.3957 246.433 99.43 246.391 99.4718 246.358C99.5135 246.324 99.5617 246.299 99.6135 246.285C99.6483 246.276 99.6843 246.271 99.7205 246.271C99.7925 246.271 99.863 246.29 99.9244 246.328L102.824 248.087C102.909 248.138 102.971 248.22 102.997 248.315C103.024 248.41 103.013 248.512 102.967 248.6L94.8101 264.081ZM97.1174 270.482L96.8647 270.3C96.7281 270.202 96.6123 270.079 96.5237 269.936C96.4351 269.793 96.3756 269.635 96.3486 269.469C96.3215 269.303 96.3275 269.134 96.3661 268.971C96.4047 268.807 96.4753 268.653 96.5736 268.517L99.7947 264.061C99.9947 263.785 100.296 263.6 100.632 263.546C100.967 263.492 101.311 263.572 101.588 263.771L101.841 263.953C101.977 264.05 102.093 264.174 102.182 264.316C102.27 264.459 102.33 264.618 102.357 264.783C102.384 264.949 102.378 265.118 102.339 265.282C102.301 265.445 102.23 265.599 102.132 265.735L101.297 266.89L101.296 266.891L98.9109 270.192C98.7109 270.467 98.41 270.652 98.0739 270.706C97.7379 270.761 97.3941 270.68 97.1174 270.482ZM100.386 272.829L100.134 272.647C99.9971 272.549 99.8812 272.426 99.7926 272.283C99.7041 272.141 99.6446 271.982 99.6175 271.816C99.5905 271.651 99.5964 271.481 99.6351 271.318C99.6737 271.155 99.7442 271 99.8426 270.864L102.229 267.563C102.429 267.288 102.73 267.103 103.066 267.049C103.401 266.995 103.745 267.076 104.021 267.274L104.274 267.456C104.411 267.554 104.527 267.677 104.615 267.82C104.704 267.963 104.763 268.121 104.79 268.287C104.817 268.453 104.811 268.622 104.773 268.785C104.734 268.949 104.663 269.103 104.565 269.239L102.18 272.539C101.98 272.814 101.679 273 101.343 273.054C101.007 273.108 100.663 273.027 100.386 272.829ZM103.655 275.177L103.403 274.995C103.266 274.897 103.15 274.773 103.062 274.631C102.973 274.488 102.914 274.33 102.887 274.164C102.859 273.998 102.865 273.829 102.904 273.666C102.943 273.502 103.013 273.348 103.112 273.212L104.813 270.858C105.013 270.582 105.314 270.397 105.65 270.343C105.986 270.289 106.33 270.369 106.607 270.568L106.859 270.75C106.996 270.847 107.112 270.971 107.2 271.114C107.289 271.256 107.348 271.415 107.375 271.581C107.402 271.746 107.396 271.916 107.358 272.079C107.319 272.242 107.249 272.396 107.15 272.532L105.449 274.887C105.249 275.162 104.948 275.347 104.612 275.402C104.276 275.456 103.932 275.375 103.655 275.177ZM108.718 277.234C108.518 277.51 108.217 277.695 107.881 277.749C107.545 277.804 107.201 277.723 106.924 277.524L106.671 277.342C106.535 277.245 106.419 277.121 106.33 276.978C106.242 276.836 106.182 276.677 106.155 276.512C106.128 276.346 106.134 276.177 106.173 276.013C106.211 275.85 106.282 275.696 106.38 275.56L107.398 274.152C107.598 273.876 107.899 273.691 108.235 273.637C108.571 273.582 108.915 273.663 109.191 273.862L109.444 274.044C109.581 274.141 109.697 274.265 109.785 274.407C109.874 274.55 109.933 274.709 109.96 274.874C109.987 275.04 109.981 275.209 109.943 275.373C109.904 275.536 109.834 275.69 109.735 275.826L108.718 277.234ZM127.017 268.266C127.033 268.471 127.007 268.677 126.943 268.872C126.878 269.066 126.775 269.246 126.64 269.401L126.604 269.443C126.32 269.772 125.916 269.976 125.483 270.009C125.049 270.041 124.62 269.902 124.289 269.619C123.921 269.302 123.519 268.956 123.114 268.607L123.104 268.597L120.105 266.015L120.061 265.978L120.012 265.935L119.976 265.904C119.86 265.806 119.71 265.758 119.559 265.769C119.408 265.781 119.268 265.852 119.169 265.967C119.07 266.082 119.02 266.232 119.031 266.383C119.041 266.534 119.112 266.675 119.226 266.775L119.274 266.817C119.548 267.053 120.973 268.279 122.359 269.473C122.52 269.613 122.652 269.783 122.747 269.973C122.843 270.164 122.9 270.371 122.915 270.584C122.93 270.797 122.903 271.01 122.836 271.212C122.769 271.415 122.662 271.602 122.522 271.763C122.238 272.089 121.836 272.29 121.404 272.322C120.971 272.353 120.544 272.213 120.216 271.93L119.245 271.094L117.087 269.237C117.03 269.187 116.964 269.149 116.892 269.125C116.82 269.101 116.744 269.091 116.668 269.096C116.593 269.102 116.519 269.122 116.451 269.156C116.383 269.19 116.323 269.237 116.273 269.295C116.224 269.352 116.186 269.419 116.163 269.491C116.139 269.563 116.13 269.639 116.136 269.715C116.142 269.79 116.163 269.864 116.197 269.932C116.232 269.999 116.279 270.059 116.337 270.108L118.495 271.966C118.657 272.105 118.79 272.275 118.886 272.466C118.982 272.657 119.04 272.865 119.056 273.078C119.071 273.291 119.045 273.505 118.977 273.708C118.91 273.911 118.803 274.099 118.663 274.26C118.378 274.587 117.976 274.788 117.544 274.819C117.112 274.851 116.685 274.71 116.356 274.428L114.199 272.57C114.142 272.521 114.075 272.484 114.004 272.46C113.932 272.436 113.856 272.427 113.781 272.433C113.706 272.438 113.632 272.459 113.565 272.493C113.498 272.527 113.438 272.574 113.388 272.631C113.339 272.688 113.302 272.754 113.278 272.826C113.254 272.898 113.245 272.973 113.251 273.049C113.256 273.124 113.277 273.197 113.311 273.265C113.345 273.332 113.392 273.392 113.449 273.441L114.148 274.043L114.636 274.463C114.798 274.602 114.931 274.772 115.027 274.963C115.123 275.154 115.181 275.362 115.197 275.575C115.212 275.788 115.186 276.003 115.118 276.205C115.051 276.408 114.944 276.596 114.804 276.757C114.519 277.084 114.117 277.285 113.685 277.317C113.253 277.348 112.826 277.207 112.497 276.925C112.492 276.92 112.486 276.915 112.48 276.911L111.031 275.757C111.171 275.275 111.158 274.762 110.994 274.288C110.83 273.814 110.523 273.402 110.115 273.11L109.862 272.928C109.449 272.63 108.952 272.471 108.443 272.472C108.585 271.989 108.573 271.474 108.41 270.998C108.246 270.522 107.939 270.109 107.53 269.816L107.277 269.634C106.864 269.336 106.367 269.177 105.858 269.178C106 268.695 105.988 268.18 105.825 267.704C105.661 267.228 105.353 266.815 104.945 266.522L104.692 266.34C104.3 266.058 103.834 265.9 103.352 265.885C103.552 265.381 103.578 264.826 103.425 264.306C103.273 263.787 102.951 263.333 102.511 263.018L102.259 262.836C101.735 262.46 101.083 262.308 100.447 262.411C99.8111 262.514 99.2415 262.864 98.8629 263.386L98.3985 264.03L96.8257 262.723L102.875 251.241C104.137 250.892 105.094 250.976 105.686 251.113C105.516 251.366 105.37 251.634 105.251 251.914L104.321 254.174C104.084 254.749 103.866 255.339 103.672 255.928L102.744 258.753C102.699 258.888 102.707 259.035 102.764 259.166C102.822 259.296 102.926 259.4 103.056 259.458L103.256 259.547C103.963 259.869 104.739 260.007 105.513 259.948C106.288 259.888 107.034 259.634 107.683 259.208C108.243 258.84 108.713 258.351 109.06 257.777C109.406 257.204 109.619 256.56 109.684 255.893C109.689 255.843 109.694 255.792 109.697 255.741C109.738 255.541 110.063 254.121 111.058 254.051L112.399 254.428C112.919 254.575 113.394 254.851 113.78 255.23L122.086 263.416C122.095 263.425 122.105 263.434 122.115 263.442L126.479 267.197C126.635 267.331 126.763 267.494 126.855 267.678C126.948 267.861 127.003 268.061 127.017 268.266ZM125.388 264.743L122.878 262.583L114.587 254.412C114.063 253.896 113.417 253.521 112.71 253.322L111.282 252.921C111.232 252.906 111.179 252.899 111.127 252.899H111.124C110.235 252.903 109.504 253.387 109.01 254.299C108.798 254.698 108.646 255.127 108.56 255.57C108.556 255.59 108.554 255.609 108.553 255.628C108.549 255.68 108.545 255.732 108.54 255.783C108.491 256.279 108.332 256.759 108.074 257.186C107.815 257.613 107.465 257.977 107.047 258.251C106.601 258.539 106.094 258.72 105.566 258.782C105.038 258.844 104.503 258.784 104.002 258.607L104.764 256.287C104.949 255.724 105.157 255.161 105.383 254.612L106.312 252.358C106.515 251.878 106.82 251.448 107.206 251.098C107.592 250.747 108.049 250.485 108.546 250.329L111.591 249.369C112.261 249.157 112.979 249.146 113.655 249.336L116.811 250.22C118.309 250.639 119.363 250.676 120.839 250.361C120.875 250.353 120.91 250.342 120.944 250.328L121.387 250.14L127.407 262.864C126.923 263.667 126.223 264.317 125.388 264.743ZM132.825 262.247C132.806 262.296 132.778 262.341 132.742 262.379C132.706 262.416 132.662 262.447 132.614 262.467L129.541 263.794C129.447 263.835 129.342 263.838 129.246 263.802C129.15 263.767 129.072 263.695 129.029 263.603L128.629 262.759C128.611 262.663 128.569 262.573 128.506 262.498L121.496 247.683C121.474 247.635 121.461 247.582 121.459 247.529C121.458 247.476 121.467 247.423 121.487 247.373C121.507 247.324 121.536 247.279 121.574 247.241C121.612 247.204 121.657 247.174 121.707 247.155L124.865 245.915C124.958 245.878 125.062 245.878 125.155 245.915C125.247 245.952 125.323 246.022 125.366 246.112L132.813 261.945C132.835 261.992 132.848 262.043 132.85 262.095C132.852 262.147 132.843 262.198 132.825 262.247Z" fill="url(#paint7_linear_3377_574)"/>
</g>
<g clip-path="url(#clip3_3377_574)">
<path d="M375.301 372.775C374.862 371.608 374.204 371.289 372.887 371.289H369.155C367.839 371.289 367.18 371.608 366.741 372.882L355.328 402.605C354.889 403.878 355.218 404.515 356.645 404.515H359.937C362.351 404.515 363.01 404.091 363.449 402.817L364.985 398.465H376.837L378.374 402.817C378.813 404.197 379.581 404.515 381.995 404.515H385.507C386.934 404.515 387.263 403.878 386.824 402.605L375.301 372.775ZM367.07 392.202L369.594 384.877C370.802 381.586 370.692 379.145 370.692 379.145H371.131C371.131 379.145 371.241 381.48 372.338 384.877L374.862 392.095C374.862 392.202 367.07 392.202 367.07 392.202ZM408.224 371.289H385.288C383.751 371.289 383.312 371.714 383.312 373.2V376.385C383.312 377.765 383.751 378.295 385.288 378.295H392.86V402.605C392.86 404.091 393.299 404.515 394.835 404.515H398.676C400.213 404.515 400.652 404.091 400.652 402.605V378.189H408.114C409.651 378.189 410.09 377.765 410.09 376.278V373.2C410.2 371.82 409.651 371.289 408.224 371.289ZM428.746 383.497H420.954V378.083H435.441C436.867 378.083 437.416 377.552 437.416 376.172V373.2C437.416 371.714 436.867 371.289 435.441 371.289H415.138C413.711 371.289 413.163 371.714 413.163 373.2V402.605C413.163 403.985 413.711 404.409 415.138 404.409H428.856C435.55 404.409 439.83 400.375 439.83 394.006C439.83 387.425 435.441 383.497 428.746 383.497ZM427.649 397.722H420.954V390.291H427.649C430.173 390.291 431.6 391.777 431.6 394.006C431.709 396.129 430.283 397.722 427.649 397.722Z" fill="#2A2C29"/>
<path d="M335.653 360.568H299.109C294.061 360.568 290 364.495 290 369.378V404.728C290 409.611 294.061 413.538 299.109 413.538H335.653C340.702 413.538 344.762 409.611 344.762 404.728V369.378C344.762 364.495 340.702 360.568 335.653 360.568ZM341.909 403.772C341.799 403.878 341.689 403.878 341.579 403.878C334.556 399.738 326.215 397.403 317.436 397.403C308.656 397.403 300.316 399.738 293.183 403.878C293.073 403.985 292.853 403.878 292.853 403.772C292.744 403.666 292.744 403.454 292.963 403.454C299.328 398.677 304.925 392.626 309.095 385.408C313.375 378.295 316.009 370.652 317.107 362.903C317.107 362.797 317.216 362.691 317.436 362.691C317.546 362.691 317.655 362.797 317.765 362.903C318.863 370.652 321.496 378.295 325.776 385.408C330.056 392.52 335.544 398.571 342.018 403.348C342.018 403.454 342.018 403.666 341.909 403.772Z" fill="#FE5000"/>
</g>
<circle cx="45" cy="263" r="4" fill="#FE5000"/>
<circle cx="407" cy="225" r="4" fill="#FE5000"/>
<circle cx="335" cy="256" r="4" fill="#FE5000"/>
<circle cx="366" cy="58" r="4" fill="#FE5000"/>
<circle cx="681" cy="260" r="4" fill="#FE5000"/>
</g>
<defs>
<linearGradient id="paint0_linear_3377_574" x1="664.391" y1="80.8773" x2="713.709" y2="66.2959" gradientUnits="userSpaceOnUse">
<stop stop-color="#FE5000"/>
<stop offset="1" stop-color="#FCA92A"/>
</linearGradient>
<linearGradient id="paint1_linear_3377_574" x1="650.937" y1="82.375" x2="708.312" y2="49.1875" gradientUnits="userSpaceOnUse">
<stop stop-color="#FE5000"/>
<stop offset="1" stop-color="#FE9800"/>
</linearGradient>
<linearGradient id="paint2_linear_3377_574" x1="28.7743" y1="84.5235" x2="80.3045" y2="70.3798" gradientUnits="userSpaceOnUse">
<stop stop-color="#FE5000"/>
<stop offset="1" stop-color="#FCA92A"/>
</linearGradient>
<linearGradient id="paint3_linear_3377_574" x1="394.083" y1="35.7704" x2="426.197" y2="20.4039" gradientUnits="userSpaceOnUse">
<stop stop-color="#FE5000"/>
<stop offset="1" stop-color="#FCA92A"/>
</linearGradient>
<linearGradient id="paint4_linear_3377_574" x1="597.64" y1="277.28" x2="631.961" y2="246.772" gradientUnits="userSpaceOnUse">
<stop stop-color="#FE5000"/>
<stop offset="1" stop-color="#FE9800"/>
</linearGradient>
<linearGradient id="paint5_linear_3377_574" x1="256.857" y1="274.97" x2="290.121" y2="264.565" gradientUnits="userSpaceOnUse">
<stop stop-color="#FE5000"/>
<stop offset="1" stop-color="#FCA92A"/>
</linearGradient>
<linearGradient id="paint6_linear_3377_574" x1="464.599" y1="239.76" x2="492.666" y2="230.976" gradientUnits="userSpaceOnUse">
<stop stop-color="#FE5000"/>
<stop offset="1" stop-color="#FCA92A"/>
</linearGradient>
<linearGradient id="paint7_linear_3377_574" x1="99.075" y1="278.915" x2="135.528" y2="264.228" gradientUnits="userSpaceOnUse">
<stop stop-color="#FE5000"/>
<stop offset="1" stop-color="#FCA92A"/>
</linearGradient>
<clipPath id="clip0_3377_574">
<rect width="730" height="414" fill="white"/>
</clipPath>
<clipPath id="clip1_3377_574">
<rect width="37.931" height="37.931" fill="white" transform="translate(249.035 237.035)"/>
</clipPath>
<clipPath id="clip2_3377_574">
<rect width="44" height="44" fill="white" transform="translate(90 240)"/>
</clipPath>
<clipPath id="clip3_3377_574">
<rect width="150" height="53.0769" fill="white" transform="translate(290 360.462)"/>
</clipPath>
</defs>
</svg>
