<svg width="56" height="56" viewBox="0 0 56 56" fill="none" xmlns="http://www.w3.org/2000/svg">
<path fill-rule="evenodd" clip-rule="evenodd" d="M36.3935 1.22044C36.4731 1.15062 36.5676 1.09523 36.6718 1.05743C36.7759 1.01964 36.8875 1.00018 37.0002 1.00018C37.1129 1.00018 37.2245 1.01964 37.3287 1.05743C37.4328 1.09523 37.5274 1.15062 37.607 1.22044L42.7489 5.71873C42.9098 5.8595 43.0002 6.05044 43.0002 6.24952C43.0002 6.44861 42.9098 6.63954 42.7489 6.78032C42.588 6.9211 42.3697 7.00019 42.1421 7.00019C41.9146 7.00019 41.6963 6.9211 41.5354 6.78032L38.0002 3.68649L38.0002 20.0502C38.0002 20.3021 37.8948 20.5438 37.7073 20.7219C37.5198 20.9001 37.2654 21.0002 37.0002 21.0002C36.735 21.0002 36.4806 20.9001 36.2931 20.7219C36.1056 20.5438 36.0002 20.3021 36.0002 20.0502L36.0002 3.68649L32.465 6.78032C32.3041 6.9211 32.0859 7.00018 31.8583 7.00018C31.6307 7.00018 31.4125 6.9211 31.2515 6.78032C31.0906 6.63954 31.0002 6.44861 31.0002 6.24952C31.0002 6.05043 31.0906 5.8595 31.2515 5.71872L36.3935 1.22044ZM31.2727 23.0352V25.8377C37.5244 24.9457 45.9999 26.1955 46 29.5921V44.3451C46 46.8964 41.1871 48.2919 36.1818 48.4295V50.902C36.1818 53.5921 30.8309 55 25.5455 55C20.26 55 14.9091 53.5921 14.9091 50.902V45.9843C14.9091 44.8656 15.8369 43.983 17.2937 43.3297C13.3108 42.8609 10 41.5425 10 39.4274V23.0352C10 17.6549 31.2727 17.6549 31.2727 23.0352ZM29.6363 23.0909C29.6363 22.2575 26.4595 20.6363 20.6364 20.6363C14.8132 20.6363 11.6363 22.2576 11.6364 23.0909C11.6364 23.9243 14.8133 25.5454 20.6364 25.5454C26.4595 25.5454 29.6363 23.9243 29.6363 23.0909ZM20.6363 27.1818C17.1383 27.1818 13.6217 26.5626 11.6363 25.3677L11.6364 28C11.6364 28.8334 14.8132 30.4545 20.6364 30.4545C22.0609 30.4545 23.445 30.3262 24.7273 30.1205V29.6364C24.7273 27.9629 26.793 26.8113 29.6363 26.1808V25.3677C27.651 26.5626 24.1342 27.1818 20.6363 27.1818ZM26.8552 42.0025C26.6813 41.916 26.5193 41.825 26.3636 41.7313V41.9847C26.528 41.989 26.6914 41.9957 26.8552 42.0025ZM20.6363 32.0909C17.1383 32.0909 13.6217 31.4717 11.6363 30.2768V33.7273C11.6363 34.5607 14.8131 36.1818 20.6363 36.1818C22.0608 36.1818 23.4449 36.0535 24.7272 35.8478V31.7698C23.4292 31.9637 22.0526 32.0909 20.6363 32.0909ZM11.6363 36.0041V39.4546C11.6363 40.2879 14.8132 41.9091 20.6363 41.9091C22.0608 41.9091 23.4449 41.7808 24.7272 41.5751V37.4971C23.4292 37.691 22.0526 37.8182 20.6363 37.8182C17.1383 37.8182 13.6217 37.199 11.6363 36.0041ZM25.5455 53.3636C31.3686 53.3636 34.5454 51.7425 34.5454 50.9091L34.5453 48.435C34.5078 48.4338 34.4698 48.4331 34.4319 48.4324C34.3835 48.4315 34.3351 48.4306 34.2875 48.4288C32.2637 49.525 28.8937 50.0909 25.5454 50.0909C22.0474 50.0909 18.5308 49.4716 16.5454 48.2767V50.9091C16.5454 51.7425 19.7224 53.3636 25.5455 53.3636ZM16.5455 46C16.5455 46.8334 19.7223 48.4545 25.5455 48.4545C31.3686 48.4545 34.5454 46.8334 34.5454 46C34.5454 45.1666 31.3686 43.5454 25.5455 43.5454C19.7224 43.5454 16.5455 45.1666 16.5455 46ZM36.1818 46.7898C41.4645 46.6424 44.3636 45.1556 44.3636 44.3637L44.3635 41.7313C42.3782 42.9262 38.8615 43.5454 35.3635 43.5454C34.9618 43.5454 34.5605 43.5346 34.1604 43.5184C35.4082 44.1515 36.1818 44.9777 36.1818 46V46.7898ZM35.3636 41.9091C41.1867 41.9091 44.3636 40.288 44.3636 39.4546V36.8222C42.3783 38.0171 38.8616 38.6364 35.3636 38.6364C31.8657 38.6364 28.3489 38.0171 26.3637 36.8222V39.4546C26.3637 40.288 29.5405 41.9091 35.3636 41.9091ZM35.3636 37C41.1867 37 44.3636 35.3789 44.3636 34.5455V31.9131C42.3783 33.108 38.8616 33.7273 35.3636 33.7273C31.8657 33.7273 28.3489 33.108 26.3637 31.9131V34.5455C26.3637 35.3789 29.5405 37 35.3636 37ZM26.3637 29.6364C26.3637 30.4698 29.5405 32.0909 35.3636 32.0909C41.1867 32.0909 44.3636 30.4698 44.3636 29.6364C44.3636 28.803 41.1867 27.1818 35.3636 27.1818C29.5405 27.1818 26.3637 28.803 26.3637 29.6364Z" fill="url(#paint0_linear_3240_1044)"/>
<defs>
<linearGradient id="paint0_linear_3240_1044" x1="17.425" y1="55" x2="50.6456" y2="48.0686" gradientUnits="userSpaceOnUse">
<stop stop-color="#FE5000"/>
<stop offset="1" stop-color="#FCA92A"/>
</linearGradient>
</defs>
</svg>
