<svg width="56" height="56" viewBox="0 0 56 56" fill="none" xmlns="http://www.w3.org/2000/svg">
<path fill-rule="evenodd" clip-rule="evenodd" d="M17.0659 16.3385C17.0659 15.9987 17.0765 15.6653 17.0973 15.3385C17.528 8.57363 22.3364 4.60852 28.2379 4.60852C33.576 4.60852 37.9256 7.85277 39.0183 13.4788C39.0417 13.5992 39.0635 13.7208 39.0839 13.8434C39.2149 14.6311 39.2833 15.4636 39.2833 16.3385C39.2833 23.7109 34.4245 31.3065 28.2379 31.3065C22.3308 31.3065 17.5189 24.3818 17.0961 17.3385C17.0761 17.0052 17.0659 16.6716 17.0659 16.3385ZM34.6583 9.11492C35.6707 10.139 36.4696 11.5028 36.9089 13.2102C36.1561 13.3645 35.3561 13.1711 34.548 12.7519C33.482 12.1988 32.5762 11.3321 32.1206 10.7916C31.8783 10.5041 31.4953 10.3768 31.1291 10.4621C30.763 10.5474 30.4756 10.8308 30.3853 11.1958C29.885 13.2171 27.9168 14.3269 25.0939 14.8813C23.1147 15.27 20.953 15.3366 19.1016 15.343C19.3001 12.6202 20.3131 10.5499 21.7431 9.1261C23.3512 7.52494 25.6193 6.60852 28.2379 6.60852C30.8538 6.60852 33.0842 7.52274 34.6583 9.11492ZM21.958 25.4228C20.3617 23.1936 19.3012 20.2783 19.1005 17.3437C21.0002 17.3373 23.3316 17.2656 25.4793 16.8438C27.9178 16.3649 30.4502 15.3669 31.7111 13.2059C32.2482 13.6725 32.9005 14.1503 33.627 14.5272C34.6514 15.0586 35.9209 15.4337 37.2367 15.1863C37.2674 15.5579 37.2833 15.9419 37.2833 16.3385C37.2833 19.6154 36.1943 22.9543 34.4459 25.4349C32.6844 27.9339 30.4604 29.3065 28.2379 29.3065C26.0088 29.3065 23.751 27.9267 21.958 25.4228ZM34.9428 33.0229C36.2199 31.4845 37.6548 31.1023 38.5619 31.359C42.9011 32.3275 45.4734 35.686 47.021 38.9278C48.2858 41.5772 48.9432 44.3246 49.3121 45.8665L49.3122 45.867C49.3945 46.2109 49.4624 46.4948 49.5195 46.7042C49.6939 47.3438 49.7072 47.947 49.5385 48.4932C49.3684 49.0443 49.0373 49.4582 48.6566 49.7526C47.934 50.3115 47.0168 50.4601 46.4245 50.4601H33.0767H23.5407H10.1199C8.68817 50.4601 7.57811 50.1144 6.91817 49.2995C6.26231 48.4896 6.28406 47.5015 6.41735 46.7846C8.85082 33.6945 15.4419 31.3278 17.404 31.3278L17.4748 31.3277C17.9488 31.3271 18.4644 31.3264 19.0306 31.5848C19.5654 31.8288 20.0911 32.2773 20.7935 32.928C22.188 34.2198 23.9787 34.6386 25.9577 34.763C26.7752 34.8144 27.5963 34.8144 28.4218 34.8144H28.4326C29.225 34.8144 30.028 34.7775 30.7979 34.6862C32.7203 34.4582 34.2001 33.9175 34.9428 33.0229ZM36.4816 34.3004C37.29 33.3266 37.8952 33.2942 38.0045 33.2884C38.026 33.2872 38.0283 33.2871 38.0092 33.281C38.0381 33.2902 38.0674 33.298 38.0969 33.3045C41.5771 34.069 43.7766 36.7742 45.2161 39.7895C46.3756 42.2182 46.967 44.6766 47.3449 46.2473C47.4377 46.6331 47.5177 46.9653 47.59 47.2305C47.6875 47.588 47.661 47.795 47.6276 47.9031C47.5957 48.0064 47.5359 48.091 47.4331 48.1705C47.1888 48.3595 46.7689 48.4601 46.4245 48.4601H33.8628L31.9581 40.6229L33.1127 39.8082C33.5139 39.5251 33.6502 38.9927 33.4344 38.5516L32.4053 36.4484C33.9819 36.112 35.5027 35.4796 36.4816 34.3004ZM30.2012 41.8626L31.8046 48.4601H24.8267L26.5163 41.8127L27.8786 42.7192C28.2225 42.948 28.6717 42.9419 29.0092 42.7038L30.2012 41.8626ZM24.7513 40.6382L22.7631 48.4601H10.1199C8.93817 48.4601 8.5754 48.168 8.47243 48.0408C8.36537 47.9086 8.29064 47.6504 8.38365 47.1501C10.7063 34.6565 16.7229 33.3278 17.404 33.3278C17.9678 33.3278 18.0642 33.3422 18.2003 33.4043C18.3963 33.4937 18.697 33.7121 19.4344 34.3952C20.8828 35.737 22.596 36.3289 24.2804 36.594L23.2093 38.5015C22.9532 38.9576 23.0918 39.5339 23.5272 39.8237L24.7513 40.6382ZM25.4071 38.6723L26.464 36.7901C27.1285 36.8144 27.7809 36.8144 28.3947 36.8144H28.4326C29.0519 36.8144 29.6885 36.7935 30.3227 36.7426L31.2635 38.6653L30.2492 39.381L28.4161 40.6745L26.4489 39.3655L25.4071 38.6723Z" fill="url(#paint0_linear_3240_1053)"/>
<defs>
<linearGradient id="paint0_linear_3240_1053" x1="15.276" y1="50.4601" x2="53.6347" y2="39.119" gradientUnits="userSpaceOnUse">
<stop stop-color="#FE5000"/>
<stop offset="1" stop-color="#FCA92A"/>
</linearGradient>
</defs>
</svg>
