<svg width="56" height="56" viewBox="0 0 56 56" fill="none" xmlns="http://www.w3.org/2000/svg">
<path fill-rule="evenodd" clip-rule="evenodd" d="M46.1195 15.2111C46.0886 15.2111 46.0768 15.192 46.0604 15.1656C46.0503 15.1492 46.0385 15.1301 46.0194 15.111C45.9944 15.086 45.9819 15.0609 45.9694 15.0359C45.9568 15.0109 45.9443 14.9859 45.9193 14.9608L37.3099 5.30033C37.2849 5.2753 37.2474 5.25027 37.2098 5.22524C37.1723 5.20022 37.1348 5.17519 37.1097 5.15016C37.0847 5.15016 37.0722 5.13765 37.0597 5.12514C37.0472 5.11262 37.0346 5.10011 37.0096 5.10011C36.9095 5.05005 36.7593 5 36.6092 5H15.4862C12.3829 5 9.83008 7.55277 9.83008 10.6561V45.3438C9.83008 48.4472 12.3829 51 15.4862 51H40.5134C43.6168 51 46.1696 48.4472 46.1696 45.3438V15.5615C46.1696 15.5114 46.1571 15.4489 46.1446 15.3864L46.1445 15.3863C46.132 15.3237 46.1195 15.2612 46.1195 15.2111ZM37.5602 8.4037L43.1163 14.6605H37.5602V8.4037ZM44.2675 45.2938C44.2675 47.3961 42.6157 49.0979 40.5134 49.0979H15.4862C13.3839 49.0979 11.7321 47.3961 11.7321 45.3438V10.6061C11.7321 8.50381 13.434 6.85201 15.4862 6.85201H35.6581V15.5615C35.6581 16.062 36.0586 16.5125 36.6092 16.5125H44.2675V45.2938ZM16.5876 26.9669H24.9467C25.4473 26.9669 25.8978 26.5665 25.8978 26.0159C25.8978 25.4653 25.4973 25.0649 24.9467 25.0649H16.5876C16.0871 25.0649 15.6366 25.4653 15.6366 26.0159C15.6366 26.5665 16.0871 26.9669 16.5876 26.9669ZM16.5876 40.1801H24.9467C25.4473 40.1801 25.8978 40.6305 25.8978 41.1311C25.8978 41.6817 25.4473 42.0821 24.9467 42.0821H16.5876C16.037 42.0821 15.6366 41.6316 15.6366 41.1311C15.6366 40.5805 16.0871 40.1801 16.5876 40.1801ZM15.6366 31.0543C15.6366 31.5549 16.037 32.0054 16.5876 32.0054H38.9119C39.4124 32.0054 39.8629 31.6049 39.8629 31.0543C39.8629 30.5538 39.4625 30.1033 38.9119 30.1033H16.5876C16.0871 30.1033 15.6366 30.5037 15.6366 31.0543ZM16.5876 35.1417H38.9119C39.4625 35.1417 39.8629 35.5421 39.8629 36.0927C39.8629 36.6433 39.4124 37.0438 38.9119 37.0438H16.5876C16.037 37.0438 15.6366 36.5933 15.6366 36.0927C15.6366 35.5421 16.0871 35.1417 16.5876 35.1417Z" fill="url(#paint0_linear_3364_664)"/>
<defs>
<linearGradient id="paint0_linear_3364_664" x1="17.3251" y1="51" x2="50.303" y2="42.8465" gradientUnits="userSpaceOnUse">
<stop stop-color="#FE5000"/>
<stop offset="1" stop-color="#FCA92A"/>
</linearGradient>
</defs>
</svg>
