<svg width="56" height="56" viewBox="0 0 56 56" fill="none" xmlns="http://www.w3.org/2000/svg">
<path d="M44.8 7.63635H11.2C8.78182 7.63635 6.74546 9.67272 6.74546 12.0909V42.1273C6.74546 44.5454 8.78182 46.5818 11.2 46.5818H32.4546C32.9636 46.5818 33.3455 46.2 33.3455 45.6909C33.3455 45.1818 32.9636 44.8 32.4546 44.8H11.2C9.80001 44.8 8.52728 43.6545 8.52728 42.1273V16.4182H47.4727V35C47.4727 35.5091 47.8546 35.8909 48.3636 35.8909C48.8727 35.8909 49.2546 35.5091 49.2546 35V12.0909C49.2546 9.67272 47.2182 7.63635 44.8 7.63635ZM47.4727 14.7636H8.52728V12.0909C8.52728 10.6909 9.67273 9.41817 11.2 9.41817H44.8C46.2 9.41817 47.4727 10.5636 47.4727 12.0909V14.7636ZM11.2 12.9818C11.7091 12.9818 12.0909 12.6 12.0909 12.0909C12.0909 11.5818 11.7091 11.2 11.2 11.2C10.6909 11.2 10.3091 11.5818 10.3091 12.0909C10.3091 12.6 10.6909 12.9818 11.2 12.9818ZM14.7636 12.9818C15.2727 12.9818 15.6546 12.6 15.6546 12.0909C15.6546 11.5818 15.2727 11.2 14.7636 11.2C14.2546 11.2 13.8727 11.5818 13.8727 12.0909C13.8727 12.6 14.2546 12.9818 14.7636 12.9818ZM18.3273 12.9818C18.8364 12.9818 19.2182 12.6 19.2182 12.0909C19.2182 11.5818 18.8364 11.2 18.3273 11.2C17.8182 11.2 17.4364 11.5818 17.4364 12.0909C17.4364 12.6 17.8182 12.9818 18.3273 12.9818ZM49 39.7091L36.6546 27.3636C36.4 27.1091 36.0182 26.9818 35.6364 27.1091C35.2546 27.2364 35.1273 27.6182 35.1273 27.8727V45.5636C35.1273 45.9454 35.3818 46.2 35.6364 46.3273C36.0182 46.4545 36.4 46.3273 36.6546 46.0727L39.3273 43.4L41.4909 47.6C41.6182 47.8545 41.7455 47.9818 42 47.9818C42.1273 47.9818 42.1273 47.9818 42.2546 47.9818C42.3818 47.9818 42.5091 47.9818 42.6364 47.8545L46.0727 46.0727C46.4546 45.8182 46.7091 45.3091 46.4546 44.9273L44.4182 40.9818H48.2364C48.6182 40.9818 48.8727 40.7273 49 40.4727C49.2546 40.3454 49.2546 39.9636 49 39.7091ZM43.0182 39.4545C42.7636 39.4545 42.3818 39.5818 42.2546 39.8363C42.1273 40.0909 42.1273 40.4727 42.2546 40.7273L44.5455 45.1818L42.6364 46.2L40.3455 41.7454C40.2182 41.4909 39.9636 41.3636 39.7091 41.2364H39.5818C39.3273 41.2364 39.0727 41.3636 38.9455 41.4909L36.9091 43.5273V30.0364L46.3273 39.4545H43.0182Z" fill="url(#paint0_linear_3240_1059)"/>
<defs>
<linearGradient id="paint0_linear_3240_1059" x1="15.513" y1="47.9818" x2="52.4333" y2="35.8073" gradientUnits="userSpaceOnUse">
<stop stop-color="#FE5000"/>
<stop offset="1" stop-color="#FCA92A"/>
</linearGradient>
</defs>
</svg>
