<svg width="56" height="56" viewBox="0 0 56 56" fill="none" xmlns="http://www.w3.org/2000/svg">
<path d="M43.1455 49.4667H21.7637C19.2691 49.4667 17.3091 47.4989 17.3091 44.9944V18.1611C17.3091 15.6567 19.2691 13.6889 21.7637 13.6889H43.1455C45.64 13.6889 47.6 15.6567 47.6 18.1611V44.9944C47.6 47.4989 45.64 49.4667 43.1455 49.4667ZM21.7637 15.4778C20.2491 15.4778 19.0909 16.6405 19.0909 18.1611V44.9944C19.0909 46.515 20.2491 47.6778 21.7637 47.6778H43.1455C44.66 47.6778 45.8182 46.515 45.8182 44.9944V18.1611C45.8182 16.6405 44.66 15.4778 43.1455 15.4778H21.7637ZM14.6364 44.1H12.8546C10.36 44.1 8.40002 42.1322 8.40002 39.6278V11.0055C8.40002 8.5011 10.36 6.53333 12.8546 6.53333H34.2364C36.7309 6.53333 38.6909 8.5011 38.6909 11.0055C38.6909 11.5422 38.3346 11.9 37.8 11.9C37.2655 11.9 36.9091 11.5422 36.9091 11.0055C36.9091 9.48499 35.7509 8.32221 34.2364 8.32221H12.8546C11.34 8.32221 10.1818 9.48499 10.1818 11.0055V39.6278C10.1818 41.1483 11.34 42.3111 12.8546 42.3111H14.6364C15.1709 42.3111 15.5273 42.6689 15.5273 43.2055C15.5273 43.7422 15.1709 44.1 14.6364 44.1ZM39.5818 36.9444H25.3273C24.7928 36.9444 24.4364 36.5867 24.4364 36.05C24.4364 35.5133 24.7928 35.1555 25.3273 35.1555H39.5818C40.1164 35.1555 40.4728 35.5133 40.4728 36.05C40.4728 36.5867 40.1164 36.9444 39.5818 36.9444ZM39.5818 44.1H25.3273C24.7928 44.1 24.4364 43.7422 24.4364 43.2055C24.4364 42.6689 24.7928 42.3111 25.3273 42.3111H39.5818C40.1164 42.3111 40.4728 42.6689 40.4728 43.2055C40.4728 43.7422 40.1164 44.1 39.5818 44.1ZM39.5818 29.7889H25.3273C24.7928 29.7889 24.4364 29.4311 24.4364 28.8944C24.4364 28.3578 24.7928 28 25.3273 28H39.5818C40.1164 28 40.4728 28.3578 40.4728 28.8944C40.4728 29.4311 40.1164 29.7889 39.5818 29.7889ZM39.5818 22.6333H25.3273C24.7928 22.6333 24.4364 22.2755 24.4364 21.7389C24.4364 21.2022 24.7928 20.8444 25.3273 20.8444H39.5818C40.1164 20.8444 40.4728 21.2022 40.4728 21.7389C40.4728 22.2755 40.1164 22.6333 39.5818 22.6333Z" fill="url(#paint0_linear_3240_1057)"/>
<defs>
<linearGradient id="paint0_linear_3240_1057" x1="16.485" y1="49.4667" x2="51.3837" y2="39.4943" gradientUnits="userSpaceOnUse">
<stop stop-color="#FE5000"/>
<stop offset="1" stop-color="#FCA92A"/>
</linearGradient>
</defs>
</svg>
