<svg width="56" height="56" viewBox="0 0 56 56" fill="none" xmlns="http://www.w3.org/2000/svg">
<path d="M47.4925 25.2926C46.9247 25.2926 46.5462 25.6726 46.5462 26.2426V29.9474V35.5521V36.5021C46.5462 37.5471 45.6946 38.402 44.6538 38.402H42.7613C41.1527 38.402 40.0172 39.637 40.0172 41.1569V43.0568C40.0172 44.1018 39.1656 44.9567 38.1247 44.9567H33.4882H10.3054C9.73763 44.9567 9.35914 44.5767 9.35914 44.0068V26.1476C9.35914 25.5776 8.98065 25.1976 8.4129 25.1976C7.84516 25.1976 7.46667 25.5776 7.46667 26.1476V43.9118C7.46667 45.5267 8.69677 46.6666 10.2108 46.6666H33.4882H38.1247H39.3548C40.5849 46.6666 41.8151 46.1917 42.572 45.2417L46.9247 40.8719C47.7763 40.0169 48.3441 38.782 48.3441 37.642V36.4071V35.4571V29.9474V26.1476C48.4387 25.5776 48.0602 25.2926 47.4925 25.2926ZM41.8151 43.6268C41.8151 43.4368 41.9097 43.2468 41.9097 42.9618V41.0619C41.9097 40.4919 42.2882 40.1119 42.8559 40.1119H44.7484C44.9376 40.1119 45.1269 40.1119 45.4108 40.0169L41.8151 43.6268ZM45.6946 12.1832H39.1656V10.2833C39.1656 9.7133 38.7871 9.33331 38.2194 9.33331C37.6516 9.33331 37.2731 9.7133 37.2731 10.2833V12.1832H18.7269V10.2833C18.7269 9.7133 18.3484 9.33331 17.7806 9.33331C17.2129 9.33331 16.8344 9.7133 16.8344 10.2833V12.1832H10.3054C8.69677 12.1832 7.56129 13.4181 7.56129 14.9381V22.4427C7.56129 23.0127 7.93979 23.3927 8.50753 23.3927H47.5871C48.1548 23.3927 48.5333 23.0127 48.5333 22.4427V14.9381C48.4387 13.4181 47.2086 12.1832 45.6946 12.1832ZM46.5462 21.4928H9.45376V14.9381C9.45376 14.3681 9.83226 13.9881 10.4 13.9881H16.929V16.173C16.3613 16.458 15.9828 17.123 15.9828 17.7879C15.9828 18.8329 16.8344 19.6879 17.8753 19.6879C18.9161 19.6879 19.7677 18.8329 19.7677 17.7879C19.7677 17.123 19.3892 16.458 18.8215 16.173V13.9881H37.3677V16.173C36.8 16.458 36.4215 17.123 36.4215 17.7879C36.4215 18.8329 37.2731 19.6879 38.314 19.6879C39.3548 19.6879 40.2065 18.8329 40.2065 17.7879C40.2065 17.123 39.828 16.458 39.2602 16.173V13.9881H45.7892C46.357 13.9881 46.7355 14.3681 46.7355 14.9381L46.5462 21.4928ZM24.3097 30.8024C25.3505 30.8024 26.2022 29.9474 26.2022 28.9024C26.2022 27.8575 25.3505 27.0025 24.3097 27.0025C23.2688 27.0025 22.4172 27.8575 22.4172 28.9024C22.4172 30.0424 23.2688 30.8024 24.3097 30.8024ZM31.6903 30.8024C32.7312 30.8024 33.5828 29.9474 33.5828 28.9024C33.5828 27.8575 32.7312 27.0025 31.6903 27.0025C30.6495 27.0025 29.7978 27.8575 29.7978 28.9024C29.8925 30.0424 30.6495 30.8024 31.6903 30.8024ZM39.1656 30.8024C40.2064 30.8024 41.0581 29.9474 41.0581 28.9024C41.0581 27.8575 40.2064 27.0025 39.1656 27.0025C38.1247 27.0025 37.2731 27.8575 37.2731 28.9024C37.2731 30.0424 38.1247 30.8024 39.1656 30.8024ZM16.8344 39.257C17.8753 39.257 18.7269 38.402 18.7269 37.3571C18.7269 36.3121 17.8753 35.4571 16.8344 35.4571C15.7935 35.4571 14.9419 36.3121 14.9419 37.3571C14.9419 38.402 15.7935 39.257 16.8344 39.257ZM24.3097 39.257C25.3505 39.257 26.2022 38.402 26.2022 37.3571C26.2022 36.3121 25.3505 35.4571 24.3097 35.4571C23.2688 35.4571 22.4172 36.3121 22.4172 37.3571C22.4172 38.402 23.2688 39.257 24.3097 39.257ZM31.6903 39.257C32.7312 39.257 33.5828 38.402 33.5828 37.3571C33.5828 36.3121 32.7312 35.4571 31.6903 35.4571C30.6495 35.4571 29.7978 36.3121 29.7978 37.3571C29.7978 38.402 30.6495 39.257 31.6903 39.257Z" fill="url(#paint0_linear_3240_1042)"/>
<defs>
<linearGradient id="paint0_linear_3240_1042" x1="15.9367" y1="46.6666" x2="51.2923" y2="34.495" gradientUnits="userSpaceOnUse">
<stop stop-color="#FE5000"/>
<stop offset="1" stop-color="#FCA92A"/>
</linearGradient>
</defs>
</svg>
