<svg width="44" height="44" viewBox="0 0 44 44" fill="none" xmlns="http://www.w3.org/2000/svg">
<path d="M40.1283 19.448C39.6003 19.448 39.2483 19.8 39.2483 20.328V23.76V28.952V29.832C39.2483 30.8 38.4563 31.592 37.4883 31.592H35.7283C34.2323 31.592 33.1763 32.736 33.1763 34.144V35.904C33.1763 36.872 32.3843 37.664 31.4163 37.664H27.1043H5.5443C5.0163 37.664 4.6643 37.312 4.6643 36.784V20.24C4.6643 19.712 4.3123 19.36 3.7843 19.36C3.2563 19.36 2.9043 19.712 2.9043 20.24V36.696C2.9043 38.192 4.0483 39.248 5.4563 39.248H27.1043H31.4163H32.5603C33.7043 39.248 34.8483 38.808 35.5523 37.928L39.6003 33.88C40.3923 33.088 40.9203 31.944 40.9203 30.888V29.744V28.864V23.76V20.24C41.0083 19.712 40.6563 19.448 40.1283 19.448ZM34.8483 36.432C34.8483 36.256 34.9363 36.08 34.9363 35.816V34.056C34.9363 33.528 35.2883 33.176 35.8163 33.176H37.5763C37.7523 33.176 37.9283 33.176 38.1923 33.088L34.8483 36.432ZM38.4563 7.304H32.3843V5.544C32.3843 5.016 32.0323 4.664 31.5043 4.664C30.9763 4.664 30.6243 5.016 30.6243 5.544V7.304H13.3763V5.544C13.3763 5.016 13.0243 4.664 12.4963 4.664C11.9683 4.664 11.6163 5.016 11.6163 5.544V7.304H5.5443C4.0483 7.304 2.9923 8.448 2.9923 9.856V16.808C2.9923 17.336 3.3443 17.688 3.8723 17.688H40.2163C40.7443 17.688 41.0963 17.336 41.0963 16.808V9.856C41.0083 8.448 39.8643 7.304 38.4563 7.304ZM39.2483 15.928H4.7523V9.856C4.7523 9.328 5.1043 8.976 5.6323 8.976H11.7043V11C11.1763 11.264 10.8243 11.88 10.8243 12.496C10.8243 13.464 11.6163 14.256 12.5843 14.256C13.5523 14.256 14.3443 13.464 14.3443 12.496C14.3443 11.88 13.9923 11.264 13.4643 11V8.976H30.7123V11C30.1843 11.264 29.8323 11.88 29.8323 12.496C29.8323 13.464 30.6243 14.256 31.5923 14.256C32.5603 14.256 33.3523 13.464 33.3523 12.496C33.3523 11.88 33.0003 11.264 32.4723 11V8.976H38.5443C39.0723 8.976 39.4243 9.328 39.4243 9.856L39.2483 15.928ZM18.5683 24.552C19.5363 24.552 20.3283 23.76 20.3283 22.792C20.3283 21.824 19.5363 21.032 18.5683 21.032C17.6003 21.032 16.8083 21.824 16.8083 22.792C16.8083 23.848 17.6003 24.552 18.5683 24.552ZM25.4323 24.552C26.4003 24.552 27.1923 23.76 27.1923 22.792C27.1923 21.824 26.4003 21.032 25.4323 21.032C24.4643 21.032 23.6723 21.824 23.6723 22.792C23.7603 23.848 24.4643 24.552 25.4323 24.552ZM32.3843 24.552C33.3523 24.552 34.1443 23.76 34.1443 22.792C34.1443 21.824 33.3523 21.032 32.3843 21.032C31.4163 21.032 30.6243 21.824 30.6243 22.792C30.6243 23.848 31.4163 24.552 32.3843 24.552ZM11.6163 32.384C12.5843 32.384 13.3763 31.592 13.3763 30.624C13.3763 29.656 12.5843 28.864 11.6163 28.864C10.6483 28.864 9.8563 29.656 9.8563 30.624C9.8563 31.592 10.6483 32.384 11.6163 32.384ZM18.5683 32.384C19.5363 32.384 20.3283 31.592 20.3283 30.624C20.3283 29.656 19.5363 28.864 18.5683 28.864C17.6003 28.864 16.8083 29.656 16.8083 30.624C16.8083 31.592 17.6003 32.384 18.5683 32.384ZM25.4323 32.384C26.4003 32.384 27.1923 31.592 27.1923 30.624C27.1923 29.656 26.4003 28.864 25.4323 28.864C24.4643 28.864 23.6723 29.656 23.6723 30.624C23.6723 31.592 24.4643 32.384 25.4323 32.384Z" fill="url(#paint0_linear_1_3610)"/>
<defs>
<linearGradient id="paint0_linear_1_3610" x1="10.7814" y1="39.248" x2="43.6347" y2="27.8933" gradientUnits="userSpaceOnUse">
<stop stop-color="#FE5000"/>
<stop offset="1" stop-color="#FCA92A"/>
</linearGradient>
</defs>
</svg>
