<svg width="44" height="44" viewBox="0 0 44 44" fill="none" xmlns="http://www.w3.org/2000/svg">
<path d="M17.7807 12.508C16.9419 12.5091 16.1377 12.8427 15.5446 13.4359C14.9514 14.029 14.6177 14.8332 14.6167 15.672C14.6177 16.5108 14.9514 17.315 15.5446 17.9081C16.1377 18.5013 16.9419 18.8349 17.7807 18.836C18.6195 18.8349 19.4237 18.5013 20.0168 17.9081C20.6099 17.315 20.9436 16.5108 20.9447 15.672C20.9436 14.8332 20.6099 14.029 20.0168 13.4359C19.4237 12.8427 18.6195 12.5091 17.7807 12.508ZM17.7807 16.727C17.5088 16.7152 17.252 16.5988 17.0639 16.4023C16.8757 16.2057 16.7706 15.9441 16.7706 15.672C16.7706 15.3999 16.8757 15.1383 17.0639 14.9417C17.252 14.7452 17.5088 14.6288 17.7807 14.617C18.0525 14.6288 18.3093 14.7452 18.4975 14.9417C18.6857 15.1383 18.7907 15.3999 18.7907 15.672C18.7907 15.9441 18.6857 16.2057 18.4975 16.4023C18.3093 16.5988 18.0525 16.7152 17.7807 16.727ZM26.2187 20.945C25.3799 20.9461 24.5757 21.2797 23.9826 21.8729C23.3894 22.466 23.0557 23.2702 23.0547 24.109C23.0557 24.9478 23.3894 25.752 23.9826 26.3451C24.5757 26.9383 25.3799 27.2719 26.2187 27.273C27.0575 27.2719 27.8617 26.9383 28.4548 26.3451C29.0479 25.752 29.3816 24.9478 29.3827 24.109C29.3816 23.2702 29.0479 22.466 28.4548 21.8729C27.8617 21.2797 27.0575 20.9461 26.2187 20.945ZM26.2187 25.165C25.9468 25.1532 25.69 25.0368 25.5019 24.8403C25.3137 24.6437 25.2086 24.3821 25.2086 24.11C25.2086 23.8379 25.3137 23.5763 25.5019 23.3797C25.69 23.1832 25.9468 23.0668 26.2187 23.055C26.4905 23.0668 26.7473 23.1832 26.9355 23.3797C27.1237 23.5763 27.2287 23.8379 27.2287 24.11C27.2287 24.3821 27.1237 24.6437 26.9355 24.8403C26.7473 25.0368 26.4905 25.1532 26.2187 25.165ZM26.8037 12.685C26.5709 12.5297 26.2861 12.4733 26.0117 12.528C25.7374 12.5828 25.496 12.7443 25.3407 12.977L16.9037 25.634C16.7573 25.8667 16.7076 26.1474 16.7652 26.4163C16.8227 26.6851 16.9829 26.9209 17.2116 27.0734C17.4404 27.2259 17.7196 27.2831 17.9899 27.2327C18.2602 27.1824 18.5001 27.0286 18.6587 26.804L27.0957 14.148C27.2509 13.9153 27.3074 13.6304 27.2526 13.356C27.1979 13.0817 27.0364 12.8403 26.8037 12.685Z" fill="url(#paint0_linear_8701_9172)"/>
<path d="M37.7397 23.705C37.6597 23.5126 37.5245 23.3481 37.3511 23.2325C37.1778 23.1168 36.9741 23.055 36.7657 23.055H33.6017V5.055C33.6017 4.472 33.1287 4 32.5467 4H11.4527C10.8707 4 10.3987 4.472 10.3987 5.055V23.055H7.23368C7.02555 23.0554 6.82219 23.1173 6.64918 23.233C6.47617 23.3487 6.34126 23.513 6.2614 23.7052C6.18155 23.8974 6.16033 24.109 6.20042 24.3132C6.2405 24.5174 6.3401 24.7052 6.48668 24.853L21.2527 39.69C21.3507 39.7884 21.4672 39.8665 21.5955 39.9198C21.7237 39.9731 21.8613 40.0005 22.0002 40.0005C22.1391 40.0005 22.2766 39.9731 22.4049 39.9198C22.5332 39.8665 22.6497 39.7884 22.7477 39.69L37.5127 24.854C37.8127 24.552 37.9027 24.098 37.7397 23.705ZM21.9997 37.45L9.77168 25.164H11.4527C12.0357 25.164 12.5077 24.692 12.5077 24.109V6.109H31.4917V24.109C31.4917 24.692 31.9647 25.164 32.5467 25.164H34.2277L21.9997 37.45Z" fill="url(#paint1_linear_8701_9172)"/>
<defs>
<linearGradient id="paint0_linear_8701_9172" x1="12.7063" y1="40.0005" x2="41.031" y2="32.2097" gradientUnits="userSpaceOnUse">
<stop stop-color="#FE5000"/>
<stop offset="1" stop-color="#FCA92A"/>
</linearGradient>
<linearGradient id="paint1_linear_8701_9172" x1="12.7063" y1="40.0005" x2="41.031" y2="32.2097" gradientUnits="userSpaceOnUse">
<stop stop-color="#FE5000"/>
<stop offset="1" stop-color="#FCA92A"/>
</linearGradient>
</defs>
</svg>
