<svg width="44" height="44" viewBox="0 0 44 44" fill="none" xmlns="http://www.w3.org/2000/svg">
<g clip-path="url(#clip0_1_3569)">
<path d="M25.4548 10.2177V7.25945C25.4548 1.58018 3 1.58018 3 7.25945V24.5626C3 26.7951 6.49477 28.1869 10.6991 28.6817C9.16126 29.3713 8.18188 30.303 8.18188 31.4838V36.6747C8.18188 39.5144 13.8301 41.0005 19.4093 41.0005C24.9885 41.0005 30.6368 39.5143 30.6368 36.6747V34.0649C35.9202 33.9197 41.0005 32.4466 41.0005 29.7535V14.1807C41.0004 10.5954 32.0539 9.27617 25.4548 10.2177ZM14.2274 4.72729C20.3742 4.72729 23.7275 6.43852 23.7275 7.31823C23.7275 8.19793 20.3741 9.90917 14.2274 9.90917C8.08076 9.90917 4.72735 8.19793 4.72735 7.31823C4.72727 6.4386 8.08067 4.72729 14.2274 4.72729ZM4.72727 9.72157C6.82293 10.9829 10.535 11.6365 14.2274 11.6365C17.9197 11.6365 21.6319 10.9829 23.7275 9.72157V10.5798C20.7262 11.2454 18.5456 12.461 18.5456 14.2275V14.7384C17.1921 14.9556 15.7311 15.0911 14.2274 15.0911C8.08067 15.0911 4.72735 13.3798 4.72735 12.5001V9.72157H4.72727ZM20.2729 26.9945C20.4373 27.0933 20.6083 27.1895 20.7918 27.2808C20.619 27.2736 20.4464 27.2665 20.2729 27.262V26.9945ZM4.72727 14.9035C6.82293 16.1648 10.535 16.8184 14.2274 16.8184C15.7223 16.8184 17.1754 16.6842 18.5456 16.4795V20.784C17.192 21.0012 15.731 21.1366 14.2274 21.1366C8.08059 21.1366 4.72727 19.4254 4.72727 18.5457V14.9035ZM4.72727 24.5912V20.949C6.82293 22.2103 10.535 22.864 14.2274 22.864C15.7223 22.864 17.1754 22.7297 18.5456 22.525V26.8296C17.192 27.0467 15.731 27.1822 14.2274 27.1822C8.08067 27.1822 4.72727 25.4708 4.72727 24.5912ZM28.9094 36.6823C28.9094 37.562 25.556 39.2732 19.4093 39.2732C13.2626 39.2732 9.90915 37.562 9.90915 36.6823V33.9036C12.0048 35.1649 15.7169 35.8186 19.4092 35.8186C22.9436 35.8186 26.5009 35.2212 28.6371 34.0641C28.7268 34.0675 28.8192 34.0679 28.9093 34.0707V36.6823H28.9094ZM19.4093 34.0913C13.2626 34.0913 9.90923 32.3801 9.90923 31.5004C9.90923 30.6207 13.2626 28.9094 19.4093 28.9094C25.556 28.9094 28.9094 30.6207 28.9094 31.5004C28.9094 32.3801 25.556 34.0913 19.4093 34.0913ZM39.2732 29.7731C39.2732 30.609 36.213 32.1785 30.6367 32.3341V31.5004C30.6367 30.4213 29.8201 29.5492 28.503 28.8808C28.9253 28.8979 29.3489 28.9094 29.773 28.9094C33.4653 28.9094 37.1775 28.2558 39.2731 26.9945V29.7731H39.2732ZM39.2732 24.5912C39.2732 25.4709 35.9198 27.1822 29.7731 27.1822C23.6264 27.1822 20.273 25.4709 20.273 24.5912V21.8126C22.3686 23.0739 26.0807 23.7275 29.7731 23.7275C33.4654 23.7275 37.1776 23.0739 39.2732 21.8126V24.5912ZM39.2732 19.4093C39.2732 20.289 35.9198 22.0003 29.7731 22.0003C23.6264 22.0003 20.273 20.289 20.273 19.4093V16.6307C22.3686 17.892 26.0807 18.5457 29.7731 18.5457C33.4654 18.5457 37.1776 17.892 39.2732 16.6307V19.4093ZM29.7731 16.8184C23.6263 16.8184 20.273 15.1072 20.273 14.2275C20.273 13.3478 23.6264 11.6365 29.7731 11.6365C35.9198 11.6365 39.2732 13.3478 39.2732 14.2275C39.2732 15.1072 35.9198 16.8184 29.7731 16.8184Z" fill="url(#paint0_linear_1_3569)"/>
</g>
<defs>
<linearGradient id="paint0_linear_1_3569" x1="10.2484" y1="42.0048" x2="45.3274" y2="31.032" gradientUnits="userSpaceOnUse">
<stop stop-color="#FE5000"/>
<stop offset="1" stop-color="#FCA92A"/>
</linearGradient>
</defs>
</svg>
