<svg width="355" height="310" viewBox="0 0 355 310" fill="none" xmlns="http://www.w3.org/2000/svg">
<rect width="355" height="310" fill="#F8F8F8"/>
<path d="M10 264H345" stroke="#7F94A8" stroke-dasharray="2 2"/>
<path d="M17.386 48.838L16.63 47.668L19.654 45.328H20.662V58H19.222V47.398L17.386 48.838ZM31.9823 51.7C31.9823 53.74 31.6403 55.324 30.9563 56.452C30.2843 57.58 29.2763 58.144 27.9323 58.144C26.5763 58.144 25.5443 57.568 24.8363 56.416C24.1523 55.252 23.8103 53.68 23.8103 51.7C23.8103 49.732 24.1463 48.166 24.8183 47.002C25.5023 45.838 26.5283 45.256 27.8963 45.256C29.2763 45.256 30.2963 45.838 30.9563 47.002C31.6403 48.154 31.9823 49.72 31.9823 51.7ZM27.9323 56.794C28.8083 56.794 29.4443 56.374 29.8403 55.534C30.2483 54.694 30.4523 53.416 30.4523 51.7C30.4523 49.996 30.2423 48.724 29.8223 47.884C29.4143 47.032 28.7723 46.606 27.8963 46.606C26.1923 46.606 25.3403 48.304 25.3403 51.7C25.3403 55.096 26.2043 56.794 27.9323 56.794ZM33.9525 57.172C33.9525 56.884 34.0425 56.656 34.2225 56.488C34.4025 56.308 34.6545 56.218 34.9785 56.218C35.3625 56.218 35.6745 56.38 35.9145 56.704C36.1545 57.016 36.2745 57.436 36.2745 57.964C36.2745 58.612 36.0945 59.17 35.7345 59.638C35.3865 60.118 34.9065 60.448 34.2945 60.628L33.8985 59.944C34.5225 59.752 34.9065 59.35 35.0505 58.738C35.1345 58.33 35.1285 58.03 35.0325 57.838C34.9605 57.946 34.8285 58 34.6365 58C34.4565 58 34.2945 57.922 34.1505 57.766C34.0185 57.598 33.9525 57.4 33.9525 57.172ZM42.1183 50.8H42.5863C43.1263 50.8 43.5943 50.596 43.9903 50.188C44.3983 49.78 44.6023 49.294 44.6023 48.73C44.6023 48.106 44.3863 47.608 43.9543 47.236C43.5223 46.852 42.9763 46.66 42.3163 46.66C41.6683 46.66 41.1343 46.852 40.7143 47.236C40.2943 47.62 40.0843 48.118 40.0843 48.73C40.0843 49.294 40.2883 49.78 40.6963 50.188C41.1043 50.596 41.5783 50.8 42.1183 50.8ZM42.5683 52.24H42.1723C41.4883 52.24 40.9003 52.45 40.4083 52.87C39.9283 53.278 39.6883 53.812 39.6883 54.472C39.6883 55.132 39.9343 55.678 40.4263 56.11C40.9303 56.53 41.5663 56.74 42.3343 56.74C43.1383 56.74 43.7803 56.536 44.2603 56.128C44.7523 55.708 44.9983 55.156 44.9983 54.472C44.9863 53.8 44.7523 53.26 44.2963 52.852C43.8403 52.444 43.2643 52.24 42.5683 52.24ZM38.1583 54.742C38.1583 53.986 38.3743 53.32 38.8063 52.744C39.2383 52.156 39.8143 51.76 40.5343 51.556V51.502C39.9583 51.31 39.4843 50.938 39.1123 50.386C38.7403 49.822 38.5543 49.198 38.5543 48.514C38.5543 47.542 38.9143 46.75 39.6343 46.138C40.3663 45.526 41.2663 45.22 42.3343 45.22C43.4023 45.22 44.3023 45.526 45.0343 46.138C45.7663 46.75 46.1323 47.542 46.1323 48.514C46.1323 49.15 45.9403 49.744 45.5563 50.296C45.1843 50.836 44.6863 51.232 44.0623 51.484V51.538C44.7823 51.658 45.3703 52.006 45.8263 52.582C46.2943 53.146 46.5283 53.83 46.5283 54.634C46.5283 55.738 46.1263 56.602 45.3223 57.226C44.5063 57.862 43.5163 58.18 42.3523 58.18C41.1643 58.18 40.1683 57.868 39.3643 57.244C38.5603 56.62 38.1583 55.786 38.1583 54.742ZM49.4394 50.548C48.8154 49.972 48.5034 49.234 48.5034 48.334C48.5034 47.434 48.8094 46.702 49.4214 46.138C50.0574 45.574 50.8494 45.292 51.7974 45.292C52.7454 45.292 53.5314 45.574 54.1554 46.138C54.7794 46.69 55.0914 47.422 55.0914 48.334C55.0914 49.234 54.7794 49.972 54.1554 50.548C53.5194 51.112 52.7334 51.394 51.7974 51.394C50.8614 51.394 50.0754 51.112 49.4394 50.548ZM49.8534 48.334C49.8534 48.886 50.0394 49.342 50.4114 49.702C50.7954 50.05 51.2574 50.224 51.7974 50.224C52.3494 50.224 52.8114 50.05 53.1834 49.702C53.5554 49.342 53.7414 48.886 53.7414 48.334C53.7414 47.794 53.5554 47.35 53.1834 47.002C52.8114 46.642 52.3494 46.462 51.7974 46.462C51.2454 46.462 50.7834 46.642 50.4114 47.002C50.0394 47.35 49.8534 47.794 49.8534 48.334ZM57.0174 57.262C56.3934 56.686 56.0814 55.948 56.0814 55.048C56.0814 54.148 56.3874 53.416 56.9994 52.852C57.6354 52.288 58.4274 52.006 59.3754 52.006C60.3234 52.006 61.1094 52.288 61.7334 52.852C62.3574 53.404 62.6694 54.136 62.6694 55.048C62.6694 55.948 62.3574 56.686 61.7334 57.262C61.0974 57.826 60.3114 58.108 59.3754 58.108C58.4394 58.108 57.6534 57.826 57.0174 57.262ZM57.4314 55.048C57.4314 55.6 57.6174 56.056 57.9894 56.416C58.3734 56.764 58.8354 56.938 59.3754 56.938C59.9274 56.938 60.3894 56.764 60.7614 56.416C61.1334 56.056 61.3194 55.6 61.3194 55.048C61.3194 54.508 61.1334 54.064 60.7614 53.716C60.3894 53.356 59.9274 53.176 59.3754 53.176C58.8234 53.176 58.3614 53.356 57.9894 53.716C57.6174 54.064 57.4314 54.508 57.4314 55.048ZM51.4014 58.18L50.5554 57.586L59.8074 45.22L60.6354 45.832L51.4014 58.18ZM70.8923 45.238C71.1563 45.238 71.3783 45.334 71.5583 45.526C71.7503 45.706 71.8463 45.922 71.8463 46.174C71.8463 46.438 71.7563 46.66 71.5763 46.84C71.3963 47.008 71.1683 47.092 70.8923 47.092C70.6403 47.092 70.4243 47.002 70.2443 46.822C70.0643 46.642 69.9743 46.426 69.9743 46.174C69.9743 45.922 70.0643 45.706 70.2443 45.526C70.4363 45.334 70.6523 45.238 70.8923 45.238ZM69.9383 51.25C69.9383 50.986 70.0283 50.758 70.2083 50.566C70.4003 50.374 70.6223 50.278 70.8743 50.278C71.1263 50.278 71.3483 50.374 71.5403 50.566C71.7323 50.758 71.8283 50.986 71.8283 51.25C71.8283 51.49 71.7323 51.706 71.5403 51.898C71.3483 52.09 71.1263 52.186 70.8743 52.186C70.6343 52.186 70.4183 52.09 70.2263 51.898C70.0343 51.706 69.9383 51.49 69.9383 51.25ZM72.0623 47.488C72.0623 47.224 72.1463 47.002 72.3143 46.822C72.4943 46.63 72.7103 46.534 72.9623 46.534C73.2263 46.534 73.4483 46.63 73.6283 46.822C73.8203 47.002 73.9163 47.224 73.9163 47.488C73.9163 47.74 73.8203 47.962 73.6283 48.154C73.4483 48.334 73.2263 48.424 72.9623 48.424C72.7103 48.424 72.4943 48.334 72.3143 48.154C72.1463 47.962 72.0623 47.74 72.0623 47.488ZM72.9623 48.946C73.2263 48.946 73.4483 49.036 73.6283 49.216C73.8203 49.396 73.9163 49.618 73.9163 49.882C73.9163 50.146 73.8203 50.374 73.6283 50.566C73.4483 50.746 73.2263 50.836 72.9623 50.836C72.7103 50.836 72.4943 50.746 72.3143 50.566C72.1463 50.374 72.0623 50.146 72.0623 49.882C72.0623 49.618 72.1463 49.396 72.3143 49.216C72.4943 49.036 72.7103 48.946 72.9623 48.946ZM68.7683 48.946C69.0323 48.946 69.2543 49.036 69.4343 49.216C69.6143 49.396 69.7043 49.618 69.7043 49.882C69.7043 50.146 69.6143 50.374 69.4343 50.566C69.2543 50.746 69.0323 50.836 68.7683 50.836C68.5163 50.836 68.3003 50.746 68.1203 50.566C67.9403 50.374 67.8503 50.146 67.8503 49.882C67.8503 49.618 67.9403 49.396 68.1203 49.216C68.3003 49.036 68.5163 48.946 68.7683 48.946ZM67.8503 47.488C67.8503 47.224 67.9403 47.002 68.1203 46.822C68.3003 46.63 68.5163 46.534 68.7683 46.534C69.0323 46.534 69.2543 46.63 69.4343 46.822C69.6143 47.002 69.7043 47.224 69.7043 47.488C69.7043 47.74 69.6143 47.962 69.4343 48.154C69.2543 48.334 69.0323 48.424 68.7683 48.424C68.5163 48.424 68.3003 48.334 68.1203 48.154C67.9403 47.962 67.8503 47.74 67.8503 47.488Z" fill="#FE5000"/>
<path d="M49.162 285.7C49.162 287.74 48.82 289.324 48.136 290.452C47.464 291.58 46.456 292.144 45.112 292.144C43.756 292.144 42.724 291.568 42.016 290.416C41.332 289.252 40.99 287.68 40.99 285.7C40.99 283.732 41.326 282.166 41.998 281.002C42.682 279.838 43.708 279.256 45.076 279.256C46.456 279.256 47.476 279.838 48.136 281.002C48.82 282.154 49.162 283.72 49.162 285.7ZM45.112 290.794C45.988 290.794 46.624 290.374 47.02 289.534C47.428 288.694 47.632 287.416 47.632 285.7C47.632 283.996 47.422 282.724 47.002 281.884C46.594 281.032 45.952 280.606 45.076 280.606C43.372 280.606 42.52 282.304 42.52 285.7C42.52 289.096 43.384 290.794 45.112 290.794Z" fill="#999999"/>
<path d="M117.782 285.736L118.574 279.4H124.262V280.84H119.834L119.366 284.242C119.654 284.158 119.99 284.116 120.374 284.116C121.538 284.116 122.492 284.476 123.236 285.196C123.98 285.904 124.352 286.846 124.352 288.022C124.352 289.282 123.956 290.29 123.164 291.046C122.372 291.802 121.4 292.18 120.248 292.18C119.504 292.18 118.802 292.012 118.142 291.676C117.482 291.34 116.978 290.872 116.63 290.272L117.458 289.21C117.746 289.678 118.148 290.05 118.664 290.326C119.192 290.602 119.732 290.74 120.284 290.74C121.004 290.74 121.604 290.488 122.084 289.984C122.576 289.468 122.822 288.832 122.822 288.076C122.822 287.308 122.54 286.672 121.976 286.168C121.424 285.664 120.686 285.412 119.762 285.412C119.006 285.412 118.346 285.52 117.782 285.736ZM134.443 285.7C134.443 287.74 134.101 289.324 133.417 290.452C132.745 291.58 131.737 292.144 130.393 292.144C129.037 292.144 128.005 291.568 127.297 290.416C126.613 289.252 126.271 287.68 126.271 285.7C126.271 283.732 126.607 282.166 127.279 281.002C127.963 279.838 128.989 279.256 130.357 279.256C131.737 279.256 132.757 279.838 133.417 281.002C134.101 282.154 134.443 283.72 134.443 285.7ZM130.393 290.794C131.269 290.794 131.905 290.374 132.301 289.534C132.709 288.694 132.913 287.416 132.913 285.7C132.913 283.996 132.703 282.724 132.283 281.884C131.875 281.032 131.233 280.606 130.357 280.606C128.653 280.606 127.801 282.304 127.801 285.7C127.801 289.096 128.665 290.794 130.393 290.794Z" fill="#999999"/>
<path d="M202.386 282.838L201.63 281.668L204.654 279.328H205.662V292H204.222V281.398L202.386 282.838ZM216.982 285.7C216.982 287.74 216.64 289.324 215.956 290.452C215.284 291.58 214.276 292.144 212.932 292.144C211.576 292.144 210.544 291.568 209.836 290.416C209.152 289.252 208.81 287.68 208.81 285.7C208.81 283.732 209.146 282.166 209.818 281.002C210.502 279.838 211.528 279.256 212.896 279.256C214.276 279.256 215.296 279.838 215.956 281.002C216.64 282.154 216.982 283.72 216.982 285.7ZM212.932 290.794C213.808 290.794 214.444 290.374 214.84 289.534C215.248 288.694 215.452 287.416 215.452 285.7C215.452 283.996 215.242 282.724 214.822 281.884C214.414 281.032 213.772 280.606 212.896 280.606C211.192 280.606 210.34 282.304 210.34 285.7C210.34 289.096 211.204 290.794 212.932 290.794ZM227.142 285.7C227.142 287.74 226.8 289.324 226.116 290.452C225.444 291.58 224.436 292.144 223.092 292.144C221.736 292.144 220.704 291.568 219.996 290.416C219.312 289.252 218.97 287.68 218.97 285.7C218.97 283.732 219.306 282.166 219.978 281.002C220.662 279.838 221.688 279.256 223.056 279.256C224.436 279.256 225.456 279.838 226.116 281.002C226.8 282.154 227.142 283.72 227.142 285.7ZM223.092 290.794C223.968 290.794 224.604 290.374 225 289.534C225.408 288.694 225.612 287.416 225.612 285.7C225.612 283.996 225.402 282.724 224.982 281.884C224.574 281.032 223.932 280.606 223.056 280.606C221.352 280.606 220.5 282.304 220.5 285.7C220.5 289.096 221.364 290.794 223.092 290.794Z" fill="#999999"/>
<path d="M294.386 282.838L293.63 281.668L296.654 279.328H297.662V292H296.222V281.398L294.386 282.838ZM301.602 285.736L302.394 279.4H308.082V280.84H303.654L303.186 284.242C303.474 284.158 303.81 284.116 304.194 284.116C305.358 284.116 306.312 284.476 307.056 285.196C307.8 285.904 308.172 286.846 308.172 288.022C308.172 289.282 307.776 290.29 306.984 291.046C306.192 291.802 305.22 292.18 304.068 292.18C303.324 292.18 302.622 292.012 301.962 291.676C301.302 291.34 300.798 290.872 300.45 290.272L301.278 289.21C301.566 289.678 301.968 290.05 302.484 290.326C303.012 290.602 303.552 290.74 304.104 290.74C304.824 290.74 305.424 290.488 305.904 289.984C306.396 289.468 306.642 288.832 306.642 288.076C306.642 287.308 306.36 286.672 305.796 286.168C305.244 285.664 304.506 285.412 303.582 285.412C302.826 285.412 302.166 285.52 301.602 285.736ZM318.264 285.7C318.264 287.74 317.922 289.324 317.238 290.452C316.566 291.58 315.558 292.144 314.214 292.144C312.858 292.144 311.826 291.568 311.118 290.416C310.434 289.252 310.092 287.68 310.092 285.7C310.092 283.732 310.428 282.166 311.1 281.002C311.784 279.838 312.81 279.256 314.178 279.256C315.558 279.256 316.578 279.838 317.238 281.002C317.922 282.154 318.264 283.72 318.264 285.7ZM314.214 290.794C315.09 290.794 315.726 290.374 316.122 289.534C316.53 288.694 316.734 287.416 316.734 285.7C316.734 283.996 316.524 282.724 316.104 281.884C315.696 281.032 315.054 280.606 314.178 280.606C312.474 280.606 311.622 282.304 311.622 285.7C311.622 289.096 312.486 290.794 314.214 290.794Z" fill="#999999"/>
<path d="M106.13 106.8H106.598C107.138 106.8 107.606 106.596 108.002 106.188C108.41 105.78 108.614 105.294 108.614 104.73C108.614 104.106 108.398 103.608 107.966 103.236C107.534 102.852 106.988 102.66 106.328 102.66C105.68 102.66 105.146 102.852 104.726 103.236C104.306 103.62 104.096 104.118 104.096 104.73C104.096 105.294 104.3 105.78 104.708 106.188C105.116 106.596 105.59 106.8 106.13 106.8ZM106.58 108.24H106.184C105.5 108.24 104.912 108.45 104.42 108.87C103.94 109.278 103.7 109.812 103.7 110.472C103.7 111.132 103.946 111.678 104.438 112.11C104.942 112.53 105.578 112.74 106.346 112.74C107.15 112.74 107.792 112.536 108.272 112.128C108.764 111.708 109.01 111.156 109.01 110.472C108.998 109.8 108.764 109.26 108.308 108.852C107.852 108.444 107.276 108.24 106.58 108.24ZM102.17 110.742C102.17 109.986 102.386 109.32 102.818 108.744C103.25 108.156 103.826 107.76 104.546 107.556V107.502C103.97 107.31 103.496 106.938 103.124 106.386C102.752 105.822 102.566 105.198 102.566 104.514C102.566 103.542 102.926 102.75 103.646 102.138C104.378 101.526 105.278 101.22 106.346 101.22C107.414 101.22 108.314 101.526 109.046 102.138C109.778 102.75 110.144 103.542 110.144 104.514C110.144 105.15 109.952 105.744 109.568 106.296C109.196 106.836 108.698 107.232 108.074 107.484V107.538C108.794 107.658 109.382 108.006 109.838 108.582C110.306 109.146 110.54 109.83 110.54 110.634C110.54 111.738 110.138 112.602 109.334 113.226C108.518 113.862 107.528 114.18 106.364 114.18C105.176 114.18 104.18 113.868 103.376 113.244C102.572 112.62 102.17 111.786 102.17 110.742ZM112.677 113.172C112.677 112.884 112.767 112.656 112.947 112.488C113.127 112.308 113.379 112.218 113.703 112.218C114.087 112.218 114.399 112.38 114.639 112.704C114.879 113.016 114.999 113.436 114.999 113.964C114.999 114.612 114.819 115.17 114.459 115.638C114.111 116.118 113.631 116.448 113.019 116.628L112.623 115.944C113.247 115.752 113.631 115.35 113.775 114.738C113.859 114.33 113.853 114.03 113.757 113.838C113.685 113.946 113.553 114 113.361 114C113.181 114 113.019 113.922 112.875 113.766C112.743 113.598 112.677 113.4 112.677 113.172ZM124.875 107.7C124.875 109.74 124.533 111.324 123.849 112.452C123.177 113.58 122.169 114.144 120.825 114.144C119.469 114.144 118.437 113.568 117.729 112.416C117.045 111.252 116.703 109.68 116.703 107.7C116.703 105.732 117.039 104.166 117.711 103.002C118.395 101.838 119.421 101.256 120.789 101.256C122.169 101.256 123.189 101.838 123.849 103.002C124.533 104.154 124.875 105.72 124.875 107.7ZM120.825 112.794C121.701 112.794 122.337 112.374 122.733 111.534C123.141 110.694 123.345 109.416 123.345 107.7C123.345 105.996 123.135 104.724 122.715 103.884C122.307 103.032 121.665 102.606 120.789 102.606C119.085 102.606 118.233 104.304 118.233 107.7C118.233 111.096 119.097 112.794 120.825 112.794ZM127.655 107.736L128.447 101.4H134.135V102.84H129.707L129.239 106.242C129.527 106.158 129.863 106.116 130.247 106.116C131.411 106.116 132.365 106.476 133.109 107.196C133.853 107.904 134.225 108.846 134.225 110.022C134.225 111.282 133.829 112.29 133.037 113.046C132.245 113.802 131.273 114.18 130.121 114.18C129.377 114.18 128.675 114.012 128.015 113.676C127.355 113.34 126.851 112.872 126.503 112.272L127.331 111.21C127.619 111.678 128.021 112.05 128.537 112.326C129.065 112.602 129.605 112.74 130.157 112.74C130.877 112.74 131.477 112.488 131.957 111.984C132.449 111.468 132.695 110.832 132.695 110.076C132.695 109.308 132.413 108.672 131.849 108.168C131.297 107.664 130.559 107.412 129.635 107.412C128.879 107.412 128.219 107.52 127.655 107.736ZM136.9 106.548C136.276 105.972 135.964 105.234 135.964 104.334C135.964 103.434 136.27 102.702 136.882 102.138C137.518 101.574 138.31 101.292 139.258 101.292C140.206 101.292 140.992 101.574 141.616 102.138C142.24 102.69 142.552 103.422 142.552 104.334C142.552 105.234 142.24 105.972 141.616 106.548C140.98 107.112 140.194 107.394 139.258 107.394C138.322 107.394 137.536 107.112 136.9 106.548ZM137.314 104.334C137.314 104.886 137.5 105.342 137.872 105.702C138.256 106.05 138.718 106.224 139.258 106.224C139.81 106.224 140.272 106.05 140.644 105.702C141.016 105.342 141.202 104.886 141.202 104.334C141.202 103.794 141.016 103.35 140.644 103.002C140.272 102.642 139.81 102.462 139.258 102.462C138.706 102.462 138.244 102.642 137.872 103.002C137.5 103.35 137.314 103.794 137.314 104.334ZM144.478 113.262C143.854 112.686 143.542 111.948 143.542 111.048C143.542 110.148 143.848 109.416 144.46 108.852C145.096 108.288 145.888 108.006 146.836 108.006C147.784 108.006 148.57 108.288 149.194 108.852C149.818 109.404 150.13 110.136 150.13 111.048C150.13 111.948 149.818 112.686 149.194 113.262C148.558 113.826 147.772 114.108 146.836 114.108C145.9 114.108 145.114 113.826 144.478 113.262ZM144.892 111.048C144.892 111.6 145.078 112.056 145.45 112.416C145.834 112.764 146.296 112.938 146.836 112.938C147.388 112.938 147.85 112.764 148.222 112.416C148.594 112.056 148.78 111.6 148.78 111.048C148.78 110.508 148.594 110.064 148.222 109.716C147.85 109.356 147.388 109.176 146.836 109.176C146.284 109.176 145.822 109.356 145.45 109.716C145.078 110.064 144.892 110.508 144.892 111.048ZM138.862 114.18L138.016 113.586L147.268 101.22L148.096 101.832L138.862 114.18Z" fill="#FE5000"/>
<path d="M196.782 163.736L197.574 157.4H203.262V158.84H198.834L198.366 162.242C198.654 162.158 198.99 162.116 199.374 162.116C200.538 162.116 201.492 162.476 202.236 163.196C202.98 163.904 203.352 164.846 203.352 166.022C203.352 167.282 202.956 168.29 202.164 169.046C201.372 169.802 200.4 170.18 199.248 170.18C198.504 170.18 197.802 170.012 197.142 169.676C196.482 169.34 195.978 168.872 195.63 168.272L196.458 167.21C196.746 167.678 197.148 168.05 197.664 168.326C198.192 168.602 198.732 168.74 199.284 168.74C200.004 168.74 200.604 168.488 201.084 167.984C201.576 167.468 201.822 166.832 201.822 166.076C201.822 165.308 201.54 164.672 200.976 164.168C200.424 163.664 199.686 163.412 198.762 163.412C198.006 163.412 197.346 163.52 196.782 163.736ZM205.253 169.172C205.253 168.884 205.343 168.656 205.523 168.488C205.703 168.308 205.955 168.218 206.279 168.218C206.663 168.218 206.975 168.38 207.215 168.704C207.455 169.016 207.575 169.436 207.575 169.964C207.575 170.612 207.395 171.17 207.035 171.638C206.687 172.118 206.207 172.448 205.595 172.628L205.199 171.944C205.823 171.752 206.207 171.35 206.351 170.738C206.435 170.33 206.429 170.03 206.333 169.838C206.261 169.946 206.129 170 205.937 170C205.757 170 205.595 169.922 205.451 169.766C205.319 169.598 205.253 169.4 205.253 169.172ZM212.735 170.18C211.847 170.18 211.067 169.994 210.395 169.622C209.735 169.25 209.243 168.716 208.919 168.02L209.747 166.994C210.035 167.546 210.443 167.978 210.971 168.29C211.499 168.59 212.069 168.74 212.681 168.74C213.437 168.74 214.037 168.53 214.481 168.11C214.937 167.69 215.165 167.144 215.165 166.472C215.165 165.8 214.925 165.266 214.445 164.87C213.977 164.474 213.359 164.276 212.591 164.276H211.601V162.836H212.501C213.089 162.836 213.593 162.632 214.013 162.224C214.457 161.816 214.679 161.294 214.679 160.658C214.679 160.034 214.493 159.548 214.121 159.2C213.761 158.84 213.263 158.66 212.627 158.66C211.487 158.66 210.623 159.182 210.035 160.226L209.225 159.236C209.513 158.6 209.963 158.108 210.575 157.76C211.199 157.4 211.919 157.22 212.735 157.22C213.791 157.22 214.631 157.508 215.255 158.084C215.891 158.66 216.209 159.434 216.209 160.406C216.209 161.102 216.041 161.714 215.705 162.242C215.369 162.77 214.883 163.166 214.247 163.43V163.484C214.991 163.604 215.585 163.946 216.029 164.51C216.473 165.074 216.695 165.746 216.695 166.526C216.695 167.63 216.323 168.518 215.579 169.19C214.847 169.85 213.899 170.18 212.735 170.18ZM219.615 162.548C218.991 161.972 218.679 161.234 218.679 160.334C218.679 159.434 218.985 158.702 219.597 158.138C220.233 157.574 221.025 157.292 221.973 157.292C222.921 157.292 223.707 157.574 224.331 158.138C224.955 158.69 225.267 159.422 225.267 160.334C225.267 161.234 224.955 161.972 224.331 162.548C223.695 163.112 222.909 163.394 221.973 163.394C221.037 163.394 220.251 163.112 219.615 162.548ZM220.029 160.334C220.029 160.886 220.215 161.342 220.587 161.702C220.971 162.05 221.433 162.224 221.973 162.224C222.525 162.224 222.987 162.05 223.359 161.702C223.731 161.342 223.917 160.886 223.917 160.334C223.917 159.794 223.731 159.35 223.359 159.002C222.987 158.642 222.525 158.462 221.973 158.462C221.421 158.462 220.959 158.642 220.587 159.002C220.215 159.35 220.029 159.794 220.029 160.334ZM227.193 169.262C226.569 168.686 226.257 167.948 226.257 167.048C226.257 166.148 226.563 165.416 227.175 164.852C227.811 164.288 228.603 164.006 229.551 164.006C230.499 164.006 231.285 164.288 231.909 164.852C232.533 165.404 232.845 166.136 232.845 167.048C232.845 167.948 232.533 168.686 231.909 169.262C231.273 169.826 230.487 170.108 229.551 170.108C228.615 170.108 227.829 169.826 227.193 169.262ZM227.607 167.048C227.607 167.6 227.793 168.056 228.165 168.416C228.549 168.764 229.011 168.938 229.551 168.938C230.103 168.938 230.565 168.764 230.937 168.416C231.309 168.056 231.495 167.6 231.495 167.048C231.495 166.508 231.309 166.064 230.937 165.716C230.565 165.356 230.103 165.176 229.551 165.176C228.999 165.176 228.537 165.356 228.165 165.716C227.793 166.064 227.607 166.508 227.607 167.048ZM221.577 170.18L220.731 169.586L229.983 157.22L230.811 157.832L221.577 170.18Z" fill="#FE5000"/>
<path d="M291.496 222H283.81V220.83C285.442 219.234 286.642 217.962 287.41 217.014C288.766 215.31 289.444 213.882 289.444 212.73C289.444 212.13 289.258 211.644 288.886 211.272C288.526 210.888 288.028 210.696 287.392 210.696C286.84 210.696 286.354 210.876 285.934 211.236C285.526 211.584 285.262 212.076 285.142 212.712L283.918 212.208C284.062 211.308 284.464 210.594 285.124 210.066C285.796 209.526 286.594 209.256 287.518 209.256C288.622 209.256 289.474 209.574 290.074 210.21C290.674 210.846 290.974 211.59 290.974 212.442C290.974 214.062 290.2 215.784 288.652 217.608C287.956 218.424 287.398 219.036 286.978 219.444C286.618 219.804 286.186 220.206 285.682 220.65H291.496V222ZM293.464 221.172C293.464 220.884 293.554 220.656 293.734 220.488C293.914 220.308 294.166 220.218 294.49 220.218C294.874 220.218 295.186 220.38 295.426 220.704C295.666 221.016 295.786 221.436 295.786 221.964C295.786 222.612 295.606 223.17 295.246 223.638C294.898 224.118 294.418 224.448 293.806 224.628L293.41 223.944C294.034 223.752 294.418 223.35 294.562 222.738C294.646 222.33 294.64 222.03 294.544 221.838C294.472 221.946 294.34 222 294.148 222C293.968 222 293.806 221.922 293.662 221.766C293.53 221.598 293.464 221.4 293.464 221.172ZM298.282 215.736L299.074 209.4H304.762V210.84H300.334L299.866 214.242C300.154 214.158 300.49 214.116 300.874 214.116C302.038 214.116 302.992 214.476 303.736 215.196C304.48 215.904 304.852 216.846 304.852 218.022C304.852 219.282 304.456 220.29 303.664 221.046C302.872 221.802 301.9 222.18 300.748 222.18C300.004 222.18 299.302 222.012 298.642 221.676C297.982 221.34 297.478 220.872 297.13 220.272L297.958 219.21C298.246 219.678 298.648 220.05 299.164 220.326C299.692 220.602 300.232 220.74 300.784 220.74C301.504 220.74 302.104 220.488 302.584 219.984C303.076 219.468 303.322 218.832 303.322 218.076C303.322 217.308 303.04 216.672 302.476 216.168C301.924 215.664 301.186 215.412 300.262 215.412C299.506 215.412 298.846 215.52 298.282 215.736ZM307.563 215.736L308.355 209.4H314.043V210.84H309.615L309.147 214.242C309.435 214.158 309.771 214.116 310.155 214.116C311.319 214.116 312.273 214.476 313.017 215.196C313.761 215.904 314.133 216.846 314.133 218.022C314.133 219.282 313.737 220.29 312.945 221.046C312.153 221.802 311.181 222.18 310.029 222.18C309.285 222.18 308.583 222.012 307.923 221.676C307.263 221.34 306.759 220.872 306.411 220.272L307.239 219.21C307.527 219.678 307.929 220.05 308.445 220.326C308.973 220.602 309.513 220.74 310.065 220.74C310.785 220.74 311.385 220.488 311.865 219.984C312.357 219.468 312.603 218.832 312.603 218.076C312.603 217.308 312.321 216.672 311.757 216.168C311.205 215.664 310.467 215.412 309.543 215.412C308.787 215.412 308.127 215.52 307.563 215.736ZM316.809 214.548C316.185 213.972 315.873 213.234 315.873 212.334C315.873 211.434 316.179 210.702 316.791 210.138C317.427 209.574 318.219 209.292 319.167 209.292C320.115 209.292 320.901 209.574 321.525 210.138C322.149 210.69 322.461 211.422 322.461 212.334C322.461 213.234 322.149 213.972 321.525 214.548C320.889 215.112 320.103 215.394 319.167 215.394C318.231 215.394 317.445 215.112 316.809 214.548ZM317.223 212.334C317.223 212.886 317.409 213.342 317.781 213.702C318.165 214.05 318.627 214.224 319.167 214.224C319.719 214.224 320.181 214.05 320.553 213.702C320.925 213.342 321.111 212.886 321.111 212.334C321.111 211.794 320.925 211.35 320.553 211.002C320.181 210.642 319.719 210.462 319.167 210.462C318.615 210.462 318.153 210.642 317.781 211.002C317.409 211.35 317.223 211.794 317.223 212.334ZM324.387 221.262C323.763 220.686 323.451 219.948 323.451 219.048C323.451 218.148 323.757 217.416 324.369 216.852C325.005 216.288 325.797 216.006 326.745 216.006C327.693 216.006 328.479 216.288 329.103 216.852C329.727 217.404 330.039 218.136 330.039 219.048C330.039 219.948 329.727 220.686 329.103 221.262C328.467 221.826 327.681 222.108 326.745 222.108C325.809 222.108 325.023 221.826 324.387 221.262ZM324.801 219.048C324.801 219.6 324.987 220.056 325.359 220.416C325.743 220.764 326.205 220.938 326.745 220.938C327.297 220.938 327.759 220.764 328.131 220.416C328.503 220.056 328.689 219.6 328.689 219.048C328.689 218.508 328.503 218.064 328.131 217.716C327.759 217.356 327.297 217.176 326.745 217.176C326.193 217.176 325.731 217.356 325.359 217.716C324.987 218.064 324.801 218.508 324.801 219.048ZM318.771 222.18L317.925 221.586L327.177 209.22L328.005 209.832L318.771 222.18Z" fill="#FE5000"/>
<rect x="44" y="76" width="4" height="187" fill="#7F94A8"/>
<rect x="124" y="132" width="4" height="131" fill="#7F94A8"/>
<rect x="213" y="188" width="4" height="75" fill="#7F94A8"/>
<rect x="305" y="240" width="4" height="23" fill="#7F94A8"/>
</svg>
