<svg width="127" height="127" viewBox="0 0 127 127" fill="none" xmlns="http://www.w3.org/2000/svg">
  <circle cx="63.5" cy="63.5" r="62.5" fill="white" stroke="#7F94A8"></circle>
  <path d="M55.0494 52.5157C49.3329 52.5157 44.6992 57.1494 44.6992 62.8654C44.6992 68.5814 49.3329 73.2155 55.0489 73.2155C60.7654 73.2155 65.399 68.5814 65.399 62.8654C65.3924 57.152 60.7623 52.5223 55.0494 52.5157ZM55.0494 71.1367C50.4812 71.1372 46.7776 67.4336 46.7776 62.8654C46.7776 58.2972 50.4807 54.5941 55.0489 54.5941C59.6171 54.5941 63.3207 58.2972 63.3207 62.8654C63.3151 67.4311 59.6151 71.1311 55.0494 71.1362V71.1367Z" fill="#7F94A8"></path>
  <path d="M58.4235 59.2927C57.2854 58.4261 56.0164 58.0085 54.7499 58.0871C52.3412 58.2378 50.4217 60.1579 50.271 62.5666C50.1928 63.8315 50.6099 65.1016 51.4766 66.2397C51.5329 66.3143 51.5994 66.3802 51.6735 66.4371C52.7218 67.2352 53.8817 67.6518 55.0467 67.6518C55.1467 67.6518 55.2472 67.6488 55.3471 67.6427C57.7558 67.492 59.6753 65.5719 59.8265 63.1638C59.9042 61.8983 59.4876 60.6282 58.6204 59.4901C58.5641 59.4155 58.4976 59.3496 58.4235 59.2927ZM56.9637 64.7799C56.1772 65.5669 54.689 66.0469 53.046 64.8672C51.8663 63.2247 52.3468 61.7369 53.1333 60.9499C53.9198 60.1629 55.4075 59.6829 57.051 60.8627C58.2307 62.5046 57.7507 63.9934 56.9637 64.7799Z" fill="#7F94A8"></path>
  <path d="M94.2045 57.5168C94.7784 57.5168 95.1787 57.0738 95.1787 56.4999V51.0443C95.1787 50.4704 94.7784 49.9827 94.2045 49.9827H93.4901V44.6123C93.4901 41.5582 91.1636 39.0714 88.2236 39.0714H37.575C34.6351 39.0714 32.1787 41.5582 32.1787 44.6123V81.1174C32.1787 84.1715 34.6351 86.6137 37.575 86.6137H38.6736V89.4714C38.6736 90.0453 39.1389 90.5106 39.7127 90.5106H52.7024C53.2763 90.5106 53.7416 90.0453 53.7416 89.4714V86.6137H72.4468V89.4714C72.4468 90.0453 72.912 90.5106 73.4859 90.5106H86.4756C87.0495 90.5106 87.5148 90.0453 87.5148 89.4714V86.6137H88.2236C91.1636 86.6137 93.4901 84.1715 93.4901 81.1174V75.7023H94.2045C94.7784 75.7023 95.1787 75.2594 95.1787 74.6855V69.2298C95.1787 68.6559 94.7784 68.1683 94.2045 68.1683H93.4901V57.5168H94.2045ZM93.1004 70.2467V73.624H86.2158V70.2467H93.1004ZM85.1767 68.1683C84.5982 68.179 84.136 68.6514 84.1375 69.2298V74.6855C84.1385 74.959 84.2491 75.2203 84.444 75.4116C84.6393 75.6024 84.9032 75.7074 85.1767 75.7023H85.6962V77.3671C85.6962 78.0349 85.2568 78.5601 84.6469 78.5601H41.1517C40.5413 78.5601 40.1024 78.0349 40.1024 77.3671V48.3626C40.1024 47.6948 40.5418 47.125 41.1517 47.125H84.6469C85.2573 47.125 85.6962 47.6948 85.6962 48.3626V49.9827H85.1767C84.5982 49.9934 84.136 50.4658 84.1375 51.0443V56.4999C84.1385 56.7734 84.2491 57.0347 84.444 57.226C84.6393 57.4168 84.9032 57.5218 85.1767 57.5168H85.6962V68.1683H85.1767ZM86.2158 55.4384V52.0611H93.1004V55.4384H86.2158ZM51.6632 88.4322H40.7519V86.6137H51.6632V88.4322ZM85.4364 88.4322H74.5251V86.6137H85.4364V88.4322ZM91.4117 81.1174C91.4117 83.0258 90.0173 84.5353 88.2236 84.5353H37.575C35.7813 84.5353 34.2571 83.0258 34.2571 81.1174V44.6123C34.2571 42.704 35.7813 41.1498 37.575 41.1498H88.2236C90.0173 41.1498 91.4117 42.704 91.4117 44.6123V49.9827H87.7746V48.3626C87.7746 46.5486 86.4031 45.0467 84.6469 45.0467H41.1517C39.3956 45.0467 38.0241 46.5486 38.0241 48.3626V77.3671C38.0241 79.1811 39.3956 80.6384 41.1517 80.6384H84.6469C86.4031 80.6384 87.7746 79.1811 87.7746 77.3671V75.7023H91.4117V81.1174ZM91.4117 68.1683H87.7746V57.5168H91.4117V68.1683Z" fill="#7F94A8"></path>
</svg>
