<svg width="520" height="310" viewBox="0 0 520 310" fill="none" xmlns="http://www.w3.org/2000/svg">
<rect width="520" height="310" fill="#F8F8F8"/>
<path d="M40 264H480" stroke="#7F94A8" stroke-dasharray="2 2"/>
<path d="M67.386 48.838L66.63 47.668L69.654 45.328H70.662V58H69.222V47.398L67.386 48.838ZM81.9823 51.7C81.9823 53.74 81.6403 55.324 80.9563 56.452C80.2843 57.58 79.2763 58.144 77.9323 58.144C76.5763 58.144 75.5443 57.568 74.8363 56.416C74.1523 55.252 73.8103 53.68 73.8103 51.7C73.8103 49.732 74.1463 48.166 74.8183 47.002C75.5023 45.838 76.5283 45.256 77.8963 45.256C79.2763 45.256 80.2963 45.838 80.9563 47.002C81.6403 48.154 81.9823 49.72 81.9823 51.7ZM77.9323 56.794C78.8083 56.794 79.4443 56.374 79.8403 55.534C80.2483 54.694 80.4523 53.416 80.4523 51.7C80.4523 49.996 80.2423 48.724 79.8223 47.884C79.4143 47.032 78.7723 46.606 77.8963 46.606C76.1923 46.606 75.3403 48.304 75.3403 51.7C75.3403 55.096 76.2043 56.794 77.9323 56.794ZM83.9525 57.172C83.9525 56.884 84.0425 56.656 84.2225 56.488C84.4025 56.308 84.6545 56.218 84.9785 56.218C85.3625 56.218 85.6745 56.38 85.9145 56.704C86.1545 57.016 86.2745 57.436 86.2745 57.964C86.2745 58.612 86.0945 59.17 85.7345 59.638C85.3865 60.118 84.9065 60.448 84.2945 60.628L83.8985 59.944C84.5225 59.752 84.9065 59.35 85.0505 58.738C85.1345 58.33 85.1285 58.03 85.0325 57.838C84.9605 57.946 84.8285 58 84.6365 58C84.4565 58 84.2945 57.922 84.1505 57.766C84.0185 57.598 83.9525 57.4 83.9525 57.172ZM92.1183 50.8H92.5863C93.1263 50.8 93.5943 50.596 93.9903 50.188C94.3983 49.78 94.6023 49.294 94.6023 48.73C94.6023 48.106 94.3863 47.608 93.9543 47.236C93.5223 46.852 92.9763 46.66 92.3163 46.66C91.6683 46.66 91.1343 46.852 90.7143 47.236C90.2943 47.62 90.0843 48.118 90.0843 48.73C90.0843 49.294 90.2883 49.78 90.6963 50.188C91.1043 50.596 91.5783 50.8 92.1183 50.8ZM92.5683 52.24H92.1723C91.4883 52.24 90.9003 52.45 90.4083 52.87C89.9283 53.278 89.6883 53.812 89.6883 54.472C89.6883 55.132 89.9343 55.678 90.4263 56.11C90.9303 56.53 91.5663 56.74 92.3343 56.74C93.1383 56.74 93.7803 56.536 94.2603 56.128C94.7523 55.708 94.9983 55.156 94.9983 54.472C94.9863 53.8 94.7523 53.26 94.2963 52.852C93.8403 52.444 93.2643 52.24 92.5683 52.24ZM88.1583 54.742C88.1583 53.986 88.3743 53.32 88.8063 52.744C89.2383 52.156 89.8143 51.76 90.5343 51.556V51.502C89.9583 51.31 89.4843 50.938 89.1123 50.386C88.7403 49.822 88.5543 49.198 88.5543 48.514C88.5543 47.542 88.9143 46.75 89.6343 46.138C90.3663 45.526 91.2663 45.22 92.3343 45.22C93.4023 45.22 94.3023 45.526 95.0343 46.138C95.7663 46.75 96.1323 47.542 96.1323 48.514C96.1323 49.15 95.9403 49.744 95.5563 50.296C95.1843 50.836 94.6863 51.232 94.0623 51.484V51.538C94.7823 51.658 95.3703 52.006 95.8263 52.582C96.2943 53.146 96.5283 53.83 96.5283 54.634C96.5283 55.738 96.1263 56.602 95.3223 57.226C94.5063 57.862 93.5163 58.18 92.3523 58.18C91.1643 58.18 90.1683 57.868 89.3643 57.244C88.5603 56.62 88.1583 55.786 88.1583 54.742ZM99.4394 50.548C98.8154 49.972 98.5034 49.234 98.5034 48.334C98.5034 47.434 98.8094 46.702 99.4214 46.138C100.057 45.574 100.849 45.292 101.797 45.292C102.745 45.292 103.531 45.574 104.155 46.138C104.779 46.69 105.091 47.422 105.091 48.334C105.091 49.234 104.779 49.972 104.155 50.548C103.519 51.112 102.733 51.394 101.797 51.394C100.861 51.394 100.075 51.112 99.4394 50.548ZM99.8534 48.334C99.8534 48.886 100.039 49.342 100.411 49.702C100.795 50.05 101.257 50.224 101.797 50.224C102.349 50.224 102.811 50.05 103.183 49.702C103.555 49.342 103.741 48.886 103.741 48.334C103.741 47.794 103.555 47.35 103.183 47.002C102.811 46.642 102.349 46.462 101.797 46.462C101.245 46.462 100.783 46.642 100.411 47.002C100.039 47.35 99.8534 47.794 99.8534 48.334ZM107.017 57.262C106.393 56.686 106.081 55.948 106.081 55.048C106.081 54.148 106.387 53.416 106.999 52.852C107.635 52.288 108.427 52.006 109.375 52.006C110.323 52.006 111.109 52.288 111.733 52.852C112.357 53.404 112.669 54.136 112.669 55.048C112.669 55.948 112.357 56.686 111.733 57.262C111.097 57.826 110.311 58.108 109.375 58.108C108.439 58.108 107.653 57.826 107.017 57.262ZM107.431 55.048C107.431 55.6 107.617 56.056 107.989 56.416C108.373 56.764 108.835 56.938 109.375 56.938C109.927 56.938 110.389 56.764 110.761 56.416C111.133 56.056 111.319 55.6 111.319 55.048C111.319 54.508 111.133 54.064 110.761 53.716C110.389 53.356 109.927 53.176 109.375 53.176C108.823 53.176 108.361 53.356 107.989 53.716C107.617 54.064 107.431 54.508 107.431 55.048ZM101.401 58.18L100.555 57.586L109.807 45.22L110.635 45.832L101.401 58.18ZM120.892 45.238C121.156 45.238 121.378 45.334 121.558 45.526C121.75 45.706 121.846 45.922 121.846 46.174C121.846 46.438 121.756 46.66 121.576 46.84C121.396 47.008 121.168 47.092 120.892 47.092C120.64 47.092 120.424 47.002 120.244 46.822C120.064 46.642 119.974 46.426 119.974 46.174C119.974 45.922 120.064 45.706 120.244 45.526C120.436 45.334 120.652 45.238 120.892 45.238ZM119.938 51.25C119.938 50.986 120.028 50.758 120.208 50.566C120.4 50.374 120.622 50.278 120.874 50.278C121.126 50.278 121.348 50.374 121.54 50.566C121.732 50.758 121.828 50.986 121.828 51.25C121.828 51.49 121.732 51.706 121.54 51.898C121.348 52.09 121.126 52.186 120.874 52.186C120.634 52.186 120.418 52.09 120.226 51.898C120.034 51.706 119.938 51.49 119.938 51.25ZM122.062 47.488C122.062 47.224 122.146 47.002 122.314 46.822C122.494 46.63 122.71 46.534 122.962 46.534C123.226 46.534 123.448 46.63 123.628 46.822C123.82 47.002 123.916 47.224 123.916 47.488C123.916 47.74 123.82 47.962 123.628 48.154C123.448 48.334 123.226 48.424 122.962 48.424C122.71 48.424 122.494 48.334 122.314 48.154C122.146 47.962 122.062 47.74 122.062 47.488ZM122.962 48.946C123.226 48.946 123.448 49.036 123.628 49.216C123.82 49.396 123.916 49.618 123.916 49.882C123.916 50.146 123.82 50.374 123.628 50.566C123.448 50.746 123.226 50.836 122.962 50.836C122.71 50.836 122.494 50.746 122.314 50.566C122.146 50.374 122.062 50.146 122.062 49.882C122.062 49.618 122.146 49.396 122.314 49.216C122.494 49.036 122.71 48.946 122.962 48.946ZM118.768 48.946C119.032 48.946 119.254 49.036 119.434 49.216C119.614 49.396 119.704 49.618 119.704 49.882C119.704 50.146 119.614 50.374 119.434 50.566C119.254 50.746 119.032 50.836 118.768 50.836C118.516 50.836 118.3 50.746 118.12 50.566C117.94 50.374 117.85 50.146 117.85 49.882C117.85 49.618 117.94 49.396 118.12 49.216C118.3 49.036 118.516 48.946 118.768 48.946ZM117.85 47.488C117.85 47.224 117.94 47.002 118.12 46.822C118.3 46.63 118.516 46.534 118.768 46.534C119.032 46.534 119.254 46.63 119.434 46.822C119.614 47.002 119.704 47.224 119.704 47.488C119.704 47.74 119.614 47.962 119.434 48.154C119.254 48.334 119.032 48.424 118.768 48.424C118.516 48.424 118.3 48.334 118.12 48.154C117.94 47.962 117.85 47.74 117.85 47.488Z" fill="#FE5000"/>
<path d="M99.162 285.7C99.162 287.74 98.82 289.324 98.136 290.452C97.464 291.58 96.456 292.144 95.112 292.144C93.756 292.144 92.724 291.568 92.016 290.416C91.332 289.252 90.99 287.68 90.99 285.7C90.99 283.732 91.326 282.166 91.998 281.002C92.682 279.838 93.708 279.256 95.076 279.256C96.456 279.256 97.476 279.838 98.136 281.002C98.82 282.154 99.162 283.72 99.162 285.7ZM95.112 290.794C95.988 290.794 96.624 290.374 97.02 289.534C97.428 288.694 97.632 287.416 97.632 285.7C97.632 283.996 97.422 282.724 97.002 281.884C96.594 281.032 95.952 280.606 95.076 280.606C93.372 280.606 92.52 282.304 92.52 285.7C92.52 289.096 93.384 290.794 95.112 290.794Z" fill="#999999"/>
<path d="M187.782 285.736L188.574 279.4H194.262V280.84H189.834L189.366 284.242C189.654 284.158 189.99 284.116 190.374 284.116C191.538 284.116 192.492 284.476 193.236 285.196C193.98 285.904 194.352 286.846 194.352 288.022C194.352 289.282 193.956 290.29 193.164 291.046C192.372 291.802 191.4 292.18 190.248 292.18C189.504 292.18 188.802 292.012 188.142 291.676C187.482 291.34 186.978 290.872 186.63 290.272L187.458 289.21C187.746 289.678 188.148 290.05 188.664 290.326C189.192 290.602 189.732 290.74 190.284 290.74C191.004 290.74 191.604 290.488 192.084 289.984C192.576 289.468 192.822 288.832 192.822 288.076C192.822 287.308 192.54 286.672 191.976 286.168C191.424 285.664 190.686 285.412 189.762 285.412C189.006 285.412 188.346 285.52 187.782 285.736ZM204.443 285.7C204.443 287.74 204.101 289.324 203.417 290.452C202.745 291.58 201.737 292.144 200.393 292.144C199.037 292.144 198.005 291.568 197.297 290.416C196.613 289.252 196.271 287.68 196.271 285.7C196.271 283.732 196.607 282.166 197.279 281.002C197.963 279.838 198.989 279.256 200.357 279.256C201.737 279.256 202.757 279.838 203.417 281.002C204.101 282.154 204.443 283.72 204.443 285.7ZM200.393 290.794C201.269 290.794 201.905 290.374 202.301 289.534C202.709 288.694 202.913 287.416 202.913 285.7C202.913 283.996 202.703 282.724 202.283 281.884C201.875 281.032 201.233 280.606 200.357 280.606C198.653 280.606 197.801 282.304 197.801 285.7C197.801 289.096 198.665 290.794 200.393 290.794Z" fill="#999999"/>
<path d="M292.386 282.838L291.63 281.668L294.654 279.328H295.662V292H294.222V281.398L292.386 282.838ZM306.982 285.7C306.982 287.74 306.64 289.324 305.956 290.452C305.284 291.58 304.276 292.144 302.932 292.144C301.576 292.144 300.544 291.568 299.836 290.416C299.152 289.252 298.81 287.68 298.81 285.7C298.81 283.732 299.146 282.166 299.818 281.002C300.502 279.838 301.528 279.256 302.896 279.256C304.276 279.256 305.296 279.838 305.956 281.002C306.64 282.154 306.982 283.72 306.982 285.7ZM302.932 290.794C303.808 290.794 304.444 290.374 304.84 289.534C305.248 288.694 305.452 287.416 305.452 285.7C305.452 283.996 305.242 282.724 304.822 281.884C304.414 281.032 303.772 280.606 302.896 280.606C301.192 280.606 300.34 282.304 300.34 285.7C300.34 289.096 301.204 290.794 302.932 290.794ZM317.142 285.7C317.142 287.74 316.8 289.324 316.116 290.452C315.444 291.58 314.436 292.144 313.092 292.144C311.736 292.144 310.704 291.568 309.996 290.416C309.312 289.252 308.97 287.68 308.97 285.7C308.97 283.732 309.306 282.166 309.978 281.002C310.662 279.838 311.688 279.256 313.056 279.256C314.436 279.256 315.456 279.838 316.116 281.002C316.8 282.154 317.142 283.72 317.142 285.7ZM313.092 290.794C313.968 290.794 314.604 290.374 315 289.534C315.408 288.694 315.612 287.416 315.612 285.7C315.612 283.996 315.402 282.724 314.982 281.884C314.574 281.032 313.932 280.606 313.056 280.606C311.352 280.606 310.5 282.304 310.5 285.7C310.5 289.096 311.364 290.794 313.092 290.794Z" fill="#999999"/>
<path d="M404.386 282.838L403.63 281.668L406.654 279.328H407.662V292H406.222V281.398L404.386 282.838ZM411.602 285.736L412.394 279.4H418.082V280.84H413.654L413.186 284.242C413.474 284.158 413.81 284.116 414.194 284.116C415.358 284.116 416.312 284.476 417.056 285.196C417.8 285.904 418.172 286.846 418.172 288.022C418.172 289.282 417.776 290.29 416.984 291.046C416.192 291.802 415.22 292.18 414.068 292.18C413.324 292.18 412.622 292.012 411.962 291.676C411.302 291.34 410.798 290.872 410.45 290.272L411.278 289.21C411.566 289.678 411.968 290.05 412.484 290.326C413.012 290.602 413.552 290.74 414.104 290.74C414.824 290.74 415.424 290.488 415.904 289.984C416.396 289.468 416.642 288.832 416.642 288.076C416.642 287.308 416.36 286.672 415.796 286.168C415.244 285.664 414.506 285.412 413.582 285.412C412.826 285.412 412.166 285.52 411.602 285.736ZM428.264 285.7C428.264 287.74 427.922 289.324 427.238 290.452C426.566 291.58 425.558 292.144 424.214 292.144C422.858 292.144 421.826 291.568 421.118 290.416C420.434 289.252 420.092 287.68 420.092 285.7C420.092 283.732 420.428 282.166 421.1 281.002C421.784 279.838 422.81 279.256 424.178 279.256C425.558 279.256 426.578 279.838 427.238 281.002C427.922 282.154 428.264 283.72 428.264 285.7ZM424.214 290.794C425.09 290.794 425.726 290.374 426.122 289.534C426.53 288.694 426.734 287.416 426.734 285.7C426.734 283.996 426.524 282.724 426.104 281.884C425.696 281.032 425.054 280.606 424.178 280.606C422.474 280.606 421.622 282.304 421.622 285.7C421.622 289.096 422.486 290.794 424.214 290.794Z" fill="#999999"/>
<path d="M176.13 106.8H176.598C177.138 106.8 177.606 106.596 178.002 106.188C178.41 105.78 178.614 105.294 178.614 104.73C178.614 104.106 178.398 103.608 177.966 103.236C177.534 102.852 176.988 102.66 176.328 102.66C175.68 102.66 175.146 102.852 174.726 103.236C174.306 103.62 174.096 104.118 174.096 104.73C174.096 105.294 174.3 105.78 174.708 106.188C175.116 106.596 175.59 106.8 176.13 106.8ZM176.58 108.24H176.184C175.5 108.24 174.912 108.45 174.42 108.87C173.94 109.278 173.7 109.812 173.7 110.472C173.7 111.132 173.946 111.678 174.438 112.11C174.942 112.53 175.578 112.74 176.346 112.74C177.15 112.74 177.792 112.536 178.272 112.128C178.764 111.708 179.01 111.156 179.01 110.472C178.998 109.8 178.764 109.26 178.308 108.852C177.852 108.444 177.276 108.24 176.58 108.24ZM172.17 110.742C172.17 109.986 172.386 109.32 172.818 108.744C173.25 108.156 173.826 107.76 174.546 107.556V107.502C173.97 107.31 173.496 106.938 173.124 106.386C172.752 105.822 172.566 105.198 172.566 104.514C172.566 103.542 172.926 102.75 173.646 102.138C174.378 101.526 175.278 101.22 176.346 101.22C177.414 101.22 178.314 101.526 179.046 102.138C179.778 102.75 180.144 103.542 180.144 104.514C180.144 105.15 179.952 105.744 179.568 106.296C179.196 106.836 178.698 107.232 178.074 107.484V107.538C178.794 107.658 179.382 108.006 179.838 108.582C180.306 109.146 180.54 109.83 180.54 110.634C180.54 111.738 180.138 112.602 179.334 113.226C178.518 113.862 177.528 114.18 176.364 114.18C175.176 114.18 174.18 113.868 173.376 113.244C172.572 112.62 172.17 111.786 172.17 110.742ZM182.677 113.172C182.677 112.884 182.767 112.656 182.947 112.488C183.127 112.308 183.379 112.218 183.703 112.218C184.087 112.218 184.399 112.38 184.639 112.704C184.879 113.016 184.999 113.436 184.999 113.964C184.999 114.612 184.819 115.17 184.459 115.638C184.111 116.118 183.631 116.448 183.019 116.628L182.623 115.944C183.247 115.752 183.631 115.35 183.775 114.738C183.859 114.33 183.853 114.03 183.757 113.838C183.685 113.946 183.553 114 183.361 114C183.181 114 183.019 113.922 182.875 113.766C182.743 113.598 182.677 113.4 182.677 113.172ZM194.875 107.7C194.875 109.74 194.533 111.324 193.849 112.452C193.177 113.58 192.169 114.144 190.825 114.144C189.469 114.144 188.437 113.568 187.729 112.416C187.045 111.252 186.703 109.68 186.703 107.7C186.703 105.732 187.039 104.166 187.711 103.002C188.395 101.838 189.421 101.256 190.789 101.256C192.169 101.256 193.189 101.838 193.849 103.002C194.533 104.154 194.875 105.72 194.875 107.7ZM190.825 112.794C191.701 112.794 192.337 112.374 192.733 111.534C193.141 110.694 193.345 109.416 193.345 107.7C193.345 105.996 193.135 104.724 192.715 103.884C192.307 103.032 191.665 102.606 190.789 102.606C189.085 102.606 188.233 104.304 188.233 107.7C188.233 111.096 189.097 112.794 190.825 112.794ZM197.655 107.736L198.447 101.4H204.135V102.84H199.707L199.239 106.242C199.527 106.158 199.863 106.116 200.247 106.116C201.411 106.116 202.365 106.476 203.109 107.196C203.853 107.904 204.225 108.846 204.225 110.022C204.225 111.282 203.829 112.29 203.037 113.046C202.245 113.802 201.273 114.18 200.121 114.18C199.377 114.18 198.675 114.012 198.015 113.676C197.355 113.34 196.851 112.872 196.503 112.272L197.331 111.21C197.619 111.678 198.021 112.05 198.537 112.326C199.065 112.602 199.605 112.74 200.157 112.74C200.877 112.74 201.477 112.488 201.957 111.984C202.449 111.468 202.695 110.832 202.695 110.076C202.695 109.308 202.413 108.672 201.849 108.168C201.297 107.664 200.559 107.412 199.635 107.412C198.879 107.412 198.219 107.52 197.655 107.736ZM206.9 106.548C206.276 105.972 205.964 105.234 205.964 104.334C205.964 103.434 206.27 102.702 206.882 102.138C207.518 101.574 208.31 101.292 209.258 101.292C210.206 101.292 210.992 101.574 211.616 102.138C212.24 102.69 212.552 103.422 212.552 104.334C212.552 105.234 212.24 105.972 211.616 106.548C210.98 107.112 210.194 107.394 209.258 107.394C208.322 107.394 207.536 107.112 206.9 106.548ZM207.314 104.334C207.314 104.886 207.5 105.342 207.872 105.702C208.256 106.05 208.718 106.224 209.258 106.224C209.81 106.224 210.272 106.05 210.644 105.702C211.016 105.342 211.202 104.886 211.202 104.334C211.202 103.794 211.016 103.35 210.644 103.002C210.272 102.642 209.81 102.462 209.258 102.462C208.706 102.462 208.244 102.642 207.872 103.002C207.5 103.35 207.314 103.794 207.314 104.334ZM214.478 113.262C213.854 112.686 213.542 111.948 213.542 111.048C213.542 110.148 213.848 109.416 214.46 108.852C215.096 108.288 215.888 108.006 216.836 108.006C217.784 108.006 218.57 108.288 219.194 108.852C219.818 109.404 220.13 110.136 220.13 111.048C220.13 111.948 219.818 112.686 219.194 113.262C218.558 113.826 217.772 114.108 216.836 114.108C215.9 114.108 215.114 113.826 214.478 113.262ZM214.892 111.048C214.892 111.6 215.078 112.056 215.45 112.416C215.834 112.764 216.296 112.938 216.836 112.938C217.388 112.938 217.85 112.764 218.222 112.416C218.594 112.056 218.78 111.6 218.78 111.048C218.78 110.508 218.594 110.064 218.222 109.716C217.85 109.356 217.388 109.176 216.836 109.176C216.284 109.176 215.822 109.356 215.45 109.716C215.078 110.064 214.892 110.508 214.892 111.048ZM208.862 114.18L208.016 113.586L217.268 101.22L218.096 101.832L208.862 114.18Z" fill="#FE5000"/>
<path d="M286.782 163.736L287.574 157.4H293.262V158.84H288.834L288.366 162.242C288.654 162.158 288.99 162.116 289.374 162.116C290.538 162.116 291.492 162.476 292.236 163.196C292.98 163.904 293.352 164.846 293.352 166.022C293.352 167.282 292.956 168.29 292.164 169.046C291.372 169.802 290.4 170.18 289.248 170.18C288.504 170.18 287.802 170.012 287.142 169.676C286.482 169.34 285.978 168.872 285.63 168.272L286.458 167.21C286.746 167.678 287.148 168.05 287.664 168.326C288.192 168.602 288.732 168.74 289.284 168.74C290.004 168.74 290.604 168.488 291.084 167.984C291.576 167.468 291.822 166.832 291.822 166.076C291.822 165.308 291.54 164.672 290.976 164.168C290.424 163.664 289.686 163.412 288.762 163.412C288.006 163.412 287.346 163.52 286.782 163.736ZM295.253 169.172C295.253 168.884 295.343 168.656 295.523 168.488C295.703 168.308 295.955 168.218 296.279 168.218C296.663 168.218 296.975 168.38 297.215 168.704C297.455 169.016 297.575 169.436 297.575 169.964C297.575 170.612 297.395 171.17 297.035 171.638C296.687 172.118 296.207 172.448 295.595 172.628L295.199 171.944C295.823 171.752 296.207 171.35 296.351 170.738C296.435 170.33 296.429 170.03 296.333 169.838C296.261 169.946 296.129 170 295.937 170C295.757 170 295.595 169.922 295.451 169.766C295.319 169.598 295.253 169.4 295.253 169.172ZM302.735 170.18C301.847 170.18 301.067 169.994 300.395 169.622C299.735 169.25 299.243 168.716 298.919 168.02L299.747 166.994C300.035 167.546 300.443 167.978 300.971 168.29C301.499 168.59 302.069 168.74 302.681 168.74C303.437 168.74 304.037 168.53 304.481 168.11C304.937 167.69 305.165 167.144 305.165 166.472C305.165 165.8 304.925 165.266 304.445 164.87C303.977 164.474 303.359 164.276 302.591 164.276H301.601V162.836H302.501C303.089 162.836 303.593 162.632 304.013 162.224C304.457 161.816 304.679 161.294 304.679 160.658C304.679 160.034 304.493 159.548 304.121 159.2C303.761 158.84 303.263 158.66 302.627 158.66C301.487 158.66 300.623 159.182 300.035 160.226L299.225 159.236C299.513 158.6 299.963 158.108 300.575 157.76C301.199 157.4 301.919 157.22 302.735 157.22C303.791 157.22 304.631 157.508 305.255 158.084C305.891 158.66 306.209 159.434 306.209 160.406C306.209 161.102 306.041 161.714 305.705 162.242C305.369 162.77 304.883 163.166 304.247 163.43V163.484C304.991 163.604 305.585 163.946 306.029 164.51C306.473 165.074 306.695 165.746 306.695 166.526C306.695 167.63 306.323 168.518 305.579 169.19C304.847 169.85 303.899 170.18 302.735 170.18ZM309.615 162.548C308.991 161.972 308.679 161.234 308.679 160.334C308.679 159.434 308.985 158.702 309.597 158.138C310.233 157.574 311.025 157.292 311.973 157.292C312.921 157.292 313.707 157.574 314.331 158.138C314.955 158.69 315.267 159.422 315.267 160.334C315.267 161.234 314.955 161.972 314.331 162.548C313.695 163.112 312.909 163.394 311.973 163.394C311.037 163.394 310.251 163.112 309.615 162.548ZM310.029 160.334C310.029 160.886 310.215 161.342 310.587 161.702C310.971 162.05 311.433 162.224 311.973 162.224C312.525 162.224 312.987 162.05 313.359 161.702C313.731 161.342 313.917 160.886 313.917 160.334C313.917 159.794 313.731 159.35 313.359 159.002C312.987 158.642 312.525 158.462 311.973 158.462C311.421 158.462 310.959 158.642 310.587 159.002C310.215 159.35 310.029 159.794 310.029 160.334ZM317.193 169.262C316.569 168.686 316.257 167.948 316.257 167.048C316.257 166.148 316.563 165.416 317.175 164.852C317.811 164.288 318.603 164.006 319.551 164.006C320.499 164.006 321.285 164.288 321.909 164.852C322.533 165.404 322.845 166.136 322.845 167.048C322.845 167.948 322.533 168.686 321.909 169.262C321.273 169.826 320.487 170.108 319.551 170.108C318.615 170.108 317.829 169.826 317.193 169.262ZM317.607 167.048C317.607 167.6 317.793 168.056 318.165 168.416C318.549 168.764 319.011 168.938 319.551 168.938C320.103 168.938 320.565 168.764 320.937 168.416C321.309 168.056 321.495 167.6 321.495 167.048C321.495 166.508 321.309 166.064 320.937 165.716C320.565 165.356 320.103 165.176 319.551 165.176C318.999 165.176 318.537 165.356 318.165 165.716C317.793 166.064 317.607 166.508 317.607 167.048ZM311.577 170.18L310.731 169.586L319.983 157.22L320.811 157.832L311.577 170.18Z" fill="#FE5000"/>
<path d="M401.496 222H393.81V220.83C395.442 219.234 396.642 217.962 397.41 217.014C398.766 215.31 399.444 213.882 399.444 212.73C399.444 212.13 399.258 211.644 398.886 211.272C398.526 210.888 398.028 210.696 397.392 210.696C396.84 210.696 396.354 210.876 395.934 211.236C395.526 211.584 395.262 212.076 395.142 212.712L393.918 212.208C394.062 211.308 394.464 210.594 395.124 210.066C395.796 209.526 396.594 209.256 397.518 209.256C398.622 209.256 399.474 209.574 400.074 210.21C400.674 210.846 400.974 211.59 400.974 212.442C400.974 214.062 400.2 215.784 398.652 217.608C397.956 218.424 397.398 219.036 396.978 219.444C396.618 219.804 396.186 220.206 395.682 220.65H401.496V222ZM403.464 221.172C403.464 220.884 403.554 220.656 403.734 220.488C403.914 220.308 404.166 220.218 404.49 220.218C404.874 220.218 405.186 220.38 405.426 220.704C405.666 221.016 405.786 221.436 405.786 221.964C405.786 222.612 405.606 223.17 405.246 223.638C404.898 224.118 404.418 224.448 403.806 224.628L403.41 223.944C404.034 223.752 404.418 223.35 404.562 222.738C404.646 222.33 404.64 222.03 404.544 221.838C404.472 221.946 404.34 222 404.148 222C403.968 222 403.806 221.922 403.662 221.766C403.53 221.598 403.464 221.4 403.464 221.172ZM408.282 215.736L409.074 209.4H414.762V210.84H410.334L409.866 214.242C410.154 214.158 410.49 214.116 410.874 214.116C412.038 214.116 412.992 214.476 413.736 215.196C414.48 215.904 414.852 216.846 414.852 218.022C414.852 219.282 414.456 220.29 413.664 221.046C412.872 221.802 411.9 222.18 410.748 222.18C410.004 222.18 409.302 222.012 408.642 221.676C407.982 221.34 407.478 220.872 407.13 220.272L407.958 219.21C408.246 219.678 408.648 220.05 409.164 220.326C409.692 220.602 410.232 220.74 410.784 220.74C411.504 220.74 412.104 220.488 412.584 219.984C413.076 219.468 413.322 218.832 413.322 218.076C413.322 217.308 413.04 216.672 412.476 216.168C411.924 215.664 411.186 215.412 410.262 215.412C409.506 215.412 408.846 215.52 408.282 215.736ZM417.563 215.736L418.355 209.4H424.043V210.84H419.615L419.147 214.242C419.435 214.158 419.771 214.116 420.155 214.116C421.319 214.116 422.273 214.476 423.017 215.196C423.761 215.904 424.133 216.846 424.133 218.022C424.133 219.282 423.737 220.29 422.945 221.046C422.153 221.802 421.181 222.18 420.029 222.18C419.285 222.18 418.583 222.012 417.923 221.676C417.263 221.34 416.759 220.872 416.411 220.272L417.239 219.21C417.527 219.678 417.929 220.05 418.445 220.326C418.973 220.602 419.513 220.74 420.065 220.74C420.785 220.74 421.385 220.488 421.865 219.984C422.357 219.468 422.603 218.832 422.603 218.076C422.603 217.308 422.321 216.672 421.757 216.168C421.205 215.664 420.467 215.412 419.543 215.412C418.787 215.412 418.127 215.52 417.563 215.736ZM426.809 214.548C426.185 213.972 425.873 213.234 425.873 212.334C425.873 211.434 426.179 210.702 426.791 210.138C427.427 209.574 428.219 209.292 429.167 209.292C430.115 209.292 430.901 209.574 431.525 210.138C432.149 210.69 432.461 211.422 432.461 212.334C432.461 213.234 432.149 213.972 431.525 214.548C430.889 215.112 430.103 215.394 429.167 215.394C428.231 215.394 427.445 215.112 426.809 214.548ZM427.223 212.334C427.223 212.886 427.409 213.342 427.781 213.702C428.165 214.05 428.627 214.224 429.167 214.224C429.719 214.224 430.181 214.05 430.553 213.702C430.925 213.342 431.111 212.886 431.111 212.334C431.111 211.794 430.925 211.35 430.553 211.002C430.181 210.642 429.719 210.462 429.167 210.462C428.615 210.462 428.153 210.642 427.781 211.002C427.409 211.35 427.223 211.794 427.223 212.334ZM434.387 221.262C433.763 220.686 433.451 219.948 433.451 219.048C433.451 218.148 433.757 217.416 434.369 216.852C435.005 216.288 435.797 216.006 436.745 216.006C437.693 216.006 438.479 216.288 439.103 216.852C439.727 217.404 440.039 218.136 440.039 219.048C440.039 219.948 439.727 220.686 439.103 221.262C438.467 221.826 437.681 222.108 436.745 222.108C435.809 222.108 435.023 221.826 434.387 221.262ZM434.801 219.048C434.801 219.6 434.987 220.056 435.359 220.416C435.743 220.764 436.205 220.938 436.745 220.938C437.297 220.938 437.759 220.764 438.131 220.416C438.503 220.056 438.689 219.6 438.689 219.048C438.689 218.508 438.503 218.064 438.131 217.716C437.759 217.356 437.297 217.176 436.745 217.176C436.193 217.176 435.731 217.356 435.359 217.716C434.987 218.064 434.801 218.508 434.801 219.048ZM428.771 222.18L427.925 221.586L437.177 209.22L438.005 209.832L428.771 222.18Z" fill="#FE5000"/>
<rect x="94" y="76" width="4" height="187" fill="#7F94A8"/>
<rect x="194" y="132" width="4" height="131" fill="#7F94A8"/>
<rect x="303" y="188" width="4" height="75" fill="#7F94A8"/>
<rect x="415" y="240" width="4" height="23" fill="#7F94A8"/>
</svg>
