<svg width="44" height="44" viewBox="0 0 44 44" fill="none" xmlns="http://www.w3.org/2000/svg">
<path fill-rule="evenodd" clip-rule="evenodd" d="M37.4199 12.7089C37.5734 12.7165 37.7241 12.7648 37.8554 12.8514L42.5578 15.9532C42.9585 16.2175 43.069 16.7565 42.8047 17.1571C42.5405 17.5577 42.0015 17.6682 41.6009 17.404L38.9643 15.6649C39.6737 17.6092 40.0605 19.7081 40.0605 21.8958C40.0605 31.9361 31.9212 40.0754 21.8809 40.0754C21.7491 40.0754 21.6242 40.046 21.5122 39.9935C21.4126 39.9909 21.3132 39.9874 21.2141 39.9832L21.223 39.7742C21.0915 39.6219 21.012 39.4234 21.012 39.2064C21.012 38.9626 21.1124 38.7422 21.2742 38.5844L21.2827 38.3846C21.3785 38.3887 21.4745 38.392 21.5707 38.3945C21.667 38.3577 21.7716 38.3375 21.8809 38.3375C30.9614 38.3375 38.3226 30.9763 38.3226 21.8958C38.3226 19.8437 37.947 17.8808 37.2612 16.0711L35.9737 19.1014C35.786 19.5431 35.2758 19.749 34.8341 19.5613C34.3924 19.3736 34.1865 18.8634 34.3742 18.4217L36.2818 13.932C36.1391 13.6799 35.9899 13.432 35.8344 13.1885L36.5087 12.758L37.183 12.3275C37.2635 12.4536 37.3425 12.5807 37.4199 12.7089ZM35.6469 11.5293L36.2812 11.0419C35.9619 10.6263 35.6248 10.2251 35.2711 9.83937L34.6815 10.38L34.0918 10.9206C34.4142 11.2723 34.7215 11.638 35.0125 12.0168L35.6469 11.5293ZM33.62 9.31854L34.1606 8.72886C33.7749 8.3752 33.3737 8.03814 32.9581 7.71881L32.4707 8.35314L31.9832 8.98748C32.362 9.27855 32.7277 9.58581 33.0794 9.90822L33.62 9.31854ZM31.242 7.49129L31.6725 6.81698C31.2321 6.53582 30.7786 6.2733 30.3132 6.03052L29.9432 6.73982L29.5732 7.44912C29.9971 7.67025 30.4102 7.90941 30.8115 8.1656L31.242 7.49129ZM28.5837 6.10483L28.8902 5.36585C28.4084 5.16608 27.9161 4.98663 27.4144 4.82856L27.174 5.5916L26.9336 6.35463C27.3904 6.49853 27.8387 6.66191 28.2773 6.84381L28.5837 6.10483ZM25.7252 5.20431L25.8976 4.42311C25.3898 4.31101 24.8739 4.22035 24.351 4.15214L24.2475 4.94542L24.144 5.7387C24.6205 5.80085 25.0903 5.88343 25.5527 5.9855L25.7252 5.20431ZM22.7173 5.61538L22.645 5.61243C22.499 5.72359 22.3167 5.78959 22.1191 5.78959C13.0386 5.78959 5.67745 13.1508 5.67745 22.2312C5.67745 23.9698 5.94701 25.6443 6.44639 27.2159C6.53932 27.4931 6.63946 27.7671 6.7466 28.0375L8.0263 25.0257C8.21397 24.584 8.72418 24.3781 9.16588 24.5657C9.60758 24.7534 9.81351 25.2636 9.62583 25.7053L7.74907 30.1223C7.88239 30.3557 8.02129 30.5855 8.1656 30.8115L7.49129 31.242L6.81698 31.6725C6.76324 31.5883 6.71017 31.5036 6.65779 31.4185C6.4778 31.4257 6.29804 31.3768 6.14464 31.2756L1.44216 28.1738C1.04155 27.9096 0.931002 27.3706 1.19525 26.97C1.4595 26.5694 1.99848 26.4588 2.39909 26.7231L5.03567 28.4622C4.32633 26.5178 3.93952 24.419 3.93952 22.2312C3.93952 20.2609 4.25297 18.3637 4.83274 16.587L4.82856 16.5856C4.98663 16.0839 5.16608 15.5916 5.36585 15.1098L5.38408 15.1174C5.58955 14.6346 5.8153 14.1626 6.06026 13.7023L6.03052 13.6868C6.2733 13.2214 6.53582 12.7679 6.81698 12.3275L6.85548 12.3521C7.14003 11.9133 7.443 11.4876 7.76327 11.0761L7.71881 11.0419C8.03814 10.6263 8.3752 10.2251 8.72887 9.83937L8.77654 9.88309C9.13101 9.50025 9.50175 9.13271 9.88767 8.78154L9.83937 8.72887C10.2251 8.37521 10.6263 8.03814 11.0419 7.71881L11.0884 7.77937C11.5021 7.46316 11.9297 7.16431 12.3702 6.8839L12.3275 6.81698C12.7679 6.53582 13.2214 6.2733 13.6868 6.03052L13.724 6.10188C14.1849 5.86152 14.6573 5.64033 15.1403 5.43938L15.1098 5.36585C15.5916 5.16608 16.0839 4.98663 16.5856 4.82856L16.6087 4.90177C17.103 4.74475 17.6064 4.60829 18.1179 4.49339L18.1024 4.42311C18.6102 4.31101 19.1261 4.22035 19.649 4.15214L19.6575 4.2169C20.1707 4.14743 20.6907 4.09938 21.2165 4.07367L21.2141 4.01685C21.4746 4.00565 21.7367 4 22 4C22.2633 4 22.5254 4.00566 22.7859 4.01685L22.7718 4.34694C22.9064 4.49998 22.988 4.70077 22.988 4.92062C22.988 5.16731 22.8852 5.38999 22.7202 5.54816L22.7173 5.61538ZM8.35315 32.4707L7.71881 32.9581C8.03814 33.3737 8.37521 33.7749 8.72887 34.1606L9.31855 33.62L9.90823 33.0794C9.58581 32.7277 9.27855 32.362 8.98748 31.9832L8.35315 32.4707ZM10.38 34.6815L9.83937 35.2711C10.2251 35.6248 10.6263 35.9619 11.0419 36.2812L11.5293 35.6469L12.0168 35.0125C11.638 34.7215 11.2723 34.4142 10.9206 34.0918L10.38 34.6815ZM12.758 36.5087L12.3275 37.183C12.7679 37.4642 13.2214 37.7267 13.6868 37.9695L14.0568 37.2602L14.4268 36.5509C14.0029 36.3298 13.5898 36.0906 13.1885 35.8344L12.758 36.5087ZM15.4163 37.8952L15.1098 38.6342C15.5916 38.8339 16.0839 39.0134 16.5856 39.1714L16.826 38.4084L17.0664 37.6454C16.6096 37.5015 16.1613 37.3381 15.7227 37.1562L15.4163 37.8952ZM18.2748 38.7957L18.1024 39.5769C18.6102 39.689 19.1261 39.7796 19.649 39.8479L19.7525 39.0546L19.856 38.2613C19.3795 38.1992 18.9097 38.1166 18.4473 38.0145L18.2748 38.7957ZM30.3088 17.574C30.7153 17.124 30.68 16.4296 30.2299 16.0231C29.7799 15.6166 29.0856 15.652 28.6791 16.102L20.1052 25.5945L15.2596 21.034C14.818 20.6184 14.1231 20.6395 13.7075 21.0811C13.2919 21.5227 13.3129 22.2176 13.7545 22.6332L19.4162 27.9619L20.2324 28.73L20.9836 27.8983L30.3088 17.574Z" fill="url(#paint0_linear_1949_608)"/>
<defs>
<linearGradient id="paint0_linear_1949_608" x1="1.05151" y1="40.0754" x2="36.727" y2="-1.35698" gradientUnits="userSpaceOnUse">
<stop stop-color="#FE5000"/>
<stop offset="1" stop-color="#FE9800"/>
</linearGradient>
</defs>
</svg>
