<svg width="44" height="44" viewBox="0 0 44 44" fill="none" xmlns="http://www.w3.org/2000/svg">
<path fill-rule="evenodd" clip-rule="evenodd" d="M22 40.4C32.162 40.4 40.4 32.162 40.4 22C40.4 11.838 32.162 3.6 22 3.6C11.838 3.6 3.6 11.838 3.6 22C3.6 32.162 11.838 40.4 22 40.4ZM22 42C33.0457 42 42 33.0457 42 22C42 10.9543 33.0457 2 22 2C10.9543 2 2 10.9543 2 22C2 33.0457 10.9543 42 22 42ZM38.3442 22.8032L37.5451 22.7646L36.7461 22.726C36.7577 22.4856 36.7636 22.2435 36.7636 22C36.7636 21.7564 36.7577 21.5143 36.7461 21.2739L37.5451 21.2353L38.3442 21.1967C38.3571 21.4628 38.3636 21.7306 38.3636 22C38.3636 22.2693 38.3571 22.5371 38.3442 22.8032ZM38.1885 19.598L37.3971 19.7144L36.6056 19.8308C36.5347 19.3491 36.4406 18.8752 36.3245 18.4101L37.1006 18.2163L37.8768 18.0224C38.0056 18.5383 38.11 19.064 38.1885 19.598ZM37.4111 16.4854L36.6579 16.755L35.9047 17.0245C35.7413 16.5679 35.556 16.1216 35.3501 15.687L36.073 15.3444L36.796 15.0019C37.0244 15.4839 37.2299 15.9789 37.4111 16.4854ZM36.0377 13.5862L35.3519 13.9981L34.6661 14.41C34.4168 13.9949 34.1476 13.5931 33.8599 13.2057L34.5021 12.7286L35.1443 12.2516C35.4631 12.6808 35.7614 13.1261 36.0377 13.5862ZM34.1247 11.0106L33.5321 11.5481L32.9395 12.0855C32.6146 11.7272 32.2724 11.385 31.9142 11.0602L32.4516 10.4676L32.989 9.87495C33.3858 10.2348 33.7649 10.6138 34.1247 11.0106ZM31.7481 8.85539L31.271 9.49759L30.794 10.1398C30.4066 9.85202 30.0047 9.58284 29.5896 9.33354L30.0016 8.64774L30.4135 7.96194C30.8735 8.23827 31.3189 8.53657 31.7481 8.85539ZM28.9978 7.20368L28.6552 7.92664L28.3127 8.6496C27.878 8.44365 27.4317 8.25836 26.9751 8.09496L27.2447 7.34173L27.5142 6.58851C28.0208 6.76977 28.5157 6.97529 28.9978 7.20368ZM25.9772 6.12284L25.7834 6.899L25.5896 7.67517C25.1245 7.55903 24.6505 7.46493 24.1688 7.39407L24.2852 6.60259L24.4017 5.81111C24.9357 5.88966 25.4613 5.994 25.9772 6.12284ZM22.803 5.65544L22.7643 6.45451L22.7257 7.25357C22.4853 7.24195 22.2433 7.23607 21.9997 7.23607C21.7561 7.23607 21.5141 7.24195 21.2737 7.25357L21.2351 6.45451L21.1964 5.65544C21.4626 5.64257 21.7304 5.63607 21.9997 5.63607C22.269 5.63607 22.5368 5.64257 22.803 5.65544ZM19.5977 5.81111C19.0637 5.88966 18.5381 5.994 18.0222 6.12284L18.216 6.899L18.4098 7.67517C18.8749 7.55903 19.3489 7.46493 19.8306 7.39408L19.7141 6.60259L19.5977 5.81111ZM16.4852 6.58851L16.7547 7.34173L17.0243 8.09496C16.5677 8.25836 16.1214 8.44365 15.6867 8.6496L15.3442 7.92664L15.0016 7.20368C15.4837 6.97529 15.9786 6.76977 16.4852 6.58851ZM13.5859 7.96194L13.9978 8.64774L14.4098 9.33354C13.9947 9.58284 13.5928 9.85202 13.2054 10.1398L12.7284 9.49759L12.2513 8.85539C12.6805 8.53657 13.1259 8.23827 13.5859 7.96194ZM11.0104 9.87495L11.5478 10.4676L12.0852 11.0602C11.727 11.385 11.3848 11.7272 11.0599 12.0855L10.4673 11.5481L9.8747 11.0106C10.2345 10.6138 10.6136 10.2348 11.0104 9.87495ZM8.85514 12.2516L9.49734 12.7286L10.1395 13.2057C9.85177 13.5931 9.58259 13.9949 9.33329 14.41L8.64749 13.9981L7.96169 13.5862C8.23802 13.1261 8.53632 12.6808 8.85514 12.2516ZM7.20343 15.0019L7.92639 15.3444L8.64935 15.687C8.4434 16.1216 8.2581 16.5679 8.09471 17.0245L7.34148 16.755L6.58826 16.4854C6.76952 15.9789 6.97504 15.4839 7.20343 15.0019ZM6.12259 18.0224L6.89875 18.2163L7.67492 18.4101C7.55878 18.8752 7.46468 19.3491 7.39382 19.8308L6.60234 19.7144L5.81086 19.598C5.88941 19.064 5.99375 18.5384 6.12259 18.0224ZM5.65519 21.1967C5.64232 21.4628 5.63582 21.7306 5.63582 22C5.63582 22.2693 5.64232 22.5371 5.65519 22.8032L6.45426 22.7646L7.25332 22.726C7.2417 22.4856 7.23582 22.2435 7.23582 22C7.23582 21.7564 7.2417 21.5143 7.25332 21.2739L6.45426 21.2353L5.65519 21.1967ZM5.81086 24.4019L6.60234 24.2855L7.39383 24.1691C7.46468 24.6508 7.55878 25.1247 7.67492 25.5898L6.89875 25.7836L6.12259 25.9775C5.99375 25.4616 5.88941 24.9359 5.81086 24.4019ZM6.58826 27.5145L7.34148 27.2449L8.09471 26.9754C8.2581 27.432 8.4434 27.8783 8.64935 28.3129L7.92639 28.6555L7.20343 28.998C6.97504 28.516 6.76952 28.021 6.58826 27.5145ZM7.96169 30.4137L8.64749 30.0018L9.33329 29.5899C9.58259 30.0049 9.85177 30.4068 10.1395 30.7942L9.49734 31.2713L8.85514 31.7483C8.53632 31.3191 8.23802 30.8738 7.96169 30.4137ZM9.8747 32.9893L10.4673 32.4518L11.0599 31.9144C11.3848 32.2727 11.727 32.6149 12.0852 32.9397L11.5478 33.5323L11.0104 34.1249C10.6136 33.7651 10.2345 33.3861 9.8747 32.9893ZM12.2513 35.1445L12.7284 34.5023L13.2054 33.8601C13.5928 34.1479 13.9947 34.4171 14.4098 34.6664L13.9978 35.3522L13.5859 36.038C13.1259 35.7616 12.6805 35.4633 12.2513 35.1445ZM15.0016 36.7962L15.3442 36.0733L15.6867 35.3503C16.1214 35.5563 16.5677 35.7415 17.0243 35.9049L16.7547 36.6582L16.4852 37.4114C15.9786 37.2301 15.4837 37.0246 15.0016 36.7962ZM18.0222 37.8771L18.216 37.1009L18.4098 36.3247C18.8749 36.4409 19.3489 36.535 19.8306 36.6058L19.7141 37.3973L19.5977 38.1888C19.0637 38.1102 18.5381 38.0059 18.0222 37.8771ZM21.1964 38.3445L21.2351 37.5454L21.2737 36.7463C21.5141 36.7579 21.7561 36.7638 21.9997 36.7638C22.2433 36.7638 22.4853 36.7579 22.7257 36.7463L22.7643 37.5454L22.803 38.3445C22.5368 38.3573 22.269 38.3638 21.9997 38.3638C21.7304 38.3638 21.4626 38.3573 21.1964 38.3445ZM24.4017 38.1888L24.2853 37.3973L24.1688 36.6058C24.6505 36.535 25.1245 36.4409 25.5896 36.3247L25.7834 37.1009L25.9772 37.8771C25.4613 38.0059 24.9357 38.1102 24.4017 38.1888ZM27.5142 37.4114L27.2447 36.6582L26.9751 35.9049C27.4317 35.7415 27.878 35.5563 28.3127 35.3503L28.6552 36.0733L28.9978 36.7962C28.5157 37.0246 28.0208 37.2301 27.5142 37.4114ZM30.4135 36.038L30.0016 35.3522L29.5896 34.6664C30.0047 34.4171 30.4066 34.1479 30.794 33.8601L31.271 34.5023L31.7481 35.1445C31.3189 35.4633 30.8735 35.7616 30.4135 36.038ZM32.989 34.1249L32.4516 33.5323L31.9142 32.9397C32.2724 32.6149 32.6146 32.2727 32.9395 31.9144L33.5321 32.4518L34.1247 32.9893C33.7649 33.3861 33.3858 33.7651 32.989 34.1249ZM35.1443 31.7483L34.5021 31.2713L33.8599 30.7942C34.1476 30.4068 34.4168 30.0049 34.6661 29.5899L35.3519 30.0018L36.0377 30.4137C35.7614 30.8738 35.4631 31.3191 35.1443 31.7483ZM36.796 28.998L36.073 28.6555L35.3501 28.3129C35.556 27.8783 35.7413 27.432 35.9047 26.9754L36.6579 27.2449L37.4111 27.5145C37.2299 28.021 37.0244 28.516 36.796 28.998ZM37.8768 25.9775L37.1006 25.7836L36.3245 25.5898C36.4406 25.1247 36.5347 24.6508 36.6056 24.1691L37.3971 24.2855L38.1885 24.4019C38.11 24.9359 38.0056 25.4615 37.8768 25.9775ZM30.3087 17.574C30.7152 17.124 30.6799 16.4296 30.2299 16.0231C29.7798 15.6167 29.0855 15.652 28.679 16.102L20.1051 25.5945L15.2596 21.034C14.818 20.6184 14.123 20.6395 13.7074 21.0811C13.2918 21.5227 13.3129 22.2176 13.7545 22.6332L19.4162 27.9619L20.2323 28.73L20.9836 27.8983L30.3087 17.574Z" fill="url(#paint0_linear_1949_588)"/>
<defs>
<linearGradient id="paint0_linear_1949_588" x1="2" y1="42" x2="42" y2="2" gradientUnits="userSpaceOnUse">
<stop stop-color="#FE5000"/>
<stop offset="1" stop-color="#FE9800"/>
</linearGradient>
</defs>
</svg>
