<svg width="44" height="44" viewBox="0 0 44 44" fill="none" xmlns="http://www.w3.org/2000/svg">
<path d="M26.9413 16.6783H10.2865C9.9395 16.6783 9.59253 16.9565 9.59253 17.3739C9.59253 17.7217 9.87011 18.0696 10.2865 18.0696H26.9413C27.2883 18.0696 27.6352 17.7913 27.6352 17.3739C27.6352 16.9565 27.2883 16.6783 26.9413 16.6783ZM10.2865 12.6435H16.9484C17.2954 12.6435 17.6423 12.3652 17.6423 11.9478C17.6423 11.6 17.3648 11.2522 16.9484 11.2522H10.2865C9.9395 11.2522 9.59253 11.5304 9.59253 11.9478C9.66192 12.3652 9.9395 12.6435 10.2865 12.6435ZM26.9413 22.0348H10.2865C9.9395 22.0348 9.59253 22.313 9.59253 22.7304C9.59253 23.0783 9.87011 23.4261 10.2865 23.4261H26.9413C27.2883 23.4261 27.6352 23.1478 27.6352 22.7304C27.6352 22.313 27.2883 22.0348 26.9413 22.0348ZM21.5979 27.3217H10.2865C9.9395 27.3217 9.59253 27.6 9.59253 28.0174C9.59253 28.4348 9.87011 28.713 10.2865 28.713H21.5979C21.9448 28.713 22.2918 28.4348 22.2918 28.0174C22.2918 27.6 22.0142 27.3217 21.5979 27.3217ZM19.6548 34C20.0018 34 20.3488 33.7217 20.3488 33.3043C20.3488 32.887 20.0712 32.6087 19.6548 32.6087H10.2865C9.9395 32.6087 9.59253 32.887 9.59253 33.3043C9.59253 33.7217 9.87011 34 10.2865 34H19.6548ZM4.31851 3.32174H23.6103V12.6435H32.9093V24.6783H34.2278V11.7391L24.5125 2H3V42H22.2918V40.6783H4.31851V3.32174ZM24.9288 4.29565L31.9377 11.3217H24.9288V4.29565ZM41.3754 26.7652L39.5018 24.887C38.7384 24.1217 37.4199 24.1217 36.726 24.887L26.4555 35.113L25.0676 40.3304L24.7206 40.6783C24.4431 40.9565 24.4431 41.3739 24.7206 41.5826C24.8594 41.7217 24.9982 41.7913 25.2064 41.7913C25.3452 41.7913 25.5534 41.7217 25.6922 41.5826L26.0391 41.2348L31.2438 39.8435L41.4448 29.6174C41.7918 29.2696 42 28.713 42 28.2261C41.9306 27.6696 41.7224 27.1826 41.3754 26.7652ZM27.9822 35.4609L34.7829 28.6435L37.6281 31.4957L30.758 38.313L27.9822 35.4609ZM27.3577 36.7826L29.5089 38.9391L26.5943 39.7739L27.3577 36.7826ZM40.4039 28.6435L38.5302 30.5217L35.6851 27.7391L37.5587 25.8609C37.8363 25.5826 38.2527 25.5826 38.4609 25.8609L40.3345 27.7391C40.4733 27.8783 40.5427 28.0174 40.5427 28.2261C40.6121 28.3652 40.5427 28.5043 40.4039 28.6435Z" fill="url(#paint0_linear_1949_629)"/>
<defs>
<linearGradient id="paint0_linear_1949_629" x1="11.0438" y1="42" x2="45.4004" y2="31.5163" gradientUnits="userSpaceOnUse">
<stop stop-color="#FE5000"/>
<stop offset="1" stop-color="#FCA92A"/>
</linearGradient>
</defs>
</svg>
