<svg width="44" height="44" viewBox="0 0 44 44" fill="none" xmlns="http://www.w3.org/2000/svg">
<path fill-rule="evenodd" clip-rule="evenodd" d="M36.9642 8.60683C36.9639 8.59743 36.9636 8.58803 36.9629 8.57863C36.9602 8.54137 36.9565 8.50478 36.9491 8.46852V8.46819C36.9418 8.43193 36.9313 8.39601 36.9196 8.3611C36.9166 8.35237 36.9136 8.34365 36.9102 8.33492C36.8978 8.30168 36.8837 8.26912 36.8676 8.23757L36.8649 8.23253C36.8474 8.19963 36.8273 8.16841 36.8055 8.13787C36.8017 8.13246 36.7978 8.12722 36.7938 8.12191L36.7887 8.11504C36.7655 8.08483 36.7413 8.05562 36.7142 8.02843L28.9375 0.25177C28.9103 0.224578 28.8811 0.200409 28.8509 0.177246L28.8432 0.171464C28.838 0.167585 28.8329 0.163706 28.8277 0.160125C28.7972 0.138305 28.7663 0.118164 28.7337 0.101044L28.7306 0.0995158C28.7293 0.0989603 28.7281 0.0984249 28.727 0.0976866C28.6961 0.0815734 28.6639 0.0678099 28.6313 0.0553893C28.6223 0.0520324 28.6136 0.0490111 28.6042 0.0459899C28.5692 0.0342407 28.534 0.0238342 28.4974 0.0164489H28.4967C28.4608 0.0093994 28.4242 0.00537109 28.3873 0.00268554L28.3732 0.00201416L28.3591 0.00134277L28.3474 0.000725095C28.3416 0.000362547 28.3357 0 28.3299 0H8.85937C8.3847 0 8 0.384704 8 0.859374V37.6426C8 38.1172 8.3847 38.502 8.85937 38.502H21.7976V43.1406C21.7976 43.4531 21.9675 43.7411 22.2411 43.8925C22.515 44.0439 22.849 44.0348 23.1139 43.8687L26.3869 41.8152L29.6599 43.8687C29.7992 43.956 29.958 43.9999 30.1168 43.9999C30.2598 43.9999 30.4031 43.9643 30.5327 43.8928C30.8063 43.7414 30.9762 43.4534 30.9762 43.1406V38.502H36.1062C36.5809 38.502 36.9656 38.1172 36.9656 37.6426V8.63603C36.9656 8.63395 36.9655 8.63186 36.9655 8.62978C36.9654 8.62805 36.9653 8.62632 36.9652 8.62459L36.9649 8.61851L36.9642 8.60683ZM29.1893 2.93429L34.0316 7.77666H29.1893V2.93429ZM21.3737 26.5436C21.3132 26.3794 21.2149 26.1112 21.2125 26.0014C21.2797 25.9182 21.5126 25.7708 21.6553 25.6808C21.9615 25.4875 22.3086 25.2679 22.5603 24.9249C22.8142 24.5784 22.9177 24.1784 23.0089 23.8254L23.0092 23.8245L23.0094 23.8234C23.0494 23.6689 23.1137 23.4204 23.1686 23.3263C23.1988 23.3199 23.2623 23.3108 23.3814 23.3108C23.4771 23.3108 23.5842 23.3162 23.6977 23.3219L23.7052 23.3223L23.7053 23.3223C23.8332 23.3286 23.9649 23.335 24.1025 23.335C24.412 23.335 24.6618 23.3001 24.8884 23.2246C25.2842 23.093 25.6007 22.8382 25.88 22.6133L25.8817 22.6119C26.0363 22.4876 26.2932 22.2809 26.3829 22.2682C26.4805 22.2808 26.7356 22.4861 26.8904 22.6106L26.8938 22.6133C27.1731 22.8382 27.49 23.093 27.8858 23.2246C28.1124 23.3001 28.3618 23.335 28.6716 23.335C28.8094 23.335 28.942 23.3285 29.0701 23.3222L29.0701 23.3222L29.0704 23.3222L29.0761 23.3219C29.1896 23.3162 29.2967 23.3108 29.3927 23.3108C29.5119 23.3108 29.575 23.3196 29.6055 23.3263C29.6606 23.4206 29.725 23.67 29.7646 23.8245C29.856 24.1776 29.9597 24.5781 30.2138 24.9249C30.465 25.2676 30.8118 25.4868 31.118 25.6803L31.1188 25.6808L31.1266 25.6858C31.2695 25.7764 31.4953 25.9197 31.5613 26.0014C31.5589 26.1107 31.4615 26.3769 31.4013 26.5413L31.4005 26.5436C31.2726 26.8917 31.1279 27.2865 31.1279 27.7239C31.1279 28.1608 31.2723 28.5553 31.3998 28.9035L31.4001 28.9045C31.4606 29.0686 31.5589 29.3369 31.5613 29.4466C31.4953 29.5284 31.2695 29.6716 31.1266 29.7623L31.1188 29.7672C30.8123 29.9606 30.4652 30.1801 30.2138 30.5232C29.9597 30.87 29.856 31.2705 29.7646 31.6236C29.725 31.7777 29.6602 32.0274 29.6055 32.1218C29.575 32.1282 29.5119 32.1372 29.3927 32.1372C29.2967 32.1372 29.1896 32.1318 29.0761 32.1261L29.0704 32.1259H29.0703H29.0703H29.0703C28.9422 32.1196 28.8095 32.113 28.6716 32.113C28.3618 32.113 28.1124 32.148 27.8858 32.2235C27.4907 32.3549 27.1742 32.6093 26.8952 32.8336L26.8952 32.8337L26.8938 32.8348C26.7417 32.9577 26.4879 33.1614 26.3869 33.1795C26.2859 33.1614 26.0324 32.9577 25.8803 32.8348L25.8764 32.8316C25.5977 32.6078 25.2823 32.3545 24.8884 32.2235C24.6618 32.148 24.412 32.113 24.1025 32.113C23.965 32.113 23.8326 32.1195 23.7045 32.1258L23.7044 32.1258L23.6977 32.1261C23.5845 32.1318 23.4775 32.1372 23.3814 32.1372C23.2623 32.1372 23.1992 32.1282 23.1686 32.1218C23.1137 32.0277 23.0494 31.7792 23.0094 31.6247L23.0092 31.6236C22.9182 31.2705 22.8145 30.87 22.5603 30.5232C22.3089 30.1801 21.9618 29.9606 21.6553 29.7672C21.513 29.6773 21.28 29.5299 21.2129 29.4466C21.2152 29.3374 21.3133 29.0694 21.3734 28.9052L21.3737 28.9045C21.5016 28.5564 21.6462 28.1616 21.6462 27.7242C21.6462 27.2874 21.5019 26.8934 21.3745 26.5459L21.3737 26.5436ZM29.2574 41.587L29.2571 41.5868V33.8533C29.1661 33.8509 29.0765 33.8472 28.9895 33.8429C28.8757 33.8372 28.7683 33.8318 28.6713 33.8318C28.5189 33.8318 28.4538 33.8459 28.4282 33.8543C28.3265 33.8881 28.1308 34.0456 27.9729 34.1726L27.9729 34.1726L27.9714 34.1739C27.5702 34.4968 27.071 34.8986 26.3869 34.8986C25.7028 34.8986 25.2036 34.4968 24.8024 34.1739L24.8009 34.1727L24.8009 34.1726C24.643 34.0456 24.4473 33.8881 24.3452 33.854C24.32 33.8456 24.2549 33.8315 24.1025 33.8315C24.0055 33.8315 23.8981 33.8368 23.7843 33.8429C23.6973 33.8472 23.6077 33.8506 23.5164 33.8533V41.587L25.93 40.0727C26.2093 39.8978 26.5645 39.8978 26.8438 40.0727L29.2571 41.5868V41.587H29.2574ZM30.9762 36.7832V33.1607C31.2316 32.8136 31.3384 32.4028 31.4287 32.0536C31.476 31.8703 31.5408 31.6196 31.5999 31.5393C31.6586 31.4589 31.8766 31.3211 32.036 31.2205L32.0366 31.2201C32.4596 30.9529 32.986 30.6202 33.1951 29.9911C33.4018 29.3705 33.1868 28.7841 33.0139 28.3129L33.0138 28.3127C32.9353 28.0988 32.8463 27.8561 32.8463 27.7239C32.8463 27.5916 32.9353 27.3492 33.0138 27.1354C33.1867 26.6641 33.4019 26.0773 33.1951 25.4566C32.986 24.8278 32.4596 24.4952 32.0366 24.228C31.8772 24.1273 31.6586 23.9889 31.5999 23.909C31.5408 23.8285 31.476 23.5777 31.4287 23.3944L31.4286 23.3943C31.3051 22.916 31.1513 22.3205 30.625 21.9345C30.2061 21.6277 29.721 21.5921 29.3924 21.5921C29.2534 21.5921 29.1191 21.5988 28.9895 21.6055C28.8757 21.6112 28.7683 21.6166 28.6716 21.6166C28.5189 21.6166 28.4538 21.6025 28.4286 21.5941C28.3265 21.5602 28.1298 21.4018 27.9717 21.2742L27.9701 21.2729C27.5689 20.9505 27.0701 20.5498 26.3869 20.5498C25.7033 20.5498 25.2038 20.9514 24.8027 21.274L24.8024 21.2742L24.7977 21.278L24.7977 21.278C24.6404 21.4046 24.4466 21.5605 24.3456 21.5941C24.3204 21.6025 24.2549 21.6166 24.1025 21.6166C24.0058 21.6166 23.8981 21.6112 23.7843 21.6052L23.7777 21.6049C23.6501 21.5986 23.5184 21.5921 23.3814 21.5921C23.0531 21.5921 22.5681 21.6277 22.1495 21.9345C21.6227 22.3206 21.4687 22.9161 21.3451 23.3944C21.2978 23.5777 21.233 23.8285 21.1743 23.9087C21.1152 23.9889 20.8966 24.1273 20.7372 24.228C20.3142 24.4952 19.7882 24.8278 19.5787 25.4566C19.372 26.0775 19.587 26.6639 19.7599 27.1352L19.76 27.1354C19.8385 27.3492 19.9275 27.5916 19.9275 27.7239C19.9275 27.8561 19.8385 28.0988 19.76 28.3127L19.7599 28.3129C19.587 28.7841 19.372 29.3705 19.5787 29.9915C19.7881 30.6201 20.3143 30.9527 20.7369 31.2199L20.7372 31.2201C20.897 31.3208 21.1152 31.4591 21.1743 31.5393C21.233 31.6196 21.2978 31.8703 21.3451 32.0536C21.4354 32.4028 21.5425 32.814 21.798 33.1607V36.7832H9.71875V1.71875H27.4705V8.63603C27.4705 9.1107 27.8552 9.49541 28.3299 9.49541H35.2468V36.7832H30.9762ZM13.0588 9.49536H24.1306C24.6049 9.49536 24.99 9.11066 24.99 8.63599C24.99 8.16132 24.6049 7.77661 24.1306 7.77661H13.0588C12.5841 7.77661 12.1994 8.16132 12.1994 8.63599C12.1994 9.11066 12.5844 9.49536 13.0588 9.49536ZM13.0588 12.1145H32.0033C32.478 12.1145 32.8627 12.4992 32.8627 12.9739C32.8627 13.4486 32.478 13.8333 32.0033 13.8333H13.0588C12.5841 13.8333 12.1994 13.4486 12.1994 12.9739C12.1994 12.4992 12.5841 12.1145 13.0588 12.1145ZM28.5658 16.4523H13.0588C12.5841 16.4523 12.1994 16.8374 12.1994 17.3117C12.1994 17.7864 12.5841 18.1711 13.0588 18.1711H28.5658C29.0405 18.1711 29.4252 17.7864 29.4252 17.3117C29.4252 16.8374 29.0405 16.4523 28.5658 16.4523ZM31.1439 17.3117C31.1439 16.8384 31.5299 16.4523 32.0032 16.4523C32.4769 16.4523 32.8626 16.8384 32.8626 17.3117C32.8626 17.785 32.4769 18.1711 32.0032 18.1711C31.5299 18.1711 31.1439 17.785 31.1439 17.3117Z" fill="url(#paint0_linear_1949_599)"/>
<defs>
<linearGradient id="paint0_linear_1949_599" x1="8" y1="44" x2="48.4161" y2="17.3938" gradientUnits="userSpaceOnUse">
<stop stop-color="#FE5000"/>
<stop offset="1" stop-color="#FE9800"/>
</linearGradient>
</defs>
</svg>
