<svg width="44" height="44" viewBox="0 0 44 44" fill="none" xmlns="http://www.w3.org/2000/svg">
<path d="M34.7 12.1L36.7999 10L34 7.2L31.6 9.6C29 8 25.9 7 22.7 6.9V5.5H26.7V3.5C26.7 2.4 25.8 1.5 24.7 1.5H19.4C18.3 1.5 17.4 2.4 17.4 3.5V5.5H21.4V6.8C18.1 7 15 8 12.4 9.6L9.99995 7.2L7.19995 10L9.29995 12.1C6.09995 15.3 4.19995 19.7 4.19995 24.6C4.19995 34.4 12.2 42.4 22 42.4C31.8 42.4 39.7999 34.4 39.7999 24.6C39.7999 19.8 37.8 15.4 34.7 12.1ZM34 9.1L34.9 10L33.7 11.2C33.4 10.9 33 10.6 32.7 10.4L34 9.1ZM18.7 4.2V3.5C18.7 3.1 19 2.8 19.4 2.8H24.7C25.1 2.8 25.4 3.1 25.4 3.5V4.2H18.7ZM9.09995 10L9.99995 9.1L11.3 10.4C10.9 10.7 10.6 10.9 10.3 11.2L9.09995 10ZM22 41.1C12.9 41.1 5.49995 33.7 5.49995 24.6C5.49995 15.5 12.9 8.2 22 8.2C31.1 8.2 38.5 15.6 38.5 24.7C38.5 33.7 31.1 41.1 22 41.1ZM22 10.8C14.4 10.8 8.19995 17 8.19995 24.6C8.19995 32.2 14.4 38.4 22 38.4C29.6 38.4 35.7999 32.2 35.7999 24.6C35.7999 17 29.6 10.8 22 10.8ZM22.7 37.1V35.8H21.4V37.1C15 36.8 9.89995 31.7 9.49995 25.3H10.8V24H9.49995C9.79995 17.6 14.9999 12.5 21.2999 12.2V13.5H22.6V12.2C29 12.5 34.2 17.6 34.5 24H33.2V25.3H34.5C34.2 31.7 29 36.8 22.7 37.1ZM22 22C20.5 22 19.4 23.2 19.4 24.6C19.4 26.1 20.6 27.2 22 27.2C23.5 27.2 24.6 26 24.6 24.6C24.6 23.2 23.5 22 22 22ZM22 26C21.3 26 20.7 25.4 20.7 24.7C20.7 24 21.3 23.4 22 23.4C22.7 23.4 23.2999 24 23.2999 24.7C23.2999 25.4 22.7 26 22 26ZM22.7 15.4H21.4V21.3H22.7V15.4ZM18.7 24H14.7V25.3H18.7V24Z" fill="url(#paint0_linear_1949_594)"/>
<defs>
<linearGradient id="paint0_linear_1949_594" x1="11.5425" y1="42.4" x2="43.4558" y2="33.7064" gradientUnits="userSpaceOnUse">
<stop stop-color="#FE5000"/>
<stop offset="1" stop-color="#FCA92A"/>
</linearGradient>
</defs>
</svg>
