<svg xmlns="http://www.w3.org/2000/svg" width="56" height="56" fill="none">
  <path d="M44.8 7.637H11.2c-2.418 0-4.454 2.036-4.454 4.454v30.037c0 2.418 2.036 4.454 4.454 4.454h21.255a.87.87 0 0 0 .89-.89.87.87 0 0 0-.89-.892H11.2c-1.4 0-2.673-1.145-2.673-2.672v-25.71h38.946V35c0 .51.382.891.89.891a.87.87 0 0 0 .892-.89V12.09c0-2.418-2.037-4.454-4.455-4.454Zm2.673 7.127H8.527v-2.673c0-1.4 1.146-2.672 2.673-2.672h33.6c1.4 0 2.673 1.145 2.673 2.672v2.673ZM11.2 12.982a.87.87 0 0 0 .891-.89.87.87 0 0 0-.89-.892.87.87 0 0 0-.892.891c0 .51.382.891.891.891Zm3.564 0a.87.87 0 0 0 .89-.89.87.87 0 0 0-.89-.892.87.87 0 0 0-.891.891c0 .51.382.891.89.891Zm3.563 0a.87.87 0 0 0 .891-.89.87.87 0 0 0-.89-.892.87.87 0 0 0-.892.891c0 .51.382.891.891.891ZM49 39.71 36.655 27.364c-.255-.255-.637-.382-1.019-.255-.381.128-.509.51-.509.764v17.691c0 .382.255.636.51.764a.99.99 0 0 0 1.018-.255l2.672-2.673 2.164 4.2c.127.255.255.382.51.382h.254c.127 0 .254 0 .381-.127l3.437-1.782c.382-.255.636-.764.382-1.145l-2.037-3.946h3.819c.381 0 .636-.254.763-.509.255-.127.255-.509 0-.764Zm-5.982-.254c-.254 0-.636.127-.763.382a1.087 1.087 0 0 0 0 .89l2.29 4.455-1.909 1.018-2.29-4.454c-.128-.255-.382-.382-.637-.51h-.127a.972.972 0 0 0-.636.255l-2.037 2.037V30.037l9.418 9.418h-3.309Z" fill="#7F94A8" />
  <circle cx="11" cy="29" r="9.131" fill="#fff" stroke="#7F94A8" stroke-width="1.738" />
  <path d="M7.498 28.442H6.252l.49-1.302h1.05c.336-.961.896-1.717 1.68-2.268.793-.55 1.74-.826 2.842-.826.765 0 1.381.13 1.848.392l-.602 1.484c-.327-.177-.747-.266-1.26-.266-.541 0-1.036.13-1.484.392a2.82 2.82 0 0 0-1.078 1.092h3.5l-.49 1.302H9.332a4.876 4.876 0 0 0-.014 1.148h3.108l-.434 1.302H9.71c.27.523.653.929 1.148 1.218.495.29 1.05.434 1.666.434.523 0 .929-.07 1.218-.21l.266 1.554c-.392.177-.933.266-1.624.266-1.12 0-2.095-.29-2.926-.868-.821-.579-1.395-1.377-1.722-2.394h-1.47l.49-1.302h.728a4.89 4.89 0 0 1-.014-.49c0-.047.01-.266.028-.658Z" fill="#7F94A8" />
</svg>
