<svg width="56" height="56" viewBox="0 0 56 56" fill="none" xmlns="http://www.w3.org/2000/svg">
<path d="M31.636 16.5631V13.449C31.636 7.47077 7.99902 7.47077 7.99902 13.449V31.6631C7.99902 34.0132 11.6778 35.4783 16.1034 35.9991C14.4847 36.7251 13.4537 37.7057 13.4537 38.9487V44.413C13.4537 47.4021 19.3993 48.9664 25.2723 48.9664C31.1452 48.9664 37.0908 47.4021 37.0908 44.413V41.6658C42.6524 41.5129 48.0002 39.9622 48.0002 37.1274V20.7347C48.0001 16.9606 38.5826 15.5719 31.636 16.5631ZM19.8176 10.7836C26.2879 10.7836 29.8178 12.5849 29.8178 13.5109C29.8178 14.4369 26.2879 16.2383 19.8176 16.2383C13.3473 16.2383 9.81731 14.4369 9.81731 13.5109C9.81723 12.585 13.3472 10.7836 19.8176 10.7836ZM9.81723 16.0408C12.0232 17.3685 15.9308 18.0565 19.8175 18.0565C23.7042 18.0565 27.6118 17.3685 29.8178 16.0408V16.9442C26.6584 17.6449 24.3631 18.9244 24.3631 20.7839V21.3218C22.9383 21.5504 21.4004 21.693 19.8176 21.693C13.3472 21.693 9.81731 19.8916 9.81731 18.9656V16.0408H9.81723ZM26.1813 34.2231C26.3543 34.3271 26.5343 34.4283 26.7276 34.5245C26.5456 34.5169 26.364 34.5094 26.1813 34.5047V34.2231ZM9.81723 21.4955C12.0232 22.8232 15.9308 23.5112 19.8175 23.5112C21.3912 23.5112 22.9208 23.3699 24.363 23.1545V27.6856C22.9382 27.9142 21.4003 28.0568 19.8175 28.0568C13.3471 28.0568 9.81723 26.2555 9.81723 25.3294V21.4955ZM9.81723 31.6933V27.8593C12.0232 29.187 15.9308 29.8751 19.8175 29.8751C21.3912 29.8751 22.9208 29.7338 24.363 29.5183V34.0495C22.9382 34.2781 21.4003 34.4206 19.8175 34.4206C13.3472 34.4206 9.81723 32.6192 9.81723 31.6933ZM35.2725 44.4209C35.2725 45.3469 31.7426 47.1482 25.2723 47.1482C18.802 47.1482 15.2719 45.3469 15.2719 44.4209V41.496C17.4779 42.8237 21.3854 43.5117 25.2722 43.5117C28.9926 43.5117 32.7372 42.8829 34.9859 41.6649C35.0803 41.6685 35.1776 41.6689 35.2724 41.6718V44.4209H35.2725ZM25.2723 41.6935C18.8019 41.6935 15.272 39.8922 15.272 38.9662C15.272 38.0402 18.802 36.2388 25.2723 36.2388C31.7426 36.2388 35.2725 38.0402 35.2725 38.9662C35.2725 39.8922 31.7426 41.6935 25.2723 41.6935ZM46.1819 37.148C46.1819 38.0279 42.9606 39.68 37.0907 39.8438V38.9662C37.0907 37.8303 36.2312 36.9122 34.8447 36.2088C35.2892 36.2267 35.7351 36.2388 36.1816 36.2388C40.0683 36.2388 43.9759 35.5508 46.1818 34.2231V37.148H46.1819ZM46.1819 31.6933C46.1819 32.6193 42.652 34.4206 36.1817 34.4206C29.7114 34.4206 26.1814 32.6193 26.1814 31.6933V28.7684C28.3873 30.0961 32.2949 30.7841 36.1817 30.7841C40.0684 30.7841 43.976 30.0961 46.1819 28.7684V31.6933ZM46.1819 26.2386C46.1819 27.1646 42.652 28.9659 36.1817 28.9659C29.7114 28.9659 26.1814 27.1646 26.1814 26.2386V23.3137C28.3873 24.6414 32.2949 25.3294 36.1817 25.3294C40.0684 25.3294 43.976 24.6414 46.1819 23.3137V26.2386ZM36.1817 23.5112C29.7113 23.5112 26.1814 21.7099 26.1814 20.7839C26.1814 19.8579 29.7114 18.0565 36.1817 18.0565C42.652 18.0565 46.1819 19.8579 46.1819 20.7839C46.1819 21.7099 42.652 23.5112 36.1817 23.5112Z" fill="url(#paint0_linear_1749_460)"/>
<defs>
<linearGradient id="paint0_linear_1749_460" x1="7.99902" y1="48.9664" x2="48.0001" y2="8.96527" gradientUnits="userSpaceOnUse">
<stop stop-color="#FE5000"/>
<stop offset="1" stop-color="#FE9800"/>
</linearGradient>
</defs>
</svg>
