<svg width="56" height="56" viewBox="0 0 56 56" fill="none" xmlns="http://www.w3.org/2000/svg">
<path fill-rule="evenodd" clip-rule="evenodd" d="M45.2701 15.0414C45.2866 15.0681 45.2985 15.0874 45.3298 15.0874C45.3298 15.1379 45.3424 15.2011 45.355 15.2643C45.3677 15.3274 45.3803 15.3906 45.3803 15.4411V23.1827C51.2881 23.436 55.9999 28.3057 55.9999 34.2758C55.9999 40.2459 51.2881 45.1156 45.3803 45.3689V45.5107C45.3803 48.644 42.8029 51.2214 39.6696 51.2214H14.4011C11.2678 51.2214 8.69043 48.644 8.69043 45.5107V10.4885C8.69043 7.35522 11.2678 4.77783 14.4011 4.77783H35.7277C35.8794 4.77783 36.031 4.82837 36.132 4.87891C36.1573 4.87891 36.1699 4.89154 36.1826 4.90417C36.1952 4.91681 36.2078 4.92944 36.2331 4.92944C36.2584 4.95471 36.2963 4.97998 36.3342 5.00525C36.3721 5.03052 36.41 5.05579 36.4353 5.08105L45.1276 14.8347C45.1529 14.86 45.1655 14.8852 45.1782 14.9105C45.1908 14.9358 45.2034 14.961 45.2287 14.9863C45.248 15.0056 45.2599 15.0249 45.2701 15.0414ZM43.4599 16.4013V23.2644C39.4953 23.7766 36.1862 26.3798 34.6748 29.9321C34.6581 29.9311 34.6413 29.9307 34.6243 29.9307H15.3524C14.8724 29.9307 14.4834 30.3197 14.4834 30.7996C14.4834 31.2795 14.8724 31.6686 15.3524 31.6686H34.1008C33.8996 32.5048 33.793 33.3779 33.793 34.2758C33.793 34.4375 33.7964 34.5983 33.8033 34.7583H15.3524C14.8724 34.7583 14.4834 35.1474 14.4834 35.6273C14.4834 36.1072 14.8724 36.4962 15.3524 36.4962H34.015C34.9505 41.1052 38.7408 44.6776 43.4599 45.2872V45.4601C43.4599 47.5827 41.7922 49.3009 39.6696 49.3009H14.4011C12.2786 49.3009 10.6108 47.5827 10.6108 45.5107V10.438C10.6108 8.31542 12.3291 6.6477 14.4011 6.6477H34.7675V15.4411C34.7675 15.9465 35.1718 16.4013 35.7277 16.4013H43.4599ZM42.2976 14.5315L36.6879 8.21435V14.5315H42.2976ZM14.4833 40.4549C14.4833 39.975 14.8723 39.5859 15.3522 39.5859H26.166C26.6459 39.5859 27.035 39.975 27.035 40.4549C27.035 40.9348 26.6459 41.3239 26.166 41.3239H15.3522C14.8723 41.3239 14.4833 40.9348 14.4833 40.4549ZM15.3522 25.1034C14.8723 25.1034 14.4833 25.4924 14.4833 25.9723C14.4833 26.4522 14.8723 26.8413 15.3522 26.8413H26.166C26.6459 26.8413 27.035 26.4522 27.035 25.9723C27.035 25.4924 26.6459 25.1034 26.166 25.1034H15.3522ZM44.8964 43.6413C50.0688 43.6413 54.2619 39.4482 54.2619 34.2758C54.2619 29.1034 50.0688 24.9103 44.8964 24.9103C39.724 24.9103 35.5309 29.1034 35.5309 34.2758C35.5309 39.4482 39.724 43.6413 44.8964 43.6413ZM44.5117 38.1411L51.0117 31.6411L49.7813 30.4107L43.8965 36.2955L40.0117 32.4107L38.7813 33.6411L43.2813 38.1411L43.8965 38.7562L44.5117 38.1411Z" fill="url(#paint0_linear_1749_466)"/>
<defs>
<linearGradient id="paint0_linear_1749_466" x1="8.69043" y1="51.2214" x2="55.126" y2="3.91999" gradientUnits="userSpaceOnUse">
<stop stop-color="#FE5000"/>
<stop offset="1" stop-color="#FE9800"/>
</linearGradient>
</defs>
</svg>
