<svg width="56" height="56" viewBox="0 0 56 56" fill="none" xmlns="http://www.w3.org/2000/svg">
<path d="M43.4545 50H21.6364C19.0909 50 17.0909 47.9833 17.0909 45.4167V17.9167C17.0909 15.35 19.0909 13.3333 21.6364 13.3333H43.4545C46 13.3333 48 15.35 48 17.9167V45.4167C48 47.9833 46 50 43.4545 50ZM21.6364 15.1667C20.0909 15.1667 18.9091 16.3583 18.9091 17.9167V45.4167C18.9091 46.975 20.0909 48.1667 21.6364 48.1667H43.4545C45 48.1667 46.1818 46.975 46.1818 45.4167V17.9167C46.1818 16.3583 45 15.1667 43.4545 15.1667H21.6364ZM14.3636 44.5H12.5455C10 44.5 8 42.4833 8 39.9167V10.5833C8 8.01667 10 6 12.5455 6H34.3636C36.9091 6 38.9091 8.01667 38.9091 10.5833C38.9091 11.1333 38.5455 11.5 38 11.5C37.4545 11.5 37.0909 11.1333 37.0909 10.5833C37.0909 9.025 35.9091 7.83333 34.3636 7.83333H12.5455C11 7.83333 9.81818 9.025 9.81818 10.5833V39.9167C9.81818 41.475 11 42.6667 12.5455 42.6667H14.3636C14.9091 42.6667 15.2727 43.0333 15.2727 43.5833C15.2727 44.1333 14.9091 44.5 14.3636 44.5ZM39.8182 37.1667H25.2727C24.7273 37.1667 24.3636 36.8 24.3636 36.25C24.3636 35.7 24.7273 35.3333 25.2727 35.3333H39.8182C40.3636 35.3333 40.7273 35.7 40.7273 36.25C40.7273 36.8 40.3636 37.1667 39.8182 37.1667ZM39.8182 44.5H25.2727C24.7273 44.5 24.3636 44.1333 24.3636 43.5833C24.3636 43.0333 24.7273 42.6667 25.2727 42.6667H39.8182C40.3636 42.6667 40.7273 43.0333 40.7273 43.5833C40.7273 44.1333 40.3636 44.5 39.8182 44.5ZM39.8182 29.8333H25.2727C24.7273 29.8333 24.3636 29.4667 24.3636 28.9167C24.3636 28.3667 24.7273 28 25.2727 28H39.8182C40.3636 28 40.7273 28.3667 40.7273 28.9167C40.7273 29.4667 40.3636 29.8333 39.8182 29.8333ZM39.8182 22.5H25.2727C24.7273 22.5 24.3636 22.1333 24.3636 21.5833C24.3636 21.0333 24.7273 20.6667 25.2727 20.6667H39.8182C40.3636 20.6667 40.7273 21.0333 40.7273 21.5833C40.7273 22.1333 40.3636 22.5 39.8182 22.5Z" fill="url(#paint0_linear_1748_1271)"/>
<defs>
<linearGradient id="paint0_linear_1748_1271" x1="8" y1="50" x2="51.8009" y2="10.181" gradientUnits="userSpaceOnUse">
<stop stop-color="#FE5000"/>
<stop offset="1" stop-color="#FE9800"/>
</linearGradient>
</defs>
</svg>
