<svg width="56" height="56" viewBox="0 0 56 56" fill="none" xmlns="http://www.w3.org/2000/svg">
<path fill-rule="evenodd" clip-rule="evenodd" d="M14.2454 5.67285C13.7655 5.67285 13.3765 6.0619 13.3765 6.54182V30.1265H8.64145C8.28999 30.1265 7.97313 30.3383 7.83863 30.663C7.70413 30.9877 7.77848 31.3614 8.027 31.61L27.3862 50.9691C27.7255 51.3085 28.2757 51.3085 28.6151 50.9691L47.9743 31.61C48.2228 31.3614 48.2971 30.9877 48.1626 30.663C48.0281 30.3383 47.7113 30.1265 47.3598 30.1265H42.6248V6.54182C42.6248 6.0619 42.2357 5.67285 41.7558 5.67285H14.2454ZM15.1144 30.9955V7.41078H40.8869V30.9955C40.8869 31.4754 41.2759 31.8645 41.7558 31.8645H45.2619L28.0006 49.1258L10.7393 31.8645H14.2454C14.7253 31.8645 15.1144 31.4754 15.1144 30.9955ZM20.1178 24.579C20.8878 25.265 21.8818 25.608 23.0998 25.608C24.3038 25.608 25.2908 25.265 26.0608 24.579C26.8448 23.879 27.2368 22.969 27.2368 21.849C27.2368 20.743 26.8448 19.84 26.0608 19.14C25.2908 18.454 24.3038 18.111 23.0998 18.111C21.8818 18.111 20.8878 18.454 20.1178 19.14C19.3478 19.826 18.9628 20.729 18.9628 21.849C18.9628 22.983 19.3478 23.893 20.1178 24.579ZM21.7558 23.172C21.4058 22.836 21.2308 22.395 21.2308 21.849C21.2308 21.317 21.4058 20.89 21.7558 20.568C22.1058 20.232 22.5538 20.064 23.0998 20.064C23.6458 20.064 24.0938 20.232 24.4438 20.568C24.8078 20.89 24.9898 21.317 24.9898 21.849C24.9898 22.395 24.8148 22.836 24.4648 23.172C24.1148 23.494 23.6598 23.655 23.0998 23.655C22.5538 23.655 22.1058 23.494 21.7558 23.172ZM29.3998 32.181C30.1698 32.867 31.1638 33.21 32.3818 33.21C33.5858 33.21 34.5728 32.867 35.3428 32.181C36.1268 31.481 36.5188 30.571 36.5188 29.451C36.5188 28.345 36.1268 27.442 35.3428 26.742C34.5728 26.056 33.5858 25.713 32.3818 25.713C31.1638 25.713 30.1698 26.056 29.3998 26.742C28.6298 27.428 28.2448 28.331 28.2448 29.451C28.2448 30.585 28.6298 31.495 29.3998 32.181ZM31.0378 30.774C30.6878 30.438 30.5128 29.997 30.5128 29.451C30.5128 28.919 30.6878 28.492 31.0378 28.17C31.3878 27.834 31.8358 27.666 32.3818 27.666C32.9278 27.666 33.3758 27.834 33.7258 28.17C34.0898 28.492 34.2718 28.919 34.2718 29.451C34.2718 29.997 34.0968 30.438 33.7468 30.774C33.3968 31.096 32.9418 31.257 32.3818 31.257C31.8358 31.257 31.3878 31.096 31.0378 30.774ZM21.7558 32.265L23.1418 33.231L33.7258 19.098L32.3608 18.069L21.7558 32.265Z" fill="url(#paint0_linear_1749_488)"/>
<defs>
<linearGradient id="paint0_linear_1749_488" x1="7.77246" y1="51.2237" x2="53.0047" y2="11.0502" gradientUnits="userSpaceOnUse">
<stop stop-color="#FE5000"/>
<stop offset="1" stop-color="#FE9800"/>
</linearGradient>
</defs>
</svg>
