<svg width="66" height="66" viewBox="0 0 66 66" fill="none" xmlns="http://www.w3.org/2000/svg">
<path d="M26.6589 33.0184H19.2843H18.2343V34.0684V38.1634V39.2134H19.2843H29.8263V43.7284H19.2843H18.2343V44.7784V48.8734V49.9234H19.2843H29.8263V57.0004V58.0504H30.8763H36.2313H37.2813V57.0004V49.9234H47.8863H48.9363V48.8734V44.7784V43.7284H47.8863H37.2813V39.2134H47.8863H48.9363V38.1634V34.0684V33.0184H47.8863H40.4628L52.0039 13.4335L52.9368 11.8504H51.0993H45.2403H44.6295L44.3276 12.3813L33.7768 30.9321L23.2852 12.3834L22.9837 11.8504H22.3713H16.1973H14.3739L15.2891 13.4274L26.6589 33.0184Z" stroke="url(#paint0_linear_1747_697)" stroke-width="2.1"/>
<defs>
<linearGradient id="paint0_linear_1747_697" x1="23.3958" y1="57.0004" x2="55.0625" y2="49.1568" gradientUnits="userSpaceOnUse">
<stop stop-color="#FE5000"/>
<stop offset="1" stop-color="#FCA92A"/>
</linearGradient>
</defs>
</svg>
