<svg width="66" height="66" viewBox="0 0 66 66" fill="none" xmlns="http://www.w3.org/2000/svg">
<path fill-rule="evenodd" clip-rule="evenodd" d="M51.3624 16.3407L58.0255 21.9079L58.0253 21.9079C58.2802 22.1011 58.4334 22.3996 58.4417 22.7191V52.7699C58.4358 54.1515 57.8843 55.4749 56.9074 56.452C55.9304 57.429 54.6069 57.9804 53.2253 57.9863H11.9747C10.5891 57.9863 9.26031 57.4373 8.27839 56.4598C7.29653 55.4817 6.7422 54.1553 6.73633 52.7698V22.6751C6.74464 22.3556 6.89777 22.0572 7.15268 21.8644L13.8378 16.3407V7.98961C13.8378 7.38441 14.3285 6.89369 14.9337 6.89369H25.1258L31.8985 1.26089C32.3017 0.913037 32.8985 0.913037 33.3017 1.26089L40.0744 6.89369H50.2665C50.5571 6.89369 50.836 7.00916 51.0414 7.21464C51.2469 7.42012 51.3624 7.699 51.3624 7.98961V16.3407ZM51.2528 26.2701L55.6365 22.719L51.2528 19.1681V26.2701ZM36.6324 6.89377L32.5995 3.51844L28.5667 6.89377H36.6324ZM49.1699 28.0896V9.08561H16.0292V28.0896L32.5995 41.9208L49.1699 28.0896ZM9.56321 22.7192L13.8373 26.2697L13.9469 19.1681L9.56321 22.7192ZM55.3629 54.9083C55.9305 54.3413 56.249 53.5717 56.249 52.7698L56.2267 25.1087L50.9663 29.4924L33.2787 44.2216C32.8756 44.5689 32.2787 44.5689 31.8761 44.2216L14.2098 29.4924L8.94932 25.1087V52.7698C8.94932 53.5716 9.26783 54.3412 9.83535 54.9083C10.4024 55.4758 11.172 55.7943 11.9738 55.7943H53.2244C54.0263 55.7943 54.7959 55.4758 55.3629 54.9083ZM42.8239 14.429H22.181C21.751 14.429 21.3209 14.818 21.3209 15.4014C21.3209 15.8875 21.665 16.3737 22.181 16.3737H42.8239C43.2539 16.3737 43.684 15.9847 43.684 15.4014C43.684 14.818 43.2539 14.429 42.8239 14.429ZM22.181 19.2906H42.8239C43.2539 19.2906 43.684 19.6795 43.684 20.2629C43.684 20.8463 43.2539 21.2352 42.8239 21.2352H22.181C21.665 21.2352 21.3209 20.749 21.3209 20.2629C21.3209 19.6795 21.751 19.2906 22.181 19.2906ZM22.2932 24.1521C21.7562 24.1521 21.3209 24.5874 21.3209 25.1244C21.3209 25.6614 21.7562 26.0967 22.2932 26.0967H32.0163C32.5533 26.0967 32.9886 25.6614 32.9886 25.1244C32.9886 24.5874 32.5533 24.1521 32.0163 24.1521H22.2932Z" fill="url(#paint0_linear_1747_571)"/>
<defs>
<linearGradient id="paint0_linear_1747_571" x1="17.4006" y1="57.9863" x2="63.4758" y2="44.9026" gradientUnits="userSpaceOnUse">
<stop stop-color="#FE5000"/>
<stop offset="1" stop-color="#FCA92A"/>
</linearGradient>
</defs>
</svg>
