<svg width="64" height="64" viewBox="0 0 64 64" fill="none" xmlns="http://www.w3.org/2000/svg">
<path fill-rule="evenodd" clip-rule="evenodd" d="M57.0876 29.5682C57.0876 28.8002 57.5996 28.2882 58.3676 28.2882C59.1356 28.2882 59.6476 28.6722 59.5196 29.4402V34.5602V41.9842V43.2642V44.9282C59.5196 46.4642 58.7516 48.1282 57.5996 49.2802L51.7116 55.1682C50.6876 56.4482 49.0236 57.0882 47.3596 57.0882H45.6956H39.4236H7.93563C5.88763 57.0882 4.22363 55.5522 4.22363 53.3762V29.4402C4.22363 28.6722 4.73563 28.1602 5.50363 28.1602C6.27163 28.1602 6.78363 28.6722 6.78363 29.4402V53.5042C6.78363 54.2722 7.29563 54.7842 8.06363 54.7842H39.4236H45.6956C47.1036 54.7842 48.2556 53.6322 48.2556 52.2242V49.6642C48.2556 47.6162 49.7916 45.9522 51.9676 45.9522H54.5276C55.9356 45.9522 57.0876 44.8002 57.0876 43.3922V42.1122V34.5602V29.5682ZM50.742 52.6353C50.7135 52.762 50.6876 52.8771 50.6876 52.9922L55.5516 48.1282C55.1676 48.2562 54.9116 48.2562 54.6556 48.2562H52.0956C51.3276 48.2562 50.8156 48.7682 50.8156 49.5362V52.0962C50.8156 52.3076 50.7768 52.4802 50.742 52.6353ZM47.1036 10.6242H55.9356C57.9836 10.6242 59.6476 12.2882 59.7756 14.3362V24.4482C59.7756 25.2162 59.2636 25.7282 58.4956 25.7282H5.63163C4.86363 25.7282 4.35163 25.2162 4.35163 24.4482V14.3362C4.35163 12.2882 5.88763 10.6242 8.06363 10.6242H16.8956V8.06418C16.8956 7.29618 17.4076 6.78418 18.1756 6.78418C18.9436 6.78418 19.4556 7.29618 19.4556 8.06418V10.6242H44.5436V8.06418C44.5436 7.29618 45.0556 6.78418 45.8236 6.78418C46.5916 6.78418 47.1036 7.29618 47.1036 8.06418V10.6242ZM6.91163 23.1682H57.0876L57.3436 14.3362C57.3436 13.5682 56.8316 13.0562 56.0636 13.0562H47.2316V16.0002C47.9996 16.3842 48.5116 17.2802 48.5116 18.1762C48.5116 19.5842 47.3596 20.7362 45.9516 20.7362C44.5436 20.7362 43.3916 19.5842 43.3916 18.1762C43.3916 17.2802 43.9036 16.3842 44.6716 16.0002V13.0562H19.5836V16.0002C20.3516 16.3842 20.8636 17.2802 20.8636 18.1762C20.8636 19.5842 19.7116 20.7362 18.3036 20.7362C16.8956 20.7362 15.7436 19.5842 15.7436 18.1762C15.7436 17.2802 16.2556 16.3842 17.0236 16.0002V13.0562H8.19163C7.42363 13.0562 6.91163 13.5682 6.91163 14.3362V23.1682ZM27.7086 34.504L29.0506 36.594L30.9426 35.164V47H33.4726V31.556H31.6466L27.7086 34.504Z" fill="url(#paint0_linear_1747_771)"/>
<defs>
<linearGradient id="paint0_linear_1747_771" x1="15.6812" y1="57.0882" x2="63.4678" y2="40.5723" gradientUnits="userSpaceOnUse">
<stop stop-color="#FE5000"/>
<stop offset="1" stop-color="#FCA92A"/>
</linearGradient>
</defs>
</svg>
