<svg width="66" height="66" viewBox="0 0 66 66" fill="none" xmlns="http://www.w3.org/2000/svg">
<path d="M43.3772 24.9165H19.4626C18.9644 24.9165 18.4662 25.313 18.4662 25.9078C18.4662 26.4035 18.8648 26.8991 19.4626 26.8991H43.3772C43.8754 26.8991 44.3737 26.5026 44.3737 25.9078C44.3737 25.313 43.8754 24.9165 43.3772 24.9165ZM19.4626 19.167H29.0285C29.5267 19.167 30.0249 18.7704 30.0249 18.1757C30.0249 17.68 29.6263 17.1843 29.0285 17.1843H19.4626C18.9644 17.1843 18.4662 17.5809 18.4662 18.1757C18.5658 18.7704 18.9644 19.167 19.4626 19.167ZM43.3772 32.5496H19.4626C18.9644 32.5496 18.4662 32.9461 18.4662 33.5409C18.4662 34.0365 18.8648 34.5322 19.4626 34.5322H43.3772C43.8754 34.5322 44.3737 34.1357 44.3737 33.5409C44.3737 32.9461 43.8754 32.5496 43.3772 32.5496ZM35.7046 40.0835H19.4626C18.9644 40.0835 18.4662 40.48 18.4662 41.0748C18.4662 41.6696 18.8648 42.0661 19.4626 42.0661H35.7046C36.2028 42.0661 36.7011 41.6696 36.7011 41.0748C36.7011 40.48 36.3025 40.0835 35.7046 40.0835ZM32.9146 49.6C33.4128 49.6 33.911 49.2035 33.911 48.6087C33.911 48.0139 33.5125 47.6174 32.9146 47.6174H19.4626C18.9644 47.6174 18.4662 48.0139 18.4662 48.6087C18.4662 49.2035 18.8648 49.6 19.4626 49.6H32.9146ZM10.8932 5.88348H38.5943V19.167H51.9466V36.3165H53.8399V17.8783L39.8897 4H9V61H36.7011V59.1165H10.8932V5.88348ZM40.4875 7.2713L50.5516 17.2835H40.4875V7.2713ZM64.1032 39.2904L61.4128 36.6139C60.3167 35.5235 58.4235 35.5235 57.427 36.6139L42.6797 51.1861L40.6868 58.6209L40.1886 59.1165C39.79 59.513 39.79 60.1078 40.1886 60.4052C40.3879 60.6035 40.5872 60.7026 40.8861 60.7026C41.0854 60.7026 41.3843 60.6035 41.5836 60.4052L42.0819 59.9096L49.5552 57.927L64.2028 43.3548C64.7011 42.8591 65 42.0661 65 41.3722C64.9004 40.5791 64.6014 39.8852 64.1032 39.2904ZM44.8719 51.6817L54.637 41.967L58.7224 46.0313L48.8577 55.7461L44.8719 51.6817ZM43.9751 53.5652L47.0641 56.6383L42.879 57.8278L43.9751 53.5652ZM62.7082 41.967L60.0178 44.6435L55.9324 40.6783L58.6228 38.0017C59.0213 37.6052 59.6192 37.6052 59.9181 38.0017L62.6085 40.6783C62.8078 40.8765 62.9075 41.0748 62.9075 41.3722C63.0071 41.5704 62.9075 41.7687 62.7082 41.967Z" fill="url(#paint0_linear_1747_777)"/>
<defs>
<linearGradient id="paint0_linear_1747_777" x1="20.55" y1="61" x2="69.8182" y2="45.8512" gradientUnits="userSpaceOnUse">
<stop stop-color="#FE5000"/>
<stop offset="1" stop-color="#FCA92A"/>
</linearGradient>
</defs>
</svg>
