<svg width="44" height="44" viewBox="0 0 44 44" fill="none" xmlns="http://www.w3.org/2000/svg">
<path fill-rule="evenodd" clip-rule="evenodd" d="M35.9989 9.01593C35.9986 9.00682 35.9982 8.9977 35.9976 8.98859C35.995 8.95247 35.9914 8.91699 35.9842 8.88185C35.9842 8.88185 35.9842 8.88185 35.9842 8.88152C35.9771 8.84637 35.967 8.81155 35.9556 8.7777C35.9527 8.76924 35.9497 8.76078 35.9465 8.75232C35.9344 8.7201 35.9208 8.68853 35.9052 8.65794C35.9042 8.65631 35.9035 8.65469 35.9025 8.65306C35.8856 8.62116 35.8661 8.5909 35.8449 8.56128C35.8397 8.5538 35.8342 8.54664 35.8287 8.53915C35.8062 8.50986 35.7828 8.48155 35.7564 8.45519L28.2172 0.915958C28.1908 0.889597 28.1625 0.866165 28.1332 0.843709C28.1257 0.838177 28.1183 0.832319 28.1108 0.827112C28.0812 0.805958 28.0512 0.786431 28.0197 0.769834C28.0174 0.768532 28.0151 0.767881 28.0131 0.766579C27.9832 0.750958 27.952 0.737615 27.9204 0.725573C27.9116 0.722319 27.9031 0.71939 27.894 0.716461C27.8602 0.70507 27.826 0.694982 27.7905 0.687822C27.7902 0.687822 27.7899 0.687822 27.7899 0.687822C27.7551 0.680987 27.7196 0.677082 27.6838 0.674479C27.6747 0.674153 27.6656 0.673502 27.6565 0.673177C27.647 0.672851 27.6376 0.671875 27.6281 0.671875H8.75208C8.2919 0.671875 7.91895 1.04483 7.91895 1.50501V37.1652C7.91895 37.6254 8.2919 37.9983 8.75208 37.9983H21.2953V42.4953C21.2953 42.7983 21.46 43.0775 21.7252 43.2243C21.9908 43.3711 22.3146 43.3623 22.5714 43.2012L25.7445 41.2105L28.9176 43.2012C29.0526 43.2858 29.2065 43.3284 29.3605 43.3284C29.4991 43.3284 29.6381 43.2939 29.7637 43.2246C30.0289 43.0779 30.1936 42.7986 30.1936 42.4953V37.9983H35.167C35.6272 37.9983 36.0002 37.6254 36.0002 37.1652V9.04424C36.0002 9.0348 35.9992 9.02537 35.9989 9.01593ZM28.4613 3.51658L33.1558 8.21111H28.4613V3.51658ZM20.8843 26.405C20.8257 26.2459 20.7304 25.9859 20.7281 25.8794C20.7932 25.7987 21.019 25.6559 21.1573 25.5686C21.4541 25.3812 21.7907 25.1684 22.0347 24.8358C22.2811 24.4996 22.3813 24.1113 22.4699 23.7689C22.5086 23.6192 22.5711 23.3774 22.6244 23.286C22.6537 23.2798 22.7152 23.271 22.8308 23.271C22.9235 23.271 23.0273 23.2762 23.1373 23.2818C23.2636 23.2879 23.3938 23.2944 23.5298 23.2944C23.8299 23.2944 24.072 23.2606 24.2917 23.1874C24.6754 23.0598 24.9823 22.8128 25.2531 22.5947C25.4028 22.4743 25.6533 22.2726 25.7406 22.2602C25.8359 22.2726 26.0862 22.4743 26.2359 22.5947C26.5067 22.8128 26.8139 23.0598 27.1976 23.1874C27.4173 23.2606 27.6591 23.2944 27.9594 23.2944C28.0952 23.2944 28.2257 23.2879 28.3516 23.2818C28.4616 23.2762 28.5654 23.271 28.6585 23.271C28.774 23.271 28.8352 23.2795 28.8648 23.286C28.9182 23.3774 28.9807 23.6192 29.0191 23.7689C29.1076 24.1113 29.2082 24.4996 29.4545 24.8358C29.6983 25.1684 30.0348 25.3809 30.3319 25.5686C30.4699 25.6562 30.6958 25.7987 30.7609 25.8794C30.7586 25.9859 30.6632 26.2459 30.605 26.405C30.481 26.7425 30.3407 27.1252 30.3407 27.5493C30.3407 27.9734 30.481 28.3561 30.6047 28.6939C30.6632 28.853 30.7586 29.1131 30.7609 29.2195C30.6958 29.3002 30.4699 29.4427 30.3319 29.5303C30.0348 29.7177 29.6983 29.9306 29.4545 30.2632C29.2082 30.5994 29.1076 30.9876 29.0191 31.33C28.9807 31.4794 28.9179 31.7215 28.8648 31.8129C28.8352 31.8191 28.774 31.8279 28.6585 31.8279C28.5654 31.8279 28.4616 31.8227 28.3516 31.8172C28.2257 31.811 28.0952 31.8045 27.9594 31.8045C27.6591 31.8045 27.4173 31.8383 27.1976 31.9115C26.8139 32.0391 26.5067 32.2865 26.2359 32.5042C26.0885 32.6233 25.8424 32.8208 25.7445 32.8384C25.6465 32.8208 25.4008 32.6233 25.2534 32.5042C24.9823 32.2865 24.6754 32.0391 24.2917 31.9115C24.072 31.8383 23.8299 31.8045 23.5298 31.8045C23.3941 31.8045 23.2636 31.811 23.1373 31.8172C23.0277 31.8227 22.9239 31.8279 22.8308 31.8279C22.7152 31.8279 22.6541 31.8191 22.6244 31.8129C22.5711 31.7215 22.5086 31.4797 22.4699 31.33C22.3817 30.9876 22.2811 30.5994 22.0347 30.2632C21.791 29.9306 21.4545 29.7177 21.1573 29.5303C21.0194 29.4431 20.7935 29.3002 20.7284 29.2195C20.7307 29.1134 20.826 28.853 20.8843 28.6939C21.0083 28.3564 21.1486 27.9737 21.1486 27.5496C21.1486 27.1252 21.008 26.7425 20.8843 26.405ZM28.5273 40.9892L26.1874 39.5211C25.9166 39.3515 25.5723 39.3515 25.3015 39.5211L22.9616 40.9892V33.4916C23.0501 33.489 23.137 33.4857 23.2213 33.4815C23.3316 33.4756 23.4358 33.4704 23.5298 33.4704C23.6776 33.4704 23.7407 33.4841 23.7651 33.4922C23.8644 33.5254 24.0551 33.679 24.2084 33.8024C24.5973 34.1155 25.0812 34.505 25.7445 34.505C26.4077 34.505 26.8917 34.1155 27.2806 33.8024C27.4339 33.679 27.6246 33.5254 27.7235 33.4926C27.7482 33.4844 27.8114 33.4707 27.9591 33.4707C28.0532 33.4707 28.1573 33.476 28.2676 33.4815C28.3519 33.4857 28.4388 33.4893 28.527 33.4916V40.9892H28.5273ZM30.1936 36.3321V32.8202C30.4413 32.4837 30.5448 32.0853 30.6323 31.7469C30.6782 31.5692 30.741 31.3261 30.7983 31.2483C30.8552 31.1702 31.0671 31.0364 31.2217 30.9388C31.6318 30.6797 32.142 30.3572 32.3448 29.7473C32.5453 29.1456 32.3367 28.5771 32.1691 28.1201C32.0929 27.9128 32.0067 27.6775 32.0067 27.5493C32.0067 27.4211 32.0929 27.1861 32.1691 26.9788C32.3367 26.5219 32.5453 25.953 32.3448 25.3513C32.142 24.7417 31.6318 24.4192 31.2217 24.1601C31.0671 24.0625 30.8552 23.9284 30.7983 23.851C30.741 23.7729 30.6782 23.5297 30.6323 23.3521C30.5126 22.8883 30.3635 22.311 29.8532 21.9367C29.447 21.6392 28.9768 21.6047 28.6582 21.6047C28.5234 21.6047 28.3933 21.6113 28.2676 21.6178C28.1573 21.6233 28.0532 21.6285 27.9594 21.6285C27.8114 21.6285 27.7482 21.6148 27.7238 21.6067C27.6249 21.5738 27.4342 21.4202 27.2809 21.2965C26.8917 20.9838 26.4077 20.5942 25.7445 20.5942C25.0815 20.5942 24.5973 20.9838 24.2084 21.2965C24.0551 21.4199 23.8644 21.5738 23.7655 21.6067C23.741 21.6148 23.6776 21.6285 23.5298 21.6285C23.4361 21.6285 23.3316 21.6233 23.2213 21.6174C23.0957 21.6113 22.9658 21.6047 22.8308 21.6047C22.5125 21.6047 22.0422 21.6392 21.6364 21.9367C21.1258 22.311 20.9764 22.8883 20.8566 23.3521C20.8107 23.5297 20.7479 23.7729 20.691 23.8506C20.6337 23.9284 20.4218 24.0625 20.2673 24.1601C19.8572 24.4192 19.3472 24.7417 19.1441 25.3513C18.9437 25.9533 19.1523 26.5219 19.3199 26.9788C19.396 27.1861 19.4823 27.4211 19.4823 27.5493C19.4823 27.6775 19.396 27.9128 19.3199 28.1201C19.1523 28.5771 18.9437 29.1456 19.1441 29.7477C19.3472 30.3572 19.8575 30.6797 20.2673 30.9388C20.4222 31.0364 20.6337 31.1705 20.691 31.2483C20.7479 31.3261 20.8107 31.5692 20.8566 31.7469C20.9442 32.0853 21.048 32.484 21.2957 32.8202V36.3321H9.58522V2.33815H26.795V9.04424C26.795 9.50442 27.168 9.87738 27.6281 9.87738H34.3339V36.3321H30.1936Z" fill="#7F94A8"/>
<path fill-rule="evenodd" clip-rule="evenodd" d="M12.8234 9.87721H23.5572C24.017 9.87721 24.3903 9.50425 24.3903 9.04408C24.3903 8.5839 24.017 8.21094 23.5572 8.21094H12.8234C12.3632 8.21094 11.9902 8.5839 11.9902 9.04408C11.9902 9.50425 12.3635 9.87721 12.8234 9.87721Z" fill="#7F94A8"/>
<path fill-rule="evenodd" clip-rule="evenodd" d="M31.1895 12.417H12.8234C12.3632 12.417 11.9902 12.79 11.9902 13.2501C11.9902 13.7103 12.3632 14.0833 12.8234 14.0833H31.1895C31.6497 14.0833 32.0226 13.7103 32.0226 13.2501C32.0226 12.79 31.6497 12.417 31.1895 12.417Z" fill="#7F94A8"/>
<path fill-rule="evenodd" clip-rule="evenodd" d="M27.8569 16.6221H12.8234C12.3632 16.6221 11.9902 16.9954 11.9902 17.4552C11.9902 17.9154 12.3632 18.2883 12.8234 18.2883H27.8569C28.3171 18.2883 28.6901 17.9154 28.6901 17.4552C28.6901 16.9954 28.3171 16.6221 27.8569 16.6221Z" fill="#7F94A8"/>
<path fill-rule="evenodd" clip-rule="evenodd" d="M31.1896 16.6221C30.7307 16.6221 30.3564 16.9963 30.3564 17.4552C30.3564 17.9141 30.7307 18.2883 31.1896 18.2883C31.6488 18.2883 32.0227 17.9141 32.0227 17.4552C32.0227 16.9963 31.6488 16.6221 31.1896 16.6221Z" fill="#7F94A8"/>
</svg>
