<svg width="44" height="44" viewBox="0 0 44 44" fill="none" xmlns="http://www.w3.org/2000/svg">
<path fill-rule="evenodd" clip-rule="evenodd" d="M12.7757 4.48438C12.7757 3.93208 12.328 3.48438 11.7757 3.48438C11.2234 3.48438 10.7757 3.93208 10.7757 4.48438V5.56054H9.78027C7.01884 5.56054 4.78027 7.79911 4.78027 10.5606V34.9998C4.78027 37.7612 7.01884 39.9998 9.78026 39.9998H34.2195C36.9809 39.9998 39.2195 37.7612 39.2195 34.9998V10.5606C39.2195 7.79912 36.9809 5.56054 34.2195 5.56054H32.686V4.48438C32.686 3.93208 32.2383 3.48438 31.686 3.48438C31.1337 3.48438 30.686 3.93208 30.686 4.48438V5.56054H12.7757V4.48438ZM30.686 9.86549V7.56054H12.7757V9.86549C12.7757 10.4178 12.328 10.8655 11.7757 10.8655C11.2234 10.8655 10.7757 10.4178 10.7757 9.86549V7.56054H9.78027C8.12341 7.56054 6.78027 8.90368 6.78027 10.5606V12.6323H37.2195V10.5606C37.2195 8.90368 35.8763 7.56054 34.2195 7.56054H32.686V9.86549C32.686 10.4178 32.2383 10.8655 31.686 10.8655C31.1337 10.8655 30.686 10.4178 30.686 9.86549ZM6.78027 34.9998V14.6323H37.2195V34.9998C37.2195 36.6566 35.8763 37.9998 34.2195 37.9998H9.78026C8.12341 37.9998 6.78027 36.6566 6.78027 34.9998ZM29.7994 20.6845C30.1279 20.2406 30.0343 19.6143 29.5903 19.2859C29.1463 18.9574 28.5201 19.051 28.1916 19.4949L20.4582 29.9467L16.7182 26.8528C16.2927 26.5007 15.6623 26.5603 15.3103 26.9859C14.9583 27.4114 15.0179 28.0418 15.4434 28.3938L19.9967 32.1606C20.2083 32.3356 20.4826 32.416 20.7552 32.3827C21.0278 32.3495 21.2747 32.2056 21.438 31.9849L29.7994 20.6845Z" fill="#7F94A8"/>
</svg>
