<svg width="44" height="44" viewBox="0 0 44 44" fill="none" xmlns="http://www.w3.org/2000/svg">
<g clip-path="url(#clip0_1748_1106)">
<path d="M42.7325 10.8465L43.9535 7.59C44.0102 7.43882 44.0154 7.27317 43.9683 7.11874C43.9212 6.96431 43.8245 6.82973 43.6931 6.73589C43.5618 6.64204 43.4031 6.59417 43.2417 6.5997C43.0804 6.60522 42.9254 6.66385 42.8007 6.76647L31.0492 16.445C30.7283 16.7104 30.4892 17.0613 30.3597 17.457C30.2301 17.8528 30.2154 18.2772 30.3173 18.6809C30.3832 18.9392 30.4568 19.2246 30.5281 19.4975C30.5814 19.7033 30.5692 19.9206 30.4932 20.1191C30.4172 20.3176 30.2812 20.4875 30.1041 20.605L30.0752 20.6243C29.8874 20.7496 29.6627 20.8078 29.4377 20.7895C29.2126 20.7712 29.0003 20.6774 28.8352 20.5234L27.0891 18.0384L26.6696 15.9408C26.5975 15.5857 26.5966 15.2199 26.6669 14.8644C26.7373 14.509 26.8774 14.171 27.0792 13.8701C27.4201 13.3605 27.9205 12.9783 28.5018 12.7835C28.7475 12.7008 29.0072 12.6677 29.2658 12.6861C29.5244 12.7044 29.7767 12.7739 30.0083 12.8905L31.939 13.8558C32.0644 13.9185 32.2052 13.9439 32.3446 13.929C32.484 13.9141 32.6163 13.8596 32.7257 13.7718C32.8351 13.6841 32.917 13.5668 32.9618 13.4339C33.0065 13.3011 33.0123 13.1581 32.9783 13.0221L32.5078 11.14C32.3548 10.5279 32.0178 9.97741 31.5422 9.56276L32.128 6.64831C32.1975 6.29706 32.1366 5.93252 31.9568 5.62289C31.777 5.31325 31.4905 5.07974 31.151 4.96604L30.1683 4.63604L30.1592 4.63302C30.1288 4.6233 30.0978 4.61606 30.0675 4.60744V3.66667C30.0675 3.47217 29.9902 3.28565 29.8527 3.14812C29.7152 3.0106 29.5286 2.93333 29.3342 2.93333C29.1397 2.93333 28.9531 3.0106 28.8156 3.14812C28.6781 3.28565 28.6008 3.47217 28.6008 3.66667V4.60708C28.5702 4.61569 28.5391 4.62293 28.5092 4.63265L28.5 4.63567L27.5192 4.96522C27.1792 5.07879 26.8923 5.3124 26.7122 5.62229C26.5321 5.93217 26.4712 6.29708 26.5408 6.64867L27.0126 8.99635C26.6458 9.08507 26.287 9.20366 25.9396 9.35092L25.0109 7.95758L25.9267 5.20978C26.1036 4.67746 26.0707 4.09768 25.8347 3.58879C25.5987 3.07989 25.1774 2.68025 24.6568 2.47142L22.7351 1.7028V0.733333C22.7351 0.538841 22.6578 0.352315 22.5203 0.214788C22.3828 0.0772617 22.1962 0 22.0017 0C21.8072 0 21.6207 0.0772617 21.4832 0.214788C21.3457 0.352315 21.2684 0.538841 21.2684 0.733333V1.70307L19.3451 2.4717C18.8245 2.68058 18.4033 3.08022 18.1673 3.5891C17.9312 4.09797 17.8983 4.67772 18.0751 5.21006L18.9911 7.95786L18.0624 9.35119C17.715 9.20391 17.3561 9.08532 16.9893 8.99662L17.4613 6.64831C17.5309 6.29699 17.4701 5.93236 17.2902 5.62265C17.1104 5.31294 16.8238 5.07938 16.4842 4.96567L15.5016 4.63567L15.4924 4.63265C15.4621 4.62284 15.431 4.61569 15.4007 4.60708V3.66667C15.4007 3.47217 15.3235 3.28565 15.1859 3.14812C15.0484 3.0106 14.8619 2.93333 14.6674 2.93333C14.4729 2.93333 14.2864 3.0106 14.1488 3.14812C14.0113 3.28565 13.9341 3.47217 13.9341 3.66667V4.60708C13.9034 4.61569 13.8724 4.62293 13.8424 4.63265L13.8332 4.63567L12.8524 4.96522C12.5124 5.07876 12.2255 5.31236 12.0454 5.62226C11.8653 5.93215 11.8044 6.29708 11.874 6.64867L12.4595 9.56239C11.984 9.97706 11.6471 10.5275 11.4941 11.1396L11.0235 13.0217C10.9895 13.1578 10.9952 13.3007 11.04 13.4336C11.0847 13.5665 11.1667 13.6838 11.2761 13.7716C11.3855 13.8593 11.5177 13.9138 11.6572 13.9287C11.7966 13.9436 11.9374 13.9181 12.0629 13.8554L13.9936 12.8902C14.2251 12.7736 14.4775 12.7041 14.7361 12.6857C14.9946 12.6673 15.2543 12.7004 15.5 12.7831C16.0814 12.9779 16.5817 13.3601 16.9226 13.8698C17.1244 14.1707 17.2645 14.5087 17.3348 14.8641C17.4051 15.2195 17.4043 15.5854 17.3322 15.9405L16.9129 18.0376L15.1666 20.5227C15.0015 20.6768 14.7891 20.7707 14.5639 20.789C14.3388 20.8073 14.114 20.749 13.9262 20.6235L13.8978 20.6047C13.7207 20.4871 13.5846 20.3173 13.5086 20.1188C13.4326 19.9203 13.4204 19.703 13.4736 19.4972C13.5451 19.2243 13.6185 18.9389 13.6845 18.6807C13.7863 18.2769 13.7717 17.8525 13.6421 17.4567C13.5125 17.0609 13.2734 16.71 12.9525 16.4446L1.19966 6.76683C1.07505 6.66417 0.920051 6.60549 0.758696 6.59991C0.597341 6.59432 0.438653 6.64214 0.307249 6.73595C0.175846 6.82976 0.0790724 6.96431 0.0319417 7.11873C-0.015189 7.27315 -0.0100425 7.4388 0.0465828 7.59L1.26758 10.8461C1.95468 12.6757 3.10485 14.2956 4.60562 15.5475L4.94222 15.8279L1.55752 15.4049C1.41812 15.3874 1.27665 15.4104 1.14993 15.4711C1.02321 15.5317 0.916576 15.6275 0.842716 15.747C0.768856 15.8665 0.730878 16.0047 0.733297 16.1452C0.735717 16.2856 0.778434 16.4224 0.856366 16.5393C1.89258 18.1001 3.39598 19.2931 5.15141 19.9476L5.67097 20.1424L2.11889 20.537C1.96639 20.554 1.82305 20.6183 1.70906 20.721C1.59506 20.8237 1.51615 20.9596 1.48344 21.1095C1.45073 21.2594 1.46586 21.4158 1.52671 21.5567C1.58756 21.6975 1.69105 21.8157 1.82262 21.8947L3.10825 22.6664C4.64713 23.5915 6.33695 24.2383 8.10023 24.577C6.9776 25.3482 6.01241 26.3265 5.25646 27.4595C5.18271 27.5699 5.14035 27.6984 5.13389 27.831C5.12743 27.9637 5.15713 28.0956 5.2198 28.2127C5.28247 28.3298 5.37577 28.4277 5.48974 28.4959C5.6037 28.5641 5.73405 28.6001 5.86686 28.6H6.15607C7.57958 28.6013 8.98494 28.2805 10.2668 27.6616V29.3333C10.2669 29.4784 10.3099 29.6201 10.3905 29.7407C10.4711 29.8612 10.5856 29.9552 10.7196 30.0107C10.8535 30.0662 11.001 30.0807 11.1432 30.0524C11.2854 30.0241 11.4161 29.9543 11.5186 29.8518L13.2002 28.1704L14.1483 29.1185C14.225 29.1952 14.3178 29.2539 14.42 29.2904C14.5221 29.327 14.6311 29.3404 14.7391 29.3297C14.847 29.319 14.9513 29.2845 15.0443 29.2286C15.1373 29.1728 15.2168 29.097 15.277 29.0067L15.9301 28.0271C16.1576 27.6853 16.4846 27.4216 16.8668 27.2718V27.3826C16.8657 27.966 16.6346 28.5254 16.2236 28.9394L15.703 29.4601C15.1401 30.02 14.6939 30.686 14.3902 31.4195C14.0865 32.153 13.9312 32.9394 13.9335 33.7333C13.9336 33.9132 13.9998 34.0868 14.1196 34.221C14.2393 34.3553 14.4042 34.4408 14.5829 34.4614L14.1618 35.3037L13.2464 35.5328L11.3752 33.4402C11.6284 33.038 11.7444 32.5646 11.7059 32.091C11.6674 31.6173 11.4764 31.1689 11.1616 30.8129C10.8467 30.4569 10.425 30.2126 9.95962 30.1165C9.49421 30.0204 9.01019 30.0778 8.58011 30.2799C8.15004 30.4821 7.79707 30.8182 7.57411 31.2379C7.35116 31.6576 7.27023 32.1382 7.34346 32.6078C7.41668 33.0773 7.64012 33.5105 7.98028 33.8424C8.32044 34.1742 8.75899 34.3869 9.23021 34.4485C9.32549 34.461 9.42148 34.4673 9.51758 34.4673C9.75664 34.4667 9.99395 34.4267 10.22 34.349L11.6381 35.9348L11.5556 35.9554C11.4622 35.9788 11.3742 36.0203 11.2969 36.0777C11.2195 36.135 11.1541 36.207 11.1046 36.2896C11.0045 36.4564 10.9748 36.6561 11.022 36.8448C11.0692 37.0335 11.1894 37.1957 11.3562 37.2958C11.5229 37.3958 11.7227 37.4255 11.9113 37.3784L12.7455 37.1699L13.3891 37.8839C13.4536 37.9554 13.5315 38.0136 13.6185 38.055C13.7054 38.0964 13.7997 38.1203 13.8958 38.1253C13.992 38.1303 14.0882 38.1163 14.179 38.0841C14.2698 38.0519 14.3533 38.0021 14.4248 37.9376C14.4964 37.8731 14.5545 37.7952 14.5959 37.7083C14.6373 37.6213 14.6612 37.5271 14.6662 37.4309C14.6712 37.3347 14.6572 37.2385 14.625 37.1477C14.5928 37.057 14.543 36.9734 14.4786 36.9019L14.357 36.767L14.845 36.645C14.9477 36.6194 15.0435 36.5718 15.1261 36.5056C15.2086 36.4394 15.2758 36.3561 15.3231 36.2615L16.22 34.4667H16.8668C17.003 34.4667 17.1365 34.4287 17.2524 34.3571C17.3682 34.2855 17.4618 34.183 17.5227 34.0612C17.8284 33.446 18.282 32.9163 18.8427 32.5194L19.0513 32.8323L17.3215 35.8593C16.5436 37.2221 16.1341 38.7641 16.1335 40.3333C16.1335 40.5278 16.2108 40.7144 16.3483 40.8519C16.4858 40.9894 16.6724 41.0667 16.8668 41.0667C17.0613 41.0667 17.2479 40.9894 17.3854 40.8519C17.5229 40.7144 17.6002 40.5278 17.6002 40.3333C17.6007 39.0193 17.9436 37.7282 18.595 36.587L19.5967 34.8342L19.5089 35.0536C18.7175 37.0208 18.5704 39.1884 19.0888 41.2445C19.1118 41.3383 19.1531 41.4266 19.2103 41.5044C19.2675 41.5822 19.3396 41.648 19.4223 41.6978C19.505 41.7477 19.5967 41.7808 19.6923 41.7951C19.7878 41.8094 19.8852 41.8047 19.9789 41.7813C20.0726 41.7579 20.1607 41.7162 20.2383 41.6586C20.3158 41.601 20.3812 41.5287 20.4307 41.4457C20.4802 41.3628 20.5128 41.2709 20.5267 41.1753C20.5406 41.0797 20.5355 40.9823 20.5116 40.8887C20.0687 39.1317 20.1944 37.2794 20.8707 35.5983L20.8798 35.575L21.2667 36.1553V43.2667C21.2667 43.4612 21.3439 43.6477 21.4814 43.7852C21.619 43.9227 21.8055 44 22 44C22.1945 44 22.381 43.9227 22.5185 43.7852C22.6561 43.6477 22.7333 43.4612 22.7333 43.2667V36.1549L23.1202 35.5746L23.1293 35.5979C23.8056 37.279 23.9313 39.1313 23.4884 40.8884C23.4645 40.982 23.4594 41.0794 23.4733 41.1749C23.4872 41.2705 23.5198 41.3624 23.5693 41.4453C23.6188 41.5283 23.6842 41.6006 23.7617 41.6582C23.8393 41.7158 23.9274 41.7575 24.0211 41.7809C24.1148 41.8044 24.2122 41.8091 24.3077 41.7947C24.4033 41.7804 24.495 41.7474 24.5777 41.6975C24.6604 41.6476 24.7325 41.5819 24.7897 41.5041C24.8469 41.4263 24.8882 41.3379 24.9112 41.2441C25.4295 39.188 25.2824 37.0205 24.491 35.0532L24.4032 34.8332L25.405 36.5864C26.0566 37.7277 26.3996 39.0191 26.4002 40.3333C26.4002 40.5278 26.4774 40.7144 26.615 40.8519C26.7525 40.9894 26.939 41.0667 27.1335 41.0667C27.328 41.0667 27.5145 40.9894 27.6521 40.8519C27.7896 40.7144 27.8668 40.5278 27.8668 40.3333C27.8662 38.7641 27.4567 37.2221 26.6788 35.8593L24.9489 32.8323L25.1575 32.5194C25.7182 32.9163 26.1717 33.446 26.4775 34.0612C26.5384 34.1831 26.632 34.2855 26.7479 34.3572C26.8638 34.4288 26.9973 34.4667 27.1335 34.4667H27.7803L28.6776 36.2612C28.7249 36.3558 28.792 36.439 28.8745 36.5051C28.9569 36.5713 29.0526 36.6189 29.1551 36.6446L31.0521 37.1204C31.2532 37.5747 31.5664 37.9705 31.9623 38.2707C32.3582 38.5709 32.8238 38.7655 33.3156 38.8365C33.8073 38.9074 34.309 38.8523 34.7736 38.6763C35.2383 38.5002 35.6505 38.2091 35.9718 37.8301C36.2931 37.4512 36.5129 36.9968 36.6105 36.5097C36.7082 36.0225 36.6805 35.5186 36.5301 35.0451C36.3796 34.5715 36.1114 34.144 35.7505 33.8025C35.3896 33.461 34.9479 33.2168 34.4668 33.0928V32.2667C34.4668 32.0722 34.3896 31.8856 34.2521 31.7481C34.1145 31.6106 33.928 31.5333 33.7335 31.5333C33.539 31.5333 33.3525 31.6106 33.215 31.7481C33.0774 31.8856 33.0002 32.0722 33.0002 32.2667V33.0928C32.4344 33.2401 31.9254 33.5526 31.5381 33.9906C31.1508 34.4286 30.9028 34.972 30.8258 35.5515L29.8388 35.304L29.4171 34.4615C29.5959 34.441 29.7609 34.3555 29.8807 34.2212C30.0005 34.0869 30.0668 33.9133 30.0668 33.7333C30.0691 32.9395 29.914 32.153 29.6103 31.4195C29.3066 30.686 28.8605 30.02 28.2977 29.4601L27.777 28.9394C27.3661 28.5254 27.135 27.966 27.1338 27.3826V27.2718C27.516 27.4216 27.843 27.6853 28.0705 28.0271L28.7237 29.0067C28.7838 29.097 28.8633 29.1728 28.9563 29.2286C29.0493 29.2845 29.1536 29.319 29.2616 29.3297C29.3695 29.3404 29.4785 29.327 29.5807 29.2904C29.6828 29.2539 29.7756 29.1952 29.8523 29.1185L30.8005 28.1704L32.4819 29.8518C32.5845 29.9543 32.7151 30.024 32.8573 30.0523C32.9995 30.0805 33.1469 30.066 33.2808 30.0105C33.4148 29.955 33.5293 29.8611 33.6098 29.7405C33.6904 29.62 33.7334 29.4783 33.7335 29.3333V27.6612C35.0154 28.2803 36.4208 28.6012 37.8443 28.6H38.1335C38.2662 28.6 38.3965 28.564 38.5104 28.4958C38.6242 28.4275 38.7174 28.3297 38.7801 28.2127C38.8427 28.0956 38.8724 27.9638 38.866 27.8312C38.8596 27.6986 38.8173 27.5703 38.7436 27.4599C37.9877 26.3269 37.0226 25.3486 35.9 24.5774C37.6632 24.2386 39.353 23.5919 40.8919 22.6668L42.1775 21.8954C42.309 21.8165 42.4125 21.6982 42.4734 21.5574C42.5342 21.4165 42.5494 21.2601 42.5167 21.1102C42.4839 20.9603 42.405 20.8245 42.291 20.7217C42.177 20.619 42.0337 20.5547 41.8812 20.5377L38.3291 20.1431L38.8486 19.9483C40.6041 19.2939 42.1075 18.1009 43.1437 16.5401C43.2218 16.4232 43.2646 16.2863 43.2671 16.1457C43.2696 16.0052 43.2316 15.8669 43.1577 15.7473C43.0838 15.6277 42.9771 15.5319 42.8503 15.4713C42.7234 15.4106 42.5819 15.3877 42.4424 15.4052L39.0577 15.8283L39.3943 15.5479C40.8951 14.296 42.0454 12.6761 42.7325 10.8465ZM9.42106 32.9936C9.23676 32.969 9.06867 32.8754 8.95078 32.7317C8.83289 32.5879 8.77401 32.4047 8.78604 32.2192C8.79807 32.0337 8.88012 31.8596 9.01559 31.7323C9.15106 31.605 9.32983 31.5339 9.51575 31.5333C9.66727 31.5331 9.81514 31.5798 9.93898 31.6671C10.0628 31.7544 10.1565 31.878 10.2071 32.0208C10.2578 32.1636 10.2629 32.3186 10.2217 32.4645C10.1806 32.6103 10.0952 32.7397 9.97738 32.835C9.96308 32.8448 9.94915 32.8554 9.9354 32.8663C9.78587 32.9715 9.60238 33.0169 9.42106 32.9936ZM33.7335 37.4C33.4764 37.3997 33.2239 37.3317 33.0013 37.203C32.7787 37.0743 32.5939 36.8893 32.4653 36.6667H35.0017C34.8732 36.8893 34.6883 37.0743 34.4657 37.203C34.2431 37.3317 33.9906 37.3997 33.7335 37.4ZM35.0017 35.2H34.4668V34.6651C34.6886 34.7939 34.873 34.9782 35.0017 35.2ZM33.0002 34.6651V35.2H32.4653C32.594 34.9781 32.7784 34.7937 33.0002 34.6648V34.6651ZM18.3335 19.0667H25.6668V27.5429C25.667 27.6969 25.6186 27.8469 25.5286 27.9718C25.4386 28.0967 25.3115 28.1901 25.1654 28.2387L22.0002 29.2937L18.8349 28.2387C18.6888 28.1901 18.5618 28.0967 18.4717 27.9718C18.3817 27.8469 18.3334 27.6969 18.3335 27.5429V19.0667ZM30.6642 11.5784C30.2606 11.3752 29.8206 11.254 29.3699 11.222C28.9191 11.1899 28.4664 11.2476 28.0381 11.3917C27.1475 11.6901 26.3811 12.2755 25.8589 13.0562C25.5498 13.5171 25.3352 14.0347 25.2274 14.5792C25.1197 15.1236 25.121 15.6839 25.2313 16.2278L25.5057 17.6H22.8457L23.219 14.9875C23.4061 13.6773 24.0596 12.4785 25.0594 11.6114C26.0593 10.7442 27.3384 10.2667 28.6619 10.2667H29.5107C29.8725 10.2666 30.2239 10.3874 30.5091 10.61C30.7943 10.8326 30.997 11.1441 31.0849 11.495L31.1688 11.8302L30.6642 11.5784ZM27.983 6.35607L28.9604 6.02782C29.2032 5.95173 29.4634 5.95173 29.7061 6.02782L30.6899 6.35992L30.1844 8.87535C29.9633 8.82553 29.7373 8.80017 29.5107 8.79973H28.6619C28.5975 8.79973 28.5334 8.80064 28.4694 8.80247L27.983 6.35607ZM19.8899 3.8335L22.0002 2.98934L24.1105 3.8335C24.2841 3.90311 24.4245 4.03632 24.5031 4.20593C24.5818 4.37555 24.5928 4.56879 24.5338 4.74623L23.6716 7.33333H20.3287L19.4665 4.74668C19.4074 4.56918 19.4184 4.37581 19.4971 4.20609C19.5757 4.03637 19.7163 3.9031 19.8899 3.8335ZM20.1924 8.79954H23.8076L24.652 10.0662C23.3851 10.9609 22.4521 12.2519 22 13.7355C21.5478 12.252 20.6148 10.961 19.348 10.0662L20.1924 8.79954ZM14.2938 6.02782C14.5365 5.9516 14.7967 5.9516 15.0395 6.02782L16.0232 6.35983L15.5324 8.80238C15.468 8.80061 15.4033 8.7997 15.3385 8.79963H14.4897C14.2634 8.80007 14.0378 8.82537 13.817 8.87508L13.3162 6.35607L14.2938 6.02782ZM15.9621 11.3917C15.5338 11.2476 15.0811 11.1899 14.6303 11.2219C14.1795 11.254 13.7396 11.3752 13.3359 11.5784L12.8318 11.8306L12.9156 11.4953C13.0034 11.1443 13.206 10.8328 13.4912 10.6101C13.7764 10.3875 14.1279 10.2666 14.4897 10.2667H15.3385C16.662 10.2667 17.9411 10.7441 18.941 11.6113C19.9408 12.4785 20.5943 13.6773 20.7814 14.9875L21.1546 17.6H18.4948L18.769 16.2286C18.8793 15.6847 18.8806 15.1243 18.7729 14.5799C18.6652 14.0355 18.4506 13.5178 18.1415 13.0569C17.6193 12.276 16.8529 11.6903 15.9623 11.3917H15.9621ZM14.7096 27.2134L14.5526 27.4487L13.7185 26.6145C13.5809 26.477 13.3944 26.3997 13.1999 26.3997C13.0055 26.3997 12.819 26.477 12.6814 26.6145L11.7333 27.5626V26.4C11.7333 26.2673 11.6973 26.137 11.6291 26.0231C11.5609 25.9092 11.4631 25.816 11.346 25.7534C11.229 25.6907 11.0972 25.661 10.9646 25.6674C10.832 25.6739 10.7036 25.7161 10.5932 25.7898C9.6535 26.4174 8.59115 26.8382 7.47653 27.0243C8.21133 26.2539 9.07378 25.6165 10.0258 25.14L10.5941 24.8559C10.7326 24.7866 10.8456 24.6753 10.917 24.5379C10.9884 24.4005 11.0144 24.244 10.9914 24.0909C10.9684 23.9378 10.8975 23.7959 10.7889 23.6855C10.6802 23.5752 10.5395 23.502 10.3867 23.4766L8.72576 23.1997C7.23725 22.9529 5.7992 22.464 4.46867 21.7525L8.88114 21.2623C9.04498 21.2441 9.19791 21.1712 9.31527 21.0555C9.43262 20.9397 9.50754 20.7878 9.52794 20.6242C9.54834 20.4606 9.51304 20.2949 9.42772 20.1539C9.3424 20.0128 9.21204 19.9046 9.05769 19.8468L5.66666 18.5746C4.77294 18.2411 3.95178 17.7386 3.24804 17.0945L7.24241 17.5939C7.39969 17.6135 7.5591 17.5817 7.69677 17.5032C7.83445 17.4246 7.94297 17.3036 8.00608 17.1582C8.0692 17.0128 8.08351 16.8509 8.04687 16.6967C8.01024 16.5425 7.92463 16.4043 7.80286 16.3028L5.54484 14.4211C4.23934 13.3322 3.23884 11.923 2.64121 10.3315L2.38206 9.64049L12.0188 17.5766C12.1252 17.6645 12.2046 17.7807 12.2476 17.9119C12.2907 18.043 12.2957 18.1837 12.2621 18.3176C12.1967 18.5731 12.124 18.8556 12.0533 19.1256C11.9228 19.6268 11.9519 20.1562 12.1365 20.6401C12.3211 21.124 12.652 21.5383 13.0832 21.8252L13.1116 21.8441C13.592 22.1644 14.1694 22.3063 14.7435 22.245C15.3176 22.1837 15.852 21.9231 16.2539 21.5085C16.2807 21.4809 16.3052 21.4512 16.3272 21.4197L16.8667 20.652V22.3667L16.342 22.7602C15.8445 23.1324 15.244 23.3415 14.6229 23.3587C14.0019 23.376 13.3907 23.2005 12.8734 22.8564C12.7933 22.803 12.7034 22.7659 12.6089 22.7472C12.5144 22.7285 12.4172 22.7286 12.3228 22.7475C12.2284 22.7664 12.1386 22.8037 12.0585 22.8573C11.9785 22.9109 11.9099 22.9797 11.8564 23.0599C11.803 23.14 11.7659 23.2298 11.7472 23.3243C11.7285 23.4188 11.7286 23.516 11.7475 23.6105C11.7664 23.7049 11.8037 23.7947 11.8573 23.8747C11.9109 23.9547 11.9797 24.0234 12.0598 24.0768C12.7689 24.5485 13.5978 24.8081 14.4492 24.8252C15.3006 24.8423 16.1393 24.6161 16.8667 24.1732V25.746C15.984 25.9355 15.2102 26.4618 14.7097 27.2132L14.7096 27.2134ZM27.2601 30.497C27.9416 31.1746 28.3904 32.051 28.5422 33H27.566C27.0152 32.0878 26.2158 31.3514 25.2615 30.8774C25.1016 30.7974 24.9181 30.7786 24.7453 30.8245C24.5726 30.8704 24.4225 30.9778 24.3234 31.1265L22.0002 34.6112L19.677 31.1262C19.5778 30.9775 19.4278 30.8701 19.2551 30.8242C19.0824 30.7783 18.8988 30.7971 18.739 30.877C17.7845 31.3512 16.985 32.0876 16.4343 33H15.4581C15.61 32.0512 16.0588 31.1751 16.7401 30.4975L17.2607 29.9768C17.457 29.7798 17.6299 29.5609 17.7761 29.3244C17.9577 29.4561 18.1583 29.5592 18.3711 29.6302L21.7683 30.7627C21.9188 30.8129 22.0816 30.8129 22.2321 30.7627L25.6292 29.6302C25.842 29.5593 26.0427 29.4561 26.2243 29.3244C26.3704 29.5609 26.5434 29.7798 26.7396 29.9768L27.2601 30.497ZM38.4554 14.4211L36.1974 16.3028C36.0757 16.4043 35.9901 16.5425 35.9534 16.6967C35.9168 16.8509 35.9311 17.0128 35.9942 17.1582C36.0573 17.3035 36.1658 17.4246 36.3035 17.5031C36.4411 17.5817 36.6005 17.6135 36.7578 17.5939L40.7523 17.0945C40.0486 17.7386 39.2274 18.2411 38.3336 18.5746L34.9427 19.8463C34.7883 19.9042 34.658 20.0124 34.5727 20.1534C34.4873 20.2945 34.452 20.4601 34.4724 20.6237C34.4928 20.7873 34.5678 20.9392 34.6851 21.055C34.8025 21.1708 34.9554 21.2436 35.1192 21.2618L39.5317 21.752C38.201 22.4636 36.7628 22.9525 35.2741 23.1994L33.6131 23.4762C33.4603 23.5017 33.3196 23.5748 33.2109 23.6852C33.1023 23.7955 33.0314 23.9374 33.0084 24.0905C32.9854 24.2437 33.0114 24.4001 33.0828 24.5376C33.1542 24.675 33.2672 24.7863 33.4057 24.8555L33.974 25.1397C34.926 25.6161 35.7884 26.2536 36.5232 27.0239C35.4086 26.8379 34.3462 26.4171 33.4065 25.7894C33.2961 25.7159 33.1677 25.6737 33.0352 25.6674C32.9026 25.661 32.7708 25.6908 32.6539 25.7535C32.5369 25.8161 32.4391 25.9094 32.371 26.0232C32.3028 26.1371 32.2668 26.2673 32.2668 26.4V27.5629L31.3187 26.6148C31.2506 26.5467 31.1698 26.4927 31.0808 26.4558C30.9918 26.4189 30.8965 26.4 30.8002 26.4C30.7039 26.4 30.6085 26.4189 30.5195 26.4558C30.4306 26.4927 30.3497 26.5467 30.2816 26.6148L29.4475 27.4489L29.2905 27.2136C28.7902 26.4621 28.0162 25.9356 27.1335 25.7461V24.1725C27.8609 24.6154 28.6995 24.8415 29.551 24.8244C30.4024 24.8074 31.2313 24.5477 31.9403 24.0761C32.1022 23.9682 32.2145 23.8004 32.2526 23.6097C32.2908 23.419 32.2516 23.2209 32.1437 23.0591C32.0359 22.8973 31.8681 22.7849 31.6774 22.7468C31.4867 22.7086 31.2886 22.7478 31.1268 22.8557C30.6095 23.1998 29.9983 23.3752 29.3773 23.358C28.7562 23.3408 28.1557 23.1317 27.6583 22.7595L27.1335 22.3667V20.6525L27.673 21.4202C27.6951 21.4517 27.7196 21.4814 27.7463 21.509C28.1482 21.9236 28.6827 22.1841 29.2569 22.2454C29.831 22.3066 30.4084 22.1646 30.8887 21.8442L30.9176 21.825C31.3487 21.5381 31.6795 21.1239 31.864 20.64C32.0485 20.1562 32.0775 19.6269 31.947 19.1258C31.8763 18.8557 31.8036 18.5732 31.7383 18.3177C31.7047 18.1838 31.7097 18.0431 31.7527 17.912C31.7958 17.7808 31.8751 17.6646 31.9816 17.5767L41.6183 9.64049L41.3593 10.3315C40.7616 11.923 39.761 13.3322 38.4554 14.4211Z" fill="#7F94A8"/>
</g>
<defs>
<clipPath id="clip0_1748_1106">
<rect width="44" height="44" fill="white"/>
</clipPath>
</defs>
</svg>
