<svg width="44" height="44" viewBox="0 0 44 44" fill="none" xmlns="http://www.w3.org/2000/svg">
<path d="M14.5244 13.8779H10.9886C10.5818 13.8779 10.252 14.2077 10.252 14.6145V18.7395C10.252 19.1463 10.5818 19.4761 10.9886 19.4761H14.5244C14.9312 19.4761 15.261 19.1463 15.261 18.7395V14.6145C15.261 14.2077 14.9312 13.8779 14.5244 13.8779ZM13.7878 18.0029H11.7253V15.3511H13.7878V18.0029Z" fill="#7F94A8"/>
<path d="M14.5244 22.1279H10.9886C10.5818 22.1279 10.252 22.4577 10.252 22.8645V26.9895C10.252 27.3963 10.5818 27.7261 10.9886 27.7261H14.5244C14.9312 27.7261 15.261 27.3963 15.261 26.9895V22.8645C15.261 22.4577 14.9312 22.1279 14.5244 22.1279ZM13.7878 26.2529H11.7253V23.6011H13.7878V26.2529Z" fill="#7F94A8"/>
<path d="M14.5244 30.3779H10.9886C10.5818 30.3779 10.252 30.7077 10.252 31.1145V35.2395C10.252 35.6463 10.5818 35.9761 10.9886 35.9761H14.5244C14.9312 35.9761 15.261 35.6463 15.261 35.2395V31.1145C15.261 30.7077 14.9312 30.3779 14.5244 30.3779ZM13.7878 34.5029H11.7253V31.8511H13.7878V34.5029Z" fill="#7F94A8"/>
<path d="M33.7489 30.3779H30.2132C29.8064 30.3779 29.4766 30.7077 29.4766 31.1145V35.2395C29.4766 35.6463 29.8064 35.9761 30.2132 35.9761H33.7489C34.1558 35.9761 34.4855 35.6463 34.4855 35.2395V31.1145C34.4855 30.7077 34.1558 30.3779 33.7489 30.3779ZM33.0123 34.5029H30.9498V31.8511H33.0123V34.5029Z" fill="#7F94A8"/>
<path d="M20.9325 13.8779H17.3968C16.99 13.8779 16.6602 14.2077 16.6602 14.6145V18.7395C16.6602 19.1463 16.99 19.4761 17.3968 19.4761H20.9325C21.3393 19.4761 21.6691 19.1463 21.6691 18.7395V14.6145C21.6691 14.2077 21.3393 13.8779 20.9325 13.8779ZM20.1959 18.0029H18.1334V15.3511H20.1959V18.0029Z" fill="#7F94A8"/>
<path d="M27.3407 13.8779H23.805C23.3981 13.8779 23.0684 14.2077 23.0684 14.6145V18.7395C23.0684 19.1463 23.3981 19.4761 23.805 19.4761H27.3407C27.7475 19.4761 28.0773 19.1463 28.0773 18.7395V14.6145C28.0773 14.2077 27.7475 13.8779 27.3407 13.8779ZM26.6041 18.0029H24.5416V15.3511H26.6041V18.0029Z" fill="#7F94A8"/>
<path d="M20.9325 22.1279H17.3968C16.99 22.1279 16.6602 22.4577 16.6602 22.8645V26.9895C16.6602 27.3963 16.99 27.7261 17.3968 27.7261H20.9325C21.3393 27.7261 21.6691 27.3963 21.6691 26.9895V22.8645C21.6691 22.4577 21.3393 22.1279 20.9325 22.1279ZM20.1959 26.2529H18.1334V23.6011H20.1959V26.2529Z" fill="#7F94A8"/>
<path d="M27.3407 22.1279H23.805C23.3981 22.1279 23.0684 22.4577 23.0684 22.8645V26.9895C23.0684 27.3963 23.3981 27.7261 23.805 27.7261H27.3407C27.7475 27.7261 28.0773 27.3963 28.0773 26.9895V22.8645C28.0773 22.4577 27.7475 22.1279 27.3407 22.1279ZM26.6041 26.2529H24.5416V23.6011H26.6041V26.2529Z" fill="#7F94A8"/>
<path d="M33.7489 13.8779H30.2132C29.8064 13.8779 29.4766 14.2077 29.4766 14.6145V18.7395C29.4766 19.1463 29.8064 19.4761 30.2132 19.4761H33.7489C34.1558 19.4761 34.4855 19.1463 34.4855 18.7395V14.6145C34.4855 14.2077 34.1558 13.8779 33.7489 13.8779ZM33.0123 18.0029H30.9498V15.3511H33.0123V18.0029Z" fill="#7F94A8"/>
<path d="M33.7489 22.1279H30.2132C29.8064 22.1279 29.4766 22.4577 29.4766 22.8645V26.9895C29.4766 27.3963 29.8064 27.7261 30.2132 27.7261H33.7489C34.1558 27.7261 34.4855 27.3963 34.4855 26.9895V22.8645C34.4855 22.4577 34.1558 22.1279 33.7489 22.1279ZM33.0123 26.2529H30.9498V23.6011H33.0123V26.2529Z" fill="#7F94A8"/>
<path d="M40.1203 39.3837H37.3572V10.808C37.3572 10.4011 37.0274 10.0714 36.6206 10.0714H32.5323V7.4149C32.5323 7.00808 32.2025 6.6783 31.7957 6.6783H27.7453V3.87919C27.7453 3.47236 27.4155 3.14258 27.0087 3.14258H16.9908C16.584 3.14258 16.2542 3.47236 16.2542 3.87919V6.6783H12.2039C11.7971 6.6783 11.4673 7.00808 11.4673 7.4149V10.0714H7.37888C6.97206 10.0714 6.64228 10.4011 6.64228 10.808V39.3837H3.87919C3.47236 39.3837 3.14258 39.7135 3.14258 40.1203C3.14258 40.5271 3.47236 40.8569 3.87919 40.8569H40.1203C40.5271 40.8569 40.8569 40.5271 40.8569 40.1203C40.8569 39.7135 40.5271 39.3837 40.1203 39.3837ZM17.7274 4.6158H26.2721V6.6783H17.7274V4.6158ZM25.0935 39.3837H19.9969L25.0935 34.287V39.3837ZM25.0935 32.2082C25.0771 32.222 25.0609 32.2362 25.0454 32.2516L18.906 38.391V35.2692L23.6308 30.5444H25.0935V32.2082ZM18.906 33.1857V30.5444H21.5473L18.906 33.1857ZM35.884 39.3837H30.9503H26.5667V30.5444H26.8245C27.2314 30.5444 27.5611 30.2146 27.5611 29.8078C27.5611 29.401 27.2314 29.0712 26.8245 29.0712H17.175C16.7682 29.0712 16.4384 29.401 16.4384 29.8078C16.4384 30.2146 16.7682 30.5444 17.175 30.5444H17.4328V39.3837H8.11549V11.5446H16.2924C16.6992 11.5446 17.029 11.2148 17.029 10.808C17.029 10.4011 16.6992 10.0714 16.2924 10.0714H12.9405V8.15151H31.0591V10.0714H22.112C21.7052 10.0714 21.3754 10.4011 21.3754 10.808C21.3754 11.2148 21.7052 11.5446 22.112 11.5446H35.884V39.3837Z" fill="#7F94A8"/>
<path d="M19.6851 10.2871C19.5481 10.1501 19.3581 10.0713 19.1643 10.0713C18.9706 10.0713 18.7806 10.1501 18.6435 10.2871C18.5065 10.4241 18.4277 10.6142 18.4277 10.8079C18.4277 11.0016 18.5065 11.1917 18.6435 11.3287C18.7806 11.4664 18.9706 11.5445 19.1643 11.5445C19.3581 11.5445 19.5481 11.4664 19.6851 11.3287C19.8221 11.1917 19.9009 11.0016 19.9009 10.8079C19.9009 10.6142 19.8221 10.4241 19.6851 10.2871Z" fill="#7F94A8"/>
</svg>
