<svg width="45" height="45" viewBox="0 0 45 45" fill="none" xmlns="http://www.w3.org/2000/svg">
<path d="M44.086 40.617C44.086 42.279 42.74 43.625 41.078 43.625H4.37901C2.71701 43.625 1.37201 42.279 1.37201 40.617V3.916C1.37201 2.254 2.71701 0.908997 4.37901 0.908997H41.078C42.74 0.908997 44.086 2.254 44.086 3.916V40.617V40.617Z" stroke="#979797" stroke-miterlimit="10"/>
<path fill-rule="evenodd" clip-rule="evenodd" d="M32.077 33.628C31.276 33.153 30.533 32.721 29.798 32.277C29.63 32.174 29.51 32.151 29.318 32.266C27.075 33.593 24.657 34.207 22.043 34.059C18.821 33.873 16.043 32.666 13.759 30.405C10.942 27.614 9.69403 24.195 9.94703 20.247C10.323 14.403 14.878 9.439 20.669 8.517C27.737 7.392 34.369 12.232 35.396 19.318C35.963 23.236 34.919 26.718 32.32 29.715C32.14 29.921 32.072 30.124 32.074 30.39C32.084 31.445 32.077 32.498 32.077 33.628ZM30.992 31.659C30.992 31.268 31.024 30.955 30.985 30.649C30.892 29.935 31.059 29.334 31.632 28.87C31.705 28.811 31.755 28.724 31.816 28.65C35.833 23.701 35.222 16.471 30.368 12.377C26.974 9.517 23.056 8.773 18.889 10.224C10.747 13.06 8.50302 22.993 14.006 29.071C16.736 32.088 20.191 33.284 24.196 32.858C26.027 32.663 27.724 32.003 29.244 30.936C29.411 30.819 29.539 30.797 29.722 30.915C30.113 31.164 30.521 31.384 30.992 31.659Z" fill="#979797"/>
<path fill-rule="evenodd" clip-rule="evenodd" d="M30.562 18.318C30.562 18.695 30.562 19.041 30.562 19.412C25.361 19.412 20.169 19.412 14.958 19.412C14.958 19.047 14.958 18.693 14.958 18.318C20.159 18.318 25.342 18.318 30.562 18.318Z" fill="#979797"/>
<path fill-rule="evenodd" clip-rule="evenodd" d="M30.555 20.658C30.555 21.037 30.555 21.381 30.555 21.747C25.356 21.747 20.173 21.747 14.964 21.747C14.964 21.383 14.964 21.032 14.964 20.658C20.162 20.658 25.344 20.658 30.555 20.658Z" fill="#979797"/>
<path fill-rule="evenodd" clip-rule="evenodd" d="M14.962 24.174C14.962 23.805 14.962 23.452 14.962 23.082C19.281 23.082 23.577 23.082 27.899 23.082C27.899 23.446 27.899 23.798 27.899 24.174C23.588 24.174 19.283 24.174 14.962 24.174Z" fill="#979797"/>
</svg>
