<svg width="45" height="45" viewBox="0 0 45 45" fill="none" xmlns="http://www.w3.org/2000/svg">
<path d="M44.189 40.618C44.189 42.28 42.843 43.626 41.181 43.626H4.48201C2.82001 43.626 1.47501 42.28 1.47501 40.618V3.917C1.47501 2.255 2.82001 0.908997 4.48201 0.908997H41.181C42.843 0.908997 44.189 2.255 44.189 3.917V40.618Z" stroke="#979797" stroke-miterlimit="10"/>
<path fill-rule="evenodd" clip-rule="evenodd" d="M8.88202 19.41C9.18402 18.527 9.34202 17.555 9.82102 16.783C10.5 15.692 11.36 14.695 12.257 13.767C12.672 13.336 13.329 13.086 13.923 12.894C14.664 12.655 15.421 12.811 15.918 13.45C16.87 14.68 17.795 15.935 18.665 17.223C19.236 18.066 18.954 18.921 18.376 19.649C17.907 20.239 17.367 20.777 16.825 21.302C16.437 21.677 16.315 22.048 16.714 22.452C18.307 24.063 19.905 25.669 21.514 27.263C21.904 27.65 22.284 27.58 22.668 27.175C23.17 26.645 23.693 26.125 24.262 25.666C25.241 24.874 26.006 24.797 27.052 25.482C28.177 26.217 29.264 27.017 30.309 27.861C31.248 28.618 31.394 29.452 30.946 30.589C29.575 34.058 24.837 35.866 21.567 34.121C20.699 33.657 19.829 33.118 19.124 32.44C16.559 29.963 14.022 27.453 11.558 24.874C10.365 23.624 9.44602 22.145 9.13902 20.379C9.08602 20.078 9.06102 19.772 9.02302 19.468C8.97502 19.449 8.92902 19.43 8.88202 19.41ZM24.476 33.343C26.024 33.244 28.722 31.428 29.339 30.016C29.523 29.598 29.464 29.308 29.093 29.043C28.133 28.357 27.173 27.669 26.233 26.957C25.847 26.666 25.547 26.757 25.243 27.05C24.748 27.525 24.261 28.008 23.756 28.471C22.693 29.45 21.712 29.644 20.657 28.697C18.781 27.015 16.988 25.225 15.305 23.352C14.334 22.272 14.531 21.281 15.539 20.195C15.99 19.711 16.455 19.24 16.918 18.767C17.238 18.437 17.307 18.121 17.001 17.716C16.359 16.869 15.775 15.978 15.129 15.135C14.533 14.36 14.18 14.282 13.462 14.977C12.672 15.743 11.948 16.601 11.327 17.51C10.567 18.622 10.508 19.89 11.134 21.083C11.633 22.038 12.166 23.029 12.902 23.799C15.281 26.293 17.731 28.721 20.216 31.11C20.902 31.769 21.774 32.258 22.619 32.716C23.185 33.024 23.854 33.141 24.476 33.343Z" fill="#979797"/>
<path fill-rule="evenodd" clip-rule="evenodd" d="M21.697 9.286C28.095 9.543 33.72 14.677 34.45 21.009C34.504 21.477 34.554 21.949 34.567 22.419C34.589 23.181 34.301 23.575 33.75 23.593C33.195 23.611 32.901 23.226 32.869 22.471C32.71 18.612 31.086 15.518 27.962 13.249C26.015 11.836 23.807 11.162 21.4 11.092C21.077 11.082 20.678 10.863 20.471 10.612C20.338 10.45 20.383 9.917 20.541 9.789C20.855 9.534 21.304 9.444 21.697 9.286Z" fill="#979797"/>
<path fill-rule="evenodd" clip-rule="evenodd" d="M21.646 12.822C26.734 12.954 31.101 17.365 31.172 22.43C31.179 22.912 31.118 23.34 30.618 23.544C30.016 23.79 29.498 23.34 29.466 22.546C29.362 20.133 28.434 18.108 26.609 16.52C25.13 15.232 23.388 14.581 21.429 14.526C20.836 14.509 20.394 14.336 20.369 13.663C20.35 13.065 20.769 12.799 21.646 12.822Z" fill="#979797"/>
</svg>
