<svg width="45" height="45" viewBox="0 0 45 45" fill="none" xmlns="http://www.w3.org/2000/svg">
<path d="M44.014 40.618C44.014 42.28 42.668 43.626 41.006 43.626H4.30698C2.64498 43.626 1.29999 42.28 1.29999 40.618V3.917C1.29999 2.255 2.64498 0.908997 4.30698 0.908997H41.006C42.668 0.908997 44.014 2.255 44.014 3.917V40.618Z" stroke="#979797" stroke-miterlimit="10"/>
<path fill-rule="evenodd" clip-rule="evenodd" d="M30.141 13.93C30.358 14.004 30.552 14.058 30.736 14.136C31.284 14.363 31.571 14.782 31.593 15.373C31.603 15.662 31.594 15.951 31.594 16.24C31.595 17.185 31.17 17.768 30.265 18.001C29.964 18.078 29.762 18.265 29.52 18.423C28.787 18.902 28.385 19.599 27.974 20.335C27.632 20.943 27.12 21.456 26.7 22.024C26.591 22.172 26.551 22.372 26.479 22.549C26.476 22.561 26.478 22.577 26.479 22.591C26.54 23.248 26.333 23.899 26.917 24.517C27.413 25.042 27.619 25.833 27.998 26.481C28.121 26.691 28.357 26.899 28.587 26.973C30.155 27.472 31.738 27.922 33.307 28.413C34.552 28.802 35.708 29.366 36.224 30.664C36.479 31.31 36.596 32.025 36.679 32.722C36.756 33.363 36.702 34.021 36.709 34.671C36.713 34.995 36.537 35.146 36.232 35.171C36.118 35.181 36.002 35.175 35.885 35.175C27.065 35.175 18.243 35.175 9.42197 35.175C8.65297 35.175 8.57897 35.111 8.59497 34.334C8.61197 33.598 8.60897 32.856 8.70697 32.128C8.93997 30.451 9.94797 29.337 11.489 28.766C12.867 28.257 14.296 27.884 15.705 27.459C16.299 27.278 16.904 27.136 17.49 26.936C17.683 26.871 17.886 26.709 17.989 26.533C18.362 25.899 18.681 25.233 19.051 24.596C19.174 24.382 19.39 24.221 19.565 24.037C19.599 24.06 19.634 24.083 19.669 24.105C19.669 23.543 19.685 22.979 19.658 22.418C19.649 22.269 19.536 22.101 19.427 21.982C18.322 20.771 17.442 19.44 17.152 17.723C16.99 18.103 16.737 18.145 16.418 18.112C15.884 18.061 15.401 17.915 15.014 17.523C14.704 17.211 14.525 16.856 14.561 16.398C14.582 16.112 14.565 15.821 14.565 15.531C14.568 14.728 14.862 14.317 15.629 14.051C15.736 14.012 15.843 13.975 15.959 13.934C15.919 12.002 16.574 10.348 17.925 8.99499C18.989 7.93099 20.279 7.28499 21.785 7.12799C22.956 7.00499 24.123 6.99299 25.27 7.30199C28.215 8.10399 30.255 10.861 30.141 13.93ZM20.548 12.874C19.765 13.25 19.036 13.622 18.288 13.948C18.024 14.062 17.953 14.197 17.96 14.461C17.976 15.198 17.955 15.936 17.966 16.674C18.003 18.914 19.021 20.656 20.739 22.019C21.252 22.425 21.843 22.596 22.529 22.44C22.898 22.359 23.304 22.458 23.692 22.439C24.086 22.42 24.512 22.44 24.863 22.295C25.665 21.956 26.261 21.336 26.772 20.638C26.949 20.395 27.111 20.138 27.314 19.834C26.774 19.932 26.332 19.994 25.9 20.101C25.764 20.136 25.612 20.268 25.548 20.395C25.33 20.827 25.017 21.133 24.527 21.168C24.098 21.201 23.661 21.196 23.234 21.147C22.679 21.081 22.374 20.689 22.249 20.179C22.127 19.684 22.321 19.265 22.697 18.942C23.179 18.53 24.686 18.477 25.109 18.94C25.452 19.315 25.794 19.29 26.183 19.197C26.587 19.099 26.981 18.947 27.381 18.831C27.77 18.718 27.967 18.461 28.035 18.065C28.269 16.673 28.283 15.281 28.07 13.888C27.684 11.373 25.965 9.78399 23.464 9.61999C21.656 9.50199 20.093 9.999 18.912 11.448C18.526 11.924 18.247 12.447 18.186 13.11C18.829 12.785 19.457 12.443 20.032 12.027C20.363 11.79 20.588 11.76 20.9 12.032C21.726 12.756 22.677 13.302 23.739 13.551C24.603 13.753 25.507 13.782 26.393 13.878C26.664 13.908 26.894 13.983 26.897 14.297C26.899 14.609 26.677 14.73 26.403 14.714C25.653 14.669 24.897 14.665 24.162 14.537C22.786 14.302 21.582 13.649 20.548 12.874ZM21.362 29.422C21.316 29.46 21.271 29.491 21.233 29.531C20.757 30.045 20.663 30.05 20.148 29.597C19.518 29.043 18.879 28.501 18.26 27.936C18.069 27.76 17.905 27.71 17.647 27.789C16.863 28.034 16.065 28.237 15.277 28.474C14.09 28.831 12.891 29.161 11.727 29.583C10.834 29.908 10.123 30.509 9.76497 31.431C9.40597 32.353 9.42497 33.316 9.46997 34.296C13.416 34.296 17.328 34.296 21.271 34.296C21.397 33.397 21.49 32.505 21.656 31.629C21.803 30.855 21.803 30.125 21.362 29.422ZM24.743 29.401C24.429 30.048 24.264 30.638 24.396 31.32C24.587 32.305 24.694 33.306 24.836 34.295C28.526 34.295 32.165 34.295 35.879 34.295C35.843 33.582 35.823 32.893 35.771 32.209C35.661 30.801 34.889 29.9 33.587 29.417C33.384 29.342 33.183 29.259 32.976 29.196C31.457 28.736 29.939 28.269 28.414 27.83C28.249 27.783 27.986 27.846 27.851 27.957C27.161 28.527 26.491 29.123 25.823 29.722C25.527 29.985 25.269 29.995 25.009 29.683C24.936 29.598 24.854 29.519 24.743 29.401ZM25.465 28.898C26.07 28.368 26.65 27.869 27.216 27.357C27.284 27.295 27.347 27.136 27.315 27.071C27.021 26.467 26.706 25.873 26.344 25.183C24.125 26.209 21.915 26.187 19.698 25.181C19.336 25.859 18.991 26.499 18.644 27.146C19.327 27.743 19.976 28.311 20.651 28.901C21.286 28.149 21.89 27.434 22.494 26.718C22.971 26.155 23.139 26.153 23.605 26.702C24.219 27.427 24.833 28.153 25.465 28.898ZM29.067 14.04C29.113 14.044 29.159 14.048 29.205 14.051C29.242 13.909 29.314 13.767 29.309 13.627C29.258 11.58 28.31 10.019 26.663 8.86299C25.374 7.95799 23.896 7.877 22.385 7.921C18.96 8.022 16.687 11.149 16.816 13.663C16.823 13.803 16.925 13.937 16.983 14.073C17.082 13.812 17.074 13.593 17.111 13.383C17.512 11.113 19.14 9.37299 21.403 8.92999C22.241 8.76499 23.132 8.751 23.987 8.816C25.617 8.94 26.97 9.646 27.954 10.997C28.613 11.906 29.034 12.896 29.067 14.04ZM20.519 22.912C20.519 23.411 20.498 23.856 20.533 24.294C20.545 24.436 20.683 24.637 20.811 24.687C22.33 25.281 23.853 25.246 25.365 24.651C25.468 24.611 25.607 24.492 25.612 24.404C25.636 23.923 25.624 23.44 25.624 22.873C24.817 23.36 24.037 23.423 23.216 23.264C22.955 23.214 22.67 23.326 22.399 23.314C21.987 23.295 21.575 23.251 21.17 23.18C20.966 23.145 20.778 23.023 20.519 22.912ZM23.968 34.294C23.811 33.163 23.656 32.057 23.5 30.95C23.183 30.95 22.903 30.95 22.604 30.95C22.446 32.074 22.292 33.171 22.134 34.294C22.748 34.294 23.334 34.294 23.968 34.294ZM23.06 27.377C22.874 27.595 22.735 27.801 22.553 27.96C22.082 28.372 22.009 28.798 22.282 29.389C22.617 30.11 22.571 30.145 23.365 30.051C23.464 30.04 23.594 29.944 23.634 29.854C23.785 29.497 23.914 29.127 24.034 28.757C24.058 28.68 24.041 28.555 23.991 28.494C23.697 28.123 23.387 27.764 23.06 27.377ZM29.918 14.792C29.918 15.608 29.918 16.393 29.918 17.184C30.565 17.055 30.734 16.86 30.737 16.263C30.738 16.061 30.738 15.858 30.737 15.655C30.735 15.046 30.61 14.909 29.918 14.792ZM16.216 17.184C16.216 16.387 16.216 15.592 16.216 14.792C15.535 14.902 15.415 15.039 15.412 15.665C15.411 15.882 15.409 16.1 15.412 16.316C15.421 16.87 15.625 17.089 16.216 17.184ZM23.923 20.336C23.923 20.338 23.923 20.341 23.923 20.344C24.053 20.344 24.183 20.349 24.312 20.343C24.577 20.33 24.8 20.201 24.752 19.932C24.724 19.772 24.518 19.556 24.36 19.525C24.058 19.465 23.726 19.482 23.422 19.544C23.289 19.571 23.095 19.803 23.11 19.918C23.129 20.068 23.304 20.24 23.457 20.321C23.577 20.388 23.765 20.336 23.923 20.336Z" fill="#979797"/>
</svg>
