<svg width="45" height="45" viewBox="0 0 45 45" fill="none" xmlns="http://www.w3.org/2000/svg">
<path d="M43.984 40.618C43.984 42.28 42.638 43.626 40.976 43.626H4.27701C2.61501 43.626 1.27002 42.28 1.27002 40.618V3.917C1.27002 2.255 2.61501 0.908997 4.27701 0.908997H40.976C42.638 0.908997 43.984 2.255 43.984 3.917V40.618Z" stroke="#979797" stroke-miterlimit="10"/>
<path fill-rule="evenodd" clip-rule="evenodd" d="M22.51 9.406C22.51 9.084 22.51 8.814 22.51 8.485C24.49 8.377 26.345 8.77 28.101 9.548C33.979 12.153 37.231 17.426 36.975 23.85C36.696 30.859 30.644 36.888 23.644 37.405C16.166 37.957 9.44604 32.722 8.17104 25.384C8.14704 25.244 8.09802 25.105 8.10902 24.968C8.15802 24.28 7.86703 23.983 7.17003 24.085C7.01203 24.108 6.84204 24.063 6.56104 24.038C7.24404 22.326 7.89903 20.68 8.63203 18.839C9.39303 20.678 10.07 22.318 10.781 24.039C10.178 24.074 9.68103 24.103 9.18903 24.133C9.15003 28.782 13.324 35.294 20.74 36.308C28.136 37.319 34.813 32.179 35.872 24.53C36.84 17.53 31.6 9.67 22.51 9.406Z" fill="#979797" stroke="#979797" stroke-width="0.25" stroke-miterlimit="10"/>
<path fill-rule="evenodd" clip-rule="evenodd" d="M21.541 14.113C21.915 14.113 22.186 14.113 22.583 14.113C22.583 15.006 22.583 15.894 22.583 16.784C22.583 17.795 22.58 18.805 22.584 19.817C22.587 20.526 22.465 21.213 23.238 21.743C23.742 22.088 23.734 22.787 23.434 23.371C23.118 23.984 22.571 24.35 21.917 24.183C21.228 24.006 20.838 24.286 20.395 24.708C19.486 25.575 18.54 26.403 17.534 27.315C17.295 27.06 17.107 26.861 16.828 26.565C17.863 25.622 18.849 24.722 19.838 23.827C20.23 23.473 20.644 23.177 20.539 22.51C20.497 22.238 20.708 21.797 20.942 21.638C21.528 21.242 21.559 20.723 21.549 20.113C21.524 18.427 21.54 16.742 21.54 15.057C21.541 14.754 21.541 14.455 21.541 14.113Z" fill="#979797" stroke="#979797" stroke-width="0.25" stroke-miterlimit="10"/>
<path fill-rule="evenodd" clip-rule="evenodd" d="M32.555 28.385C32.223 28.6 31.86 29.022 31.571 28.975C31.253 28.926 30.785 28.445 30.785 28.153C30.786 27.874 31.283 27.411 31.603 27.371C31.894 27.337 32.241 27.764 32.563 27.987C32.561 28.12 32.557 28.252 32.555 28.385Z" fill="#979797" stroke="#979797" stroke-width="0.25" stroke-miterlimit="10"/>
<path fill-rule="evenodd" clip-rule="evenodd" d="M27.758 31.14C27.96 31.475 28.362 31.845 28.311 32.138C28.257 32.45 27.779 32.691 27.486 32.963C27.214 32.668 26.752 32.389 26.723 32.073C26.698 31.776 27.132 31.44 27.365 31.121C27.495 31.127 27.626 31.134 27.758 31.14Z" fill="#979797" stroke="#979797" stroke-width="0.25" stroke-miterlimit="10"/>
<path fill-rule="evenodd" clip-rule="evenodd" d="M34.027 22.982C33.69 23.197 33.324 23.616 33.024 23.572C32.716 23.528 32.312 23.066 32.241 22.726C32.136 22.215 32.574 21.848 33.071 21.946C33.425 22.014 33.72 22.379 34.043 22.611C34.038 22.735 34.033 22.858 34.027 22.982Z" fill="#979797" stroke="#979797" stroke-width="0.25" stroke-miterlimit="10"/>
<path fill-rule="evenodd" clip-rule="evenodd" d="M22.162 32.458C22.39 32.775 22.82 33.115 22.789 33.404C22.754 33.727 22.3 34.005 22.027 34.302C21.73 34.027 21.247 33.784 21.19 33.466C21.137 33.178 21.552 32.807 21.76 32.473C21.895 32.468 22.028 32.463 22.162 32.458Z" fill="#979797" stroke="#979797" stroke-width="0.25" stroke-miterlimit="10"/>
</svg>
