<svg width="44" height="44" viewBox="0 0 44 44" fill="none" xmlns="http://www.w3.org/2000/svg">
<path fill-rule="evenodd" clip-rule="evenodd" d="M13.0645 4.9718C13.0645 4.41952 12.6168 3.9718 12.0645 3.9718C11.5122 3.9718 11.0645 4.41952 11.0645 4.9718V6.0176H10.2666C7.50518 6.0176 5.2666 8.25617 5.2666 11.0176V34.4846C5.2666 37.246 7.50517 39.4846 10.2666 39.4846H33.7336C36.495 39.4846 38.7336 37.246 38.7336 34.4846V11.0176C38.7336 8.25617 36.495 6.0176 33.7336 6.0176H32.4129V4.9718C32.4129 4.41952 31.9651 3.9718 31.4129 3.9718C30.8606 3.9718 30.4129 4.41952 30.4129 4.9718V6.0176H13.0645V4.9718ZM30.4129 10.201V8.0176H13.0645V10.201C13.0645 10.7533 12.6168 11.201 12.0645 11.201C11.5122 11.201 11.0645 10.7533 11.0645 10.201V8.0176H10.2666C8.60975 8.0176 7.2666 9.36074 7.2666 11.0176V12.8615H36.7336V11.0176C36.7336 9.36074 35.3905 8.0176 33.7336 8.0176H32.4129V10.201C32.4129 10.7533 31.9651 11.201 31.4129 11.201C30.8606 11.201 30.4129 10.7533 30.4129 10.201ZM7.2666 34.4846V14.8615H36.7336V34.4846C36.7336 36.1415 35.3905 37.4846 33.7336 37.4846H10.2666C8.60975 37.4846 7.2666 36.1415 7.2666 34.4846ZM29.6021 20.7314C29.9306 20.2874 29.837 19.6612 29.3931 19.3327C28.9491 19.0042 28.3229 19.0978 27.9944 19.5418L20.497 29.6745L16.8856 26.687C16.46 26.3349 15.8297 26.3945 15.4776 26.8201C15.1256 27.2456 15.1852 27.876 15.6107 28.228L20.0355 31.8885C20.2471 32.0635 20.5214 32.1438 20.794 32.1106C21.0666 32.0774 21.3135 31.9335 21.4768 31.7127L29.6021 20.7314Z" fill="#7F94A8"/>
</svg>
