<svg width="44" height="44" viewBox="0 0 44 44" fill="none" xmlns="http://www.w3.org/2000/svg">
<path fill-rule="evenodd" clip-rule="evenodd" d="M36.8088 7.2869C40.4261 10.9281 42.5771 15.7192 42.8655 20.7774C43.0745 24.4454 42.3247 28.1011 40.697 31.3492C40.5456 31.6515 40.1779 31.7739 39.8754 31.6223C39.573 31.4707 39.4508 31.1028 39.6022 30.8005C41.1341 27.7435 41.8397 24.3015 41.6428 20.8469C41.3714 16.0877 39.3461 11.5785 35.9399 8.14969C32.5334 4.72067 28.0378 2.66641 23.2812 2.36539C20.3858 2.18244 17.5657 2.61277 14.8995 3.64504C12.3363 4.63731 10.046 6.13053 8.09197 8.0834C6.13797 10.0363 4.64328 12.3258 3.64945 14.8885C2.61563 17.5541 2.18342 20.3738 2.36491 23.2689C2.66233 28.0149 4.70614 32.5043 8.11981 35.9103C11.5333 39.316 16.0275 41.3502 20.7746 41.6383C23.2711 41.7898 25.7255 41.4807 28.0703 40.7201C29.4143 40.2841 30.49 39.2681 31.0216 37.9327C31.5213 36.6777 31.4927 35.2936 30.9571 34.0712C30.4482 34.2846 29.8597 34.3914 29.2022 34.3914C28.0958 34.3914 26.7943 34.0892 25.347 33.484C22.5439 32.3117 19.4614 30.1274 16.6673 27.3333C13.8731 24.5393 11.6888 21.4568 10.5166 18.6535C9.27218 15.6778 9.30884 13.317 10.6199 12.0061L12.4027 10.2232C12.8685 9.75754 13.51 9.5398 14.1628 9.62634C14.8157 9.71272 15.3786 10.0896 15.7072 10.6602L19.1657 16.6673C19.6384 17.4883 19.5007 18.5297 18.8308 19.1996L17.2763 20.7541C17.0228 21.0076 17.0024 21.4105 17.2289 21.6911C17.966 22.6041 18.7761 23.5035 19.6367 24.3641C20.4974 25.2248 21.3967 26.035 22.3097 26.7719C22.5903 26.9984 22.9932 26.9781 23.2467 26.7244L24.801 25.17C25.4711 24.5 26.5124 24.3623 27.3335 24.8351L33.3405 28.2937C33.9112 28.6222 34.288 29.1851 34.3744 29.838C34.4607 30.4908 34.2431 31.1323 33.7774 31.598L31.9946 33.3809C31.9934 33.382 31.9922 33.3831 31.991 33.3843C32.7433 34.9525 32.8079 36.7568 32.1594 38.3858C31.4926 40.0607 30.14 41.3361 28.4482 41.885C26.3672 42.5602 24.2054 42.9004 22.0053 42.9004C21.5716 42.9004 21.1368 42.8872 20.7004 42.8608C15.6551 42.5546 10.8799 40.3941 7.25498 36.7773C3.6297 33.1602 1.45893 28.39 1.14282 23.3458C0.950225 20.2725 1.40946 17.2781 2.50786 14.446C3.56373 11.7235 5.15117 9.29161 7.22649 7.21751C9.30173 5.14349 11.7345 3.55736 14.4576 2.50329C17.2903 1.4066 20.285 0.948997 23.3587 1.14355C28.4144 1.46342 33.1911 3.64521 36.8088 7.2869ZM25.8197 32.3543C28.2706 33.3793 30.2059 33.4379 31.1288 32.5149L31.8535 31.7903L27.5868 29.3552L25.6172 28.139C25.5143 28.139 25.41 28.113 25.3142 28.0584L24.2514 27.4518L24.1127 27.5905C23.4153 28.2879 22.3095 28.3457 21.5406 27.7249C20.5941 26.9608 19.6622 26.1213 18.7709 25.2301C17.8798 24.339 17.0404 23.4072 16.276 22.4604C15.6554 21.6914 15.7131 20.5856 16.4104 19.8883L16.6322 19.6665L13.8644 14.8593L12.5009 12.4911L12.2692 12.0888L11.486 12.8722C10.563 13.795 10.6216 15.7301 11.6466 18.1811C12.7588 20.8407 14.8494 23.7835 17.5334 26.4675C20.2173 29.1515 23.1601 31.2421 25.8197 32.3543ZM13.5622 11.8801L13.166 11.192L13.2688 11.0892C13.4348 10.923 13.6547 10.8328 13.8852 10.8328C13.924 10.8328 13.9631 10.8353 14.0023 10.8405C14.2744 10.8765 14.509 11.0335 14.6459 11.2714L18.1045 17.2784C18.3016 17.6206 18.2442 18.0546 17.9649 18.3338L17.529 18.7697L14.9258 14.2482L13.5622 11.8801ZM25.1492 26.5541L25.9213 26.9948L28.1938 28.2916L32.7512 30.8926L32.9116 30.7322C33.1058 30.5381 33.1964 30.2708 33.1605 29.9987C33.1245 29.7265 32.9675 29.492 32.7296 29.3551L26.7225 25.8965C26.3804 25.6997 25.9464 25.7569 25.6672 26.0361L25.1492 26.5541Z" fill="#7F94A8"/>
</svg>
