<svg width="44" height="44" viewBox="0 0 44 44" fill="none" xmlns="http://www.w3.org/2000/svg">
  <path d="M23.369 6.54971V2.70871H26.0478C27.8377 2.70871 27.8394 0 26.0478 0H17.9814C16.1915 0 16.1898 2.70871 17.9814 2.70871H20.6602V6.54971C10.9507 7.24594 3.26562 15.367 3.26562 25.2509C3.26562 35.5889 11.6758 44 22.0148 44C32.3535 44 40.7636 35.5889 40.7636 25.2509C40.7636 15.367 33.0786 7.24594 23.369 6.54971ZM22.0148 41.2913C13.1703 41.2913 5.97433 34.0954 5.97433 25.2509C5.97433 16.4057 13.1703 9.20975 22.0148 9.20975C30.8593 9.20975 38.0549 16.4057 38.0549 25.2509C38.0549 34.0954 30.8593 41.2913 22.0148 41.2913Z" fill="#7F94A8"></path>
  <path d="M28.3056 15.9371L20.9915 24.3626C19.7985 25.738 21.8848 27.4661 23.0376 26.1385L30.3517 17.7132C31.5239 16.3617 29.4812 14.5836 28.3056 15.9371Z" fill="#7F94A8"></path>
</svg>
