<svg width="44" height="44" viewBox="0 0 44 44" fill="none" xmlns="http://www.w3.org/2000/svg">
  <path fill-rule="evenodd" clip-rule="evenodd" d="M35.9988 9.01577C35.9984 9.00666 35.9981 8.99755 35.9975 8.98843C35.9949 8.95231 35.9913 8.91684 35.9841 8.88169C35.9841 8.88169 35.9841 8.88169 35.9841 8.88136C35.977 8.84622 35.9669 8.81139 35.9555 8.77755C35.9525 8.76909 35.9496 8.76062 35.9464 8.75216C35.9343 8.71994 35.9207 8.68838 35.905 8.65778C35.9041 8.65616 35.9034 8.65453 35.9024 8.6529C35.8855 8.62101 35.866 8.59074 35.8448 8.56113C35.8396 8.55364 35.8341 8.54648 35.8286 8.539C35.8061 8.50971 35.7827 8.48139 35.7563 8.45503L28.2171 0.915835C28.1908 0.889474 28.1624 0.866042 28.1331 0.843587C28.1257 0.838054 28.1182 0.832196 28.1107 0.826989C28.0811 0.805835 28.0511 0.786309 28.0196 0.769711C28.0173 0.768409 28.015 0.767758 28.0131 0.766457C27.9831 0.750835 27.9519 0.737492 27.9203 0.725451C27.9115 0.722197 27.9031 0.719267 27.8939 0.716339C27.8601 0.704948 27.8259 0.694859 27.7905 0.6877C27.7901 0.6877 27.7898 0.6877 27.7898 0.6877C27.755 0.680865 27.7195 0.67696 27.6837 0.674356C27.6746 0.674031 27.6655 0.67338 27.6564 0.673055C27.6469 0.672729 27.6375 0.671753 27.6281 0.671753H8.75208C8.2919 0.671753 7.91895 1.04471 7.91895 1.50489V37.1649C7.91895 37.6251 8.2919 37.998 8.75208 37.998H21.2953V42.495C21.2953 42.798 21.46 43.0772 21.7252 43.224C21.9907 43.3708 22.3146 43.362 22.5713 43.2009L25.7444 41.2102L28.9175 43.2009C29.0525 43.2855 29.2065 43.3281 29.3604 43.3281C29.499 43.3281 29.638 43.2936 29.7636 43.2243C30.0288 43.0775 30.1935 42.7983 30.1935 42.495V37.998H35.1669C35.6271 37.998 36.0001 37.6251 36.0001 37.1649V9.04408C36.0001 9.03465 35.9991 9.02521 35.9988 9.01577ZM28.4612 3.51644L33.1557 8.21095H28.4612V3.51644ZM20.8842 26.4048C20.8257 26.2457 20.7303 25.9856 20.728 25.8792C20.7931 25.7985 21.019 25.6556 21.1573 25.5684C21.4541 25.381 21.7906 25.1681 22.0347 24.8355C22.281 24.4993 22.3813 24.1111 22.4698 23.7687C22.5085 23.619 22.571 23.3772 22.6244 23.2858C22.6537 23.2796 22.7152 23.2708 22.8307 23.2708C22.9235 23.2708 23.0273 23.276 23.1373 23.2815C23.2636 23.2877 23.3937 23.2942 23.5298 23.2942C23.8298 23.2942 24.072 23.2604 24.2916 23.1872C24.6753 23.0596 24.9822 22.8126 25.253 22.5945C25.4027 22.4741 25.6533 22.2723 25.7405 22.26C25.8358 22.2723 26.0861 22.4741 26.2358 22.5945C26.5066 22.8126 26.8138 23.0596 27.1975 23.1872C27.4172 23.2604 27.659 23.2942 27.9594 23.2942C28.0951 23.2942 28.2256 23.2877 28.3515 23.2815C28.4615 23.276 28.5653 23.2708 28.6584 23.2708C28.7739 23.2708 28.8351 23.2793 28.8647 23.2858C28.9181 23.3772 28.9806 23.619 29.019 23.7687C29.1075 24.1111 29.2081 24.4993 29.4544 24.8355C29.6982 25.1681 30.0347 25.3806 30.3318 25.5684C30.4698 25.656 30.6957 25.7985 30.7608 25.8792C30.7585 25.9856 30.6631 26.2457 30.6049 26.4048C30.4809 26.7423 30.3406 27.125 30.3406 27.5491C30.3406 27.9731 30.4809 28.3558 30.6046 28.6936C30.6631 28.8528 30.7585 29.1128 30.7608 29.2192C30.6957 29.2999 30.4698 29.4425 30.3318 29.53C30.0347 29.7175 29.6982 29.9303 29.4544 30.2629C29.2081 30.5991 29.1075 30.9874 29.019 31.3297C28.9806 31.4791 28.9178 31.7212 28.8647 31.8127C28.8351 31.8189 28.7739 31.8277 28.6584 31.8277C28.5653 31.8277 28.4615 31.8224 28.3515 31.8169C28.2256 31.8107 28.0951 31.8042 27.9594 31.8042C27.659 31.8042 27.4172 31.8381 27.1975 31.9113C26.8138 32.0389 26.5066 32.2862 26.2358 32.5039C26.0884 32.623 25.8424 32.8206 25.7444 32.8382C25.6464 32.8206 25.4007 32.623 25.2533 32.5039C24.9822 32.2862 24.6753 32.0389 24.2916 31.9113C24.072 31.8381 23.8298 31.8042 23.5298 31.8042C23.3941 31.8042 23.2636 31.8107 23.1373 31.8169C23.0276 31.8224 22.9238 31.8277 22.8307 31.8277C22.7152 31.8277 22.654 31.8189 22.6244 31.8127C22.571 31.7212 22.5085 31.4794 22.4698 31.3297C22.3816 30.9874 22.281 30.5991 22.0347 30.2629C21.7909 29.9303 21.4544 29.7175 21.1573 29.53C21.0193 29.4428 20.7934 29.2999 20.7284 29.2192C20.7306 29.1131 20.826 28.8528 20.8842 28.6936C21.0082 28.3562 21.1485 27.9734 21.1485 27.5494C21.1485 27.125 21.0079 26.7423 20.8842 26.4048ZM28.5273 40.9889L26.1873 39.5208C25.9166 39.3512 25.5722 39.3512 25.3015 39.5208L22.9615 40.9889V33.4913C23.0501 33.4887 23.137 33.4855 23.2212 33.4812C23.3316 33.4754 23.4357 33.4702 23.5298 33.4702C23.6775 33.4702 23.7407 33.4838 23.7651 33.492C23.8643 33.5252 24.055 33.6788 24.2083 33.8021C24.5972 34.1152 25.0811 34.5047 25.7444 34.5047C26.4076 34.5047 26.8916 34.1152 27.2805 33.8021C27.4338 33.6788 27.6245 33.5252 27.7234 33.4923C27.7481 33.4842 27.8113 33.4705 27.959 33.4705C28.0531 33.4705 28.1572 33.4757 28.2676 33.4812C28.3518 33.4855 28.4387 33.489 28.5269 33.4913V40.9889H28.5273ZM30.1935 36.3318V32.8199C30.4412 32.4834 30.5447 32.0851 30.6322 31.7466C30.6781 31.5689 30.7409 31.3258 30.7982 31.248C30.8551 31.1699 31.067 31.0362 31.2216 30.9385C31.6317 30.6795 32.1419 30.357 32.3447 29.7471C32.5452 29.1454 32.3366 28.5768 32.169 28.1199C32.0928 27.9126 32.0066 27.6773 32.0066 27.5491C32.0066 27.4208 32.0928 27.1859 32.169 26.9786C32.3366 26.5216 32.5452 25.9528 32.3447 25.351C32.1419 24.7415 31.6317 24.419 31.2216 24.1599C31.067 24.0623 30.8551 23.9282 30.7982 23.8507C30.7409 23.7726 30.6781 23.5295 30.6322 23.3518C30.5125 22.8881 30.3634 22.3107 29.8531 21.9365C29.447 21.639 28.9767 21.6045 28.6581 21.6045C28.5234 21.6045 28.3932 21.611 28.2676 21.6176C28.1572 21.6231 28.0531 21.6283 27.9594 21.6283C27.8113 21.6283 27.7481 21.6146 27.7237 21.6065C27.6248 21.5736 27.4341 21.42 27.2808 21.2963C26.8916 20.9836 26.4076 20.594 25.7444 20.594C25.0815 20.594 24.5972 20.9836 24.2083 21.2963C24.055 21.4197 23.8643 21.5736 23.7654 21.6065C23.741 21.6146 23.6775 21.6283 23.5298 21.6283C23.436 21.6283 23.3316 21.6231 23.2212 21.6172C23.0956 21.611 22.9658 21.6045 22.8307 21.6045C22.5124 21.6045 22.0422 21.639 21.6363 21.9365C21.1257 22.3107 20.9763 22.8881 20.8566 23.3518C20.8107 23.5295 20.7479 23.7726 20.6909 23.8504C20.6337 23.9282 20.4218 24.0623 20.2672 24.1599C19.8571 24.419 19.3472 24.7415 19.1441 25.351C18.9436 25.9531 19.1522 26.5216 19.3198 26.9786C19.396 27.1859 19.4822 27.4208 19.4822 27.5491C19.4822 27.6773 19.396 27.9126 19.3198 28.1199C19.1522 28.5768 18.9436 29.1454 19.1441 29.7474C19.3472 30.357 19.8575 30.6795 20.2672 30.9385C20.4221 31.0362 20.6337 31.1703 20.6909 31.248C20.7479 31.3258 20.8107 31.5689 20.8566 31.7466C20.9441 32.0851 21.0479 32.4837 21.2956 32.8199V36.3318H9.58521V2.33802H26.7949V9.04408C26.7949 9.50426 27.1679 9.87722 27.6281 9.87722H34.3338V36.3318H30.1935Z" fill="#7F94A8"></path>
  <path fill-rule="evenodd" clip-rule="evenodd" d="M12.8231 9.87721H23.5569C24.0167 9.87721 24.39 9.50425 24.39 9.04407C24.39 8.5839 24.0167 8.21094 23.5569 8.21094H12.8231C12.3629 8.21094 11.99 8.5839 11.99 9.04407C11.99 9.50425 12.3633 9.87721 12.8231 9.87721Z" fill="#7F94A8"></path>
  <path fill-rule="evenodd" clip-rule="evenodd" d="M31.1892 12.4164H12.8231C12.3629 12.4164 11.99 12.7893 11.99 13.2495C11.99 13.7097 12.3629 14.0827 12.8231 14.0827H31.1892C31.6494 14.0827 32.0223 13.7097 32.0223 13.2495C32.0223 12.7893 31.6494 12.4164 31.1892 12.4164Z" fill="#7F94A8"></path>
  <path fill-rule="evenodd" clip-rule="evenodd" d="M27.8566 16.6217H12.8231C12.3629 16.6217 11.99 16.995 11.99 17.4548C11.99 17.915 12.3629 18.288 12.8231 18.288H27.8566C28.3168 18.288 28.6898 17.915 28.6898 17.4548C28.6898 16.995 28.3168 16.6217 27.8566 16.6217Z" fill="#7F94A8"></path>
  <path fill-rule="evenodd" clip-rule="evenodd" d="M31.1891 16.6217C30.7302 16.6217 30.356 16.996 30.356 17.4548C30.356 17.9137 30.7302 18.288 31.1891 18.288C31.6483 18.288 32.0222 17.9137 32.0222 17.4548C32.0222 16.996 31.6483 16.6217 31.1891 16.6217Z" fill="#7F94A8"></path>
</svg>
