<svg width="44" height="44" viewBox="0 0 44 44" fill="none" xmlns="http://www.w3.org/2000/svg">
  <path d="M16.0324 13.6771C12.2214 13.6771 9.13232 16.7662 9.13232 20.5769C9.13232 24.3875 12.2214 27.477 16.0321 27.477C19.8431 27.477 22.9322 24.3875 22.9322 20.5769C22.9278 16.7679 19.8411 13.6815 16.0324 13.6771ZM16.0324 26.0911C12.987 26.0914 10.5179 23.6224 10.5179 20.5769C10.5179 17.5314 12.9866 15.0627 16.0321 15.0627C19.0776 15.0627 21.5466 17.5314 21.5466 20.5769C21.5429 23.6207 19.0762 26.0874 16.0324 26.0907V26.0911Z" fill="#7F94A8"></path>
  <path d="M18.2825 18.1951C17.5238 17.6173 16.6778 17.3389 15.8334 17.3914C14.2276 17.4918 12.948 18.7719 12.8475 20.3777C12.7954 21.221 13.0735 22.0677 13.6512 22.8264C13.6888 22.8761 13.7331 22.9201 13.7825 22.958C14.4813 23.4901 15.2546 23.7678 16.0313 23.7678C16.098 23.7678 16.1649 23.7658 16.2316 23.7617C17.8374 23.6613 19.117 22.3813 19.2178 20.7758C19.2696 19.9322 18.9919 19.0855 18.4138 18.3267C18.3762 18.277 18.3319 18.233 18.2825 18.1951ZM17.3093 21.8532C16.785 22.3779 15.7928 22.6979 14.6975 21.9114C13.911 20.8164 14.2314 19.8246 14.7557 19.2999C15.28 18.7753 16.2718 18.4553 17.3675 19.2417C18.154 20.3364 17.834 21.3289 17.3093 21.8532Z" fill="#7F94A8"></path>
  <path d="M42.1362 17.0111C42.5187 17.0111 42.7856 16.7158 42.7856 16.3332V12.6961C42.7856 12.3135 42.5187 11.9885 42.1362 11.9885H41.6599V8.40818C41.6599 6.37211 40.1089 4.71423 38.1489 4.71423H4.38318C2.42323 4.71423 0.785645 6.37211 0.785645 8.40818V32.7449C0.785645 34.781 2.42323 36.4091 4.38318 36.4091H5.11554V38.3142C5.11554 38.6968 5.42574 39.007 5.80833 39.007H14.4681C14.8507 39.007 15.1609 38.6968 15.1609 38.3142V36.4091H27.631V38.3142C27.631 38.6968 27.9412 39.007 28.3238 39.007H36.9836C37.3662 39.007 37.6764 38.6968 37.6764 38.3142V36.4091H38.1489C40.1089 36.4091 41.6599 34.781 41.6599 32.7449V29.1349H42.1362C42.5187 29.1349 42.7856 28.8395 42.7856 28.457V24.8198C42.7856 24.4373 42.5187 24.1122 42.1362 24.1122H41.6599V17.0111H42.1362ZM41.4001 25.4977V27.7493H36.8104V25.4977H41.4001ZM36.1176 24.1122C35.732 24.1193 35.4238 24.4342 35.4248 24.8198V28.457C35.4255 28.6393 35.4992 28.8135 35.6291 28.941C35.7594 29.0682 35.9353 29.1382 36.1176 29.1349H36.464V30.2447C36.464 30.6899 36.1711 31.04 35.7644 31.04H6.76767C6.36073 31.04 6.06812 30.6899 6.06812 30.2447V10.9084C6.06812 10.4632 6.36106 10.0833 6.76767 10.0833H35.7644C36.1714 10.0833 36.464 10.4632 36.464 10.9084V11.9885H36.1176C35.732 11.9956 35.4238 12.3105 35.4248 12.6961V16.3332C35.4255 16.5156 35.4992 16.6898 35.6291 16.8173C35.7594 16.9445 35.9353 17.0145 36.1176 17.0111H36.464V24.1122H36.1176ZM36.8104 15.6256V13.374H41.4001V15.6256H36.8104ZM13.7753 37.6214H6.50111V36.4091H13.7753V37.6214ZM36.2908 37.6214H29.0166V36.4091H36.2908V37.6214ZM40.2743 32.7449C40.2743 34.0171 39.3447 35.0235 38.1489 35.0235H4.38318C3.18738 35.0235 2.17121 34.0171 2.17121 32.7449V8.40818C2.17121 7.13593 3.18738 6.0998 4.38318 6.0998H38.1489C39.3447 6.0998 40.2743 7.13593 40.2743 8.40818V11.9885H37.8496V10.9084C37.8496 9.69903 36.9352 8.69774 35.7644 8.69774H6.76767C5.5969 8.69774 4.68255 9.69903 4.68255 10.9084V30.2447C4.68255 31.4541 5.5969 32.4256 6.76767 32.4256H35.7644C36.9352 32.4256 37.8496 31.4541 37.8496 30.2447V29.1349H40.2743V32.7449ZM40.2743 24.1122H37.8496V17.0111H40.2743V24.1122Z" fill="#7F94A8"></path>
</svg>
