<svg width="60" height="60" viewBox="0 0 60 60" fill="none" xmlns="http://www.w3.org/2000/svg">
  <g clip-path="url(#clip0)">
    <path d="M59.8794 52.2273L57.501 43.9593C57.4443 43.7894 57.3311 43.6195 57.2178 43.5063C55.7454 39.0325 52.1211 35.578 47.5341 34.3888L46.8545 34.2756C45.8352 33.9924 44.7026 34.3322 43.9664 35.1816C41.4746 38.0131 38.3034 38.2397 34.9622 38.2397C31.621 38.2397 28.4497 38.0131 25.958 35.1816C25.2218 34.3322 24.0892 33.9924 23.0699 34.2756L22.3903 34.4454C18.9359 35.3515 15.9911 37.5601 14.1223 40.5049H6.98692C6.93029 40.5049 6.93029 40.5049 6.87366 40.4482C6.87366 40.3916 6.81703 40.335 6.81703 40.2217L8.28941 34.9551C9.59191 30.8211 12.0836 29.5753 16.9538 28.3294C17.1803 28.2728 17.3502 28.1595 17.4635 28.0462C17.8599 28.386 18.3129 28.6692 18.766 28.8957C18.9359 29.009 19.1058 29.009 19.2757 29.009C19.6721 29.009 20.0685 28.7824 20.295 28.386C20.5781 27.8197 20.3516 27.1402 19.7853 26.857C17.1803 25.4979 15.3115 21.647 15.3115 17.6829C15.3115 14.1719 18.1997 11.2837 21.7107 11.2837C22.3903 11.2837 23.0132 11.397 23.6362 11.5669C23.0132 13.0959 22.6735 14.7382 22.6735 16.4937C22.6735 26.1775 28.5064 34.3322 35.4152 34.3322C42.2108 34.3322 48.2136 26.0076 48.2136 16.4937C48.2136 9.41495 42.494 3.69531 35.4152 3.69531C30.9414 3.69531 26.9773 6.01715 24.7121 9.52821C23.7494 9.18843 22.7301 9.01854 21.7107 9.01854C18.6527 9.01854 15.9345 10.6608 14.4055 13.0959C14.2922 12.9826 14.1789 12.926 14.0657 12.8694C13.2162 12.4163 12.3668 12.2465 11.4041 12.2465C8.23279 12.1898 5.68443 14.7382 5.68443 17.9095C5.68443 19.7216 6.1941 21.4205 6.98692 22.7796C4.38194 23.4592 2.06011 24.4786 0.984134 27.933L0.0780529 31.2175C-0.0918374 31.7838 0.0214228 32.4068 0.361203 32.8598C0.700984 33.3695 1.32391 33.6526 1.94685 33.6526H6.30736C6.25073 33.8791 6.13747 34.1057 6.08084 34.3322L4.60846 39.6554C4.38194 40.3916 4.55183 41.1844 5.0615 41.8074C5.51454 42.4303 6.1941 42.7701 6.98692 42.7701H12.9897C12.8198 43.1665 12.7066 43.5629 12.5933 43.9593L10.2148 52.2839C9.98832 53.2466 10.1582 54.266 10.7811 55.0588C11.4041 55.8516 12.3102 56.3047 13.2729 56.3047H47.2509H49.1763H56.8214C57.7841 56.3047 58.7468 55.8516 59.3131 55.0588C59.936 54.266 60.1626 53.2466 59.8794 52.2273ZM26.0713 11.7368C26.1279 11.6802 26.1845 11.6235 26.2411 11.5103C26.2978 11.4536 26.2978 11.3404 26.3544 11.2837C28.1099 8.11246 31.5077 5.96052 35.4152 5.96052C40.1155 5.96052 44.0796 9.07517 45.4387 13.3224C43.4567 13.7188 41.3614 12.926 40.1155 11.2271C39.7191 10.7174 39.0395 10.6042 38.5299 11.0006C38.3034 11.1705 38.1901 11.3404 38.1335 11.5669C38.0768 11.6235 38.0768 11.6802 38.0202 11.7368C36.4346 14.9647 31.1113 16.3238 25.0519 15.1346C25.2218 13.9454 25.5616 12.8128 26.0713 11.7368ZM29.2425 17.7962C33.7729 17.7962 37.5105 16.3805 39.436 13.7188C40.8517 14.9647 42.6072 15.6443 44.476 15.6443C44.9291 15.6443 45.4387 15.5876 45.8918 15.4744C45.9484 15.8142 45.9484 16.0973 45.9484 16.4371C45.9484 24.7617 41.0216 32.067 35.4152 32.067C30.0354 32.067 25.3351 25.328 24.9387 17.3998C26.411 17.6829 27.8834 17.7962 29.2425 17.7962ZM2.39989 31.3874L3.19271 28.5559C3.87227 26.2341 5.28802 25.5545 8.11952 24.875C8.28941 24.8183 8.4593 24.7617 8.57257 24.6484C8.85571 24.875 9.08224 25.0449 9.42202 25.2147C9.59191 25.328 9.7618 25.328 9.93169 25.328C10.3281 25.328 10.7245 25.1015 10.951 24.7051C11.2342 24.1388 11.0077 23.4592 10.498 23.1761C9.02561 22.3832 7.94963 20.1747 7.94963 17.9095C7.94963 15.984 9.47865 14.455 11.4041 14.455C12.027 14.455 12.5367 14.5683 13.0463 14.8514C13.2162 14.9081 13.3295 14.9647 13.4994 14.9647C13.2162 15.8141 13.0463 16.7202 13.0463 17.6829C13.0463 20.9109 14.1223 24.0821 15.8212 26.2907C12.4234 27.1402 9.42202 28.2728 7.43996 31.3874H2.39989ZM57.5576 53.6997C57.4443 53.8129 57.2178 54.0395 56.8214 54.0395H49.1763H47.2509H13.2729C12.8765 54.0395 12.6499 53.8129 12.5367 53.6997C12.3668 53.4732 12.3102 53.1334 12.3668 52.9068L14.7452 44.6389C15.8778 40.7314 18.9925 37.6734 22.9566 36.654L23.6362 36.4841C23.8061 36.4275 24.0892 36.5408 24.2591 36.7106C27.3738 40.2783 31.2246 40.5615 34.9622 40.5615C38.6998 40.5615 42.5506 40.2783 45.6653 36.7106C45.8352 36.5408 46.0617 36.4275 46.3448 36.4841L47.0244 36.654C50.9319 37.6734 54.1031 40.7314 55.2357 44.6389L56.2551 48.1499C56.3117 48.3198 56.3684 48.4331 56.4816 48.5463L57.7275 52.8502C57.7841 53.1334 57.7275 53.4732 57.5576 53.6997Z" fill="#7F94A8"></path>
  </g>
  <defs>
    <clipPath id="clip0">
      <rect width="60" height="60" fill="white"></rect>
    </clipPath>
  </defs>
</svg>
