<svg width="66" height="66" viewBox="0 0 66 66" fill="none" xmlns="http://www.w3.org/2000/svg">
  <path d="M62.7 39.7533H62.656C62.239 27.5579 54.3711 16.872 42.8494 12.8528C42.603 11.2471 41.2246 10.0595 39.6 10.0533H36.0976C35.5015 8.3425 33.6315 7.43885 31.9209 8.03478C30.9753 8.36423 30.2319 9.10755 29.9024 10.0533H26.4C24.7754 10.0593 23.397 11.2471 23.1506 12.8528C11.6289 16.872 3.76104 27.5579 3.344 39.7533H3.3C1.47744 39.7533 0 41.2307 0 43.0533C0 44.8758 1.47744 46.3533 3.3 46.3533V47.7316C3.30976 50.0043 4.70786 52.0401 6.8255 52.8653L8.9155 53.6672C16.6004 56.6273 24.7647 58.1465 33 58.1486C41.2371 58.1465 49.4033 56.6274 57.09 53.6672L59.18 52.8653C61.2956 52.0384 62.6911 50.0029 62.7 47.7316V46.3533C64.5226 46.3533 66 44.8758 66 43.0533C66 41.2307 64.5226 39.7533 62.7 39.7533ZM23.1 15.2145V28.7533C23.1 29.3608 23.5925 29.8533 24.2 29.8533C24.8075 29.8533 25.3 29.3608 25.3 28.7533V13.3533C25.3 12.7458 25.7925 12.2533 26.4 12.2533H29.7V33.1533C29.7 33.7608 30.1925 34.2533 30.8 34.2533C31.4075 34.2533 31.9 33.7608 31.9 33.1533V11.1533C31.9 10.5458 32.3925 10.0533 33 10.0533C33.6075 10.0533 34.1 10.5458 34.1 11.1533V33.1533C34.1 33.7608 34.5925 34.2533 35.2 34.2533C35.8075 34.2533 36.3 33.7608 36.3 33.1533V12.2533H39.6C40.2075 12.2533 40.7 12.7458 40.7 13.3533V28.7533C40.7 29.3608 41.1925 29.8533 41.8 29.8533C42.4075 29.8533 42.9 29.3608 42.9 28.7533V15.2145C53.1403 19.1374 60.0497 28.7948 60.456 39.7533H5.544C5.95031 28.7948 12.8597 19.1374 23.1 15.2145ZM60.5 47.7316C60.4938 49.095 59.6551 50.3163 58.3847 50.8116L56.2947 51.6135C41.3003 57.3929 24.6931 57.3929 9.6987 51.6135L7.6087 50.8116C6.34095 50.3142 5.50509 49.0934 5.5 47.7316V46.3533H60.5V47.7316ZM62.7 44.1533H3.3C2.69252 44.1533 2.2 43.6608 2.2 43.0533C2.2 42.4458 2.69252 41.9533 3.3 41.9533H62.7C63.3075 41.9533 63.8 42.4458 63.8 43.0533C63.8 43.6608 63.3075 44.1533 62.7 44.1533Z" fill="#7F94A8"></path>
</svg>
