<svg width="60" height="60" viewBox="0 0 60 60" fill="none" xmlns="http://www.w3.org/2000/svg">
  <path d="M1.7308 16.569C1.70899 16.6875 1.6967 16.8077 1.69274 16.9278V19.3953C1.69591 20.4122 2.32746 21.3213 3.28014 21.6785V25.3092C3.2845 26.5247 4.24035 27.5238 5.45429 27.5813V48.5564C4.24035 48.6143 3.2845 49.6134 3.28014 50.8285V54.4485C2.32548 54.8152 1.69433 55.731 1.69274 56.7531V59.1667C1.69274 59.6167 2.05827 59.9818 2.50824 59.9818H57.4931C57.9431 59.9818 58.3082 59.6167 58.3082 59.1667V56.7531C58.3066 55.7306 57.6755 54.8148 56.7212 54.4485V50.8071C56.7169 49.5916 55.7606 48.5925 54.5471 48.535V27.5813C55.7606 27.5238 56.7169 26.5247 56.7212 25.3092V21.6785C57.6735 21.3213 58.3051 20.4122 58.3082 19.3953V16.944C58.3047 16.8239 58.292 16.7038 58.2702 16.5852C58.6801 16.7668 59.1594 16.5821 59.341 16.1721C59.5226 15.7626 59.3378 15.2833 58.9283 15.1013L30.3757 0.0943789C30.1375 -0.0312969 29.8528 -0.0312969 29.6145 0.0943789L1.06238 15.0851C0.663943 15.2956 0.511309 15.7884 0.721033 16.1868C0.912916 16.5508 1.34584 16.7149 1.7308 16.569ZM4.91075 23.0914V21.8359H14.3138V23.0807L4.91075 23.0914ZM25.8478 27.5868V48.5564C24.6339 48.6143 23.6781 49.6134 23.6737 50.8285V54.2963H15.9333V50.8285C15.929 49.6134 14.9731 48.6143 13.7592 48.5564V27.5813C14.9731 27.5238 15.929 26.5247 15.9333 25.3092V21.8359H23.6626V25.304C23.6646 26.5216 24.6212 27.523 25.8371 27.5813L25.8478 27.5868ZM25.3043 23.0914V21.8359H34.7078V23.0807L25.3043 23.0914ZM46.2418 27.5868V48.5564C45.0279 48.6143 44.0716 49.6134 44.0672 50.8285V54.2963H36.3273V50.8285C36.3229 49.6134 35.3667 48.6143 34.1531 48.5564V27.5813C35.3667 27.5238 36.3229 26.5247 36.3273 25.3092V21.8359H44.0565V25.304C44.0581 26.5216 45.0148 27.523 46.2307 27.5813L46.2418 27.5868ZM45.6982 23.0914V21.8359H55.1013V23.0807L45.6982 23.0914ZM55.1013 53.0518V54.2963H45.6872V53.0518H55.1013ZM34.7078 53.0518V54.2963H25.2936V53.0518H34.7078ZM26.6522 25.9669H25.9458C25.5854 25.9669 25.2936 25.6751 25.2936 25.3147V24.7221H34.6967V25.3147C34.6967 25.6751 34.4049 25.9669 34.0445 25.9669H26.6522ZM32.5281 27.5975V48.5457H27.4677V27.5975H32.5281ZM26.6522 50.1763H34.0445C34.4049 50.1763 34.6967 50.4681 34.6967 50.8285V51.4212H25.2936V50.8285C25.2936 50.4681 25.5854 50.1763 25.9458 50.1763H26.6522ZM14.3031 53.0518V54.2963H4.89965V53.0518H14.3031ZM4.89965 25.331V24.7221H14.3031V25.3147C14.3031 25.6751 14.0113 25.9669 13.6506 25.9669H5.53556C5.17955 25.9582 4.89648 25.6652 4.89965 25.3092V25.331ZM12.129 27.6138V48.5457H7.0738V27.5975L12.129 27.6138ZM4.89965 50.8451C4.89965 50.4844 5.19144 50.1926 5.55182 50.1926H13.6506C14.0113 50.1926 14.3031 50.4844 14.3031 50.8451V51.4374H4.89965V50.8451ZM56.6776 56.786V58.3837H3.31265V56.786C3.31265 56.3206 3.68967 55.9431 4.15511 55.9431H55.8352C56.2939 55.9431 56.6689 56.3106 56.6776 56.7693V56.786ZM55.0906 50.8451V51.4374H45.6872V50.8451C45.6872 50.4844 45.9789 50.1926 46.3393 50.1926H54.4547C54.8024 50.2013 55.0819 50.4808 55.0906 50.8285V50.8451ZM47.8613 48.562V27.5975H52.9216V48.5457L47.8613 48.562ZM55.0906 25.331C55.0906 25.6914 54.7988 25.9832 54.4385 25.9832H46.3449C45.9845 25.9832 45.6927 25.6914 45.6927 25.331V24.7221H55.0958L55.0906 25.331ZM29.9951 1.72499L54.2751 14.4872H5.71515L29.9951 1.72499ZM3.31265 16.944C3.31265 16.4941 3.67778 16.1289 4.12776 16.1289H55.8625C56.3125 16.1289 56.6776 16.4941 56.6776 16.944V19.412C56.6776 19.8619 56.3125 20.2271 55.8625 20.2271H4.12776C3.67778 20.2271 3.31265 19.8619 3.31265 19.412V16.944Z" fill="#7F94A8"></path>
</svg>
