 <svg width="66" height="66" viewBox="0 0 66 66" fill="none" xmlns="http://www.w3.org/2000/svg">
   <path d="M21.7503 20.85H16.5003C15.9003 20.85 15.4503 21.3 15.4503 21.9V28.0501C15.4503 28.6501 15.9003 29.1 16.5003 29.1H21.7503C22.3503 29.1 22.8003 28.6501 22.8003 28.0501V21.9C22.9503 21.3 22.3503 20.85 21.7503 20.85ZM20.7003 27H17.5503V22.9501H20.7003V27ZM21.7503 33.15H16.5003C15.9003 33.15 15.4503 33.6 15.4503 34.2V40.5C15.4503 41.1 15.9003 41.55 16.5003 41.55H21.7503C22.3503 41.55 22.8003 41.1 22.8003 40.5V34.35C22.9503 33.75 22.3503 33.15 21.7503 33.15ZM20.7003 39.45H17.5503V35.4H20.7003V39.45ZM21.7503 45.6H16.5003C15.9003 45.6 15.4503 46.05 15.4503 46.65V52.8C15.4503 53.4 15.9003 53.8501 16.5003 53.8501H21.7503C22.3503 53.8501 22.8003 53.4 22.8003 52.8V46.65C22.9503 46.05 22.3503 45.6 21.7503 45.6ZM20.7003 51.75H17.5503V47.7H20.7003V51.75ZM50.5503 45.6H45.3003C44.7003 45.6 44.2503 46.05 44.2503 46.65V52.8C44.2503 53.4 44.7003 53.8501 45.3003 53.8501H50.5503C51.1503 53.8501 51.6003 53.4 51.6003 52.8V46.65C51.7503 46.05 51.3003 45.6 50.5503 45.6ZM49.5003 51.75H46.3503V47.7H49.5003V51.75ZM31.3503 20.85H26.1003C25.5003 20.85 25.0503 21.3 25.0503 21.9V28.0501C25.0503 28.6501 25.5003 29.1 26.1003 29.1H31.3503C31.9503 29.1 32.4003 28.6501 32.4003 28.0501V21.9C32.5503 21.3 31.9503 20.85 31.3503 20.85ZM30.3003 27H27.1503V22.9501H30.3003V27ZM40.9503 20.85H35.7003C35.1003 20.85 34.6503 21.3 34.6503 21.9V28.0501C34.6503 28.6501 35.1003 29.1 35.7003 29.1H40.9503C41.5503 29.1 42.0003 28.6501 42.0003 28.0501V21.9C42.1503 21.3 41.5503 20.85 40.9503 20.85ZM39.9003 27H36.7503V22.9501H39.9003V27ZM31.3503 33.15H26.1003C25.5003 33.15 25.0503 33.6 25.0503 34.2V40.5C25.0503 41.1 25.5003 41.55 26.1003 41.55H31.3503C31.9503 41.55 32.4003 41.1 32.4003 40.5V34.35C32.5503 33.75 31.9503 33.15 31.3503 33.15ZM30.3003 39.45H27.1503V35.4H30.3003V39.45ZM40.9503 33.15H35.7003C35.1003 33.15 34.6503 33.6 34.6503 34.2V40.5C34.6503 41.1 35.1003 41.55 35.7003 41.55H40.9503C41.5503 41.55 42.0003 41.1 42.0003 40.5V34.35C42.1503 33.75 41.5503 33.15 40.9503 33.15ZM39.9003 39.45H36.7503V35.4H39.9003V39.45ZM50.5503 20.85H45.3003C44.7003 20.85 44.2503 21.3 44.2503 21.9V28.0501C44.2503 28.6501 44.7003 29.1 45.3003 29.1H50.5503C51.1503 29.1 51.6003 28.6501 51.6003 28.0501V21.9C51.7503 21.3 51.3003 20.85 50.5503 20.85ZM49.5003 27H46.3503V22.9501H49.5003V27ZM50.5503 33.15H45.3003C44.7003 33.15 44.2503 33.6 44.2503 34.2V40.5C44.2503 41.1 44.7003 41.55 45.3003 41.55H50.5503C51.1503 41.55 51.6003 41.1 51.6003 40.5V34.35C51.7503 33.75 51.3003 33.15 50.5503 33.15ZM49.5003 39.45H46.3503V35.4H49.5003V39.45ZM60.1503 59.1001H55.9503V16.2C55.9503 15.6 55.5003 15.15 54.9003 15.15H48.7503V11.1C48.7503 10.5 48.3003 10.05 47.7003 10.05H41.5503V5.85005C41.5503 5.25005 41.1003 4.80005 40.5003 4.80005H25.5003C24.9003 4.80005 24.4503 5.25005 24.4503 5.85005V10.05H18.3003C17.7003 10.05 17.2503 10.5 17.2503 11.1V15.15H11.1003C10.5003 15.15 10.0503 15.6 10.0503 16.2V59.1001H5.85029C5.25029 59.1001 4.80029 59.55 4.80029 60.15C4.80029 60.75 5.25029 61.2 5.85029 61.2H60.1503C60.7503 61.2 61.2003 60.75 61.2003 60.15C61.3503 59.55 60.7503 59.1001 60.1503 59.1001ZM26.5503 6.90005H39.3003V10.05H26.5503V6.90005ZM37.6503 59.1001H30.0003L37.6503 51.45V59.1001ZM37.6503 48.3L28.3503 57.6001V52.95L35.4003 45.9H37.6503V48.3ZM28.3503 49.8V45.9H32.2503L28.3503 49.8ZM53.8503 59.1001H46.5003H39.9003V45.9H40.3503C40.9503 45.9 41.4003 45.45 41.4003 44.85C41.4003 44.25 40.9503 43.8 40.3503 43.8H25.9503C25.3503 43.8 24.9003 44.25 24.9003 44.85C24.9003 45.45 25.3503 45.9 25.9503 45.9H26.4003V59.1001H12.1503V17.25H24.4503C25.0503 17.25 25.5003 16.8 25.5003 16.2C25.5003 15.6 25.0503 15.15 24.4503 15.15H19.3503V12.3H46.5003V15.15H33.1503C32.5503 15.15 32.1003 15.6 32.1003 16.2C32.1003 16.8 32.5503 17.25 33.1503 17.25H53.8503V59.1001ZM29.5503 15.45C29.4003 15.3 29.1003 15.15 28.8003 15.15C28.5003 15.15 28.2003 15.3 28.0503 15.45C27.9003 15.6 27.7503 15.9 27.7503 16.2C27.7503 16.5 27.9003 16.8 28.0503 16.95C28.2003 17.1 28.5003 17.25 28.8003 17.25C29.1003 17.25 29.4003 17.1 29.5503 16.95C29.7003 16.8 29.8503 16.5 29.8503 16.2C29.8503 15.9 29.7003 15.6 29.5503 15.45Z" fill="#7F94A8"></path>
 </svg>
