<svg width="56" height="56" viewBox="0 0 56 56" fill="none" xmlns="http://www.w3.org/2000/svg">
<path d="M29.7055 28C29.7055 34.1453 28.6994 39.0242 26.6872 42.6369C24.7123 46.2123 21.638 48 17.4646 48C13.2538 48 10.1237 46.1937 8.07421 42.581C6.02473 38.9683 5 34.108 5 28C5 21.892 6.0061 17.0317 8.01832 13.419C10.0678 9.80633 13.1793 8 17.3528 8C21.5263 8 24.6191 9.80633 26.6313 13.419C28.6808 17.0317 29.7055 21.892 29.7055 28ZM17.4646 45.2626C23.5757 45.2626 26.6313 39.5084 26.6313 28C26.6313 16.4916 23.5385 10.7374 17.3528 10.7374C11.1671 10.7374 8.07421 16.4916 8.07421 28C8.07421 39.5084 11.2043 45.2626 17.4646 45.2626ZM37.9145 36.9274H34.1584V35.486H37.9145V24.0894C38.8312 24.0894 39.7814 24.0782 40.7651 24.0559C41.7489 24.0335 42.7103 24.0223 43.6493 24.0223C49.2164 24.0223 52 26.1788 52 30.4916C52 32.4804 51.2845 34.0559 49.8536 35.2179C48.4451 36.3575 46.377 36.9274 43.6493 36.9274H39.759V41.0503H45.8292V42.4916H39.759V47.5531H37.9145V42.4916H34.1584V41.0503H37.9145V36.9274ZM43.817 25.7654C43.0792 25.7654 41.7265 25.7877 39.759 25.8324V35.486H43.5822C45.7062 35.486 47.316 35.0726 48.4116 34.2458C49.5071 33.3966 50.0549 32.1899 50.0549 30.6257C50.0549 27.3855 47.9756 25.7654 43.817 25.7654Z" fill="#7F94A8"/>
</svg>
