<svg width="44" height="44" viewBox="0 0 44 44" fill="none" xmlns="http://www.w3.org/2000/svg">
  <path fill-rule="evenodd" clip-rule="evenodd" d="M12.7759 4.48462C12.7759 3.93233 12.3282 3.48462 11.7759 3.48462C11.2237 3.48462 10.7759 3.93233 10.7759 4.48462V5.56079H9.78052C7.01909 5.56079 4.78052 7.79936 4.78052 10.5608V35C4.78052 37.7614 7.01909 40 9.78052 40H34.2197C36.9811 40 39.2197 37.7614 39.2197 35V10.5608C39.2197 7.79937 36.9811 5.56079 34.2197 5.56079H32.6862V4.48462C32.6862 3.93233 32.2385 3.48462 31.6862 3.48462C31.134 3.48462 30.6862 3.93233 30.6862 4.48462V5.56079H12.7759V4.48462ZM30.6862 9.86574V7.56079H12.7759V9.86574C12.7759 10.418 12.3282 10.8657 11.7759 10.8657C11.2237 10.8657 10.7759 10.418 10.7759 9.86574V7.56079H9.78052C8.12366 7.56079 6.78052 8.90393 6.78052 10.5608V12.6325H37.2197V10.5608C37.2197 8.90393 35.8765 7.56079 34.2197 7.56079H32.6862V9.86574C32.6862 10.418 32.2385 10.8657 31.6862 10.8657C31.134 10.8657 30.6862 10.418 30.6862 9.86574ZM6.78052 35V14.6325H37.2197V35C37.2197 36.6568 35.8765 38 34.2197 38H9.78052C8.12366 38 6.78052 36.6568 6.78052 35ZM29.7996 20.6847C30.1281 20.2408 30.0345 19.6145 29.5905 19.2861C29.1466 18.9576 28.5203 19.0512 28.1918 19.4951L20.4584 29.9469L16.7185 26.853C16.2929 26.5009 15.6626 26.5605 15.3105 26.9861C14.9585 27.4116 15.0181 28.042 15.4436 28.394L19.997 32.1608C20.2086 32.3358 20.4828 32.4162 20.7554 32.3829C21.028 32.3497 21.2749 32.2058 21.4383 31.9851L29.7996 20.6847Z" fill="#7F94A8"></path>
</svg>
