<svg width="100" height="100" viewBox="0 0 100 100" fill="none" xmlns="http://www.w3.org/2000/svg">
  <circle cx="50" cy="50" r="49.5" stroke="#7F94A8"></circle>
  <path d="M69.5334 27.7075H30.4656C27.6322 27.7075 25.3252 30.0146 25.3252 32.8481V67.8034C25.3252 70.6368 27.6322 72.9439 30.4656 72.9439H55.14C55.7075 72.9439 56.1681 72.4832 56.1681 71.9157C56.1681 71.3482 55.7075 70.8876 55.14 70.8876H30.4656C28.7651 70.8876 27.3814 69.5038 27.3814 67.8033V37.9885H72.6176V59.5786C72.6176 60.1461 73.0782 60.6067 73.6457 60.6067C74.2132 60.6067 74.6739 60.1461 74.6739 59.5786V32.8481C74.6739 30.0146 72.3668 27.7075 69.5334 27.7075ZM72.6177 35.9324H27.3814V32.8481C27.3814 31.1476 28.7651 29.7638 30.4656 29.7638H69.5333C71.2338 29.7638 72.6176 31.1476 72.6176 32.8481V35.9324H72.6177Z" fill="#7F94A8"></path>
  <path d="M30.4656 33.8763C31.0335 33.8763 31.4938 33.416 31.4938 32.8482C31.4938 32.2804 31.0335 31.8201 30.4656 31.8201C29.8978 31.8201 29.4375 32.2804 29.4375 32.8482C29.4375 33.416 29.8978 33.8763 30.4656 33.8763Z" fill="#7F94A8"></path>
  <path d="M34.5782 33.8763C35.146 33.8763 35.6063 33.416 35.6063 32.8482C35.6063 32.2804 35.146 31.8201 34.5782 31.8201C34.0104 31.8201 33.55 32.2804 33.55 32.8482C33.55 33.416 34.0104 33.8763 34.5782 33.8763Z" fill="#7F94A8"></path>
  <path d="M38.6905 33.8763C39.2583 33.8763 39.7186 33.416 39.7186 32.8482C39.7186 32.2804 39.2583 31.8201 38.6905 31.8201C38.1227 31.8201 37.6624 32.2804 37.6624 32.8482C37.6624 33.416 38.1227 33.8763 38.6905 33.8763Z" fill="#7F94A8"></path>
  <path d="M74.3737 65.0191L59.9804 50.6258C59.6863 50.3339 59.2463 50.2454 58.8597 50.4037C58.4753 50.5621 58.2244 50.9384 58.2244 51.3537V71.9156C58.2244 72.3309 58.4753 72.7072 58.8597 72.8636C59.2463 73.026 59.6843 72.9376 59.9804 72.6415L63.0955 69.5264L65.6185 74.4407C65.7439 74.6874 65.9639 74.8705 66.225 74.9527C66.3257 74.9835 66.4306 75 66.5335 75C66.7 75 66.8645 74.9589 67.0166 74.8787L71.0447 72.7382C71.5382 72.4771 71.7336 71.8664 71.4785 71.3667L69.151 66.7753H73.6458C74.0612 66.7753 74.4374 66.5244 74.5958 66.1399C74.7562 65.7552 74.6678 65.3132 74.3737 65.0191ZM67.4772 64.7189C67.1195 64.7189 66.7884 64.904 66.6013 65.2082C66.4142 65.5125 66.3977 65.893 66.5602 66.2117L69.188 71.3975L66.9714 72.5757L64.2799 67.3344C64.1298 67.0424 63.8501 66.8389 63.5253 66.7874C63.4718 66.7792 63.4184 66.7751 63.3649 66.7751C63.0955 66.7751 62.8324 66.882 62.637 67.0773L60.2806 69.4337V53.8355L71.164 64.7189H67.4772Z" fill="#7F94A8"></path>
</svg>
