<svg width="100" height="100" viewBox="0 0 100 100" fill="none" xmlns="http://www.w3.org/2000/svg">
  <path d="M60.8275 42.9172H39.3103C38.862 42.9172 38.4137 43.2759 38.4137 43.8138C38.4137 44.2621 38.7723 44.7103 39.3103 44.7103H60.8275C61.2758 44.7103 61.7241 44.3517 61.7241 43.8138C61.7241 43.2759 61.2758 42.9172 60.8275 42.9172ZM39.3103 37.7172H47.9172C48.3654 37.7172 48.8137 37.3586 48.8137 36.8207C48.8137 36.3724 48.4551 35.9241 47.9172 35.9241H39.3103C38.862 35.9241 38.4137 36.2828 38.4137 36.8207C38.5034 37.3586 38.862 37.7172 39.3103 37.7172ZM60.8275 49.8207H39.3103C38.862 49.8207 38.4137 50.1793 38.4137 50.7172C38.4137 51.1655 38.7723 51.6138 39.3103 51.6138H60.8275C61.2758 51.6138 61.7241 51.2552 61.7241 50.7172C61.7241 50.1793 61.2758 49.8207 60.8275 49.8207ZM53.9241 56.6345H39.3103C38.862 56.6345 38.4137 56.9931 38.4137 57.531C38.4137 58.069 38.7723 58.4276 39.3103 58.4276H53.9241C54.3723 58.4276 54.8206 58.069 54.8206 57.531C54.8206 56.9931 54.462 56.6345 53.9241 56.6345ZM51.4137 65.2414C51.862 65.2414 52.3103 64.8828 52.3103 64.3448C52.3103 63.8069 51.9517 63.4483 51.4137 63.4483H39.3103C38.862 63.4483 38.4137 63.8069 38.4137 64.3448C38.4137 64.8828 38.7723 65.2414 39.3103 65.2414H51.4137ZM31.5999 25.7034H56.5241V37.7172H68.5379V53.2276H70.2413V36.5517L57.6896 24H29.8965V75.5517H54.8206V73.8483H31.5999V25.7034ZM58.2275 26.9586L67.2827 36.0138H58.2275V26.9586ZM79.4758 55.9172L77.0551 53.4966C76.0689 52.5103 74.3654 52.5103 73.4689 53.4966L60.1999 66.6759L58.4068 73.4L57.9586 73.8483C57.5999 74.2069 57.5999 74.7448 57.9586 75.0138C58.1379 75.1931 58.3172 75.2828 58.5861 75.2828C58.7654 75.2828 59.0344 75.1931 59.2137 75.0138L59.662 74.5655L66.3861 72.7724L79.5654 59.5931C80.0137 59.1448 80.2827 58.4276 80.2827 57.8C80.193 57.0828 79.9241 56.4552 79.4758 55.9172ZM62.1723 67.1241L70.9585 58.3379L74.6344 62.0138L65.7586 70.8L62.1723 67.1241ZM61.3654 68.8276L64.1448 71.6069L60.3792 72.6828L61.3654 68.8276ZM78.2206 58.3379L75.7999 60.7586L72.1241 57.1724L74.5448 54.7517C74.9034 54.3931 75.4413 54.3931 75.7103 54.7517L78.131 57.1724C78.3103 57.3517 78.3999 57.531 78.3999 57.8C78.4896 57.9793 78.3999 58.1586 78.2206 58.3379Z" fill="#7F94A8"></path>
  <circle cx="50" cy="50" r="49.5" stroke="#7F94A8"></circle>
</svg>
