<svg width="100" height="100" viewBox="0 0 100 100" fill="none" xmlns="http://www.w3.org/2000/svg">
  <circle cx="50" cy="50" r="49.5" stroke="#7F94A8"></circle>
  <g clip-path="url(#clip0)">
    <path d="M62.8571 72.4313H74.8571C77.75 72.4313 80 70.0424 80 67.219V65.2644C80 64.7214 79.5714 64.3956 79.1429 64.3956H76.0357V32.0356C76.0357 29.9724 74.4286 28.3435 72.3929 28.3435H27.3929C25.3571 28.3435 23.75 29.9724 23.75 32.0356V64.287H20.8571C20.3214 64.287 20 64.7214 20 65.1558V67.1104C20 70.0424 22.3571 72.3228 25.1429 72.3228H58.6786H62.8571V72.4313ZM58.7857 70.5853H25.1429C23.3214 70.5853 21.7143 69.065 21.7143 67.1104V66.0245H24.6071H42.7143C42.7143 67.7619 44.1071 69.1736 45.9286 69.1736H53.9643C55.6786 69.1736 57.0714 67.7619 57.1786 66.0245H75.0714H78.1786V67.1104C78.1786 68.9564 76.6786 70.5853 74.75 70.5853H62.8571H58.7857ZM54.0714 67.4362H46.0357C45.2857 67.4362 44.6429 66.7846 44.6429 66.1331H55.4643C55.3571 66.8932 54.8214 67.4362 54.0714 67.4362ZM74.2143 64.287H25.5714V32.0356C25.5714 31.0583 26.4286 30.1895 27.3929 30.1895H72.3929C73.3571 30.1895 74.2143 31.0583 74.2143 32.0356V64.287ZM33.0714 31.7098H27.9286C27.3929 31.7098 27.0714 32.1442 27.0714 32.5785V61.7895C27.0714 62.3324 27.5 62.6582 27.9286 62.6582H71.75C72.2857 62.6582 72.6071 62.2238 72.6071 61.7895V32.5785C72.6071 32.0356 72.1786 31.7098 71.75 31.7098H37.25H33.0714ZM37.25 33.5559H70.8929V60.9207H28.8929V33.5559H33.0714H37.25Z" fill="#7F94A8"></path>
  </g>
  <defs>
    <clipPath id="clip0">
      <rect width="60" height="48.6487" fill="white" transform="translate(20 24)"></rect>
    </clipPath>
  </defs>
</svg>
