<svg width="100" height="100" viewBox="0 0 100 100" fill="none" xmlns="http://www.w3.org/2000/svg">
  <circle cx="50" cy="50" r="49.5" stroke="#7F94A8"></circle>
  <path d="M66.5139 40.6218H33.4863C33.0166 40.6218 32.636 41.0025 32.636 41.4721C32.636 41.9418 33.0166 42.3224 33.4863 42.3224H66.5139C66.9835 42.3224 67.3642 41.9418 67.3642 41.4721C67.3642 41.0025 66.9835 40.6218 66.5139 40.6218Z" fill="#7F94A8"></path>
  <path d="M66.5139 49.8802H33.4863C33.0166 49.8802 32.636 50.2609 32.636 50.7305C32.636 51.2001 33.0166 51.5808 33.4863 51.5808H66.5139C66.9835 51.5808 67.3642 51.2002 67.3642 50.7305C67.3642 50.2609 66.9835 49.8802 66.5139 49.8802Z" fill="#7F94A8"></path>
  <path d="M55.6863 55.8887H44.3144C43.8447 55.8887 43.4641 56.2693 43.4641 56.739C43.4641 57.2085 43.8447 57.5892 44.3144 57.5892H55.6863C56.1559 57.5892 56.5365 57.2086 56.5365 56.739C56.5365 56.2693 56.1559 55.8887 55.6863 55.8887Z" fill="#7F94A8"></path>
  <path d="M66.5139 45.2319H41.8781C41.4085 45.2319 41.0278 45.6126 41.0278 46.0822C41.0278 46.5518 41.4085 46.9325 41.8781 46.9325H66.5139C66.9835 46.9325 67.3641 46.5519 67.3641 46.0822C67.3641 45.6126 66.9835 45.2319 66.5139 45.2319Z" fill="#7F94A8"></path>
  <path d="M37.9221 45.2319H33.4863C33.0166 45.2319 32.636 45.6126 32.636 46.0822C32.636 46.5519 33.0166 46.9325 33.4863 46.9325H37.9221C38.3918 46.9325 38.7724 46.5519 38.7724 46.0822C38.7724 45.6127 38.3918 45.2319 37.9221 45.2319Z" fill="#7F94A8"></path>
  <path d="M76.6398 30.5742H23.3602C22.0588 30.5742 21 31.6331 21 32.9344V68.8978C21 70.1993 22.0588 71.258 23.3602 71.258H59.0492L57.7857 73.9058C57.6234 74.2457 57.6629 74.6444 57.8886 74.9459C58.1143 75.2476 58.4858 75.3975 58.8575 75.338L61.2099 74.9599L62.522 77.1137C62.706 77.4159 63.0329 77.5983 63.3842 77.5983C63.4013 77.5983 63.4185 77.5978 63.4357 77.5969C63.8064 77.5781 64.1359 77.3584 64.296 77.0233L66.5759 72.2459L68.8556 77.0229C69.0153 77.358 69.3448 77.578 69.7156 77.597C69.7329 77.5979 69.7504 77.5984 69.7676 77.5984C70.1189 77.5984 70.4458 77.416 70.6298 77.1139L71.9419 74.9601L74.2943 75.3383C74.6671 75.3979 75.0379 75.2476 75.2634 74.9458C75.4891 74.644 75.5283 74.2455 75.3659 73.9061L74.1024 71.2584H76.6398C77.9412 71.2584 79 70.1997 79 68.8982V32.9344C79 31.6331 77.9412 30.5742 76.6398 30.5742ZM63.3107 75.1396L62.4206 73.6789C62.2063 73.327 61.805 73.1419 61.3979 73.2073L59.8874 73.4502L61.4786 70.1161C62.1057 70.756 62.9991 71.1017 63.9266 71.0144C64.2436 70.984 64.5615 71.0694 64.8213 71.254C64.9069 71.3149 64.9958 71.369 65.0859 71.4199L63.3107 75.1396ZM66.7787 70.0977C66.776 70.098 66.7734 70.0983 66.7707 70.0987C66.6418 70.1178 66.5107 70.1178 66.3818 70.0988C66.3785 70.0984 66.3753 70.098 66.3721 70.0976C66.1724 70.0667 65.9782 69.9902 65.8062 69.868C65.292 69.5023 64.6779 69.3079 64.0514 69.3079C63.9565 69.3079 63.8613 69.3124 63.7662 69.3214C63.2033 69.3745 62.6685 69.0654 62.4335 68.552C62.3292 68.3241 62.1961 68.1131 62.0416 67.9202C62.0348 67.9106 62.0273 67.9015 62.0202 67.8922C62.0116 67.8818 62.0035 67.8711 61.9949 67.8607C61.985 67.8492 61.9747 67.8382 61.9642 67.8272C61.683 67.5037 61.3356 67.2395 60.9399 67.0585C60.4264 66.8235 60.1173 66.2879 60.1705 65.7257C60.2389 65.0023 60.0449 64.2778 59.6239 63.6856C59.2966 63.2254 59.2966 62.607 59.6238 62.1467C60.0449 61.5546 60.2389 60.8301 60.1705 60.1066C60.1173 59.5444 60.4265 59.0088 60.9399 58.7739C61.6007 58.4715 62.1311 57.9412 62.4334 57.2804C62.6685 56.7669 63.2052 56.4576 63.7662 56.511C64.4904 56.5793 65.2142 56.3852 65.8064 55.9643C66.2667 55.6371 66.8851 55.6371 67.3453 55.9643C67.9375 56.3852 68.6615 56.5788 69.3855 56.511C69.9482 56.4575 70.4834 56.767 70.7183 57.2804C71.0207 57.9412 71.5511 58.4715 72.2117 58.7738C72.7252 59.0088 73.0345 59.5444 72.9813 60.1065C72.9128 60.8301 73.1069 61.5546 73.5278 62.1466C73.8551 62.6069 73.8551 63.2253 73.5278 63.6855C73.1069 64.2778 72.9128 65.0023 72.9813 65.7256C73.0345 66.2878 72.7252 66.8234 72.2116 67.0585C71.8168 67.2392 71.4702 67.5027 71.1894 67.8252C71.1778 67.8372 71.1665 67.8493 71.1558 67.8619C71.1485 67.8707 71.1416 67.8799 71.1342 67.8888C71.1257 67.8997 71.1171 67.9104 71.1092 67.9216C70.9551 68.1142 70.8223 68.3246 70.7183 68.552C70.4833 69.0654 69.9477 69.3747 69.3855 69.3214C68.6627 69.2533 67.9377 69.447 67.3453 69.868C67.1731 69.9903 66.9787 70.0669 66.7787 70.0977ZM71.7537 73.2072C71.3465 73.142 70.9455 73.327 70.731 73.679L69.8411 75.1397L68.0659 71.4199C68.1559 71.369 68.2447 71.3149 68.3305 71.254C68.5904 71.0693 68.9085 70.9837 69.2252 71.0143C70.153 71.1017 71.0462 70.756 71.6733 70.1161L73.2643 73.45L71.7537 73.2072ZM77.2995 68.8979C77.2995 69.2617 77.0036 69.5577 76.6398 69.5577H73.2909L72.8525 68.639C72.8745 68.6273 72.8965 68.6151 72.9194 68.6047C74.0903 68.0687 74.7955 66.8473 74.6741 65.5654C74.6441 65.2483 74.7292 64.9305 74.9138 64.6707C75.6599 63.6212 75.6599 62.2108 74.9137 61.1613C74.7292 60.9016 74.6441 60.584 74.6741 60.2667C74.7955 58.9848 74.0903 57.7634 72.9193 57.2275C72.6296 57.0948 72.3971 56.8623 72.2644 56.5726C71.7286 55.4016 70.5066 54.6967 69.2251 54.8179C68.9077 54.8481 68.5901 54.7628 68.3305 54.5782C67.2809 53.8321 65.8705 53.832 64.821 54.5782C64.5613 54.7628 64.2429 54.8481 63.9265 54.8178C62.643 54.697 61.4229 55.4016 60.8872 56.5725C60.7546 56.8623 60.522 57.0947 60.2322 57.2274C59.0614 57.7633 58.3562 58.9846 58.4775 60.2666C58.5075 60.5839 58.4225 60.9015 58.2378 61.1613C57.4917 62.2108 57.4917 63.6212 58.2378 64.6706C58.4225 64.9303 58.5075 65.248 58.4775 65.5653C58.3562 66.8473 59.0614 68.0687 60.2322 68.6045C60.2551 68.615 60.277 68.6272 60.2991 68.6389L59.8607 69.5577H23.3602C22.9965 69.5577 22.7005 69.2618 22.7005 68.8979V32.9344C22.7005 32.5707 22.9964 32.2747 23.3602 32.2747H76.6398C77.0035 32.2747 77.2995 32.5707 77.2995 32.9344V68.8979Z" fill="#7F94A8"></path>
  <path d="M66.5137 57.6334C63.6008 57.6334 61.231 60.0033 61.231 62.9161C61.231 65.829 63.6008 68.1988 66.5137 68.1988C69.4266 68.1988 71.7964 65.8289 71.7964 62.9161C71.7964 60.0032 69.4266 57.6334 66.5137 57.6334ZM66.5137 66.4982C64.5384 66.4982 62.9314 64.8912 62.9314 62.916C62.9314 60.9408 64.5384 59.3338 66.5137 59.3338C68.4889 59.3338 70.0959 60.9408 70.0959 62.916C70.0959 64.8912 68.4889 66.4982 66.5137 66.4982Z" fill="#7F94A8"></path>
</svg>
