<svg width="56" height="56" viewBox="0 0 56 56" fill="none" xmlns="http://www.w3.org/2000/svg">
<path d="M44.2273 51H21.3182C18.6455 51 16.5455 48.8917 16.5455 46.2083V17.4583C16.5455 14.775 18.6455 12.6667 21.3182 12.6667H44.2273C46.9 12.6667 49 14.775 49 17.4583V46.2083C49 48.8917 46.9 51 44.2273 51ZM21.3182 14.5833C19.6955 14.5833 18.4545 15.8292 18.4545 17.4583V46.2083C18.4545 47.8375 19.6955 49.0833 21.3182 49.0833H44.2273C45.85 49.0833 47.0909 47.8375 47.0909 46.2083V17.4583C47.0909 15.8292 45.85 14.5833 44.2273 14.5833H21.3182ZM13.6818 45.25H11.7727C9.1 45.25 7 43.1417 7 40.4583V9.79167C7 7.10833 9.1 5 11.7727 5H34.6818C37.3545 5 39.4545 7.10833 39.4545 9.79167C39.4545 10.3667 39.0727 10.75 38.5 10.75C37.9273 10.75 37.5455 10.3667 37.5455 9.79167C37.5455 8.1625 36.3045 6.91667 34.6818 6.91667H11.7727C10.15 6.91667 8.90909 8.1625 8.90909 9.79167V40.4583C8.90909 42.0875 10.15 43.3333 11.7727 43.3333H13.6818C14.2545 43.3333 14.6364 43.7167 14.6364 44.2917C14.6364 44.8667 14.2545 45.25 13.6818 45.25ZM40.4091 37.5833H25.1364C24.5636 37.5833 24.1818 37.2 24.1818 36.625C24.1818 36.05 24.5636 35.6667 25.1364 35.6667H40.4091C40.9818 35.6667 41.3636 36.05 41.3636 36.625C41.3636 37.2 40.9818 37.5833 40.4091 37.5833ZM40.4091 45.25H25.1364C24.5636 45.25 24.1818 44.8667 24.1818 44.2917C24.1818 43.7167 24.5636 43.3333 25.1364 43.3333H40.4091C40.9818 43.3333 41.3636 43.7167 41.3636 44.2917C41.3636 44.8667 40.9818 45.25 40.4091 45.25ZM40.4091 29.9167H25.1364C24.5636 29.9167 24.1818 29.5333 24.1818 28.9583C24.1818 28.3833 24.5636 28 25.1364 28H40.4091C40.9818 28 41.3636 28.3833 41.3636 28.9583C41.3636 29.5333 40.9818 29.9167 40.4091 29.9167ZM40.4091 22.25H25.1364C24.5636 22.25 24.1818 21.8667 24.1818 21.2917C24.1818 20.7167 24.5636 20.3333 25.1364 20.3333H40.4091C40.9818 20.3333 41.3636 20.7167 41.3636 21.2917C41.3636 21.8667 40.9818 22.25 40.4091 22.25Z" fill="url(#paint0_linear_2778_536)"/>
<defs>
<linearGradient id="paint0_linear_2778_536" x1="15.6625" y1="51" x2="53.0539" y2="40.3153" gradientUnits="userSpaceOnUse">
<stop stop-color="#FE5000"/>
<stop offset="1" stop-color="#FCA92A"/>
</linearGradient>
</defs>
</svg>
