<svg width="56" height="56" viewBox="0 0 56 56" fill="none" xmlns="http://www.w3.org/2000/svg">
<path d="M45.1014 7.63637H10.8978C8.43623 7.63637 6.36328 9.692 6.36328 12.1331V42.4537C6.36328 44.8948 8.43623 46.9504 10.8978 46.9504H32.5342C33.0525 46.9504 33.4411 46.565 33.4411 46.051C33.4411 45.5371 33.0525 45.1517 32.5342 45.1517H10.8978C9.4727 45.1517 8.17711 43.9954 8.17711 42.4537V16.5013H47.8222V35.259C47.8222 35.7729 48.2109 36.1583 48.7291 36.1583C49.2473 36.1583 49.636 35.7729 49.636 35.259V12.1331C49.636 9.692 47.5631 7.63637 45.1014 7.63637ZM47.8222 14.8311H8.17711V12.1331C8.17711 10.7198 9.34314 9.43505 10.8978 9.43505H45.1014C46.5266 9.43505 47.8222 10.5913 47.8222 12.1331V14.8311ZM10.8978 13.0324C11.4161 13.0324 11.8048 12.647 11.8048 12.1331C11.8048 11.6192 11.4161 11.2337 10.8978 11.2337C10.3796 11.2337 9.99094 11.6192 9.99094 12.1331C9.99094 12.647 10.3796 13.0324 10.8978 13.0324ZM14.5255 13.0324C15.0437 13.0324 15.4324 12.647 15.4324 12.1331C15.4324 11.6192 15.0437 11.2337 14.5255 11.2337C14.0073 11.2337 13.6186 11.6192 13.6186 12.1331C13.6186 12.647 14.0073 13.0324 14.5255 13.0324ZM18.1532 13.0324C18.6714 13.0324 19.0601 12.647 19.0601 12.1331C19.0601 11.6192 18.6714 11.2337 18.1532 11.2337C17.6349 11.2337 17.2462 11.6192 17.2462 12.1331C17.2462 12.647 17.6349 13.0324 18.1532 13.0324ZM49.3769 40.0126L36.8097 27.5503C36.5505 27.2934 36.1619 27.1649 35.7732 27.2934C35.3845 27.4219 35.255 27.8073 35.255 28.0642V45.9226C35.255 46.308 35.5141 46.565 35.7732 46.6934C36.1619 46.8219 36.5505 46.6934 36.8097 46.4365L39.5304 43.7385L41.7329 47.9782C41.8625 48.2352 41.992 48.3636 42.2511 48.3636C42.3807 48.3636 42.3807 48.3636 42.5103 48.3636C42.6398 48.3636 42.7694 48.3636 42.8989 48.2352L46.397 46.4365C46.7857 46.1795 47.0448 45.6656 46.7857 45.2802L44.7128 41.2974H48.5995C48.9882 41.2974 49.2473 41.0404 49.3769 40.7835C49.636 40.655 49.636 40.2696 49.3769 40.0126ZM43.2876 39.7557C43.0285 39.7557 42.6398 39.8841 42.5103 40.1411C42.3807 40.3981 42.3807 40.7835 42.5103 41.0404L44.8423 45.5371L42.8989 46.565L40.5669 42.0683C40.4373 41.8113 40.1782 41.6828 39.9191 41.5543H39.7895C39.5304 41.5543 39.2713 41.6828 39.1417 41.8113L37.0688 43.8669V30.2484L46.6562 39.7557H43.2876Z" fill="url(#paint0_linear_2778_614)"/>
<defs>
<linearGradient id="paint0_linear_2778_614" x1="15.2883" y1="48.3636" x2="52.8096" y2="35.8868" gradientUnits="userSpaceOnUse">
<stop stop-color="#FE5000"/>
<stop offset="1" stop-color="#FCA92A"/>
</linearGradient>
</defs>
</svg>
