<svg width="44" height="44" viewBox="0 0 44 44" fill="none" xmlns="http://www.w3.org/2000/svg">
<path d="M41.2258 10.0383C41.2231 10.0383 41.2205 10.0383 41.218 10.0383H38.5895V9.13892C38.6037 8.78293 38.3734 8.46299 38.0312 8.36355C36.2064 7.88534 34.3273 7.64556 32.4409 7.65021C29.3394 7.65021 25.1137 8.34804 21.9889 11.527C18.8875 8.31703 14.6307 7.65021 11.537 7.65021C9.65053 7.64556 7.77144 7.88534 5.94661 8.36355C5.60448 8.46299 5.3742 8.78293 5.38835 9.13892V10.0306H2.77537C2.34717 10.0306 2 10.3778 2 10.806V35.5711C2 35.9993 2.34717 36.3465 2.77537 36.3465C2.90853 36.3461 3.03938 36.3114 3.1553 36.2457C3.23283 36.2069 10.9865 31.9657 21.8106 34.695H21.9269H21.9967C22.0585 34.7024 22.1209 34.7024 22.1828 34.695C33.0379 31.9424 40.7915 36.1759 40.8381 36.2457C41.0779 36.3842 41.3736 36.3842 41.6134 36.2457C41.8519 36.1081 41.9995 35.8542 42.0011 35.5789V10.8137C42.0011 10.3855 41.654 10.0383 41.2258 10.0383ZM3.55073 34.3383V11.5891H5.40386V31.0352C5.39901 31.4634 5.74221 31.8145 6.1704 31.8193C6.21227 31.8198 6.25414 31.8169 6.29553 31.8106C7.89956 31.5657 9.51901 31.4361 11.1416 31.4229C13.3892 31.384 15.6273 31.722 17.7632 32.4231C12.9399 31.8399 8.04756 32.4991 3.55073 34.3383ZM11.1416 29.8799C9.73127 29.8831 8.32262 29.9738 6.92357 30.1513V9.75145C8.43321 9.41514 9.97483 9.24349 11.5215 9.23971C14.4214 9.23971 18.4222 9.90653 21.1981 13.039L21.2213 32.3534C19.6086 31.2989 16.4606 29.8799 11.1416 29.8799ZM22.772 13.039C25.5479 9.93754 29.5487 9.23971 32.4486 9.23971C33.9952 9.24427 35.5368 9.41582 37.0465 9.75145V30.1513C35.6553 29.9721 34.2544 29.8789 32.8518 29.8722C27.5638 29.8722 24.4081 31.2911 22.772 32.3456V13.039ZM40.4426 34.3383C35.9362 32.4941 31.0326 31.8347 26.1992 32.4231C28.3451 31.7195 30.5939 31.3813 32.8518 31.4229C34.4845 31.432 36.1144 31.559 37.7289 31.8029C38.1522 31.8671 38.5475 31.576 38.6118 31.1526C38.6181 31.1112 38.621 31.0694 38.6205 31.0275V11.5891H40.4736L40.4426 34.3383Z" fill="#7F94A8"/>
</svg>
