<svg width="44" height="44" viewBox="0 0 44 44" fill="none" xmlns="http://www.w3.org/2000/svg">
<g clip-path="url(#clip0_2779_895)">
<path d="M8.68649 36.6862C5.70325 36.6862 2.98324 35.8088 0.350969 33.9662C0.175485 33.703 0 33.4398 0 33.1765V10.1003C0 9.74933 0.175485 9.48611 0.438712 9.31063C0.701939 9.13515 1.05291 9.22288 1.40388 9.39837C3.68518 11.0655 6.05422 11.8552 8.68649 11.8552C12.8981 11.8552 17.2852 9.74933 21.5846 7.73126C26.0595 5.62544 30.6221 3.43188 35.2724 3.43188C38.2557 3.43188 40.9757 4.30931 43.6079 6.1519C43.6957 6.41512 43.8712 6.67835 43.8712 6.94158V30.0178C43.8712 30.3688 43.6957 30.632 43.4325 30.8075C43.1692 30.983 42.8183 30.8952 42.4673 30.7198C40.186 29.0527 37.817 28.263 35.1847 28.263C30.973 28.263 26.5859 30.3688 22.2866 32.3869C17.8994 34.4927 13.2491 36.6862 8.68649 36.6862ZM1.75485 32.7378C3.94841 34.2295 6.14196 34.9314 8.68649 34.9314C12.8981 34.9314 17.2852 32.8256 21.5846 30.8075C26.0595 28.7017 30.6221 26.5081 35.2724 26.5081C37.7292 26.5081 40.0105 27.1223 42.2041 28.3507V7.38029C40.0105 5.88867 37.817 5.18673 35.2724 5.18673C31.0608 5.18673 26.6737 7.29256 22.3743 9.31063C17.8994 11.4164 13.3368 13.61 8.68649 13.61C6.22971 13.61 3.94841 12.9958 1.75485 11.7674V32.7378Z" fill="#7F94A8"/>
<path d="M8.68683 40.4591C5.96682 40.4591 3.15907 39.6694 0.439058 37.739C0.088089 37.4758 -0.0873957 36.8616 0.263574 36.5106C0.526801 36.0719 1.14099 35.9842 1.49196 36.3352C8.07264 41.0733 14.6533 37.9145 21.6727 34.6681C28.7798 31.2461 36.1502 27.8242 43.6083 33.1764C44.047 33.4397 44.1347 34.0539 43.7837 34.4048C43.5205 34.8435 42.9063 34.9313 42.5553 34.5803C35.9747 29.8422 29.394 33.001 22.3746 36.2474C17.812 38.2655 13.2494 40.4591 8.68683 40.4591Z" fill="#7F94A8"/>
<path d="M8.68715 18.3481C7.72198 18.3481 6.75681 18.2603 5.79165 18.0848C5.35294 17.9971 5.00197 17.4706 5.08971 17.0319C5.17745 16.5932 5.61616 16.2422 6.14262 16.33C8.86263 16.9442 11.8459 16.5055 15.5311 15.1016C15.9698 14.9261 16.4962 15.1893 16.6717 15.6281C16.8472 16.0668 16.584 16.5932 16.1453 16.7687C13.3375 17.8216 10.8807 18.3481 8.68715 18.3481Z" fill="#7F94A8"/>
<path d="M27.9892 11.5042C27.6382 11.5042 27.2873 11.2409 27.1995 10.89C27.024 10.4512 27.2873 9.92479 27.726 9.7493C31.7621 8.25768 35.0086 7.81897 38.0796 8.52091C38.5183 8.60865 38.8692 9.13511 38.7815 9.57382C38.6938 10.0125 38.255 10.3635 37.7286 10.2758C35.0086 9.7493 32.0253 10.1003 28.3402 11.5042C28.2524 11.5042 28.1647 11.5042 27.9892 11.5042Z" fill="#7F94A8"/>
<path d="M8.68715 31.8603C7.72198 31.8603 6.75682 31.7725 5.79165 31.597C5.35294 31.5093 5.00197 31.0706 5.08971 30.5441C5.17746 30.1054 5.70391 29.7545 6.14262 29.8422C8.86263 30.4564 11.8458 30.0177 15.531 28.6138C15.9697 28.4383 16.4962 28.7015 16.6717 29.1403C16.8471 29.579 16.5839 30.1054 16.1452 30.2809C13.3374 31.4216 10.8807 31.8603 8.68715 31.8603Z" fill="#7F94A8"/>
<path d="M22.6383 21.5945C24.9196 20.6293 26.3235 18.699 26.3235 16.4177V13.8731C26.3235 11.6796 24.8319 10.8899 22.6383 11.7673L19.3041 13.1712C18.8654 13.3467 18.5145 13.8731 18.5145 14.2241V21.6822L17.5493 22.1209C17.1106 22.2964 16.7596 22.7351 16.7596 23.1738C16.7596 23.6125 17.1106 23.788 17.5493 23.6125L18.5145 23.1738V24.7532L17.4615 25.1919C17.0228 25.3674 16.6719 25.8938 16.6719 26.2448C16.6719 26.6835 17.0228 26.859 17.4615 26.6835L18.4267 26.2448V28.6139C18.4267 29.0526 18.7777 29.2281 19.2164 29.0526C19.6551 28.8771 20.0061 28.4384 20.0061 27.9997V25.6306L23.6035 24.139C24.0422 23.9635 24.3932 23.5248 24.3932 23.0861C24.3932 22.6474 24.0422 22.4719 23.6035 22.6474L20.0061 24.139V22.6474L22.6383 21.5945ZM20.0061 14.4873L22.6383 13.4344C23.428 13.0835 24.8319 12.8202 24.8319 14.5751V17.1196C24.8319 17.997 24.5687 19.3132 22.6383 20.1028L21.059 20.717L20.0061 21.1558V14.4873Z" fill="#7F94A8"/>
<path d="M27.9891 25.0164C27.6382 25.0164 27.2872 24.7531 27.1995 24.4022C27.024 23.9634 27.2872 23.437 27.7259 23.2615C31.7621 21.7699 35.0085 21.3312 38.0795 22.0331C38.5182 22.1209 38.8692 22.5596 38.7814 23.086C38.6937 23.5247 38.255 23.8757 37.7285 23.788C35.0085 23.2615 32.0253 23.6125 28.3401 25.0164C28.2524 25.0164 28.1646 25.0164 27.9891 25.0164Z" fill="#7F94A8"/>
</g>
<defs>
<clipPath id="clip0_2779_895">
<rect width="44" height="44" fill="white"/>
</clipPath>
</defs>
</svg>
