<svg width="290" height="290" viewBox="0 0 290 290" fill="none" xmlns="http://www.w3.org/2000/svg">
<mask id="mask0_3516_1268" style="mask-type:alpha" maskUnits="userSpaceOnUse" x="0" y="0" width="290" height="290">
<rect width="290" height="290" fill="#D9D9D9"/>
</mask>
<g mask="url(#mask0_3516_1268)">
<g opacity="0.08">
<path d="M189.918 75.1035L247.708 101.125V243.268L189.918 275.253V75.1035Z" fill="#00B8D8"/>
<path d="M167.148 297.049V367.85L65.1201 313.638L61 240.561L167.148 297.049Z" fill="#00B8D8"/>
<path d="M166.506 204.559V276.226L65.1289 219.196V149.805L166.506 204.559Z" fill="#00B8D8"/>
<path d="M290 312.548L189.273 366.759V296.501L290 241.422V312.548Z" fill="#00B8D8"/>
<path d="M165.846 183.532L101.658 151.005L104.694 102.648L165.846 75V183.532Z" fill="#00B8D8"/>
</g>
<g clip-path="url(#clip0_3516_1268)">
<path d="M139.095 44.747H128.71L126.869 50.6205H118.768L130.331 19.2093H137.456L149.13 50.6205H140.918L139.095 44.747ZM130.533 38.9104H137.272L133.884 28.0103L130.533 38.9104ZM173.434 25.046H164.007V50.6205H156.495V25.046H147.288V19.2093H173.434V25.046ZM201.66 25.046H192.233V50.6205H184.666V25.046H175.459V19.2093H201.66V25.046ZM212.947 50.6205H205.398V19.2093H212.947V50.6205ZM234.416 42.2614C234.442 41.7685 234.349 41.2766 234.144 40.8277C233.939 40.3788 233.628 39.9863 233.238 39.6837C231.973 38.8474 230.58 38.2254 229.113 37.8424C227.457 37.3017 225.839 36.6497 224.271 35.8908C220.202 33.9022 218.176 31.1404 218.176 27.6605C218.146 25.9998 218.678 24.3777 219.686 23.0574C220.804 21.6388 222.296 20.561 223.995 19.9458C225.991 19.1773 228.116 18.7962 230.255 18.8226C232.338 18.7852 234.405 19.1998 236.313 20.0378C238.013 20.7591 239.47 21.9543 240.511 23.4809C241.506 24.9929 242.02 26.7712 241.984 28.5811H234.435C234.468 28.028 234.38 27.4744 234.176 26.959C233.972 26.4437 233.658 25.9793 233.256 25.5983C232.393 24.8548 231.283 24.4608 230.144 24.4936C229 24.4277 227.866 24.7452 226.922 25.3958C226.559 25.6504 226.264 25.9898 226.062 26.3844C225.86 26.7791 225.757 27.2171 225.762 27.6605C225.785 28.1051 225.913 28.5378 226.137 28.9223C226.362 29.3067 226.675 29.6318 227.051 29.87C228.457 30.7688 229.99 31.4515 231.599 31.8953C233.461 32.4478 235.258 33.2009 236.957 34.1416C238.479 34.8735 239.764 36.0204 240.663 37.4505C241.562 38.8805 242.039 40.5354 242.039 42.2246C242.095 43.492 241.837 44.7536 241.288 45.8972C240.738 47.0408 239.915 48.0309 238.89 48.7793C236.38 50.468 233.386 51.2892 230.365 51.1177C227.989 51.1543 225.632 50.6966 223.442 49.7736C221.569 49.0174 219.952 47.7393 218.784 46.0911C217.724 44.4466 217.179 42.5234 217.219 40.5675H224.823C224.774 41.2368 224.863 41.9091 225.085 42.5426C225.307 43.176 225.656 43.7572 226.112 44.2499C227.341 45.1445 228.852 45.5631 230.365 45.4283C231.407 45.49 232.441 45.2122 233.311 44.6366C233.681 44.3665 233.977 44.0069 234.17 43.5915C234.363 43.1761 234.448 42.7184 234.416 42.2614Z" fill="#04416D"/>
<path d="M83.8926 10.1113L93.7064 14.5303V38.6687L83.8926 44.1003V10.1113Z" fill="#04416D"/>
<path d="M80.0258 47.8017V59.8249L62.6997 50.6188L62 38.209L80.0258 47.8017Z" fill="#04416D"/>
<path d="M79.9168 32.095V44.2655L62.7012 34.5807V22.7969L79.9168 32.095Z" fill="#04416D"/>
<path d="M100.888 50.4339L83.7832 59.64V47.7089L100.888 38.3555V50.4339Z" fill="#04416D"/>
<path d="M79.8045 28.5244L68.9043 23.0007L69.4198 14.7889L79.8045 10.0938V28.5244Z" fill="#04416D"/>
</g>
</g>
<defs>
<clipPath id="clip0_3516_1268">
<rect width="180" height="50" fill="white" transform="translate(62 10)"/>
</clipPath>
</defs>
</svg>
