<svg width="56" height="56" viewBox="0 0 56 56" fill="none" xmlns="http://www.w3.org/2000/svg">
<path fill-rule="evenodd" clip-rule="evenodd" d="M45.2701 15.0409C45.2866 15.0676 45.2985 15.0869 45.3298 15.0869C45.3298 15.1374 45.3424 15.2006 45.355 15.2638C45.3677 15.3269 45.3803 15.3901 45.3803 15.4407V23.1822C51.2881 23.4356 55.9999 28.3052 55.9999 34.2753C55.9999 40.2455 51.2881 45.1151 45.3803 45.3684V45.5102C45.3803 48.6435 42.8029 51.2209 39.6696 51.2209H14.4011C11.2678 51.2209 8.69043 48.6435 8.69043 45.5102V10.488C8.69043 7.35473 11.2678 4.77734 14.4011 4.77734H35.7277C35.8794 4.77734 36.031 4.82788 36.132 4.87842C36.1573 4.87842 36.1699 4.89105 36.1826 4.90369C36.1952 4.91632 36.2078 4.92895 36.2331 4.92895C36.2584 4.95422 36.2963 4.97949 36.3342 5.00476C36.3721 5.03003 36.41 5.0553 36.4353 5.08057L45.1276 14.8342C45.1529 14.8595 45.1655 14.8847 45.1782 14.91C45.1908 14.9353 45.2034 14.9606 45.2287 14.9858C45.248 15.0051 45.2599 15.0244 45.2701 15.0409ZM43.4599 16.4009V23.2639C39.4953 23.7761 36.1862 26.3793 34.6748 29.9316C34.6581 29.9307 34.6413 29.9302 34.6243 29.9302H15.3524C14.8724 29.9302 14.4834 30.3192 14.4834 30.7991C14.4834 31.2791 14.8724 31.6681 15.3524 31.6681H34.1008C33.8996 32.5043 33.793 33.3774 33.793 34.2753C33.793 34.437 33.7964 34.5978 33.8033 34.7578H15.3524C14.8724 34.7578 14.4834 35.1469 14.4834 35.6268C14.4834 36.1067 14.8724 36.4957 15.3524 36.4957H34.015C34.9505 41.1047 38.7408 44.6771 43.4599 45.2867V45.4596C43.4599 47.5822 41.7922 49.3005 39.6696 49.3005H14.4011C12.2786 49.3005 10.6108 47.5822 10.6108 45.5102V10.4375C10.6108 8.31494 12.3291 6.64721 14.4011 6.64721H34.7675V15.4407C34.7675 15.946 35.1718 16.4009 35.7277 16.4009H43.4599ZM42.2976 14.531L36.6879 8.21386V14.531H42.2976ZM14.4833 40.4544C14.4833 39.9745 14.8723 39.5854 15.3522 39.5854H26.166C26.6459 39.5854 27.035 39.9745 27.035 40.4544C27.035 40.9343 26.6459 41.3234 26.166 41.3234H15.3522C14.8723 41.3234 14.4833 40.9343 14.4833 40.4544ZM15.3522 25.1029C14.8723 25.1029 14.4833 25.4919 14.4833 25.9718C14.4833 26.4517 14.8723 26.8408 15.3522 26.8408H26.166C26.6459 26.8408 27.035 26.4517 27.035 25.9718C27.035 25.4919 26.6459 25.1029 26.166 25.1029H15.3522ZM44.8964 43.6408C50.0688 43.6408 54.2619 39.4478 54.2619 34.2753C54.2619 29.1029 50.0688 24.9098 44.8964 24.9098C39.724 24.9098 35.5309 29.1029 35.5309 34.2753C35.5309 39.4478 39.724 43.6408 44.8964 43.6408ZM44.5117 38.1406L51.0117 31.6406L49.7813 30.4102L43.8965 36.295L40.0117 32.4102L38.7813 33.6406L43.2813 38.1406L43.8965 38.7558L44.5117 38.1406Z" fill="url(#paint0_linear_2516_1530)"/>
<defs>
<linearGradient id="paint0_linear_2516_1530" x1="8.69043" y1="51.2209" x2="55.126" y2="3.9195" gradientUnits="userSpaceOnUse">
<stop stop-color="#FE5000"/>
<stop offset="1" stop-color="#FE9800"/>
</linearGradient>
</defs>
</svg>
