<svg width="56" height="56" viewBox="0 0 56 56" fill="none" xmlns="http://www.w3.org/2000/svg">
<path fill-rule="evenodd" clip-rule="evenodd" d="M7.82698 40.421C7.58008 40.4955 7.31285 40.4564 7.09757 40.3144L0.802707 36.1623C0.402091 35.8981 0.291545 35.3591 0.555793 34.9585C0.820041 34.5578 1.35902 34.4473 1.75964 34.7115L6.05707 37.5462C4.90991 34.7403 4.27787 31.6698 4.27787 28.4535C4.27787 15.1758 15.0416 4.41211 28.3192 4.41211C32.6968 4.41211 36.8035 5.58288 40.3406 7.62895C40.756 7.86926 40.8979 8.40083 40.6576 8.81625C40.4173 9.23167 39.8858 9.37362 39.4703 9.13332C36.1907 7.23614 32.3831 6.15004 28.3192 6.15004C16.0014 6.15004 6.0158 16.1356 6.0158 28.4535C6.0158 31.4917 6.62284 34.3864 7.72172 37.0241L9.72521 32.3088C9.91288 31.8671 10.4231 31.6612 10.8648 31.8489C11.3065 32.0366 11.5124 32.5468 11.3247 32.9885L8.3758 39.9289C8.27495 40.1662 8.07388 40.3465 7.82698 40.421ZM15.113 32.0837C16.2797 35.7591 18.9573 38.762 22.4731 40.3384C25.9891 41.9144 30.0098 41.9144 33.5257 40.3384C37.0414 38.762 39.7191 35.7592 40.8857 32.0837C41.7269 29.4288 41.7269 26.5779 40.8857 23.9229C39.7191 20.2475 37.0414 17.2446 33.5257 15.6682C30.0096 14.0919 25.9889 14.0919 22.4731 15.6682C18.9573 17.2446 16.2797 20.2474 15.113 23.9229C14.2718 26.5779 14.2718 29.4288 15.113 32.0837ZM27.9994 16.4213C29.2377 16.4213 30.8527 18.9558 31.5582 23.3108L24.4406 23.3111C25.1461 18.9561 26.761 16.4213 27.9994 16.4213L27.9994 16.4213ZM31.801 25.2725C31.8794 26.128 31.9186 27.0381 31.9186 27.9954C31.9186 28.9528 31.8717 29.8629 31.801 30.7184H24.1978C24.1271 29.8633 24.0802 28.9528 24.0802 27.9877C24.0802 27.0227 24.1271 26.1202 24.1978 25.2648L31.801 25.2725ZM39.561 27.9877C39.5575 28.9055 39.4442 29.8195 39.2241 30.7106H33.7372C33.8156 29.8083 33.8548 28.8981 33.8548 27.9877C33.8548 27.0777 33.8079 26.1671 33.7372 25.2648H39.2241C39.4442 26.156 39.5575 27.0699 39.561 27.9877ZM27.9995 39.5698C26.7612 39.5697 25.1463 37.0352 24.4408 32.6803H31.558C30.8529 37.0353 29.238 39.5698 27.9995 39.5698ZM22.2385 30.7185H16.7516C16.3026 28.9312 16.3026 27.0603 16.7516 25.273H22.2385C22.1601 26.1753 22.1209 27.0935 22.1209 27.9959C22.1209 28.898 22.1678 29.8161 22.2385 30.7184V30.7185ZM17.4336 32.6961H22.5127C22.7895 34.9153 23.4726 37.0648 24.5273 39.0363C21.3671 38.0329 18.786 35.7259 17.4335 32.6961H17.4336ZM38.5265 32.6961C37.1949 35.6881 34.6645 37.9784 31.559 39.0048C32.5798 37.037 33.2331 34.8989 33.4865 32.6961H38.5265ZM38.5972 23.3424H33.4865C33.222 21.1257 32.5522 18.9765 31.5111 17.0022C34.6441 18.001 37.2076 20.2821 38.5657 23.2797L38.5972 23.3424ZM24.4881 17.0022C23.4544 18.9573 22.785 21.0844 22.5127 23.2797H17.4336C18.7916 20.2821 21.3552 18.001 24.4881 17.0022ZM49.2216 16.1438C49.0064 16.0018 48.7391 15.9627 48.4922 16.0372C48.2453 16.1117 48.0443 16.292 47.9434 16.5293L44.9945 23.4698C44.8068 23.9115 45.0127 24.4217 45.4544 24.6093C45.8961 24.797 46.4063 24.5911 46.594 24.1494L48.5975 19.4341C49.6964 22.0719 50.3034 24.9665 50.3034 28.0047C50.3034 40.3226 40.3178 50.3082 28 50.3082C23.9361 50.3082 20.1285 49.2221 16.8489 47.3249C16.4335 47.0846 15.9019 47.2266 15.6616 47.642C15.4213 48.0574 15.5632 48.589 15.9786 48.8293C19.5157 50.8754 23.6224 52.0461 28 52.0461C41.2777 52.0461 52.0413 41.2824 52.0413 28.0047C52.0413 24.7884 51.4093 21.7179 50.2621 18.9121L54.5596 21.7467C54.9602 22.0109 55.4992 21.9004 55.7634 21.4998C56.0277 21.0992 55.9171 20.5602 55.5165 20.2959L49.2216 16.1438Z" fill="url(#paint0_linear_2516_1464)"/>
<defs>
<linearGradient id="paint0_linear_2516_1464" x1="11.858" y1="52.0463" x2="59.0272" y2="34.8477" gradientUnits="userSpaceOnUse">
<stop stop-color="#FE5000"/>
<stop offset="1" stop-color="#FCA92A"/>
</linearGradient>
</defs>
</svg>
