<svg width="56" height="56" viewBox="0 0 56 56" fill="none" xmlns="http://www.w3.org/2000/svg">
<path d="M44.8006 7.63672H11.2006C8.78246 7.63672 6.74609 9.67308 6.74609 12.0913V42.1276C6.74609 44.5458 8.78246 46.5822 11.2006 46.5822H32.4552C32.9643 46.5822 33.3461 46.2004 33.3461 45.6913C33.3461 45.1822 32.9643 44.8004 32.4552 44.8004H11.2006C9.80064 44.8004 8.52791 43.6549 8.52791 42.1276V16.4185H47.4734V35.0004C47.4734 35.5094 47.8552 35.8913 48.3643 35.8913C48.8734 35.8913 49.2552 35.5094 49.2552 35.0004V12.0913C49.2552 9.67308 47.2188 7.63672 44.8006 7.63672ZM47.4734 14.764H8.52791V12.0913C8.52791 10.6913 9.67337 9.41854 11.2006 9.41854H44.8006C46.2006 9.41854 47.4734 10.564 47.4734 12.0913V14.764ZM11.2006 12.9822C11.7097 12.9822 12.0915 12.6004 12.0915 12.0913C12.0915 11.5822 11.7097 11.2004 11.2006 11.2004C10.6915 11.2004 10.3097 11.5822 10.3097 12.0913C10.3097 12.6004 10.6915 12.9822 11.2006 12.9822ZM14.7643 12.9822C15.2734 12.9822 15.6552 12.6004 15.6552 12.0913C15.6552 11.5822 15.2734 11.2004 14.7643 11.2004C14.2552 11.2004 13.8734 11.5822 13.8734 12.0913C13.8734 12.6004 14.2552 12.9822 14.7643 12.9822ZM18.3279 12.9822C18.837 12.9822 19.2188 12.6004 19.2188 12.0913C19.2188 11.5822 18.837 11.2004 18.3279 11.2004C17.8188 11.2004 17.437 11.5822 17.437 12.0913C17.437 12.6004 17.8188 12.9822 18.3279 12.9822ZM49.0006 39.7094L36.6552 27.364C36.4006 27.1094 36.0188 26.9822 35.637 27.1094C35.2552 27.2367 35.1279 27.6185 35.1279 27.8731V45.564C35.1279 45.9458 35.3825 46.2004 35.637 46.3276C36.0188 46.4549 36.4006 46.3276 36.6552 46.0731L39.3279 43.4004L41.4916 47.6004C41.6188 47.8549 41.7461 47.9822 42.0006 47.9822C42.1279 47.9822 42.1279 47.9822 42.2552 47.9822C42.3825 47.9822 42.5097 47.9822 42.637 47.8549L46.0734 46.0731C46.4552 45.8185 46.7097 45.3094 46.4552 44.9276L44.4188 40.9822H48.237C48.6188 40.9822 48.8734 40.7276 49.0006 40.4731C49.2552 40.3458 49.2552 39.964 49.0006 39.7094ZM43.0188 39.4549C42.7643 39.4549 42.3825 39.5822 42.2552 39.8367C42.1279 40.0913 42.1279 40.4731 42.2552 40.7276L44.5461 45.1822L42.637 46.2004L40.3461 41.7458C40.2188 41.4913 39.9643 41.364 39.7097 41.2367H39.5825C39.3279 41.2367 39.0734 41.364 38.9461 41.4913L36.9097 43.5276V30.0367L46.3279 39.4549H43.0188Z" fill="url(#paint0_linear_3483_1118)"/>
<circle cx="11" cy="29" r="9.13103" fill="#EEF0F5" stroke="url(#paint1_linear_3483_1118)" stroke-width="1.73793"/>
<path fill-rule="evenodd" clip-rule="evenodd" d="M6.25 29C6.25 28.5858 6.58579 28.25 7 28.25L10.25 28.25L10.25 25C10.25 24.5858 10.5858 24.25 11 24.25C11.4142 24.25 11.75 24.5858 11.75 25L11.75 28.25L15 28.25C15.4142 28.25 15.75 28.5858 15.75 29C15.75 29.4142 15.4142 29.75 15 29.75L11.75 29.75L11.75 33C11.75 33.4142 11.4142 33.75 11 33.75C10.5858 33.75 10.25 33.4142 10.25 33L10.25 29.75L7 29.75C6.58579 29.75 6.25 29.4142 6.25 29Z" fill="url(#paint2_linear_3483_1118)"/>
<defs>
<linearGradient id="paint0_linear_3483_1118" x1="6.74609" y1="47.9822" x2="47.0366" y2="5.53102" gradientUnits="userSpaceOnUse">
<stop stop-color="#FE5000"/>
<stop offset="1" stop-color="#FE9800"/>
</linearGradient>
<linearGradient id="paint1_linear_3483_1118" x1="5.125" y1="39" x2="22.6662" y2="33.5102" gradientUnits="userSpaceOnUse">
<stop stop-color="#FE5000"/>
<stop offset="1" stop-color="#FCA92A"/>
</linearGradient>
<linearGradient id="paint2_linear_3483_1118" x1="15.75" y1="33.75" x2="6.25" y2="24.25" gradientUnits="userSpaceOnUse">
<stop stop-color="#FE5000"/>
<stop offset="1" stop-color="#FE9800"/>
</linearGradient>
</defs>
</svg>
