<svg width="44" height="44" viewBox="0 0 44 44" fill="none" xmlns="http://www.w3.org/2000/svg">
<path fill-rule="evenodd" clip-rule="evenodd" d="M18.5614 5.32343H25.434C26.1088 5.32343 26.6558 5.87044 26.6558 6.54523V8.53066H17.3396V6.54523C17.3396 5.87045 17.8866 5.32343 18.5614 5.32343ZM15.5069 6.54523C15.5069 4.85827 16.8744 3.49072 18.5614 3.49072H25.434C27.121 3.49072 28.4885 4.85827 28.4885 6.54523V8.53066V9H37.9455C39.6325 9 41 10.3675 41 12.0545V35.9455C41 37.6325 39.6325 39 37.9455 39H6.0545C4.36755 39 3 37.6325 3 35.9455V12.0545C3 10.3675 4.36755 9 6.05451 9H15.5069V8.53066V6.54523ZM37.9455 10.8327H6.05451C5.37972 10.8327 4.8327 11.3797 4.8327 12.0545V35.9455C4.8327 36.6203 5.37972 37.1673 6.0545 37.1673H37.9455C38.6203 37.1673 39.1673 36.6203 39.1673 35.9455V12.0545C39.1673 11.3797 38.6203 10.8327 37.9455 10.8327ZM30.0527 17.2062C30.4909 17.602 30.5253 18.278 30.1295 18.7162L21.0503 28.7681L20.3189 29.5779L19.5243 28.83L14.0119 23.6419C13.5819 23.2373 13.5614 22.5607 13.9661 22.1307C14.3708 21.7008 15.0474 21.6803 15.4773 22.0849L20.195 26.5251L28.5428 17.283C28.9386 16.8448 29.6146 16.8104 30.0527 17.2062Z" fill="#7F94A8"/>
</svg>
