<svg width="44" height="44" viewBox="0 0 44 44" fill="none" xmlns="http://www.w3.org/2000/svg">
<path d="M14.5238 13.8777H10.988C10.5812 13.8777 10.2514 14.2075 10.2514 14.6143V18.7393C10.2514 19.1461 10.5812 19.4759 10.988 19.4759H14.5238C14.9306 19.4759 15.2604 19.1461 15.2604 18.7393V14.6143C15.2604 14.2075 14.9306 13.8777 14.5238 13.8777ZM13.7872 18.0027H11.7247V15.3509H13.7872V18.0027Z" fill="#7F94A8"/>
<path d="M14.5238 22.1277H10.988C10.5812 22.1277 10.2514 22.4575 10.2514 22.8643V26.9893C10.2514 27.3961 10.5812 27.7259 10.988 27.7259H14.5238C14.9306 27.7259 15.2604 27.3961 15.2604 26.9893V22.8643C15.2604 22.4575 14.9306 22.1277 14.5238 22.1277ZM13.7872 26.2527H11.7247V23.6009H13.7872V26.2527Z" fill="#7F94A8"/>
<path d="M14.5238 30.3777H10.988C10.5812 30.3777 10.2514 30.7075 10.2514 31.1143V35.2393C10.2514 35.6461 10.5812 35.9759 10.988 35.9759H14.5238C14.9306 35.9759 15.2604 35.6461 15.2604 35.2393V31.1143C15.2604 30.7075 14.9306 30.3777 14.5238 30.3777ZM13.7872 34.5027H11.7247V31.8509H13.7872V34.5027Z" fill="#7F94A8"/>
<path d="M33.7476 30.3777H30.2119C29.8051 30.3777 29.4753 30.7075 29.4753 31.1143V35.2393C29.4753 35.6461 29.8051 35.9759 30.2119 35.9759H33.7476C34.1545 35.9759 34.4842 35.6461 34.4842 35.2393V31.1143C34.4842 30.7075 34.1545 30.3777 33.7476 30.3777ZM33.011 34.5027H30.9485V31.8509H33.011V34.5027Z" fill="#7F94A8"/>
<path d="M20.9317 13.8777H17.396C16.9892 13.8777 16.6594 14.2075 16.6594 14.6143V18.7393C16.6594 19.1461 16.9892 19.4759 17.396 19.4759H20.9317C21.3385 19.4759 21.6683 19.1461 21.6683 18.7393V14.6143C21.6683 14.2075 21.3385 13.8777 20.9317 13.8777ZM20.1951 18.0027H18.1326V15.3509H20.1951V18.0027Z" fill="#7F94A8"/>
<path d="M27.3397 13.8777H23.804C23.3971 13.8777 23.0674 14.2075 23.0674 14.6143V18.7393C23.0674 19.1461 23.3971 19.4759 23.804 19.4759H27.3397C27.7465 19.4759 28.0763 19.1461 28.0763 18.7393V14.6143C28.0763 14.2075 27.7465 13.8777 27.3397 13.8777ZM26.6031 18.0027H24.5406V15.3509H26.6031V18.0027Z" fill="#7F94A8"/>
<path d="M20.9317 22.1277H17.396C16.9892 22.1277 16.6594 22.4575 16.6594 22.8643V26.9893C16.6594 27.3961 16.9892 27.7259 17.396 27.7259H20.9317C21.3385 27.7259 21.6683 27.3961 21.6683 26.9893V22.8643C21.6683 22.4575 21.3385 22.1277 20.9317 22.1277ZM20.1951 26.2527H18.1326V23.6009H20.1951V26.2527Z" fill="#7F94A8"/>
<path d="M27.3397 22.1277H23.804C23.3971 22.1277 23.0674 22.4575 23.0674 22.8643V26.9893C23.0674 27.3961 23.3971 27.7259 23.804 27.7259H27.3397C27.7465 27.7259 28.0763 27.3961 28.0763 26.9893V22.8643C28.0763 22.4575 27.7465 22.1277 27.3397 22.1277ZM26.6031 26.2527H24.5406V23.6009H26.6031V26.2527Z" fill="#7F94A8"/>
<path d="M33.7476 13.8777H30.2119C29.8051 13.8777 29.4753 14.2075 29.4753 14.6143V18.7393C29.4753 19.1461 29.8051 19.4759 30.2119 19.4759H33.7476C34.1545 19.4759 34.4842 19.1461 34.4842 18.7393V14.6143C34.4842 14.2075 34.1545 13.8777 33.7476 13.8777ZM33.011 18.0027H30.9485V15.3509H33.011V18.0027Z" fill="#7F94A8"/>
<path d="M33.7476 22.1277H30.2119C29.8051 22.1277 29.4753 22.4575 29.4753 22.8643V26.9893C29.4753 27.3961 29.8051 27.7259 30.2119 27.7259H33.7476C34.1545 27.7259 34.4842 27.3961 34.4842 26.9893V22.8643C34.4842 22.4575 34.1545 22.1277 33.7476 22.1277ZM33.011 26.2527H30.9485V23.6009H33.011V26.2527Z" fill="#7F94A8"/>
<path d="M40.1195 39.3839H37.3564V10.8082C37.3564 10.4013 37.0266 10.0716 36.6198 10.0716H32.5315V7.41514C32.5315 7.00832 32.2017 6.67854 31.7949 6.67854H27.7445V3.87943C27.7445 3.4726 27.4147 3.14282 27.0079 3.14282H16.99C16.5832 3.14282 16.2534 3.4726 16.2534 3.87943V6.67854H12.2031C11.7963 6.67854 11.4665 7.00832 11.4665 7.41514V10.0716H7.37815C6.97133 10.0716 6.64155 10.4013 6.64155 10.8082V39.3839H3.87846C3.47163 39.3839 3.14185 39.7137 3.14185 40.1205C3.14185 40.5273 3.47163 40.8571 3.87846 40.8571H40.1195C40.5263 40.8571 40.8561 40.5273 40.8561 40.1205C40.8561 39.7137 40.5263 39.3839 40.1195 39.3839ZM17.7266 4.61604H26.2713V6.67854H17.7266V4.61604ZM25.0927 39.3839H19.9961L25.0927 34.2872V39.3839ZM25.0927 32.2084C25.0763 32.2222 25.0601 32.2364 25.0446 32.2518L18.9052 38.3912V35.2694L23.63 30.5446H25.0927V32.2084ZM18.9052 33.1859V30.5446H21.5465L18.9052 33.1859ZM35.8832 39.3839H30.9495H26.5659V30.5446H26.8237C27.2306 30.5446 27.5603 30.2148 27.5603 29.808C27.5603 29.4012 27.2306 29.0714 26.8237 29.0714H17.1742C16.7674 29.0714 16.4376 29.4012 16.4376 29.808C16.4376 30.2148 16.7674 30.5446 17.1742 30.5446H17.432V39.3839H8.11476V11.5448H16.2916C16.6984 11.5448 17.0282 11.215 17.0282 10.8082C17.0282 10.4013 16.6984 10.0716 16.2916 10.0716H12.9397V8.15175H31.0583V10.0716H22.1112C21.7044 10.0716 21.3746 10.4013 21.3746 10.8082C21.3746 11.215 21.7044 11.5448 22.1112 11.5448H35.8832V39.3839Z" fill="#7F94A8"/>
<path d="M19.6846 10.2871C19.5476 10.1501 19.3576 10.0713 19.1638 10.0713C18.9701 10.0713 18.7801 10.1501 18.643 10.2871C18.506 10.4241 18.4272 10.6142 18.4272 10.8079C18.4272 11.0016 18.506 11.1917 18.643 11.3287C18.7801 11.4664 18.9701 11.5445 19.1638 11.5445C19.3576 11.5445 19.5476 11.4664 19.6846 11.3287C19.8216 11.1917 19.9004 11.0016 19.9004 10.8079C19.9004 10.6142 19.8216 10.4241 19.6846 10.2871Z" fill="#7F94A8"/>
</svg>
