<svg width="44" height="44" viewBox="0 0 44 44" fill="none" xmlns="http://www.w3.org/2000/svg">
<path fill-rule="evenodd" clip-rule="evenodd" d="M35.9979 9.01581C35.9976 9.00669 35.9972 8.99758 35.9966 8.98847C35.994 8.95234 35.9904 8.91687 35.9832 8.88172C35.9832 8.88172 35.9832 8.88172 35.9832 8.8814C35.9761 8.84625 35.966 8.81143 35.9546 8.77758C35.9517 8.76912 35.9487 8.76066 35.9455 8.7522C35.9334 8.71998 35.9198 8.68841 35.9042 8.65782C35.9032 8.65619 35.9025 8.65456 35.9015 8.65294C35.8846 8.62104 35.8651 8.59078 35.8439 8.56116C35.8387 8.55368 35.8332 8.54652 35.8277 8.53903C35.8052 8.50974 35.7818 8.48143 35.7554 8.45507L28.2162 0.915836C28.1898 0.889475 28.1615 0.866043 28.1322 0.843587C28.1247 0.838055 28.1173 0.832197 28.1098 0.82699C28.0802 0.805836 28.0502 0.786309 28.0187 0.769711C28.0164 0.76841 28.0141 0.767759 28.0121 0.766457C27.9822 0.750836 27.951 0.737493 27.9194 0.725451C27.9106 0.722197 27.9021 0.719268 27.893 0.716339C27.8592 0.704948 27.825 0.694859 27.7895 0.6877C27.7892 0.6877 27.7889 0.6877 27.7889 0.6877C27.7541 0.680865 27.7186 0.67696 27.6828 0.674356C27.6737 0.674031 27.6646 0.67338 27.6555 0.673055C27.646 0.672729 27.6366 0.671753 27.6271 0.671753H8.7511C8.29092 0.671753 7.91797 1.04471 7.91797 1.50489V37.1651C7.91797 37.6252 8.29092 37.9982 8.7511 37.9982H21.2943V42.4952C21.2943 42.7982 21.459 43.0774 21.7242 43.2242C21.9898 43.371 22.3136 43.3622 22.5704 43.2011L25.7435 41.2103L28.9166 43.2011C29.0516 43.2857 29.2055 43.3283 29.3595 43.3283C29.4981 43.3283 29.6371 43.2938 29.7627 43.2245C30.0279 43.0777 30.1926 42.7985 30.1926 42.4952V37.9982H35.166C35.6262 37.9982 35.9992 37.6252 35.9992 37.1651V9.04412C35.9992 9.03468 35.9982 9.02524 35.9979 9.01581ZM28.4603 3.51646L33.1548 8.21098H28.4603V3.51646ZM20.8833 26.4049C20.8247 26.2458 20.7294 25.9857 20.7271 25.8793C20.7922 25.7986 21.018 25.6557 21.1563 25.5685C21.4531 25.3811 21.7897 25.1682 22.0337 24.8356C22.2801 24.4994 22.3803 24.1112 22.4689 23.7688C22.5076 23.6191 22.5701 23.3773 22.6234 23.2859C22.6527 23.2797 22.7142 23.2709 22.8298 23.2709C22.9225 23.2709 23.0263 23.2761 23.1363 23.2816C23.2626 23.2878 23.3928 23.2943 23.5288 23.2943C23.8289 23.2943 24.071 23.2605 24.2907 23.1873C24.6744 23.0597 24.9813 22.8127 25.2521 22.5946C25.4018 22.4742 25.6523 22.2724 25.7396 22.2601C25.8349 22.2724 26.0852 22.4742 26.2349 22.5946C26.5057 22.8127 26.8129 23.0597 27.1966 23.1873C27.4163 23.2605 27.6581 23.2943 27.9584 23.2943C28.0942 23.2943 28.2247 23.2878 28.3506 23.2816C28.4606 23.2761 28.5644 23.2709 28.6575 23.2709C28.773 23.2709 28.8342 23.2794 28.8638 23.2859C28.9172 23.3773 28.9797 23.6191 29.0181 23.7688C29.1066 24.1112 29.2072 24.4994 29.4535 24.8356C29.6973 25.1682 30.0338 25.3807 30.3309 25.5685C30.4689 25.6561 30.6948 25.7986 30.7599 25.8793C30.7576 25.9857 30.6622 26.2458 30.604 26.4049C30.48 26.7424 30.3397 27.1251 30.3397 27.5492C30.3397 27.9732 30.48 28.356 30.6037 28.6938C30.6622 28.8529 30.7576 29.1129 30.7599 29.2194C30.6948 29.3001 30.4689 29.4426 30.3309 29.5302C30.0338 29.7176 29.6973 29.9305 29.4535 30.2631C29.2072 30.5992 29.1066 30.9875 29.0181 31.3299C28.9797 31.4792 28.9169 31.7214 28.8638 31.8128C28.8342 31.819 28.773 31.8278 28.6575 31.8278C28.5644 31.8278 28.4606 31.8226 28.3506 31.817C28.2247 31.8109 28.0942 31.8044 27.9584 31.8044C27.6581 31.8044 27.4163 31.8382 27.1966 31.9114C26.8129 32.039 26.5057 32.2863 26.2349 32.5041C26.0875 32.6232 25.8414 32.8207 25.7435 32.8383C25.6455 32.8207 25.3998 32.6232 25.2524 32.5041C24.9813 32.2863 24.6744 32.039 24.2907 31.9114C24.071 31.8382 23.8289 31.8044 23.5288 31.8044C23.3931 31.8044 23.2626 31.8109 23.1363 31.817C23.0267 31.8226 22.9229 31.8278 22.8298 31.8278C22.7142 31.8278 22.6531 31.819 22.6234 31.8128C22.5701 31.7214 22.5076 31.4796 22.4689 31.3299C22.3807 30.9875 22.2801 30.5992 22.0337 30.2631C21.79 29.9305 21.4535 29.7176 21.1563 29.5302C21.0184 29.4429 20.7925 29.3001 20.7274 29.2194C20.7297 29.1133 20.825 28.8529 20.8833 28.6938C21.0073 28.3563 21.1476 27.9736 21.1476 27.5495C21.1476 27.1251 21.007 26.7424 20.8833 26.4049ZM28.5263 40.989L26.1864 39.521C25.9156 39.3514 25.5713 39.3514 25.3005 39.521L22.9606 40.989V33.4915C23.0491 33.4889 23.136 33.4856 23.2203 33.4814C23.3306 33.4755 23.4348 33.4703 23.5288 33.4703C23.6766 33.4703 23.7397 33.484 23.7641 33.4921C23.8634 33.5253 24.0541 33.6789 24.2074 33.8023C24.5963 34.1153 25.0802 34.5049 25.7435 34.5049C26.4067 34.5049 26.8907 34.1153 27.2796 33.8023C27.4329 33.6789 27.6236 33.5253 27.7225 33.4924C27.7472 33.4843 27.8104 33.4706 27.9581 33.4706C28.0522 33.4706 28.1563 33.4758 28.2666 33.4814C28.3509 33.4856 28.4378 33.4892 28.526 33.4915V40.989H28.5263ZM30.1926 36.3319V32.8201C30.4403 32.4836 30.5438 32.0852 30.6313 31.7468C30.6772 31.5691 30.74 31.326 30.7973 31.2482C30.8542 31.1701 31.0661 31.0363 31.2207 30.9387C31.6308 30.6796 32.141 30.3571 32.3438 29.7472C32.5443 29.1455 32.3357 28.5769 32.1681 28.12C32.0919 27.9127 32.0057 27.6774 32.0057 27.5492C32.0057 27.421 32.0919 27.186 32.1681 26.9787C32.3357 26.5218 32.5443 25.9529 32.3438 25.3511C32.141 24.7416 31.6308 24.4191 31.2207 24.16C31.0661 24.0624 30.8542 23.9283 30.7973 23.8508C30.74 23.7727 30.6772 23.5296 30.6313 23.3519C30.5116 22.8882 30.3625 22.3108 29.8522 21.9366C29.446 21.6391 28.9758 21.6046 28.6572 21.6046C28.5224 21.6046 28.3923 21.6111 28.2666 21.6176C28.1563 21.6232 28.0522 21.6284 27.9584 21.6284C27.8104 21.6284 27.7472 21.6147 27.7228 21.6066C27.6239 21.5737 27.4332 21.4201 27.2799 21.2964C26.8907 20.9837 26.4067 20.5941 25.7435 20.5941C25.0805 20.5941 24.5963 20.9837 24.2074 21.2964C24.0541 21.4198 23.8634 21.5737 23.7645 21.6066C23.74 21.6147 23.6766 21.6284 23.5288 21.6284C23.4351 21.6284 23.3306 21.6232 23.2203 21.6173C23.0947 21.6111 22.9648 21.6046 22.8298 21.6046C22.5115 21.6046 22.0412 21.6391 21.6354 21.9366C21.1248 22.3108 20.9754 22.8882 20.8556 23.3519C20.8097 23.5296 20.7469 23.7727 20.69 23.8505C20.6327 23.9283 20.4208 24.0624 20.2663 24.16C19.8562 24.4191 19.3462 24.7416 19.1431 25.3511C18.9427 25.9532 19.1513 26.5218 19.3189 26.9787C19.395 27.186 19.4813 27.421 19.4813 27.5492C19.4813 27.6774 19.395 27.9127 19.3189 28.12C19.1513 28.5769 18.9427 29.1455 19.1431 29.7476C19.3462 30.3571 19.8565 30.6796 20.2663 30.9387C20.4212 31.0363 20.6327 31.1704 20.69 31.2482C20.7469 31.326 20.8097 31.5691 20.8556 31.7468C20.9432 32.0852 21.047 32.4839 21.2947 32.8201V36.3319H9.58424V2.33803H26.794V9.04412C26.794 9.5043 27.167 9.87726 27.6271 9.87726H34.3329V36.3319H30.1926Z" fill="#7F94A8"/>
<path fill-rule="evenodd" clip-rule="evenodd" d="M12.8219 9.87721H23.5557C24.0155 9.87721 24.3888 9.50425 24.3888 9.04408C24.3888 8.5839 24.0155 8.21094 23.5557 8.21094H12.8219C12.3617 8.21094 11.9887 8.5839 11.9887 9.04408C11.9887 9.50425 12.362 9.87721 12.8219 9.87721Z" fill="#7F94A8"/>
<path fill-rule="evenodd" clip-rule="evenodd" d="M31.188 12.4164H12.8219C12.3617 12.4164 11.9887 12.7893 11.9887 13.2495C11.9887 13.7097 12.3617 14.0827 12.8219 14.0827H31.188C31.6482 14.0827 32.0212 13.7097 32.0212 13.2495C32.0212 12.7893 31.6482 12.4164 31.188 12.4164Z" fill="#7F94A8"/>
<path fill-rule="evenodd" clip-rule="evenodd" d="M27.8555 16.6218H12.8219C12.3617 16.6218 11.9887 16.9951 11.9887 17.455C11.9887 17.9151 12.3617 18.2881 12.8219 18.2881H27.8555C28.3156 18.2881 28.6886 17.9151 28.6886 17.455C28.6886 16.9951 28.3156 16.6218 27.8555 16.6218Z" fill="#7F94A8"/>
<path fill-rule="evenodd" clip-rule="evenodd" d="M31.1881 16.6218C30.7292 16.6218 30.355 16.9961 30.355 17.455C30.355 17.9138 30.7292 18.2881 31.1881 18.2881C31.6473 18.2881 32.0212 17.9138 32.0212 17.455C32.0212 16.9961 31.6473 16.6218 31.1881 16.6218Z" fill="#7F94A8"/>
</svg>
