<svg width="44" height="44" viewBox="0 0 44 44" fill="none" xmlns="http://www.w3.org/2000/svg">
<path d="M37.017 4H6.98106C4.81938 4 2.99902 5.81703 2.99902 7.97476V34.776C2.99902 36.9338 4.81938 38.7508 6.98106 38.7508H25.981C26.4361 38.7508 26.7774 38.4101 26.7774 37.9558C26.7774 37.5016 26.4361 37.1609 25.981 37.1609H6.98106C5.72956 37.1609 4.59183 36.1388 4.59183 34.776V11.836H39.4062V28.4164C39.4062 28.8707 39.7475 29.2114 40.2026 29.2114C40.6577 29.2114 40.999 28.8707 40.999 28.4164V7.97476C40.999 5.81703 39.1786 4 37.017 4ZM39.4062 10.3596H4.59183V7.97476C4.59183 6.72555 5.61579 5.58991 6.98106 5.58991H37.017C38.2685 5.58991 39.4062 6.61199 39.4062 7.97476V10.3596ZM6.98106 8.76972C7.43615 8.76972 7.77746 8.42902 7.77746 7.97476C7.77746 7.5205 7.43615 7.17981 6.98106 7.17981C6.52597 7.17981 6.18465 7.5205 6.18465 7.97476C6.18465 8.42902 6.52597 8.76972 6.98106 8.76972ZM10.1667 8.76972C10.6218 8.76972 10.9631 8.42902 10.9631 7.97476C10.9631 7.5205 10.6218 7.17981 10.1667 7.17981C9.71159 7.17981 9.37028 7.5205 9.37028 7.97476C9.37028 8.42902 9.71159 8.76972 10.1667 8.76972ZM13.3523 8.76972C13.8074 8.76972 14.1487 8.42902 14.1487 7.97476C14.1487 7.5205 13.8074 7.17981 13.3523 7.17981C12.8972 7.17981 12.5559 7.5205 12.5559 7.97476C12.5559 8.42902 12.8972 8.76972 13.3523 8.76972ZM40.7715 32.6183L29.7355 21.6025C29.508 21.3754 29.1667 21.2618 28.8253 21.3754C28.484 21.489 28.3703 21.8297 28.3703 22.0568V37.8423C28.3703 38.183 28.5978 38.4101 28.8253 38.5237C29.1667 38.6372 29.508 38.5237 29.7355 38.2965L32.1247 35.9117L34.0589 39.6593C34.1727 39.8864 34.2864 40 34.514 40C34.6277 40 34.6277 40 34.7415 40C34.8553 40 34.9691 40 35.0828 39.8864L38.1547 38.2965C38.496 38.0694 38.7236 37.6151 38.496 37.2744L36.6756 33.7539H40.0888C40.4301 33.7539 40.6577 33.5268 40.7715 33.2997C40.999 33.1861 40.999 32.8454 40.7715 32.6183ZM35.4241 32.3912C35.1966 32.3912 34.8553 32.5047 34.7415 32.7319C34.6277 32.959 34.6277 33.2997 34.7415 33.5268L36.7894 37.5016L35.0828 38.4101L33.0349 34.4353C32.9212 34.2082 32.6936 34.0946 32.4661 33.9811H32.3523C32.1247 33.9811 31.8972 34.0946 31.7834 34.2082L29.9631 36.0252V23.9874L38.3822 32.3912H35.4241Z" fill="#7F94A8"/>
</svg>
