<svg width="44" height="44" viewBox="0 0 44 44" fill="none" xmlns="http://www.w3.org/2000/svg">
<path fill-rule="evenodd" clip-rule="evenodd" d="M40.4019 22C40.4019 32.162 32.1639 40.3999 22.0019 40.3999C11.8399 40.3999 3.60195 32.162 3.60195 22C3.60195 11.8379 11.8399 3.6 22.0019 3.6C32.1639 3.6 40.4019 11.8379 40.4019 22ZM42.0019 22C42.0019 33.0456 33.0476 41.9999 22.0019 41.9999C10.9562 41.9999 2.00195 33.0456 2.00195 22C2.00195 10.9543 10.9562 2 22.0019 2C33.0476 2 42.0019 10.9543 42.0019 22ZM28.4469 13.8967C28.1061 13.6365 27.6188 13.7018 27.3586 14.0427L15.6353 29.3985C15.3751 29.7394 15.4405 30.2266 15.7813 30.4869L15.7938 30.4964C16.1347 30.7566 16.622 30.6913 16.8822 30.3504L28.6054 14.9946C28.8657 14.6537 28.8003 14.1665 28.4594 13.9063L28.4469 13.8967ZM16.787 20.2399C18.185 20.2399 19.3183 19.1066 19.3183 17.7086C19.3183 16.3106 18.185 15.1773 16.787 15.1773C15.3891 15.1773 14.2558 16.3106 14.2558 17.7086C14.2558 19.1066 15.3891 20.2399 16.787 20.2399ZM16.787 21.8085C19.0514 21.8085 20.887 19.9729 20.887 17.7086C20.887 15.4443 19.0514 13.6087 16.787 13.6087C14.5227 13.6087 12.6871 15.4443 12.6871 17.7086C12.6871 19.9729 14.5227 21.8085 16.787 21.8085ZM29.7587 26.6536C29.7587 28.0516 28.6254 29.1849 27.2274 29.1849C25.8294 29.1849 24.6961 28.0516 24.6961 26.6536C24.6961 25.2556 25.8294 24.1223 27.2274 24.1223C28.6254 24.1223 29.7587 25.2556 29.7587 26.6536ZM31.3273 26.6536C31.3273 28.9179 29.4917 30.7535 27.2274 30.7535C24.9631 30.7535 23.1275 28.9179 23.1275 26.6536C23.1275 24.3893 24.9631 22.5537 27.2274 22.5537C29.4917 22.5537 31.3273 24.3893 31.3273 26.6536Z" fill="url(#paint0_linear_3917_1350)"/>
<defs>
<linearGradient id="paint0_linear_3917_1350" x1="2.00195" y1="41.9999" x2="42.0019" y2="2" gradientUnits="userSpaceOnUse">
<stop stop-color="#FE5000"/>
<stop offset="1" stop-color="#FE9800"/>
</linearGradient>
</defs>
</svg>
