<svg width="44" height="44" viewBox="0 0 44 44" fill="none" xmlns="http://www.w3.org/2000/svg">
<path fill-rule="evenodd" clip-rule="evenodd" d="M21.5382 3.14951C21.7803 2.98141 22.1013 2.98141 22.3434 3.14951L37.1391 13.4243C37.329 13.5562 37.4423 13.7728 37.4423 14.004V16.5862H38.3805C38.7703 16.5862 39.0863 16.9022 39.0863 17.292V20.1689C39.0863 20.5587 38.7703 20.8747 38.3805 20.8747H35.7983V33.0259H36.7365C37.1263 33.0259 37.4423 33.3419 37.4423 33.7317V35.9028H38.3805C38.7703 35.9028 39.0863 36.2188 39.0863 36.6086V39.8966C39.0863 40.2864 38.7703 40.6023 38.3805 40.6023H5.44797C5.05818 40.6023 4.74219 40.2864 4.74219 39.8966V36.6134C4.74219 36.2248 5.05626 35.9094 5.44482 35.9076L5.81607 35.906V33.7317C5.81607 33.3419 6.13206 33.0259 6.52185 33.0259H7.96784V20.8747H5.5011C5.11131 20.8747 4.79532 20.5587 4.79532 20.1689V17.292C4.79532 16.9022 5.11131 16.5862 5.5011 16.5862H6.43929V14.004C6.43929 13.7728 6.55257 13.5562 6.7425 13.4243L21.5382 3.14951ZM7.85085 16.5862H36.0307V14.3732L21.9408 4.58849L7.85085 14.3732V16.5862ZM9.3794 20.8747V33.0259H12.4888V20.8747H9.3794ZM13.9003 20.8747V33.0259H19.18V20.8747H13.9003ZM20.5916 20.8747V33.0259H23.701V20.8747H20.5916ZM25.1125 20.8747V33.0259H30.2768V20.8747H25.1125ZM31.6884 20.8747V33.0259H34.3868V20.8747H31.6884ZM13.1945 34.4375H8.67362H7.22763V35.9028H36.0307V34.4375H35.0926H30.9826H24.4067H19.8858H13.1945ZM6.52185 37.3144L6.15375 37.3161V39.1908H37.6747V37.3144H36.7365H6.52329H6.52185ZM6.20688 17.9978V19.4631H8.67362H13.1945H19.8858H24.4067H30.9826H35.0926H37.6747V17.9978H36.7365H7.14507H6.20688Z" fill="url(#paint0_linear_3917_1346)"/>
<defs>
<linearGradient id="paint0_linear_3917_1346" x1="11.8257" y1="40.6023" x2="42.3968" y2="31.8582" gradientUnits="userSpaceOnUse">
<stop stop-color="#FE5000"/>
<stop offset="1" stop-color="#FCA92A"/>
</linearGradient>
</defs>
</svg>
