<svg width="44" height="44" viewBox="0 0 44 44" fill="none" xmlns="http://www.w3.org/2000/svg">
<g clip-path="url(#clip0_3917_1343)">
<path d="M41.4141 10.8004H36.3125L34.125 6.05702C33.9922 5.76596 33.6328 5.63224 33.3438 5.76596L31.2031 6.76498L24.7188 2.10028C24.4609 1.91149 24.0859 1.97442 23.8984 2.24187L17.8359 10.8004H2.58594C2.25781 10.8004 2 11.0678 2 11.3904V32.6057C2 32.9282 2.26563 33.1957 2.58594 33.1957H7.6875L9.875 37.939C10.0078 38.2301 10.3594 38.3638 10.6563 38.2301L12.7969 37.2311L19.2813 41.8958C19.5391 42.0846 19.9141 42.0216 20.1016 41.7542L26.1641 33.1957H41.4063C41.7344 33.1957 41.9922 32.9282 41.9922 32.6057V11.3904C42 11.0678 41.7344 10.8004 41.4141 10.8004ZM33.3047 7.0875L35.0156 10.8004H25.3516L33.3047 7.0875ZM24.5156 3.41395L29.9844 7.33922L22.5703 10.8004H19.2813L24.5156 3.41395ZM15.75 27.8781V31.9449C15.75 31.9685 15.75 31.9921 15.7578 32.0157H12.2344C12.2344 31.9921 12.2422 31.9685 12.2422 31.9449V27.8781V26.7768V11.9803H15.7578V26.7768V27.8781H15.75ZM3.17188 32.0157V11.9803H11.1406V26.7768H7.625C7.32031 26.7768 7.07813 27.0206 7.07813 27.3274C7.07813 27.6342 7.32031 27.8781 7.625 27.8781H11.1406V31.9449C11.1406 31.9685 11.1406 31.9921 11.1484 32.0157H3.17188ZM10.6953 36.9086L8.98438 33.1957H18.6484L10.6953 36.9086ZM19.4844 40.59L14.0156 36.6647L21.4297 33.2035H24.7188L19.4844 40.59ZM40.8281 32.0157H16.8438C16.8438 31.9921 16.8516 31.9685 16.8516 31.9449V27.8781H26.8516C27.1563 27.8781 27.3984 27.6342 27.3984 27.3274C27.3984 27.0206 27.1563 26.7768 26.8516 26.7768H16.8438V11.9803H18.1328H35.9297H40.8281V32.0157ZM30.8359 18.9498H31.8594V15.3786H34.7969C36.4688 15.3786 37.4063 16.2281 37.4063 17.6912C37.4063 19.1622 36.4688 20.0354 34.7969 20.0354H33.1094V20.7591H35.3594V21.4435H33.1094V22.9695H31.8594V21.4435H30.8359V20.7591H31.8594V20.0354H30.8359V18.9498ZM34.6172 18.9498C35.7344 18.9498 36.1563 18.47 36.1563 17.6912C36.1563 16.9125 35.7344 16.4562 34.6172 16.4562H33.1094V18.9498H34.6172Z" fill="url(#paint0_linear_3917_1343)"/>
</g>
<defs>
<linearGradient id="paint0_linear_3917_1343" x1="10.2484" y1="42.0046" x2="45.3274" y2="31.0317" gradientUnits="userSpaceOnUse">
<stop stop-color="#FE5000"/>
<stop offset="1" stop-color="#FCA92A"/>
</linearGradient>
<clipPath id="clip0_3917_1343">
<rect width="40" height="40" fill="white" transform="translate(2 2)"/>
</clipPath>
</defs>
</svg>
