<svg width="56" height="56" viewBox="0 0 56 56" fill="none" xmlns="http://www.w3.org/2000/svg">
<g clip-path="url(#clip0_3917_675)">
<path d="M55.1797 12.3207H48.0375L44.975 5.67995C44.7891 5.27247 44.2859 5.08526 43.8813 5.27247L40.8844 6.6711L31.8063 0.140514C31.4453 -0.123793 30.9203 -0.0356904 30.6578 0.338744L22.1703 12.3207H0.820313C0.360938 12.3207 0 12.6951 0 13.1466V42.8481C0 43.2996 0.371875 43.6741 0.820313 43.6741H7.9625L11.025 50.3148C11.2109 50.7222 11.7031 50.9095 12.1188 50.7222L15.1156 49.3236L24.1938 55.8542C24.5547 56.1185 25.0797 56.0304 25.3422 55.656L33.8297 43.6741H55.1688C55.6281 43.6741 55.9891 43.2996 55.9891 42.8481V13.1466C56 12.6951 55.6281 12.3207 55.1797 12.3207ZM43.8266 7.12262L46.2219 12.3207H32.6922L43.8266 7.12262ZM31.5219 1.97965L39.1781 7.47503L28.7984 12.3207H24.1938L31.5219 1.97965ZM19.25 36.2294V41.923C19.25 41.9561 19.25 41.9891 19.2609 42.0221H14.3281C14.3281 41.9891 14.3391 41.9561 14.3391 41.923V36.2294V34.6876V13.9726H19.2609V34.6876V36.2294H19.25ZM1.64063 42.0221V13.9726H12.7969V34.6876H7.875C7.44844 34.6876 7.10938 35.029 7.10938 35.4585C7.10938 35.888 7.44844 36.2294 7.875 36.2294H12.7969V41.923C12.7969 41.9561 12.7969 41.9891 12.8078 42.0221H1.64063ZM12.1734 48.8721L9.77813 43.6741H23.3078L12.1734 48.8721ZM24.4781 54.0261L16.8219 48.5307L27.2016 43.6851H31.8063L24.4781 54.0261ZM54.3594 42.0221H20.7813C20.7813 41.9891 20.7922 41.9561 20.7922 41.923V36.2294H34.7922C35.2188 36.2294 35.5578 35.888 35.5578 35.4585C35.5578 35.029 35.2188 34.6876 34.7922 34.6876H20.7813V13.9726H22.5859H47.5016H54.3594V42.0221ZM40.3703 23.7299H41.8031V18.7301H45.9156C48.2563 18.7301 49.5688 19.9195 49.5688 21.9679C49.5688 24.0272 48.2563 25.2497 45.9156 25.2497H43.5531V26.2628H46.7031V27.221H43.5531V29.3574H41.8031V27.221H40.3703V26.2628H41.8031V25.2497H40.3703V23.7299ZM45.6641 23.7299C47.2281 23.7299 47.8188 23.0581 47.8188 21.9679C47.8188 20.8776 47.2281 20.2388 45.6641 20.2388H43.5531V23.7299H45.6641Z" fill="url(#paint0_linear_3917_675)"/>
</g>
<defs>
<linearGradient id="paint0_linear_3917_675" x1="0" y1="56.0066" x2="56.0184" y2="0.01725" gradientUnits="userSpaceOnUse">
<stop stop-color="#FE5000"/>
<stop offset="1" stop-color="#FE9800"/>
</linearGradient>
<clipPath id="clip0_3917_675">
<rect width="56" height="56" fill="white"/>
</clipPath>
</defs>
</svg>
