<svg width="66" height="66" viewBox="0 0 66 66" fill="none" xmlns="http://www.w3.org/2000/svg">
<path fill-rule="evenodd" clip-rule="evenodd" d="M12.5564 55.3333H15.0009C15.6755 55.3333 16.2231 54.7858 16.2231 54.1111C16.2231 53.4364 15.6755 52.8889 15.0009 52.8889H12.5564C10.5349 52.8889 8.88976 51.2438 8.88976 49.2222V10.1111C8.88976 8.08955 10.5349 6.44444 12.5564 6.44444H41.8898C43.9113 6.44444 45.5564 8.08955 45.5564 10.1111C45.5564 10.7858 46.104 11.3333 46.7786 11.3333C47.4533 11.3333 48.0009 10.7858 48.0009 10.1111C48.0009 6.74022 45.2582 4 41.8898 4H12.5564C9.18798 4 6.44531 6.74022 6.44531 10.1111V49.2222C6.44531 52.5931 9.18798 55.3333 12.5564 55.3333ZM24.7786 62.6666H54.112C57.4804 62.6666 60.2231 59.9264 60.2231 56.5555V19.8889C60.2231 16.518 57.4804 13.7777 54.112 13.7777H24.7786C21.4102 13.7777 18.6675 16.518 18.6675 19.8889V56.5555C18.6675 59.9264 21.4102 62.6666 24.7786 62.6666ZM21.112 19.8889C21.112 17.8673 22.7571 16.2222 24.7786 16.2222H54.112C56.1335 16.2222 57.7786 17.8673 57.7786 19.8889V56.5555C57.7786 58.5771 56.1335 60.2222 54.112 60.2222H24.7786C22.7571 60.2222 21.112 58.5771 21.112 56.5555V19.8889ZM49.2231 45.5555H29.6675C28.9929 45.5555 28.4453 45.008 28.4453 44.3333C28.4453 43.6586 28.9929 43.1111 29.6675 43.1111H49.2231C49.8978 43.1111 50.4453 43.6586 50.4453 44.3333C50.4453 45.008 49.8978 45.5555 49.2231 45.5555ZM29.6675 55.3333H49.2231C49.8978 55.3333 50.4453 54.7857 50.4453 54.1111C50.4453 53.4364 49.8978 52.8888 49.2231 52.8888H29.6675C28.9929 52.8888 28.4453 53.4364 28.4453 54.1111C28.4453 54.7857 28.9929 55.3333 29.6675 55.3333ZM49.2231 35.7778H29.6675C28.9929 35.7778 28.4453 35.2302 28.4453 34.5556C28.4453 33.8809 28.9929 33.3333 29.6675 33.3333H49.2231C49.8978 33.3333 50.4453 33.8809 50.4453 34.5556C50.4453 35.2302 49.8978 35.7778 49.2231 35.7778ZM29.6675 26H49.2231C49.8978 26 50.4453 25.4525 50.4453 24.7778C50.4453 24.1032 49.8978 23.5556 49.2231 23.5556H29.6675C28.9929 23.5556 28.4453 24.1032 28.4453 24.7778C28.4453 25.4525 28.9929 26 29.6675 26Z" fill="url(#paint0_linear_3917_683)"/>
<defs>
<linearGradient id="paint0_linear_3917_683" x1="6.44531" y1="62.6666" x2="64.8906" y2="9.0918" gradientUnits="userSpaceOnUse">
<stop stop-color="#FE5000"/>
<stop offset="1" stop-color="#FE9800"/>
</linearGradient>
</defs>
</svg>
