<svg width="66" height="66" viewBox="0 0 66 66" fill="none" xmlns="http://www.w3.org/2000/svg">
<path fill-rule="evenodd" clip-rule="evenodd" d="M53.4223 17.7821C53.3855 17.7821 53.3714 17.7594 53.352 17.7279C53.34 17.7085 53.3259 17.6858 53.3032 17.663C53.2734 17.6332 53.2585 17.6035 53.2436 17.5737C53.2287 17.5439 53.2139 17.5141 53.1841 17.4843L42.9395 5.98896C42.9097 5.95918 42.8651 5.9294 42.8204 5.89962L42.8203 5.8996C42.7757 5.86982 42.731 5.84005 42.7013 5.81028C42.6715 5.81028 42.6566 5.79539 42.6417 5.78049C42.6268 5.7656 42.6119 5.75071 42.5821 5.75071C42.463 5.69115 42.2843 5.63159 42.1056 5.63159H16.9707C13.2779 5.63159 10.2402 8.66923 10.2402 12.362V53.6381C10.2402 57.331 13.2779 60.3686 16.9707 60.3686H46.7514C50.4442 60.3686 53.4819 57.331 53.4819 53.6381V18.1991C53.4819 18.1395 53.467 18.0651 53.4521 17.9906L53.4521 17.9905C53.4372 17.9161 53.4223 17.8417 53.4223 17.7821ZM43.2373 9.68177L49.8486 17.127H43.2373V9.68177ZM51.2185 53.5786C51.2185 56.0802 49.253 58.1053 46.7514 58.1053H16.9707C14.4691 58.1053 12.5036 56.0802 12.5036 53.6381V12.3025C12.5036 9.8009 14.5287 7.83537 16.9707 7.83537H40.974V18.1991C40.974 18.7947 41.4505 19.3307 42.1056 19.3307H51.2185V53.5786ZM17.0678 36.3001C17.0678 35.7345 17.5263 35.2759 18.092 35.2759H45.6299C46.1955 35.2759 46.654 35.7345 46.654 36.3001C46.654 36.8657 46.1955 37.3242 45.6299 37.3242H18.092C17.5263 37.3242 17.0678 36.8657 17.0678 36.3001ZM18.092 40.9656C17.5263 40.9656 17.0678 41.4241 17.0678 41.9897C17.0678 42.5553 17.5263 43.0139 18.092 43.0139H45.6299C46.1955 43.0139 46.654 42.5553 46.654 41.9897C46.654 41.4241 46.1955 40.9656 45.6299 40.9656H18.092ZM17.0678 47.6794C17.0678 47.1138 17.5263 46.6552 18.092 46.6552H30.8368C31.4024 46.6552 31.8609 47.1138 31.8609 47.6794C31.8609 48.245 31.4024 48.7035 30.8368 48.7035H18.092C17.5263 48.7035 17.0678 48.245 17.0678 47.6794ZM18.092 29.5863C17.5263 29.5863 17.0678 30.0448 17.0678 30.6104C17.0678 31.176 17.5263 31.6346 18.092 31.6346H30.8368C31.4024 31.6346 31.8609 31.176 31.8609 30.6104C31.8609 30.0448 31.4024 29.5863 30.8368 29.5863H18.092Z" fill="url(#paint0_linear_2778_680)"/>
<circle cx="52.9143" cy="40.3966" r="12.0621" fill="white" stroke="url(#paint1_linear_2778_680)" stroke-width="2.04828"/>
<path d="M47.793 40.9427L51.7574 44.6419L58.0343 37.5517" stroke="url(#paint2_linear_2778_680)" stroke-width="2.05" stroke-linecap="round" stroke-linejoin="round"/>
<defs>
<linearGradient id="paint0_linear_2778_680" x1="19.1588" y1="60.3686" x2="58.4003" y2="50.6665" gradientUnits="userSpaceOnUse">
<stop stop-color="#FE5000"/>
<stop offset="1" stop-color="#FCA92A"/>
</linearGradient>
<linearGradient id="paint1_linear_2778_680" x1="29.0178" y1="56.8966" x2="60.5435" y2="51.1128" gradientUnits="userSpaceOnUse">
<stop stop-color="#FE5000"/>
<stop offset="1" stop-color="#FCA92A"/>
</linearGradient>
<linearGradient id="paint2_linear_2778_680" x1="36.4137" y1="50.6379" x2="58.2399" y2="46.5832" gradientUnits="userSpaceOnUse">
<stop stop-color="#FE5000"/>
<stop offset="1" stop-color="#FCA92A"/>
</linearGradient>
</defs>
</svg>
