<svg width="44" height="44" viewBox="0 0 44 44" fill="none" xmlns="http://www.w3.org/2000/svg">
<path d="M39.3328 9.76714C39.2849 9.76714 39.2849 9.71926 39.237 9.67138C39.1891 9.6235 39.1891 9.57563 39.1413 9.52775L30.9062 0.287269C30.8583 0.239391 30.7626 0.191513 30.7147 0.143634C30.6668 0.143634 30.6668 0.0957563 30.6189 0.0957563C30.5232 0.0478781 30.3796 0 30.2359 0H10.0313C7.06287 0 4.62109 2.44178 4.62109 5.41023V38.5898C4.62109 41.5582 7.06287 44 10.0313 44H33.9704C36.9389 44 39.3806 41.5582 39.3806 38.5898V10.1023C39.3806 10.0065 39.3328 9.86289 39.3328 9.76714ZM31.1456 3.25571L36.4601 9.24048H31.1456V3.25571ZM37.5613 38.5419C37.5613 40.5528 35.9813 42.1806 33.9704 42.1806H10.0313C8.02044 42.1806 6.44046 40.5528 6.44046 38.5898V5.36235C6.44046 3.35147 8.06831 1.77149 10.0313 1.77149H29.3262V10.1023C29.3262 10.5811 29.7093 11.012 30.2359 11.012H37.5613V38.5419Z" fill="#7F94A8"/>
<path d="M11.0835 21.0118H19.0792C19.5579 21.0118 19.9888 20.6287 19.9888 20.1021C19.9888 19.5754 19.6058 19.1924 19.0792 19.1924H11.0835C10.6047 19.1924 10.1738 19.5754 10.1738 20.1021C10.1738 20.6287 10.6047 21.0118 11.0835 21.0118Z" fill="#7F94A8"/>
<path d="M19.0792 33.6504H11.0835C10.6047 33.6504 10.1738 34.0334 10.1738 34.5601C10.1738 35.0389 10.5569 35.4698 11.0835 35.4698H19.0792C19.5579 35.4698 19.9888 35.0868 19.9888 34.5601C19.9888 34.0813 19.5579 33.6504 19.0792 33.6504Z" fill="#7F94A8"/>
<path d="M10.1738 24.9214C10.1738 25.4002 10.5569 25.8311 11.0835 25.8311H32.4372C32.9159 25.8311 33.3468 25.4481 33.3468 24.9214C33.3468 24.4426 32.9638 24.0117 32.4372 24.0117H11.0835C10.6047 24.0117 10.1738 24.3948 10.1738 24.9214Z" fill="#7F94A8"/>
<path d="M32.4372 28.8313H11.0835C10.6047 28.8313 10.1738 29.2143 10.1738 29.741C10.1738 30.2197 10.5569 30.6506 11.0835 30.6506H32.4372C32.9159 30.6506 33.3468 30.2676 33.3468 29.741C33.3468 29.2143 32.9638 28.8313 32.4372 28.8313Z" fill="#7F94A8"/>
</svg>
