<svg width="44" height="44" viewBox="0 0 44 44" fill="none" xmlns="http://www.w3.org/2000/svg">
<path fill-rule="evenodd" clip-rule="evenodd" d="M12.898 12.3028C12.898 12.0299 12.9062 11.7619 12.9224 11.499C13.2691 5.85009 17.2771 2.53809 22.1982 2.53809C27.3483 2.53809 31.3931 6.16553 31.3931 12.3028C31.3931 18.44 27.3483 24.7631 22.1982 24.7631C17.2728 24.7631 13.262 18.9797 12.9215 13.1065C12.9059 12.8386 12.898 12.5705 12.898 12.3028ZM16.9238 19.8985C15.5829 18.0259 14.6944 15.5757 14.5323 13.1111C16.1237 13.107 18.0883 13.0504 19.8963 12.6953C21.9359 12.2947 24.0447 11.4593 25.082 9.65047C25.5327 10.0448 26.0833 10.4507 26.6976 10.7695C27.5626 11.2182 28.6354 11.5311 29.7436 11.3037C29.7712 11.6256 29.7856 11.9586 29.7856 12.3028C29.7856 15.0424 28.8754 17.8335 27.413 19.9083C25.9402 21.9978 24.0734 23.1555 22.1982 23.1555C20.3178 23.1555 18.4229 21.992 16.9238 19.8985ZM27.5838 6.24911C28.4403 7.11548 29.1133 8.26984 29.4797 9.71421C28.8278 9.86671 28.1344 9.70392 27.4379 9.34257C26.5462 8.87996 25.7893 8.15561 25.4085 7.70372C25.2137 7.47268 24.9058 7.37037 24.6116 7.43892C24.3173 7.50747 24.0863 7.73528 24.0137 8.0286C23.5928 9.72882 21.9383 10.6561 19.5865 11.1179C17.9152 11.4462 16.088 11.4989 14.533 11.503C14.6934 9.20769 15.544 7.45993 16.751 6.2581C18.1015 4.91344 20.0047 4.14559 22.1982 4.14559C24.3896 4.14559 26.2615 4.91167 27.5838 6.24911ZM27.8022 26.2102C28.861 24.9348 30.0449 24.6246 30.7858 24.8347C34.3859 25.6378 36.522 28.4244 37.8088 31.1199C38.8602 33.3222 39.4064 35.605 39.7137 36.8891L39.7137 36.8892C39.7824 37.1763 39.8391 37.4134 39.8869 37.5886C40.031 38.117 40.0415 38.6134 39.903 39.0619C39.7634 39.5142 39.4916 39.854 39.1787 40.096C38.584 40.5559 37.8277 40.679 37.3381 40.679H7.11609C5.92785 40.679 5.01449 40.392 4.47311 39.7234C3.93502 39.059 3.95173 38.2469 4.06211 37.6532C6.08629 26.7648 11.5648 24.8095 13.1798 24.8095L13.2378 24.8095C13.633 24.809 14.0564 24.8084 14.522 25.0209C14.9623 25.2218 15.3967 25.5919 15.982 26.134C17.15 27.2161 18.6487 27.5655 20.2986 27.6691C20.9801 27.712 21.6644 27.712 22.3512 27.712H22.3607C23.0211 27.712 23.6908 27.6812 24.3331 27.6051C25.9348 27.4151 27.1765 26.964 27.8022 26.2102ZM29.0391 27.2371C29.7282 26.407 30.2467 26.3874 30.3357 26.384C30.3513 26.3834 30.3537 26.3833 30.3415 26.3794C30.3647 26.3868 30.3882 26.3931 30.412 26.3983C33.3217 27.0375 35.1582 29.299 36.3581 31.8124C37.3248 33.8374 37.8181 35.8879 38.1326 37.1952L38.1326 37.1953C38.2097 37.5159 38.2761 37.7917 38.3361 38.0116C38.4183 38.3132 38.3968 38.4912 38.3671 38.5875C38.3386 38.68 38.2849 38.7551 38.1953 38.8244C37.9851 38.987 37.6284 39.0715 37.3382 39.0714H26.8585L25.263 32.5064L26.2401 31.817C26.5626 31.5894 26.6721 31.1615 26.4987 30.807L25.6258 29.0231C26.9477 28.7457 28.2224 28.2208 29.0391 27.2371ZM23.8509 33.5029L25.2042 39.0714H19.322L20.7476 33.4627L21.9154 34.2398C22.1918 34.4237 22.5528 34.4188 22.8241 34.2274L23.8509 33.5029ZM19.329 32.5187L17.6634 39.0714H7.11609C6.12879 39.0714 5.81606 38.8275 5.72236 38.7118C5.62536 38.592 5.56453 38.3666 5.64254 37.947C7.5776 27.538 12.5944 26.4171 13.1798 26.4171C13.6481 26.4171 13.7348 26.4286 13.8547 26.4833C14.0227 26.56 14.2762 26.7451 14.8895 27.3133C16.1015 28.436 17.5376 28.9258 18.9494 29.1427L18.0375 30.7667C17.8317 31.1333 17.9431 31.5965 18.2931 31.8294L19.329 32.5187ZM19.804 30.904L20.7054 29.2986C21.264 29.3195 21.8128 29.3195 22.3294 29.3195H22.3295H22.3607C22.882 29.3195 23.4178 29.3017 23.9513 29.2582L24.7538 30.8984L22.3474 32.5964L19.804 30.904Z" fill="#7F94A8"/>
</svg>
