<svg width="44" height="44" viewBox="0 0 44 44" fill="none" xmlns="http://www.w3.org/2000/svg">
<path d="M32.4964 5.94547V6.63956V8.55711V11.4276V15.0196V19.0429V23.2585V27.4269V31.2582V34.5247V36.9442V38.2775V38.4579C32.4964 38.4854 32.4807 38.6971 32.4925 38.5677C32.5043 38.4462 32.4768 38.6108 32.469 38.6422C32.4611 38.6736 32.4454 38.7089 32.4376 38.7403C32.418 38.8265 32.4572 38.6657 32.469 38.6697C32.4729 38.6736 32.3749 38.8344 32.367 38.8461C32.2964 38.9638 32.465 38.752 32.367 38.8461C32.3317 38.8814 32.2964 38.9167 32.2611 38.952C32.1552 39.0579 32.2964 38.9128 32.3003 38.9246C32.3003 38.9246 32.2415 38.9638 32.2376 38.9677C32.2141 38.9795 32.1945 38.9952 32.1709 39.0069C32.1553 39.0148 32.1396 39.0226 32.1278 39.0304C32.0651 39.0579 32.069 39.0618 32.1278 39.0344C32.1278 39.0148 32.2141 39.0069 32.1278 39.0344C32.1043 39.0422 32.0807 39.0501 32.0533 39.0579C32.0298 39.0657 32.0023 39.0697 31.9788 39.0775C31.916 39.0971 31.8729 39.0618 32.0337 39.0775C31.9827 39.0736 31.9239 39.0853 31.8729 39.0853H31.8494C31.4415 39.0893 31.0377 39.0853 30.6298 39.0853H27.9436H24.2614H20.1086H15.9598H12.2893H9.62666C9.2306 39.0853 8.83453 39.0893 8.4385 39.0853H8.41889C8.39144 39.0853 8.36399 39.0853 8.33654 39.0814C8.15616 39.0697 8.44242 39.1206 8.30909 39.0775C8.26203 39.0618 8.21105 39.0501 8.16008 39.0344C8.07381 39.0108 8.16008 39.0187 8.16008 39.0344C8.22282 39.0618 8.22282 39.0618 8.16008 39.0304C8.14439 39.0226 8.12871 39.0148 8.11694 39.0069C8.10518 38.9991 7.98754 38.9285 7.98754 38.9246C7.99538 38.9128 8.13263 39.0579 8.02675 38.952C8.01107 38.9324 7.99146 38.9167 7.97185 38.901C7.95224 38.8814 7.93656 38.8657 7.92087 38.8461C7.86989 38.7991 7.88166 38.8344 7.91695 38.8461C7.96401 38.8618 7.95224 38.905 7.91695 38.8461C7.89734 38.8108 7.87382 38.7716 7.85029 38.7363C7.84637 38.7324 7.81499 38.6697 7.81499 38.6697C7.82284 38.6658 7.86597 38.8226 7.84637 38.7403C7.83068 38.6854 7.81107 38.6226 7.79539 38.5677C7.75225 38.4344 7.79539 38.7128 7.79147 38.5677C7.79147 38.5324 7.78754 38.4971 7.78754 38.4579V38.2658V36.9129V34.462V31.1954V27.3407V23.1879V18.9763V14.9412V11.3767V8.51008V6.62386C7.78754 6.36505 7.7797 6.10623 7.79147 5.84743C7.79539 5.72194 7.80323 5.90233 7.78362 5.89841C7.78362 5.89841 7.79931 5.82782 7.79931 5.8239C7.81499 5.77684 7.8346 5.72586 7.84636 5.67489C7.86597 5.58862 7.82676 5.7494 7.81499 5.74547C7.81499 5.74547 7.85421 5.66704 7.86205 5.65528C7.87381 5.63175 7.8895 5.61215 7.90126 5.58862C7.90911 5.57293 7.92087 5.56117 7.92871 5.54548C7.95224 5.51019 7.94832 5.51803 7.91303 5.56509C7.87381 5.57685 7.86597 5.61607 7.91695 5.56509C7.94048 5.54156 7.96401 5.51411 7.98753 5.4945C8.00322 5.47882 8.02675 5.46313 8.04243 5.44352C8.09733 5.37686 7.98754 5.49842 7.98361 5.48666C7.97969 5.47882 8.11694 5.40431 8.13263 5.39255C8.13655 5.38862 8.19929 5.35725 8.19929 5.35725C8.20321 5.3651 8.03067 5.41215 8.15223 5.37686C8.20713 5.36117 8.2738 5.35333 8.32869 5.3298C8.39928 5.29843 8.26595 5.33765 8.25026 5.33765C8.27379 5.34157 8.30516 5.33372 8.32869 5.3298C8.35614 5.3298 8.38359 5.32588 8.41104 5.32588H8.43849H8.85416H10.8972H14.152H18.148H22.3595H26.3123H29.5279H31.4886H31.8455H31.8651H31.92C31.9474 5.32588 31.9749 5.3298 31.9984 5.3298C32.0886 5.33372 31.92 5.32588 31.92 5.32196C31.92 5.31804 32.0925 5.3651 32.0964 5.36902C32.1004 5.36902 32.1709 5.39254 32.1709 5.39647C32.167 5.41215 32.0298 5.31803 32.1004 5.36902C32.1474 5.40039 32.2062 5.42784 32.2533 5.45921C32.3709 5.52979 32.1592 5.36117 32.2533 5.45921C32.2925 5.49842 32.3356 5.5494 32.3749 5.58469C32.4415 5.63959 32.32 5.52979 32.3317 5.52587C32.3317 5.52587 32.3709 5.58469 32.3749 5.58862C32.3827 5.6043 32.465 5.74155 32.4611 5.74155C32.4533 5.74547 32.4101 5.58861 32.4298 5.67096C32.4376 5.69449 32.4454 5.71802 32.4533 5.74547C32.4572 5.75724 32.4925 5.89841 32.4925 5.89841C32.469 5.90233 32.4846 5.72195 32.4846 5.84743C32.4925 5.87488 32.4964 5.91017 32.4964 5.94547C32.5043 6.35721 32.8533 6.74936 33.2807 6.72978C33.7003 6.71018 34.0729 6.3847 34.0651 5.94547C34.0415 4.73765 33.0769 3.76905 31.8691 3.75342H31.5671H29.6691H26.485H22.4969H18.2265H14.2031H10.8973H8.83859H8.4386C7.49746 3.76126 6.68963 4.32595 6.35239 5.20044C6.19161 5.62004 6.21906 6.07102 6.21906 6.51409V8.34539V11.1845V14.7687V18.8077V23.0781V27.2937V31.1719V34.4816V36.9403V38.2814C6.21906 38.3716 6.21514 38.4657 6.22299 38.5559C6.30925 39.7206 7.23863 40.6264 8.41898 40.6421C8.77974 40.6461 9.14442 40.6421 9.50518 40.6421H12.1404H15.7912H19.9871H24.2027H27.928H30.6416C31.0455 40.6421 31.4533 40.6461 31.8572 40.6421C32.8258 40.6304 33.6493 40.0304 33.967 39.1206C34.0572 38.8657 34.0729 38.5912 34.0729 38.3207V37.0736V34.6855V31.4268V27.5642V23.384V19.1097V15.0274V11.4041V8.51398V6.60029V5.93757C34.0729 5.52582 33.7121 5.13368 33.2885 5.15325C32.8572 5.1807 32.4964 5.50618 32.4964 5.94539L32.4964 5.94547Z" fill="url(#paint0_linear_3138_913)"/>
<path d="M39.2883 11.3571V14.6864V21.8742V28.8465V30.9758V31.4817V31.564C39.2883 31.5993 39.2844 31.6385 39.2844 31.6738C39.2805 31.8503 39.3354 31.5052 39.2805 31.6738C39.2648 31.7208 39.253 31.7718 39.2374 31.8228C39.1903 31.9875 39.3275 31.6777 39.2334 31.8228C39.206 31.8659 39.1825 31.9091 39.155 31.9522C39.0766 32.0895 39.2491 31.8777 39.1707 31.9326C39.1275 31.964 39.0844 32.0189 39.0491 32.0581C38.9315 32.1797 39.1942 31.9757 39.0491 32.0581C39.006 32.0816 38.9589 32.1091 38.9197 32.1365C38.7746 32.2267 39.0844 32.0934 38.9197 32.1404C38.8687 32.1561 38.8178 32.1679 38.7707 32.1836C38.6021 32.2385 38.9472 32.1836 38.7707 32.1875C38.7276 32.1875 38.704 32.1914 38.6609 32.1914H38.6374H38.2923H36.7472H33.4846H33.2807C33.5435 32.4542 33.8023 32.713 34.065 32.9757V30.6856V25.1838V18.5292V12.7764C34.065 11.847 34.1003 10.9137 34.065 9.98434V9.94513L33.2807 10.7294H38.5668H38.657C38.708 10.7294 38.7707 10.7412 38.8217 10.7373C38.6335 10.7491 38.7433 10.7294 38.8178 10.7491C38.8491 10.7569 38.8844 10.7687 38.9158 10.7804C38.9942 10.8118 38.9785 10.804 38.8687 10.7608C38.8687 10.7569 38.9942 10.8275 39.0021 10.8353C39.0295 10.8549 39.057 10.8706 39.0844 10.8902C38.9942 10.8196 38.9785 10.8079 39.0452 10.8628C39.0727 10.8941 39.104 10.9216 39.1354 10.953C39.2727 11.0824 39.0805 10.8471 39.155 10.9726C39.1785 11.0157 39.206 11.0628 39.2334 11.102C39.2687 11.1765 39.2648 11.1608 39.2178 11.0549C39.2295 11.0863 39.2413 11.1177 39.253 11.153C39.257 11.1647 39.2923 11.3059 39.2923 11.3059C39.2805 11.1843 39.2766 11.1686 39.2844 11.2549C39.2844 11.2863 39.2883 11.3216 39.2883 11.3569C39.2962 11.7686 39.6452 12.1608 40.0727 12.1412C40.4923 12.1216 40.8648 11.7961 40.857 11.3569C40.8334 10.1491 39.8727 9.1844 38.661 9.16483C38.3865 9.16091 38.112 9.16483 37.8336 9.16483H34.2572H33.2808C32.8573 9.16483 32.4965 9.52559 32.4965 9.94915V12.2393V17.7411V24.3957V30.1485C32.4965 31.0778 32.4769 32.0112 32.4965 32.9405V32.9798C32.4965 33.4033 32.8573 33.7641 33.2808 33.7641H35.8728C36.7983 33.7641 37.7237 33.7758 38.6492 33.7641C39.7943 33.7484 40.6962 32.9053 40.8374 31.7838C40.8531 31.6426 40.8531 31.5054 40.8531 31.3642V29.6662V26.7133V23.0076V19.094V15.5177V12.7766C40.8531 12.3256 40.8609 11.8747 40.8531 11.4237V11.3649C40.8531 10.9532 40.4923 10.561 40.0688 10.5806C39.6453 10.5924 39.2884 10.9178 39.2884 11.357L39.2883 11.3571Z" fill="url(#paint1_linear_3138_913)"/>
<path d="M28.0885 9.90589V15.2312V17.7762C28.0885 17.8311 28.0846 17.8821 28.0885 17.937C28.0885 17.9566 28.0375 17.9134 28.0885 17.9919C28.0924 17.9566 28.0964 17.9252 28.1003 17.8899C28.0924 17.9252 28.0846 17.9566 28.0728 17.9919C28.1042 17.9919 28.1121 17.8076 28.0846 17.9448C28.0768 17.9605 28.065 17.9723 28.0571 17.9879C28.1277 17.8977 28.1356 17.8821 28.0807 17.9448C28.1081 17.9252 28.1356 17.9056 28.1591 17.886C28.1317 17.9056 28.1003 17.9252 28.0728 17.9409C28.1042 17.9291 28.1356 17.9174 28.167 17.9056C28.1356 17.9174 28.1003 17.9291 28.065 17.933C28.0532 17.9017 28.2728 17.9291 28.1121 17.9213C28.0101 17.9174 27.9042 17.9213 27.8023 17.9213H22.7514H15.6458H13.0106C12.6381 17.9213 12.2617 17.9056 11.8891 17.9213H11.8852C11.7009 17.9291 12.0577 17.9605 11.8812 17.9213C11.7048 17.8821 12.0381 17.9958 11.8812 17.9174C11.7322 17.8468 11.9714 17.9997 11.9009 17.9291C11.8303 17.8585 11.9832 18.0977 11.9126 17.9487C11.8342 17.7879 11.9479 18.1213 11.9087 17.9487C11.8695 17.7723 11.9009 18.1291 11.9087 17.9448V17.8076V16.8625V13.5018V10.4588C11.9087 10.2784 11.9165 10.0941 11.9087 9.9137C11.9087 9.89409 11.9558 9.92938 11.9087 9.8588C11.9048 9.89409 11.9009 9.92546 11.8969 9.96076C11.9048 9.92547 11.9126 9.89409 11.9244 9.8588C11.9126 9.89017 11.9009 9.92154 11.8891 9.95291C11.9048 9.92154 11.9244 9.89409 11.944 9.86664C11.9244 9.89409 11.9048 9.92154 11.8852 9.94508C11.9479 9.88626 11.9322 9.8941 11.842 9.96861C11.8577 9.96076 11.8695 9.949 11.8852 9.94116C11.944 9.90978 11.944 9.90586 11.8852 9.93331C11.8695 9.94116 11.8538 9.94508 11.8381 9.95292C11.8695 9.94116 11.9048 9.92939 11.9401 9.92547C11.9479 9.95292 11.7362 9.92939 11.8969 9.93723H11.991H16.4183H23.5632H28.0218H28.1199H28.1238C28.2532 9.93331 28.0689 9.95292 28.0767 9.92547C28.0924 9.92939 28.112 9.93331 28.1277 9.93723C28.21 9.96468 28.1944 9.95684 28.0846 9.91763C28.1002 9.92547 28.1159 9.93331 28.1277 9.94508C28.1983 9.99213 28.1865 9.98429 28.0924 9.9137C28.2179 10.0157 28.0297 9.76862 28.1003 9.9137C28.1591 10.0627 28.0454 9.72943 28.0885 9.90589C28.1277 10.0824 28.0846 9.71767 28.0885 9.90589C28.1042 10.3137 28.4375 10.7098 28.8728 10.6902C29.2846 10.6706 29.6728 10.3451 29.6571 9.90586C29.6258 9.01965 28.9395 8.36082 28.0572 8.35687H27.567H25.3123H18.1871H12.4775H11.9481C11.2226 8.36079 10.5521 8.80784 10.3795 9.53722C10.3168 9.79996 10.3364 10.0823 10.3364 10.3529V11.6312V17.8153V17.9996C10.3717 18.6819 10.8423 19.2897 11.5167 19.4505C11.7207 19.4976 11.9167 19.4936 12.1206 19.4936H14.0186H20.885H27.0966C27.4534 19.4936 27.8181 19.5093 28.1749 19.4936C29.069 19.4466 29.669 18.7172 29.669 17.8466V16.9133V10.4116V9.90573C29.669 9.49398 29.3082 9.10184 28.8847 9.12141C28.4494 9.14102 28.0885 9.46666 28.0885 9.90589Z" fill="url(#paint2_linear_3138_913)"/>
<path fill-rule="evenodd" clip-rule="evenodd" d="M14.2824 22.9878H11.9217C11.51 22.9878 11.1178 23.3486 11.1374 23.7721C11.157 24.1957 11.4825 24.5564 11.9217 24.5564H14.2824C14.6942 24.5564 15.0863 24.1957 15.0668 23.7721C15.0472 23.3486 14.7217 22.9878 14.2824 22.9878ZM20.9286 22.9878H18.5679C18.1562 22.9878 17.7641 23.3486 17.7836 23.7721C17.8032 24.1956 18.1287 24.5564 18.5679 24.5564H20.9286C21.3404 24.5564 21.7325 24.1957 21.713 23.7721C21.6934 23.3486 21.3679 22.9878 20.9286 22.9878ZM25.2143 22.9878H27.575C28.0142 22.9878 28.3397 23.3486 28.3593 23.7721C28.3789 24.1957 27.9867 24.5564 27.575 24.5564H25.2143C24.7751 24.5564 24.4495 24.1957 24.43 23.7721C24.4104 23.3486 24.8025 22.9878 25.2143 22.9878ZM14.3291 28.482H11.9684C11.5567 28.482 11.1645 28.8427 11.1841 29.2663C11.2037 29.6898 11.5292 30.0506 11.9684 30.0506H14.3291C14.7409 30.0506 15.133 29.6898 15.1134 29.2663C15.0938 28.8388 14.7683 28.482 14.3291 28.482ZM18.6148 28.482H20.9755C21.4186 28.482 21.7441 28.8388 21.7598 29.2663C21.7793 29.6898 21.3872 30.0506 20.9755 30.0506H18.6148C18.1755 30.0506 17.85 29.6898 17.8304 29.2663C17.8109 28.8427 18.203 28.482 18.6148 28.482ZM27.6218 28.482H25.2611C24.8493 28.482 24.4572 28.8427 24.4768 29.2663C24.4964 29.6898 24.8219 30.0506 25.2611 30.0506H27.6218C28.0335 30.0506 28.4257 29.6898 28.4061 29.2663C28.3904 28.8388 28.065 28.482 27.6218 28.482ZM11.9684 33.9718H14.3291C14.7683 33.9718 15.0938 34.3287 15.1134 34.7561C15.133 35.1797 14.7409 35.5404 14.3291 35.5404H11.9684C11.5292 35.5404 11.2037 35.1797 11.1841 34.7561C11.1645 34.3326 11.5567 33.9718 11.9684 33.9718ZM20.9755 33.9718H18.6148C18.203 33.9718 17.8109 34.3326 17.8304 34.7561C17.85 35.1796 18.1755 35.5404 18.6148 35.5404H20.9755C21.3872 35.5404 21.7793 35.1797 21.7598 34.7561C21.7441 34.3287 21.4186 33.9718 20.9755 33.9718ZM25.2611 33.9718H27.6218C28.065 33.9718 28.3904 34.3287 28.4061 34.7561C28.4257 35.1797 28.0335 35.5404 27.6218 35.5404H25.2611C24.8219 35.5404 24.4964 35.1797 24.4768 34.7561C24.4572 34.3326 24.8493 33.9718 25.2611 33.9718Z" fill="url(#paint3_linear_3138_913)"/>
<defs>
<linearGradient id="paint0_linear_3138_913" x1="6.21729" y1="40.6439" x2="41.6985" y2="13.8524" gradientUnits="userSpaceOnUse">
<stop stop-color="#FE5000"/>
<stop offset="1" stop-color="#FE9800"/>
</linearGradient>
<linearGradient id="paint1_linear_3138_913" x1="32.4878" y1="33.7693" x2="47.4907" y2="28.6664" gradientUnits="userSpaceOnUse">
<stop stop-color="#FE5000"/>
<stop offset="1" stop-color="#FE9800"/>
</linearGradient>
<linearGradient id="paint2_linear_3138_913" x1="10.3335" y1="19.5006" x2="19.9758" y2="2.77031" gradientUnits="userSpaceOnUse">
<stop stop-color="#FE5000"/>
<stop offset="1" stop-color="#FE9800"/>
</linearGradient>
<linearGradient id="paint3_linear_3138_913" x1="11.1367" y1="35.5404" x2="23.0765" y2="19.1134" gradientUnits="userSpaceOnUse">
<stop stop-color="#FE5000"/>
<stop offset="1" stop-color="#FE9800"/>
</linearGradient>
</defs>
</svg>
