<svg width="44" height="44" viewBox="0 0 44 44" fill="none" xmlns="http://www.w3.org/2000/svg">
<g clip-path="url(#clip0_3138_932)">
<path d="M40.4096 11.3794H35.5719L33.4976 6.8814C33.3716 6.6054 33.0308 6.47859 32.7567 6.6054L30.7268 7.55274L24.5778 3.12932C24.3333 2.95029 23.9777 3.00997 23.7999 3.26359L18.051 11.3794H3.58981C3.27866 11.3794 3.03418 11.633 3.03418 11.9389V32.0569C3.03418 32.3627 3.28607 32.6163 3.58981 32.6163H8.4275L10.5019 37.1143C10.6278 37.3903 10.9612 37.5172 11.2427 37.3903L13.2726 36.443L19.4216 40.8664C19.6661 41.0454 20.0217 40.9858 20.1995 40.7322L25.9484 32.6163H40.4022C40.7133 32.6163 40.9578 32.3627 40.9578 32.0569V11.9389C40.9652 11.633 40.7133 11.3794 40.4096 11.3794ZM32.7197 7.85858L34.3421 11.3794H25.1779L32.7197 7.85858ZM24.3852 4.37504L29.5711 8.09728L22.5405 11.3794H19.4216L24.3852 4.37504ZM16.073 27.5738V31.4303C16.073 31.4527 16.073 31.475 16.0804 31.4974H12.7392C12.7392 31.475 12.7466 31.4527 12.7466 31.4303V27.5738V26.5295V12.4983H16.0804V26.5295V27.5738H16.073ZM4.14544 31.4974V12.4983H11.702V26.5295H8.36823C8.07931 26.5295 7.84964 26.7607 7.84964 27.0516C7.84964 27.3425 8.07931 27.5738 8.36823 27.5738H11.702V31.4303C11.702 31.4527 11.702 31.475 11.7094 31.4974H4.14544ZM11.2797 36.1372L9.6573 32.6163H18.8215L11.2797 36.1372ZM19.6142 39.6282L14.4283 35.9059L21.4589 32.6238H24.5778L19.6142 39.6282ZM39.854 31.4974H17.1102C17.1102 31.475 17.1176 31.4527 17.1176 31.4303V27.5738H26.6003C26.8893 27.5738 27.1189 27.3425 27.1189 27.0516C27.1189 26.7607 26.8893 26.5295 26.6003 26.5295H17.1102V12.4983H18.3325H35.2089H39.854V31.4974ZM30.3786 19.1074H31.3491V15.7208H34.1347C35.7201 15.7208 36.6091 16.5264 36.6091 17.9138C36.6091 19.3088 35.7201 20.1368 34.1347 20.1368H32.5345V20.823H34.6681V21.472H32.5345V22.9191H31.3491V21.472H30.3786V20.823H31.3491V20.1368H30.3786V19.1074ZM33.9643 19.1074C35.0237 19.1074 35.4237 18.6523 35.4237 17.9138C35.4237 17.1754 35.0237 16.7427 33.9643 16.7427H32.5345V19.1074H33.9643Z" fill="url(#paint0_linear_3138_932)"/>
</g>
<defs>
<linearGradient id="paint0_linear_3138_932" x1="10.856" y1="40.9696" x2="44.1205" y2="30.5643" gradientUnits="userSpaceOnUse">
<stop stop-color="#FE5000"/>
<stop offset="1" stop-color="#FCA92A"/>
</linearGradient>
<clipPath id="clip0_3138_932">
<rect width="37.931" height="37.931" fill="white" transform="translate(3.03467 3.03467)"/>
</clipPath>
</defs>
</svg>
