<svg width="66" height="66" viewBox="0 0 66 66" fill="none" xmlns="http://www.w3.org/2000/svg">
<path fill-rule="evenodd" clip-rule="evenodd" d="M53.4218 17.7823C53.385 17.7823 53.371 17.7595 53.3515 17.7281C53.3395 17.7087 53.3255 17.6859 53.3027 17.6632C53.2729 17.6334 53.258 17.6036 53.2431 17.5738C53.2283 17.544 53.2134 17.5143 53.1836 17.4845L42.939 5.98911C42.9092 5.95934 42.8646 5.92956 42.8199 5.89979L42.8199 5.89977C42.7752 5.86999 42.7305 5.84021 42.7008 5.81043C42.671 5.81043 42.6561 5.79554 42.6412 5.78065C42.6263 5.76576 42.6114 5.75087 42.5816 5.75087C42.4625 5.6913 42.2838 5.63174 42.1052 5.63174H16.9702C13.2774 5.63174 10.2397 8.66938 10.2397 12.3622V53.6383C10.2397 57.3311 13.2774 60.3687 16.9702 60.3687H46.7509C50.4438 60.3687 53.4814 57.3311 53.4814 53.6383V18.1992C53.4814 18.1397 53.4665 18.0652 53.4516 17.9908L53.4516 17.9907C53.4367 17.9163 53.4218 17.8418 53.4218 17.7823ZM43.2368 9.68192L49.8481 17.1271H43.2368V9.68192ZM51.2181 53.5787C51.2181 56.0803 49.2525 58.1054 46.7509 58.1054H16.9702C14.4686 58.1054 12.5031 56.0803 12.5031 53.6383V12.3026C12.5031 9.80105 14.5282 7.83552 16.9702 7.83552H40.9735V18.1992C40.9735 18.7948 41.45 19.3309 42.1052 19.3309H51.2181V53.5787ZM17.0672 36.3005C17.0672 35.7349 17.5257 35.2764 18.0913 35.2764H45.6292C46.1949 35.2764 46.6534 35.7349 46.6534 36.3005C46.6534 36.8661 46.1949 37.3246 45.6292 37.3246H18.0913C17.5257 37.3246 17.0672 36.8661 17.0672 36.3005ZM18.0913 40.9658C17.5257 40.9658 17.0672 41.4243 17.0672 41.9899C17.0672 42.5555 17.5257 43.014 18.0913 43.014H45.6292C46.1949 43.014 46.6534 42.5555 46.6534 41.9899C46.6534 41.4243 46.1949 40.9658 45.6292 40.9658H18.0913ZM17.0672 47.6793C17.0672 47.1137 17.5257 46.6552 18.0913 46.6552H30.8361C31.4018 46.6552 31.8603 47.1137 31.8603 47.6793C31.8603 48.2449 31.4018 48.7034 30.8361 48.7034H18.0913C17.5257 48.7034 17.0672 48.2449 17.0672 47.6793ZM18.0913 29.5864C17.5257 29.5864 17.0672 30.0449 17.0672 30.6105C17.0672 31.1762 17.5257 31.6347 18.0913 31.6347H30.8361C31.4018 31.6347 31.8603 31.1762 31.8603 30.6105C31.8603 30.0449 31.4018 29.5864 30.8361 29.5864H18.0913Z" fill="url(#paint0_linear_3136_865)"/>
<circle cx="52.9138" cy="40.3968" r="12.0621" fill="white" stroke="url(#paint1_linear_3136_865)" stroke-width="2.04828"/>
<path d="M47.793 40.9428L51.7574 44.642L58.0343 37.5518" stroke="url(#paint2_linear_3136_865)" stroke-width="2.05" stroke-linecap="round" stroke-linejoin="round"/>
<defs>
<linearGradient id="paint0_linear_3136_865" x1="19.1583" y1="60.3687" x2="58.3999" y2="50.6667" gradientUnits="userSpaceOnUse">
<stop stop-color="#FE5000"/>
<stop offset="1" stop-color="#FCA92A"/>
</linearGradient>
<linearGradient id="paint1_linear_3136_865" x1="29.0173" y1="56.8968" x2="60.543" y2="51.113" gradientUnits="userSpaceOnUse">
<stop stop-color="#FE5000"/>
<stop offset="1" stop-color="#FCA92A"/>
</linearGradient>
<linearGradient id="paint2_linear_3136_865" x1="36.4137" y1="50.6381" x2="58.2399" y2="46.5834" gradientUnits="userSpaceOnUse">
<stop stop-color="#FE5000"/>
<stop offset="1" stop-color="#FCA92A"/>
</linearGradient>
</defs>
</svg>
