<svg width="44" height="44" viewBox="0 0 44 44" fill="none" xmlns="http://www.w3.org/2000/svg">
<path d="M40.1281 19.448C39.6001 19.448 39.2481 19.8 39.2481 20.328V23.76V28.952V29.832C39.2481 30.8 38.4561 31.592 37.4881 31.592H35.7281C34.2321 31.592 33.1761 32.736 33.1761 34.144V35.904C33.1761 36.872 32.3841 37.664 31.4161 37.664H27.1041H5.54405C5.01605 37.664 4.66405 37.312 4.66405 36.784V20.24C4.66405 19.712 4.31205 19.36 3.78405 19.36C3.25605 19.36 2.90405 19.712 2.90405 20.24V36.696C2.90405 38.192 4.04805 39.248 5.45605 39.248H27.1041H31.4161H32.5601C33.7041 39.248 34.8481 38.808 35.5521 37.928L39.6001 33.88C40.3921 33.088 40.9201 31.944 40.9201 30.888V29.744V28.864V23.76V20.24C41.0081 19.712 40.6561 19.448 40.1281 19.448ZM34.8481 36.432C34.8481 36.256 34.9361 36.08 34.9361 35.816V34.056C34.9361 33.528 35.2881 33.176 35.8161 33.176H37.5761C37.7521 33.176 37.9281 33.176 38.1921 33.088L34.8481 36.432ZM38.4561 7.304H32.3841V5.544C32.3841 5.016 32.0321 4.664 31.5041 4.664C30.9761 4.664 30.6241 5.016 30.6241 5.544V7.304H13.3761V5.544C13.3761 5.016 13.0241 4.664 12.4961 4.664C11.9681 4.664 11.6161 5.016 11.6161 5.544V7.304H5.54405C4.04805 7.304 2.99205 8.448 2.99205 9.856V16.808C2.99205 17.336 3.34405 17.688 3.87205 17.688H40.2161C40.7441 17.688 41.0961 17.336 41.0961 16.808V9.856C41.0081 8.448 39.8641 7.304 38.4561 7.304ZM39.2481 15.928H4.75205V9.856C4.75205 9.328 5.10405 8.976 5.63205 8.976H11.7041V11C11.1761 11.264 10.8241 11.88 10.8241 12.496C10.8241 13.464 11.6161 14.256 12.5841 14.256C13.5521 14.256 14.3441 13.464 14.3441 12.496C14.3441 11.88 13.9921 11.264 13.4641 11V8.976H30.7121V11C30.1841 11.264 29.8321 11.88 29.8321 12.496C29.8321 13.464 30.6241 14.256 31.5921 14.256C32.5601 14.256 33.3521 13.464 33.3521 12.496C33.3521 11.88 33.0001 11.264 32.4721 11V8.976H38.5441C39.0721 8.976 39.4241 9.328 39.4241 9.856L39.2481 15.928ZM18.5681 24.552C19.5361 24.552 20.3281 23.76 20.3281 22.792C20.3281 21.824 19.5361 21.032 18.5681 21.032C17.6001 21.032 16.8081 21.824 16.8081 22.792C16.8081 23.848 17.6001 24.552 18.5681 24.552ZM25.4321 24.552C26.4001 24.552 27.1921 23.76 27.1921 22.792C27.1921 21.824 26.4001 21.032 25.4321 21.032C24.4641 21.032 23.6721 21.824 23.6721 22.792C23.7601 23.848 24.4641 24.552 25.4321 24.552ZM32.3841 24.552C33.3521 24.552 34.1441 23.76 34.1441 22.792C34.1441 21.824 33.3521 21.032 32.3841 21.032C31.4161 21.032 30.6241 21.824 30.6241 22.792C30.6241 23.848 31.4161 24.552 32.3841 24.552ZM11.6161 32.384C12.5841 32.384 13.3761 31.592 13.3761 30.624C13.3761 29.656 12.5841 28.864 11.6161 28.864C10.6481 28.864 9.85605 29.656 9.85605 30.624C9.85605 31.592 10.6481 32.384 11.6161 32.384ZM18.5681 32.384C19.5361 32.384 20.3281 31.592 20.3281 30.624C20.3281 29.656 19.5361 28.864 18.5681 28.864C17.6001 28.864 16.8081 29.656 16.8081 30.624C16.8081 31.592 17.6001 32.384 18.5681 32.384ZM25.4321 32.384C26.4001 32.384 27.1921 31.592 27.1921 30.624C27.1921 29.656 26.4001 28.864 25.4321 28.864C24.4641 28.864 23.6721 29.656 23.6721 30.624C23.6721 31.592 24.4641 32.384 25.4321 32.384Z" fill="url(#paint0_linear_3138_928)"/>
<defs>
<linearGradient id="paint0_linear_3138_928" x1="10.7812" y1="39.248" x2="43.6344" y2="27.8933" gradientUnits="userSpaceOnUse">
<stop stop-color="#FE5000"/>
<stop offset="1" stop-color="#FCA92A"/>
</linearGradient>
</defs>
</svg>
