<svg width="100" height="100" viewBox="0 0 100 100" fill="none" xmlns="http://www.w3.org/2000/svg">
<circle cx="50" cy="50" r="49.5" fill="white" stroke="#7F94A8"/>
<path d="M43.219 41.542C38.8883 41.542 35.3779 45.0523 35.3779 49.3826C35.3779 53.7129 38.8883 57.2236 43.2186 57.2236C47.5492 57.2236 51.0596 53.7129 51.0596 49.3826C51.0546 45.0543 47.5469 41.547 43.219 41.542ZM43.219 55.6488C39.7582 55.6491 36.9524 52.8434 36.9524 49.3826C36.9524 45.9219 39.7578 43.1165 43.2186 43.1165C46.6793 43.1165 49.4851 45.9219 49.4851 49.3826C49.4809 52.8415 46.6778 55.6445 43.219 55.6484V55.6488Z" fill="#7F94A8"/>
<path d="M45.776 46.6763C44.9138 46.0197 43.9524 45.7034 42.9929 45.763C41.1682 45.8771 39.714 47.3317 39.5998 49.1565C39.5406 50.1148 39.8566 51.0769 40.5131 51.9391C40.5558 51.9957 40.6062 52.0456 40.6623 52.0887C41.4565 52.6933 42.3352 53.0089 43.2178 53.0089C43.2935 53.0089 43.3696 53.0066 43.4453 53.002C45.2701 52.8878 46.7243 51.4333 46.8388 49.6089C46.8977 48.6502 46.5821 47.688 45.9251 46.8258C45.8825 46.7693 45.8321 46.7194 45.776 46.6763ZM44.67 50.8332C44.0742 51.4294 42.9468 51.7931 41.7021 50.8993C40.8084 49.655 41.1724 48.528 41.7682 47.9318C42.364 47.3355 43.4911 46.9719 44.7362 47.8656C45.6299 49.1096 45.2663 50.2374 44.67 50.8332Z" fill="#7F94A8"/>
<path d="M72.8823 45.3307C73.317 45.3307 73.6203 44.9951 73.6203 44.5604V40.4273C73.6203 39.9925 73.317 39.6231 72.8823 39.6231H72.341V35.5546C72.341 33.2409 70.5786 31.3569 68.3513 31.3569H29.9812C27.754 31.3569 25.8931 33.2409 25.8931 35.5546V63.21C25.8931 65.5237 27.754 67.3738 29.9812 67.3738H30.8134V69.5387C30.8134 69.9735 31.1659 70.326 31.6007 70.326H41.4413C41.8761 70.326 42.2286 69.9735 42.2286 69.5387V67.3738H56.3992V69.5387C56.3992 69.9735 56.7517 70.326 57.1864 70.326H67.0271C67.4618 70.326 67.8143 69.9735 67.8143 69.5387V67.3738H68.3513C70.5786 67.3738 72.341 65.5237 72.341 63.21V59.1076H72.8823C73.317 59.1076 73.6203 58.7721 73.6203 58.3373V54.2042C73.6203 53.7695 73.317 53.4 72.8823 53.4H72.341V45.3307H72.8823ZM72.0458 54.9746V57.5331H66.8303V54.9746H72.0458ZM66.043 53.4C65.6048 53.4081 65.2546 53.766 65.2558 54.2042V58.3373C65.2565 58.5445 65.3403 58.7425 65.4879 58.8874C65.6359 59.0319 65.8358 59.1115 66.043 59.1076H66.4366V60.3689C66.4366 60.8747 66.1038 61.2726 65.6417 61.2726H32.6908C32.2284 61.2726 31.8959 60.8747 31.8959 60.3689V38.3957C31.8959 37.8898 32.2288 37.4582 32.6908 37.4582H65.6417C66.1041 37.4582 66.4366 37.8898 66.4366 38.3957V39.6231H66.043C65.6048 39.6312 65.2546 39.9891 65.2558 40.4273V44.5604C65.2565 44.7675 65.3403 44.9655 65.4879 45.1104C65.6359 45.255 65.8358 45.3345 66.043 45.3307H66.4366V53.4H66.043ZM66.8303 43.7562V41.1976H72.0458V43.7562H66.8303ZM40.6541 68.7515H32.3879V67.3738H40.6541V68.7515ZM66.2398 68.7515H57.9737V67.3738H66.2398V68.7515ZM70.7665 63.21C70.7665 64.6557 69.7102 65.7993 68.3513 65.7993H29.9812C28.6223 65.7993 27.4676 64.6557 27.4676 63.21V35.5546C27.4676 34.1089 28.6223 32.9314 29.9812 32.9314H68.3513C69.7102 32.9314 70.7665 34.1089 70.7665 35.5546V39.6231H68.0112V38.3957C68.0112 37.0215 66.9721 35.8836 65.6417 35.8836H32.6908C31.3604 35.8836 30.3214 37.0215 30.3214 38.3957V60.3689C30.3214 61.7431 31.3604 62.8471 32.6908 62.8471H65.6417C66.9721 62.8471 68.0112 61.7431 68.0112 60.3689V59.1076H70.7665V63.21ZM70.7665 53.4H68.0112V45.3307H70.7665V53.4Z" fill="#7F94A8"/>
</svg>
