<svg width="100" height="100" viewBox="0 0 100 100" fill="none" xmlns="http://www.w3.org/2000/svg">
<circle cx="50" cy="50" r="49.5" fill="white" stroke="#7F94A8"/>
<g clip-path="url(#clip0_919_487)">
<path d="M53.459 50C53.459 56.6 52.379 61.84 50.219 65.72C48.099 69.56 44.799 71.48 40.319 71.48C35.799 71.48 32.439 69.54 30.239 65.66C28.039 61.78 26.939 56.56 26.939 50C26.939 43.44 28.019 38.22 30.179 34.34C32.379 30.46 35.719 28.52 40.199 28.52C44.679 28.52 47.999 30.46 50.159 34.34C52.359 38.22 53.459 43.44 53.459 50ZM40.319 68.54C46.879 68.54 50.159 62.36 50.159 50C50.159 37.64 46.839 31.46 40.199 31.46C33.559 31.46 30.239 37.64 30.239 50C30.239 62.36 33.599 68.54 40.319 68.54Z" fill="#7F94A8"/>
<g clip-path="url(#clip1_919_487)">
<path d="M71.857 69.2143C67.2025 69.2143 63.2433 66.226 61.7678 62.0714H71.857V60.2857H61.3041C61.2058 59.7036 61.1428 59.1096 61.1428 58.5C61.1428 57.8904 61.2058 57.2964 61.3041 56.7143H71.8571V54.9286H61.7678C63.2433 50.774 67.2026 47.7857 71.857 47.7857C73.4509 47.7857 74.9977 48.1371 76.4547 48.8312L77.2142 47.2181C75.5156 46.4098 73.7186 46 71.857 46C66.2058 46 61.4246 49.7719 59.8835 54.9286H55.7856V56.7143H59.4996C59.4153 57.2991 59.357 57.8921 59.357 58.5C59.357 59.1079 59.4153 59.7009 59.4996 60.2857H55.7856V62.0714H59.8835C61.4246 67.2281 66.2058 71 71.8571 71C73.7204 71 75.5174 70.5902 77.2142 69.781L76.4539 68.1697C74.9995 68.8629 73.4527 69.2143 71.857 69.2143Z" fill="#7F94A8"/>
</g>
</g>
<defs>
<clipPath id="clip0_919_487">
<rect width="52" height="44" fill="white" transform="translate(26 28)"/>
</clipPath>
<clipPath id="clip1_919_487">
<rect width="25" height="25" fill="white" transform="translate(54 46)"/>
</clipPath>
</defs>
</svg>
