<svg width="100" height="100" viewBox="0 0 100 100" fill="none" xmlns="http://www.w3.org/2000/svg">
<circle cx="50" cy="50" r="49.5" fill="white" stroke="#7F94A8"/>
<path d="M67.6429 36.1426H32.3572C29.7981 36.1426 27.7144 38.2263 27.7144 40.7855V61.214C27.7144 63.7732 29.7981 65.8569 32.3572 65.8569H67.6428C70.2019 65.8569 72.2856 63.7732 72.2856 61.214V40.7855C72.2857 38.2263 70.202 36.1426 67.6429 36.1426ZM70.4286 61.214C70.4286 62.7498 69.1788 63.9997 67.6429 63.9997H32.3572C30.8213 63.9997 29.5715 62.7498 29.5715 61.214V40.7855C29.5715 39.2496 30.8213 37.9998 32.3572 37.9998H67.6428C69.1787 37.9998 70.4285 39.2496 70.4285 40.7855V61.214H70.4286Z" fill="#7F94A8"/>
<path d="M71.3571 41.7139H28.643C28.1304 41.7139 27.7144 42.1299 27.7144 42.6425V48.2139C27.7144 48.7265 28.1304 49.1425 28.643 49.1425H71.3572C71.8698 49.1425 72.2858 48.7265 72.2858 48.2139V42.6425C72.2857 42.1299 71.8697 41.7139 71.3571 41.7139ZM70.4286 47.2853H29.5715V43.571H70.4285V47.2853H70.4286Z" fill="#7F94A8"/>
<path d="M45.3571 54.7144H34.2142C33.7017 54.7144 33.2856 55.1304 33.2856 55.643C33.2856 56.1555 33.7017 56.5715 34.2142 56.5715H45.3571C45.8697 56.5715 46.2857 56.1554 46.2857 55.6429C46.2857 55.1303 45.8697 54.7144 45.3571 54.7144Z" fill="#7F94A8"/>
<path d="M45.3571 58.4282H34.2142C33.7017 58.4282 33.2856 58.8442 33.2856 59.3568C33.2856 59.8694 33.7017 60.2854 34.2142 60.2854H45.3571C45.8697 60.2854 46.2857 59.8694 46.2857 59.3568C46.2856 58.8442 45.8697 58.4282 45.3571 58.4282Z" fill="#7F94A8"/>
<path d="M63.9285 52.8569H62.0714C60.5355 52.8569 59.2856 54.1068 59.2856 55.6426V57.4997C59.2856 59.0356 60.5355 60.2854 62.0714 60.2854H63.9285C65.4644 60.2854 66.7142 59.0356 66.7142 57.4997V55.6426C66.7142 54.1068 65.4644 52.8569 63.9285 52.8569ZM64.8571 57.4998C64.8571 58.0124 64.441 58.4284 63.9285 58.4284H62.0714C61.5588 58.4284 61.1428 58.0124 61.1428 57.4998V55.6427C61.1428 55.1302 61.5588 54.7141 62.0714 54.7141H63.9285C64.441 54.7141 64.8571 55.1302 64.8571 55.6427V57.4998Z" fill="#7F94A8"/>
</svg>
