<svg width="56" height="56" viewBox="0 0 56 56" fill="none" xmlns="http://www.w3.org/2000/svg">
<path fill-rule="evenodd" clip-rule="evenodd" d="M27.9592 6.34789C28.4692 5.49725 29.3449 5 30.419 5C31.8359 5 33.4752 5.8766 34.7268 7.53007C35.9483 9.15371 37.8695 12.9462 36.293 19.8256C36.225 20.1224 36.2959 20.434 36.4857 20.6721C36.6754 20.9103 36.9633 21.049 37.2678 21.049H46.9535C49.0709 21.049 50.5734 21.5689 51.531 22.3814C52.4659 23.1747 53 24.3467 53 25.9323C53 26.5011 52.9659 27.1991 52.8482 27.8664C52.7275 28.5508 52.5344 29.1097 52.2771 29.4713C52.0877 29.7374 52.0403 30.0794 52.15 30.3871C52.6815 31.8771 52.7263 34.163 51.2366 35.7169C51.0469 35.9147 50.9468 36.1818 50.9596 36.4555C51.1042 39.5554 50.3128 41.5117 48.9712 42.5203C48.7248 42.7056 48.5776 42.9941 48.5723 43.3023C48.5465 44.7858 47.8446 46.6602 46.8084 47.8508L46.8043 47.8556C46.0967 48.6792 45.3783 49 44.7534 49H23.6096C22.4686 48.8278 21.7597 48.5879 21.2179 48.3181C20.7277 48.074 20.3507 47.7974 19.8539 47.433C19.7692 47.3708 19.681 47.3062 19.5882 47.2387C19.4104 47.1093 19.2043 47.0471 19 47.0473V25.9399C19.1534 25.94 19.3092 25.9047 19.4552 25.8301C21.3228 24.8753 23.1229 23.5578 24.6198 21.4736C26.112 19.396 27.2623 16.6136 27.9237 12.7856C27.9334 12.7294 27.9383 12.6724 27.9383 12.6154V6.42796C27.9383 6.39436 27.9469 6.36836 27.9585 6.349L27.9592 6.34789ZM19 23.8073C20.4777 22.9903 21.842 21.9128 22.9954 20.3069C24.2613 18.5444 25.3134 16.0893 25.9383 12.5289V6.42796C25.9383 6.04253 26.04 5.6587 26.2442 5.31884C27.132 3.83861 28.6748 3 30.419 3C32.6296 3 34.8063 4.32059 36.3226 6.32443L36.3242 6.32653C37.8059 8.29558 39.7246 12.3224 38.4948 19.049H46.9535C49.3726 19.049 51.3933 19.6417 52.8249 20.8564C54.2791 22.0902 55 23.8598 55 25.9323C55 26.5683 54.9628 27.3918 54.8178 28.2138C54.7042 28.8579 54.5144 29.5618 54.1825 30.1833C54.6942 32.0025 54.7171 34.6892 52.9718 36.7757C53.0408 39.7849 52.2959 42.2644 50.5478 43.813C50.3949 45.6572 49.5558 47.7393 48.3191 49.1615C47.3487 50.2899 46.1184 51 44.7534 51H23.5358C23.4874 51 23.439 50.9965 23.3911 50.9895C22.0497 50.7934 21.1097 50.4985 20.3263 50.1084C19.8223 49.8573 19.395 49.5706 19 49.2863V50C19 51.6569 17.6569 53 16 53H5C3.34315 53 2 51.6569 2 50V21C2 19.3431 3.34315 18 5 18H16C17.6569 18 19 19.3431 19 21V23.8073ZM4 21C4 20.4477 4.44772 20 5 20H16C16.5523 20 17 20.4477 17 21V50C17 50.5523 16.5523 51 16 51H5C4.44772 51 4 50.5523 4 50V21Z" fill="#7F94A8"/>
</svg>
