<svg width="56" height="56" viewBox="0 0 56 56" fill="none" xmlns="http://www.w3.org/2000/svg">
<g clip-path="url(#clip0)">
<path d="M34.3339 22.7983L25.9198 30.7455L21.8817 26.5911C21.434 26.1302 20.6969 26.1198 20.2365 26.5674C19.7756 27.0155 19.7651 27.7522 20.2128 28.2131L25.056 33.1848C25.5059 33.6375 26.233 33.653 26.7017 33.2195L35.9563 24.4905C36.1811 24.2785 36.3123 23.9858 36.321 23.6772C36.3297 23.3686 36.2152 23.0691 36.0028 22.8448C35.5524 22.3766 34.8098 22.3561 34.3339 22.7983Z" fill="#7F94A8"/>
<path d="M28.0902 10.5674C18.474 10.5674 10.6549 18.3865 10.6549 28.0027C10.6549 37.6193 18.474 45.4384 28.0902 45.4384C37.7068 45.4384 45.5259 37.6193 45.5259 28.0027C45.5259 18.3865 37.7068 10.5674 28.0902 10.5674ZM28.0902 43.1044C19.7578 43.1044 12.989 36.3237 12.989 28.0027C12.989 19.6817 19.7578 12.9015 28.0902 12.9015C36.4308 12.9015 43.1918 19.6625 43.1918 28.0027C43.1918 36.3429 36.4308 43.1044 28.0902 43.1044Z" fill="#7F94A8"/>
<path d="M52.0847 21.5843L52.4699 14.6637C52.4968 14.1991 52.2442 13.7629 51.828 13.555L45.666 10.4391L42.5501 4.2771C42.3381 3.86454 41.9046 3.61335 41.4414 3.63523L34.509 4.00905L28.7322 0.192492C28.3428 -0.0641639 27.8382 -0.0641639 27.4484 0.192492L21.6716 4.00905L14.7515 3.62384C14.2865 3.59649 13.8507 3.84904 13.6428 4.26571L10.5265 10.4277L4.36489 13.5436C3.95187 13.7551 3.70114 14.1887 3.72302 14.6523L4.10778 21.5729L0.291674 27.3497C0.0350181 27.739 0.0350181 28.2436 0.291674 28.6334L4.09638 34.4216L3.71117 41.3422C3.68427 41.8067 3.93637 42.243 4.35304 42.4509L10.5151 45.5668L13.6309 51.7288C13.8425 52.1418 14.276 52.3925 14.7396 52.3707L21.6602 51.9854L27.437 55.8015C27.8241 56.0664 28.3337 56.0664 28.7208 55.8015L34.4976 51.9854L41.4182 52.3707C41.8827 52.3975 42.3185 52.145 42.5268 51.7288L45.6427 45.5668L51.8048 42.4509C52.2173 42.2389 52.4685 41.8058 52.4466 41.3422L52.0614 34.4216L55.8775 28.6448C56.1342 28.2555 56.1342 27.7504 55.8775 27.3611L52.0847 21.5843ZM49.9138 33.4647C49.7716 33.6735 49.7055 33.9247 49.7273 34.1768L50.0889 40.7236L44.2655 43.6644C44.0435 43.7757 43.8635 43.9562 43.7522 44.1782L40.8109 50.0015L34.2642 49.64C34.0134 49.6309 33.7659 49.6956 33.5521 49.8264L28.0903 53.4328L22.6289 49.8264C22.4393 49.6983 22.2159 49.629 21.9871 49.6281H21.9287L15.3815 49.9901L12.4407 44.1663C12.3294 43.9443 12.1494 43.7643 11.9269 43.653L6.09173 40.7236L6.4537 34.1768C6.46281 33.9261 6.39762 33.6785 6.26679 33.4647L2.66084 28.0029L6.26679 22.5411C6.40948 22.3328 6.47558 22.0812 6.4537 21.8295L6.09173 15.2823L11.9155 12.3415C12.1375 12.2302 12.3176 12.0502 12.4288 11.8282L15.3696 6.0044L21.9169 6.36636C22.1671 6.37502 22.4147 6.31029 22.6289 6.17945L28.0903 2.57351L33.5521 6.17945C33.7609 6.32214 34.0125 6.38824 34.2642 6.36636L40.8109 6.0044L43.7522 11.8282C43.8635 12.0502 44.0435 12.2302 44.2655 12.3415L50.0889 15.2823L49.7273 21.8295C49.7182 22.0798 49.7834 22.3273 49.9138 22.5411L53.5202 28.0029L49.9138 33.4647Z" fill="#7F94A8"/>
</g>
<defs>
<clipPath id="clip0">
<rect width="56" height="56" fill="white"/>
</clipPath>
</defs>
</svg>
