<svg width="56" height="56" viewBox="0 0 56 56" fill="none" xmlns="http://www.w3.org/2000/svg">
<path fill-rule="evenodd" clip-rule="evenodd" d="M40.9479 11.6778C40.9155 11.6778 40.9032 11.6578 40.8861 11.6301C40.8756 11.6131 40.8632 11.5931 40.8432 11.5731C40.817 11.5469 40.804 11.5207 40.7909 11.4946C40.7778 11.4684 40.7647 11.4422 40.7385 11.416L31.7357 1.31405C31.7095 1.28788 31.6703 1.26171 31.631 1.23554C31.5918 1.20937 31.5525 1.1832 31.5264 1.15703C31.5002 1.15703 31.4871 1.14394 31.474 1.13085C31.4609 1.11777 31.4478 1.10468 31.4217 1.10468C31.317 1.05234 31.16 1 31.0029 1H8.91464C5.66944 1 3 3.66944 3 6.91464V43.1876C3 46.4328 5.66944 49.1022 8.91464 49.1022H22.4677C22.0925 48.4634 21.7556 47.7993 21.4601 47.1132H8.91464C6.71628 47.1132 4.98899 45.3336 4.98899 43.1876V6.86229C4.98899 4.66393 6.76862 2.93665 8.91464 2.93665H30.0084V12.0441C30.0084 12.5676 30.4272 13.0386 31.0029 13.0386H39.0112V22.0279C39.6848 22.0652 40.3484 22.1396 41.0002 22.2489V12.0441C41.0002 11.9918 40.9872 11.9264 40.9741 11.8609L40.9741 11.8609C40.961 11.7955 40.9479 11.7301 40.9479 11.6778ZM31.9246 23.0511H9.90024C9.40318 23.0511 9.00024 23.454 9.00024 23.9511C9.00024 24.4481 9.40318 24.8511 9.90024 24.8511H28.2743C29.41 24.1205 30.6331 23.5141 31.9246 23.0511ZM24.5378 28.0511H9.90024C9.40318 28.0511 9.00024 28.454 9.00024 28.9511C9.00024 29.4481 9.40318 29.8511 9.90024 29.8511H23.1319C23.5627 29.2212 24.0325 28.62 24.5378 28.0511ZM21.3728 33.0931C21.2868 33.0658 21.1952 33.0511 21.1002 33.0511H9.90024C9.40318 33.0511 9.00024 33.454 9.00024 33.9511C9.00024 34.4481 9.40318 34.8511 9.90024 34.8511H20.7472C20.9259 34.2514 21.135 33.6648 21.3728 33.0931ZM31.9974 4.55925L37.8074 11.102H31.9974V4.55925ZM9.90024 18.0511C9.40318 18.0511 9.00024 18.454 9.00024 18.9511C9.00024 19.4481 9.40318 19.8511 9.90024 19.8511H21.1002C21.5973 19.8511 22.0002 19.4481 22.0002 18.9511C22.0002 18.454 21.5973 18.0511 21.1002 18.0511H9.90024Z" fill="#7F94A8"/>
<circle cx="38" cy="40" r="15" stroke="#7F94A8" stroke-width="2"/>
<path d="M28 45L34.5 38.5L38.5 42.5L46.5 35M46.5 35H41M46.5 35V40.5" stroke="#7F94A8" stroke-width="2" stroke-linecap="round" stroke-linejoin="round"/>
</svg>
