<svg width="56" height="56" viewBox="0 0 56 56" fill="none" xmlns="http://www.w3.org/2000/svg">
<path d="M43.9091 14.7927H12.0909C11.5818 14.7927 11.2 15.1793 11.2 15.6947C11.2 16.2101 11.5818 16.4678 11.9636 16.4678H43.9091C44.4182 16.4678 44.6727 16.0812 44.6727 15.6947C44.8 15.1793 44.4182 14.7927 43.9091 14.7927ZM43.9091 23.8123H12.0909C11.5818 23.8123 11.3273 24.1989 11.3273 24.5854C11.3273 25.1008 11.7091 25.3585 12.0909 25.3585H44.0364C44.5455 25.3585 44.8 24.972 44.8 24.5854C44.8 24.1989 44.4182 23.8123 43.9091 23.8123ZM33.4727 29.7395H22.5273C22.0182 29.7395 21.7636 30.1261 21.7636 30.5126C21.7636 31.028 22.1455 31.2857 22.5273 31.2857H33.4727C33.9818 31.2857 34.2364 30.8992 34.2364 30.5126C34.3636 30.1261 33.9818 29.7395 33.4727 29.7395ZM43.9091 19.3025H20.1091C19.6 19.3025 19.3455 19.6891 19.3455 20.0756C19.3455 20.591 19.7273 20.8487 20.1091 20.8487H43.9091C44.4182 20.8487 44.6727 20.4622 44.6727 20.0756C44.8 19.6891 44.4182 19.3025 43.9091 19.3025ZM16.2909 19.3025H12.0909C11.5818 19.3025 11.3273 19.6891 11.3273 20.0756C11.3273 20.591 11.7091 20.8487 12.0909 20.8487H16.4182C16.9273 20.8487 17.1818 20.4622 17.1818 20.0756C17.1818 19.6891 16.8 19.3025 16.2909 19.3025ZM53.7091 5H2.29091C1.01818 5 0 6.03081 0 7.31933V42.4958C0 43.7843 1.01818 44.8151 2.29091 44.8151H36.7818L35.5091 47.3922C35.3818 47.7787 35.3818 48.1653 35.6364 48.423C35.8909 48.6807 36.2727 48.8095 36.5273 48.8095L38.8182 48.423L40.0909 50.4846C40.2182 50.7423 40.6 51 40.9818 51C41.3636 51 41.6182 50.7423 41.8727 50.4846L44.0364 45.8459L46.2 50.4846C46.3273 50.8712 46.7091 51 47.0909 51C47.4727 51 47.7273 50.8712 47.9818 50.4846L49.2545 48.423L51.5455 48.8095C51.9273 48.8095 52.3091 48.6807 52.4364 48.423C52.6909 48.1653 52.6909 47.7787 52.5636 47.3922L51.2909 44.8151H53.7091C54.9818 44.8151 56 43.7843 56 42.4958V7.31933C56 6.03081 54.9818 5 53.7091 5ZM40.8545 48.5518L39.9636 47.1345C39.7091 46.7479 39.3273 46.6191 38.9455 46.6191L37.5455 46.8768L39.0727 43.6555C39.7091 44.2997 40.6 44.5574 41.4909 44.5574C41.7455 44.5574 42.1273 44.5574 42.3818 44.8151C42.5091 44.8151 42.5091 44.944 42.6364 44.944L40.8545 48.5518ZM44.1636 43.6555C44.0364 43.6555 43.9091 43.6555 43.7818 43.6555C43.5273 43.6555 43.4 43.5266 43.2727 43.3978C42.7636 43.0112 42.1273 42.8824 41.6182 42.8824C41.4909 42.8824 41.4909 42.8824 41.3636 42.8824C40.8545 42.8824 40.3455 42.6247 40.0909 42.1092C39.9636 41.8515 39.8364 41.7227 39.7091 41.465C39.4545 41.2073 39.0727 40.9496 38.6909 40.6919C38.1818 40.4342 37.9273 39.9188 37.9273 39.4034C38.0545 38.7591 37.8 37.986 37.4182 37.4706C37.1636 37.084 37.1636 36.4398 37.4182 35.9244C37.8 35.409 38.0545 34.6359 37.9273 33.9916C37.9273 33.4762 38.1818 32.9608 38.6909 32.7031C39.3273 32.4454 39.8364 31.93 40.0909 31.2857C40.3455 30.7703 40.8545 30.5126 41.3636 30.5126C42 30.6415 42.7636 30.3838 43.2727 29.9972C43.6545 29.7395 44.2909 29.7395 44.8 29.9972C45.3091 30.3838 46.0727 30.6415 46.7091 30.5126C47.2182 30.5126 47.7273 30.7703 47.9818 31.2857C48.2364 31.93 48.7455 32.4454 49.3818 32.7031C49.8909 32.9608 50.1455 33.4762 50.1455 33.9916C50.0182 34.6359 50.2727 35.409 50.6545 35.9244C50.9091 36.3109 50.9091 36.9552 50.6545 37.4706C50.2727 37.986 50.0182 38.7591 50.1455 39.4034C50.1455 39.9188 49.8909 40.4342 49.3818 40.6919C49 40.8207 48.6182 41.0784 48.3636 41.465C48.2364 41.5938 48.1091 41.8515 47.9818 42.1092C47.7273 42.6247 47.2182 42.8824 46.7091 42.8824C46.0727 42.7535 45.3091 43.0112 44.8 43.3978C44.5455 43.5266 44.4182 43.6555 44.1636 43.6555ZM49 46.6191C48.6182 46.6191 48.2364 46.7479 47.9818 47.1345L47.0909 48.5518L45.4364 44.944C45.5636 44.944 45.5636 44.8151 45.6909 44.8151C45.9455 44.6863 46.2 44.5574 46.5818 44.5574C47.4727 44.6863 48.3636 44.2997 49 43.6555L50.5273 46.8768L49 46.6191ZM54.3455 42.4958C54.3455 42.8824 54.0909 43.1401 53.7091 43.1401H50.5273L50.1455 42.2381C50.1455 42.2381 50.1455 42.2381 50.2727 42.2381C51.4182 41.7227 52.0545 40.563 51.9273 39.2745C51.9273 39.0168 51.9273 38.6303 52.1818 38.3726C52.9455 37.3417 52.9455 35.9244 52.1818 34.8936C52.0545 34.6359 51.9273 34.3782 51.9273 33.9916C52.0545 32.7031 51.4182 31.5434 50.2727 31.028C50.0182 30.8992 49.7636 30.6415 49.6364 30.3838C49.1273 29.2241 47.9818 28.5798 46.7091 28.7087C46.4545 28.7087 46.0727 28.7087 45.8182 28.451C44.8 27.6779 43.4 27.6779 42.3818 28.451C42.1273 28.5798 41.8727 28.7087 41.4909 28.7087C40.2182 28.5798 39.0727 29.2241 38.5636 30.3838C38.4364 30.6415 38.1818 30.8992 37.9273 31.028C36.7818 31.5434 36.1455 32.7031 36.2727 33.9916C36.2727 34.2493 36.2727 34.6359 36.0182 34.8936C35.2545 35.9244 35.2545 37.3417 36.0182 38.3726C36.1455 38.6303 36.2727 38.888 36.2727 39.2745C36.1455 40.563 36.7818 41.7227 37.9273 42.2381C37.9273 42.2381 37.9273 42.2381 38.0545 42.2381L37.5455 43.1401H2.29091C1.90909 43.1401 1.65455 42.8824 1.65455 42.4958V7.31933C1.65455 6.93277 1.90909 6.67507 2.29091 6.67507H53.7091C54.0909 6.67507 54.3455 6.93277 54.3455 7.31933V42.4958ZM43.9091 31.4146C41.1091 31.4146 38.8182 33.7339 38.8182 36.5686C38.8182 39.4034 41.1091 41.7227 43.9091 41.7227C46.7091 41.7227 49 39.4034 49 36.5686C49 33.7339 46.7091 31.4146 43.9091 31.4146ZM43.9091 40.1765C42 40.1765 40.4727 38.6303 40.4727 36.6975C40.4727 34.7647 42 33.2185 43.9091 33.2185C45.8182 33.2185 47.3455 34.7647 47.3455 36.6975C47.3455 38.5014 45.8182 40.1765 43.9091 40.1765Z" fill="#7F94A8"/>
</svg>
