<svg width="56" height="56" viewBox="0 0 56 56" fill="none" xmlns="http://www.w3.org/2000/svg">
<path fill-rule="evenodd" clip-rule="evenodd" d="M54.9983 11.552C54.9979 11.5403 54.9975 11.5286 54.9967 11.517C54.9933 11.4707 54.9887 11.4252 54.9796 11.3801C54.9704 11.3351 54.9574 11.29 54.9428 11.2466C54.9391 11.2358 54.9353 11.2249 54.9312 11.2141C54.9157 11.1728 54.8982 11.1323 54.8782 11.0931L54.8771 11.0911L54.8748 11.0868C54.8531 11.0459 54.8281 11.0071 54.801 10.9692L54.7944 10.9599L54.7865 10.9494L54.7865 10.9493L54.7801 10.9408C54.7513 10.9032 54.7213 10.8669 54.6875 10.8331L45.0223 1.16789C44.9885 1.1341 44.9522 1.10406 44.9146 1.07527L44.905 1.06809C44.8986 1.06326 44.8922 1.05844 44.8858 1.05399C44.8479 1.02687 44.8095 1.00184 44.769 0.980563C44.7677 0.979815 44.7664 0.979235 44.7651 0.978673L44.7651 0.978664C44.7635 0.977974 44.762 0.977308 44.7607 0.976391C44.7223 0.956364 44.6822 0.939258 44.6418 0.923821C44.6305 0.919649 44.6196 0.915894 44.608 0.912139C44.5646 0.897537 44.5208 0.884603 44.4753 0.875424C44.4306 0.866663 44.3843 0.861656 44.3384 0.858318L44.3209 0.857484L44.3034 0.856649L44.2889 0.855882C44.2816 0.855431 44.2743 0.85498 44.2671 0.85498H20.0681C19.4781 0.85498 19 1.33311 19 1.92306V5.55199C19.7409 5.83325 20.4546 6.16968 21.1362 6.55626V2.99113H43.199V11.5883C43.199 12.1783 43.6771 12.6564 44.2671 12.6564H52.8638V46.5711H47.556V42.0689C47.8735 41.6375 48.0062 41.1269 48.1184 40.693C48.1772 40.4652 48.2578 40.1535 48.3312 40.0538C48.4041 39.9538 48.6752 39.7826 48.8733 39.6575L48.874 39.657C49.3997 39.3249 50.0539 38.9114 50.3138 38.1296C50.5708 37.3583 50.3035 36.6295 50.0886 36.0437L50.0885 36.0435C49.9909 35.7777 49.8803 35.4761 49.8803 35.3117C49.8803 35.1473 49.9909 34.8461 50.0885 34.5803C50.3034 33.9945 50.5708 33.2652 50.3138 32.4938C50.0539 31.7124 49.3997 31.2989 48.874 30.9668C48.6758 30.8416 48.4042 30.6697 48.3312 30.5704C48.2578 30.4703 48.1772 30.1586 48.1184 29.9308L48.1184 29.9307C47.9648 29.3362 47.7737 28.5961 47.1196 28.1164C46.5989 27.735 45.996 27.6908 45.5876 27.6908C45.4149 27.6908 45.248 27.6992 45.0869 27.7075C44.9455 27.7146 44.812 27.7213 44.6918 27.7213C44.502 27.7213 44.421 27.7037 44.3898 27.6933C44.2629 27.6512 44.0184 27.4542 43.8219 27.2957L43.8199 27.2941C43.3213 26.8934 42.7014 26.3953 41.8522 26.3953C41.0026 26.3953 40.3818 26.8945 39.8833 27.2954L39.883 27.2957L39.8771 27.3004L39.8771 27.3005C39.6816 27.4578 39.4407 27.6516 39.3151 27.6933C39.2838 27.7037 39.2025 27.7213 39.0131 27.7213C38.8929 27.7213 38.759 27.7146 38.6176 27.7071L38.6094 27.7067C38.4509 27.6989 38.2871 27.6908 38.1169 27.6908C37.7089 27.6908 37.106 27.735 36.5857 28.1164C35.9311 28.5962 35.7396 29.3363 35.5861 29.9308C35.5272 30.1586 35.4467 30.4703 35.3737 30.57C35.3003 30.6697 35.0286 30.8416 34.8305 30.9668C34.3048 31.2989 33.651 31.7124 33.3907 32.4938C33.1337 33.2656 33.401 33.9943 33.6159 34.5801L33.616 34.5803C33.7136 34.8461 33.8241 35.1473 33.8241 35.3117C33.8241 35.4761 33.7136 35.7777 33.616 36.0435L33.6159 36.0437C33.401 36.6295 33.1337 37.3583 33.3907 38.13C33.6509 38.9113 34.3049 39.3247 34.8301 39.6568L34.8305 39.657C35.0291 39.7822 35.3003 39.9541 35.3737 40.0538C35.4467 40.1535 35.5272 40.4652 35.5861 40.693C35.6983 41.1269 35.8314 41.638 36.1489 42.0689V46.5711H21.1362V33.5394C20.4546 33.926 19.7409 34.2625 19 34.5437V47.6392C19 48.2292 19.4781 48.7073 20.0681 48.7073H36.1485V54.4724C36.1485 54.8608 36.3596 55.2188 36.6996 55.407C37.0401 55.5951 37.4552 55.5839 37.7844 55.3773L41.8522 52.8252L45.9201 55.3773C46.0932 55.4858 46.2906 55.5405 46.4879 55.5405C46.6657 55.5405 46.8438 55.4963 47.0049 55.4074C47.3449 55.2192 47.556 54.8612 47.556 54.4724V48.7073H53.9319C54.5219 48.7073 55 48.2292 55 47.6392V11.5883C55 11.5811 54.9995 11.5738 54.9991 11.5665L54.9983 11.552ZM28.6279 23.439H44.5604C45.1504 23.439 45.6285 22.9609 45.6285 22.3709C45.6285 21.7814 45.1504 21.3028 44.5604 21.3028H28.9499C28.8916 22.0302 28.7832 22.7434 28.6279 23.439ZM28.8721 18.0477H48.8327C49.4227 18.0477 49.9008 17.5696 49.9008 16.9797C49.9008 16.3897 49.4227 15.9116 48.8327 15.9116H28.442C28.6336 16.6053 28.7782 17.3186 28.8721 18.0477ZM25.7267 10.5201C26.2497 11.1902 26.7187 11.9044 27.1274 12.6562H39.0481C39.6377 12.6562 40.1162 12.1781 40.1162 11.5881C40.1162 10.9982 39.6377 10.5201 39.0481 10.5201H25.7267ZM45.3352 4.50188L51.3535 10.5202H45.3352V4.50188ZM35.6215 33.8448C35.5464 33.6407 35.4242 33.3074 35.4213 33.171C35.5047 33.0675 35.7942 32.8843 35.9716 32.7725C36.3521 32.5322 36.7835 32.2593 37.0964 31.8329C37.4119 31.4024 37.5405 30.9051 37.6539 30.4665L37.6542 30.4653L37.6545 30.464L37.6545 30.4639L37.6546 30.4639L37.6546 30.4639L37.6546 30.4638C37.7043 30.2718 37.7841 29.9631 37.8524 29.8462C37.8899 29.8382 37.9688 29.827 38.1169 29.827C38.2358 29.827 38.3689 29.8336 38.5099 29.8407L38.5193 29.8412L38.5195 29.8412H38.5195H38.5196H38.5196H38.5196C38.6785 29.849 38.8422 29.857 39.0131 29.857C39.3977 29.857 39.7082 29.8136 39.9898 29.7197C40.4817 29.5562 40.8751 29.2395 41.2222 28.96L41.2243 28.9583L41.2243 28.9583C41.4165 28.8037 41.7358 28.5469 41.8472 28.5311C41.9686 28.5468 42.2857 28.8019 42.4781 28.9566L42.4822 28.96C42.8294 29.2395 43.2232 29.5562 43.7151 29.7197C43.9967 29.8136 44.3067 29.857 44.6918 29.857C44.8632 29.857 45.0281 29.8489 45.1873 29.8411L45.1874 29.8411L45.1946 29.8407C45.3356 29.8336 45.4687 29.827 45.588 29.827C45.7361 29.827 45.8145 29.8378 45.8525 29.8462C45.9209 29.9634 46.001 30.2734 46.0503 30.4653C46.1638 30.9042 46.2927 31.402 46.6085 31.8329C46.9207 32.259 47.3517 32.5313 47.7323 32.7719L47.7324 32.7719L47.7333 32.7725L47.7431 32.7787L47.7431 32.7787L47.7432 32.7787C47.9208 32.8914 48.2013 33.0694 48.2832 33.171C48.2803 33.3068 48.1592 33.6377 48.0844 33.842L48.0834 33.8448C47.9244 34.2774 47.7446 34.7681 47.7446 35.3117C47.7446 35.8548 47.9241 36.345 48.0825 36.7777L48.083 36.779C48.1581 36.9831 48.2803 37.3164 48.2832 37.4529C48.2013 37.5545 47.9207 37.7325 47.7431 37.8451L47.7333 37.8513C47.3524 38.0916 46.921 38.3645 46.6085 38.7909C46.2927 39.2219 46.1638 39.7196 46.0503 40.1585C46.001 40.35 45.9205 40.6604 45.8525 40.7777C45.8145 40.7856 45.7361 40.7969 45.588 40.7969C45.4687 40.7969 45.3356 40.7902 45.1946 40.7831L45.1873 40.7827C45.0281 40.7749 44.8632 40.7668 44.6918 40.7668C44.3067 40.7668 43.9967 40.8102 43.7151 40.9041C43.2241 41.0673 42.8307 41.3836 42.484 41.6624L42.4822 41.6638C42.2932 41.8165 41.9778 42.0698 41.8522 42.0923C41.7267 42.0698 41.4117 41.8165 41.2227 41.6638L41.2177 41.6598C40.8714 41.3817 40.4793 41.0668 39.9898 40.9041C39.7082 40.8102 39.3977 40.7668 39.0131 40.7668C38.8423 40.7668 38.6779 40.7749 38.5188 40.7827H38.5187H38.5187H38.5186H38.5185H38.5184L38.5099 40.7831C38.3693 40.7902 38.2362 40.7969 38.1169 40.7969C37.9688 40.7969 37.8903 40.7856 37.8524 40.7777C37.7841 40.6607 37.7042 40.3518 37.6545 40.1598L37.6542 40.1585C37.5411 39.7196 37.4122 39.2219 37.0964 38.7909C36.7839 38.3645 36.3525 38.0916 35.9716 37.8513C35.7947 37.7395 35.5051 37.5563 35.4217 37.4529C35.4246 37.317 35.5465 36.984 35.6212 36.7799L35.6215 36.779C35.7805 36.3464 35.9603 35.8557 35.9603 35.3121C35.9603 34.7693 35.7809 34.2796 35.6226 33.8476L35.6215 33.8448ZM45.4199 52.5415L42.4201 50.6595C42.0729 50.4421 41.6315 50.4421 41.2844 50.6595L38.2846 52.5415V42.9297C38.3981 42.9263 38.5095 42.9222 38.6176 42.9167C38.759 42.9092 38.8925 42.9025 39.0131 42.9025C39.2025 42.9025 39.2834 42.9201 39.3147 42.9305C39.4416 42.9729 39.6849 43.1687 39.8811 43.3266L39.8811 43.3266L39.883 43.3281C40.3815 43.7295 41.0019 44.2289 41.8522 44.2289C42.7025 44.2289 43.3229 43.7295 43.8215 43.3281L43.8234 43.3266C44.0195 43.1687 44.2629 42.9729 44.3893 42.9309C44.421 42.9205 44.502 42.903 44.6914 42.903C44.812 42.903 44.9455 42.9096 45.0869 42.9167C45.195 42.9222 45.3064 42.9267 45.4194 42.9297L45.4199 52.5415ZM47.7646 22.3709C47.7646 21.7826 48.2444 21.3028 48.8327 21.3028C49.4214 21.3028 49.9007 21.7826 49.9007 22.3709C49.9007 22.9592 49.4214 23.439 48.8327 23.439C48.2444 23.439 47.7646 22.9592 47.7646 22.3709Z" fill="#7F94A8"/>
<circle cx="13.5" cy="20.0479" r="12.5" stroke="#7F94A8" stroke-width="2"/>
<path fill-rule="evenodd" clip-rule="evenodd" d="M7.78498 11.1299L8.90227 11.4476C13.4926 12.7529 16.1486 15.101 17.4486 17.8727C18.7314 20.6075 18.8374 22.6487 18.2263 25.1183C17.8812 26.5129 16.1661 28.3487 14.8451 28.7861C15.183 28.1557 15.5122 27.4003 15.7835 26.5649C12.101 25.5697 9.93237 23.1267 8.75822 20.4356C7.49525 17.5409 7.37076 14.3532 7.63692 12.282L7.78498 11.1299ZM16.4364 21.2471C16.3135 20.7955 15.841 19.1549 15.6379 18.722C14.7308 16.7881 12.9156 14.9531 9.52783 13.7454C9.47589 15.466 9.72617 17.6529 10.5913 19.6358C11.5034 21.7261 13.0886 23.5835 15.7786 24.4757C15.6379 22.9917 14.1265 20.1413 12.1852 17.8727C13.2173 18.544 14.4705 19.4287 16.4364 21.2471Z" fill="#7F94A8"/>
</svg>
