<svg width="44" height="44" viewBox="0 0 44 44" fill="none" xmlns="http://www.w3.org/2000/svg">
<path fill-rule="evenodd" clip-rule="evenodd" d="M12.583 12.6414C12.583 12.359 12.5915 12.0818 12.6082 11.8098C12.9669 5.9653 17.1137 2.53864 22.2052 2.53864C27.5336 2.53864 31.7184 6.29166 31.7184 12.6414C31.7184 18.9911 27.5336 25.533 22.2052 25.533C17.1092 25.533 12.9596 19.5495 12.6073 13.473C12.5912 13.1958 12.583 12.9184 12.583 12.6414ZM16.7482 20.5001C15.3609 18.5627 14.4416 16.0276 14.2739 13.4777C15.9204 13.4734 17.953 13.4149 19.8236 13.0475C21.9338 12.6331 24.1156 11.7687 25.1889 9.89726C25.6551 10.3052 26.2247 10.7252 26.8604 11.055C27.7553 11.5193 28.8652 11.8429 30.0118 11.6077C30.0404 11.9408 30.0552 12.2853 30.0552 12.6414C30.0552 15.4759 29.1136 18.3636 27.6005 20.5102C26.0767 22.6721 24.1453 23.8699 22.2052 23.8699C20.2597 23.8699 18.2992 22.6661 16.7482 20.5001ZM27.7772 6.37814C28.6633 7.2745 29.3597 8.46883 29.7388 9.96321C29.0643 10.121 28.3469 9.95255 27.6263 9.5787C26.7037 9.10007 25.9207 8.35064 25.5266 7.88311C25.3251 7.64407 25.0066 7.53822 24.7021 7.60914C24.3976 7.68006 24.1586 7.91576 24.0835 8.21923C23.6481 9.97832 21.9363 10.9377 19.5031 11.4155C17.7739 11.7551 15.8834 11.8096 14.2746 11.8139C14.4405 9.43915 15.3206 7.63087 16.5694 6.38744C17.9667 4.99622 19.9358 4.20179 22.2052 4.20179C24.4724 4.20179 26.4092 4.9944 27.7772 6.37814ZM28.0023 27.0304C29.0977 25.7108 30.3226 25.3899 31.0891 25.6072C34.8139 26.4381 37.0239 29.3212 38.3553 32.11C39.4431 34.3886 40.0082 36.7504 40.3261 38.079L40.3262 38.0793C40.3972 38.3762 40.4559 38.6215 40.5053 38.8027C40.6544 39.3494 40.6653 39.863 40.522 40.3269C40.3775 40.7949 40.0964 41.1465 39.7726 41.3969C39.1574 41.8727 38.3748 42 37.8683 42H26.3722H18.159H6.59994C5.37056 42 4.42559 41.7031 3.86547 41.0114C3.30874 40.324 3.32604 39.4837 3.44024 38.8695C5.5345 27.6042 11.2027 25.5812 12.8736 25.5812L12.9336 25.5811C13.3425 25.5806 13.7806 25.58 14.2623 25.7998C14.7178 26.0077 15.1673 26.3906 15.7728 26.9515C16.9813 28.0711 18.5319 28.4325 20.2388 28.5398C20.9439 28.5841 21.6518 28.5841 22.3624 28.5841H22.3625H22.3723C23.0556 28.5841 23.7485 28.5523 24.413 28.4735C26.0702 28.277 27.3548 27.8102 28.0023 27.0304ZM29.2819 28.0927C29.9949 27.2339 30.5314 27.2137 30.6235 27.2102C30.6396 27.2096 30.6421 27.2095 30.6294 27.2054C30.6534 27.2131 30.6778 27.2196 30.7024 27.225C33.7129 27.8863 35.6129 30.226 36.8544 32.8265C37.8545 34.9215 38.3649 37.0431 38.6903 38.3956L38.6903 38.3957C38.7701 38.7274 38.8387 39.0128 38.9008 39.2403C38.9859 39.5524 38.9637 39.7366 38.9329 39.8362C38.9034 39.9318 38.8478 40.0096 38.7552 40.0813C38.5377 40.2495 38.1686 40.3369 37.8684 40.3369H27.0259L25.3751 33.5446L26.3861 32.8312C26.7197 32.5958 26.8331 32.153 26.6536 31.7863L25.7505 29.9406C27.1182 29.6536 28.437 29.1105 29.2819 28.0927ZM23.9141 34.5755L25.3143 40.3369H19.2284L20.7034 34.534L21.9116 35.3379C22.1976 35.5282 22.5711 35.5231 22.8518 35.3251L23.9141 34.5755ZM19.2356 33.5572L17.5124 40.3369H6.59994C5.57846 40.3369 5.25491 40.0845 5.15796 39.9647C5.0576 39.8408 4.99467 39.6076 5.07538 39.1735C7.07743 28.4041 12.268 27.2444 12.8736 27.2444C13.3581 27.2444 13.4478 27.2563 13.5718 27.3129C13.7456 27.3922 14.0079 27.5837 14.6425 28.1716C15.8964 29.3332 17.3823 29.8399 18.8429 30.0644L17.8995 31.7446C17.6865 32.1239 17.8018 32.6031 18.1639 32.8441L19.2356 33.5572ZM19.7272 31.8866L20.6598 30.2257C21.2377 30.2473 21.8055 30.2473 22.34 30.2473H22.3723C22.9116 30.2473 23.4661 30.2288 24.018 30.1839L24.8483 31.8808L23.954 32.5118L22.3585 33.6376L20.6474 32.4989L19.7272 31.8866Z" fill="url(#paint0_linear_1950_695)"/>
<defs>
<linearGradient id="paint0_linear_1950_695" x1="11.0583" y1="42" x2="44.0476" y2="32.2547" gradientUnits="userSpaceOnUse">
<stop stop-color="#FE5000"/>
<stop offset="1" stop-color="#FCA92A"/>
</linearGradient>
</defs>
</svg>
