<svg width="44" height="44" viewBox="0 0 44 44" fill="none" xmlns="http://www.w3.org/2000/svg">
<path fill-rule="evenodd" clip-rule="evenodd" d="M28.346 20.9094C28.346 25.2916 27.6377 28.7709 26.2211 31.3471C24.8307 33.8967 22.6665 35.1715 19.7283 35.1715C16.7639 35.1715 14.5603 33.8834 13.1175 31.3072C11.6746 28.731 10.9532 25.2651 10.9532 20.9094C10.9532 16.5538 11.6615 13.0878 13.0781 10.5116C14.5209 7.93541 16.7114 6.6473 19.6496 6.6473C22.5878 6.6473 24.7652 7.93541 26.1818 10.5116C27.6246 13.0878 28.346 16.5538 28.346 20.9094ZM19.7283 33.2195C24.0306 33.2195 26.1818 29.1161 26.1818 20.9094C26.1818 12.7027 24.0044 8.59938 19.6496 8.59938C15.2948 8.59938 13.1175 12.7027 13.1175 20.9094C13.1175 29.1161 15.3211 33.2195 19.7283 33.2195ZM40.8573 21.7073C41.0563 21.4467 41.429 21.3967 41.6897 21.5957C41.9503 21.7947 42.0003 22.1673 41.8013 22.428L32.4327 34.6995C32.2337 34.9602 31.8611 35.0102 31.6004 34.8112C31.3397 34.6122 31.2897 34.2395 31.4887 33.9789L40.8573 21.7073ZM34.246 24.6473C34.246 25.6555 33.4287 26.4728 32.4205 26.4728C31.4123 26.4728 30.595 25.6555 30.595 24.6473C30.595 23.6392 31.4123 22.8219 32.4205 22.8219C33.4287 22.8219 34.246 23.6392 34.246 24.6473ZM35.6864 24.6473C35.6864 26.4511 34.2242 27.9133 32.4205 27.9133C30.6168 27.9133 29.1546 26.4511 29.1546 24.6473C29.1546 22.8436 30.6168 21.3814 32.4205 21.3814C34.2242 21.3814 35.6864 22.8436 35.6864 24.6473ZM40.7338 33.5983C41.742 33.5983 42.5593 32.781 42.5593 31.7728C42.5593 30.7646 41.742 29.9473 40.7338 29.9473C39.7256 29.9473 38.9083 30.7646 38.9083 31.7728C38.9083 32.781 39.7256 33.5983 40.7338 33.5983ZM40.7338 35.0387C42.5375 35.0387 43.9997 33.5765 43.9997 31.7728C43.9997 29.9691 42.5375 28.5069 40.7338 28.5069C38.9301 28.5069 37.4679 29.9691 37.4679 31.7728C37.4679 33.5765 38.9301 35.0387 40.7338 35.0387ZM0.0461239 32.5866C0.0461239 33.3273 0.288124 33.9469 0.772124 34.4456C1.27079 34.9296 1.90879 35.1716 2.68612 35.1716C3.47079 35.1716 4.10512 34.9296 4.58912 34.4456C5.08046 33.9543 5.32612 33.3346 5.32612 32.5866C5.32612 31.8386 5.08046 31.2226 4.58912 30.7386C4.10512 30.2473 3.47079 30.0016 2.68612 30.0016C1.90146 30.0016 1.26346 30.2473 0.772124 30.7386C0.288124 31.2226 0.0461239 31.8386 0.0461239 32.5866ZM0.981124 32.5866C0.981124 32.0659 1.14246 31.6443 1.46512 31.3216C1.78046 30.9916 2.18746 30.8266 2.68612 30.8266C3.18479 30.8266 3.59179 30.9916 3.90712 31.3216C4.22979 31.6589 4.39112 32.0806 4.39112 32.5866C4.39112 33.1073 4.22979 33.5326 3.90712 33.8626C3.59179 34.1853 3.18479 34.3466 2.68612 34.3466C2.18746 34.3466 1.77679 34.1816 1.45412 33.8516C1.13879 33.5289 0.981124 33.1073 0.981124 32.5866ZM5.77549 30.9916H7.59049V35.0616H8.47049V30.9916H10.2855V30.1116H5.77549V30.9916Z" fill="url(#paint0_linear_1950_700)"/>
<defs>
<linearGradient id="paint0_linear_1950_700" x1="9.11133" y1="35.1716" x2="43.4508" y2="18.6112" gradientUnits="userSpaceOnUse">
<stop stop-color="#FE5000"/>
<stop offset="1" stop-color="#FCA92A"/>
</linearGradient>
</defs>
</svg>
