<svg width="44" height="44" viewBox="0 0 44 44" fill="none" xmlns="http://www.w3.org/2000/svg">
<path fill-rule="evenodd" clip-rule="evenodd" d="M23.2318 5.84615C23.2318 5.17981 22.6866 4.63462 22.0202 4.63462C21.3539 4.63462 20.8087 5.17981 20.8087 5.84615C20.8087 6.5125 21.3539 7.05769 22.0202 7.05769C22.6866 7.05769 23.2318 6.5125 23.2318 5.84615ZM34.9231 7.46154C36.7101 7.46154 38.1539 8.90529 38.1539 10.6923V39.7692C38.1539 41.5563 36.7101 43 34.9231 43H9.07696C7.28994 43 5.84619 41.5563 5.84619 39.7692V10.6923C5.84619 8.90529 7.28994 7.46154 9.07696 7.46154H13.5597C14.1654 6.79519 14.9327 6.29038 15.8111 6.03798C16.5582 5.81587 17.1337 5.25048 17.3457 4.50337C17.9212 2.48413 19.789 1 22 1C24.2111 1 26.0789 2.48413 26.6544 4.50337C26.8765 5.25048 27.4419 5.82596 28.189 6.03798C29.0774 6.29038 29.8447 6.79519 30.4404 7.46154H34.9231ZM16.2553 7.58269C14.8923 7.97644 13.9332 9.23846 13.9231 10.662V12.3077H30.077V10.6923C30.077 9.25865 29.1178 7.98654 27.7447 7.58269C26.4625 7.21923 25.4832 6.22981 25.1097 4.9476C24.7058 3.57452 23.4337 2.61538 22 2.61538C20.5664 2.61538 19.2943 3.57452 18.8904 4.9476C18.527 6.22981 17.5375 7.20913 16.2553 7.58269ZM7.46158 39.7692C7.46158 40.6577 8.1885 41.3846 9.07696 41.3846H34.9231C35.8116 41.3846 36.5385 40.6577 36.5385 39.7692V10.6923C36.5385 9.80385 35.8116 9.07692 34.9231 9.07692H31.4097C31.5914 9.58173 31.6923 10.1269 31.6923 10.6923V13.9231H12.3077V10.6519C12.3077 10.0966 12.4087 9.57163 12.5803 9.07692H9.07696C8.1885 9.07692 7.46158 9.80385 7.46158 10.6923V39.7692ZM21.2421 19.4077L21.2765 19.3087L21.4253 18.8807L21.5492 18.5242C21.6978 18.0968 22.3023 18.0968 22.4508 18.5242L22.5747 18.8807L22.7235 19.3087L22.7579 19.4077L24.1352 23.37C24.2008 23.5586 24.3767 23.6865 24.5763 23.6905L28.7703 23.776L28.8752 23.7781L29.3282 23.7874L29.7055 23.795C30.1579 23.8043 30.3447 24.3792 29.9841 24.6525L29.6834 24.8805L29.3223 25.1543L29.2388 25.2176L25.896 27.752C25.7369 27.8726 25.6697 28.0794 25.7275 28.2705L26.9422 32.2856L26.9726 32.386L27.1038 32.8197L27.2131 33.1809C27.3441 33.6141 26.8551 33.9694 26.4837 33.7109L26.1739 33.4953L25.802 33.2365L25.7159 33.1766L22.2726 30.7806C22.1088 30.6666 21.8913 30.6666 21.7274 30.7806L18.2841 33.1766L18.1981 33.2365L17.8261 33.4953L17.5164 33.7109C17.1449 33.9694 16.6559 33.6141 16.7869 33.1809L16.8962 32.8197L17.0274 32.386L17.0578 32.2856L18.2725 28.2705C18.3303 28.0794 18.2631 27.8726 18.104 27.752L14.7613 25.2176L14.6777 25.1543L14.3166 24.8805L14.0159 24.6525C13.6553 24.3792 13.8421 23.8043 14.2945 23.795L14.6718 23.7874L15.1248 23.7781L15.2297 23.776L19.4237 23.6905C19.6233 23.6865 19.7992 23.5586 19.8648 23.37L21.2421 19.4077ZM21.2172 23.8402L22 21.5882L22.7828 23.8402C23.045 24.5944 23.7488 25.1058 24.5472 25.122L26.9308 25.1706L25.0309 26.611C24.3946 27.0934 24.1258 27.9208 24.357 28.6851L25.0474 30.9671L23.0904 29.6053C22.435 29.1493 21.565 29.1493 20.9096 29.6053L18.9526 30.9671L19.643 28.6851C19.8742 27.9208 19.6054 27.0934 18.9691 26.611L17.0692 25.1706L19.4529 25.122C20.2512 25.1058 20.9551 24.5944 21.2172 23.8402Z" fill="url(#paint0_linear_1950_710)"/>
<defs>
<linearGradient id="paint0_linear_1950_710" x1="12.5097" y1="43" x2="41.9165" y2="35.9205" gradientUnits="userSpaceOnUse">
<stop stop-color="#FE5000"/>
<stop offset="1" stop-color="#FCA92A"/>
</linearGradient>
</defs>
</svg>
