<svg width="44" height="44" viewBox="0 0 44 44" fill="none" xmlns="http://www.w3.org/2000/svg">
<path d="M36.9 9.39999H7.1C4.9 9.39999 3.2 11.2 3.2 13.3V30.6C3.2 32.8 5 34.5 7.1 34.5H37C39.2 34.5 40.9 32.7 40.9 30.6V13.4C40.9 11.2 39.1 9.39999 36.9 9.39999ZM39.3 30.6C39.3 31.9 38.2 33 36.9 33H7.1C5.8 33 4.7 31.9 4.7 30.6V13.4C4.7 12.1 5.8 11 7.1 11H37C38.3 11 39.4 12.1 39.4 13.4L39.3 30.6ZM40.1 14.1H3.9C3.5 14.1 3.19922 14.6 3.19922 15V19.7C3.19922 20.1 3.5 20.4 3.9 20.4H40C40.4 20.4 40.9 19.9798 40.9 19.5798L40.8 14.9C40.9 14.5 40.5 14.1 40.1 14.1ZM39.3 18.9H4.7V15.8H39.3V18.9ZM18.1 25.1H8.6C8.2 25.1 7.8 25.5 7.8 25.9C7.8 26.3 8.2 26.7 8.6 26.7H18C18.4 26.7 18.8 26.3 18.8 25.9C18.8 25.5 18.5 25.1 18.1 25.1ZM18.1 28.3H8.6C8.2 28.3 7.8 28.7 7.8 29.1C7.8 29.5 8.2 29.9 8.6 29.9H18C18.4 29.9 18.8 29.5 18.8 29.1C18.9 28.6 18.5 28.3 18.1 28.3ZM33.8 23.6H32.2C30.9 23.6 29.8 24.7 29.8 26V27.6C29.8 28.9 30.9 30 32.2 30H33.8C35.1 30 36.2 28.9 36.2 27.6V26C36.1 24.6 35.1 23.6 33.8 23.6ZM34.6 27.5C34.6 27.9 34.2 28.3 33.8 28.3H32.2C31.8 28.3 31.4 27.9 31.4 27.5V25.9C31.4 25.5 31.8 25.1 32.2 25.1H33.8C34.2 25.1 34.6 25.5 34.6 25.9V27.5Z" fill="url(#paint0_linear_1950_708)"/>
<defs>
<linearGradient id="paint0_linear_1950_708" x1="10.975" y1="34.5" x2="40.709" y2="20.5225" gradientUnits="userSpaceOnUse">
<stop stop-color="#FE5000"/>
<stop offset="1" stop-color="#FCA92A"/>
</linearGradient>
</defs>
</svg>
