<svg width="44" height="44" viewBox="0 0 44 44" fill="none" xmlns="http://www.w3.org/2000/svg">
<path fill-rule="evenodd" clip-rule="evenodd" d="M35.1998 6H8.7998C6.8998 6 5.2998 7.6 5.2998 9.5V33.1C5.2998 35 6.8998 36.6 8.7998 36.6H22.3196C24.1128 39.821 27.5519 42 31.5 42C37.299 42 42 37.299 42 31.5C42 28.4869 40.7308 25.7701 38.6979 23.8553C38.6992 23.8371 38.6998 23.8187 38.6998 23.8V9.5C38.6998 7.6 37.0998 6 35.1998 6ZM21 31.5C21 32.8023 21.2371 34.0492 21.6705 35.2H8.7998C7.6998 35.2 6.6998 34.3 6.6998 33.1V12.9H37.2998V22.7458C35.638 21.6426 33.6441 21 31.5 21C25.701 21 21 25.701 21 31.5ZM37.2998 11.6H6.6998V9.5C6.6998 8.4 7.5998 7.4 8.7998 7.4H35.1998C36.2998 7.4 37.2998 8.3 37.2998 9.5V11.6ZM8.7998 10.2C9.1998 10.2 9.4998 9.9 9.4998 9.5C9.4998 9.1 9.1998 8.8 8.7998 8.8C8.3998 8.8 8.0998 9.1 8.0998 9.5C8.0998 9.9 8.3998 10.2 8.7998 10.2ZM11.5998 10.2C11.9998 10.2 12.2998 9.9 12.2998 9.5C12.2998 9.1 11.9998 8.8 11.5998 8.8C11.1998 8.8 10.8998 9.1 10.8998 9.5C10.8998 9.9 11.1998 10.2 11.5998 10.2ZM14.3998 10.2C14.7998 10.2 15.0998 9.9 15.0998 9.5C15.0998 9.1 14.7998 8.8 14.3998 8.8C13.9998 8.8 13.6998 9.1 13.6998 9.5C13.6998 9.9 13.9998 10.2 14.3998 10.2ZM31.5 40.5C36.4706 40.5 40.5 36.4706 40.5 31.5C40.5 26.5294 36.4706 22.5 31.5 22.5C26.5294 22.5 22.5 26.5294 22.5 31.5C22.5 36.4706 26.5294 40.5 31.5 40.5ZM36.8563 28.7148C37.1186 28.4185 37.0911 27.9657 36.7948 27.7034C36.4985 27.441 36.0456 27.4686 35.7833 27.7649L30.7547 33.4449L27.8087 30.6959C27.5193 30.4259 27.0659 30.4416 26.7959 30.7309C26.5259 31.0203 26.5416 31.4737 26.831 31.7437L30.3148 34.9945C30.4562 35.1264 30.6448 35.1956 30.8378 35.1864C31.0309 35.1771 31.2121 35.0903 31.3402 34.9456L36.8563 28.7148Z" fill="url(#paint0_linear_1950_714)"/>
<defs>
<linearGradient id="paint0_linear_1950_714" x1="5.2998" y1="42" x2="41.2931" y2="5.30661" gradientUnits="userSpaceOnUse">
<stop stop-color="#FE5000"/>
<stop offset="1" stop-color="#FE9800"/>
</linearGradient>
</defs>
</svg>
