<svg width="44" height="44" viewBox="0 0 44 44" fill="none" xmlns="http://www.w3.org/2000/svg">
<path fill-rule="evenodd" clip-rule="evenodd" d="M6.1497 31.7595C5.95571 31.818 5.74574 31.7873 5.57659 31.6757L0.630628 28.4133C0.315858 28.2057 0.229001 27.7822 0.436626 27.4675C0.64425 27.1527 1.06773 27.0658 1.3825 27.2735L4.75924 29.5008C3.85779 27.2961 3.36111 24.8834 3.36111 22.3561C3.36111 11.9236 11.8183 3.46643 22.2508 3.46643C25.6903 3.46643 28.917 4.38632 31.6961 5.99395C32.0225 6.18276 32.134 6.60042 31.9452 6.92682C31.7564 7.25322 31.3387 7.36476 31.0123 7.17595C28.4355 5.68531 25.4438 4.83195 22.2508 4.83195C12.5725 4.83195 4.72663 12.6778 4.72663 22.3561C4.72663 24.7433 5.20361 27.0177 6.06707 29.0903L7.64116 25.3856C7.78862 25.0386 8.1895 24.8768 8.53655 25.0242C8.8836 25.1717 9.0454 25.5726 8.89794 25.9196L6.58092 31.3728C6.50168 31.5593 6.3437 31.701 6.1497 31.7595ZM38.1009 12.6004C38.2949 12.5419 38.5049 12.5725 38.674 12.6841L43.62 15.9465C43.9348 16.1541 44.0216 16.5776 43.814 16.8924C43.6064 17.2071 43.1829 17.294 42.8681 17.0864L39.4914 14.859C40.3928 17.0638 40.8895 19.4765 40.8895 22.0038C40.8895 32.4362 32.4323 40.8934 21.9999 40.8934C18.5604 40.8934 15.3336 39.9735 12.5545 38.3659C12.2281 38.1771 12.1166 37.7594 12.3054 37.433C12.4942 37.1066 12.9119 36.9951 13.2383 37.1839C15.8152 38.6745 18.8068 39.5279 21.9999 39.5279C31.6782 39.5279 39.524 31.6821 39.524 22.0038C39.524 19.6165 39.047 17.3421 38.1836 15.2695L36.6095 18.9742C36.462 19.3213 36.0611 19.4831 35.7141 19.3356C35.367 19.1882 35.2052 18.7873 35.3527 18.4402L37.6697 12.987C37.7489 12.8005 37.9069 12.6589 38.1009 12.6004Z" fill="url(#paint0_linear_1950_727)"/>
<path d="M23.6364 16.4189V15.0176C23.6364 12.3275 13 12.3275 13 15.0176V23.2137C13 24.2712 14.6554 24.9305 16.6469 25.1649C15.9185 25.4915 15.4545 25.9328 15.4545 26.4922V28.951C15.4545 30.2961 18.13 31 20.7727 31C23.4155 31 26.0909 30.296 26.0909 28.951V27.7148C28.5936 27.646 31 26.9482 31 25.6726V18.2961C31 16.5978 26.7622 15.9729 23.6364 16.4189ZM18.3182 13.8182C21.2298 13.8182 22.8182 14.6288 22.8182 15.0455C22.8182 15.4621 21.2297 16.2727 18.3182 16.2727C15.4066 16.2727 13.8182 15.4621 13.8182 15.0455C13.8182 14.6288 15.4066 13.8182 18.3182 13.8182ZM13.8182 16.1839C14.8108 16.7813 16.5692 17.0909 18.3182 17.0909C20.0671 17.0909 21.8255 16.7813 22.8182 16.1839V16.5904C21.3965 16.9057 20.3636 17.4815 20.3636 18.3182V18.5602C19.7225 18.6631 19.0304 18.7273 18.3182 18.7273C15.4066 18.7273 13.8182 17.9167 13.8182 17.5V16.1839H13.8182ZM21.1818 24.3657C21.2597 24.4125 21.3407 24.458 21.4276 24.5013C21.3457 24.4979 21.264 24.4945 21.1818 24.4924V24.3657ZM13.8182 18.6384C14.8108 19.2359 16.5692 19.5455 18.3182 19.5455C19.0263 19.5455 19.7146 19.4819 20.3636 19.3849V21.4239C19.7225 21.5268 19.0304 21.5909 18.3182 21.5909C15.4066 21.5909 13.8182 20.7803 13.8182 20.3636V18.6384ZM13.8182 23.2273V21.5021C14.8108 22.0995 16.5692 22.4091 18.3182 22.4091C19.0263 22.4091 19.7146 22.3455 20.3636 22.2486V24.2875C19.7225 24.3904 19.0304 24.4546 18.3182 24.4546C15.4066 24.4546 13.8182 23.644 13.8182 23.2273ZM25.2727 28.9546C25.2727 29.3713 23.6843 30.1818 20.7727 30.1818C17.8612 30.1818 16.2727 29.3713 16.2727 28.9546V27.6384C17.2654 28.2358 19.0237 28.5455 20.7727 28.5455C22.4469 28.5455 24.1319 28.2625 25.1437 27.7144C25.1862 27.716 25.23 27.7162 25.2727 27.7175V28.9546H25.2727ZM20.7727 27.7273C17.8612 27.7273 16.2728 26.9167 16.2728 26.5C16.2728 26.0833 17.8612 25.2727 20.7727 25.2727C23.6843 25.2727 25.2727 26.0833 25.2727 26.5C25.2727 26.9167 23.6843 27.7273 20.7727 27.7273ZM30.1818 25.6818C30.1818 26.0778 28.7323 26.8212 26.0909 26.8949V26.5C26.0909 25.9889 25.7041 25.5758 25.0802 25.2592C25.2802 25.2673 25.4809 25.2727 25.6818 25.2727C27.4308 25.2727 29.1891 24.9631 30.1818 24.3657V25.6818H30.1818ZM30.1818 23.2273C30.1818 23.644 28.5934 24.4546 25.6818 24.4546C22.7703 24.4546 21.1818 23.644 21.1818 23.2273V21.9111C22.1745 22.5086 23.9329 22.8182 25.6818 22.8182C27.4308 22.8182 29.1892 22.5086 30.1818 21.9111V23.2273ZM30.1818 20.7728C30.1818 21.1894 28.5934 22 25.6818 22C22.7703 22 21.1818 21.1894 21.1818 20.7728V19.4566C22.1745 20.054 23.9329 20.3636 25.6818 20.3636C27.4308 20.3636 29.1892 20.054 30.1818 19.4566V20.7728ZM25.6818 19.5455C22.7702 19.5455 21.1818 18.7349 21.1818 18.3182C21.1818 17.9015 22.7703 17.0909 25.6818 17.0909C28.5934 17.0909 30.1818 17.9015 30.1818 18.3182C30.1818 18.7349 28.5934 19.5455 25.6818 19.5455Z" fill="url(#paint1_linear_1950_727)"/>
<defs>
<linearGradient id="paint0_linear_1950_727" x1="9.31693" y1="40.8935" x2="46.3785" y2="27.3803" gradientUnits="userSpaceOnUse">
<stop stop-color="#FE5000"/>
<stop offset="1" stop-color="#FCA92A"/>
</linearGradient>
<linearGradient id="paint1_linear_1950_727" x1="16.7125" y1="31" x2="32.4996" y2="26.0592" gradientUnits="userSpaceOnUse">
<stop stop-color="#FE5000"/>
<stop offset="1" stop-color="#FCA92A"/>
</linearGradient>
</defs>
</svg>
