<svg width="44" height="44" viewBox="0 0 44 44" fill="none" xmlns="http://www.w3.org/2000/svg">
<path d="M33.5731 19.9L27.5998 12.4333V6.45998C27.5998 4.73331 26.1998 3.33331 24.4731 3.33331H12.0598C10.3331 3.33331 8.93311 4.73331 8.93311 6.45998V28.86C8.93311 30.5866 10.3331 31.9866 12.0598 31.9866H17.6598V33.62C17.6598 37.54 20.8331 40.7133 24.7531 40.7133H34.4598C34.7864 40.7133 35.0664 40.4333 35.0664 40.1066V24.24C35.0664 22.6533 34.5531 21.1133 33.5731 19.9ZM24.4731 4.59331C25.4998 4.59331 26.3398 5.43331 26.3398 6.45998V22.7933L23.8664 20.1333V4.59331H24.4731ZM22.6064 18.78L21.5331 17.66C21.2998 17.4266 21.0198 17.1933 20.7398 17.0533V4.59331H22.6064V18.78ZM10.1931 28.86V6.45998C10.1931 5.43331 11.0331 4.59331 12.0598 4.59331H19.5264V16.7733C18.7798 16.7733 18.0331 17.0533 17.5198 17.5666L17.4731 17.6133C16.3998 18.6866 16.3531 20.3666 17.2864 21.4866L19.5264 24.1466V30.7266H12.0598C11.0331 30.7266 10.1931 29.8866 10.1931 28.86ZM22.6998 30.7266H20.7864V25.64L22.6531 27.8333V29.7466C22.6064 30.0733 22.6531 30.4 22.6998 30.7266ZM33.8064 39.4066H24.7064C21.4864 39.4066 18.8731 36.7933 18.8731 33.5733V31.94H22.9331C23.6331 34.46 25.4998 36.56 28.0198 37.4933L28.4398 36.3266C25.6864 35.3 23.8664 32.64 23.8664 29.7466V27.6C23.8664 27.46 23.8198 27.32 23.7264 27.18L18.2198 20.6933C17.6598 20.04 17.7064 19.1066 18.3598 18.4533C18.6864 18.1733 19.1064 17.9866 19.5264 17.9866C19.9464 17.9866 20.3664 18.1733 20.6464 18.5L28.9998 27.3666L29.8864 26.5266L27.5531 24.0533V14.44L32.5464 20.6933C33.3398 21.6733 33.7598 22.9333 33.7598 24.1933V39.4066H33.8064ZM13.2731 14.5333H12.0131V6.45998H13.2731V14.5333ZM16.3998 11.4066H15.1398V6.45998H16.3998V11.4066ZM16.3998 23.8666H12.6664C12.3398 23.8666 12.0598 24.1466 12.0598 24.4733V28.2066C12.0598 28.5333 12.3398 28.8133 12.6664 28.8133H16.3998C16.7264 28.8133 17.0064 28.5333 17.0064 28.2066V24.4733C17.0064 24.1466 16.7264 23.8666 16.3998 23.8666ZM15.7931 27.6H13.3198V25.1266H15.7931V27.6Z" fill="url(#paint0_linear_1950_722)"/>
<defs>
<linearGradient id="paint0_linear_1950_722" x1="14.3231" y1="40.7133" x2="38.3389" y2="35.4586" gradientUnits="userSpaceOnUse">
<stop stop-color="#FE5000"/>
<stop offset="1" stop-color="#FCA92A"/>
</linearGradient>
</defs>
</svg>
