<svg width="119" height="35" viewBox="0 0 119 35" fill="none" xmlns="http://www.w3.org/2000/svg">
<g clip-path="url(#clip0_2077_452)">
<path d="M113.75 35H4.375C1.925 35 0 33.075 0 30.625V4.375C0 1.925 1.925 0 4.375 0H113.75C116.2 0 118.125 1.925 118.125 4.375V30.625C118.125 33.075 116.2 35 113.75 35Z" fill="#373A36"/>
<path fill-rule="evenodd" clip-rule="evenodd" d="M14.958 7.15002C10.7053 7.15002 9.1499 8.70519 9.1499 12.957V22.0431C9.1499 26.2949 10.7053 27.85 14.958 27.85H24.0391C28.2916 27.85 29.8499 26.2949 29.8499 22.0431V12.957C29.8499 8.70519 28.2945 7.15002 24.0418 7.15002H14.958Z" fill="white"/>
<path fill-rule="evenodd" clip-rule="evenodd" d="M18.1792 19.1556H19.0102L18.5933 18.186L18.1792 19.1556ZM17.9746 19.6442L17.728 20.2084H17.1667L18.3604 17.5002H18.8455L20.0344 20.2084H19.4581L19.2147 19.6442H17.9746ZM27.0074 20.2064H27.55V17.5H27.0074V20.2064ZM24.8481 19.0438H25.8481V18.5503H24.8481V17.9956H26.2998V17.502H24.3057V20.2082H26.3521V19.7146H24.8481V19.0438ZM22.6924 19.3635L22.0773 17.5H21.6284L21.0134 19.3635L20.4147 17.5015H19.8295L20.7741 20.2099H21.2291L21.8452 18.4309L22.4613 20.2099H22.9203L23.8625 17.5015H23.2923L22.6924 19.3635ZM16.3385 19.0513C16.3385 19.4918 16.1197 19.7272 15.7224 19.7272C15.3229 19.7272 15.103 19.485 15.103 19.0325V17.5018H14.5531V19.0513C14.5531 19.8134 14.9767 20.2505 15.7149 20.2505C16.4604 20.2505 16.8878 19.8051 16.8878 19.0286V17.5002H16.3385V19.0513ZM13.2413 17.5002H13.7908V20.21H13.2413V19.1095H11.9998V20.21H11.45V17.5002H11.9998V18.5932H13.2413V17.5002Z" fill="#373A36"/>
<path fill-rule="evenodd" clip-rule="evenodd" d="M19.4998 14.05C17.5973 14.05 16.0498 12.5023 16.0498 10.6H16.5371C16.5371 12.2335 17.8663 13.5625 19.4998 13.5625C21.1333 13.5625 22.4625 12.2335 22.4625 10.6H22.9498C22.9498 12.5023 21.4022 14.05 19.4998 14.05Z" fill="#373A36"/>
<path d="M39 25.3134L42.5034 16.1536H43.8321L47.5503 25.3134H46.1748L45.1182 22.5373H41.2726L40.2819 25.3134H39ZM41.6276 21.5523H44.7399L43.7875 19.0128C43.5005 18.2409 43.2836 17.6034 43.1327 17.1002C43.0073 17.6972 42.8393 18.2836 42.6288 18.8635L41.6276 21.5523ZM48.3687 27.8593V18.6738H49.3891V19.5459C49.6294 19.209 49.9015 18.9552 50.2055 18.7868C50.5074 18.6183 50.8751 18.5331 51.3067 18.5331C51.8722 18.5331 52.3696 18.6781 52.8012 18.9701C53.2328 19.2601 53.558 19.6717 53.779 20.2004C53.998 20.7313 54.1086 21.3113 54.1086 21.9445C54.1086 22.6205 53.9874 23.2303 53.745 23.774C53.5027 24.3156 53.1498 24.7313 52.6863 25.0213C52.2251 25.3091 51.7382 25.4541 51.228 25.4541C50.8539 25.4541 50.518 25.3753 50.2225 25.2175C49.9249 25.0597 49.6825 24.8614 49.4912 24.6204V27.8593H48.3687ZM49.3891 22.0341C49.3891 22.8848 49.5613 23.5139 49.9036 23.9211C50.248 24.3283 50.6647 24.533 51.1536 24.533C51.651 24.533 52.0763 24.3219 52.4291 23.8997C52.7841 23.4776 52.9606 22.8252 52.9606 21.9403C52.9606 21.096 52.7884 20.4648 52.4419 20.0448C52.0954 19.6248 51.683 19.4158 51.2025 19.4158C50.7264 19.4158 50.3054 19.6397 49.9398 20.0853C49.5719 20.5331 49.3891 21.1813 49.3891 22.0341ZM55.4628 27.8593V18.6738H56.4832V19.5459C56.7234 19.209 56.9955 18.9552 57.2996 18.7868C57.6014 18.6183 57.9692 18.5331 58.4007 18.5331C58.9662 18.5331 59.4636 18.6781 59.8952 18.9701C60.3268 19.2601 60.652 19.6717 60.8731 20.2004C61.0921 20.7313 61.2026 21.3113 61.2026 21.9445C61.2026 22.6205 61.0814 23.2303 60.8391 23.774C60.5967 24.3156 60.2439 24.7313 59.7804 25.0213C59.3191 25.3091 58.8322 25.4541 58.322 25.4541C57.9479 25.4541 57.612 25.3753 57.3165 25.2175C57.0189 25.0597 56.7765 24.8614 56.5852 24.6204V27.8593H55.4628ZM56.4832 22.0341C56.4832 22.8848 56.6553 23.5139 56.9977 23.9211C57.342 24.3283 57.7587 24.533 58.2477 24.533C58.7451 24.533 59.1703 24.3219 59.5232 23.8997C59.8782 23.4776 60.0547 22.8252 60.0547 21.9403C60.0547 21.096 59.8824 20.4648 59.5359 20.0448C59.1894 19.6248 58.777 19.4158 58.2965 19.4158C57.8204 19.4158 57.3994 19.6397 57.0338 20.0853C56.666 20.5331 56.4832 21.1813 56.4832 22.0341ZM66.9701 21.7186V20.6439H70.8353V24.0384C70.2421 24.5117 69.6296 24.8699 68.9985 25.1087C68.3668 25.3475 67.7184 25.4669 67.0552 25.4669C66.158 25.4669 65.3438 25.275 64.6104 24.8891C63.8791 24.5053 63.3242 23.9467 62.9522 23.2196C62.578 22.4904 62.391 21.6759 62.391 20.7782C62.391 19.887 62.576 19.0554 62.948 18.2815C63.32 17.5096 63.8535 16.9361 64.5508 16.5629C65.2481 16.1876 66.0517 16 66.9616 16C67.6206 16 68.218 16.1066 68.7515 16.322C69.2854 16.5374 69.7041 16.8358 70.0055 17.2175C70.3097 17.6013 70.5394 18.1024 70.6966 18.7185L69.6061 19.0171C69.4682 18.5522 69.2978 18.1855 69.0957 17.9168C68.8922 17.6503 68.6026 17.4371 68.2244 17.2772C67.8481 17.1173 67.4292 17.0363 66.968 17.0363C66.4174 17.0363 65.9412 17.1215 65.5373 17.29C65.1355 17.4584 64.8123 17.6802 64.5636 17.9574C64.317 18.2324 64.1257 18.5352 63.9896 18.8635C63.7579 19.4329 63.641 20.0469 63.641 20.7101C63.641 21.5288 63.7813 22.2132 64.0597 22.7655C64.3404 23.3156 64.7485 23.7249 65.2821 23.9915C65.8179 24.2579 66.3855 24.3923 66.9871 24.3923C67.5101 24.3923 68.0203 24.29 68.5177 24.0874C69.015 23.8827 69.3916 23.6674 69.6489 23.4349V21.7186H66.9701ZM76.8022 24.4819C76.3856 24.8379 75.9835 25.0874 75.5993 25.2345C75.2144 25.3817 74.802 25.4541 74.3598 25.4541C73.6329 25.4541 73.0735 25.2772 72.6824 24.9211C72.2913 24.5671 72.0954 24.113 72.0954 23.5608C72.0954 23.2367 72.1699 22.9403 72.3168 22.6717C72.4651 22.403 72.6589 22.1898 72.8969 22.0277C73.1369 21.8657 73.4052 21.742 73.7046 21.6588C73.926 21.6013 74.2598 21.5458 74.704 21.4904C75.6097 21.3838 76.2794 21.2537 76.7064 21.1045C76.7105 20.951 76.7133 20.8529 76.7133 20.8123C76.7133 20.3561 76.6064 20.0341 76.3939 19.8465C76.107 19.5928 75.68 19.467 75.1144 19.467C74.5847 19.467 74.1936 19.5608 73.9432 19.7463C73.6901 19.9318 73.5053 20.2601 73.3839 20.7335L72.2872 20.58C72.3865 20.1088 72.5507 19.727 72.7803 19.4371C73.0093 19.1471 73.3411 18.9254 73.7749 18.7676C74.2067 18.6119 74.7102 18.5331 75.28 18.5331C75.8456 18.5331 76.307 18.5991 76.6622 18.7335C77.0147 18.8678 77.2761 19.0341 77.4423 19.2367C77.6079 19.4393 77.7251 19.6951 77.7927 20.0042C77.8293 20.1961 77.8479 20.5416 77.8479 21.0383V22.5309C77.8479 23.5736 77.8713 24.2324 77.9182 24.5117C77.9631 24.791 78.0562 25.0576 78.1928 25.3134H77.0188C76.9064 25.0768 76.834 24.7996 76.8022 24.4819ZM76.7133 21.9872C76.3049 22.1535 75.6924 22.2943 74.8765 22.4094C74.413 22.4755 74.0853 22.5501 73.8943 22.6333C73.7025 22.7164 73.5563 22.8379 73.4521 22.9958C73.348 23.1556 73.2949 23.3327 73.2949 23.5287C73.2949 23.8252 73.4073 24.0746 73.6349 24.273C73.8619 24.4712 74.1936 24.5714 74.6295 24.5714C75.0613 24.5714 75.4462 24.4776 75.7842 24.2878C76.1201 24.1002 76.3684 23.8422 76.5256 23.516C76.647 23.2622 76.7064 22.8891 76.7064 22.3965L76.7133 21.9872ZM79.5467 25.3134V16.1536H80.6689V25.3134H79.5467ZM82.3802 25.3134V16.1536H83.5031V25.3134H82.3802ZM89.755 23.1642L90.9158 23.3177C90.7351 23.9936 90.3971 24.5202 89.9039 24.8934C89.4108 25.2665 88.7817 25.4541 88.014 25.4541C87.0491 25.4541 86.2835 25.1556 85.7179 24.5586C85.153 23.9637 84.8702 23.1258 84.8702 22.049C84.8702 20.9361 85.1551 20.0704 85.7268 19.4563C86.2986 18.8401 87.0401 18.5331 87.9527 18.5331C88.8348 18.5331 89.5556 18.8337 90.1143 19.4371C90.6737 20.0405 90.9544 20.8891 90.9544 21.9829C90.9544 22.049 90.9524 22.1493 90.9475 22.2814H86.0179C86.0607 23.0086 86.2642 23.5671 86.6346 23.9531C87.0022 24.339 87.4636 24.533 88.014 24.533C88.4244 24.533 88.7748 24.4243 89.0645 24.2068C89.3556 23.9893 89.5853 23.6418 89.755 23.1642ZM86.0814 21.3604H89.7681C89.7191 20.8017 89.5763 20.3838 89.3446 20.1045C88.99 19.6717 88.5265 19.4541 87.9589 19.4541C87.4443 19.4541 87.0125 19.6269 86.6621 19.9723C86.3131 20.3177 86.12 20.7804 86.0814 21.3604ZM92.3208 25.3134V18.6738H93.3285V19.6909C93.5858 19.2196 93.8238 18.9083 94.0431 18.7591C94.2618 18.6076 94.5025 18.5331 94.7639 18.5331C95.1419 18.5331 95.5267 18.6525 95.9178 18.8891L95.5185 19.9275C95.246 19.7739 94.9743 19.6972 94.7018 19.6972C94.4576 19.6972 94.2383 19.7719 94.0452 19.9189C93.8521 20.0662 93.7134 20.2708 93.6306 20.5331C93.5051 20.9318 93.4437 21.3689 93.4437 21.8443V25.3134H92.3208ZM96.5303 27.8657L96.4027 26.8251C96.649 26.8913 96.8621 26.9254 97.0449 26.9254C97.2953 26.9254 97.4953 26.8827 97.6443 26.7995C97.7953 26.7164 97.9188 26.5991 98.014 26.4499C98.0843 26.3369 98.1988 26.0575 98.3561 25.6098C98.3775 25.5479 98.4092 25.4563 98.4561 25.3348L95.9434 18.6738H97.1428L98.5244 22.5074C98.7051 22.9915 98.8644 23.5032 99.0072 24.0405C99.1369 23.5352 99.2893 23.0362 99.468 22.5458L100.88 18.6738H102L99.4983 25.4285C99.2279 26.1556 99.0175 26.6545 98.8665 26.9296C98.6665 27.2985 98.4375 27.5693 98.1802 27.742C97.9209 27.9146 97.6125 28 97.2552 28C97.038 28 96.7959 27.9552 96.5303 27.8657Z" fill="white"/>
<path d="M39 10.5967C39 9.80558 39.2104 9.18561 39.6302 8.73781C40.05 8.29001 40.5915 8.06672 41.2556 8.06672C41.6908 8.06672 42.0821 8.17226 42.4317 8.38225C42.7802 8.59225 43.0466 8.88561 43.2297 9.26223C43.4127 9.6378 43.5048 10.0644 43.5048 10.5411C43.5048 11.0244 43.4083 11.4578 43.2154 11.8389C43.0225 12.2211 42.7496 12.51 42.3967 12.7056C42.0426 12.9022 41.6613 13 41.2524 13C40.8085 13 40.4128 12.8911 40.0632 12.6744C39.7147 12.4578 39.4494 12.1622 39.2696 11.7867C39.0898 11.4122 39 11.0156 39 10.5967ZM39.6445 10.6078C39.6445 11.1823 39.7969 11.6344 40.1015 11.9644C40.4062 12.2945 40.7888 12.46 41.2491 12.46C41.7182 12.46 42.1029 12.2933 42.4066 11.96C42.709 11.6267 42.8603 11.1534 42.8603 10.54C42.8603 10.1522 42.7957 9.81333 42.6663 9.52444C42.537 9.23562 42.3474 9.01113 42.0986 8.8523C41.8486 8.69339 41.5691 8.61335 41.259 8.61335C40.8183 8.61335 40.4391 8.76673 40.1212 9.07336C39.8034 9.38 39.6445 9.89114 39.6445 10.6078ZM45.5029 12.92V8.70673H43.9509V8.14668H47.6797V8.70673H46.1276V12.92H45.5029ZM48.3362 8.14668H48.961V10.24C49.2449 10.24 49.4455 10.1833 49.5605 10.0711C49.6767 9.95889 49.8236 9.69005 50.0033 9.26335C50.1338 8.94889 50.2412 8.72776 50.3267 8.59896C50.4111 8.4689 50.5316 8.36005 50.6884 8.27224C50.844 8.18448 51.0172 8.14001 51.2057 8.14001C51.4458 8.14001 51.5718 8.14225 51.585 8.14668V8.69339C51.5631 8.69339 51.5214 8.6922 51.46 8.69004C51.391 8.6878 51.3493 8.68669 51.3339 8.68669C51.1356 8.68669 50.9876 8.73558 50.8912 8.83337C50.7925 8.93108 50.6808 9.14007 50.5536 9.45892C50.3958 9.86334 50.262 10.1189 50.1524 10.2245C50.0439 10.3289 49.9124 10.4133 49.7611 10.4767C50.0648 10.5611 50.365 10.8467 50.661 11.3311L51.631 12.92H50.8572L50.067 11.6267C49.851 11.2678 49.6702 11.0211 49.5255 10.8878C49.3797 10.7533 49.1923 10.6867 48.961 10.6867V12.92H48.3362V8.14668ZM52.1538 12.92V8.14668H53.9316C54.2439 8.14668 54.4829 8.16228 54.6484 8.19227C54.8796 8.23113 55.0737 8.3056 55.2304 8.41449C55.3872 8.52443 55.5132 8.67781 55.6086 8.87451C55.7039 9.07113 55.751 9.2878 55.751 9.52444C55.751 9.92893 55.6239 10.2722 55.3685 10.5523C55.1143 10.8333 54.6528 10.9734 53.9863 10.9734H52.7786V12.92H52.1538ZM52.7786 10.4133H53.9951C54.3985 10.4133 54.6835 10.3378 54.8534 10.1856C55.0221 10.0334 55.1065 9.82004 55.1065 9.54337C55.1065 9.34444 55.0572 9.17339 54.9575 9.03118C54.8577 8.8889 54.7262 8.79446 54.564 8.74892C54.4588 8.72112 54.2648 8.70673 53.9831 8.70673H52.7786V10.4133ZM56.2048 10.5967C56.2048 9.80558 56.4152 9.18561 56.835 8.73781C57.2548 8.29001 57.7963 8.06672 58.4604 8.06672C58.8956 8.06672 59.2869 8.17226 59.6365 8.38225C59.9851 8.59225 60.2514 8.88561 60.4345 9.26223C60.6175 9.6378 60.7096 10.0644 60.7096 10.5411C60.7096 11.0244 60.6131 11.4578 60.4202 11.8389C60.2273 12.2211 59.9544 12.51 59.6014 12.7056C59.2474 12.9022 58.866 13 58.4572 13C58.0133 13 57.6176 12.8911 57.2679 12.6744C56.9194 12.4578 56.6541 12.1622 56.4744 11.7867C56.2946 11.4122 56.2048 11.0156 56.2048 10.5967ZM56.8493 10.6078C56.8493 11.1823 57.0016 11.6344 57.3063 11.9644C57.6111 12.2945 57.9935 12.46 58.4539 12.46C58.923 12.46 59.3077 12.2933 59.6113 11.96C59.9138 11.6267 60.0651 11.1534 60.0651 10.54C60.0651 10.1522 60.0004 9.81333 59.8711 9.52444C59.7418 9.23562 59.5522 9.01113 59.3034 8.8523C59.0534 8.69339 58.7739 8.61335 58.4638 8.61335C58.0231 8.61335 57.6438 8.76673 57.326 9.07336C57.0082 9.38 56.8493 9.89114 56.8493 10.6078ZM61.5239 8.14668H62.0895V11.9267L64.5962 8.14668H65.2133V12.92H64.6477V9.15006L62.1476 12.92H61.5239V8.14668ZM63.8717 7H64.2663C64.2345 7.27449 64.1359 7.48555 63.9715 7.63225C63.8071 7.78 63.5889 7.85335 63.316 7.85335C63.042 7.85335 62.8228 7.78 62.6594 7.63449C62.4961 7.4878 62.3975 7.27667 62.3657 7H62.7603C62.7899 7.15 62.8502 7.26226 62.939 7.33556C63.0278 7.41002 63.1483 7.4467 63.2984 7.4467C63.4727 7.4467 63.6042 7.41115 63.693 7.33892C63.7818 7.26782 63.8421 7.15449 63.8717 7ZM67.435 12.92V8.70673H65.883V8.14668H69.6116V8.70673H68.0598V12.92H67.435ZM70.2683 12.92V8.14668H73.6686V8.70673H70.8932V10.1733H73.4908V10.7334H70.8932V12.36H73.7802V12.92H70.2683ZM76.4426 12.92V8.14668H78.2092C78.5689 8.14668 78.8569 8.19446 79.0753 8.29114C79.2924 8.38781 79.4619 8.53665 79.5845 8.73781C79.7085 8.93779 79.7699 9.14782 79.7699 9.36784C79.7699 9.57117 79.7154 9.76339 79.6066 9.94339C79.4984 10.1233 79.3337 10.2689 79.1132 10.38C79.3985 10.4645 79.6176 10.6089 79.7699 10.8133C79.9235 11.0167 80 11.2578 80 11.5356C80 11.76 79.9531 11.9678 79.8601 12.16C79.7671 12.3522 79.652 12.5 79.5149 12.6045C79.3778 12.7078 79.2056 12.7867 78.9995 12.84C78.7921 12.8933 78.5393 12.92 78.2389 12.92H76.4426ZM77.0675 10.1534H78.0852C78.3615 10.1534 78.5599 10.1345 78.6798 10.0978C78.8383 10.05 78.9582 9.97 79.0381 9.85894C79.1181 9.74781 79.1587 9.60889 79.1587 9.44111C79.1587 9.28228 79.1215 9.14223 79.0457 9.02223C78.9713 8.90112 78.8638 8.81779 78.7246 8.77337C78.5854 8.72887 78.3464 8.70673 78.0087 8.70673H77.0675V10.1534ZM77.0675 12.36H78.2402C78.4414 12.36 78.5834 12.3522 78.6654 12.3367C78.808 12.3112 78.9286 12.2678 79.025 12.2067C79.1215 12.1456 79.2 12.0567 79.2627 11.94C79.3248 11.8233 79.3558 11.6889 79.3558 11.5367C79.3558 11.3578 79.311 11.2033 79.22 11.0711C79.1298 10.9389 79.0051 10.8467 78.8452 10.7934C78.686 10.7401 78.4559 10.7133 78.1569 10.7133H77.0675V12.36Z" fill="white"/>
</g>
<defs>
<clipPath id="clip0_2077_452">
<rect width="118.125" height="35" fill="white"/>
</clipPath>
</defs>
</svg>
