<svg width="44" height="44" viewBox="0 0 44 44" fill="none" xmlns="http://www.w3.org/2000/svg">
<path fill-rule="evenodd" clip-rule="evenodd" d="M14.2086 1.54216C12.8533 1.54216 11.5112 1.55519 10.1822 1.58125C9.12623 1.60196 8.12677 1.61451 7.18391 1.61888V13.7826H3.33916V15.9053H7.18391V20.6482H3.33916V22.7709H7.18391V27.5965H10.4836V22.7709H16.9177V20.6482H10.4836V15.9053H14.8363C17.9018 15.9053 20.1746 15.2331 21.7508 13.9864C23.3076 12.7549 24.0972 11.0697 24.0972 8.84144C24.0972 6.33956 23.2812 4.57263 21.7341 3.40231C20.1478 2.20239 17.68 1.54216 14.2086 1.54216ZM10.1531 0.0949165C11.4919 0.0686651 12.8437 0.055542 14.2086 0.055542C17.825 0.055542 20.6732 0.735749 22.6309 2.21669C24.6278 3.72723 25.5838 5.98159 25.5838 8.84144C25.5838 11.478 24.621 13.6114 22.6731 15.1523C20.7444 16.6779 18.1002 17.3919 14.8363 17.3919H11.9702V19.1616H18.4043V24.2576H11.9702V29.0831H5.69729V24.2576H1.85254V19.1616H5.69729V17.3919H1.85254V12.296H5.69729V0.134006H6.4406C7.58586 0.134006 8.8233 0.120991 10.1531 0.0949165ZM11.21 4.64589C13.5009 4.59383 14.6812 4.56724 14.7186 4.56724C16.4815 4.56724 17.9333 4.88746 18.9354 5.66088C20.0138 6.47223 20.4836 7.73763 20.4836 9.27299C20.4836 10.712 19.9885 11.898 18.9188 12.694C17.8903 13.4594 16.4369 13.7826 14.6793 13.7826H10.4836V4.6624L11.21 4.64589ZM11.9702 6.11563V12.296H14.6793C16.2957 12.296 17.3728 11.9914 18.0313 11.5014C18.6486 11.042 18.997 10.3449 18.997 9.27299C18.997 8.0381 18.6312 7.29098 18.0389 6.84677L18.0298 6.83994C17.4104 6.36045 16.3531 6.05386 14.7186 6.05386C14.7207 6.05386 14.7063 6.05417 14.672 6.0549C14.637 6.05565 14.5816 6.05683 14.502 6.05858L13.8427 6.07329C13.3905 6.08345 12.7663 6.09756 11.9702 6.11563Z" fill="url(#paint0_linear_3828_3415)"/>
<path fill-rule="evenodd" clip-rule="evenodd" d="M18.1852 15.7342L24.1598 13.6372L29.6285 24.2487L35.061 13.6372H42.0001L35.0953 25.9953H39.3189V31.1305H32.571V32.8609H39.3189V37.9962H32.571V42.5863H26.298V37.9962H19.6286V32.8609H26.298V31.1305H19.6286V25.9953H23.745L18.1852 15.7342ZM20.1192 16.2315L26.2575 27.4819H21.1152V29.6439H27.7847V34.3476H21.1152V36.5095H27.7847V41.0997H31.0843V36.5095H37.8323V34.3476H31.0843V29.6439H37.8323V27.4819H32.5617L39.4666 15.1238H35.97L29.6329 27.5024L23.2535 15.1238L20.1192 16.2315Z" fill="url(#paint1_linear_3828_3415)"/>
<defs>
<linearGradient id="paint0_linear_3828_3415" x1="1.85254" y1="29.0831" x2="30.3009" y2="5.82542" gradientUnits="userSpaceOnUse">
<stop stop-color="#FE5000"/>
<stop offset="1" stop-color="#FE9800"/>
</linearGradient>
<linearGradient id="paint1_linear_3828_3415" x1="18.1852" y1="42.5863" x2="46.5913" y2="19.2182" gradientUnits="userSpaceOnUse">
<stop stop-color="#FE5000"/>
<stop offset="1" stop-color="#FE9800"/>
</linearGradient>
</defs>
</svg>
