<svg width="44" height="44" viewBox="0 0 44 44" fill="none" xmlns="http://www.w3.org/2000/svg">
<path d="M40.1283 19.4482C39.6003 19.4482 39.2483 19.8002 39.2483 20.3282V23.7602V28.9522V29.8322C39.2483 30.8002 38.4563 31.5922 37.4883 31.5922H35.7283C34.2323 31.5922 33.1763 32.7362 33.1763 34.1442V35.9042C33.1763 36.8722 32.3843 37.6642 31.4163 37.6642H27.1043H5.5443C5.0163 37.6642 4.6643 37.3122 4.6643 36.7842V20.2402C4.6643 19.7122 4.3123 19.3602 3.7843 19.3602C3.2563 19.3602 2.9043 19.7122 2.9043 20.2402V36.6962C2.9043 38.1922 4.0483 39.2482 5.4563 39.2482H27.1043H31.4163H32.5603C33.7043 39.2482 34.8483 38.8082 35.5523 37.9282L39.6003 33.8802C40.3923 33.0882 40.9203 31.9442 40.9203 30.8882V29.7442V28.8642V23.7602V20.2402C41.0083 19.7122 40.6563 19.4482 40.1283 19.4482ZM34.8483 36.4322C34.8483 36.2562 34.9363 36.0802 34.9363 35.8162V34.0562C34.9363 33.5282 35.2883 33.1762 35.8163 33.1762H37.5763C37.7523 33.1762 37.9283 33.1762 38.1923 33.0882L34.8483 36.4322ZM38.4563 7.30424H32.3843V5.54424C32.3843 5.01624 32.0323 4.66424 31.5043 4.66424C30.9763 4.66424 30.6243 5.01624 30.6243 5.54424V7.30424H13.3763V5.54424C13.3763 5.01624 13.0243 4.66424 12.4963 4.66424C11.9683 4.66424 11.6163 5.01624 11.6163 5.54424V7.30424H5.5443C4.0483 7.30424 2.9923 8.44824 2.9923 9.85624V16.8082C2.9923 17.3362 3.3443 17.6882 3.8723 17.6882H40.2163C40.7443 17.6882 41.0963 17.3362 41.0963 16.8082V9.85624C41.0083 8.44824 39.8643 7.30424 38.4563 7.30424ZM39.2483 15.9282H4.7523V9.85624C4.7523 9.32824 5.1043 8.97624 5.6323 8.97624H11.7043V11.0002C11.1763 11.2642 10.8243 11.8802 10.8243 12.4962C10.8243 13.4642 11.6163 14.2562 12.5843 14.2562C13.5523 14.2562 14.3443 13.4642 14.3443 12.4962C14.3443 11.8802 13.9923 11.2642 13.4643 11.0002V8.97624H30.7123V11.0002C30.1843 11.2642 29.8323 11.8802 29.8323 12.4962C29.8323 13.4642 30.6243 14.2562 31.5923 14.2562C32.5603 14.2562 33.3523 13.4642 33.3523 12.4962C33.3523 11.8802 33.0003 11.2642 32.4723 11.0002V8.97624H38.5443C39.0723 8.97624 39.4243 9.32824 39.4243 9.85624L39.2483 15.9282ZM18.5683 24.5522C19.5363 24.5522 20.3283 23.7602 20.3283 22.7922C20.3283 21.8242 19.5363 21.0322 18.5683 21.0322C17.6003 21.0322 16.8083 21.8242 16.8083 22.7922C16.8083 23.8482 17.6003 24.5522 18.5683 24.5522ZM25.4323 24.5522C26.4003 24.5522 27.1923 23.7602 27.1923 22.7922C27.1923 21.8242 26.4003 21.0322 25.4323 21.0322C24.4643 21.0322 23.6723 21.8242 23.6723 22.7922C23.7603 23.8482 24.4643 24.5522 25.4323 24.5522ZM32.3843 24.5522C33.3523 24.5522 34.1443 23.7602 34.1443 22.7922C34.1443 21.8242 33.3523 21.0322 32.3843 21.0322C31.4163 21.0322 30.6243 21.8242 30.6243 22.7922C30.6243 23.8482 31.4163 24.5522 32.3843 24.5522ZM11.6163 32.3842C12.5843 32.3842 13.3763 31.5922 13.3763 30.6242C13.3763 29.6562 12.5843 28.8642 11.6163 28.8642C10.6483 28.8642 9.8563 29.6562 9.8563 30.6242C9.8563 31.5922 10.6483 32.3842 11.6163 32.3842ZM18.5683 32.3842C19.5363 32.3842 20.3283 31.5922 20.3283 30.6242C20.3283 29.6562 19.5363 28.8642 18.5683 28.8642C17.6003 28.8642 16.8083 29.6562 16.8083 30.6242C16.8083 31.5922 17.6003 32.3842 18.5683 32.3842ZM25.4323 32.3842C26.4003 32.3842 27.1923 31.5922 27.1923 30.6242C27.1923 29.6562 26.4003 28.8642 25.4323 28.8642C24.4643 28.8642 23.6723 29.6562 23.6723 30.6242C23.6723 31.5922 24.4643 32.3842 25.4323 32.3842Z" fill="url(#paint0_linear_2193_563)"/>
<defs>
<linearGradient id="paint0_linear_2193_563" x1="10.7814" y1="39.2482" x2="43.6347" y2="27.8936" gradientUnits="userSpaceOnUse">
<stop stop-color="#FE5000"/>
<stop offset="1" stop-color="#FCA92A"/>
</linearGradient>
</defs>
</svg>
