<svg width="56" height="56" viewBox="0 0 56 56" fill="none" xmlns="http://www.w3.org/2000/svg">
<path d="M46.1077 6.36364H9.89213C7.2857 6.36364 5.09082 8.54775 5.09082 11.1414V43.357C5.09082 45.9507 7.2857 48.1348 9.89213 48.1348H32.8012C33.3499 48.1348 33.7615 47.7253 33.7615 47.1792C33.7615 46.6332 33.3499 46.2237 32.8012 46.2237H9.89213C8.38314 46.2237 7.01134 44.9951 7.01134 43.357V15.7826H48.9885V35.7126C48.9885 36.2587 49.4 36.6682 49.9487 36.6682C50.4975 36.6682 50.909 36.2587 50.909 35.7126V11.1414C50.909 8.54775 48.7141 6.36364 46.1077 6.36364ZM48.9885 14.008H7.01134V11.1414C7.01134 9.6398 8.24596 8.27473 9.89213 8.27473H46.1077C47.6167 8.27473 48.9885 9.5033 48.9885 11.1414V14.008ZM9.89213 12.0969C10.4408 12.0969 10.8524 11.6874 10.8524 11.1414C10.8524 10.5954 10.4408 10.1858 9.89213 10.1858C9.34341 10.1858 8.93187 10.5954 8.93187 11.1414C8.93187 11.6874 9.34341 12.0969 9.89213 12.0969ZM13.7332 12.0969C14.2819 12.0969 14.6934 11.6874 14.6934 11.1414C14.6934 10.5954 14.2819 10.1858 13.7332 10.1858C13.1845 10.1858 12.7729 10.5954 12.7729 11.1414C12.7729 11.6874 13.1845 12.0969 13.7332 12.0969ZM17.5742 12.0969C18.1229 12.0969 18.5345 11.6874 18.5345 11.1414C18.5345 10.5954 18.1229 10.1858 17.5742 10.1858C17.0255 10.1858 16.614 10.5954 16.614 11.1414C16.614 11.6874 17.0255 12.0969 17.5742 12.0969ZM50.6346 40.7634L37.3282 27.5222C37.0538 27.2492 36.6423 27.1127 36.2307 27.2492C35.8192 27.3857 35.682 27.7952 35.682 28.0683V47.0427C35.682 47.4522 35.9564 47.7253 36.2307 47.8618C36.6423 47.9983 37.0538 47.8618 37.3282 47.5888L40.2089 44.7221L42.541 49.2268C42.6782 49.4999 42.8154 49.6364 43.0897 49.6364C43.2269 49.6364 43.2269 49.6364 43.3641 49.6364C43.5013 49.6364 43.6385 49.6364 43.7756 49.4999L47.4795 47.5888C47.891 47.3157 48.1654 46.7697 47.891 46.3602L45.6962 42.1285H49.8116C50.2231 42.1285 50.4975 41.8555 50.6346 41.5824C50.909 41.4459 50.909 41.0364 50.6346 40.7634ZM44.1872 40.4904C43.9128 40.4904 43.5013 40.6269 43.3641 40.8999C43.2269 41.1729 43.2269 41.5824 43.3641 41.8555L45.8333 46.6332L43.7756 47.7253L41.3064 42.9475C41.1692 42.6745 40.8948 42.538 40.6205 42.4015H40.4833C40.2089 42.4015 39.9346 42.538 39.7974 42.6745L37.6025 44.8586V30.3889L47.7539 40.4904H44.1872Z" fill="url(#paint0_linear_2636_471)"/>
<defs>
<linearGradient id="paint0_linear_2636_471" x1="14.5408" y1="49.6364" x2="54.2966" y2="36.4622" gradientUnits="userSpaceOnUse">
<stop stop-color="#FE5000"/>
<stop offset="1" stop-color="#FCA92A"/>
</linearGradient>
</defs>
</svg>
