<svg width="66" height="66" viewBox="0 0 66 66" fill="none" xmlns="http://www.w3.org/2000/svg">
<path d="M51.5455 60H25.3636C22.3091 60 19.9091 57.525 19.9091 54.375V20.625C19.9091 17.475 22.3091 15 25.3636 15H51.5455C54.6 15 57 17.475 57 20.625V54.375C57 57.525 54.6 60 51.5455 60ZM25.3636 17.25C23.5091 17.25 22.0909 18.7125 22.0909 20.625V54.375C22.0909 56.2875 23.5091 57.75 25.3636 57.75H51.5455C53.4 57.75 54.8182 56.2875 54.8182 54.375V20.625C54.8182 18.7125 53.4 17.25 51.5455 17.25H25.3636ZM16.6364 53.25H14.4545C11.4 53.25 9 50.775 9 47.625V11.625C9 8.475 11.4 6 14.4545 6H40.6364C43.6909 6 46.0909 8.475 46.0909 11.625C46.0909 12.3 45.6545 12.75 45 12.75C44.3455 12.75 43.9091 12.3 43.9091 11.625C43.9091 9.7125 42.4909 8.25 40.6364 8.25H14.4545C12.6 8.25 11.1818 9.7125 11.1818 11.625V47.625C11.1818 49.5375 12.6 51 14.4545 51H16.6364C17.2909 51 17.7273 51.45 17.7273 52.125C17.7273 52.8 17.2909 53.25 16.6364 53.25Z" fill="url(#paint0_linear_2637_521)"/>
<path fill-rule="evenodd" clip-rule="evenodd" d="M45.2674 25.4082C45.1741 25.4082 45.0781 25.39 44.9875 25.3539C43.1039 24.5906 40.9226 24.204 38.5017 24.204C36.0648 24.204 33.8835 24.5906 32.0189 25.3528C31.6793 25.4912 31.2775 25.36 31.1218 25.0577C30.9662 24.7555 31.115 24.3979 31.4532 24.2594C33.4965 23.4239 35.8671 23 38.5015 23C41.117 23 43.4878 23.4239 45.5474 24.2582C45.887 24.3955 46.0372 24.7531 45.8829 25.0552C45.7708 25.2782 45.5245 25.4082 45.2674 25.4082ZM29.0292 30.2244C28.8586 30.2244 28.6869 30.1666 28.5542 30.0498C28.2892 29.8174 28.2864 29.4357 28.5488 29.1986C31.3011 26.7195 34.7422 25.4082 38.4983 25.4082C42.2695 25.4082 45.713 26.7195 48.4559 29.1998C48.7185 29.4359 48.7144 29.8187 48.4478 30.0511C48.1812 30.2835 47.7524 30.2799 47.4912 30.0438C45.0082 27.7983 41.8973 26.6123 38.4985 26.6123C35.1117 26.6123 32.0046 27.7995 29.511 30.0463C29.3785 30.1642 29.2041 30.2244 29.0294 30.2244L29.0292 30.2244ZM48.6471 38.0506C48.6471 38.383 48.9502 38.6527 49.3238 38.6527L49.3236 38.6526C49.6972 38.6526 50.0003 38.3828 50.0001 38.0505C50.0001 32.4071 44.8406 27.8161 38.4987 27.8161C37.5325 27.8161 36.5745 27.9221 35.6492 28.1328C35.2865 28.2148 35.0686 28.5422 35.1605 28.8637C35.2525 29.1876 35.6193 29.3815 35.9847 29.2983C36.799 29.114 37.6463 29.0201 38.4987 29.0201C44.0953 29.0201 48.6471 33.0705 48.6471 38.0506ZM27.6767 38.6526H27.6659C27.2923 38.6466 26.9933 38.3745 27.0001 38.041C27.0488 35.297 28.2356 32.743 30.3423 30.8481C31.0554 30.2051 31.8578 29.6502 32.7238 29.1987C33.0445 29.0314 33.4597 29.1265 33.6494 29.4141C33.8374 29.7008 33.7291 30.0703 33.4072 30.239C32.6441 30.6363 31.9364 31.1263 31.3043 31.6959C29.4439 33.3684 28.3964 35.6296 28.3531 38.0606C28.3477 38.3892 28.0459 38.6528 27.6767 38.6528L27.6767 38.6526ZM28.3178 43.9939C28.4231 44.0457 28.5368 44.0709 28.6492 44.0709L28.6491 44.0708C28.886 44.0708 29.1146 43.9601 29.2392 43.7638L29.6383 43.1305C30.5721 41.4184 31.0632 39.7229 31.0578 38.1986C31.0578 36.3565 31.8291 34.6479 33.2282 33.3885C34.6326 32.1242 36.504 31.4282 38.4986 31.4282C40.646 31.4282 42.692 32.2567 44.1085 33.7038C44.3561 33.9543 44.7824 33.9783 45.0638 33.7616C45.3454 33.5425 45.3737 33.1631 45.1288 32.9116C43.4551 31.2031 41.0385 30.2242 38.4987 30.2242C36.1389 30.2242 33.925 31.0478 32.2664 32.5419C30.6141 34.0289 29.7048 36.0373 29.7048 38.2311C29.7089 39.5254 29.2543 41.0787 28.4397 42.5717L28.0593 43.1738C27.8767 43.4641 27.9916 43.8314 28.3178 43.9939ZM47.9032 45.7688C47.6137 45.7688 47.3443 45.6015 47.2551 45.3425L46.481 43.074C46.01 41.1703 45.9708 39.4329 45.948 38.3938L45.9398 38.0663C45.9398 37.2957 45.7978 36.5539 45.5162 35.8472C45.3916 35.5329 45.5758 35.1899 45.9276 35.0778C46.2807 34.9681 46.6677 35.132 46.7909 35.445C47.1237 36.2805 47.2929 37.1584 47.2929 38.0506L47.301 38.3709L47.3014 38.3878C47.3246 39.3831 47.363 41.0381 47.7894 42.7694L48.5513 44.9921C48.6595 45.3112 48.4579 45.647 48.1007 45.7434C48.0343 45.7603 47.9682 45.7688 47.9032 45.7688ZM45.2843 48.1288C45.3749 48.3878 45.6429 48.5527 45.9311 48.5527L45.9314 48.5526C45.9991 48.5526 46.0652 48.5441 46.133 48.5248C46.4902 48.426 46.6891 48.089 46.5781 47.7711L45.9502 45.9795C44.8352 42.8803 44.6268 39.3909 44.5889 38.0508C44.5889 35.0635 41.857 32.6325 38.4999 32.6325C35.1428 32.6325 32.412 35.1009 32.412 38.1555C32.4134 38.7892 32.2822 42.1364 29.4259 45.8031C29.2123 46.0764 29.2893 46.4519 29.5965 46.641C29.9009 46.8276 30.3243 46.7613 30.5381 46.4892C33.5487 42.6253 33.7693 39.1298 33.7652 38.1352C33.7652 35.7655 35.8882 33.8367 38.4983 33.8367C41.1099 33.8367 43.2343 35.7283 43.2343 38.0665C43.283 39.8148 43.5333 43.215 44.6591 46.342L45.2843 48.1288ZM35.8045 51.8975C35.6611 51.8975 35.5164 51.8565 35.3918 51.7723C35.0955 51.5689 35.0413 51.192 35.2685 50.9283C40.5512 44.8211 40.5457 38.7382 40.5281 38.0643C40.5281 37.054 39.616 36.2437 38.497 36.2437C37.378 36.2437 36.4673 37.054 36.4673 38.0498C36.4755 38.2437 36.6406 43.3932 32.0493 48.7104C31.8219 48.974 31.3985 49.0234 31.1009 48.8212C30.8046 48.6189 30.7491 48.2409 30.9763 47.9773C35.2724 43.0008 35.1236 38.2713 35.1154 38.0716C35.1154 36.3895 36.6322 35.0386 38.4982 35.0386C40.3641 35.0386 41.8809 36.3883 41.8809 38.0487C41.9013 38.7493 41.916 45.2163 36.3412 51.6609C36.2091 51.8174 36.0075 51.898 35.8045 51.898L35.8045 51.8975ZM38.1689 41.0512C38.2054 41.056 38.2421 41.0584 38.2772 41.0584L38.2772 41.0584C38.6045 41.0584 38.8915 40.8478 38.9456 40.5527C39.2149 39.0602 39.1776 38.1102 39.1744 38.0286L39.1742 38.0242C39.1579 37.6907 38.8534 37.4608 38.4692 37.4499C38.0959 37.4644 37.8062 37.746 37.8225 38.0771L37.8226 38.0801C37.8245 38.1374 37.853 39.0066 37.6087 40.3612C37.5491 40.6887 37.8008 40.9982 38.1689 41.0512ZM33.3528 50.7571C33.2053 50.7571 33.0551 50.7138 32.9305 50.6259C32.6383 50.4177 32.591 50.0395 32.8236 49.7795C34.7505 47.635 36.1563 45.257 37.0035 42.7141C37.1104 42.395 37.4878 42.2168 37.8451 42.3071C38.2036 42.401 38.408 42.7359 38.3011 43.0547C37.404 45.7481 35.9169 48.2635 33.8804 50.532C33.7479 50.6791 33.5517 50.7573 33.3528 50.7573L33.3528 50.7571ZM38.6435 51.8035C38.7559 51.8674 38.8816 51.8974 39.0062 51.8974L39.0062 51.8976C39.2295 51.8976 39.4488 51.7988 39.5761 51.6205C40.6234 50.154 41.5718 48.4707 42.1916 47.2979C42.2076 47.3401 42.2233 47.3825 42.239 47.4248C42.2592 47.4792 42.2794 47.5335 42.2999 47.587L43.1104 49.8831C43.2214 50.1997 43.6002 50.3791 43.9588 50.278C44.3147 50.178 44.5136 49.8397 44.4012 49.5231L43.5866 47.2149C43.2979 46.4476 43.0264 45.6395 42.9686 45.4674C42.9613 45.4458 42.9574 45.4342 42.9573 45.434C42.8762 45.1897 42.6325 45.0175 42.347 45.003C42.048 44.9742 41.7964 45.1354 41.6854 45.3691L41.6841 45.3716C41.6332 45.4776 40.1418 48.5824 38.4351 50.9726C38.2349 51.2532 38.3282 51.6265 38.6435 51.8035Z" fill="url(#paint1_linear_2637_521)"/>
<defs>
<linearGradient id="paint0_linear_2637_521" x1="18.9" y1="60" x2="61.8022" y2="48.0649" gradientUnits="userSpaceOnUse">
<stop stop-color="#FE5000"/>
<stop offset="1" stop-color="#FCA92A"/>
</linearGradient>
<linearGradient id="paint1_linear_2637_521" x1="27" y1="51.898" x2="55.1611" y2="29.4845" gradientUnits="userSpaceOnUse">
<stop stop-color="#FE5000"/>
<stop offset="1" stop-color="#FE9800"/>
</linearGradient>
</defs>
</svg>
