<svg width="56" height="56" viewBox="0 0 56 56" fill="none" xmlns="http://www.w3.org/2000/svg">
<path d="M35.2384 21.247H15.5943C15.1851 21.247 14.7758 21.5739 14.7758 22.0643C14.7758 22.473 15.1032 22.8817 15.5943 22.8817H35.2384C35.6477 22.8817 36.0569 22.5548 36.0569 22.0643C36.0569 21.5739 35.6477 21.247 35.2384 21.247ZM15.5943 16.5061H23.452C23.8612 16.5061 24.2705 16.1791 24.2705 15.6887C24.2705 15.28 23.9431 14.8713 23.452 14.8713H15.5943C15.1851 14.8713 14.7758 15.1983 14.7758 15.6887C14.8577 16.1791 15.1851 16.5061 15.5943 16.5061ZM35.2384 27.5409H15.5943C15.1851 27.5409 14.7758 27.8678 14.7758 28.3583C14.7758 28.767 15.1032 29.1757 15.5943 29.1757H35.2384C35.6477 29.1757 36.0569 28.8487 36.0569 28.3583C36.0569 27.8678 35.6477 27.5409 35.2384 27.5409ZM28.9359 33.753H15.5943C15.1851 33.753 14.7758 34.08 14.7758 34.5704C14.7758 35.0609 15.1032 35.3878 15.5943 35.3878H28.9359C29.3452 35.3878 29.7544 35.0609 29.7544 34.5704C29.7544 34.08 29.427 33.753 28.9359 33.753ZM26.6441 41.6C27.0534 41.6 27.4626 41.273 27.4626 40.7826C27.4626 40.2922 27.1352 39.9652 26.6441 39.9652H15.5943C15.1851 39.9652 14.7758 40.2922 14.7758 40.7826C14.7758 41.273 15.1032 41.6 15.5943 41.6H26.6441ZM8.55516 5.55304H31.3096V16.5061H42.2776V30.647H43.8327V15.4435L32.3737 4H7V51H29.7544V49.447H8.55516V5.55304ZM32.8648 6.69739L41.1317 14.953H32.8648V6.69739ZM52.2633 33.0991L50.0534 30.8922C49.153 29.993 47.5979 29.993 46.7794 30.8922L34.6655 42.9078L33.0285 49.0383L32.6192 49.447C32.2918 49.7739 32.2918 50.2643 32.6192 50.5096C32.7829 50.673 32.9466 50.7548 33.1922 50.7548C33.3559 50.7548 33.6014 50.673 33.7651 50.5096L34.1744 50.1009L40.3132 48.4661L52.3452 36.4504C52.7545 36.0417 53 35.3878 53 34.8157C52.9182 34.1617 52.6726 33.5896 52.2633 33.0991ZM36.4662 43.3165L44.4875 35.3061L47.8434 38.6574L39.7402 46.6678L36.4662 43.3165ZM35.7295 44.8696L38.2669 47.4035L34.8292 48.3843L35.7295 44.8696ZM51.1174 35.3061L48.9075 37.513L45.5516 34.2435L47.7616 32.0365C48.089 31.7096 48.5801 31.7096 48.8256 32.0365L51.0356 34.2435C51.1993 34.407 51.2811 34.5704 51.2811 34.8157C51.363 34.9791 51.2811 35.1426 51.1174 35.3061Z" fill="url(#paint0_linear_2636_473)"/>
<defs>
<linearGradient id="paint0_linear_2636_473" x1="16.4875" y1="51" x2="56.9844" y2="38.5955" gradientUnits="userSpaceOnUse">
<stop stop-color="#FE5000"/>
<stop offset="1" stop-color="#FCA92A"/>
</linearGradient>
</defs>
</svg>
