<svg width="56" height="56" viewBox="0 0 56 56" fill="none" xmlns="http://www.w3.org/2000/svg">
<path fill-rule="evenodd" clip-rule="evenodd" d="M4.09961 5C4.09961 4.50294 4.50255 4.1 4.99961 4.1H11.9996C12.4967 4.1 12.8996 4.50294 12.8996 5C12.8996 5.49705 12.4967 5.9 11.9996 5.9H5.89961V12C5.89961 12.4971 5.49667 12.9 4.99961 12.9C4.50255 12.9 4.09961 12.4971 4.09961 12V5ZM37.4855 11.2382C37.357 11.2382 37.2248 11.2132 37.1001 11.1636C34.5081 10.1131 31.5063 9.58106 28.1748 9.58106C24.8211 9.58106 21.8193 10.1131 19.2534 11.162C18.7861 11.3525 18.2331 11.1719 18.0189 10.7558C17.8047 10.34 18.0095 9.84794 18.4749 9.65734C21.2868 8.50756 24.5491 7.92419 28.1744 7.92419C31.7738 7.92419 35.0364 8.50755 37.8707 9.65571C38.338 9.84462 38.5447 10.3367 38.3324 10.7525C38.1781 11.0593 37.8392 11.2382 37.4855 11.2382ZM15.1404 17.8661C14.9056 17.8661 14.6693 17.7865 14.4867 17.6259C14.1219 17.306 14.1182 16.7807 14.4792 16.4544C18.2668 13.0427 23.0023 11.2383 28.1713 11.2383C33.3611 11.2383 38.0998 13.0427 41.8746 16.4561C42.2359 16.781 42.2303 17.3077 41.8634 17.6276C41.4965 17.9474 40.9064 17.9424 40.5469 17.6176C37.13 14.5274 32.8489 12.8952 28.1716 12.8952C23.5108 12.8952 19.235 14.5291 15.8034 17.6209C15.621 17.7832 15.381 17.8661 15.1406 17.8661L15.1404 17.8661ZM42.1375 28.6362C42.1375 29.0936 42.5546 29.4648 43.0687 29.4648L43.0685 29.4646C43.5826 29.4646 43.9997 29.0935 43.9994 28.636C43.9994 20.8699 36.8991 14.5519 28.1716 14.5519C26.8421 14.5519 25.5237 14.6978 24.2503 14.9877C23.7512 15.1006 23.4513 15.5511 23.5779 15.9936C23.7044 16.4393 24.2091 16.7062 24.712 16.5916C25.8327 16.3381 26.9986 16.2088 28.1717 16.2088C35.8735 16.2088 42.1375 21.7828 42.1375 28.6362ZM13.2785 29.4647H13.2636C12.7495 29.4564 12.338 29.0819 12.3474 28.6231C12.4144 24.8468 14.0477 21.3321 16.9468 18.7245C17.9282 17.8396 19.0324 17.0759 20.2241 16.4545C20.6655 16.2243 21.2369 16.3552 21.4979 16.7511C21.7566 17.1455 21.6076 17.654 21.1646 17.8862C20.1144 18.4329 19.1405 19.1072 18.2707 19.8912C15.7104 22.1927 14.2689 25.3045 14.2094 28.65C14.2019 29.1021 13.7866 29.465 13.2785 29.465L13.2785 29.4647ZM14.1608 36.8151C14.3057 36.8864 14.4622 36.921 14.6168 36.921L14.6167 36.921C14.9428 36.921 15.2573 36.7687 15.4288 36.4985L15.9781 35.6269C17.2631 33.2708 17.9389 30.9376 17.9314 28.8399C17.9314 26.3048 18.9929 23.9535 20.9182 22.2204C22.851 20.4805 25.4262 19.5227 28.1711 19.5227C31.1264 19.5227 33.942 20.6628 35.8913 22.6543C36.2321 22.9991 36.8187 23.0321 37.2059 22.7339C37.5934 22.4324 37.6324 21.9103 37.2954 21.5641C34.9921 19.2129 31.6665 17.8658 28.1713 17.8658C24.9238 17.8658 21.8772 18.9993 19.5947 21.0553C17.3209 23.1017 16.0695 25.8656 16.0695 28.8846C16.0752 30.6657 15.4495 32.8033 14.3285 34.858L13.8051 35.6866C13.5538 36.086 13.7119 36.5915 14.1608 36.8151ZM41.1137 39.2576C40.7153 39.2576 40.3447 39.0273 40.2218 38.6709L39.1566 35.5491C38.5085 32.9293 38.4545 30.5384 38.423 29.1085L38.4118 28.6577C38.4118 27.5972 38.2164 26.5764 37.8289 25.6039C37.6574 25.1714 37.9109 24.6993 38.395 24.545C38.881 24.3941 39.4135 24.6197 39.5831 25.0505C40.041 26.2002 40.2739 27.4083 40.2739 28.6361L40.2851 29.0769L40.2856 29.1002C40.3175 30.4699 40.3704 32.7474 40.9572 35.1299L42.0056 38.1887C42.1546 38.6279 41.8772 39.09 41.3855 39.2226C41.2942 39.2459 41.2032 39.2576 41.1137 39.2576ZM37.5088 42.5053C37.6335 42.8618 38.0023 43.0887 38.3988 43.0887L38.3992 43.0886C38.4925 43.0886 38.5835 43.077 38.6767 43.0503C39.1683 42.9144 39.442 42.4506 39.2893 42.0132L38.4251 39.5477C36.8907 35.2826 36.6039 30.4806 36.5519 28.6364C36.5519 24.5254 32.7923 21.18 28.1724 21.18C23.5524 21.18 19.7944 24.577 19.7944 28.7806C19.7963 29.6526 19.6158 34.2589 15.6851 39.3048C15.3911 39.681 15.4971 40.1977 15.9199 40.4579C16.3388 40.7148 16.9214 40.6235 17.2157 40.249C21.3587 34.9317 21.6623 30.1213 21.6567 28.7527C21.6567 25.4916 24.5783 22.8372 28.1702 22.8372C31.7642 22.8372 34.6877 25.4403 34.6877 28.6581C34.7547 31.064 35.0991 35.7432 36.6485 40.0465L37.5088 42.5053ZM24.4643 47.6917C24.2669 47.6917 24.0677 47.6354 23.8963 47.5194C23.4885 47.2396 23.414 46.7208 23.7267 46.358C30.9964 37.9536 30.9889 29.5825 30.9646 28.6551C30.9646 27.2648 29.7095 26.1496 28.1696 26.1496C26.6297 26.1496 25.3764 27.2648 25.3764 28.6351C25.3876 28.902 25.6149 35.9886 19.2966 43.3058C18.9836 43.6686 18.4009 43.7366 17.9913 43.4584C17.5836 43.1798 17.5072 42.6597 17.8199 42.2969C23.732 35.4485 23.5272 28.94 23.516 28.6652C23.516 26.3503 25.6033 24.4912 28.1712 24.4912C30.739 24.4912 32.8263 26.3487 32.8263 28.6336C32.8544 29.5978 32.8747 38.4974 25.2028 47.3662C25.0211 47.5815 24.7436 47.6924 24.4643 47.6924L24.4643 47.6917ZM27.7175 32.7655C27.7677 32.7721 27.8182 32.7754 27.8665 32.7754L27.8665 32.7754C28.3169 32.7754 28.7119 32.4856 28.7864 32.0795C29.157 30.0255 29.1056 28.7181 29.1012 28.6059L29.101 28.5998C29.0785 28.141 28.6596 27.8245 28.1309 27.8095C27.6171 27.8294 27.2184 28.217 27.2409 28.6727L27.241 28.6768C27.2436 28.7557 27.2828 29.9518 26.9466 31.8159C26.8646 32.2667 27.2109 32.6925 27.7175 32.7655ZM21.0902 46.1224C20.8872 46.1224 20.6806 46.0628 20.5091 45.9418C20.107 45.6553 20.0418 45.1349 20.362 44.7771C23.0137 41.8258 24.9483 38.5534 26.1142 35.0539C26.2613 34.6148 26.7807 34.3696 27.2723 34.4939C27.7658 34.6231 28.0469 35.0839 27.8998 35.5227C26.6653 39.2292 24.6188 42.6908 21.8163 45.8126C21.6339 46.0151 21.3639 46.1227 21.0902 46.1227L21.0902 46.1224ZM28.3708 47.5624C28.5254 47.6503 28.6984 47.6916 28.8699 47.6916L28.8698 47.6919C29.1772 47.6919 29.4789 47.556 29.6541 47.3105C31.0953 45.2924 32.4005 42.9759 33.2535 41.362C33.2754 41.4199 33.2971 41.4782 33.3187 41.5364L33.3188 41.5366L33.3188 41.5366L33.3188 41.5367L33.3188 41.5367C33.3466 41.6115 33.3743 41.6862 33.4025 41.7597L34.5179 44.9196C34.6707 45.3553 35.1919 45.6022 35.6854 45.463C36.1751 45.3254 36.4488 44.8599 36.2942 44.4241L35.1732 41.2477C34.7759 40.1919 34.4023 39.0799 34.3227 38.8429L34.3072 38.7969C34.1956 38.4607 33.8602 38.2238 33.4674 38.2038C33.0559 38.1641 32.7096 38.3861 32.5568 38.7076L32.5551 38.7111C32.4849 38.8573 30.4325 43.1297 28.084 46.4189C27.8084 46.8051 27.9368 47.3188 28.3708 47.5624ZM4.99961 51.9C4.50255 51.9 4.09961 51.4971 4.09961 51V44C4.09961 43.5029 4.50255 43.1 4.99961 43.1C5.49667 43.1 5.89961 43.5029 5.89961 44V50.1H11.9996C12.4967 50.1 12.8996 50.5029 12.8996 51C12.8996 51.4971 12.4967 51.9 11.9996 51.9H4.99961ZM51.8996 5C51.8996 4.50294 51.4967 4.1 50.9996 4.1H43.9996C43.5026 4.1 43.0996 4.50294 43.0996 5C43.0996 5.49705 43.5026 5.9 43.9996 5.9H50.0996V12C50.0996 12.4971 50.5026 12.9 50.9996 12.9C51.4967 12.9 51.8996 12.4971 51.8996 12V5ZM50.9996 51.9C51.4967 51.9 51.8996 51.4971 51.8996 51V44C51.8996 43.5029 51.4967 43.1 50.9996 43.1C50.5026 43.1 50.0996 43.5029 50.0996 44V50.1H43.9996C43.5026 50.1 43.0996 50.5029 43.0996 51C43.0996 51.4971 43.5026 51.9 43.9996 51.9H50.9996Z" fill="url(#paint0_linear_2635_1440)"/>
<defs>
<linearGradient id="paint0_linear_2635_1440" x1="4.09961" y1="51.9" x2="51.8996" y2="4.1" gradientUnits="userSpaceOnUse">
<stop stop-color="#FE5000"/>
<stop offset="1" stop-color="#FE9800"/>
</linearGradient>
</defs>
</svg>
