<svg width="100" height="100" viewBox="0 0 100 100" fill="none" xmlns="http://www.w3.org/2000/svg">
<circle cx="50" cy="50" r="49.5" fill="white" stroke="url(#paint0_linear)"/>
<path d="M72.4784 37.044H66.5727L64.0404 31.5558C63.8866 31.2191 63.4706 31.0644 63.136 31.2191L60.6579 32.375L53.1514 26.9778C52.853 26.7593 52.4189 26.8322 52.2018 27.1416L45.1837 37.044H27.5299C27.15 37.044 26.8516 37.3535 26.8516 37.7266V62.2734C26.8516 62.6465 27.1591 62.956 27.5299 62.956H33.4356L35.9679 68.4442C36.1216 68.781 36.5286 68.9357 36.8723 68.781L39.3503 67.6251L46.8568 73.0223C47.1553 73.2407 47.5894 73.1679 47.8064 72.8584L54.8246 62.956H72.4694C72.8492 62.956 73.1477 62.6465 73.1477 62.2734V37.7266C73.1567 37.3535 72.8492 37.044 72.4784 37.044ZM63.0908 32.7481L65.0714 37.044H53.884L63.0908 32.7481ZM52.9163 28.4977L59.2471 33.0394L50.6643 37.044H46.8568L52.9163 28.4977ZM42.769 56.8034V61.5089C42.769 61.5362 42.769 61.5635 42.778 61.5908H38.6992C38.6992 61.5635 38.7082 61.5362 38.7082 61.5089V56.8034V55.5292V38.4093H42.778V55.5292V56.8034H42.769ZM28.2082 61.5908V38.4093H37.433V55.5292H33.3632C33.0105 55.5292 32.7301 55.8113 32.7301 56.1663C32.7301 56.5212 33.0105 56.8034 33.3632 56.8034H37.433V61.5089C37.433 61.5362 37.433 61.5635 37.4421 61.5908H28.2082ZM36.9175 67.2519L34.9369 62.956H46.1243L36.9175 67.2519ZM47.092 71.5114L40.7612 66.9698L49.3439 62.9651H53.1514L47.092 71.5114ZM71.8001 61.5908H44.0351C44.0351 61.5635 44.0442 61.5362 44.0442 61.5089V56.8034H55.6204C55.9732 56.8034 56.2535 56.5212 56.2535 56.1663C56.2535 55.8113 55.9732 55.5292 55.6204 55.5292H44.0351V38.4093H45.5274H66.1295H71.8001V61.5908ZM60.2329 46.4732H61.4176V42.3411H64.8182C66.7536 42.3411 67.8389 43.3241 67.8389 45.0169C67.8389 46.7189 66.7536 47.7292 64.8182 47.7292H62.8647V48.5665H65.4693V49.3584H62.8647V51.1241H61.4176V49.3584H60.2329V48.5665H61.4176V47.7292H60.2329V46.4732ZM64.6102 46.4732C65.9034 46.4732 66.3918 45.918 66.3918 45.0169C66.3918 44.1159 65.9034 43.588 64.6102 43.588H62.8647V46.4732H64.6102Z" fill="url(#paint1_linear)"/>
<defs>
<linearGradient id="paint0_linear" x1="0" y1="100" x2="100" y2="0" gradientUnits="userSpaceOnUse">
<stop stop-color="#FE5000"/>
<stop offset="1" stop-color="#FE9800"/>
</linearGradient>
<linearGradient id="paint1_linear" x1="26.8516" y1="73.1482" x2="73.1479" y2="26.8519" gradientUnits="userSpaceOnUse">
<stop stop-color="#FE5000"/>
<stop offset="1" stop-color="#FE9800"/>
</linearGradient>
</defs>
</svg>
