<svg width="100" height="100" viewBox="0 0 100 100" fill="none" xmlns="http://www.w3.org/2000/svg">
<circle cx="50" cy="50" r="49.5" fill="white" stroke="url(#paint0_linear)"/>
<path fill-rule="evenodd" clip-rule="evenodd" d="M39.382 30.0962C39.382 29.5439 38.9343 29.0962 38.382 29.0962C37.8297 29.0962 37.382 29.5439 37.382 30.0962V31.3191H35.4326C32.6712 31.3191 30.4326 33.5577 30.4326 36.3191V65.4545C30.4326 68.216 32.6712 70.4545 35.4326 70.4545H64.568C67.3295 70.4545 69.568 68.216 69.568 65.4545V36.3191C69.568 33.5577 67.3295 31.3191 64.568 31.3191H62.0073V30.0962C62.0073 29.5439 61.5596 29.0962 61.0073 29.0962C60.455 29.0962 60.0073 29.5439 60.0073 30.0962V31.3191H39.382V30.0962ZM60.0073 36.2111V33.3191H39.382V36.2111C39.382 36.7634 38.9343 37.2111 38.382 37.2111C37.8297 37.2111 37.382 36.7634 37.382 36.2111V33.3191H35.4326C33.7758 33.3191 32.4326 34.6623 32.4326 36.3191V39.4915H67.568V36.3191C67.568 34.6623 66.2249 33.3191 64.568 33.3191H62.0073V36.2111C62.0073 36.7634 61.5596 37.2111 61.0073 37.2111C60.455 37.2111 60.0073 36.7634 60.0073 36.2111ZM32.4326 65.4545V41.4915H67.568V65.4545C67.568 67.1114 66.2249 68.4545 64.568 68.4545H35.4326C33.7758 68.4545 32.4326 67.1114 32.4326 65.4545ZM58.7537 48.4243C59.0822 47.9803 58.9886 47.3541 58.5447 47.0256C58.1007 46.6971 57.4745 46.7907 57.146 47.2347L48.2724 59.2274L43.9115 55.6199C43.486 55.2678 42.8556 55.3274 42.5036 55.753C42.1515 56.1785 42.2111 56.8089 42.6367 57.1609L47.8109 61.4413C48.0225 61.6164 48.2968 61.6967 48.5694 61.6635C48.842 61.6302 49.0889 61.4864 49.2522 61.2656L58.7537 48.4243Z" fill="url(#paint1_linear)"/>
<defs>
<linearGradient id="paint0_linear" x1="0" y1="100" x2="100" y2="0" gradientUnits="userSpaceOnUse">
<stop stop-color="#FE5000"/>
<stop offset="1" stop-color="#FE9800"/>
</linearGradient>
<linearGradient id="paint1_linear" x1="30.4326" y1="70.4545" x2="71.7279" y2="31.3788" gradientUnits="userSpaceOnUse">
<stop stop-color="#FE5000"/>
<stop offset="1" stop-color="#FE9800"/>
</linearGradient>
</defs>
</svg>
