<svg width="100" height="100" viewBox="0 0 100 100" fill="none" xmlns="http://www.w3.org/2000/svg">
<circle cx="50" cy="50" r="49.5" fill="white" stroke="url(#paint0_linear)"/>
<path d="M45.455 42.1157C43.5752 42.1157 42.0459 43.645 42.0459 45.5248C42.0459 47.4046 43.5752 48.9339 45.455 48.9339C47.3348 48.9339 48.8641 47.4046 48.8641 45.5248C48.8641 43.645 47.3348 42.1157 45.455 42.1157ZM45.455 46.6612C44.8284 46.6612 44.3186 46.1514 44.3186 45.5248C44.3186 44.8982 44.8284 44.3884 45.455 44.3884C46.0816 44.3884 46.5914 44.8982 46.5914 45.5248C46.5914 46.1514 46.0816 46.6612 45.455 46.6612Z" fill="url(#paint1_linear)"/>
<path d="M54.5458 51.2068C52.666 51.2068 51.1367 52.7361 51.1367 54.6159C51.1367 56.4957 52.666 58.025 54.5458 58.025C56.4256 58.025 57.9549 56.4957 57.9549 54.6159C57.9549 52.7361 56.4256 51.2068 54.5458 51.2068ZM54.5458 55.7522C53.9192 55.7522 53.4094 55.2425 53.4094 54.6159C53.4094 53.9893 53.9192 53.4795 54.5458 53.4795C55.1724 53.4795 55.6822 53.9893 55.6822 54.6159C55.6822 55.2425 55.1724 55.7522 54.5458 55.7522Z" fill="url(#paint2_linear)"/>
<path d="M55.1761 42.3067C54.654 41.9586 53.9483 42.0996 53.6002 42.6218L44.5093 56.2582C44.1612 56.7804 44.3023 57.4859 44.8245 57.8341C45.3466 58.1822 46.0522 58.0412 46.4004 57.5189L55.4913 43.8825C55.8394 43.3603 55.6983 42.6549 55.1761 42.3067Z" fill="url(#paint3_linear)"/>
<path d="M69.8729 55.1522C69.6663 54.6554 69.1812 54.3317 68.6431 54.3317H64.6481V31.6044C64.6481 30.8689 64.0519 30.2727 63.3164 30.2727H36.6829C35.9475 30.2727 35.3512 30.8689 35.3512 31.6044V54.3317H31.3562C30.8181 54.3317 30.333 54.6554 30.1264 55.1522C29.9199 55.649 30.0327 56.2213 30.4123 56.6027L49.0558 75.3349C49.3057 75.5861 49.6453 75.7272 49.9997 75.7272C50.354 75.7272 50.6936 75.5861 50.9436 75.3349L69.587 56.6027C69.9665 56.2214 70.0793 55.649 69.8729 55.1522ZM49.9997 72.5078L34.5604 56.995H36.6829C37.4183 56.995 38.0146 56.3988 38.0146 55.6633V32.9361H61.9847V55.6633C61.9847 56.3988 62.581 56.995 63.3164 56.995H65.4389L49.9997 72.5078Z" fill="url(#paint4_linear)"/>
<defs>
<linearGradient id="paint0_linear" x1="0" y1="100" x2="100" y2="0" gradientUnits="userSpaceOnUse">
<stop stop-color="#FE5000"/>
<stop offset="1" stop-color="#FE9800"/>
</linearGradient>
<linearGradient id="paint1_linear" x1="42.0459" y1="48.9339" x2="48.8641" y2="42.1157" gradientUnits="userSpaceOnUse">
<stop stop-color="#FE5000"/>
<stop offset="1" stop-color="#FE9800"/>
</linearGradient>
<linearGradient id="paint2_linear" x1="51.1367" y1="58.025" x2="57.9549" y2="51.2068" gradientUnits="userSpaceOnUse">
<stop stop-color="#FE5000"/>
<stop offset="1" stop-color="#FE9800"/>
</linearGradient>
<linearGradient id="paint3_linear" x1="44.3184" y1="58.025" x2="59.3677" y2="47.2754" gradientUnits="userSpaceOnUse">
<stop stop-color="#FE5000"/>
<stop offset="1" stop-color="#FE9800"/>
</linearGradient>
<linearGradient id="paint4_linear" x1="30.0244" y1="75.7272" x2="75.1029" y2="36.1073" gradientUnits="userSpaceOnUse">
<stop stop-color="#FE5000"/>
<stop offset="1" stop-color="#FE9800"/>
</linearGradient>
</defs>
</svg>
