<svg width="44" height="44" viewBox="0 0 44 44" fill="none" xmlns="http://www.w3.org/2000/svg">
<path fill-rule="evenodd" clip-rule="evenodd" d="M35.9986 9.01574C35.9983 9.00663 35.998 8.99752 35.9973 8.98841C35.9947 8.95228 35.9912 8.91681 35.984 8.88166C35.984 8.88166 35.984 8.88166 35.984 8.88134C35.9768 8.84619 35.9667 8.81137 35.9554 8.77752C35.9524 8.76906 35.9495 8.7606 35.9462 8.75214C35.9342 8.71992 35.9205 8.68835 35.9049 8.65776C35.9039 8.65613 35.9033 8.6545 35.9023 8.65288C35.8854 8.62098 35.8659 8.59072 35.8447 8.5611C35.8395 8.55361 35.834 8.54645 35.8284 8.53897C35.806 8.50968 35.7825 8.48137 35.7562 8.45501L28.217 0.915775C28.1906 0.889414 28.1623 0.865982 28.133 0.843526C28.1255 0.837994 28.118 0.832136 28.1105 0.826929C28.0809 0.805775 28.051 0.786248 28.0194 0.76965C28.0171 0.768349 28.0149 0.767698 28.0129 0.766396C27.983 0.750775 27.9517 0.737431 27.9201 0.72539C27.9114 0.722136 27.9029 0.719207 27.8938 0.716278C27.8599 0.704887 27.8258 0.694798 27.7903 0.687639C27.79 0.687639 27.7896 0.687639 27.7896 0.687639C27.7548 0.680804 27.7193 0.676899 27.6835 0.674295C27.6744 0.67397 27.6653 0.673319 27.6562 0.672994C27.6468 0.672668 27.6373 0.671692 27.6279 0.671692H8.75184C8.29166 0.671692 7.9187 1.04465 7.9187 1.50483V37.165C7.9187 37.6252 8.29166 37.9981 8.75184 37.9981H21.2951V42.4951C21.2951 42.7981 21.4598 43.0773 21.725 43.2241C21.9906 43.3709 22.3144 43.3621 22.5712 43.201L25.7442 41.2103L28.9173 43.201C29.0524 43.2856 29.2063 43.3283 29.3602 43.3283C29.4989 43.3283 29.6378 43.2938 29.7635 43.2244C30.0287 43.0777 30.1934 42.7984 30.1934 42.4951V37.9981H35.1668C35.627 37.9981 35.9999 37.6252 35.9999 37.165V9.04406C35.9999 9.03462 35.999 9.02518 35.9986 9.01574V9.01574ZM28.461 3.5164L33.1556 8.21092H28.461V3.5164ZM20.8841 26.4049C20.8255 26.2457 20.7301 25.9857 20.7278 25.8793C20.7929 25.7986 21.0188 25.6557 21.1571 25.5685C21.4539 25.381 21.7904 25.1682 22.0345 24.8356C22.2809 24.4994 22.3811 24.1111 22.4696 23.7688C22.5083 23.6191 22.5708 23.3773 22.6242 23.2858C22.6535 23.2796 22.715 23.2708 22.8305 23.2708C22.9233 23.2708 23.0271 23.276 23.1371 23.2816C23.2634 23.2878 23.3935 23.2943 23.5296 23.2943C23.8296 23.2943 24.0718 23.2604 24.2914 23.1872C24.6751 23.0596 24.982 22.8126 25.2528 22.5946C25.4025 22.4741 25.6531 22.2724 25.7403 22.26C25.8357 22.2724 26.0859 22.4741 26.2356 22.5946C26.5064 22.8126 26.8136 23.0596 27.1973 23.1872C27.417 23.2604 27.6588 23.2943 27.9592 23.2943C28.0949 23.2943 28.2254 23.2878 28.3514 23.2816C28.4614 23.276 28.5652 23.2708 28.6583 23.2708C28.7738 23.2708 28.835 23.2793 28.8646 23.2858C28.918 23.3773 28.9804 23.6191 29.0188 23.7688C29.1074 24.1111 29.2079 24.4994 29.4543 24.8356C29.698 25.1682 30.0346 25.3807 30.3317 25.5685C30.4697 25.656 30.6955 25.7986 30.7606 25.8793C30.7583 25.9857 30.663 26.2457 30.6047 26.4049C30.4807 26.7423 30.3405 27.1251 30.3405 27.5491C30.3405 27.9732 30.4807 28.3559 30.6044 28.6937C30.663 28.8528 30.7583 29.1129 30.7606 29.2193C30.6955 29.3 30.4697 29.4425 30.3317 29.5301C30.0346 29.7175 29.698 29.9304 29.4543 30.263C29.2079 30.5992 29.1074 30.9874 29.0188 31.3298C28.9804 31.4792 28.9176 31.7213 28.8646 31.8128C28.835 31.8189 28.7738 31.8277 28.6583 31.8277C28.5652 31.8277 28.4614 31.8225 28.3514 31.817C28.2254 31.8108 28.0949 31.8043 27.9592 31.8043C27.6588 31.8043 27.417 31.8381 27.1973 31.9114C26.8136 32.0389 26.5064 32.2863 26.2356 32.504C26.0882 32.6231 25.8422 32.8207 25.7442 32.8382C25.6463 32.8207 25.4006 32.6231 25.2531 32.504C24.982 32.2863 24.6751 32.0389 24.2914 31.9114C24.0718 31.8381 23.8296 31.8043 23.5296 31.8043C23.3939 31.8043 23.2634 31.8108 23.1371 31.817C23.0274 31.8225 22.9236 31.8277 22.8305 31.8277C22.715 31.8277 22.6538 31.8189 22.6242 31.8128C22.5708 31.7213 22.5083 31.4795 22.4696 31.3298C22.3814 30.9874 22.2809 30.5992 22.0345 30.263C21.7907 29.9304 21.4542 29.7175 21.1571 29.5301C21.0191 29.4429 20.7933 29.3 20.7282 29.2193C20.7304 29.1132 20.8258 28.8528 20.8841 28.6937C21.008 28.3562 21.1483 27.9735 21.1483 27.5494C21.1483 27.1251 21.0077 26.7423 20.8841 26.4049V26.4049ZM28.5271 40.989L26.1872 39.5209C25.9164 39.3513 25.5721 39.3513 25.3013 39.5209L22.9614 40.989V33.4914C23.0499 33.4888 23.1368 33.4855 23.2211 33.4813C23.3314 33.4754 23.4355 33.4702 23.5296 33.4702C23.6773 33.4702 23.7405 33.4839 23.7649 33.492C23.8641 33.5252 24.0549 33.6789 24.2081 33.8022C24.597 34.1153 25.081 34.5048 25.7442 34.5048C26.4075 34.5048 26.8914 34.1153 27.2803 33.8022C27.4336 33.6789 27.6243 33.5252 27.7233 33.4924C27.748 33.4842 27.8111 33.4706 27.9589 33.4706C28.0529 33.4706 28.1571 33.4758 28.2674 33.4813C28.3517 33.4855 28.4386 33.4891 28.5268 33.4914V40.989H28.5271ZM30.1934 36.3319V32.82C30.441 32.4835 30.5445 32.0852 30.6321 31.7467C30.678 31.569 30.7408 31.3259 30.798 31.2481C30.855 31.17 31.0669 31.0362 31.2214 30.9386C31.6315 30.6796 32.1418 30.357 32.3446 29.7472C32.545 29.1454 32.3364 28.5769 32.1688 28.1199C32.0927 27.9126 32.0064 27.6773 32.0064 27.5491C32.0064 27.4209 32.0927 27.1859 32.1688 26.9786C32.3364 26.5217 32.545 25.9528 32.3446 25.3511C32.1418 24.7415 31.6315 24.419 31.2214 24.1599C31.0669 24.0623 30.855 23.9282 30.798 23.8508C30.7408 23.7727 30.678 23.5296 30.6321 23.3519C30.5123 22.8881 30.3633 22.3108 29.853 21.9365C29.4468 21.6391 28.9765 21.6046 28.6579 21.6046C28.5232 21.6046 28.393 21.6111 28.2674 21.6176C28.1571 21.6231 28.0529 21.6283 27.9592 21.6283C27.8111 21.6283 27.748 21.6146 27.7236 21.6065C27.6246 21.5736 27.4339 21.42 27.2806 21.2964C26.8914 20.9836 26.4075 20.5941 25.7442 20.5941C25.0813 20.5941 24.597 20.9836 24.2081 21.2964C24.0549 21.4197 23.8641 21.5736 23.7652 21.6065C23.7408 21.6146 23.6773 21.6283 23.5296 21.6283C23.4359 21.6283 23.3314 21.6231 23.2211 21.6173C23.0954 21.6111 22.9656 21.6046 22.8305 21.6046C22.5122 21.6046 22.042 21.6391 21.6362 21.9365C21.1255 22.3108 20.9762 22.8881 20.8564 23.3519C20.8105 23.5296 20.7477 23.7727 20.6907 23.8504C20.6335 23.9282 20.4216 24.0623 20.267 24.1599C19.857 24.419 19.347 24.7415 19.1439 25.3511C18.9434 25.9531 19.152 26.5217 19.3196 26.9786C19.3958 27.1859 19.482 27.4209 19.482 27.5491C19.482 27.6773 19.3958 27.9126 19.3196 28.1199C19.152 28.5769 18.9434 29.1454 19.1439 29.7475C19.347 30.357 19.8573 30.6796 20.267 30.9386C20.4219 31.0362 20.6335 31.1703 20.6907 31.2481C20.7477 31.3259 20.8105 31.569 20.8564 31.7467C20.9439 32.0852 21.0478 32.4838 21.2954 32.82V36.3319H9.58497V2.33796H26.7948V9.04406C26.7948 9.50424 27.1677 9.87719 27.6279 9.87719H34.3337V36.3319H30.1934Z" fill="url(#paint0_linear_1824_838)"/>
<path fill-rule="evenodd" clip-rule="evenodd" d="M12.8229 9.87715H23.5567C24.0165 9.87715 24.3898 9.50419 24.3898 9.04401C24.3898 8.58384 24.0165 8.21088 23.5567 8.21088H12.8229C12.3627 8.21088 11.9897 8.58384 11.9897 9.04401C11.9897 9.50419 12.363 9.87715 12.8229 9.87715Z" fill="url(#paint1_linear_1824_838)"/>
<path fill-rule="evenodd" clip-rule="evenodd" d="M31.189 12.4164H12.8229C12.3627 12.4164 11.9897 12.7893 11.9897 13.2495C11.9897 13.7097 12.3627 14.0827 12.8229 14.0827H31.189C31.6492 14.0827 32.0221 13.7097 32.0221 13.2495C32.0221 12.7893 31.6492 12.4164 31.189 12.4164Z" fill="url(#paint2_linear_1824_838)"/>
<path fill-rule="evenodd" clip-rule="evenodd" d="M27.8565 16.6217H12.8229C12.3627 16.6217 11.9897 16.995 11.9897 17.4548C11.9897 17.915 12.3627 18.288 12.8229 18.288H27.8565C28.3166 18.288 28.6896 17.915 28.6896 17.4548C28.6896 16.995 28.3166 16.6217 27.8565 16.6217Z" fill="url(#paint3_linear_1824_838)"/>
<path fill-rule="evenodd" clip-rule="evenodd" d="M31.1889 16.6217C30.73 16.6217 30.3557 16.996 30.3557 17.4548C30.3557 17.9137 30.73 18.288 31.1889 18.288C31.6481 18.288 32.022 17.9137 32.022 17.4548C32.022 16.996 31.6481 16.6217 31.1889 16.6217Z" fill="url(#paint4_linear_1824_838)"/>
<defs>
<linearGradient id="paint0_linear_1824_838" x1="7.9187" y1="43.3283" x2="47.1008" y2="17.5344" gradientUnits="userSpaceOnUse">
<stop stop-color="#FE5000"/>
<stop offset="1" stop-color="#FE9800"/>
</linearGradient>
<linearGradient id="paint1_linear_1824_838" x1="11.9897" y1="9.87715" x2="12.4296" y2="6.60371" gradientUnits="userSpaceOnUse">
<stop stop-color="#FE5000"/>
<stop offset="1" stop-color="#FE9800"/>
</linearGradient>
<linearGradient id="paint2_linear_1824_838" x1="11.9897" y1="14.0827" x2="12.265" y2="10.773" gradientUnits="userSpaceOnUse">
<stop stop-color="#FE5000"/>
<stop offset="1" stop-color="#FE9800"/>
</linearGradient>
<linearGradient id="paint3_linear_1824_838" x1="11.9897" y1="18.288" x2="12.319" y2="14.9883" gradientUnits="userSpaceOnUse">
<stop stop-color="#FE5000"/>
<stop offset="1" stop-color="#FE9800"/>
</linearGradient>
<linearGradient id="paint4_linear_1824_838" x1="30.3557" y1="18.288" x2="32.022" y2="16.6217" gradientUnits="userSpaceOnUse">
<stop stop-color="#FE5000"/>
<stop offset="1" stop-color="#FE9800"/>
</linearGradient>
</defs>
</svg>
