<svg width="44" height="44" viewBox="0 0 44 44" fill="none" xmlns="http://www.w3.org/2000/svg">
<path d="M40.1281 19.4479C39.6001 19.4479 39.2481 19.7999 39.2481 20.3279V23.7599V28.9519V29.8319C39.2481 30.7999 38.4561 31.5919 37.4881 31.5919H35.7281C34.2321 31.5919 33.1761 32.7359 33.1761 34.1439V35.9039C33.1761 36.8719 32.3841 37.6639 31.4161 37.6639H27.1041H5.54405C5.01605 37.6639 4.66405 37.3119 4.66405 36.7839V20.2399C4.66405 19.7119 4.31205 19.3599 3.78405 19.3599C3.25605 19.3599 2.90405 19.7119 2.90405 20.2399V36.6959C2.90405 38.1919 4.04805 39.2479 5.45605 39.2479H27.1041H31.4161H32.5601C33.7041 39.2479 34.8481 38.8079 35.5521 37.9279L39.6001 33.8799C40.3921 33.0879 40.9201 31.9439 40.9201 30.8879V29.7439V28.8639V23.7599V20.2399C41.0081 19.7119 40.6561 19.4479 40.1281 19.4479ZM34.8481 36.4319C34.8481 36.2559 34.9361 36.0799 34.9361 35.8159V34.0559C34.9361 33.5279 35.2881 33.1759 35.8161 33.1759H37.5761C37.7521 33.1759 37.9281 33.1759 38.1921 33.0879L34.8481 36.4319ZM38.4561 7.30394H32.3841V5.54394C32.3841 5.01594 32.0321 4.66394 31.5041 4.66394C30.9761 4.66394 30.6241 5.01594 30.6241 5.54394V7.30394H13.3761V5.54394C13.3761 5.01594 13.0241 4.66394 12.4961 4.66394C11.9681 4.66394 11.6161 5.01594 11.6161 5.54394V7.30394H5.54405C4.04805 7.30394 2.99205 8.44794 2.99205 9.85594V16.8079C2.99205 17.3359 3.34405 17.6879 3.87205 17.6879H40.2161C40.7441 17.6879 41.0961 17.3359 41.0961 16.8079V9.85594C41.0081 8.44794 39.8641 7.30394 38.4561 7.30394ZM39.2481 15.9279H4.75205V9.85594C4.75205 9.32794 5.10405 8.97594 5.63205 8.97594H11.7041V10.9999C11.1761 11.2639 10.8241 11.8799 10.8241 12.4959C10.8241 13.4639 11.6161 14.2559 12.5841 14.2559C13.5521 14.2559 14.3441 13.4639 14.3441 12.4959C14.3441 11.8799 13.9921 11.2639 13.4641 10.9999V8.97594H30.7121V10.9999C30.1841 11.2639 29.8321 11.8799 29.8321 12.4959C29.8321 13.4639 30.6241 14.2559 31.5921 14.2559C32.5601 14.2559 33.3521 13.4639 33.3521 12.4959C33.3521 11.8799 33.0001 11.2639 32.4721 10.9999V8.97594H38.5441C39.0721 8.97594 39.4241 9.32794 39.4241 9.85594L39.2481 15.9279ZM18.5681 24.5519C19.5361 24.5519 20.3281 23.7599 20.3281 22.7919C20.3281 21.8239 19.5361 21.0319 18.5681 21.0319C17.6001 21.0319 16.8081 21.8239 16.8081 22.7919C16.8081 23.8479 17.6001 24.5519 18.5681 24.5519ZM25.4321 24.5519C26.4001 24.5519 27.1921 23.7599 27.1921 22.7919C27.1921 21.8239 26.4001 21.0319 25.4321 21.0319C24.4641 21.0319 23.6721 21.8239 23.6721 22.7919C23.7601 23.8479 24.4641 24.5519 25.4321 24.5519ZM32.3841 24.5519C33.3521 24.5519 34.1441 23.7599 34.1441 22.7919C34.1441 21.8239 33.3521 21.0319 32.3841 21.0319C31.4161 21.0319 30.6241 21.8239 30.6241 22.7919C30.6241 23.8479 31.4161 24.5519 32.3841 24.5519ZM11.6161 32.3839C12.5841 32.3839 13.3761 31.5919 13.3761 30.6239C13.3761 29.6559 12.5841 28.8639 11.6161 28.8639C10.6481 28.8639 9.85605 29.6559 9.85605 30.6239C9.85605 31.5919 10.6481 32.3839 11.6161 32.3839ZM18.5681 32.3839C19.5361 32.3839 20.3281 31.5919 20.3281 30.6239C20.3281 29.6559 19.5361 28.8639 18.5681 28.8639C17.6001 28.8639 16.8081 29.6559 16.8081 30.6239C16.8081 31.5919 17.6001 32.3839 18.5681 32.3839ZM25.4321 32.3839C26.4001 32.3839 27.1921 31.5919 27.1921 30.6239C27.1921 29.6559 26.4001 28.8639 25.4321 28.8639C24.4641 28.8639 23.6721 29.6559 23.6721 30.6239C23.6721 31.5919 24.4641 32.3839 25.4321 32.3839Z" fill="url(#paint0_linear_1824_834)"/>
<defs>
<linearGradient id="paint0_linear_1824_834" x1="2.90405" y1="39.2479" x2="37.3185" y2="1.24322" gradientUnits="userSpaceOnUse">
<stop stop-color="#FE5000"/>
<stop offset="1" stop-color="#FE9800"/>
</linearGradient>
</defs>
</svg>
