<svg width="44" height="44" viewBox="0 0 44 44" fill="none" xmlns="http://www.w3.org/2000/svg">
<path fill-rule="evenodd" clip-rule="evenodd" d="M12.8983 12.3152C12.8983 12.0423 12.9066 11.7743 12.9227 11.5114C13.2694 5.86276 17.2772 2.5509 22.1981 2.5509C27.348 2.5509 31.3925 6.17818 31.3925 12.3152C31.3925 18.4521 27.348 24.7749 22.1981 24.7749C17.2729 24.7749 13.2623 18.9918 12.9218 13.1189C12.9062 12.851 12.8983 12.5829 12.8983 12.3152ZM16.9239 19.9105C15.5831 18.0381 14.6947 15.5879 14.5325 13.1234C16.1239 13.1193 18.0884 13.0627 19.8963 12.7077C21.9358 12.3071 24.0445 11.4717 25.0818 9.66296C25.5324 10.0573 26.083 10.4632 26.6973 10.7819C27.5622 11.2306 28.635 11.5435 29.7431 11.3161C29.7708 11.638 29.7851 11.971 29.7851 12.3152C29.7851 15.0547 28.875 17.8456 27.4127 19.9203C25.9399 22.0097 24.0732 23.1674 22.1981 23.1674C20.3177 23.1674 18.423 22.004 16.9239 19.9105ZM27.5834 6.26176C28.4399 7.12809 29.1129 8.2824 29.4793 9.7267C28.8274 9.87919 28.1341 9.71641 27.4376 9.35508C26.5459 8.89249 25.7891 8.16817 25.4082 7.7163C25.2135 7.48527 24.9056 7.38297 24.6113 7.45151C24.3171 7.52006 24.0861 7.74786 24.0135 8.04117C23.5927 9.74131 21.9382 10.6685 19.5865 11.1304C17.9153 11.4586 16.0882 11.5113 14.5332 11.5154C14.6936 9.22021 15.5442 7.47252 16.7512 6.27075C18.1016 4.92615 20.0047 4.15833 22.1981 4.15833C24.3893 4.15833 26.2613 4.92438 27.5834 6.26176ZM37.8073 31.1314C36.5205 28.436 34.3845 25.6496 30.7846 24.8465C30.0438 24.6364 28.8599 24.9466 27.8011 26.222C27.7741 26.2546 27.7458 26.2867 27.7164 26.3182C27.2212 26.8492 26.4039 27.2199 25.3639 27.4466C25.0405 27.5171 24.6956 27.5736 24.3321 27.6167C23.6899 27.6929 23.0203 27.7236 22.3598 27.7236H22.3503C21.6635 27.7236 20.9793 27.7236 20.2978 27.6808C18.6481 27.5771 17.1494 27.2278 15.9814 26.1458C15.3962 25.6036 14.9618 25.2336 14.5215 25.0327C14.056 24.8202 13.6326 24.8208 13.2374 24.8213L13.1794 24.8213C11.5645 24.8213 6.0862 26.7765 4.06211 37.6644L4.06211 37.6644C3.95173 38.2581 3.93502 39.0701 4.47309 39.7346C5.01445 40.4031 5.92776 40.69 7.11594 40.69H18.2877H26.2257H37.3366C37.8261 40.69 38.5825 40.567 39.1771 40.1071C39.49 39.8651 39.7617 39.5253 39.9014 39.073C40.0399 38.6246 40.0294 38.1282 39.8853 37.5998C39.8375 37.4246 39.7808 37.1875 39.7121 36.9004C39.4048 35.6163 38.8586 33.3336 37.8073 31.1314ZM29.0379 27.2487C29.727 26.4187 30.2455 26.3991 30.3345 26.3957C30.3501 26.3952 30.3525 26.3951 30.3402 26.3912C30.3635 26.3985 30.387 26.4048 30.4108 26.4101C33.3204 27.0492 35.1568 29.3106 36.3567 31.8239C37.3233 33.8487 37.8166 35.8992 38.1311 37.2065L38.1311 37.2066C38.2082 37.5271 38.2745 37.803 38.3345 38.0228C38.4168 38.3244 38.3953 38.5024 38.3655 38.5987C38.337 38.6911 38.2833 38.7663 38.1937 38.8356C37.9835 38.9982 37.6269 39.0826 37.3367 39.0826H26.8575L25.262 32.5179L26.2391 31.8284C26.5616 31.6009 26.6711 31.173 26.4977 30.8185L25.6248 29.0347C26.9467 28.7573 28.2213 28.2324 29.0379 27.2487ZM23.85 33.5143L25.2032 39.0826H19.3213L20.7469 33.4741L21.9146 34.2512C22.191 34.4351 22.552 34.4301 22.8232 34.2387L23.85 33.5143ZM19.3283 32.5301L17.6628 39.0826H7.11594C6.12869 39.0826 5.81598 38.8387 5.72228 38.7229C5.62528 38.6032 5.56446 38.3777 5.64246 37.9582C5.71726 37.5559 5.79666 37.1674 5.88024 36.7923C7.95866 27.4647 12.6167 26.4288 13.1794 26.4288C13.6477 26.4288 13.7343 26.4403 13.8542 26.495C14.0222 26.5717 14.2757 26.7568 14.889 27.325C16.1009 28.4476 17.537 28.9374 18.9487 29.1543L18.0369 30.7782C17.9966 30.8499 17.9685 30.9253 17.9519 31.0019C17.8837 31.3171 18.0109 31.6535 18.2924 31.8409L19.3283 32.5301ZM20.4194 29.8183L20.7047 29.3102C20.9532 29.3195 21.1999 29.3247 21.4426 29.3275C21.7453 29.3311 22.042 29.3311 22.3287 29.3311H22.3598C22.8811 29.3311 23.4169 29.3133 23.9504 29.2698L24.7528 30.9099L23.8886 31.5197L22.3465 32.6078L20.6927 31.5073L19.8033 30.9155L20.4194 29.8183Z" fill="url(#paint0_linear_1824_845)"/>
<defs>
<linearGradient id="paint0_linear_1824_845" x1="4" y1="40.6901" x2="42.0757" y2="4.75048" gradientUnits="userSpaceOnUse">
<stop stop-color="#FE5000"/>
<stop offset="1" stop-color="#FE9800"/>
</linearGradient>
</defs>
</svg>
