<svg width="44" height="44" viewBox="0 0 44 44" fill="none" xmlns="http://www.w3.org/2000/svg">
<path fill-rule="evenodd" clip-rule="evenodd" d="M3.8339 42.2495C3.3738 42.2495 3.00048 41.8745 3.00048 41.4161V32.278C3.00016 32.2686 3 32.2592 3 32.2497V5.58358C3 5.57406 3.00016 5.56459 3.00048 5.55515V4.75005C3.00048 4.28995 3.3738 3.91663 3.8339 3.91663C4.29399 3.91663 4.66732 4.28995 4.66732 4.75005V4.75016H42.1666C42.625 4.75016 43 5.12348 43 5.58358V32.2497C43 32.7081 42.625 33.0831 42.1666 33.0831H4.66732V41.4161C4.66732 41.8745 4.29399 42.2495 3.8339 42.2495ZM4.66732 6.41685V31.4166H41.333V6.41685H4.66732ZM8.31413 22.8567C8.45893 22.9616 8.63081 23.0132 8.80073 23.0132L8.8012 23.0135C8.9728 23.0135 9.14607 22.9602 9.29115 22.8503L13.0045 20.1352L16.7146 22.7984C17.0044 23.0068 17.3995 23.0068 17.6894 22.795C17.981 22.5835 18.1026 22.2085 17.9927 21.8668L16.5694 17.4167L20.301 14.575C20.5858 14.3585 20.7008 13.9851 20.5858 13.6467C20.4709 13.3066 20.1525 13.0783 19.7959 13.0783H15.2092L13.7926 8.71682C13.5691 8.03017 12.4308 8.03017 12.2076 8.71682L10.791 13.0783H6.20429C5.84601 13.0783 5.52932 13.3066 5.41437 13.6467C5.3008 13.9899 5.41604 14.3632 5.70091 14.58L9.43245 17.4117L8.00582 21.9284C7.89756 22.2682 8.02088 22.6466 8.31413 22.8567ZM8.68254 14.7498L10.909 16.4397C11.1891 16.6531 11.3057 17.0198 11.1989 17.3546L10.3621 20.0064L12.5105 18.4364C12.7987 18.2246 13.1955 18.2229 13.4871 18.433L15.6388 19.978L14.8038 17.3681C14.6972 17.033 14.8121 16.6647 15.092 16.4515L17.3253 14.7498H14.6037C14.2421 14.7498 13.9221 14.5165 13.8105 14.1731L12.9989 11.6747L12.1872 14.1731C12.0756 14.5165 11.7556 14.7498 11.394 14.7498H8.68254Z" fill="url(#paint0_linear_1824_811)"/>
<defs>
<linearGradient id="paint0_linear_1824_811" x1="3" y1="42.2495" x2="41.2982" y2="2.28573" gradientUnits="userSpaceOnUse">
<stop stop-color="#FE5000"/>
<stop offset="1" stop-color="#FE9800"/>
</linearGradient>
</defs>
</svg>
