<svg width="100" height="100" viewBox="0 0 100 100" fill="none" xmlns="http://www.w3.org/2000/svg">
<circle cx="50" cy="50" r="49.5" stroke="url(#paint0_linear_1823_660)"/>
<path d="M66.4773 39.2185H33.5227C32.9955 39.2185 32.6 39.6219 32.6 40.1597C32.6 40.6975 32.9955 40.9664 33.3909 40.9664H66.4773C67.0045 40.9664 67.2682 40.563 67.2682 40.1597C67.4 39.6219 67.0045 39.2185 66.4773 39.2185ZM66.4773 48.6303H33.5227C32.9955 48.6303 32.7318 49.0336 32.7318 49.437C32.7318 49.9748 33.1273 50.2437 33.5227 50.2437H66.6091C67.1364 50.2437 67.4 49.8403 67.4 49.437C67.4 49.0336 67.0045 48.6303 66.4773 48.6303ZM55.6682 54.8151H44.3318C43.8045 54.8151 43.5409 55.2185 43.5409 55.6219C43.5409 56.1597 43.9364 56.4286 44.3318 56.4286H55.6682C56.1955 56.4286 56.4591 56.0252 56.4591 55.6219C56.5909 55.2185 56.1955 54.8151 55.6682 54.8151ZM66.4773 43.9244H41.8273C41.3 43.9244 41.0364 44.3277 41.0364 44.7311C41.0364 45.2689 41.4318 45.5378 41.8273 45.5378H66.4773C67.0045 45.5378 67.2682 45.1345 67.2682 44.7311C67.4 44.3277 67.0045 43.9244 66.4773 43.9244ZM37.8727 43.9244H33.5227C32.9955 43.9244 32.7318 44.3277 32.7318 44.7311C32.7318 45.2689 33.1273 45.5378 33.5227 45.5378H38.0045C38.5318 45.5378 38.7955 45.1345 38.7955 44.7311C38.7955 44.3277 38.4 43.9244 37.8727 43.9244ZM76.6273 29H23.3727C22.0545 29 21 30.0756 21 31.4202V68.1261C21 69.4706 22.0545 70.5462 23.3727 70.5462H59.0955L57.7773 73.2353C57.6455 73.6387 57.6455 74.042 57.9091 74.3109C58.1727 74.5798 58.5682 74.7143 58.8318 74.7143L61.2045 74.3109L62.5227 76.4622C62.6545 76.7311 63.05 77 63.4455 77C63.8409 77 64.1045 76.7311 64.3682 76.4622L66.6091 71.6219L68.85 76.4622C68.9818 76.8656 69.3773 77 69.7727 77C70.1682 77 70.4318 76.8656 70.6955 76.4622L72.0136 74.3109L74.3864 74.7143C74.7818 74.7143 75.1773 74.5798 75.3091 74.3109C75.5727 74.042 75.5727 73.6387 75.4409 73.2353L74.1227 70.5462H76.6273C77.9455 70.5462 79 69.4706 79 68.1261V31.4202C79 30.0756 77.9455 29 76.6273 29ZM63.3136 74.4454L62.3909 72.9664C62.1273 72.563 61.7318 72.4286 61.3364 72.4286L59.8864 72.6975L61.4682 69.3361C62.1273 70.0084 63.05 70.2773 63.9727 70.2773C64.2364 70.2773 64.6318 70.2773 64.8955 70.5462C65.0273 70.5462 65.0273 70.6807 65.1591 70.6807L63.3136 74.4454ZM66.7409 69.3361C66.6091 69.3361 66.4773 69.3361 66.3455 69.3361C66.0818 69.3361 65.95 69.2017 65.8182 69.0672C65.2909 68.6639 64.6318 68.5294 64.1045 68.5294C63.9727 68.5294 63.9727 68.5294 63.8409 68.5294C63.3136 68.5294 62.7864 68.2605 62.5227 67.7227C62.3909 67.4538 62.2591 67.3193 62.1273 67.0504C61.8636 66.7815 61.4682 66.5126 61.0727 66.2437C60.5455 65.9748 60.2818 65.437 60.2818 64.8992C60.4136 64.2269 60.15 63.4202 59.7545 62.8824C59.4909 62.479 59.4909 61.8067 59.7545 61.2689C60.15 60.7311 60.4136 59.9244 60.2818 59.2521C60.2818 58.7143 60.5455 58.1765 61.0727 57.9076C61.7318 57.6387 62.2591 57.1008 62.5227 56.4286C62.7864 55.8908 63.3136 55.6219 63.8409 55.6219C64.5 55.7563 65.2909 55.4874 65.8182 55.084C66.2136 54.8151 66.8727 54.8151 67.4 55.084C67.9273 55.4874 68.7182 55.7563 69.3773 55.6219C69.9045 55.6219 70.4318 55.8908 70.6955 56.4286C70.9591 57.1008 71.4864 57.6387 72.1455 57.9076C72.6727 58.1765 72.9364 58.7143 72.9364 59.2521C72.8045 59.9244 73.0682 60.7311 73.4636 61.2689C73.7273 61.6723 73.7273 62.3445 73.4636 62.8824C73.0682 63.4202 72.8045 64.2269 72.9364 64.8992C72.9364 65.437 72.6727 65.9748 72.1455 66.2437C71.75 66.3782 71.3545 66.6471 71.0909 67.0504C70.9591 67.1849 70.8273 67.4538 70.6955 67.7227C70.4318 68.2605 69.9045 68.5294 69.3773 68.5294C68.7182 68.395 67.9273 68.6639 67.4 69.0672C67.1364 69.2017 67.0045 69.3361 66.7409 69.3361ZM71.75 72.4286C71.3545 72.4286 70.9591 72.563 70.6955 72.9664L69.7727 74.4454L68.0591 70.6807C68.1909 70.6807 68.1909 70.5462 68.3227 70.5462C68.5864 70.4118 68.85 70.2773 69.2455 70.2773C70.1682 70.4118 71.0909 70.0084 71.75 69.3361L73.3318 72.6975L71.75 72.4286ZM77.2864 68.1261C77.2864 68.5294 77.0227 68.7983 76.6273 68.7983H73.3318L72.9364 67.8571C72.9364 67.8571 72.9364 67.8571 73.0682 67.8571C74.2545 67.3193 74.9136 66.1092 74.7818 64.7647C74.7818 64.4958 74.7818 64.0924 75.0455 63.8235C75.8364 62.7479 75.8364 61.2689 75.0455 60.1933C74.9136 59.9244 74.7818 59.6555 74.7818 59.2521C74.9136 57.9076 74.2545 56.6975 73.0682 56.1597C72.8045 56.0252 72.5409 55.7563 72.4091 55.4874C71.8818 54.2773 70.6955 53.605 69.3773 53.7395C69.1136 53.7395 68.7182 53.7395 68.4545 53.4706C67.4 52.6639 65.95 52.6639 64.8955 53.4706C64.6318 53.605 64.3682 53.7395 63.9727 53.7395C62.6545 53.605 61.4682 54.2773 60.9409 55.4874C60.8091 55.7563 60.5455 56.0252 60.2818 56.1597C59.0955 56.6975 58.4364 57.9076 58.5682 59.2521C58.5682 59.521 58.5682 59.9244 58.3045 60.1933C57.5136 61.2689 57.5136 62.7479 58.3045 63.8235C58.4364 64.0924 58.5682 64.3613 58.5682 64.7647C58.4364 66.1092 59.0955 67.3193 60.2818 67.8571C60.2818 67.8571 60.2818 67.8571 60.4136 67.8571L59.8864 68.7983H23.3727C22.9773 68.7983 22.7136 68.5294 22.7136 68.1261V31.4202C22.7136 31.0168 22.9773 30.7479 23.3727 30.7479H76.6273C77.0227 30.7479 77.2864 31.0168 77.2864 31.4202V68.1261V68.1261ZM66.4773 56.563C63.5773 56.563 61.2045 58.9832 61.2045 61.9412C61.2045 64.8992 63.5773 67.3193 66.4773 67.3193C69.3773 67.3193 71.75 64.8992 71.75 61.9412C71.75 58.9832 69.3773 56.563 66.4773 56.563ZM66.4773 65.7059C64.5 65.7059 62.9182 64.0924 62.9182 62.0756C62.9182 60.0588 64.5 58.4454 66.4773 58.4454C68.4545 58.4454 70.0364 60.0588 70.0364 62.0756C70.0364 63.958 68.4545 65.7059 66.4773 65.7059Z" fill="url(#paint1_linear_1823_660)"/>
<defs>
<linearGradient id="paint0_linear_1823_660" x1="0" y1="100" x2="100" y2="0" gradientUnits="userSpaceOnUse">
<stop stop-color="#FE5000"/>
<stop offset="1" stop-color="#FE9800"/>
</linearGradient>
<linearGradient id="paint1_linear_1823_660" x1="32.9625" y1="77" x2="81.8265" y2="58.5212" gradientUnits="userSpaceOnUse">
<stop stop-color="#FE5000"/>
<stop offset="1" stop-color="#FCA92A"/>
</linearGradient>
</defs>
</svg>
