<svg width="100" height="100" viewBox="0 0 100 100" fill="none" xmlns="http://www.w3.org/2000/svg">
<circle cx="50" cy="50" r="49.5" stroke="url(#paint0_linear_1823_647)"/>
<path d="M68.5455 77H42.3636C39.3091 77 36.9091 74.525 36.9091 71.375V37.625C36.9091 34.475 39.3091 32 42.3636 32H68.5455C71.6 32 74 34.475 74 37.625V71.375C74 74.525 71.6 77 68.5455 77ZM42.3636 34.25C40.5091 34.25 39.0909 35.7125 39.0909 37.625V71.375C39.0909 73.2875 40.5091 74.75 42.3636 74.75H68.5455C70.4 74.75 71.8182 73.2875 71.8182 71.375V37.625C71.8182 35.7125 70.4 34.25 68.5455 34.25H42.3636ZM33.6364 70.25H31.4545C28.4 70.25 26 67.775 26 64.625V28.625C26 25.475 28.4 23 31.4545 23H57.6364C60.6909 23 63.0909 25.475 63.0909 28.625C63.0909 29.3 62.6545 29.75 62 29.75C61.3455 29.75 60.9091 29.3 60.9091 28.625C60.9091 26.7125 59.4909 25.25 57.6364 25.25H31.4545C29.6 25.25 28.1818 26.7125 28.1818 28.625V64.625C28.1818 66.5375 29.6 68 31.4545 68H33.6364C34.2909 68 34.7273 68.45 34.7273 69.125C34.7273 69.8 34.2909 70.25 33.6364 70.25ZM64.1818 61.25H46.7273C46.0727 61.25 45.6364 60.8 45.6364 60.125C45.6364 59.45 46.0727 59 46.7273 59H64.1818C64.8364 59 65.2727 59.45 65.2727 60.125C65.2727 60.8 64.8364 61.25 64.1818 61.25ZM64.1818 70.25H46.7273C46.0727 70.25 45.6364 69.8 45.6364 69.125C45.6364 68.45 46.0727 68 46.7273 68H64.1818C64.8364 68 65.2727 68.45 65.2727 69.125C65.2727 69.8 64.8364 70.25 64.1818 70.25ZM64.1818 52.25H46.7273C46.0727 52.25 45.6364 51.8 45.6364 51.125C45.6364 50.45 46.0727 50 46.7273 50H64.1818C64.8364 50 65.2727 50.45 65.2727 51.125C65.2727 51.8 64.8364 52.25 64.1818 52.25ZM64.1818 43.25H46.7273C46.0727 43.25 45.6364 42.8 45.6364 42.125C45.6364 41.45 46.0727 41 46.7273 41H64.1818C64.8364 41 65.2727 41.45 65.2727 42.125C65.2727 42.8 64.8364 43.25 64.1818 43.25Z" fill="url(#paint1_linear_1823_647)"/>
<defs>
<linearGradient id="paint0_linear_1823_647" x1="0" y1="100" x2="100" y2="0" gradientUnits="userSpaceOnUse">
<stop stop-color="#FE5000"/>
<stop offset="1" stop-color="#FE9800"/>
</linearGradient>
<linearGradient id="paint1_linear_1823_647" x1="35.9" y1="77" x2="78.8022" y2="65.0649" gradientUnits="userSpaceOnUse">
<stop stop-color="#FE5000"/>
<stop offset="1" stop-color="#FCA92A"/>
</linearGradient>
</defs>
</svg>
