<svg width="100" height="100" viewBox="0 0 100 100" fill="none" xmlns="http://www.w3.org/2000/svg">
<circle cx="50" cy="50" r="49.5" stroke="url(#paint0_linear_1823_687)"/>
<path d="M49.5269 26.7596C50.4138 26.7596 51.1394 27.4736 51.1394 28.3462C51.1394 29.2187 50.4138 29.9327 49.5269 29.9327C48.64 29.9327 47.9144 29.2187 47.9144 28.3462C47.9144 27.4736 48.64 26.7596 49.5269 26.7596ZM71 34.6923C71 32.3522 69.0784 30.4615 66.7 30.4615H60.7338C59.9409 29.5889 58.9197 28.9279 57.7372 28.5974C56.7428 28.3197 55.9903 27.5661 55.6947 26.5877C54.9288 23.9435 52.4428 22 49.5 22C46.5572 22 44.0712 23.9435 43.3053 26.5877C43.0231 27.5661 42.2572 28.3065 41.2628 28.5974C40.0938 28.9279 39.0725 29.5889 38.2663 30.4615H32.3C29.9216 30.4615 28 32.3522 28 34.6923V72.7692C28 75.1094 29.9216 77 32.3 77C42.1766 77 54.3106 77 66.7 77C69.0784 77 71 75.1094 71 72.7692C71 60.7512 71 49.2488 71 34.6923ZM38.75 34.6526C38.7634 32.7885 40.04 31.1358 41.8541 30.6202C43.5606 30.131 44.8775 28.8486 45.3613 27.1695C45.8988 25.3714 47.5919 24.1154 49.5 24.1154C51.4081 24.1154 53.1013 25.3714 53.6388 27.1695C54.1359 28.8486 55.4394 30.1442 57.1459 30.6202C58.9734 31.149 60.25 32.8149 60.25 34.6923V36.8077H38.75V34.6526ZM66.7 74.8846C55.2109 74.8846 43.7488 74.8846 32.3 74.8846C31.1175 74.8846 30.15 73.9327 30.15 72.7692V34.6923C30.15 33.5288 31.1175 32.5769 32.3 32.5769H36.9628C36.7344 33.2248 36.6 33.9123 36.6 34.6394V38.9231H62.4V34.6923C62.4 33.9519 62.2656 33.238 62.0238 32.5769H66.7C67.8825 32.5769 68.85 33.5288 68.85 34.6923C68.85 40.7344 68.85 69.107 68.85 72.7692C68.85 73.9327 67.8825 74.8846 66.7 74.8846ZM58.4359 47.7151L45.5091 60.4339L39.825 54.8281L38.3066 56.3221L45.5225 63.4219L59.9678 49.2091L58.4359 47.7151Z" fill="url(#paint1_linear_1823_687)"/>
<defs>
<linearGradient id="paint0_linear_1823_687" x1="0" y1="100" x2="100" y2="0" gradientUnits="userSpaceOnUse">
<stop stop-color="#FE5000"/>
<stop offset="1" stop-color="#FE9800"/>
</linearGradient>
<linearGradient id="paint1_linear_1823_687" x1="36.8688" y1="77" x2="75.9373" y2="67.4406" gradientUnits="userSpaceOnUse">
<stop stop-color="#FE5000"/>
<stop offset="1" stop-color="#FCA92A"/>
</linearGradient>
</defs>
</svg>
