<svg width="100" height="100" viewBox="0 0 100 100" fill="none" xmlns="http://www.w3.org/2000/svg">
<circle cx="50" cy="50" r="49.5" stroke="#7F94A8"/>
<path d="M49.2478 28H36.4188C32.8816 28 30 30.881 30 34.4176V65.5824C30 69.1104 32.8816 71.9914 36.4188 71.9914H38.2478C38.7569 71.9914 39.1624 71.5773 39.1624 71.077C39.1624 70.5681 38.7482 70.1627 38.2478 70.1627H36.4188C33.891 70.1627 31.8376 68.1098 31.8376 65.5824V34.4176C31.8376 31.8902 33.891 29.8373 36.4188 29.8373H49.2478C51.7757 29.8373 53.829 31.8902 53.829 34.4176V43.5867C53.829 44.0957 54.2431 44.5011 54.7435 44.5011C55.2439 44.5011 55.658 44.087 55.658 43.5867V34.4176C55.6667 30.881 52.7851 28 49.2478 28ZM54.7522 35.3319H30.9145C30.4141 35.3319 30 35.7459 30 36.2462C30 36.7465 30.4141 37.1606 30.9145 37.1606H54.7435C55.2526 37.1606 55.658 36.7465 55.658 36.2462C55.658 35.7459 55.2526 35.3319 54.7522 35.3319ZM46.4957 60.9935H30.9145C30.4141 60.9935 30 61.4076 30 61.9079C30 62.4168 30.4141 62.8222 30.9145 62.8222H46.4957C47.0047 62.8222 47.4102 62.4082 47.4102 61.9079C47.4188 61.4076 47.0047 60.9935 46.4957 60.9935ZM45.5812 31.6659H40.0769C39.5678 31.6659 39.1624 32.08 39.1624 32.5803C39.1624 33.0806 39.5765 33.4946 40.0769 33.4946H45.5812C46.0902 33.4946 46.4957 33.0806 46.4957 32.5803C46.4957 32.08 46.0902 31.6659 45.5812 31.6659ZM49.291 31.6659H49.2737C48.7647 31.6659 48.3678 32.08 48.3678 32.5803C48.3678 33.0806 48.7906 33.4946 49.291 33.4946C49.7914 33.4946 50.2055 33.0806 50.2055 32.5803C50.2055 32.08 49.7914 31.6659 49.291 31.6659ZM71.3773 52.2556L64.4839 44.6822C63.1208 43.3194 60.8949 43.3193 59.5231 44.6908C59.0831 45.1308 58.7898 45.6483 58.6345 46.209C57.2627 45.1566 55.2871 45.2601 54.0188 46.5281C53.5875 46.968 53.2855 47.4856 53.1302 48.0463C51.7584 46.9939 49.7827 47.0974 48.5231 48.3654C48.0918 48.7967 47.7984 49.3056 47.6431 49.8404L44.3906 46.5885C43.0275 45.2256 40.8016 45.2256 39.4298 46.5971C38.0667 47.96 38.0667 50.1855 39.4298 51.5483L51.9137 64.0384L44.5114 65.2029C42.5098 65.4876 41 67.23 41 69.2484C41 70.7665 42.2337 72 43.7522 72H61.0416C63.7333 72 66.2698 70.9477 68.1678 69.05L71.0494 66.169C72.9561 64.2713 74 61.7353 74 59.0527C74 56.5254 73.0682 54.1188 71.3773 52.2556ZM69.7553 64.8579L66.8737 67.7389C65.3122 69.3001 63.2416 70.1541 61.0416 70.1541H43.7522C43.2431 70.1541 42.8376 69.7401 42.8376 69.2398C42.8376 68.127 43.6659 67.1696 44.7875 67.0057L53.9843 65.5652C54.3294 65.5134 54.6055 65.2719 54.7176 64.9441C54.8212 64.6164 54.7349 64.2541 54.4933 64.0125L40.7239 50.2545C40.0769 49.6075 40.0769 48.5466 40.7325 47.8824C41.0604 47.5546 41.4831 47.3907 41.9145 47.3907C42.3459 47.3907 42.7686 47.5546 43.0965 47.8824L52.2675 57.0516C52.6212 57.4052 53.2078 57.4052 53.5616 57.0516C53.7427 56.8704 53.829 56.6375 53.829 56.4046C53.829 56.1717 53.7427 55.9388 53.5616 55.7577L49.8173 52.0141C49.1702 51.3672 49.1702 50.3062 49.8259 49.642C50.4729 48.9951 51.5341 48.9951 52.1812 49.642L55.9255 53.3856C56.2792 53.7393 56.8659 53.7393 57.2196 53.3856C57.4008 53.2045 57.4871 52.9716 57.4871 52.7387C57.4871 52.5058 57.4008 52.2729 57.2282 52.1004L55.3129 50.1855C54.6659 49.5385 54.6659 48.4776 55.3216 47.8134C55.9686 47.1664 57.0298 47.1664 57.6769 47.8134L59.5922 49.7283C59.9545 50.0647 60.5153 50.0647 60.869 49.711C61.2227 49.3574 61.2227 48.7708 60.869 48.4172L60.7914 48.3395C60.4722 48.0204 60.2996 47.6064 60.2996 47.1578C60.2996 46.7093 60.4722 46.2952 60.8 45.9675C61.4471 45.3205 62.5082 45.3205 63.1294 45.933L69.9969 53.4719C71.3773 54.99 72.1365 56.9567 72.1365 59.0182C72.171 61.2351 71.3082 63.3052 69.7553 64.8579Z" fill="#7F94A8"/>
</svg>
