<svg width="100" height="100" viewBox="0 0 100 100" fill="none" xmlns="http://www.w3.org/2000/svg">
<circle cx="50" cy="50" r="49.5" stroke="#7F94A8"/>
<path d="M73.5594 37.3256L74.9469 33.6251C75.0113 33.4533 75.0173 33.265 74.9637 33.0896C74.9102 32.9141 74.8003 32.7611 74.651 32.6545C74.5018 32.5479 74.3215 32.4935 74.1381 32.4997C73.9548 32.506 73.7786 32.5726 73.6369 32.6893L60.283 43.6875C59.9184 43.9891 59.6467 44.3879 59.4995 44.8375C59.3522 45.2873 59.3355 45.7696 59.4513 46.2283C59.5262 46.5218 59.6098 46.8461 59.6909 47.1562C59.7514 47.3901 59.7376 47.637 59.6512 47.8626C59.5648 48.0882 59.4103 48.2812 59.209 48.4148L59.1762 48.4367C58.9628 48.5791 58.7075 48.6452 58.4518 48.6244C58.196 48.6036 57.9547 48.497 57.7671 48.322L55.7829 45.4982L55.3062 43.1146C55.2243 42.711 55.2233 42.2954 55.3032 41.8914C55.3832 41.4875 55.5424 41.1034 55.7717 40.7615C56.1591 40.1824 56.7277 39.7481 57.3883 39.5267C57.6675 39.4328 57.9626 39.3952 58.2564 39.4161C58.5503 39.4369 58.837 39.5158 59.1002 39.6483L61.2941 40.7453C61.4366 40.8165 61.5966 40.8454 61.7551 40.8284C61.9135 40.8115 62.0638 40.7496 62.1881 40.6498C62.3124 40.5502 62.4055 40.4169 62.4564 40.2658C62.5072 40.1149 62.5138 39.9524 62.4752 39.7979L61.9405 37.6591C61.7666 36.9636 61.3837 36.338 60.8432 35.8668L61.5089 32.555C61.5879 32.1558 61.5187 31.7416 61.3144 31.3897C61.1101 31.0379 60.7845 30.7725 60.3987 30.6433L59.282 30.2683L59.2717 30.2649C59.2371 30.2538 59.2019 30.2456 59.1675 30.2358V29.1668C59.1675 28.9457 59.0796 28.7338 58.9234 28.5775C58.7671 28.4212 58.5551 28.3334 58.3342 28.3334C58.1131 28.3334 57.9011 28.4212 57.7448 28.5775C57.5886 28.7338 57.5008 28.9457 57.5008 29.1668V30.2354C57.466 30.2452 57.4306 30.2534 57.3967 30.2645L57.3862 30.2679L56.2717 30.6424C55.8853 30.7714 55.5593 31.0369 55.3546 31.3891C55.15 31.7412 55.0808 32.1559 55.1599 32.5554L55.696 35.2232C55.2792 35.324 54.8715 35.4588 54.4767 35.6261L53.4213 34.0428L54.462 30.9203C54.663 30.3154 54.6257 29.6566 54.3575 29.0783C54.0893 28.5 53.6105 28.0458 53.019 27.8085L50.8352 26.9351V25.8335C50.8352 25.6124 50.7474 25.4005 50.5911 25.2442C50.4349 25.0879 50.2228 25.0001 50.0018 25.0001C49.7808 25.0001 49.5689 25.0879 49.4126 25.2442C49.2564 25.4005 49.1685 25.6124 49.1685 25.8335V26.9354L46.983 27.8089C46.3914 28.0462 45.9128 28.5004 45.6446 29.0786C45.3763 29.6569 45.3389 30.3157 45.5398 30.9206L46.5807 34.0431L45.5254 35.6264C45.1306 35.4591 44.7228 35.3243 44.3059 35.2235L44.8423 32.555C44.9214 32.1558 44.8523 31.7414 44.6479 31.3895C44.4436 31.0375 44.1179 30.7721 43.732 30.6429L42.6154 30.2679L42.6049 30.2645C42.5705 30.2533 42.5352 30.2452 42.5007 30.2354V29.1668C42.5007 28.9457 42.413 28.7338 42.2566 28.5775C42.1004 28.4212 41.8885 28.3334 41.6674 28.3334C41.4464 28.3334 41.2345 28.4212 41.0781 28.5775C40.9219 28.7338 40.8341 28.9457 40.8341 29.1668V30.2354C40.7993 30.2452 40.764 30.2534 40.7299 30.2645L40.7195 30.2679L39.6049 30.6424C39.2186 30.7714 38.8926 31.0369 38.6879 31.389C38.4832 31.7412 38.414 32.1559 38.4931 32.5554L39.1585 35.8664C38.6181 36.3376 38.2353 36.9631 38.0614 37.6587L37.5267 39.7974C37.488 39.9521 37.4945 40.1145 37.5454 40.2655C37.5962 40.4165 37.6894 40.5498 37.8137 40.6496C37.938 40.7492 38.0882 40.8112 38.2468 40.8281C38.4052 40.845 38.5652 40.8161 38.7078 40.7448L40.9018 39.648C41.1648 39.5155 41.4516 39.4365 41.7455 39.4156C42.0392 39.3947 42.3344 39.4323 42.6136 39.5263C43.2742 39.7477 43.8428 40.182 44.2301 40.7612C44.4595 41.1031 44.6187 41.4872 44.6986 41.8911C44.7784 42.2949 44.7775 42.7107 44.6956 43.1142L44.2191 45.4973L42.2347 48.3212C42.0471 48.4964 41.8057 48.6031 41.5498 48.6239C41.294 48.6447 41.0386 48.5784 40.8252 48.4358L40.7929 48.4144C40.5916 48.2808 40.437 48.0878 40.3506 47.8623C40.2643 47.6367 40.2504 47.3898 40.3109 47.1559C40.3921 46.8458 40.4755 46.5215 40.5505 46.2281C40.6662 45.7692 40.6496 45.2869 40.5023 44.8372C40.3551 44.3874 40.0834 43.9887 39.7187 43.6871L26.3632 32.6897C26.2216 32.573 26.0455 32.5063 25.8621 32.5C25.6788 32.4936 25.4985 32.548 25.3491 32.6546C25.1998 32.7612 25.0899 32.9141 25.0363 33.0895C24.9827 33.265 24.9886 33.4533 25.0529 33.6251L26.4404 37.3252C27.2212 39.4042 28.5282 41.245 30.2336 42.6676L30.6161 42.9863L26.7699 42.5056C26.6115 42.4857 26.4507 42.5118 26.3067 42.5808C26.1627 42.6497 26.0416 42.7585 25.9576 42.8943C25.8737 43.0301 25.8305 43.1872 25.8333 43.3468C25.836 43.5064 25.8846 43.6618 25.9731 43.7947C27.1506 45.5683 28.859 46.924 30.8538 47.6677L31.4443 47.8891L27.4078 48.3375C27.2345 48.3568 27.0716 48.4299 26.9421 48.5466C26.8126 48.6633 26.7229 48.8177 26.6857 48.9881C26.6486 49.1584 26.6657 49.3361 26.7349 49.4962C26.804 49.6562 26.9216 49.7906 27.0712 49.8803L28.5321 50.7573C30.2808 51.8085 32.201 52.5435 34.2048 52.9284C32.929 53.8047 31.8322 54.9164 30.9732 56.2039C30.8894 56.3294 30.8413 56.4754 30.8339 56.6261C30.8266 56.7769 30.8603 56.9268 30.9316 57.0598C31.0028 57.1929 31.1088 57.3041 31.2383 57.3816C31.3678 57.4591 31.5159 57.5001 31.6669 57.4999H31.9955C33.6131 57.5014 35.2101 57.1369 36.6668 56.4336V58.3332C36.6669 58.4981 36.7158 58.6591 36.8073 58.7962C36.8989 58.9331 37.029 59.0399 37.1813 59.103C37.3335 59.1661 37.5011 59.1825 37.6627 59.1504C37.8243 59.1182 37.9728 59.0389 38.0893 58.9224L40.0002 57.0118L41.0776 58.0891C41.1647 58.1763 41.2702 58.243 41.3863 58.2845C41.5023 58.3261 41.6262 58.3413 41.7489 58.3291C41.8715 58.317 41.99 58.2778 42.0957 58.2143C42.2014 58.1508 42.2917 58.0647 42.3602 57.9621L43.1023 56.8489C43.3608 56.4605 43.7324 56.1609 44.1667 55.9906V56.1165C44.1655 56.7795 43.9029 57.4152 43.4358 57.8856L42.8442 58.4773C42.2046 59.1136 41.6975 59.8704 41.3524 60.7039C41.0073 61.5374 40.8308 62.4311 40.8335 63.3332C40.8336 63.5376 40.9088 63.7349 41.0449 63.8874C41.181 64.04 41.3683 64.1372 41.5714 64.1606L41.0929 65.1177L40.0527 65.3781L37.9263 63.0001C38.214 62.5431 38.3459 62.0051 38.3021 61.467C38.2584 60.9287 38.0413 60.4191 37.6836 60.0146C37.3258 59.61 36.8466 59.3324 36.3177 59.2232C35.7888 59.114 35.2388 59.1793 34.7501 59.4089C34.2614 59.6387 33.8603 60.0206 33.6069 60.4975C33.3535 60.9745 33.2616 61.5206 33.3448 62.0542C33.428 62.5878 33.6819 63.08 34.0685 63.4572C34.455 63.8342 34.9533 64.0759 35.4888 64.1459C35.5971 64.1601 35.7062 64.1673 35.8154 64.1673C36.087 64.1666 36.3567 64.1212 36.6136 64.0329L38.2251 65.8349L38.1313 65.8583C38.0252 65.8849 37.9252 65.9321 37.8373 65.9973C37.7494 66.0624 37.6751 66.1442 37.6188 66.2381C37.5051 66.4276 37.4713 66.6546 37.525 66.869C37.5786 67.0834 37.7152 67.2677 37.9047 67.3815C38.0942 67.4951 38.3212 67.5289 38.5355 67.4753L39.4835 67.2384L40.2148 68.0498C40.2881 68.131 40.3766 68.1972 40.4755 68.2442C40.5743 68.2912 40.6814 68.3184 40.7906 68.3241C40.8999 68.3298 41.0093 68.3139 41.1124 68.2773C41.2156 68.2407 41.3105 68.1841 41.3918 68.1108C41.4731 68.0375 41.5391 67.949 41.5862 67.8502C41.6332 67.7514 41.6604 67.6443 41.6661 67.535C41.6718 67.4257 41.6558 67.3164 41.6193 67.2132C41.5827 67.1101 41.5261 67.0151 41.4529 66.9339L41.3147 66.7806L41.8693 66.6419C41.986 66.6129 42.0948 66.5588 42.1887 66.4835C42.2824 66.4083 42.3588 66.3136 42.4125 66.2062L43.4317 64.1666H44.1667C44.3215 64.1666 44.4732 64.1234 44.6049 64.0421C44.7365 63.9607 44.8429 63.8442 44.9121 63.7058C45.2595 63.0067 45.7749 62.4048 46.4121 61.9538L46.6491 62.3093L44.6834 65.7491C43.7995 67.2977 43.3341 69.05 43.3334 70.8332C43.3334 71.0542 43.4213 71.2662 43.5775 71.4225C43.7338 71.5787 43.9458 71.6666 44.1667 71.6666C44.3878 71.6666 44.5998 71.5787 44.7561 71.4225C44.9123 71.2662 45.0001 71.0542 45.0001 70.8332C45.0007 69.34 45.3904 67.8728 46.1306 66.576L47.2689 64.5842L47.1691 64.8335C46.2698 67.069 46.1026 69.5322 46.6917 71.8686C46.7179 71.9752 46.7648 72.0755 46.8298 72.164C46.8948 72.2524 46.9767 72.3271 47.0707 72.3837C47.1647 72.4404 47.2689 72.478 47.3775 72.4943C47.486 72.5105 47.5967 72.5052 47.7032 72.4786C47.8097 72.452 47.9098 72.4046 47.998 72.3392C48.086 72.2737 48.1604 72.1916 48.2166 72.0973C48.2729 72.003 48.3099 71.8986 48.3257 71.79C48.3415 71.6813 48.3357 71.5707 48.3085 71.4643C47.8052 69.4677 47.9481 67.3628 48.7166 65.4525L48.7269 65.426L49.1666 66.0855V74.1666C49.1666 74.3876 49.2543 74.5995 49.4106 74.7558C49.5669 74.912 49.7789 74.9998 49.9999 74.9998C50.2209 74.9998 50.4328 74.912 50.5891 74.7558C50.7455 74.5995 50.8332 74.3876 50.8332 74.1666V66.085L51.2728 65.4256L51.2832 65.4521C52.0517 67.3624 52.1945 69.4673 51.6912 71.464C51.6641 71.5703 51.6583 71.681 51.6741 71.7895C51.6899 71.8982 51.7269 72.0026 51.7832 72.0968C51.8394 72.1911 51.9137 72.2733 52.0018 72.3387C52.09 72.4042 52.1901 72.4516 52.2966 72.4782C52.4031 72.5049 52.5137 72.5102 52.6223 72.4938C52.7309 72.4776 52.8351 72.4401 52.9291 72.3834C53.0231 72.3267 53.105 72.252 53.17 72.1636C53.235 72.0752 53.2819 71.9748 53.3081 71.8682C53.897 69.5317 53.7299 67.0686 52.8306 64.8331L52.7308 64.5831L53.8692 66.5753C54.6096 67.8723 54.9994 69.3398 55.0001 70.8332C55.0001 71.0542 55.0878 71.2662 55.2442 71.4225C55.4004 71.5787 55.6124 71.6666 55.8334 71.6666C56.0544 71.6666 56.2663 71.5787 56.4227 71.4225C56.5789 71.2662 56.6667 71.0542 56.6667 70.8332C56.666 69.05 56.2006 67.2977 55.3167 65.7491L53.3509 62.3093L53.5879 61.9538C54.2251 62.4048 54.7404 63.0067 55.0879 63.7058C55.1571 63.8443 55.2635 63.9607 55.3952 64.0422C55.5269 64.1235 55.6786 64.1666 55.8334 64.1666H56.5684L57.588 66.2058C57.6418 66.3133 57.718 66.4079 57.8118 66.483C57.9054 66.5582 58.0142 66.6123 58.1306 66.6415L60.2863 67.1822C60.5148 67.6984 60.8707 68.1482 61.3206 68.4893C61.7705 68.8304 62.2996 69.0516 62.8585 69.1323C63.4172 69.2128 63.9873 69.1502 64.5153 68.9502C65.0433 68.7501 65.5117 68.4193 65.8768 67.9886C66.242 67.5581 66.4917 67.0417 66.6026 66.4882C66.7137 65.9346 66.6822 65.3619 66.5113 64.8239C66.3403 64.2857 66.0355 63.7999 65.6254 63.4118C65.2153 63.0238 64.7133 62.7463 64.1666 62.6054V61.6666C64.1666 61.4456 64.0789 61.2336 63.9227 61.0773C63.7663 60.9211 63.5544 60.8332 63.3333 60.8332C63.1123 60.8332 62.9004 60.9211 62.7441 61.0773C62.5878 61.2336 62.5 61.4456 62.5 61.6666V62.6054C61.8571 62.7728 61.2787 63.1279 60.8386 63.6256C60.3985 64.1233 60.1167 64.7408 60.0292 65.3993L58.9076 65.1181L58.4284 64.1607C58.6315 64.1374 58.819 64.0402 58.9552 63.8876C59.0913 63.735 59.1667 63.5378 59.1667 63.3332C59.1693 62.4312 58.993 61.5374 58.6479 60.7039C58.3028 59.8704 57.7959 59.1136 57.1563 58.4773L56.5646 57.8856C56.0977 57.4152 55.8351 56.7795 55.8337 56.1165V55.9906C56.268 56.1609 56.6396 56.4605 56.8981 56.8489L57.6404 57.9621C57.7087 58.0647 57.799 58.1508 57.9047 58.2143C58.0104 58.2778 58.1289 58.317 58.2517 58.3291C58.3743 58.3413 58.4981 58.3261 58.6143 58.2845C58.7303 58.243 58.8358 58.1763 58.9229 58.0891L60.0004 57.0118L61.9111 58.9224C62.0277 59.0389 62.1761 59.1181 62.3377 59.1503C62.4993 59.1823 62.6668 59.1658 62.8189 59.1028C62.9712 59.0397 63.1013 58.933 63.1928 58.796C63.2844 58.659 63.3332 58.498 63.3333 58.3332V56.4331C64.79 57.1367 66.3871 57.5013 68.0047 57.4999H68.3333C68.4841 57.4999 68.6322 57.459 68.7616 57.3815C68.8909 57.3039 68.9968 57.1928 69.0681 57.0598C69.1392 56.9268 69.173 56.777 69.1657 56.6263C69.1584 56.4756 69.1104 56.3298 69.0266 56.2044C68.1676 54.9169 67.0709 53.8052 65.7953 52.9288C67.7989 52.5438 69.7191 51.809 71.4678 50.7577L72.9287 49.8811C73.0782 49.7915 73.1958 49.657 73.265 49.497C73.3341 49.3369 73.3514 49.1592 73.3142 48.9889C73.2769 48.8185 73.1873 48.6642 73.0577 48.5474C72.9282 48.4307 72.7653 48.3576 72.592 48.3383L68.5556 47.8899L69.1459 47.6685C71.1408 46.9249 72.8492 45.5692 74.0267 43.7956C74.1154 43.6627 74.1641 43.5072 74.1669 43.3474C74.1698 43.1877 74.1266 43.0306 74.0426 42.8947C73.9586 42.7588 73.8374 42.6499 73.6933 42.581C73.5491 42.5121 73.3883 42.486 73.2298 42.5059L69.3835 42.9867L69.766 42.6681C71.4715 41.2455 72.7786 39.4047 73.5594 37.3256ZM35.7057 62.4926C35.4963 62.4647 35.3053 62.3583 35.1713 62.195C35.0373 62.0316 34.9704 61.8234 34.9841 61.6126C34.9978 61.4019 35.091 61.204 35.2449 61.0594C35.3989 60.9147 35.602 60.8339 35.8133 60.8332C35.9855 60.833 36.1535 60.8861 36.2942 60.9853C36.435 61.0845 36.5414 61.2249 36.5989 61.3872C36.6566 61.5495 36.6623 61.7256 36.6155 61.8914C36.5688 62.0571 36.4718 62.2041 36.3379 62.3124C36.3216 62.3236 36.3058 62.3356 36.2902 62.348C36.1202 62.4675 35.9117 62.5191 35.7057 62.4926ZM63.3333 67.4999C63.0412 67.4995 62.7543 67.4223 62.5013 67.276C62.2483 67.1298 62.0383 66.9196 61.8922 66.6666H64.7745C64.6284 66.9196 64.4183 67.1298 64.1654 67.276C63.9124 67.4223 63.6255 67.4995 63.3333 67.4999ZM64.7745 64.9999H64.1666V64.3921C64.4187 64.5384 64.6282 64.7479 64.7745 64.9999ZM62.5 64.3921V64.9999H61.8922C62.0385 64.7477 62.248 64.5382 62.5 64.3917V64.3921ZM45.8334 46.6667H54.1667V56.2987C54.1669 56.4737 54.1119 56.6442 54.0096 56.7861C53.9074 56.928 53.7629 57.0342 53.5969 57.0894L50.0001 58.2882L46.4032 57.0894C46.2372 57.0342 46.0929 56.928 45.9905 56.7861C45.8882 56.6442 45.8333 56.4737 45.8334 56.2987V46.6667ZM59.8455 38.1573C59.3869 37.9264 58.8869 37.7887 58.3747 37.7523C57.8625 37.7158 57.348 37.7814 56.8613 37.9452C55.8493 38.2843 54.9784 38.9495 54.385 39.8366C54.0337 40.3604 53.7899 40.9486 53.6674 41.5673C53.545 42.1859 53.5465 42.8226 53.6718 43.4407L53.9836 45H50.9609L51.3851 42.0313C51.5977 40.5424 52.3403 39.1802 53.4765 38.1948C54.6127 37.2094 56.0662 36.6668 57.5702 36.6668H58.5347C58.9459 36.6666 59.3452 36.8039 59.6693 37.0569C59.9934 37.3098 60.2237 37.6638 60.3236 38.0626L60.4189 38.4435L59.8455 38.1573ZM56.7987 32.2229L57.9094 31.8499C58.1853 31.7634 58.481 31.7634 58.7568 31.8499L59.8747 32.2273L59.3003 35.0857C59.049 35.0291 58.7922 35.0003 58.5347 34.9998H57.5702C57.497 34.9998 57.4242 35.0008 57.3514 35.0029L56.7987 32.2229ZM47.6021 29.3563L50.0001 28.3971L52.3982 29.3563C52.5954 29.4355 52.755 29.5868 52.8443 29.7796C52.9337 29.9723 52.9462 30.1919 52.8792 30.3935L51.8994 33.3334H48.1007L47.1209 30.394C47.0538 30.1923 47.0663 29.9726 47.1557 29.7797C47.245 29.5869 47.4048 29.4354 47.6021 29.3563ZM47.9458 34.9995H52.054L53.0135 36.4389C51.5739 37.4556 50.5136 38.9227 49.9999 40.6086C49.486 38.9228 48.4258 37.4557 46.9863 36.4389L47.9458 34.9995ZM41.2429 31.8499C41.5187 31.7633 41.8144 31.7633 42.0903 31.8499L43.2081 32.2272L42.6504 35.0028C42.5772 35.0008 42.5037 34.9997 42.43 34.9996H41.4655C41.2083 35.0001 40.952 35.0289 40.7011 35.0854L40.132 32.2229L41.2429 31.8499ZM43.1387 37.9452C42.652 37.7814 42.1375 37.7158 41.6253 37.7522C41.113 37.7887 40.6131 37.9264 40.1544 38.1573L39.5815 38.4439L39.6768 38.0629C39.7765 37.664 40.0068 37.3101 40.3309 37.057C40.6549 36.804 41.0544 36.6666 41.4655 36.6668H42.43C43.934 36.6668 45.3875 37.2093 46.5238 38.1947C47.6599 39.1802 48.4025 40.5424 48.6151 42.0313L49.0392 45H46.0167L46.3283 43.4416C46.4537 42.8235 46.4551 42.1867 46.3328 41.5681C46.2104 40.9495 45.9665 40.3612 45.6153 39.8374C45.0218 38.95 44.1509 38.2845 43.1389 37.9452H43.1387ZM41.7154 55.9243L41.537 56.1917L40.5891 55.2437C40.4328 55.0875 40.2209 54.9996 39.9998 54.9996C39.7789 54.9996 39.567 55.0875 39.4106 55.2437L38.3332 56.3211V55C38.3332 54.8492 38.2923 54.7011 38.2148 54.5717C38.1373 54.4422 38.0262 54.3363 37.8931 54.2652C37.7602 54.1939 37.6104 54.1602 37.4597 54.1675C37.309 54.1748 37.1631 54.2228 37.0377 54.3066C35.9698 55.0197 34.7626 55.4979 33.496 55.7094C34.331 54.8339 35.3111 54.1096 36.3929 53.5681L37.0387 53.2453C37.1961 53.1666 37.3245 53.0401 37.4056 52.8839C37.4868 52.7278 37.5163 52.55 37.4902 52.376C37.464 52.202 37.3835 52.0408 37.2601 51.9153C37.1365 51.79 36.9767 51.7068 36.803 51.6779L34.9156 51.3633C33.2241 51.0828 31.59 50.5273 30.078 49.7187L35.0922 49.1617C35.2783 49.141 35.4521 49.0582 35.5855 48.9267C35.7188 48.7951 35.804 48.6225 35.8271 48.4366C35.8503 48.2507 35.8102 48.0624 35.7133 47.9022C35.6163 47.7418 35.4682 47.6189 35.2928 47.5532L31.4394 46.1075C30.4238 45.7285 29.4906 45.1575 28.6909 44.4256L33.23 44.9931C33.4087 45.0154 33.5898 44.9792 33.7463 44.89C33.9027 44.8007 34.0261 44.6632 34.0978 44.498C34.1695 44.3327 34.1858 44.1488 34.1441 43.9735C34.1025 43.7983 34.0052 43.6413 33.8668 43.5259L31.3009 41.3876C29.8174 40.1503 28.6805 38.5489 28.0014 36.7404L27.7069 35.9552L38.6577 44.9734C38.7786 45.0733 38.8688 45.2054 38.9177 45.3544C38.9667 45.5034 38.9723 45.6633 38.9342 45.8155C38.8598 46.1058 38.7772 46.4268 38.6969 46.7336C38.5486 47.3032 38.5817 47.9048 38.7914 48.4547C39.0012 49.0045 39.3772 49.4753 39.8672 49.8013L39.8995 49.8228C40.4454 50.1868 41.1015 50.3481 41.7539 50.2784C42.4063 50.2087 43.0136 49.9126 43.4703 49.4415C43.5007 49.4101 43.5286 49.3764 43.5536 49.3406L44.1666 48.4682V50.4167L43.5704 50.8638C43.005 51.2868 42.3227 51.5244 41.6169 51.544C40.9112 51.5636 40.2166 51.3642 39.6288 50.9732C39.5378 50.9125 39.4356 50.8703 39.3282 50.8491C39.2209 50.8278 39.1104 50.8279 39.0031 50.8494C38.8959 50.8709 38.7938 50.9133 38.7028 50.9742C38.6119 51.0351 38.5339 51.1133 38.4731 51.2044C38.4125 51.2954 38.3703 51.3975 38.349 51.5049C38.3278 51.6122 38.3279 51.7227 38.3494 51.8301C38.3709 51.9374 38.4132 52.0394 38.4742 52.1303C38.5351 52.2212 38.6132 52.2993 38.7043 52.36C39.5101 52.896 40.452 53.191 41.4195 53.2104C42.387 53.2299 43.34 52.9728 44.1666 52.4695V54.2568C43.1636 54.4721 42.2843 55.0702 41.7155 55.924L41.7154 55.9243ZM55.9772 59.6556C56.7517 60.4256 57.2617 61.4215 57.4342 62.4999H56.3249C55.6989 61.4633 54.7905 60.6265 53.7061 60.0879C53.5244 59.997 53.3159 59.9756 53.1195 60.0278C52.9233 60.0799 52.7527 60.202 52.6401 60.3709L50.0001 64.3308L47.3601 60.3706C47.2474 60.2016 47.0769 60.0796 46.8807 60.0274C46.6845 59.9753 46.4758 59.9966 46.2942 60.0874C45.2096 60.6263 44.3011 61.4631 43.6753 62.4999H42.566C42.7386 61.4217 43.2486 60.4262 44.0228 59.6562L44.6143 59.0645C44.8374 58.8406 45.0339 58.5919 45.2 58.3231C45.4064 58.4728 45.6343 58.5899 45.8762 58.6706L49.7366 59.9575C49.9076 60.0146 50.0926 60.0146 50.2636 59.9575L54.124 58.6706C54.3658 58.59 54.5938 58.4728 54.8002 58.3231C54.9662 58.5919 55.1628 58.8406 55.3858 59.0645L55.9772 59.6556ZM68.6991 41.3876L66.1332 43.5259C65.9949 43.6413 65.8976 43.7983 65.8559 43.9735C65.8143 44.1488 65.8306 44.3327 65.9023 44.498C65.974 44.6631 66.0973 44.8007 66.2538 44.8899C66.4101 44.9792 66.5913 45.0154 66.77 44.9931L71.3092 44.4256C70.5096 45.1575 69.5764 45.7285 68.5607 46.1075L64.7074 47.5526C64.532 47.6184 64.3839 47.7414 64.287 47.9016C64.1899 48.0619 64.1498 48.2501 64.173 48.436C64.1962 48.6219 64.2814 48.7945 64.4147 48.9261C64.5481 49.0577 64.7219 49.1404 64.908 49.1611L69.9222 49.7182C68.41 50.5268 66.7757 51.0824 65.084 51.3629L63.1965 51.6775C63.0229 51.7065 62.863 51.7895 62.7395 51.915C62.6161 52.0403 62.5355 52.2016 62.5094 52.3755C62.4832 52.5496 62.5128 52.7274 62.5939 52.8836C62.675 53.0397 62.8035 53.1662 62.9608 53.2449L63.6066 53.5678C64.6884 54.1092 65.6684 54.8336 66.5034 55.7089C65.2369 55.4976 64.0296 55.0194 62.9617 54.3061C62.8363 54.2226 62.6904 54.1746 62.5398 54.1675C62.3891 54.1602 62.2394 54.1941 62.1065 54.2653C61.9736 54.3364 61.8624 54.4425 61.785 54.5718C61.7076 54.7012 61.6666 54.8492 61.6666 55V56.3214L60.5893 55.244C60.5119 55.1667 60.4201 55.1053 60.3189 55.0634C60.2178 55.0214 60.1095 55 60.0001 55C59.8906 55 59.7822 55.0214 59.6811 55.0634C59.5801 55.1053 59.4881 55.1667 59.4107 55.244L58.4629 56.1919L58.2845 55.9245C57.716 55.0705 56.8364 54.4722 55.8334 54.2569V52.4687C56.66 52.972 57.6129 53.2289 58.5805 53.2095C59.548 53.1902 60.4899 52.8951 61.2956 52.3592C61.4796 52.2366 61.6072 52.0459 61.6505 51.8292C61.6939 51.6125 61.6494 51.3874 61.5268 51.2035C61.4043 51.0196 61.2136 50.8919 60.9969 50.8486C60.7802 50.8052 60.5551 50.8498 60.3712 50.9724C59.7834 51.3634 59.0888 51.5627 58.3831 51.5432C57.6773 51.5236 56.995 51.286 56.4297 50.863L55.8334 50.4167V48.4687L56.4464 49.3411C56.4716 49.3769 56.4994 49.4107 56.5297 49.442C56.9864 49.9132 57.5938 50.2092 58.2463 50.2788C58.8987 50.3484 59.5548 50.187 60.1006 49.8229L60.1335 49.8011C60.6234 49.4751 60.9993 49.0044 61.2089 48.4545C61.4186 47.9048 61.4515 47.3033 61.3032 46.7339C61.2229 46.4269 61.1403 46.1059 61.0661 45.8156C61.0279 45.6634 61.0336 45.5035 61.0824 45.3546C61.1314 45.2055 61.2215 45.0734 61.3426 44.9735L72.2933 35.9552L71.999 36.7404C71.3198 38.5489 70.1827 40.1503 68.6991 41.3876Z" fill="#7F94A8"/>
</svg>
