<svg width="100" height="100" viewBox="0 0 100 100" fill="none" xmlns="http://www.w3.org/2000/svg">
<circle cx="50" cy="50" r="49.5" stroke="#7F94A8"/>
<path d="M67 75H43C40.2 75 38 72.7083 38 69.7917V38.5417C38 35.625 40.2 33.3333 43 33.3333H67C69.8 33.3333 72 35.625 72 38.5417V69.7917C72 72.7083 69.8 75 67 75ZM43 35.4167C41.3 35.4167 40 36.7708 40 38.5417V69.7917C40 71.5625 41.3 72.9167 43 72.9167H67C68.7 72.9167 70 71.5625 70 69.7917V38.5417C70 36.7708 68.7 35.4167 67 35.4167H43ZM35 68.75H33C30.2 68.75 28 66.4583 28 63.5417V30.2083C28 27.2917 30.2 25 33 25H57C59.8 25 62 27.2917 62 30.2083C62 30.8333 61.6 31.25 61 31.25C60.4 31.25 60 30.8333 60 30.2083C60 28.4375 58.7 27.0833 57 27.0833H33C31.3 27.0833 30 28.4375 30 30.2083V63.5417C30 65.3125 31.3 66.6667 33 66.6667H35C35.6 66.6667 36 67.0833 36 67.7083C36 68.3333 35.6 68.75 35 68.75ZM63 60.4167H47C46.4 60.4167 46 60 46 59.375C46 58.75 46.4 58.3333 47 58.3333H63C63.6 58.3333 64 58.75 64 59.375C64 60 63.6 60.4167 63 60.4167ZM63 68.75H47C46.4 68.75 46 68.3333 46 67.7083C46 67.0833 46.4 66.6667 47 66.6667H63C63.6 66.6667 64 67.0833 64 67.7083C64 68.3333 63.6 68.75 63 68.75ZM63 52.0833H47C46.4 52.0833 46 51.6667 46 51.0417C46 50.4167 46.4 50 47 50H63C63.6 50 64 50.4167 64 51.0417C64 51.6667 63.6 52.0833 63 52.0833ZM63 43.75H47C46.4 43.75 46 43.3333 46 42.7083C46 42.0833 46.4 41.6667 47 41.6667H63C63.6 41.6667 64 42.0833 64 42.7083C64 43.3333 63.6 43.75 63 43.75Z" fill="#7F94A8"/>
</svg>
