<svg width="100" height="100" viewBox="0 0 100 100" fill="none" xmlns="http://www.w3.org/2000/svg">
<circle cx="50" cy="50" r="49.5" stroke="#7F94A8"/>
<g clip-path="url(#clip0_1593_670)">
<path d="M75.5911 35.2371H68.8664L65.9828 28.9845C65.8078 28.6009 65.334 28.4246 64.953 28.6009L62.1313 29.9177L53.5837 23.7688C53.2438 23.52 52.7495 23.6029 52.5024 23.9555L44.5109 35.2371H24.4086C23.9761 35.2371 23.6362 35.5897 23.6362 36.0148V63.9805C23.6362 64.4056 23.9864 64.7582 24.4086 64.7582H31.1334L34.0169 71.0108C34.192 71.3945 34.6554 71.5707 35.0467 71.3945L37.8685 70.0776L46.4161 76.2265C46.7559 76.4754 47.2502 76.3924 47.4974 76.0399L55.4889 64.7582H75.5808C76.0134 64.7582 76.3532 64.4056 76.3532 63.9805V36.0148C76.3635 35.5897 76.0134 35.2371 75.5911 35.2371ZM64.9015 30.3429L67.1568 35.2371H54.4178L64.9015 30.3429ZM53.3159 25.5005L60.5247 30.6747L50.7516 35.2371H46.4161L53.3159 25.5005ZM41.7612 57.7486V63.1095C41.7612 63.1406 41.7612 63.1717 41.7715 63.2028H37.127C37.127 63.1717 37.1373 63.1406 37.1373 63.1095V57.7486V56.2969V36.7925H41.7715V56.2969V57.7486H41.7612ZM25.181 63.2028V36.7925H35.6852V56.2969H31.051C30.6494 56.2969 30.3301 56.6184 30.3301 57.0228C30.3301 57.4272 30.6494 57.7486 31.051 57.7486H35.6852V63.1095C35.6852 63.1406 35.6852 63.1717 35.6955 63.2028H25.181ZM35.0982 69.6524L32.8429 64.7582H45.5819L35.0982 69.6524ZM46.6838 74.5052L39.475 69.331L49.2481 64.7686H53.5837L46.6838 74.5052ZM74.8188 63.2028H43.203C43.203 63.1717 43.2133 63.1406 43.2133 63.1095V57.7486H56.3951C56.7967 57.7486 57.116 57.4272 57.116 57.0228C57.116 56.6184 56.7967 56.2969 56.3951 56.2969H43.203V36.7925H44.9022H68.3617H74.8188V63.2028ZM61.6472 45.9796H62.9963V41.272H66.8685C69.0723 41.272 70.3081 42.3919 70.3081 44.3205C70.3081 46.2596 69.0723 47.4106 66.8685 47.4106H64.6441V48.3645H67.61V49.2666H64.6441V51.2783H62.9963V49.2666H61.6472V48.3645H62.9963V47.4106H61.6472V45.9796ZM66.6316 45.9796C68.1043 45.9796 68.6604 45.3471 68.6604 44.3205C68.6604 43.294 68.1043 42.6926 66.6316 42.6926H64.6441V45.9796H66.6316Z" fill="#7F94A8"/>
</g>
<defs>
<clipPath id="clip0_1593_670">
<rect width="52.7273" height="52.7273" fill="white" transform="translate(23.6362 23.6364)"/>
</clipPath>
</defs>
</svg>
