<svg width="100" height="100" viewBox="0 0 100 100" fill="none" xmlns="http://www.w3.org/2000/svg">
<circle cx="50" cy="50" r="49.5" stroke="#7F94A8"/>
<g clip-path="url(#clip0_1593_751)">
<path d="M67.9479 36.6267C67.8956 36.6267 67.8956 36.5744 67.8432 36.522C67.7909 36.4697 67.7909 36.4174 67.7385 36.365L58.7357 26.263C58.6834 26.2107 58.5787 26.1583 58.5264 26.106C58.474 26.106 58.474 26.0537 58.4217 26.0537C58.317 26.0013 58.16 25.949 58.0029 25.949H35.9146C32.6694 25.949 30 28.6184 30 31.8636V68.1366C30 71.3818 32.6694 74.0512 35.9146 74.0512H62.0856C65.3308 74.0512 68.0002 71.3818 68.0002 68.1366V36.9931C68.0002 36.8884 67.9479 36.7314 67.9479 36.6267ZM58.9974 29.5082L64.8074 36.051H58.9974V29.5082ZM66.0112 68.0842C66.0112 70.2826 64.284 72.0622 62.0856 72.0622H35.9146C33.7163 72.0622 31.989 70.2826 31.989 68.1366V31.8113C31.989 29.6129 33.7686 27.8856 35.9146 27.8856H57.0084V36.9931C57.0084 37.5165 57.4272 37.9876 58.0029 37.9876H66.0112V68.0842Z" fill="#7F94A8"/>
<rect x="36" y="52" width="26" height="1.8" rx="0.9" fill="#7F94A8"/>
<rect x="36" y="57" width="26" height="1.8" rx="0.9" fill="#7F94A8"/>
<rect x="36" y="62" width="13" height="1.8" rx="0.9" fill="#7F94A8"/>
<rect x="36" y="47" width="13" height="1.8" rx="0.9" fill="#7F94A8"/>
<circle cx="67.5" cy="56.5" r="10.6" fill="white" stroke="#7F94A8" stroke-width="1.8"/>
<path d="M63 56.1751H64.4019V51H68.4257C70.7158 51 72 52.2311 72 54.3513C72 56.4829 70.7158 57.7482 68.4257 57.7482H66.1142V58.7969H69.1962V59.7886H66.1142V62H64.4019V59.7886H63V58.7969H64.4019V57.7482H63V56.1751ZM68.1795 56.1751C69.7099 56.1751 70.2878 55.4798 70.2878 54.3513C70.2878 53.2228 69.7099 52.5617 68.1795 52.5617H66.1142V56.1751H68.1795Z" fill="#7F94A8"/>
</g>
<defs>
<clipPath id="clip0_1593_751">
<rect width="58" height="58" fill="white" transform="translate(21 21)"/>
</clipPath>
</defs>
</svg>
