<svg width="100" height="100" viewBox="0 0 100 100" fill="none" xmlns="http://www.w3.org/2000/svg">
<circle cx="50" cy="50" r="49.5" stroke="#7F94A8"/>
<path d="M68.0915 28H31.848C29.2194 28 27.0791 30.1403 27.0791 32.7689V65.1973C27.0791 67.8259 29.2194 69.9662 31.848 69.9662H54.7386C55.2651 69.9662 55.6924 69.5389 55.6924 69.0124C55.6924 68.4859 55.2651 68.0586 54.7386 68.0586H31.848C30.2704 68.0586 28.9866 66.7748 28.9866 65.1973V37.5378H70.9527V57.5671C70.9527 58.0936 71.3801 58.5209 71.9065 58.5209C72.433 58.5209 72.8603 58.0936 72.8603 57.5671V32.7689C72.8603 30.1403 70.7201 28 68.0915 28ZM70.9528 35.6303H28.9866V32.7689C28.9866 31.1914 30.2704 29.9076 31.848 29.9076H68.0914C69.669 29.9076 70.9527 31.1914 70.9527 32.7689V35.6303H70.9528Z" fill="#7F94A8"/>
<rect x="34.3413" y="48.9333" width="16.671" height="1.8" rx="0.9" fill="#7F94A8"/>
<rect x="34.3413" y="54.1431" width="16.671" height="1.8" rx="0.9" fill="#7F94A8"/>
<rect x="34.3413" y="43.7236" width="8.33549" height="1.8" rx="0.9" fill="#7F94A8"/>
<path d="M31.8478 33.7228C32.3746 33.7228 32.8017 33.2958 32.8017 32.769C32.8017 32.2422 32.3746 31.8152 31.8478 31.8152C31.3211 31.8152 30.894 32.2422 30.894 32.769C30.894 33.2958 31.3211 33.7228 31.8478 33.7228Z" fill="#7F94A8"/>
<path d="M35.6633 33.7228C36.1901 33.7228 36.6171 33.2958 36.6171 32.769C36.6171 32.2422 36.1901 31.8152 35.6633 31.8152C35.1365 31.8152 34.7095 32.2422 34.7095 32.769C34.7095 33.2958 35.1365 33.7228 35.6633 33.7228Z" fill="#7F94A8"/>
<path d="M39.4782 33.7228C40.005 33.7228 40.432 33.2958 40.432 32.769C40.432 32.2422 40.005 31.8152 39.4782 31.8152C38.9514 31.8152 38.5244 32.2422 38.5244 32.769C38.5244 33.2958 38.9514 33.7228 39.4782 33.7228Z" fill="#7F94A8"/>
<path d="M72.3938 61.3454L56.8322 50.6481C56.5146 50.4315 56.0983 50.4251 55.7724 50.6349C55.4484 50.8443 55.2832 51.23 55.3533 51.6088L58.8279 70.3652C58.8981 70.744 59.1905 71.0449 59.5676 71.1225C59.9477 71.2053 60.3323 71.0507 60.5524 70.7306L62.8676 67.3626L65.9994 71.4191C66.1555 71.623 66.3871 71.7527 66.6392 71.7836C66.7363 71.7947 66.8347 71.7921 66.9285 71.7747C67.0805 71.7465 67.2236 71.6812 67.3488 71.5823L70.6615 68.9491C71.0675 68.6276 71.1425 68.0375 70.8255 67.6248L67.9264 63.8298L72.0266 63.0703C72.4054 63.0001 72.7063 62.7077 72.7858 62.3302C72.8671 61.9522 72.7118 61.5639 72.3938 61.3454ZM66.0522 62.2369C65.7258 62.2973 65.4551 62.5221 65.3358 62.8313C65.2166 63.1404 65.2659 63.4902 65.4679 63.7536L68.7412 68.0399L66.9184 69.4892L63.5775 65.163C63.3913 64.922 63.1018 64.7836 62.7968 64.7915C62.7466 64.7931 62.6972 64.7983 62.6484 64.8074C62.4027 64.8529 62.1807 64.9949 62.0355 65.2061L60.2842 67.7538L57.6484 53.5252L69.4152 61.6139L66.0522 62.2369Z" fill="#7F94A8"/>
</svg>
