<svg width="100" height="100" viewBox="0 0 100 100" fill="none" xmlns="http://www.w3.org/2000/svg">
<circle cx="50" cy="50" r="49.5" stroke="#7F94A8"/>
<g clip-path="url(#clip0_968_1336)">
<path d="M68.9901 28.412C68.7692 27.9455 68.3795 27.5802 67.8998 27.3898C67.4201 27.1994 66.886 27.1981 66.4053 27.3862L62.2425 29.0211C61.9837 29.1225 61.7485 29.2759 61.5515 29.4719C61.3546 29.6679 61.2 29.9024 61.0974 30.1606C60.9948 30.4189 60.9464 30.6955 60.9552 30.9733C60.964 31.251 61.0298 31.524 61.1485 31.7753L61.7252 32.9942L61.2644 33.19C59.6057 33.5365 58.4569 33.4899 56.75 33.0117L52.591 31.8465C51.4155 31.5161 50.1691 31.5362 49.0049 31.9044L44.9912 33.17C44.178 33.4265 43.4258 33.8465 42.7807 34.404C42.0761 34.1454 40.7314 33.8133 38.8874 34.0791L39.4336 33.0425C39.6734 32.5853 39.73 32.0539 39.5919 31.5564C39.4538 31.0589 39.1313 30.6328 38.6901 30.3646L34.868 28.0459C34.6305 27.9018 34.366 27.8078 34.0907 27.7698C33.8155 27.7318 33.5354 27.7505 33.2677 27.8249C32.9999 27.8992 32.7503 28.0276 32.5341 28.2021C32.3178 28.3766 32.1396 28.5936 32.0104 28.8395L21.2347 49.4052C20.9876 49.872 20.9333 50.4171 21.0837 50.9235C21.2341 51.4299 21.5771 51.8571 22.039 52.1134L25.8849 54.2738C26.188 54.4453 26.5302 54.5356 26.8785 54.536C27.0751 54.5358 27.2708 54.5074 27.4593 54.4515C27.72 54.3755 27.9627 54.2477 28.1728 54.0756C28.3829 53.9036 28.5561 53.6908 28.682 53.4502L29.2754 52.3231L31.1811 53.9074L28.4373 57.7033C28.1908 58.0442 28.0141 58.4304 27.9173 58.8397C27.8205 59.2491 27.8055 59.6735 27.8731 60.0887C27.9408 60.5038 28.0897 60.9016 28.3114 61.259C28.5332 61.6164 28.8233 61.9266 29.1652 62.1716L29.4984 62.4109C30.043 62.8029 30.6972 63.0134 31.3681 63.0126C31.632 63.0123 31.895 62.9797 32.151 62.9156C32.1579 63.004 32.1678 63.0924 32.1822 63.1814C32.2487 63.5972 32.3972 63.9956 32.6191 64.3535C32.841 64.7114 33.1317 65.0217 33.4745 65.2662L33.8078 65.5061C34.3523 65.8981 35.0065 66.1086 35.6774 66.1078C35.9414 66.1075 36.2043 66.0749 36.4603 66.0108C36.4674 66.0992 36.4771 66.1876 36.4915 66.2766C36.558 66.6924 36.7065 67.0908 36.9284 67.4487C37.1503 67.8066 37.441 68.1168 37.7839 68.3613L38.1171 68.6012C38.6617 68.9931 39.3158 69.2036 39.9867 69.2029C40.2507 69.2026 40.5136 69.17 40.7696 69.1059C40.7767 69.1943 40.7864 69.2827 40.8008 69.3711C40.8673 69.7869 41.0158 70.1853 41.2377 70.5432C41.4596 70.9011 41.7504 71.2113 42.0932 71.4558L42.4264 71.6957C43.1171 72.1904 43.9754 72.3918 44.8141 72.2559C45.6527 72.1199 46.4035 71.6577 46.9025 70.9702L47.9796 69.4802L49.6784 70.8333C50.2057 71.285 50.8503 71.5777 51.5374 71.6776C52.2244 71.7776 52.9257 71.6805 53.5598 71.3978C54.1939 71.115 54.7348 70.6582 55.1196 70.0803C55.5044 69.5024 55.7174 68.8273 55.7338 68.1332C56.447 68.4326 57.2365 68.4991 57.9897 68.3234C58.743 68.1476 59.4215 67.7385 59.9286 67.1545C60.4885 66.5122 60.8044 65.6933 60.8211 64.8415C61.5343 65.1408 62.3237 65.2073 63.077 65.0315C63.8302 64.8557 64.5087 64.4467 65.0157 63.8626C65.5507 63.2486 65.8635 62.4725 65.9037 61.6591C66.6392 62.0439 67.4832 62.1689 68.2987 62.0139C69.1142 61.8589 69.8534 61.433 70.3965 60.8051L70.4444 60.7498C70.7524 60.3947 70.9873 59.9821 71.1354 59.536C71.2836 59.0898 71.3421 58.6187 71.3077 58.1499C71.2733 57.681 71.1466 57.2236 70.9349 56.8038C70.7232 56.3841 70.4307 56.0102 70.0741 55.7038L68.8745 54.6712C69.7149 54.1594 70.4555 53.4994 71.0601 52.7231L71.0784 52.7617C71.2417 53.1099 71.5008 53.4045 71.8254 53.6108C72.15 53.8171 72.5267 53.9267 72.9114 53.9267C73.191 53.9264 73.4676 53.8688 73.7242 53.7574L77.7749 52.0082C78.0245 51.9007 78.25 51.7441 78.4378 51.5477C78.6257 51.3513 78.7722 51.1191 78.8686 50.865C78.9649 50.6109 79.0092 50.3399 78.9988 50.0684C78.9883 49.7968 78.9234 49.53 78.8078 49.2841L68.9901 28.412ZM27.3409 52.7437C27.3083 52.8049 27.2639 52.859 27.2102 52.9028C27.1564 52.9466 27.0945 52.9791 27.0279 52.9986C26.9614 53.0181 26.8917 53.0241 26.8228 53.0162C26.7539 53.0083 26.6873 52.9867 26.6269 52.9527L22.781 50.7921C22.6643 50.7275 22.5775 50.6197 22.5393 50.4918C22.5012 50.364 22.5146 50.2263 22.5769 50.1082L33.3529 29.543C33.3855 29.4803 33.4307 29.425 33.4857 29.3807C33.5407 29.3363 33.6043 29.3038 33.6725 29.2853C33.7185 29.2724 33.766 29.2658 33.8137 29.2657C33.9085 29.2657 34.0015 29.292 34.0824 29.3415L37.9047 31.6602C38.0163 31.7277 38.0979 31.8353 38.1329 31.9609C38.168 32.0865 38.1538 32.2208 38.0933 32.3363L27.3409 52.7437ZM30.3823 61.1801L30.0491 60.9409C29.8691 60.8121 29.7164 60.6491 29.5997 60.4611C29.4829 60.2732 29.4045 60.064 29.3688 59.8456C29.3332 59.6272 29.341 59.404 29.392 59.1886C29.4429 58.9733 29.5358 58.7702 29.6655 58.5909L33.9114 52.7163C34.1751 52.3533 34.5716 52.1094 35.0145 52.0377C35.4574 51.9661 35.9106 52.0725 36.2753 52.3338L36.6087 52.5738C36.7886 52.7025 36.9413 52.8655 37.0581 53.0535C37.1748 53.2414 37.2532 53.4506 37.2889 53.669C37.3245 53.8873 37.3167 54.1106 37.2658 54.3259C37.2149 54.5412 37.1219 54.7443 36.9923 54.9236L35.892 56.4459L35.8906 56.4478L32.7465 60.7982C32.4827 61.1612 32.0861 61.4051 31.6432 61.4766C31.2002 61.5482 30.747 61.4416 30.3823 61.1801ZM34.6914 64.2748L34.3582 64.0348C34.1782 63.9061 34.0255 63.7431 33.9087 63.5551C33.792 63.3671 33.7135 63.158 33.6779 62.9396C33.6422 62.7212 33.6501 62.4979 33.701 62.2826C33.7519 62.0673 33.8449 61.8641 33.9746 61.6848L37.1203 57.3323C37.3843 56.9701 37.7807 56.7268 38.2233 56.6555C38.6658 56.5843 39.1186 56.6909 39.4829 56.952L39.8162 57.1919C39.9961 57.3207 40.1488 57.4837 40.2656 57.6717C40.3823 57.8597 40.4607 58.0688 40.4964 58.2872C40.532 58.5056 40.5241 58.7289 40.4732 58.9442C40.4223 59.1595 40.3293 59.3627 40.1996 59.5419L37.0555 63.8923C36.7919 64.2554 36.3953 64.4994 35.9523 64.571C35.5094 64.6427 35.0561 64.5362 34.6914 64.2748ZM39.0005 67.3694L38.6672 67.1295C38.4873 67.0007 38.3346 66.8377 38.2178 66.6497C38.1011 66.4618 38.0227 66.2526 37.987 66.0343C37.9514 65.8159 37.9592 65.5926 38.0101 65.3773C38.061 65.162 38.154 64.9589 38.2836 64.7796L40.5266 61.676C40.7903 61.313 41.1869 61.0691 41.6298 60.9975C42.0727 60.9259 42.526 61.0323 42.8907 61.2937L43.224 61.5336C43.404 61.6623 43.5567 61.8254 43.6734 62.0133C43.7901 62.2013 43.8686 62.4104 43.9042 62.6288C43.9398 62.8472 43.932 63.0704 43.881 63.2857C43.8301 63.501 43.7372 63.7042 43.6075 63.8834L41.3645 66.987C41.1008 67.35 40.7042 67.5939 40.2613 67.6656C39.8184 67.7372 39.3651 67.6307 39.0005 67.3694ZM45.6735 70.0815C45.4099 70.4447 45.0132 70.6888 44.5702 70.7604C44.1271 70.8321 43.6737 70.7255 43.309 70.464L42.9758 70.2241C42.7958 70.0953 42.6431 69.9323 42.5264 69.7443C42.4096 69.5564 42.3312 69.3472 42.2955 69.1288C42.2599 68.9104 42.2677 68.6872 42.3186 68.4718C42.3696 68.2565 42.4625 68.0534 42.5922 67.8741L43.9339 66.0179C44.1976 65.6549 44.5942 65.411 45.037 65.3394C45.4799 65.2677 45.9332 65.3742 46.2978 65.6356L46.6312 65.8755C46.8111 66.0042 46.9639 66.1673 47.0806 66.3552C47.1973 66.5432 47.2758 66.7524 47.3114 66.9707C47.3471 67.1891 47.3392 67.4124 47.2883 67.6277C47.2374 67.843 47.1444 68.0462 47.0148 68.2255L45.6735 70.0815ZM69.7958 58.2602C69.8162 58.53 69.7828 58.8012 69.6975 59.058C69.6122 59.3148 69.4767 59.552 69.2988 59.756L69.2508 59.8114C68.876 60.2452 68.3447 60.5131 67.773 60.5566C67.2013 60.6001 66.6357 60.4156 66.1995 60.0435C65.7141 59.6253 65.1847 59.1692 64.6504 58.7092L64.6367 58.6966L60.6837 55.2925L60.6266 55.2432L60.561 55.1866L60.5137 55.1461C60.3612 55.0168 60.1638 54.9531 59.9645 54.9687C59.7652 54.9843 59.5801 55.0781 59.4497 55.2296C59.3192 55.3811 59.2539 55.5781 59.2681 55.7775C59.2822 55.9769 59.3745 56.1627 59.525 56.2943L59.5891 56.3495C59.9498 56.6601 61.8278 58.2772 63.6549 59.8509C63.8674 60.0348 64.0415 60.2588 64.1674 60.51C64.2932 60.7613 64.3683 61.0348 64.3884 61.3151C64.4084 61.5954 64.373 61.8769 64.2841 62.1435C64.1953 62.4101 64.0548 62.6565 63.8706 62.8687C63.4956 63.2996 62.9655 63.5647 62.3958 63.6061C61.8262 63.6475 61.2632 63.4619 60.8299 63.0898L59.5504 61.988L56.7062 59.5398C56.6309 59.474 56.5434 59.4237 56.4486 59.3919C56.3538 59.36 56.2537 59.3473 56.154 59.3544C56.0542 59.3614 55.9569 59.3881 55.8675 59.433C55.7782 59.4779 55.6986 59.54 55.6334 59.6157C55.5681 59.6915 55.5185 59.7794 55.4874 59.8744C55.4563 59.9695 55.4443 60.0697 55.4522 60.1694C55.46 60.269 55.4875 60.3662 55.533 60.4552C55.5785 60.5442 55.6413 60.6233 55.7175 60.688L58.5614 63.1366C58.7751 63.3202 58.9505 63.5442 59.0774 63.7958C59.2043 64.0474 59.2802 64.3216 59.3008 64.6026C59.3215 64.8836 59.2863 65.166 59.1975 65.4334C59.1087 65.7008 58.9679 65.948 58.7832 66.1608C58.4083 66.5918 57.8781 66.8569 57.3084 66.8983C56.7387 66.9397 56.1758 66.7542 55.7424 66.3821L52.8988 63.9335C52.8234 63.8685 52.736 63.8191 52.6415 63.788C52.547 63.7569 52.4472 63.7447 52.348 63.7521C52.2488 63.7595 52.152 63.7864 52.0632 63.8312C51.9744 63.876 51.8952 63.9379 51.8303 64.0133C51.7654 64.0887 51.716 64.1761 51.6848 64.2706C51.6537 64.3651 51.6415 64.4648 51.6489 64.564C51.6563 64.6632 51.6832 64.76 51.728 64.8489C51.7728 64.9377 51.8347 65.0168 51.9101 65.0817L52.8319 65.8752L53.4743 66.4284C53.6881 66.612 53.8635 66.836 53.9904 67.0876C54.1173 67.3392 54.1932 67.6134 54.2138 67.8944C54.2345 68.1755 54.1993 68.4578 54.1105 68.7252C54.0217 68.9926 53.8809 69.2398 53.6962 69.4527C53.3213 69.8836 52.7911 70.1486 52.2214 70.1901C51.6518 70.2315 51.0889 70.046 50.6555 69.6739C50.6483 69.6676 50.6407 69.6613 50.6333 69.6553L48.7232 68.1347C48.9072 67.4994 48.8898 66.8228 48.6736 66.1978C48.4573 65.5728 48.0528 65.0302 47.5156 64.6445L47.1822 64.4046C46.6374 64.0128 45.983 63.8026 45.3119 63.8038C45.4989 63.1674 45.4835 62.4886 45.2678 61.8613C45.0521 61.234 44.6468 60.6893 44.1079 60.3025L43.7746 60.0625C43.2297 59.6708 42.5752 59.4606 41.9042 59.4619C42.0911 58.8254 42.0757 58.1466 41.86 57.5193C41.6443 56.892 41.2389 56.3473 40.7 55.9604L40.3668 55.7205C39.8508 55.3492 39.2357 55.1403 38.6003 55.1206C38.8638 54.4574 38.898 53.725 38.6972 53.0402C38.4965 52.3553 38.0724 51.7573 37.4926 51.3412L37.1592 51.1013C36.4685 50.6067 35.6102 50.4054 34.7716 50.5413C33.933 50.6773 33.1823 51.1394 32.6832 51.8269L32.0711 52.6763L29.9977 50.9526L37.9721 35.8177C39.6351 35.3577 40.8973 35.4678 41.6779 35.6494C41.4533 35.9822 41.2612 36.3357 41.104 36.7051L39.8774 39.6839C39.5655 40.4416 39.2781 41.219 39.0227 41.9959L37.7988 45.7199C37.7401 45.8983 37.7498 46.0921 37.826 46.2637C37.9022 46.4354 38.0394 46.5726 38.211 46.6488L38.4745 46.7659C39.4057 47.1907 40.4293 47.3726 41.4497 47.2945C42.4702 47.2165 43.4543 46.8811 44.31 46.3196C45.048 45.8343 45.668 45.1899 46.1245 44.4336C46.581 43.6774 46.8623 42.8285 46.9479 41.9493C46.9542 41.8833 46.9605 41.8167 46.9649 41.7493C47.0186 41.4859 47.4466 39.6142 48.7579 39.5222L50.5257 40.0193C51.2121 40.2127 51.8384 40.5763 52.3468 41.0764L63.2952 51.8661C63.3078 51.878 63.3204 51.8896 63.3331 51.9007L69.0858 56.8505C69.2917 57.0267 69.4605 57.242 69.5824 57.484C69.7043 57.726 69.7768 57.9899 69.7958 58.2602ZM67.6479 53.6155L64.3397 50.769L53.4106 39.9972C52.7198 39.3176 51.8685 38.8235 50.9357 38.5608L49.0543 38.0318C48.9875 38.013 48.9186 38.0034 48.8492 38.0034H48.8461C47.6736 38.0083 46.7097 38.6464 46.0587 39.8487C45.7791 40.3749 45.5791 40.9397 45.4652 41.5246C45.461 41.5498 45.458 41.5751 45.4562 41.6003C45.4516 41.6694 45.4459 41.7375 45.4396 41.8044C45.3753 42.4592 45.1652 43.0912 44.8247 43.6542C44.4842 44.2172 44.022 44.6968 43.4719 45.0578C42.8829 45.4373 42.2149 45.6768 41.519 45.7581C40.8231 45.8394 40.1179 45.7603 39.4573 45.5268L40.4622 42.4696C40.7059 41.7276 40.9799 40.9848 41.2784 40.2615L42.5019 37.2897C42.7698 36.6572 43.172 36.0905 43.6806 35.6287C44.1892 35.167 44.7921 34.8213 45.4475 34.6156L49.4611 33.35C50.3446 33.0709 51.2903 33.0556 52.1824 33.3061L56.3414 34.4713C58.3164 35.0247 59.7061 35.0735 61.6515 34.6575C61.6988 34.6474 61.745 34.6329 61.7896 34.614L62.3741 34.3657L70.3101 51.1395C69.6711 52.1971 68.749 53.0547 67.6479 53.6155ZM77.4509 50.3253C77.4266 50.3899 77.3894 50.449 77.3417 50.4989C77.294 50.5488 77.2366 50.5886 77.1731 50.6157L73.1224 52.365C72.9991 52.4192 72.8595 52.4231 72.7334 52.3759C72.6073 52.3288 72.5046 52.2342 72.4471 52.1125L71.9206 50.9998C71.8965 50.8736 71.8406 50.7556 71.7584 50.6569L62.5181 31.1274C62.4882 31.0638 62.4716 30.9948 62.4695 30.9245C62.4673 30.8543 62.4797 30.7844 62.5057 30.7191C62.5318 30.6538 62.571 30.5946 62.6209 30.5451C62.6709 30.4957 62.7304 30.457 62.7959 30.4315L66.9593 28.7965C67.0818 28.7484 67.218 28.7485 67.3404 28.7968C67.4628 28.8451 67.5624 28.938 67.619 29.0569L77.4355 49.9277C77.4648 49.9894 77.4813 50.0565 77.484 50.1249C77.4866 50.1932 77.4754 50.2614 77.4509 50.3253Z" fill="#7F94A8"/>
</g>
<defs>
<clipPath id="clip0_968_1336">
<rect width="58" height="58" fill="white" transform="translate(21 21)"/>
</clipPath>
</defs>
</svg>
