<svg width="100" height="100" viewBox="0 0 100 100" fill="none" xmlns="http://www.w3.org/2000/svg">
<circle cx="50" cy="50" r="49.5" stroke="#7F94A8"/>
<path d="M67.4 28.9092H32.6C30.0954 28.9092 27.9863 31.0183 27.9863 33.5228V64.6319C27.9863 67.1365 30.0954 69.2455 32.6 69.2455H54.6136C55.1409 69.2455 55.5363 68.8501 55.5363 68.3228C55.5363 67.7956 55.1409 67.4001 54.6136 67.4001H32.6C31.15 67.4001 29.8318 66.2137 29.8318 64.6319V38.0046H70.1681V57.2501C70.1681 57.7774 70.5636 58.1728 71.0909 58.1728C71.6181 58.1728 72.0136 57.7774 72.0136 57.2501V33.5228C72.0136 31.0183 69.9045 28.9092 67.4 28.9092ZM70.1681 36.291H29.8318V33.5228C29.8318 32.0728 31.0181 30.7546 32.6 30.7546H67.4C68.85 30.7546 70.1681 31.941 70.1681 33.5228V36.291ZM32.6 34.4455C33.1272 34.4455 33.5227 34.0501 33.5227 33.5228C33.5227 32.9955 33.1272 32.6001 32.6 32.6001C32.0727 32.6001 31.6772 32.9955 31.6772 33.5228C31.6772 34.0501 32.0727 34.4455 32.6 34.4455ZM36.2909 34.4455C36.8181 34.4455 37.2136 34.0501 37.2136 33.5228C37.2136 32.9955 36.8181 32.6001 36.2909 32.6001C35.7636 32.6001 35.3681 32.9955 35.3681 33.5228C35.3681 34.0501 35.7636 34.4455 36.2909 34.4455ZM39.9818 34.4455C40.5091 34.4455 40.9045 34.0501 40.9045 33.5228C40.9045 32.9955 40.5091 32.6001 39.9818 32.6001C39.4545 32.6001 39.0591 32.9955 39.0591 33.5228C39.0591 34.0501 39.4545 34.4455 39.9818 34.4455ZM71.75 62.1274L58.9636 49.341C58.7 49.0774 58.3045 48.9455 57.9091 49.0774C57.5136 49.2092 57.3818 49.6046 57.3818 49.8683V68.191C57.3818 68.5865 57.6454 68.8501 57.9091 68.9819C58.3045 69.1137 58.7 68.9819 58.9636 68.7183L61.7318 65.9501L63.9727 70.3001C64.1045 70.5637 64.2363 70.6955 64.5 70.6955C64.6318 70.6955 64.6318 70.6955 64.7636 70.6955C64.8954 70.6955 65.0272 70.6955 65.1591 70.5637L68.7182 68.7183C69.1136 68.4546 69.3772 67.9274 69.1136 67.5319L67.0045 63.4455H70.9591C71.3545 63.4455 71.6181 63.1819 71.75 62.9183C72.0136 62.7865 72.0136 62.391 71.75 62.1274ZM65.5545 61.8637C65.2909 61.8637 64.8954 61.9955 64.7636 62.2592C64.6318 62.5228 64.6318 62.9183 64.7636 63.1819L67.1363 67.7955L65.1591 68.8501L62.7863 64.2365C62.6545 63.9728 62.3909 63.841 62.1272 63.7092H61.9954C61.7318 63.7092 61.4681 63.841 61.3363 63.9728L59.2272 66.0819V52.1092L68.9818 61.8637H65.5545Z" fill="#7F94A8"/>
</svg>
