<svg width="100" height="100" viewBox="0 0 100 100" fill="none" xmlns="http://www.w3.org/2000/svg">
<circle cx="50" cy="50" r="49.5" stroke="#7F94A8"/>
<path d="M60.6861 37.9218C60.6861 41.535 59.4909 45.2092 57.5517 47.9604C55.6059 50.7209 53.0146 52.4245 50.2462 52.4245C47.4745 52.4245 44.8494 50.7173 42.871 47.9543C40.8997 45.2015 39.6753 41.5291 39.6753 37.9218C39.6753 34.3378 40.8818 31.5662 42.7635 29.6926C44.6495 27.8148 47.2798 26.7729 50.2462 26.7729C53.2113 26.7729 55.8058 27.8137 57.6579 29.687C59.5074 31.5578 60.6861 34.3302 60.6861 37.9218Z" stroke="#7F94A8" stroke-width="2" stroke-linecap="round" stroke-linejoin="round"/>
<path d="M47.8199 58.0382C48.7083 58.094 49.5952 58.0934 50.4482 58.0934C51.2994 58.0934 52.1731 58.0539 53.0199 57.9535M47.8199 58.0382C45.6832 57.9039 43.5375 57.4434 41.8324 55.8638C40.3412 54.4823 40.1206 54.4823 39.0256 54.4823C37.6569 54.4823 31.1279 56.396 28.6649 69.6447C28.4305 70.9054 28.7747 72.2265 31.4814 72.2265H45.3816M47.8199 58.0382L45.9414 61.3836L47.8199 62.6336M53.0199 57.9535C55.0627 57.7112 56.9493 57.1146 57.9878 55.8638C59.1629 54.4483 60.2721 54.353 60.6798 54.4823C68.801 56.2662 70.5848 67.0628 71.2889 69.6447C71.8522 71.7102 70.0528 72.2265 69.0826 72.2265H55.2581M53.0199 57.9535L54.6983 61.3836L52.9268 62.6336M47.8199 62.6336L50.4482 64.3826L52.9268 62.6336M47.8199 62.6336L45.3816 72.2265M45.3816 72.2265H55.2581M52.9268 62.6336L55.2581 72.2265" stroke="#7F94A8" stroke-width="2" stroke-linejoin="round"/>
</svg>
