<svg width="56" height="56" viewBox="0 0 56 56" fill="none" xmlns="http://www.w3.org/2000/svg">
<path fill-rule="evenodd" clip-rule="evenodd" d="M7.82649 40.4215C7.57959 40.496 7.31236 40.4569 7.09708 40.3149L0.802219 36.1628C0.401603 35.8985 0.291057 35.3595 0.555305 34.9589C0.819557 34.5583 1.35854 34.4478 1.75915 34.712L6.0571 37.547C4.90973 34.7409 4.27757 31.6701 4.27757 28.4535C4.27757 15.1758 15.0413 4.41211 28.3189 4.41211C32.6965 4.41211 36.8032 5.58288 40.3403 7.62895C40.7557 7.86926 40.8976 8.40083 40.6573 8.81625C40.417 9.23166 39.8855 9.37362 39.47 9.13331C36.1904 7.23613 32.3828 6.15004 28.3189 6.15004C16.0011 6.15004 6.0155 16.1356 6.0155 28.4535C6.0155 31.4917 6.62254 34.3864 7.72143 37.0241L9.72472 32.3093C9.91239 31.8676 10.4226 31.6617 10.8643 31.8494C11.306 32.037 11.5119 32.5472 11.3243 32.9889L8.37532 39.9294C8.27446 40.1667 8.0734 40.347 7.82649 40.4215ZM15.1127 32.0847C16.2793 35.7601 18.957 38.7631 22.4727 40.3394C25.9888 41.9154 30.0095 41.9154 33.5253 40.3394C37.0411 38.7631 39.7187 35.7602 40.8854 32.0847C41.7266 29.4298 41.7266 26.5789 40.8854 23.9239C39.7187 20.2485 37.0411 17.2456 33.5253 15.6692C30.0093 14.0929 25.9886 14.0929 22.4727 15.6692C18.957 17.2456 16.2793 20.2484 15.1127 23.9239C14.2715 26.5789 14.2715 29.4298 15.1127 32.0847ZM27.999 16.4223C29.2374 16.4223 30.8524 18.9568 31.5578 23.3118L24.4403 23.3121C25.1458 18.9571 26.7607 16.4223 27.9991 16.4223L27.999 16.4223ZM31.8007 25.2735C31.8791 26.129 31.9183 27.0391 31.9183 27.9964C31.9183 28.9539 31.8714 29.8639 31.8007 30.7194H24.1975C24.1268 29.8643 24.0799 28.9538 24.0799 27.9887C24.0799 27.0237 24.1268 26.1213 24.1975 25.2658L31.8007 25.2735ZM39.5607 27.9887C39.5572 28.9065 39.4438 29.8205 39.2237 30.7117H33.7369C33.8152 29.8093 33.8544 28.8992 33.8544 27.9887C33.8544 27.0787 33.8075 26.1682 33.7369 25.2658H39.2237C39.4438 26.157 39.5572 27.071 39.5607 27.9887ZM27.9992 39.5708C26.7609 39.5707 25.1459 37.0362 24.4405 32.6813H31.5577C30.8526 37.0363 29.2377 39.5708 27.9992 39.5708ZM22.2381 30.7196H16.7513C16.3023 28.9322 16.3023 27.0613 16.7513 25.274H22.2381C22.1597 26.1763 22.1206 27.0945 22.1206 27.9969C22.1206 28.899 22.1674 29.8171 22.2381 30.7195V30.7196ZM17.4332 32.6971H22.5124C22.7892 34.9163 23.4723 37.0658 24.5269 39.0373C21.3668 38.034 18.7857 35.7269 17.4332 32.6971H17.4332ZM38.5262 32.6971C37.1946 35.6891 34.6642 37.9794 31.5587 39.0058C32.5795 37.038 33.2328 34.8999 33.4862 32.6971H38.5262ZM38.5969 23.3434H33.4862C33.2216 21.1267 32.5518 18.9775 31.5108 17.0032C34.6438 18.002 37.2073 20.2831 38.5654 23.2808L38.5969 23.3434ZM24.4878 17.0032C23.4541 18.9583 22.7847 21.0854 22.5124 23.2808H17.4332C18.7913 20.2831 21.3549 18.002 24.4878 17.0032ZM49.2214 16.1437C49.0061 16.0017 48.7389 15.9627 48.492 16.0371C48.2451 16.1116 48.044 16.2919 47.9432 16.5293L44.9942 23.4697C44.8065 23.9114 45.0125 24.4216 45.4542 24.6093C45.8959 24.797 46.4061 24.591 46.5938 24.1493L48.597 19.4345C49.6959 22.0723 50.303 24.9669 50.303 28.0051C50.303 40.323 40.3174 50.3086 27.9995 50.3086C23.9357 50.3086 20.1281 49.2225 16.8484 47.3253C16.433 47.085 15.9014 47.227 15.6611 47.6424C15.4208 48.0578 15.5628 48.5894 15.9782 48.8297C19.5153 50.8758 23.622 52.0465 27.9995 52.0465C41.2772 52.0465 52.0409 41.2828 52.0409 28.0051C52.0409 24.7885 51.4087 21.7177 50.2614 18.9117L54.5593 21.7466C54.9599 22.0109 55.4989 21.9003 55.7632 21.4997C56.0274 21.0991 55.9169 20.5601 55.5163 20.2959L49.2214 16.1437Z" fill="url(#paint0_linear_1830_610)"/>
<defs>
<linearGradient id="paint0_linear_1830_610" x1="11.8575" y1="52.0465" x2="59.0268" y2="34.848" gradientUnits="userSpaceOnUse">
<stop stop-color="#FE5000"/>
<stop offset="1" stop-color="#FCA92A"/>
</linearGradient>
</defs>
</svg>
