<svg width="44" height="44" viewBox="0 0 44 44" fill="none" xmlns="http://www.w3.org/2000/svg">
<path fill-rule="evenodd" clip-rule="evenodd" d="M13.6826 13.1045C13.6826 12.8551 13.6901 12.6102 13.7048 12.37C14.0217 7.20809 17.6841 4.18164 22.1809 4.18164C26.887 4.18164 30.583 7.49633 30.583 13.1045C30.583 18.7126 26.887 24.4904 22.1809 24.4904C17.6802 24.4904 14.0152 19.2057 13.704 13.8389C13.6898 13.5941 13.6826 13.3491 13.6826 13.1045ZM17.3613 20.0453C16.136 18.3342 15.3241 16.0951 15.176 13.8431C16.6302 13.8393 18.4254 13.7876 20.0775 13.4631C21.9412 13.0971 23.8682 12.3337 24.8161 10.6808C25.2279 11.0411 25.731 11.4121 26.2924 11.7033C27.0828 12.1134 28.0631 12.3993 29.0757 12.1915C29.101 12.4856 29.1141 12.7899 29.1141 13.1045C29.1141 15.6079 28.2825 18.1583 26.9461 20.0542C25.6003 21.9636 23.8944 23.0215 22.1809 23.0215C20.4626 23.0215 18.7311 21.9583 17.3613 20.0453ZM27.1021 7.57271C27.8848 8.36438 28.4998 9.41922 28.8346 10.7391C28.2389 10.8784 27.6054 10.7297 26.9689 10.3995C26.154 9.97673 25.4624 9.31484 25.1144 8.90191C24.9365 8.69078 24.6551 8.5973 24.3862 8.65994C24.1173 8.72258 23.9062 8.93075 23.8399 9.19878C23.4553 10.7524 21.9434 11.5997 19.7944 12.0218C18.2672 12.3217 16.5975 12.3698 15.1766 12.3736C15.3232 10.2762 16.1004 8.67913 17.2034 7.58092C18.4375 6.35219 20.1766 5.65055 22.1809 5.65055C24.1833 5.65055 25.8939 6.35058 27.1021 7.57271ZM27.3016 25.8118C28.2691 24.6464 29.3509 24.3629 30.0279 24.5549C33.3176 25.2888 35.2695 27.8351 36.4454 30.2982C37.4062 32.3106 37.9053 34.3966 38.1861 35.57C38.2488 35.8324 38.3007 36.0491 38.3444 36.2092C38.476 36.692 38.4856 37.1457 38.3591 37.5554C38.2315 37.9687 37.9832 38.2793 37.6972 38.5004C37.1538 38.9207 36.4627 39.0331 36.0153 39.0331H8.39894C7.31315 39.0331 6.47854 38.7708 5.98383 38.16C5.49213 37.5528 5.50741 36.8107 5.60827 36.2682C7.45793 26.3186 12.4641 24.5319 13.9398 24.5319L13.9928 24.5319C14.354 24.5314 14.7409 24.5309 15.1663 24.725C15.5687 24.9086 15.9656 25.2468 16.5004 25.7422C17.5678 26.731 18.9373 27.0502 20.4449 27.145C21.0676 27.1841 21.6928 27.1841 22.3204 27.1841H22.3205H22.3292C22.9327 27.1841 23.5446 27.156 24.1315 27.0864C25.5951 26.9128 26.7298 26.5006 27.3016 25.8118ZM28.4318 26.7501C29.0615 25.9916 29.5353 25.9737 29.6166 25.9706C29.6309 25.9701 29.6331 25.97 29.6219 25.9665C29.6431 25.9732 29.6646 25.9789 29.6863 25.9837C32.3452 26.5677 34.0233 28.6343 35.1198 30.931C36.0032 32.7814 36.4539 34.6551 36.7413 35.8497L36.7413 35.8499C36.8118 36.1428 36.8724 36.3948 36.9272 36.5957C37.0024 36.8713 36.9828 37.034 36.9556 37.122C36.9295 37.2065 36.8804 37.2751 36.7986 37.3384C36.6065 37.487 36.2806 37.5642 36.0154 37.5642H26.4392L24.9813 31.5652L25.8742 30.9352C26.1688 30.7273 26.2689 30.3362 26.1104 30.0123L25.3128 28.3822C26.5207 28.1287 27.6855 27.649 28.4318 26.7501ZM23.6909 32.4757L24.9275 37.5642H19.5525L20.8552 32.439L21.9223 33.1491C22.1749 33.3172 22.5048 33.3127 22.7526 33.1378L23.6909 32.4757ZM19.5588 31.5764L18.0369 37.5642H8.39894C7.49676 37.5642 7.211 37.3413 7.12537 37.2355C7.03674 37.1261 6.98116 36.9201 7.05244 36.5367C8.82066 27.0251 13.405 26.0008 13.9398 26.0008C14.3678 26.0008 14.447 26.0114 14.5565 26.0614C14.71 26.1314 14.9417 26.3006 15.5022 26.8198C16.6096 27.8457 17.9219 28.2932 19.212 28.4915L18.3787 29.9755C18.1907 30.3104 18.2925 30.7337 18.6123 30.9465L19.5588 31.5764ZM19.993 30.1009L20.8166 28.634C21.3271 28.653 21.8286 28.653 22.3007 28.653H22.3292C22.8055 28.653 23.2952 28.6367 23.7826 28.597L24.516 30.0957L22.317 31.6474L19.993 30.1009Z" fill="url(#paint0_linear_2278_478)"/>
<defs>
<linearGradient id="paint0_linear_2278_478" x1="12.3366" y1="39.0331" x2="41.4728" y2="30.4257" gradientUnits="userSpaceOnUse">
<stop stop-color="#FE5000"/>
<stop offset="1" stop-color="#FCA92A"/>
</linearGradient>
</defs>
</svg>
