<svg width="56" height="56" viewBox="0 0 56 56" fill="none" xmlns="http://www.w3.org/2000/svg">
<path d="M44.8002 7.63672H11.2002C8.78197 7.63672 6.74561 9.67308 6.74561 12.0913V42.1276C6.74561 44.5458 8.78197 46.5822 11.2002 46.5822H32.4547C32.9638 46.5822 33.3456 46.2004 33.3456 45.6913C33.3456 45.1822 32.9638 44.8004 32.4547 44.8004H11.2002C9.80015 44.8004 8.52742 43.6549 8.52742 42.1276V16.4185H47.4729V35.0004C47.4729 35.5094 47.8547 35.8913 48.3638 35.8913C48.8729 35.8913 49.2547 35.5094 49.2547 35.0004V12.0913C49.2547 9.67308 47.2183 7.63672 44.8002 7.63672ZM47.4729 14.764H8.52742V12.0913C8.52742 10.6913 9.67288 9.41854 11.2002 9.41854H44.8002C46.2002 9.41854 47.4729 10.564 47.4729 12.0913V14.764ZM11.2002 12.9822C11.7092 12.9822 12.0911 12.6004 12.0911 12.0913C12.0911 11.5822 11.7092 11.2004 11.2002 11.2004C10.6911 11.2004 10.3092 11.5822 10.3092 12.0913C10.3092 12.6004 10.6911 12.9822 11.2002 12.9822ZM14.7638 12.9822C15.2729 12.9822 15.6547 12.6004 15.6547 12.0913C15.6547 11.5822 15.2729 11.2004 14.7638 11.2004C14.2547 11.2004 13.8729 11.5822 13.8729 12.0913C13.8729 12.6004 14.2547 12.9822 14.7638 12.9822ZM18.3274 12.9822C18.8365 12.9822 19.2183 12.6004 19.2183 12.0913C19.2183 11.5822 18.8365 11.2004 18.3274 11.2004C17.8183 11.2004 17.4365 11.5822 17.4365 12.0913C17.4365 12.6004 17.8183 12.9822 18.3274 12.9822ZM49.0002 39.7094L36.6547 27.364C36.4002 27.1094 36.0183 26.9822 35.6365 27.1094C35.2547 27.2367 35.1274 27.6185 35.1274 27.8731V45.564C35.1274 45.9458 35.382 46.2004 35.6365 46.3276C36.0183 46.4549 36.4002 46.3276 36.6547 46.0731L39.3274 43.4004L41.4911 47.6004C41.6183 47.8549 41.7456 47.9822 42.0002 47.9822C42.1274 47.9822 42.1274 47.9822 42.2547 47.9822C42.382 47.9822 42.5092 47.9822 42.6365 47.8549L46.0729 46.0731C46.4547 45.8185 46.7092 45.3094 46.4547 44.9276L44.4183 40.9822H48.2365C48.6183 40.9822 48.8729 40.7276 49.0002 40.4731C49.2547 40.3458 49.2547 39.964 49.0002 39.7094ZM43.0183 39.4549C42.7638 39.4549 42.382 39.5822 42.2547 39.8367C42.1274 40.0913 42.1274 40.4731 42.2547 40.7276L44.5456 45.1822L42.6365 46.2004L40.3456 41.7458C40.2183 41.4913 39.9638 41.364 39.7092 41.2367H39.582C39.3274 41.2367 39.0729 41.364 38.9456 41.4913L36.9092 43.5276V30.0367L46.3274 39.4549H43.0183Z" fill="url(#paint0_linear_1830_595)"/>
<circle cx="11" cy="29" r="9.13103" fill="white" stroke="url(#paint1_linear_1830_595)" stroke-width="1.73793"/>
<path d="M7.498 28.442H6.252L6.742 27.14H7.792C8.128 26.1787 8.688 25.4227 9.472 24.872C10.2653 24.3213 11.2127 24.046 12.314 24.046C13.0793 24.046 13.6953 24.1767 14.162 24.438L13.56 25.922C13.2333 25.7447 12.8133 25.656 12.3 25.656C11.7587 25.656 11.264 25.7867 10.816 26.048C10.368 26.3 10.0087 26.664 9.738 27.14H13.238L12.748 28.442H9.332C9.304 28.6473 9.29 28.8667 9.29 29.1C9.29 29.296 9.29933 29.4593 9.318 29.59H12.426L11.992 30.892H9.71C9.98067 31.4147 10.3633 31.8207 10.858 32.11C11.3527 32.3993 11.908 32.544 12.524 32.544C13.0467 32.544 13.4527 32.474 13.742 32.334L14.008 33.888C13.616 34.0653 13.0747 34.154 12.384 34.154C11.264 34.154 10.2887 33.8647 9.458 33.286C8.63667 32.7073 8.06267 31.9093 7.736 30.892H6.266L6.756 29.59H7.484C7.47467 29.5247 7.47 29.3613 7.47 29.1C7.47 29.0533 7.47933 28.834 7.498 28.442Z" fill="url(#paint2_linear_1830_595)"/>
<defs>
<linearGradient id="paint0_linear_1830_595" x1="15.5131" y1="47.9822" x2="52.4334" y2="35.8077" gradientUnits="userSpaceOnUse">
<stop stop-color="#FE5000"/>
<stop offset="1" stop-color="#FCA92A"/>
</linearGradient>
<linearGradient id="paint1_linear_1830_595" x1="5.125" y1="39" x2="22.6662" y2="33.5102" gradientUnits="userSpaceOnUse">
<stop stop-color="#FE5000"/>
<stop offset="1" stop-color="#FCA92A"/>
</linearGradient>
<linearGradient id="paint2_linear_1830_595" x1="7.85625" y1="43" x2="16.4224" y2="42.072" gradientUnits="userSpaceOnUse">
<stop stop-color="#FE5000"/>
<stop offset="1" stop-color="#FCA92A"/>
</linearGradient>
</defs>
</svg>
