<svg width="56" height="56" viewBox="0 0 56 56" fill="none" xmlns="http://www.w3.org/2000/svg">
<path d="M28.025 6.5C28.85 6.5 29.525 7.175 29.525 8C29.525 8.825 28.85 9.5 28.025 9.5C27.2 9.5 26.525 8.825 26.525 8C26.525 7.175 27.2 6.5 28.025 6.5ZM48 14C48 11.7875 46.2125 10 44 10H38.45C37.7125 9.175 36.7625 8.55 35.6625 8.2375C34.7375 7.975 34.0375 7.2625 33.7625 6.3375C33.05 3.8375 30.7375 2 28 2C25.2625 2 22.95 3.8375 22.2375 6.3375C21.975 7.2625 21.2625 7.9625 20.3375 8.2375C19.25 8.55 18.3 9.175 17.55 10H12C9.7875 10 8 11.7875 8 14V50C8 52.2125 9.7875 54 12 54C21.1875 54 32.475 54 44 54C46.2125 54 48 52.2125 48 50C48 38.6375 48 27.7625 48 14ZM18 13.9625C18.0125 12.2 19.2 10.6375 20.8875 10.15C22.475 9.6875 23.7 8.475 24.15 6.8875C24.65 5.1875 26.225 4 28 4C29.775 4 31.35 5.1875 31.85 6.8875C32.3125 8.475 33.525 9.7 35.1125 10.15C36.8125 10.65 38 12.225 38 14V16H18V13.9625ZM44 52C33.3125 52 22.65 52 12 52C10.9 52 10 51.1 10 50V14C10 12.9 10.9 12 12 12H16.3375C16.125 12.6125 16 13.2625 16 13.95V18H40V14C40 13.3 39.875 12.625 39.65 12H44C45.1 12 46 12.9 46 14C46 19.7125 46 46.5375 46 50C46 51.1 45.1 52 44 52ZM36.3125 26.3125L24.2875 38.3375L19 33.0375L17.5875 34.45L24.3 41.1625L37.7375 27.725L36.3125 26.3125Z" fill="url(#paint0_linear_2013_453)"/>
<defs>
<linearGradient id="paint0_linear_2013_453" x1="16.25" y1="54" x2="52.6585" y2="45.2349" gradientUnits="userSpaceOnUse">
<stop stop-color="#FE5000"/>
<stop offset="1" stop-color="#FCA92A"/>
</linearGradient>
</defs>
</svg>
