<svg width="56" height="56" viewBox="0 0 56 56" fill="none" xmlns="http://www.w3.org/2000/svg">
<g clip-path="url(#clip0_1830_589)">
<path d="M51.431 14.485H45.274L42.6339 8.76023C42.4736 8.40896 42.0398 8.24756 41.691 8.40896L39.1075 9.61467L31.2815 3.98486C30.9703 3.75701 30.5178 3.83296 30.2915 4.15574L22.9746 14.485H4.56947C4.17346 14.485 3.8623 14.8078 3.8623 15.197V40.8017C3.8623 41.191 4.18289 41.5138 4.56947 41.5138H10.7265L13.3666 47.2385C13.5269 47.5898 13.9512 47.7512 14.3095 47.5898L16.893 46.3841L24.719 52.0139C25.0301 52.2417 25.4827 52.1658 25.709 51.843L33.0258 41.5138H51.4216C51.8176 41.5138 52.1287 41.191 52.1287 40.8017V15.197C52.1382 14.8078 51.8176 14.485 51.431 14.485ZM41.6438 10.0039L43.7088 14.485H32.0452L41.6438 10.0039ZM31.0363 5.57032L37.6366 10.3077L28.6885 14.485H24.719L31.0363 5.57032ZM20.4571 35.096V40.0043C20.4571 40.0327 20.4571 40.0612 20.4666 40.0897H16.2141C16.2141 40.0612 16.2236 40.0327 16.2236 40.0043V35.096V33.7668V15.909H20.4666V33.7668V35.096H20.4571ZM5.27664 40.0897V15.909H14.8941V33.7668H10.6511C10.2834 33.7668 9.99108 34.0612 9.99108 34.4314C9.99108 34.8017 10.2834 35.096 10.6511 35.096H14.8941V40.0043C14.8941 40.0327 14.8941 40.0612 14.9035 40.0897H5.27664ZM14.3567 45.9948L12.2917 41.5138H23.9553L14.3567 45.9948ZM24.9641 50.4379L18.3639 45.7005L27.3119 41.5233H31.2815L24.9641 50.4379ZM50.7238 40.0897H21.7772C21.7772 40.0612 21.7866 40.0327 21.7866 40.0043V35.096H33.8556C34.2233 35.096 34.5156 34.8017 34.5156 34.4314C34.5156 34.0612 34.2233 33.7668 33.8556 33.7668H21.7772V15.909H23.3329H44.8119H50.7238V40.0897ZM38.6643 24.3205H39.8995V20.0104H43.4447C45.4625 20.0104 46.594 21.0357 46.594 22.8015C46.594 24.5769 45.4625 25.6307 43.4447 25.6307H41.4081V26.5041H44.1236V27.3301H41.4081V29.1719H39.8995V27.3301H38.6643V26.5041H39.8995V25.6307H38.6643V24.3205ZM43.2279 24.3205C44.5762 24.3205 45.0854 23.7414 45.0854 22.8015C45.0854 21.8616 44.5762 21.311 43.2279 21.311H41.4081V24.3205H43.2279Z" fill="url(#paint0_linear_1830_589)"/>
</g>
<defs>
<linearGradient id="paint0_linear_1830_589" x1="13.8173" y1="52.1452" x2="56.154" y2="38.9021" gradientUnits="userSpaceOnUse">
<stop stop-color="#FE5000"/>
<stop offset="1" stop-color="#FCA92A"/>
</linearGradient>
<clipPath id="clip0_1830_589">
<rect width="48.2759" height="48.2759" fill="white" transform="translate(3.8623 3.86328)"/>
</clipPath>
</defs>
</svg>
