<svg width="66" height="66" viewBox="0 0 66 66" fill="none" xmlns="http://www.w3.org/2000/svg">
<path fill-rule="evenodd" clip-rule="evenodd" d="M12.5564 55.3333H15.0009C15.6755 55.3333 16.2231 54.7858 16.2231 54.1111C16.2231 53.4364 15.6755 52.8889 15.0009 52.8889H12.5564C10.5349 52.8889 8.88976 51.2438 8.88976 49.2222V10.1111C8.88976 8.08956 10.5349 6.44444 12.5564 6.44444H41.8898C43.9113 6.44444 45.5564 8.08956 45.5564 10.1111C45.5564 10.7858 46.104 11.3333 46.7786 11.3333C47.4533 11.3333 48.0009 10.7858 48.0009 10.1111C48.0009 6.74022 45.2582 4 41.8898 4H12.5564C9.18798 4 6.44531 6.74022 6.44531 10.1111V49.2222C6.44531 52.5931 9.18798 55.3333 12.5564 55.3333ZM24.7771 62.6666H54.1105C57.4789 62.6666 60.2216 59.9264 60.2216 56.5555V19.8888C60.2216 16.5179 57.4789 13.7777 54.1105 13.7777H24.7771C21.4087 13.7777 18.666 16.5179 18.666 19.8888V56.5555C18.666 59.9264 21.4087 62.6666 24.7771 62.6666ZM21.1105 19.8888C21.1105 17.8673 22.7556 16.2222 24.7771 16.2222H54.1105C56.132 16.2222 57.7771 17.8673 57.7771 19.8888V56.5555C57.7771 58.577 56.132 60.2221 54.1105 60.2221H24.7771C22.7556 60.2221 21.1105 58.577 21.1105 56.5555V19.8888ZM49.2231 45.5555H29.6675C28.9929 45.5555 28.4453 45.008 28.4453 44.3333C28.4453 43.6586 28.9929 43.1111 29.6675 43.1111H49.2231C49.8978 43.1111 50.4453 43.6586 50.4453 44.3333C50.4453 45.008 49.8978 45.5555 49.2231 45.5555ZM29.6675 55.3332H49.2231C49.8978 55.3332 50.4453 54.7857 50.4453 54.111C50.4453 53.4363 49.8978 52.8888 49.2231 52.8888H29.6675C28.9929 52.8888 28.4453 53.4363 28.4453 54.111C28.4453 54.7857 28.9929 55.3332 29.6675 55.3332ZM49.2231 35.7778H29.6675C28.9929 35.7778 28.4453 35.2303 28.4453 34.5556C28.4453 33.8809 28.9929 33.3334 29.6675 33.3334H49.2231C49.8978 33.3334 50.4453 33.8809 50.4453 34.5556C50.4453 35.2303 49.8978 35.7778 49.2231 35.7778ZM29.6675 26H49.2231C49.8978 26 50.4453 25.4524 50.4453 24.7778C50.4453 24.1031 49.8978 23.5555 49.2231 23.5555H29.6675C28.9929 23.5555 28.4453 24.1031 28.4453 24.7778C28.4453 25.4524 28.9929 26 29.6675 26Z" fill="url(#paint0_linear_3971_2302)"/>
<defs>
<linearGradient id="paint0_linear_3971_2302" x1="6.44531" y1="62.6666" x2="64.8904" y2="9.09339" gradientUnits="userSpaceOnUse">
<stop stop-color="#FE5000"/>
<stop offset="1" stop-color="#FE9800"/>
</linearGradient>
</defs>
</svg>
