<svg width="44" height="44" viewBox="0 0 44 44" fill="none" xmlns="http://www.w3.org/2000/svg">
<path d="M34.6992 12.0998L36.7992 9.99976L33.9992 7.19976L31.5992 9.59976C28.9992 7.99976 25.8992 6.99976 22.6992 6.89976V5.49976H26.6992V3.49976C26.6992 2.39976 25.7992 1.49976 24.6992 1.49976H19.3992C18.2992 1.49976 17.3992 2.39976 17.3992 3.49976V5.49976H21.3992V6.79976C18.0992 6.99976 14.9992 7.99976 12.3992 9.59976L9.99922 7.19976L7.19922 9.99976L9.29922 12.0998C6.09922 15.2998 4.19922 19.6998 4.19922 24.5998C4.19922 34.3998 12.1992 42.3998 21.9992 42.3998C31.7992 42.3998 39.7992 34.3998 39.7992 24.5998C39.7992 19.7998 37.7992 15.3998 34.6992 12.0998ZM33.9992 9.09976L34.8992 9.99976L33.6992 11.1998C33.3992 10.8998 32.9992 10.5998 32.6992 10.3998L33.9992 9.09976ZM18.6992 4.19976V3.49976C18.6992 3.09976 18.9992 2.79976 19.3992 2.79976H24.6992C25.0992 2.79976 25.3992 3.09976 25.3992 3.49976V4.19976H18.6992ZM9.09922 9.99976L9.99922 9.09976L11.2992 10.3998C10.8992 10.6998 10.5992 10.8998 10.2992 11.1998L9.09922 9.99976ZM21.9992 41.0998C12.8992 41.0998 5.49922 33.6998 5.49922 24.5998C5.49922 15.4998 12.8992 8.19976 21.9992 8.19976C31.0992 8.19976 38.4992 15.5998 38.4992 24.6998C38.4992 33.6998 31.0992 41.0998 21.9992 41.0998ZM21.9992 10.7998C14.3992 10.7998 8.19922 16.9998 8.19922 24.5998C8.19922 32.1998 14.3992 38.3998 21.9992 38.3998C29.5992 38.3998 35.7992 32.1998 35.7992 24.5998C35.7992 16.9998 29.5992 10.7998 21.9992 10.7998ZM22.6992 37.0998V35.7998H21.3992V37.0998C14.9992 36.7998 9.89922 31.6998 9.49922 25.2998H10.7992V23.9998H9.49922C9.79922 17.5998 14.9992 12.4998 21.2992 12.1998V13.4998H22.5992V12.1998C28.9992 12.4998 34.1992 17.5998 34.4992 23.9998H33.1992V25.2998H34.4992C34.1992 31.6998 28.9992 36.7998 22.6992 37.0998ZM21.9992 21.9998C20.4992 21.9998 19.3992 23.1998 19.3992 24.5998C19.3992 26.0998 20.5992 27.1998 21.9992 27.1998C23.4992 27.1998 24.5992 25.9998 24.5992 24.5998C24.5992 23.1998 23.4992 21.9998 21.9992 21.9998ZM21.9992 25.9998C21.2992 25.9998 20.6992 25.3998 20.6992 24.6998C20.6992 23.9998 21.2992 23.3998 21.9992 23.3998C22.6992 23.3998 23.2992 23.9998 23.2992 24.6998C23.2992 25.3998 22.6992 25.9998 21.9992 25.9998ZM22.6992 15.3998H21.3992V21.2998H22.6992V15.3998ZM18.6992 23.9998H14.6992V25.2998H18.6992V23.9998Z" fill="url(#paint0_linear_3971_2487)"/>
<defs>
<linearGradient id="paint0_linear_3971_2487" x1="11.5417" y1="42.3998" x2="43.4551" y2="33.7062" gradientUnits="userSpaceOnUse">
<stop stop-color="#FE5000"/>
<stop offset="1" stop-color="#FCA92A"/>
</linearGradient>
</defs>
</svg>
