<svg width="44" height="44" viewBox="0 0 44 44" fill="none" xmlns="http://www.w3.org/2000/svg">
<path d="M25.4545 10.2179V7.25964C25.4545 1.58045 3 1.58045 3 7.25964V24.5625C3 26.7951 6.49473 28.1868 10.699 28.6816C9.16117 29.3713 8.18181 30.3029 8.18181 31.4837V36.6746C8.18181 39.5142 13.83 41.0002 19.4091 41.0002C24.9882 41.0002 30.6364 39.5141 30.6364 36.6746V34.0648C35.9197 33.9195 41 32.4464 41 29.7534V14.1808C40.9999 10.5955 32.0535 9.27634 25.4545 10.2179ZM14.2273 4.72751C20.374 4.72751 23.7272 6.43873 23.7272 7.31842C23.7272 8.19811 20.3739 9.90933 14.2273 9.90933C8.08069 9.90933 4.72732 8.19811 4.72732 7.31842C4.72724 6.43881 8.0806 4.72751 14.2273 4.72751ZM4.72724 9.72173C6.82288 10.983 10.5349 11.6367 14.2272 11.6367C17.9195 11.6367 21.6316 10.983 23.7272 9.72173V10.58C20.7259 11.2456 18.5454 12.4611 18.5454 14.2276V14.7385C17.1919 14.9557 15.7309 15.0911 14.2273 15.0911C8.0806 15.0911 4.72732 13.3799 4.72732 12.5002V9.72173H4.72724ZM20.2727 26.9944C20.437 27.0933 20.608 27.1894 20.7916 27.2807C20.6187 27.2735 20.4462 27.2665 20.2727 27.2619V26.9944ZM4.72724 14.9036C6.82288 16.1648 10.5349 16.8185 14.2272 16.8185C15.7222 16.8185 17.1752 16.6842 18.5454 16.4796V20.784C17.1918 21.0012 15.7308 21.1366 14.2272 21.1366C8.08052 21.1366 4.72724 19.4254 4.72724 18.5457V14.9036ZM4.72724 24.5912V20.949C6.82288 22.2103 10.5349 22.864 14.2272 22.864C15.7222 22.864 17.1752 22.7297 18.5454 22.525V26.8295C17.1918 27.0467 15.7308 27.1821 14.2272 27.1821C8.0806 27.1821 4.72724 25.4708 4.72724 24.5912ZM28.9091 36.6821C28.9091 37.5618 25.5557 39.273 19.4091 39.273C13.2625 39.273 9.90905 37.5618 9.90905 36.6821V33.9035C12.0047 35.1648 15.7167 35.8184 19.409 35.8184C22.9433 35.8184 26.5006 35.2211 28.6368 34.064C28.7265 34.0674 28.8189 34.0678 28.909 34.0705V36.6821H28.9091ZM19.4091 34.0912C13.2624 34.0912 9.90913 32.38 9.90913 31.5003C9.90913 30.6206 13.2625 28.9094 19.4091 28.9094C25.5557 28.9094 28.9091 30.6206 28.9091 31.5003C28.9091 32.38 25.5557 34.0912 19.4091 34.0912ZM39.2727 29.773C39.2727 30.6089 36.2125 32.1784 30.6363 32.334V31.5003C30.6363 30.4212 29.8198 29.5491 28.5026 28.8808C28.9249 28.8979 29.3485 28.9094 29.7726 28.9094C33.4649 28.9094 37.177 28.2557 39.2726 26.9944V29.773H39.2727ZM39.2727 24.5912C39.2727 25.4709 35.9193 27.1821 29.7727 27.1821C23.6261 27.1821 20.2728 25.4709 20.2728 24.5912V21.8126C22.3683 23.0739 26.0804 23.7275 29.7727 23.7275C33.465 23.7275 37.1771 23.0739 39.2727 21.8126V24.5912ZM39.2727 19.4094C39.2727 20.2891 35.9193 22.0003 29.7727 22.0003C23.6261 22.0003 20.2728 20.2891 20.2728 19.4094V16.6308C22.3683 17.8921 26.0804 18.5457 29.7727 18.5457C33.465 18.5457 37.1771 17.8921 39.2727 16.6308V19.4094ZM29.7727 16.8185C23.626 16.8185 20.2728 15.1073 20.2728 14.2276C20.2728 13.3479 23.6261 11.6367 29.7727 11.6367C35.9193 11.6367 39.2727 13.3479 39.2727 14.2276C39.2727 15.1073 35.9193 16.8185 29.7727 16.8185Z" fill="url(#paint0_linear_3971_2489)"/>
<defs>
<linearGradient id="paint0_linear_3971_2489" x1="3" y1="41.0002" x2="41" y2="3.00024" gradientUnits="userSpaceOnUse">
<stop stop-color="#FE5000"/>
<stop offset="1" stop-color="#FE9800"/>
</linearGradient>
</defs>
</svg>
