<svg width="44" height="44" viewBox="0 0 44 44" fill="none" xmlns="http://www.w3.org/2000/svg">
<path d="M40.5814 19.3852C40.0402 19.3852 39.6794 19.746 39.6794 20.2872V23.8051V29.1271V30.0291C39.6794 31.0213 38.8675 31.8331 37.8753 31.8331H36.0713C34.5378 31.8331 33.4554 33.0058 33.4554 34.449V36.2531C33.4554 37.2453 32.6436 38.0571 31.6514 38.0571H27.2314H5.13185C4.59064 38.0571 4.22983 37.6963 4.22983 37.1551V20.197C4.22983 19.6558 3.86902 19.295 3.32781 19.295C2.78659 19.295 2.42578 19.6558 2.42578 20.197V37.0649C2.42578 38.5983 3.59841 39.6807 5.04165 39.6807H27.2314H31.6514H32.824C33.9966 39.6807 35.1693 39.2297 35.8909 38.3277L40.0402 34.1784C40.852 33.3666 41.3932 32.1939 41.3932 31.1115V29.9389V29.0369V23.8051V20.197C41.4834 19.6558 41.1226 19.3852 40.5814 19.3852ZM35.1693 36.7943C35.1693 36.6139 35.2595 36.4335 35.2595 36.1629V34.3588C35.2595 33.8176 35.6203 33.4568 36.1615 33.4568H37.9655C38.1459 33.4568 38.3263 33.4568 38.5969 33.3666L35.1693 36.7943ZM38.8675 6.93727H32.6436V5.13323C32.6436 4.59201 32.2828 4.2312 31.7416 4.2312C31.2003 4.2312 30.8395 4.59201 30.8395 5.13323V6.93727H13.1599V5.13323C13.1599 4.59201 12.7991 4.2312 12.2578 4.2312C11.7166 4.2312 11.3558 4.59201 11.3558 5.13323V6.93727H5.13185C3.59841 6.93727 2.51598 8.1099 2.51598 9.55314V16.6791C2.51598 17.2203 2.87679 17.5812 3.41801 17.5812H40.6716C41.2128 17.5812 41.5736 17.2203 41.5736 16.6791V9.55314C41.4834 8.1099 40.3108 6.93727 38.8675 6.93727ZM39.6794 15.7771H4.32003V9.55314C4.32003 9.01193 4.68084 8.65112 5.22206 8.65112H11.446V10.7258C10.9048 10.9964 10.544 11.6278 10.544 12.2592C10.544 13.2514 11.3558 14.0633 12.348 14.0633C13.3403 14.0633 14.1521 13.2514 14.1521 12.2592C14.1521 11.6278 13.7913 10.9964 13.2501 10.7258V8.65112H30.9297V10.7258C30.3885 10.9964 30.0277 11.6278 30.0277 12.2592C30.0277 13.2514 30.8395 14.0633 31.8318 14.0633C32.824 14.0633 33.6358 13.2514 33.6358 12.2592C33.6358 11.6278 33.275 10.9964 32.7338 10.7258V8.65112H38.9578C39.499 8.65112 39.8598 9.01193 39.8598 9.55314L39.6794 15.7771ZM18.4818 24.6169C19.474 24.6169 20.2859 23.8051 20.2859 22.8129C20.2859 21.8207 19.474 21.0088 18.4818 21.0088C17.4896 21.0088 16.6778 21.8207 16.6778 22.8129C16.6778 23.8953 17.4896 24.6169 18.4818 24.6169ZM25.5176 24.6169C26.5098 24.6169 27.3216 23.8051 27.3216 22.8129C27.3216 21.8207 26.5098 21.0088 25.5176 21.0088C24.5254 21.0088 23.7135 21.8207 23.7135 22.8129C23.8037 23.8953 24.5254 24.6169 25.5176 24.6169ZM32.6436 24.6169C33.6358 24.6169 34.4476 23.8051 34.4476 22.8129C34.4476 21.8207 33.6358 21.0088 32.6436 21.0088C31.6514 21.0088 30.8395 21.8207 30.8395 22.8129C30.8395 23.8953 31.6514 24.6169 32.6436 24.6169ZM11.3558 32.645C12.348 32.645 13.1599 31.8331 13.1599 30.8409C13.1599 29.8487 12.348 29.0369 11.3558 29.0369C10.3636 29.0369 9.55177 29.8487 9.55177 30.8409C9.55177 31.8331 10.3636 32.645 11.3558 32.645ZM18.4818 32.645C19.474 32.645 20.2859 31.8331 20.2859 30.8409C20.2859 29.8487 19.474 29.0369 18.4818 29.0369C17.4896 29.0369 16.6778 29.8487 16.6778 30.8409C16.6778 31.8331 17.4896 32.645 18.4818 32.645ZM25.5176 32.645C26.5098 32.645 27.3216 31.8331 27.3216 30.8409C27.3216 29.8487 26.5098 29.0369 25.5176 29.0369C24.5254 29.0369 23.7135 29.8487 23.7135 30.8409C23.7135 31.8331 24.5254 32.645 25.5176 32.645Z" fill="url(#paint0_linear_3971_2485)"/>
<defs>
<linearGradient id="paint0_linear_3971_2485" x1="10.5" y1="39.6807" x2="44.1755" y2="28.0419" gradientUnits="userSpaceOnUse">
<stop stop-color="#FE5000"/>
<stop offset="1" stop-color="#FCA92A"/>
</linearGradient>
</defs>
</svg>
