<svg width="56" height="56" viewBox="0 0 56 56" fill="none" xmlns="http://www.w3.org/2000/svg">
<path d="M44.1629 15.4L46.8356 12.7272L43.272 9.1636L40.2175 12.2181C36.9084 10.1818 32.9629 8.90906 28.8902 8.78178V6.99997H33.9811V4.45451C33.9811 3.05451 32.8356 1.90906 31.4356 1.90906H24.6902C23.2902 1.90906 22.1447 3.05451 22.1447 4.45451V6.99997H27.2356V8.65451C23.0356 8.90906 19.0902 10.1818 15.7811 12.2181L12.7265 9.1636L9.16291 12.7272L11.8356 15.4C7.76291 19.4727 5.34473 25.0727 5.34473 31.3091C5.34473 43.7818 15.5265 53.9636 27.9993 53.9636C40.472 53.9636 50.6538 43.7818 50.6538 31.3091C50.6538 25.2 48.1084 19.6 44.1629 15.4ZM43.272 11.5818L44.4175 12.7272L42.8902 14.2545C42.5084 13.8727 41.9993 13.4909 41.6175 13.2363L43.272 11.5818ZM23.7993 5.34542V4.45451C23.7993 3.94542 24.1811 3.5636 24.6902 3.5636H31.4356C31.9447 3.5636 32.3265 3.94542 32.3265 4.45451V5.34542H23.7993ZM11.5811 12.7272L12.7265 11.5818L14.3811 13.2363C13.872 13.6181 13.4902 13.8727 13.1084 14.2545L11.5811 12.7272ZM27.9993 52.3091C16.4175 52.3091 6.99927 42.8909 6.99927 31.3091C6.99927 19.7272 16.4175 10.4363 27.9993 10.4363C39.5811 10.4363 48.9993 19.8545 48.9993 31.4363C48.9993 42.8909 39.5811 52.3091 27.9993 52.3091ZM27.9993 13.7454C18.3265 13.7454 10.4356 21.6363 10.4356 31.3091C10.4356 40.9818 18.3265 48.8727 27.9993 48.8727C37.672 48.8727 45.5629 40.9818 45.5629 31.3091C45.5629 21.6363 37.672 13.7454 27.9993 13.7454ZM28.8902 47.2181V45.5636H27.2356V47.2181C19.0902 46.8363 12.5993 40.3454 12.0902 32.2H13.7447V30.5454H12.0902C12.472 22.4 19.0902 15.9091 27.1084 15.5272V17.1818H28.7629V15.5272C36.9084 15.9091 43.5265 22.4 43.9084 30.5454H42.2538V32.2H43.9084C43.5265 40.3454 36.9084 46.8363 28.8902 47.2181ZM27.9993 28C26.0902 28 24.6902 29.5272 24.6902 31.3091C24.6902 33.2181 26.2175 34.6181 27.9993 34.6181C29.9084 34.6181 31.3084 33.0909 31.3084 31.3091C31.3084 29.5272 29.9084 28 27.9993 28ZM27.9993 33.0909C27.1084 33.0909 26.3447 32.3272 26.3447 31.4363C26.3447 30.5454 27.1084 29.7818 27.9993 29.7818C28.8902 29.7818 29.6538 30.5454 29.6538 31.4363C29.6538 32.3272 28.8902 33.0909 27.9993 33.0909ZM28.8902 19.6H27.2356V27.1091H28.8902V19.6ZM23.7993 30.5454H18.7084V32.2H23.7993V30.5454Z" fill="url(#paint0_linear_3826_2016)"/>
<defs>
<linearGradient id="paint0_linear_3826_2016" x1="14.6897" y1="53.9636" x2="55.3068" y2="42.8991" gradientUnits="userSpaceOnUse">
<stop stop-color="#FE5000"/>
<stop offset="1" stop-color="#FCA92A"/>
</linearGradient>
</defs>
</svg>
