<svg width="56" height="56" viewBox="0 0 56 56" fill="none" xmlns="http://www.w3.org/2000/svg">
<path fill-rule="evenodd" clip-rule="evenodd" d="M19.5991 5.84878C18.1405 5.84878 16.696 5.8628 15.2657 5.89085C14.1292 5.91313 13.0535 5.92664 12.0388 5.93134V19.0227H7.90078V21.3074H12.0388V26.412H7.90078V28.6966H12.0388V33.8902H15.5901V28.6966H22.5149V26.412H15.5901V21.3074H20.2747C23.574 21.3074 26.0202 20.5839 27.7166 19.242C29.3921 17.9166 30.2419 16.1029 30.2419 13.7047C30.2419 11.0121 29.3637 9.11036 27.6986 7.85079C25.9914 6.55936 23.3354 5.84878 19.5991 5.84878ZM15.2344 4.29116C16.6753 4.2629 18.1302 4.24878 19.5991 4.24878C23.4914 4.24878 26.5568 4.98086 28.6638 6.57475C30.813 8.2005 31.8419 10.6268 31.8419 13.7047C31.8419 16.5424 30.8057 18.8385 28.7092 20.4969C26.6335 22.1389 23.7876 22.9074 20.2747 22.9074H17.1901V24.812H24.1149V30.2966H17.1901V35.4902H10.4388V30.2966H6.30078V24.812H10.4388V22.9074H6.30078V17.4227H10.4388V4.33323H11.2388C12.4714 4.33323 13.8032 4.31922 15.2344 4.29116ZM16.3719 9.18922C18.8375 9.13318 20.1078 9.10456 20.1481 9.10456C22.0454 9.10456 23.6079 9.44921 24.6865 10.2816C25.8471 11.1548 26.3528 12.5167 26.3528 14.1692C26.3528 15.7179 25.8199 16.9944 24.6686 17.8511C23.5617 18.6749 21.9974 19.0227 20.1058 19.0227H15.5901V9.20698L16.3719 9.18922ZM17.1901 10.771V17.4227H20.1058C21.8455 17.4227 23.0047 17.095 23.7134 16.5676C24.3778 16.0732 24.7528 15.3228 24.7528 14.1692C24.7528 12.8401 24.359 12.036 23.7216 11.5579L23.7118 11.5506C23.0452 11.0345 21.9073 10.7046 20.1481 10.7046C20.1504 10.7046 20.1348 10.7049 20.0979 10.7057C20.0603 10.7065 20.0006 10.7078 19.9149 10.7096L19.2054 10.7255C18.7186 10.7364 18.0469 10.7516 17.1901 10.771Z" fill="url(#paint0_linear_3826_1982)"/>
<path fill-rule="evenodd" clip-rule="evenodd" d="M23.8789 21.1232L30.3091 18.8662L36.1949 30.287L42.0417 18.8662H49.51L42.0786 32.1668H46.6243V37.6937H39.3618V39.5561H46.6243V45.0829H39.3618V50.0231H32.6104V45.0829H25.4323V39.5561H32.6104V37.6937H25.4323V32.1668H29.8627L23.8789 21.1232ZM25.9603 21.6584L32.5668 33.7668H27.0323V36.0937H34.2104V41.1561H27.0323V43.4829H34.2104V48.4231H37.7618V43.4829H45.0243V41.1561H37.7618V36.0937H45.0243V33.7668H39.3518L46.7833 20.4662H43.02L36.1996 33.7888L29.3337 20.4662L25.9603 21.6584Z" fill="url(#paint1_linear_3826_1982)"/>
<defs>
<linearGradient id="paint0_linear_3826_1982" x1="6.30078" y1="35.4902" x2="36.9188" y2="10.4587" gradientUnits="userSpaceOnUse">
<stop stop-color="#FE5000"/>
<stop offset="1" stop-color="#FE9800"/>
</linearGradient>
<linearGradient id="paint1_linear_3826_1982" x1="23.8789" y1="50.0231" x2="54.4514" y2="24.8728" gradientUnits="userSpaceOnUse">
<stop stop-color="#FE5000"/>
<stop offset="1" stop-color="#FE9800"/>
</linearGradient>
</defs>
</svg>
