<svg width="40" height="40" viewBox="0 0 40 40" fill="none" xmlns="http://www.w3.org/2000/svg">
<g clip-path="url(#clip0_3972_3854)">
<path d="M39.4141 8.80063H34.3125L32.125 4.05726C31.9922 3.76621 31.6328 3.63248 31.3438 3.76621L29.2031 4.76523L22.7188 0.100524C22.4609 -0.0882664 22.0859 -0.0253362 21.8984 0.242117L15.8359 8.80063H0.585938C0.257813 8.80063 0 9.06808 0 9.3906V30.6059C0 30.9285 0.265625 31.1959 0.585938 31.1959H5.6875L7.875 35.9393C8.00781 36.2303 8.35938 36.3641 8.65625 36.2303L10.7969 35.2313L17.2813 39.896C17.5391 40.0848 17.9141 40.0219 18.1016 39.7544L24.1641 31.1959H39.4063C39.7344 31.1959 39.9922 30.9285 39.9922 30.6059V9.3906C40 9.06808 39.7344 8.80063 39.4141 8.80063ZM31.3047 5.08774L33.0156 8.80063H23.3516L31.3047 5.08774ZM22.5156 1.41419L27.9844 5.33946L20.5703 8.80063H17.2813L22.5156 1.41419ZM13.75 25.8783V29.9452C13.75 29.9688 13.75 29.9924 13.7578 30.016H10.2344C10.2344 29.9924 10.2422 29.9688 10.2422 29.9452V25.8783V24.777V9.98057H13.7578V24.777V25.8783H13.75ZM1.17188 30.016V9.98057H9.14063V24.777H5.625C5.32031 24.777 5.07813 25.0209 5.07813 25.3277C5.07813 25.6345 5.32031 25.8783 5.625 25.8783H9.14063V29.9452C9.14063 29.9688 9.14063 29.9924 9.14844 30.016H1.17188ZM8.69531 34.9088L6.98438 31.1959H16.6484L8.69531 34.9088ZM17.4844 38.5902L12.0156 34.6649L19.4297 31.2038H22.7188L17.4844 38.5902ZM38.8281 30.016H14.8438C14.8438 29.9924 14.8516 29.9688 14.8516 29.9452V25.8783H24.8516C25.1563 25.8783 25.3984 25.6345 25.3984 25.3277C25.3984 25.0209 25.1563 24.777 24.8516 24.777H14.8438V9.98057H16.1328H33.9297H38.8281V30.016ZM28.8359 16.9501H29.8594V13.3788H32.7969C34.4688 13.3788 35.4063 14.2284 35.4063 15.6915C35.4063 17.1625 34.4688 18.0356 32.7969 18.0356H31.1094V18.7593H33.3594V19.4437H31.1094V20.9698H29.8594V19.4437H28.8359V18.7593H29.8594V18.0356H28.8359V16.9501ZM32.6172 16.9501C33.7344 16.9501 34.1563 16.4702 34.1563 15.6915C34.1563 14.9127 33.7344 14.4565 32.6172 14.4565H31.1094V16.9501H32.6172Z" fill="url(#paint0_linear_3972_3854)"/>
</g>
<defs>
<linearGradient id="paint0_linear_3972_3854" x1="8.24842" y1="40.0048" x2="43.3274" y2="29.032" gradientUnits="userSpaceOnUse">
<stop stop-color="#FE5000"/>
<stop offset="1" stop-color="#FCA92A"/>
</linearGradient>
<clipPath id="clip0_3972_3854">
<rect width="40" height="40" fill="white"/>
</clipPath>
</defs>
</svg>
