<svg width="66" height="66" viewBox="0 0 66 66" fill="none" xmlns="http://www.w3.org/2000/svg">
<g clip-path="url(#clip0_2159_712)">
<path d="M60.1807 17.3207H53.0385L49.976 10.6799C49.7901 10.2725 49.2869 10.0853 48.8822 10.2725L45.8854 11.6711L36.8072 5.14051C36.4463 4.87621 35.9213 4.96431 35.6588 5.33874L27.1713 17.3207H5.82129C5.36191 17.3207 5.00098 17.6951 5.00098 18.1466V47.8481C5.00098 48.2996 5.37285 48.6741 5.82129 48.6741H12.9635L16.026 55.3148C16.2119 55.7222 16.7041 55.9095 17.1197 55.7222L20.1166 54.3236L29.1947 60.8542C29.5557 61.1185 30.0807 61.0304 30.3432 60.656L38.8307 48.6741H60.1697C60.6291 48.6741 60.9901 48.2996 60.9901 47.8481V18.1466C61.001 17.6951 60.6291 17.3207 60.1807 17.3207ZM48.8276 12.1226L51.2229 17.3207H37.6932L48.8276 12.1226ZM36.5229 6.97965L44.1791 12.475L33.7994 17.3207H29.1947L36.5229 6.97965ZM24.251 41.2294V46.923C24.251 46.9561 24.251 46.9891 24.2619 47.0221H19.3291C19.3291 46.9891 19.34 46.9561 19.34 46.923V41.2294V39.6876V18.9726H24.2619V39.6876V41.2294H24.251ZM6.6416 47.0221V18.9726H17.7979V39.6876H12.876C12.4494 39.6876 12.1104 40.029 12.1104 40.4585C12.1104 40.888 12.4494 41.2294 12.876 41.2294H17.7979V46.923C17.7979 46.9561 17.7979 46.9891 17.8088 47.0221H6.6416ZM17.1744 53.8721L14.7791 48.6741H28.3088L17.1744 53.8721ZM29.4791 59.0261L21.8229 53.5307L32.2025 48.6851H36.8072L29.4791 59.0261ZM59.3604 47.0221H25.7822C25.7822 46.9891 25.7932 46.9561 25.7932 46.923V41.2294H39.7932C40.2197 41.2294 40.5588 40.888 40.5588 40.4585C40.5588 40.029 40.2197 39.6876 39.7932 39.6876H25.7822V18.9726H27.5869H52.5026H59.3604V47.0221ZM45.3713 28.7299H46.8041V23.7301H50.9166C53.2572 23.7301 54.5697 24.9195 54.5697 26.9679C54.5697 29.0272 53.2572 30.2497 50.9166 30.2497H48.5541V31.2628H51.7041V32.221H48.5541V34.3574H46.8041V32.221H45.3713V31.2628H46.8041V30.2497H45.3713V28.7299ZM50.6651 28.7299C52.2291 28.7299 52.8197 28.0581 52.8197 26.9679C52.8197 25.8776 52.2291 25.2388 50.6651 25.2388H48.5541V28.7299H50.6651Z" fill="url(#paint0_linear_2159_712)"/>
</g>
<defs>
<linearGradient id="paint0_linear_2159_712" x1="5.00098" y1="61.0066" x2="61.0194" y2="5.01725" gradientUnits="userSpaceOnUse">
<stop stop-color="#FE5000"/>
<stop offset="1" stop-color="#FE9800"/>
</linearGradient>
<clipPath id="clip0_2159_712">
<rect width="56" height="56" fill="white" transform="translate(5.00098 5)"/>
</clipPath>
</defs>
</svg>
