<svg width="66" height="66" viewBox="0 0 66 66" fill="none" xmlns="http://www.w3.org/2000/svg">
<path d="M52.7919 9H13.2092C10.3384 9 8.00098 11.3375 8.00098 14.2083V49.6244C8.00098 52.4951 10.3384 54.8326 13.2092 54.8326H38.2087C38.7837 54.8326 39.2504 54.3659 39.2504 53.7909C39.2504 53.2159 38.7837 52.7492 38.2087 52.7492H13.2092C11.4863 52.7492 10.0842 51.3472 10.0842 49.6243V19.4165H55.9167V41.2911C55.9167 41.8661 56.3834 42.3328 56.9584 42.3328C57.5334 42.3328 58.0001 41.8661 58.0001 41.2911V14.2083C58.0001 11.3375 55.6626 9 52.7919 9ZM55.9168 17.3333H10.0842V14.2083C10.0842 12.4854 11.4863 11.0834 13.2092 11.0834H52.7918C54.5147 11.0834 55.9167 12.4854 55.9167 14.2083V17.3333H55.9168Z" fill="url(#paint0_linear_2159_735)"/>
<path d="M13.2097 15.2501C13.785 15.2501 14.2513 14.7837 14.2513 14.2084C14.2513 13.6331 13.785 13.1667 13.2097 13.1667C12.6343 13.1667 12.168 13.6331 12.168 14.2084C12.168 14.7837 12.6343 15.2501 13.2097 15.2501Z" fill="url(#paint1_linear_2159_735)"/>
<path d="M17.3757 15.2501C17.951 15.2501 18.4173 14.7837 18.4173 14.2084C18.4173 13.6331 17.951 13.1667 17.3757 13.1667C16.8004 13.1667 16.334 13.6331 16.334 14.2084C16.334 14.7837 16.8004 15.2501 17.3757 15.2501Z" fill="url(#paint2_linear_2159_735)"/>
<path d="M21.5427 15.2501C22.118 15.2501 22.5843 14.7837 22.5843 14.2084C22.5843 13.6331 22.118 13.1667 21.5427 13.1667C20.9674 13.1667 20.501 13.6331 20.501 14.2084C20.501 14.7837 20.9674 15.2501 21.5427 15.2501Z" fill="url(#paint3_linear_2159_735)"/>
<path d="M57.6962 46.8034L43.1132 32.2204C42.8152 31.9246 42.3694 31.835 41.9777 31.9954C41.5882 32.1558 41.334 32.5371 41.334 32.9579V53.7908C41.334 54.2116 41.5882 54.5929 41.9777 54.7513C42.3694 54.9158 42.8132 54.8263 43.1132 54.5263L46.2694 51.3701L48.8256 56.3492C48.9526 56.5992 49.1756 56.7846 49.4401 56.8679C49.5421 56.8992 49.6484 56.9159 49.7526 56.9159C49.9213 56.9159 50.088 56.8742 50.2421 56.7929L54.3233 54.6242C54.8233 54.3597 55.0213 53.7409 54.7629 53.2347L52.4046 48.5827H56.9587C57.3795 48.5827 57.7608 48.3285 57.9212 47.939C58.0837 47.5492 57.9942 47.1014 57.6962 46.8034ZM50.7088 46.4993C50.3463 46.4993 50.0109 46.6867 49.8213 46.995C49.6318 47.3033 49.6151 47.6888 49.7796 48.0117L52.4421 53.2658L50.1963 54.4596L47.4693 49.1492C47.3173 48.8534 47.0339 48.6472 46.7048 48.595C46.6506 48.5867 46.5965 48.5825 46.5423 48.5825C46.2694 48.5825 46.0028 48.6908 45.8048 48.8888L43.4173 51.2762V35.4724L54.4442 46.4993H50.7088Z" fill="url(#paint4_linear_2159_735)"/>
<defs>
<linearGradient id="paint0_linear_2159_735" x1="8.00098" y1="54.8326" x2="53.6606" y2="5.02215" gradientUnits="userSpaceOnUse">
<stop stop-color="#FE5000"/>
<stop offset="1" stop-color="#FE9800"/>
</linearGradient>
<linearGradient id="paint1_linear_2159_735" x1="12.168" y1="15.2501" x2="14.2513" y2="13.1667" gradientUnits="userSpaceOnUse">
<stop stop-color="#FE5000"/>
<stop offset="1" stop-color="#FE9800"/>
</linearGradient>
<linearGradient id="paint2_linear_2159_735" x1="16.334" y1="15.2501" x2="18.4173" y2="13.1667" gradientUnits="userSpaceOnUse">
<stop stop-color="#FE5000"/>
<stop offset="1" stop-color="#FE9800"/>
</linearGradient>
<linearGradient id="paint3_linear_2159_735" x1="20.501" y1="15.2501" x2="22.5843" y2="13.1667" gradientUnits="userSpaceOnUse">
<stop stop-color="#FE5000"/>
<stop offset="1" stop-color="#FE9800"/>
</linearGradient>
<linearGradient id="paint4_linear_2159_735" x1="41.334" y1="56.9159" x2="64.4108" y2="41.5302" gradientUnits="userSpaceOnUse">
<stop stop-color="#FE5000"/>
<stop offset="1" stop-color="#FE9800"/>
</linearGradient>
</defs>
</svg>
