<svg width="66" height="66" viewBox="0 0 66 66" fill="none" xmlns="http://www.w3.org/2000/svg">
<g clip-path="url(#clip0_2639_1160)">
<path d="M60.1797 17.3207H53.0375L49.975 10.6799C49.7891 10.2725 49.2859 10.0853 48.8813 10.2725L45.8844 11.6711L36.8063 5.14051C36.4453 4.87621 35.9203 4.96431 35.6578 5.33874L27.1703 17.3207H5.82031C5.36094 17.3207 5 17.6951 5 18.1466V47.8481C5 48.2996 5.37188 48.6741 5.82031 48.6741H12.9625L16.025 55.3148C16.2109 55.7222 16.7031 55.9095 17.1188 55.7222L20.1156 54.3236L29.1938 60.8542C29.5547 61.1185 30.0797 61.0304 30.3422 60.656L38.8297 48.6741H60.1688C60.6281 48.6741 60.9891 48.2996 60.9891 47.8481V18.1466C61 17.6951 60.6281 17.3207 60.1797 17.3207ZM48.8266 12.1226L51.2219 17.3207H37.6922L48.8266 12.1226ZM36.5219 6.97965L44.1781 12.475L33.7984 17.3207H29.1938L36.5219 6.97965ZM24.25 41.2294V46.923C24.25 46.9561 24.25 46.9891 24.2609 47.0221H19.3281C19.3281 46.9891 19.3391 46.9561 19.3391 46.923V41.2294V39.6876V18.9726H24.2609V39.6876V41.2294H24.25ZM6.64063 47.0221V18.9726H17.7969V39.6876H12.875C12.4484 39.6876 12.1094 40.029 12.1094 40.4585C12.1094 40.888 12.4484 41.2294 12.875 41.2294H17.7969V46.923C17.7969 46.9561 17.7969 46.9891 17.8078 47.0221H6.64063ZM17.1734 53.8721L14.7781 48.6741H28.3078L17.1734 53.8721ZM29.4781 59.0261L21.8219 53.5307L32.2016 48.6851H36.8063L29.4781 59.0261ZM59.3594 47.0221H25.7813C25.7813 46.9891 25.7922 46.9561 25.7922 46.923V41.2294H39.7922C40.2188 41.2294 40.5578 40.888 40.5578 40.4585C40.5578 40.029 40.2188 39.6876 39.7922 39.6876H25.7813V18.9726H27.5859H52.5016H59.3594V47.0221ZM45.3703 28.7299H46.8031V23.7301H50.9156C53.2563 23.7301 54.5688 24.9195 54.5688 26.9679C54.5688 29.0272 53.2563 30.2497 50.9156 30.2497H48.5531V31.2628H51.7031V32.221H48.5531V34.3574H46.8031V32.221H45.3703V31.2628H46.8031V30.2497H45.3703V28.7299ZM50.6641 28.7299C52.2281 28.7299 52.8188 28.0581 52.8188 26.9679C52.8188 25.8776 52.2281 25.2388 50.6641 25.2388H48.5531V28.7299H50.6641Z" fill="url(#paint0_linear_2639_1160)"/>
</g>
<defs>
<linearGradient id="paint0_linear_2639_1160" x1="5" y1="61.0066" x2="61.0184" y2="5.01725" gradientUnits="userSpaceOnUse">
<stop stop-color="#FE5000"/>
<stop offset="1" stop-color="#FE9800"/>
</linearGradient>
<clipPath id="clip0_2639_1160">
<rect width="56" height="56" fill="white" transform="translate(5 5)"/>
</clipPath>
</defs>
</svg>
