<svg width="44" height="44" viewBox="0 0 44 44" fill="none" xmlns="http://www.w3.org/2000/svg">
<path fill-rule="evenodd" clip-rule="evenodd" d="M10.3146 3.00003C9.90685 3.00003 9.57626 3.33061 9.57626 3.73841V23.7787H5.55285C5.2542 23.7787 4.98497 23.9586 4.87068 24.2346C4.75639 24.5105 4.81957 24.8281 5.03074 25.0392L21.4806 41.4891C21.7689 41.7774 22.2364 41.7774 22.5248 41.4891L38.9746 25.0392C39.1858 24.8281 39.2489 24.5105 39.1347 24.2346C39.0204 23.9586 38.7511 23.7787 38.4525 23.7787H34.4291V3.73841C34.4291 3.33061 34.0985 3.00003 33.6907 3.00003H10.3146ZM11.053 24.5171V4.47678H32.9523V24.5171C32.9523 24.9249 33.2829 25.2555 33.6907 25.2555H36.6699L22.0027 39.9227L7.33544 25.2555H10.3146C10.7224 25.2555 11.053 24.9249 11.053 24.5171ZM15.3009 18.9203C15.9552 19.5032 16.7998 19.7946 17.8347 19.7946C18.8578 19.7946 19.6965 19.5032 20.3507 18.9203C21.0169 18.3255 21.35 17.5522 21.35 16.6006C21.35 15.6608 21.0169 14.8935 20.3507 14.2987C19.6965 13.7158 18.8578 13.4243 17.8347 13.4243C16.7998 13.4243 15.9552 13.7158 15.3009 14.2987C14.6466 14.8816 14.3195 15.6489 14.3195 16.6006C14.3195 17.5641 14.6466 18.3374 15.3009 18.9203ZM16.6927 17.7247C16.3953 17.4392 16.2466 17.0645 16.2466 16.6006C16.2466 16.1485 16.3953 15.7857 16.6927 15.5121C16.9901 15.2266 17.3708 15.0838 17.8347 15.0838C18.2987 15.0838 18.6794 15.2266 18.9768 15.5121C19.2861 15.7857 19.4407 16.1485 19.4407 16.6006C19.4407 17.0645 19.292 17.4392 18.9946 17.7247C18.6972 17.9983 18.3106 18.1351 17.8347 18.1351C17.3708 18.1351 16.9901 17.9983 16.6927 17.7247ZM23.188 25.3798C23.8422 25.9627 24.6869 26.2542 25.7218 26.2542C26.7449 26.2542 27.5835 25.9627 28.2378 25.3798C28.904 24.785 29.2371 24.0118 29.2371 23.0601C29.2371 22.1203 28.904 21.353 28.2378 20.7582C27.5835 20.1753 26.7449 19.8839 25.7218 19.8839C24.6869 19.8839 23.8422 20.1753 23.188 20.7582C22.5337 21.3411 22.2065 22.1084 22.2065 23.0601C22.2065 24.0237 22.5337 24.7969 23.188 25.3798ZM24.5798 24.1843C24.2824 23.8988 24.1337 23.524 24.1337 23.0601C24.1337 22.6081 24.2824 22.2452 24.5798 21.9716C24.8772 21.6861 25.2579 21.5434 25.7218 21.5434C26.1858 21.5434 26.5664 21.6861 26.8638 21.9716C27.1731 22.2452 27.3278 22.6081 27.3278 23.0601C27.3278 23.524 27.1791 23.8988 26.8817 24.1843C26.5843 24.4579 26.1976 24.5947 25.7218 24.5947C25.2579 24.5947 24.8772 24.4579 24.5798 24.1843ZM16.6927 25.4512L17.8704 26.272L26.8638 14.263L25.704 13.3886L16.6927 25.4512Z" fill="url(#paint0_linear_2193_779)"/>
<defs>
<linearGradient id="paint0_linear_2193_779" x1="4.81445" y1="41.7053" x2="43.2491" y2="7.56926" gradientUnits="userSpaceOnUse">
<stop stop-color="#FE5000"/>
<stop offset="1" stop-color="#FE9800"/>
</linearGradient>
</defs>
</svg>
