<svg width="44" height="44" viewBox="0 0 44 44" fill="none" xmlns="http://www.w3.org/2000/svg">
<g clip-path="url(#clip0_2193_565)">
<path d="M41.4141 10.8008H36.3125L34.125 6.05747C33.9922 5.76642 33.6328 5.6327 33.3438 5.76642L31.2031 6.76544L24.7188 2.10074C24.4609 1.91195 24.0859 1.97488 23.8984 2.24233L17.8359 10.8008H2.58594C2.25781 10.8008 2 11.0683 2 11.3908V32.6062C2 32.9287 2.26563 33.1961 2.58594 33.1961H7.6875L9.875 37.9395C10.0078 38.2305 10.3594 38.3643 10.6563 38.2305L12.7969 37.2315L19.2813 41.8962C19.5391 42.085 19.9141 42.0221 20.1016 41.7546L26.1641 33.1961H41.4063C41.7344 33.1961 41.9922 32.9287 41.9922 32.6062V11.3908C42 11.0683 41.7344 10.8008 41.4141 10.8008ZM33.3047 7.08796L35.0156 10.8008H25.3516L33.3047 7.08796ZM24.5156 3.41441L29.9844 7.33968L22.5703 10.8008H19.2813L24.5156 3.41441ZM15.75 27.8785V31.9454C15.75 31.969 15.75 31.9926 15.7578 32.0162H12.2344C12.2344 31.9926 12.2422 31.969 12.2422 31.9454V27.8785V26.7772V11.9808H15.7578V26.7772V27.8785H15.75ZM3.17188 32.0162V11.9808H11.1406V26.7772H7.625C7.32031 26.7772 7.07813 27.0211 7.07813 27.3279C7.07813 27.6347 7.32031 27.8785 7.625 27.8785H11.1406V31.9454C11.1406 31.969 11.1406 31.9926 11.1484 32.0162H3.17188V32.0162ZM10.6953 36.909L8.98438 33.1961H18.6484L10.6953 36.909ZM19.4844 40.5904L14.0156 36.6652L21.4297 33.204H24.7188L19.4844 40.5904ZM40.8281 32.0162H16.8438C16.8438 31.9926 16.8516 31.969 16.8516 31.9454V27.8785H26.8516C27.1563 27.8785 27.3984 27.6347 27.3984 27.3279C27.3984 27.0211 27.1563 26.7772 26.8516 26.7772H16.8438V11.9808H18.1328H35.9297H40.8281V32.0162ZM30.8359 18.9503H31.8594V15.379H34.7969C36.4688 15.379 37.4063 16.2286 37.4063 17.6917C37.4063 19.1627 36.4688 20.0358 34.7969 20.0358H33.1094V20.7595H35.3594V21.4439H33.1094V22.97H31.8594V21.4439H30.8359V20.7595H31.8594V20.0358H30.8359V18.9503V18.9503ZM34.6172 18.9503C35.7344 18.9503 36.1563 18.4705 36.1563 17.6917C36.1563 16.9129 35.7344 16.4567 34.6172 16.4567H33.1094V18.9503H34.6172Z" fill="url(#paint0_linear_2193_565)"/>
</g>
<defs>
<linearGradient id="paint0_linear_2193_565" x1="10.2484" y1="42.0051" x2="45.3274" y2="31.0322" gradientUnits="userSpaceOnUse">
<stop stop-color="#FE5000"/>
<stop offset="1" stop-color="#FCA92A"/>
</linearGradient>
<clipPath id="clip0_2193_565">
<rect width="40" height="40" fill="white" transform="translate(2 2.00023)"/>
</clipPath>
</defs>
</svg>
