<svg width="44" height="44" viewBox="0 0 44 44" fill="none" xmlns="http://www.w3.org/2000/svg">
<path fill-rule="evenodd" clip-rule="evenodd" d="M12.7758 4.48462C12.7758 3.93233 12.3281 3.48462 11.7758 3.48462C11.2235 3.48462 10.7758 3.93233 10.7758 4.48462V5.56079H9.7804C7.01897 5.56079 4.7804 7.79936 4.7804 10.5608V35C4.7804 37.7614 7.01897 40 9.78039 40H34.2196C36.981 40 39.2196 37.7614 39.2196 35V10.5608C39.2196 7.79937 36.981 5.56079 34.2196 5.56079H32.6861V4.48462C32.6861 3.93233 32.2384 3.48462 31.6861 3.48462C31.1338 3.48462 30.6861 3.93233 30.6861 4.48462V5.56079H12.7758V4.48462ZM30.6861 9.86574V7.56079H12.7758V9.86574C12.7758 10.418 12.3281 10.8657 11.7758 10.8657C11.2235 10.8657 10.7758 10.418 10.7758 9.86574V7.56079H9.7804C8.12354 7.56079 6.7804 8.90393 6.7804 10.5608V12.6325H37.2196V10.5608C37.2196 8.90393 35.8764 7.56079 34.2196 7.56079H32.6861V9.86574C32.6861 10.418 32.2384 10.8657 31.6861 10.8657C31.1338 10.8657 30.6861 10.418 30.6861 9.86574ZM6.7804 35V14.6325H37.2196V35C37.2196 36.6568 35.8764 38 34.2196 38H9.78039C8.12354 38 6.7804 36.6568 6.7804 35ZM29.7995 20.6847C30.128 20.2408 30.0344 19.6145 29.5904 19.2861C29.1464 18.9576 28.5202 19.0512 28.1917 19.4951L20.4583 29.9469L16.7183 26.853C16.2928 26.5009 15.6624 26.5605 15.3104 26.9861C14.9584 27.4116 15.018 28.042 15.4435 28.394L19.9968 32.1608C20.2084 32.3358 20.4827 32.4162 20.7553 32.3829C21.0279 32.3497 21.2748 32.2058 21.4381 31.9851L29.7995 20.6847Z" fill="#7F94A8"/>
</svg>
