<svg width="44" height="44" viewBox="0 0 44 44" fill="none" xmlns="http://www.w3.org/2000/svg">
<g clip-path="url(#clip0)">
<path d="M8.68649 36.6862C5.70325 36.6862 2.98324 35.8088 0.350969 33.9662C0.175485 33.703 0 33.4398 0 33.1765V10.1003C0 9.74933 0.175485 9.48611 0.438712 9.31062C0.701939 9.13514 1.05291 9.22288 1.40388 9.39837C3.68518 11.0655 6.05422 11.8552 8.68649 11.8552C12.8981 11.8552 17.2852 9.74933 21.5846 7.73126C26.0595 5.62544 30.6221 3.43188 35.2724 3.43188C38.2557 3.43188 40.9757 4.30931 43.6079 6.1519C43.6957 6.41512 43.8712 6.67835 43.8712 6.94158V30.0178C43.8712 30.3688 43.6957 30.632 43.4325 30.8075C43.1692 30.983 42.8183 30.8952 42.4673 30.7198C40.186 29.0527 37.817 28.263 35.1847 28.263C30.973 28.263 26.5859 30.3688 22.2866 32.3869C17.8994 34.4927 13.2491 36.6862 8.68649 36.6862ZM1.75485 32.7378C3.94841 34.2295 6.14196 34.9314 8.68649 34.9314C12.8981 34.9314 17.2852 32.8256 21.5846 30.8075C26.0595 28.7017 30.6221 26.5081 35.2724 26.5081C37.7292 26.5081 40.0105 27.1223 42.2041 28.3507V7.38029C40.0105 5.88867 37.817 5.18673 35.2724 5.18673C31.0608 5.18673 26.6737 7.29255 22.3743 9.31062C17.8994 11.4164 13.3368 13.61 8.68649 13.61C6.22971 13.61 3.94841 12.9958 1.75485 11.7674V32.7378Z" fill="#7F94A8"/>
<path d="M8.68659 40.4591C5.96658 40.4591 3.15883 39.6694 0.438814 37.739C0.0878449 37.4758 -0.0876398 36.8616 0.26333 36.5106C0.526557 36.0719 1.14075 35.9842 1.49172 36.3352C8.0724 41.0733 14.6531 37.9145 21.6725 34.6681C28.7796 31.2461 36.15 27.8242 43.6081 33.1764C44.0468 33.4397 44.1345 34.0539 43.7835 34.4048C43.5203 34.8435 42.9061 34.9313 42.5551 34.5803C35.9745 29.8422 29.3938 33.001 22.3744 36.2474C17.8118 38.2655 13.2492 40.4591 8.68659 40.4591Z" fill="#7F94A8"/>
<path d="M8.68666 18.3481C7.72149 18.3481 6.75632 18.2603 5.79116 18.0848C5.35245 17.9971 5.00148 17.4706 5.08922 17.0319C5.17696 16.5932 5.61567 16.2422 6.14213 16.33C8.86214 16.9442 11.8454 16.5055 15.5306 15.1016C15.9693 14.9261 16.4957 15.1893 16.6712 15.6281C16.8467 16.0668 16.5835 16.5932 16.1448 16.7687C13.337 17.8216 10.8802 18.3481 8.68666 18.3481Z" fill="#7F94A8"/>
<path d="M27.9898 11.5042C27.6388 11.5042 27.2879 11.2409 27.2001 10.89C27.0246 10.4512 27.2879 9.92479 27.7266 9.7493C31.7627 8.25768 35.0092 7.81897 38.0802 8.52091C38.5189 8.60865 38.8698 9.13511 38.7821 9.57382C38.6944 10.0125 38.2556 10.3635 37.7292 10.2758C35.0092 9.7493 32.0259 10.1003 28.3408 11.5042C28.253 11.5042 28.1653 11.5042 27.9898 11.5042Z" fill="#7F94A8"/>
<path d="M8.6869 31.8603C7.72173 31.8603 6.75657 31.7725 5.7914 31.597C5.35269 31.5093 5.00172 31.0706 5.08946 30.5441C5.17721 30.1054 5.70366 29.7545 6.14237 29.8422C8.86238 30.4564 11.8456 30.0177 15.5308 28.6138C15.9695 28.4383 16.496 28.7015 16.6715 29.1403C16.8469 29.579 16.5837 30.1054 16.145 30.2809C13.3372 31.4216 10.8805 31.8603 8.6869 31.8603Z" fill="#7F94A8"/>
<path d="M22.6377 21.5945C24.919 20.6293 26.3229 18.699 26.3229 16.4177V13.8731C26.3229 11.6796 24.8313 10.8899 22.6377 11.7673L19.3035 13.1712C18.8648 13.3467 18.5139 13.8731 18.5139 14.2241V21.6822L17.5487 22.1209C17.11 22.2964 16.759 22.7351 16.759 23.1738C16.759 23.6125 17.11 23.788 17.5487 23.6125L18.5139 23.1738V24.7532L17.4609 25.1919C17.0222 25.3674 16.6713 25.8938 16.6713 26.2448C16.6713 26.6835 17.0222 26.859 17.4609 26.6835L18.4261 26.2448V28.6139C18.4261 29.0526 18.7771 29.2281 19.2158 29.0526C19.6545 28.8771 20.0055 28.4384 20.0055 27.9997V25.6306L23.6029 24.139C24.0416 23.9635 24.3926 23.5248 24.3926 23.0861C24.3926 22.6474 24.0416 22.4719 23.6029 22.6474L20.0055 24.139V22.6474L22.6377 21.5945ZM20.0055 14.4873L22.6377 13.4344C23.4274 13.0835 24.8313 12.8202 24.8313 14.5751V17.1196C24.8313 17.997 24.5681 19.3132 22.6377 20.1028L21.0584 20.717L20.0055 21.1558V14.4873Z" fill="#7F94A8"/>
<path d="M27.99 25.0164C27.6391 25.0164 27.2881 24.7531 27.2004 24.4022C27.0249 23.9634 27.2881 23.437 27.7268 23.2615C31.763 21.7699 35.0094 21.3312 38.0804 22.0331C38.5191 22.1209 38.8701 22.5596 38.7823 23.086C38.6946 23.5247 38.2559 23.8757 37.7294 23.788C35.0094 23.2615 32.0262 23.6125 28.341 25.0164C28.2533 25.0164 28.1655 25.0164 27.99 25.0164Z" fill="#7F94A8"/>
</g>
<defs>
<clipPath id="clip0">
<rect width="44" height="44" fill="white"/>
</clipPath>
</defs>
</svg>
