<svg width="44" height="44" viewBox="0 0 44 44" fill="none" xmlns="http://www.w3.org/2000/svg">
<path d="M26.5552 16.4122H9.47331C9.11744 16.4122 8.76157 16.7043 8.76157 17.1426C8.76157 17.5078 9.04626 17.873 9.47331 17.873H26.5552C26.911 17.873 27.2669 17.5809 27.2669 17.1426C27.2669 16.7043 26.911 16.4122 26.5552 16.4122ZM9.47331 12.1757H16.3061C16.6619 12.1757 17.0178 11.8835 17.0178 11.4452C17.0178 11.08 16.7331 10.7148 16.3061 10.7148H9.47331C9.11744 10.7148 8.76157 11.007 8.76157 11.4452C8.83274 11.8835 9.11744 12.1757 9.47331 12.1757ZM26.5552 22.0365H9.47331C9.11744 22.0365 8.76157 22.3287 8.76157 22.767C8.76157 23.1322 9.04626 23.4974 9.47331 23.4974H26.5552C26.911 23.4974 27.2669 23.2052 27.2669 22.767C27.2669 22.3287 26.911 22.0365 26.5552 22.0365ZM21.0747 27.5878H9.47331C9.11744 27.5878 8.76157 27.88 8.76157 28.3183C8.76157 28.7565 9.04626 29.0487 9.47331 29.0487H21.0747C21.4306 29.0487 21.7865 28.7565 21.7865 28.3183C21.7865 27.88 21.5018 27.5878 21.0747 27.5878ZM19.0819 34.6C19.4377 34.6 19.7936 34.3078 19.7936 33.8696C19.7936 33.4313 19.5089 33.1391 19.0819 33.1391H9.47331C9.11744 33.1391 8.76157 33.4313 8.76157 33.8696C8.76157 34.3078 9.04626 34.6 9.47331 34.6H19.0819ZM3.35231 2.38783H23.1388V12.1757H32.6762V24.8122H34.0285V11.2261L24.0641 1H2V43H21.7865V41.6122H3.35231V2.38783ZM24.4911 3.41043L31.6797 10.7878H24.4911V3.41043ZM41.3594 27.0035L39.4377 25.0313C38.6548 24.2278 37.3025 24.2278 36.5907 25.0313L26.0569 35.7687L24.6335 41.247L24.2776 41.6122C23.9929 41.9043 23.9929 42.3426 24.2776 42.5617C24.4199 42.7078 24.5623 42.7809 24.7758 42.7809C24.9181 42.7809 25.1317 42.7078 25.274 42.5617L25.6299 42.1965L30.968 40.7357L41.4306 29.9983C41.7865 29.633 42 29.0487 42 28.5374C41.9288 27.953 41.7153 27.4417 41.3594 27.0035ZM27.6228 36.1339L34.5979 28.9757L37.516 31.9704L30.4698 39.1287L27.6228 36.1339ZM26.9822 37.5217L29.1886 39.7861L26.1993 40.6626L26.9822 37.5217ZM40.363 28.9757L38.4413 30.9478L35.5231 28.0261L37.4448 26.0539C37.7295 25.7617 38.1566 25.7617 38.3701 26.0539L40.2918 28.0261C40.4342 28.1722 40.5053 28.3183 40.5053 28.5374C40.5765 28.6835 40.5053 28.8296 40.363 28.9757Z" fill="url(#paint0_linear_2039_1401)"/>
<defs>
<linearGradient id="paint0_linear_2039_1401" x1="10.25" y1="43" x2="45.6258" y2="32.4558" gradientUnits="userSpaceOnUse">
<stop stop-color="#FE5000"/>
<stop offset="1" stop-color="#FCA92A"/>
</linearGradient>
</defs>
</svg>
